<svg width="70" height="60" viewBox="0 0 70 60" fill="none" xmlns="http://www.w3.org/2000/svg">
<rect width="70" height="60" rx="4" fill="white" fill-opacity="0.85"/>
<rect x="0.5" y="0.5" width="69" height="59" rx="3.5" stroke="white" stroke-opacity="0.25"/>
<rect x="9.65" y="4.65" width="50.7" height="50.7" rx="25.35" stroke="#002710" stroke-opacity="0.25" stroke-width="1.3"/>
<path d="M26.2767 25.4587L27.3406 24.9353L28.1477 25.8059L27.9795 24.6294L29.0548 24.1311L27.8873 23.9278L27.7459 22.7494L27.1919 23.7984L26.0288 23.5703L26.8543 24.421L26.2767 25.4587Z" fill="#002710" fill-opacity="0.25"/>
<path d="M29.2124 27.4935L29.209 27.5195C29.2105 27.5129 29.2124 27.5053 29.2155 27.499L29.2124 27.4935Z" fill="#002710" fill-opacity="0.25"/>
<path d="M23.5316 25.6842L24.2582 24.8538L25.2621 25.3106L24.6974 24.3627L25.4399 23.5474L24.3655 23.7912L23.8214 22.8312L23.7225 23.9314L22.6411 24.1537L23.6554 24.5863L23.5316 25.6842Z" fill="#002710" fill-opacity="0.25"/>
<path d="M30.785 26.7973L30.3004 25.806L29.2119 25.9839L30.0045 25.2167L29.5002 24.2357L30.4743 24.7518L31.2502 23.9684L31.0585 25.0553L32.0441 25.553L30.9524 25.7053L30.785 26.7973Z" fill="#002710" fill-opacity="0.25"/>
<path d="M21.4323 33.8865C20.8058 33.523 20.8662 33.0081 20.8058 32.7622C20.7448 32.5185 20.5638 31.2725 20.5638 30.9093C20.5638 30.5457 20.2407 30.1379 20.018 29.6667C19.7955 29.1951 19.2094 27.9531 19.1705 27.8673C19.1288 27.7821 18.8675 27.5677 18.4428 27.7603C18.0183 27.9529 17.5339 27.8037 17.4121 27.8673C17.2908 27.9313 16.8477 28.0813 16.6451 28.1033C16.4429 28.1245 16.4632 28.3815 16.3218 28.4673C16.1806 28.5535 15.7764 28.3164 15.7764 28.3164C15.7764 28.3164 15.5746 28.2111 15.5344 28.1245C15.4944 28.0387 15.4944 27.9185 15.4124 27.6753C15.2926 27.3109 15.5147 27.2756 15.5147 27.2756C15.5147 27.2756 15.8575 26.9607 15.9788 26.8529C16.0999 26.7463 16.612 26.1417 16.6241 25.9185C16.6451 25.554 16.9675 25.3403 17.1104 25.1691C17.18 25.0828 17.3392 24.9972 17.3918 24.8674C17.4457 24.74 17.3918 24.5693 17.3918 24.5693C17.1706 24.3981 17.3918 23.6902 17.3918 23.6902H17.4731C17.4731 23.6902 17.4731 23.8828 17.5534 23.9909C17.6351 24.0981 17.7958 24.4618 17.8974 24.3551C17.9986 24.2466 18.1796 24.3758 18.1796 24.3758C18.0183 24.1406 18.2601 23.5614 18.2601 23.5614H18.3418V23.626C18.3418 23.6902 18.3818 23.9258 18.4225 24.0334C18.4627 24.1406 18.7862 24.6758 18.7862 24.6758C18.7862 24.6758 19.1001 24.8382 19.2212 24.9429C19.3421 25.0476 19.4456 25.0151 19.5933 24.9828C19.8969 24.9179 22.1373 26.2264 23.1678 27.4173C23.7184 28.0519 24.1789 28.0385 24.4614 28.0594C24.7446 28.0811 25.9362 28.6597 25.9362 28.6597C25.9362 28.6597 27.2491 28.7459 28.4606 28.2961C29.6722 27.8459 30.6216 27.4607 32.0355 28.0171C32.0355 28.0171 32.3581 28.1457 32.5609 28.1878C32.7631 28.2317 33.1461 28.3813 33.1461 28.3813C33.1461 28.3813 34.2577 28.2315 34.964 29.8169C35.6699 31.4011 35.8123 33.0297 35.5492 34.3366C35.5492 34.3366 35.5492 34.0571 35.4893 33.9079C35.4289 33.7577 35.1257 34.9141 35.0048 35.1069V34.6785C35.0048 34.6141 34.7004 35.3851 34.6413 35.6199C34.5808 35.8559 34.5604 36.0485 34.5604 36.0485C34.5604 36.0485 34.5403 35.3425 34.621 35.1499C34.7004 34.9569 34.4389 35.4917 34.4389 35.4061C34.4389 35.3213 34.4588 34.7855 34.4588 34.6355C34.4588 34.4849 34.2973 34.7213 34.3176 33.7153C34.3383 32.7077 34.4995 31.9587 34.3383 31.2513C34.1755 30.5455 34.2376 30.4375 34.2376 30.4375C34.2376 30.4375 34.2177 31.0371 34.1561 31.1655C34.1561 31.1655 33.9541 32.4505 33.6105 33.0503C33.2668 33.6503 32.8042 34.2503 32.9647 34.7213C33.1256 35.1925 33.3691 35.7275 33.3691 35.8991C33.3691 36.0703 33.4089 36.1133 33.4703 36.2426C33.5302 36.3699 33.7527 36.7996 33.6105 37.1206C33.4703 37.442 33.4898 38.1278 33.4898 38.5342C33.4898 38.941 33.5097 40.0974 33.5097 40.1834C33.5097 40.269 33.5097 40.3539 33.428 40.3974C33.3494 40.441 33.3077 40.5467 33.2878 40.6116C33.2668 40.6762 33.0653 40.7186 33.0653 40.869C33.0653 41.0182 33.187 41.2124 33.187 41.2762C33.187 41.34 33.0045 41.468 33.0045 41.468C33.0045 41.468 32.056 41.5328 32.056 41.468C32.056 41.4033 32.3992 40.9321 32.3992 40.9321C32.3992 40.9321 32.3992 40.7821 32.5408 40.7184C32.6812 40.6544 32.7422 40.5465 32.7422 40.3122C32.7422 40.0755 32.7022 40.0319 32.783 39.7976C32.8637 39.562 32.8042 37.7191 32.8042 37.7191L32.7422 37.6341C32.7422 37.6341 32.3795 38.9183 32.3581 39.1554C32.3384 39.3903 32.4199 39.7334 32.197 39.9895C31.9741 40.2474 31.793 40.3539 31.793 40.3539C31.793 40.3539 31.6921 40.5048 31.7729 40.6116C31.8542 40.7186 31.9546 40.869 31.894 40.9323C31.8341 40.9972 31.6921 41.0398 31.6921 41.0398C31.6921 41.0398 31.0256 41.1686 30.8242 41.0828C30.8242 41.0828 30.9648 40.7186 31.0048 40.6336C31.0457 40.5465 31.0859 40.419 31.2275 40.2914C31.3685 40.1616 31.5104 40.1832 31.5104 39.9895C31.5104 39.7978 31.6108 39.7334 31.7528 39.3696C31.894 39.0045 32.0355 37.806 32.0355 37.6564C32.0355 37.5055 31.7528 36.7996 31.7528 36.2631V35.3211C31.7528 35.3211 31.5301 35.0855 31.3885 34.5059C31.2491 33.9287 30.6819 33.2433 30.5413 33.1143C30.4005 32.9861 30.3188 33.0295 30.1577 33.0503C29.996 33.0721 29.996 32.9861 29.8128 32.9009C29.632 32.8153 28.8844 33.2433 28.562 33.4797C28.2435 33.7114 26.7936 34.1905 25.1899 34.3699C25.1622 34.3728 25.1352 34.3754 25.1071 34.3781C23.4712 34.5491 24.3407 34.5056 24.259 34.5056C24.259 34.5056 24.4209 35.1283 24.4815 35.6845C24.542 36.2421 24.664 36.7763 24.664 37.0983C24.664 37.4208 24.6435 37.9769 24.7032 38.0837C24.765 38.1911 24.9892 39.1978 24.9892 39.1978C24.9892 39.1978 25.3087 39.5192 25.2289 39.6476C25.1478 39.7751 24.991 39.7976 24.9892 40.0122C24.986 40.2258 24.9106 40.5904 24.9892 40.6544C25.0677 40.7186 25.0925 40.7819 24.9892 40.8044C24.8854 40.8254 24.7446 40.9321 24.7446 40.9321C24.7446 40.9321 24.5626 41.1684 23.9575 41.0396C23.9575 41.0396 23.9575 40.8688 24.119 40.697C24.2801 40.5264 24.2801 40.5264 24.4008 40.4622C24.5219 40.3969 24.4614 40.2914 24.542 40.0755C24.6231 39.8616 24.664 39.7332 24.664 39.7332C24.664 39.7332 24.502 39.5834 24.502 39.3901C24.502 39.1978 24.1789 38.2123 24.1385 38.1051C24.0981 37.9981 23.8152 37.5695 23.6943 37.0771C23.5728 36.5843 23.2698 35.6419 23.1481 35.3644C23.0278 35.0853 23.0075 35.1925 23.0075 35.4057C23.0075 35.6199 22.7718 36.2849 22.9 36.6489C23.0278 37.0129 23.0144 37.7191 22.9 37.8689C22.785 38.02 22.785 38.3628 22.785 38.6189C22.785 38.8761 22.8539 39.5192 22.9 39.6692C22.9467 39.8185 23.0546 39.9474 22.9 40.0755C22.7443 40.2046 22.6848 40.2912 22.6228 40.3537C22.5631 40.4188 22.482 40.7819 22.482 40.847C22.482 40.9099 22.6641 41.0177 22.6039 41.0612C22.5426 41.1038 22.3617 41.3398 22.3617 41.3398C22.3617 41.3398 21.7547 41.3824 21.4126 41.318V41.2324C21.4126 41.2324 21.7384 40.7184 21.9081 40.6112C22.0778 40.5044 22.0374 40.3969 22.1187 40.2686C22.1987 40.1414 22.2995 39.8183 22.2995 39.7329C22.2995 39.6473 22.2995 39.4331 22.32 39.3692C22.3412 39.3041 22.2603 38.1697 22.2603 38.1697C22.2603 38.1697 22.0374 37.5051 22.0579 37.0127C22.0778 36.5203 22.0904 36.1494 21.9081 35.8767C21.2504 34.8942 21.4323 33.8865 21.4323 33.8865Z" fill="#002710" fill-opacity="0.25"/>
<path d="M34.5797 26.2759C36.3422 28.1244 37.1126 30.2815 37.1126 33.0391C37.1126 35.9924 35.87 38.6528 33.8812 40.5301C33.877 40.5355 33.8719 40.5406 33.8667 40.545C40.0604 37.6473 45.6084 31.6139 45.6084 31.6139C41.9491 31.1406 37.733 28.8553 34.5797 26.2759Z" fill="#002710" fill-opacity="0.25"/>
<path d="M52.4171 18.5033C52.7389 21.217 53.1532 24.4898 51.5903 29.3259L54.532 21.26C55.1258 19.5491 53.1071 18.6285 52.4171 18.5033Z" fill="#002710" fill-opacity="0.25"/>
<path d="M52.2118 21.6874C47.428 25.302 33.3123 20.0749 27.3966 20.5226C21.9257 20.9363 19.7295 24.2616 19.7295 24.2616C19.7364 24.2561 19.7431 24.2519 19.7494 24.2467C21.5873 22.858 23.8749 22.0337 26.3544 22.0337C29.169 22.0337 31.4385 23.0454 33.6777 24.8385C34.6334 25.7142 35.6376 26.259 36.5723 26.823C44.3375 31.5109 47.6442 30.9151 47.6442 30.9151C41.8114 38.2395 33.9895 41.0556 33.9895 41.0556C41.3893 42.2967 46.5781 40.4281 46.5788 40.4281L51.5904 29.3259L51.6029 29.2986C52.2323 26.8286 52.5508 23.4499 52.2118 21.6874Z" fill="#002710" fill-opacity="0.25"/>
</svg>
