<svg width="70" height="60" viewBox="0 0 70 60" fill="none" xmlns="http://www.w3.org/2000/svg">
<rect x="0.5" y="0.5" width="69" height="59" rx="3.5" stroke="#002710" stroke-opacity="0.25"/>
<path d="M22.5382 23.4792L24.0581 22.7276L25.2111 23.9777L24.9708 22.2883L26.5069 21.5729L24.8391 21.281L24.637 19.5889L23.8456 21.0951L22.1841 20.7676L23.3634 21.9892L22.5382 23.4792Z" fill="#001007" fill-opacity="0.5"/>
<path d="M26.7314 26.401L26.7266 26.4382C26.7287 26.4289 26.7314 26.418 26.7359 26.4089L26.7314 26.401Z" fill="#001007" fill-opacity="0.5"/>
<path d="M18.6163 23.8031L19.6544 22.6107L21.0884 23.2665L20.2818 21.9055L21.3426 20.7349L19.8076 21.0849L19.0303 19.7064L18.889 21.2862L17.3442 21.6055L18.7932 22.2266L18.6163 23.8031Z" fill="#001007" fill-opacity="0.5"/>
<path d="M28.9783 25.4011L28.2859 23.9777L26.731 24.2332L27.8633 23.1315L27.1428 21.7229L28.5344 22.464L29.6427 21.3391L29.3689 22.8999L30.7769 23.6144L29.2174 23.8331L28.9783 25.4011Z" fill="#001007" fill-opacity="0.5"/>
<path d="M15.6178 35.5806C14.7228 35.0585 14.809 34.3193 14.7228 33.9662C14.6357 33.6162 14.3771 31.8271 14.3771 31.3056C14.3771 30.7836 13.9155 30.1979 13.5973 29.5213C13.2795 28.8441 12.4423 27.0607 12.3866 26.9375C12.327 26.8152 11.9538 26.5074 11.3471 26.7839C10.7406 27.0605 10.0486 26.8463 9.8747 26.9375C9.70139 27.0294 9.06833 27.2448 8.77889 27.2764C8.49005 27.3069 8.51908 27.6759 8.31704 27.7991C8.1153 27.9229 7.53791 27.5825 7.53791 27.5825C7.53791 27.5825 7.24966 27.4313 7.19219 27.3069C7.13502 27.1837 7.13502 27.011 7.01799 26.6619C6.84678 26.1386 7.16406 26.088 7.16406 26.088C7.16406 26.088 7.65375 25.6359 7.82705 25.481C8.00006 25.328 8.7316 24.4598 8.74896 24.1393C8.77889 23.616 9.23954 23.309 9.44368 23.0632C9.54306 22.9394 9.77054 22.8165 9.84567 22.63C9.92259 22.4472 9.84567 22.2019 9.84567 22.2019C9.52958 21.9561 9.84567 20.9397 9.84567 20.9397H9.9618C9.9618 20.9397 9.9618 21.2163 10.0764 21.3714C10.1932 21.5253 10.4228 22.0477 10.5679 21.8944C10.7125 21.7386 10.9711 21.9242 10.9711 21.9242C10.7406 21.5865 11.086 20.7548 11.086 20.7548H11.2028V20.8475C11.2028 20.9397 11.26 21.278 11.318 21.4326C11.3755 21.5865 11.8376 22.355 11.8376 22.355C11.8376 22.355 12.286 22.5881 12.459 22.7385C12.6317 22.8888 12.7796 22.8421 12.9906 22.7957C13.4243 22.7026 16.625 24.5815 18.097 26.2914C18.8836 27.2026 19.5415 27.1834 19.945 27.2135C20.3497 27.2445 22.0519 28.0753 22.0519 28.0753C22.0519 28.0753 23.9275 28.1992 25.6582 27.5533C27.3891 26.9068 28.7453 26.3537 30.7652 27.1526C30.7652 27.1526 31.2261 27.3373 31.5159 27.3978C31.8047 27.4608 32.3519 27.6756 32.3519 27.6756C32.3519 27.6756 33.9397 27.4605 34.9488 29.737C35.9572 32.0117 36.1607 34.3503 35.7848 36.2268C35.7848 36.2268 35.7848 35.8255 35.6992 35.6113C35.6129 35.3956 35.1798 37.0561 35.0071 37.3329V36.7178C35.0071 36.6253 34.5722 37.7324 34.4878 38.0695C34.4013 38.4084 34.3723 38.6849 34.3723 38.6849C34.3723 38.6849 34.3435 37.6713 34.4588 37.3947C34.5722 37.1176 34.1987 37.8854 34.1987 37.7625C34.1987 37.6408 34.2271 36.8714 34.2271 36.6561C34.2271 36.4398 33.9963 36.7793 34.0254 35.3348C34.055 33.8879 34.2852 32.8124 34.055 31.7966C33.8224 30.7833 33.911 30.6281 33.911 30.6281C33.911 30.6281 33.8826 31.4891 33.7946 31.6734C33.7946 31.6734 33.506 33.5186 33.0151 34.3798C32.5243 35.2414 31.8634 36.103 32.0926 36.7793C32.3225 37.4559 32.6703 38.224 32.6703 38.4705C32.6703 38.7163 32.7272 38.778 32.8149 38.9636C32.9005 39.1465 33.2184 39.7634 33.0151 40.2243C32.8149 40.6858 32.8427 41.6706 32.8427 42.2541C32.8427 42.8382 32.8712 44.4987 32.8712 44.6222C32.8712 44.7451 32.8712 44.8671 32.7544 44.9295C32.6422 44.9921 32.5826 45.144 32.5542 45.2371C32.5243 45.3298 32.2363 45.3907 32.2363 45.6067C32.2363 45.8209 32.4102 46.0998 32.4102 46.1914C32.4102 46.283 32.1495 46.4667 32.1495 46.4667C32.1495 46.4667 30.7945 46.5598 30.7945 46.4667C30.7945 46.374 31.2848 45.6974 31.2848 45.6974C31.2848 45.6974 31.2848 45.482 31.4871 45.3904C31.6877 45.2985 31.7748 45.1437 31.7748 44.8072C31.7748 44.4674 31.7176 44.4047 31.8331 44.0682C31.9484 43.7299 31.8634 41.0838 31.8634 41.0838L31.7748 40.9618C31.7748 40.9618 31.2566 42.8057 31.2261 43.1461C31.198 43.4835 31.3144 43.976 30.9959 44.3439C30.6775 44.7141 30.4188 44.8671 30.4188 44.8671C30.4188 44.8671 30.2746 45.0837 30.3901 45.2371C30.5062 45.3907 30.6496 45.6067 30.5631 45.6977C30.4775 45.7907 30.2746 45.8519 30.2746 45.8519C30.2746 45.8519 29.3224 46.0369 29.0348 45.9137C29.0348 45.9137 29.2356 45.3907 29.2928 45.2687C29.3512 45.1437 29.4086 44.9605 29.611 44.7774C29.8124 44.5909 30.0151 44.6219 30.0151 44.3439C30.0151 44.0685 30.1584 43.976 30.3614 43.4537C30.5631 42.9295 30.7652 41.2085 30.7652 40.9937C30.7652 40.7771 30.3614 39.7634 30.3614 38.9931V37.6405C30.3614 37.6405 30.0432 37.3022 29.8409 36.4699C29.6418 35.6412 28.8315 34.657 28.6307 34.4717C28.4296 34.2877 28.3128 34.35 28.0827 34.3798C27.8516 34.4112 27.8516 34.2877 27.59 34.1653C27.3317 34.0424 26.2637 34.657 25.803 34.9965C25.3481 35.3291 23.2768 36.0171 20.9858 36.2747C20.9463 36.2789 20.9076 36.2825 20.8675 36.2864C18.5304 36.5319 19.7726 36.4696 19.6559 36.4696C19.6559 36.4696 19.8873 37.3637 19.9738 38.1623C20.0603 38.963 20.2345 39.73 20.2345 40.1924C20.2345 40.6554 20.2051 41.454 20.2904 41.6073C20.3787 41.7616 20.699 43.207 20.699 43.207C20.699 43.207 21.1555 43.6685 21.0414 43.8528C20.9256 44.036 20.7017 44.0682 20.699 44.3764C20.6945 44.6831 20.5868 45.2066 20.699 45.2985C20.8113 45.3907 20.8466 45.4817 20.699 45.5139C20.5509 45.544 20.3497 45.6974 20.3497 45.6974C20.3497 45.6974 20.0896 46.0366 19.2252 45.8516C19.2252 45.8516 19.2252 45.6064 19.4559 45.3597C19.6861 45.1148 19.6861 45.1147 19.8585 45.0226C20.0315 44.9289 19.945 44.7774 20.0603 44.4674C20.1761 44.1601 20.2345 43.9757 20.2345 43.9757C20.2345 43.9757 20.0031 43.7606 20.0031 43.4832C20.0031 43.207 19.5415 41.792 19.4838 41.6381C19.426 41.4844 19.0219 40.869 18.8492 40.162C18.6756 39.4543 18.2428 38.1011 18.0689 37.7026C17.8971 37.3019 17.868 37.4559 17.868 37.7619C17.868 38.0695 17.5313 39.0245 17.7145 39.5471C17.8971 40.0698 17.8779 41.0838 17.7145 41.2989C17.5502 41.5158 17.5502 42.008 17.5502 42.3758C17.5502 42.7451 17.6486 43.6685 17.7145 43.8839C17.7812 44.0983 17.9354 44.2833 17.7145 44.4674C17.4921 44.6526 17.4071 44.7771 17.3185 44.8668C17.2332 44.9602 17.1174 45.4817 17.1174 45.5751C17.1174 45.6654 17.3775 45.8203 17.2916 45.8826C17.2039 45.9438 16.9455 46.2827 16.9455 46.2827C16.9455 46.2827 16.0784 46.3438 15.5896 46.2514V46.1284C15.5896 46.1284 16.0551 45.3904 16.2975 45.2365C16.54 45.0831 16.4822 44.9289 16.5983 44.7445C16.7127 44.562 16.8566 44.098 16.8566 43.9754C16.8566 43.8525 16.8566 43.545 16.886 43.4531C16.9162 43.3597 16.8007 41.7308 16.8007 41.7308C16.8007 41.7308 16.4822 40.7765 16.5115 40.0695C16.54 39.3625 16.5579 38.8298 16.2975 38.4382C15.358 37.0275 15.6178 35.5806 15.6178 35.5806Z" fill="#001007" fill-opacity="0.5"/>
<path d="M34.3999 24.6526C36.9178 27.3069 38.0184 30.4043 38.0184 34.3639C38.0184 38.6045 36.2431 42.4246 33.402 45.1202C33.396 45.128 33.3888 45.1352 33.3813 45.1416C42.2296 40.9808 50.1553 32.3175 50.1553 32.3175C44.9276 31.6379 38.9047 28.3564 34.3999 24.6526Z" fill="#001007" fill-opacity="0.5"/>
<path d="M59.8818 13.4919C60.3416 17.3886 60.9333 22.088 58.7007 29.032L62.9031 17.4503C63.7514 14.9937 60.8675 13.6718 59.8818 13.4919Z" fill="#001007" fill-opacity="0.5"/>
<path d="M59.5884 18.064C52.7543 23.2542 32.5891 15.7486 24.1381 16.3915C16.3225 16.9855 13.1851 21.7603 13.1851 21.7603C13.1949 21.7525 13.2045 21.7464 13.2135 21.7389C15.8391 19.745 19.1071 18.5614 22.6493 18.5614C26.67 18.5614 29.9123 20.014 33.1111 22.5887C34.4763 23.8461 35.9109 24.6285 37.2462 25.4382C48.3393 32.1696 53.0632 31.314 53.0632 31.314C44.7307 41.8311 33.5565 45.8748 33.5565 45.8748C44.1276 47.6569 51.5402 44.9737 51.5411 44.9737L58.7006 29.0321L58.7185 28.9929C59.6177 25.4463 60.0727 20.5948 59.5884 18.064Z" fill="#001007" fill-opacity="0.5"/>
</svg>
