<svg width="60" height="60" viewBox="0 0 60 60" fill="none" xmlns="http://www.w3.org/2000/svg">
<rect x="0.5" y="0.5" width="59" height="59" rx="29.5" stroke="#002710" stroke-opacity="0.25"/>
<path d="M19.2636 24.4107L20.5731 23.7665L21.5665 24.8381L21.3594 23.39L22.6828 22.7768L21.2459 22.5266L21.0718 21.0762L20.39 22.3673L18.9586 22.0866L19.9746 23.1336L19.2636 24.4107Z" fill="#002710" fill-opacity="0.25"/>
<path d="M22.8765 26.9151L22.8723 26.947C22.8741 26.939 22.8765 26.9296 22.8804 26.9218L22.8765 26.9151Z" fill="#002710" fill-opacity="0.25"/>
<path d="M15.8849 24.6883L16.7792 23.6663L18.0147 24.2284L17.3197 23.0619L18.2336 22.0584L16.9113 22.3585L16.2416 21.1769L16.1198 22.531L14.7889 22.8047L16.0373 23.3371L15.8849 24.6883Z" fill="#002710" fill-opacity="0.25"/>
<path d="M24.812 26.0581L24.2156 24.8381L22.8759 25.0571L23.8515 24.1128L23.2308 22.9054L24.4296 23.5406L25.3845 22.5764L25.1486 23.9142L26.3616 24.5267L25.0181 24.7141L24.812 26.0581Z" fill="#002710" fill-opacity="0.25"/>
<path d="M13.3015 34.7833C12.5305 34.3359 12.6048 33.7022 12.5305 33.3996C12.4554 33.0995 12.2326 31.566 12.2326 31.1191C12.2326 30.6716 11.835 30.1696 11.5609 29.5897C11.287 29.0092 10.5657 27.4806 10.5178 27.375C10.4664 27.2702 10.1449 27.0063 9.62216 27.2433C9.0997 27.4803 8.50349 27.2968 8.35367 27.375C8.20436 27.4537 7.65895 27.6384 7.40958 27.6655C7.16073 27.6916 7.18575 28.0079 7.01168 28.1135C6.83787 28.2196 6.34043 27.9278 6.34043 27.9278C6.34043 27.9278 6.0921 27.7982 6.04258 27.6916C5.99333 27.586 5.99333 27.438 5.8925 27.1387C5.74499 26.6902 6.01834 26.6468 6.01834 26.6468C6.01834 26.6468 6.44023 26.2593 6.58954 26.1265C6.73859 25.9954 7.36884 25.2512 7.38379 24.9765C7.40958 24.528 7.80645 24.2648 7.98233 24.0541C8.06794 23.948 8.26393 23.8427 8.32865 23.6828C8.39493 23.5261 8.32865 23.3159 8.32865 23.3159C8.05634 23.1052 8.32865 22.234 8.32865 22.234H8.42871C8.42871 22.234 8.42871 22.471 8.52747 22.604C8.62804 22.736 8.82584 23.1837 8.95091 23.0523C9.07546 22.9188 9.29826 23.0778 9.29826 23.0778C9.0997 22.7884 9.39729 22.0755 9.39729 22.0755H9.49786V22.155C9.49786 22.234 9.54712 22.524 9.59715 22.6564C9.64666 22.7884 10.0448 23.4471 10.0448 23.4471C10.0448 23.4471 10.4311 23.6469 10.5802 23.7758C10.729 23.9046 10.8564 23.8646 11.0382 23.8248C11.4118 23.7451 14.1693 25.3555 15.4375 26.8211C16.1152 27.6022 16.682 27.5857 17.0296 27.6115C17.3783 27.6381 18.8448 28.3503 18.8448 28.3503C18.8448 28.3503 20.4607 28.4564 21.9517 27.9028C23.443 27.3487 24.6114 26.8746 26.3516 27.5594C26.3516 27.5594 26.7487 27.7176 26.9983 27.7695C27.2472 27.8235 27.7186 28.0076 27.7186 28.0076C27.7186 28.0076 29.0866 27.8232 29.9559 29.7745C30.8247 31.7243 31.0001 33.7288 30.6762 35.3372C30.6762 35.3372 30.6762 34.9933 30.6024 34.8097C30.5282 34.6248 30.155 36.048 30.0062 36.2853V35.7581C30.0062 35.6788 29.6315 36.6277 29.5588 36.9167C29.4843 37.2072 29.4593 37.4442 29.4593 37.4442C29.4593 37.4442 29.4345 36.5753 29.5338 36.3383C29.6315 36.1007 29.3097 36.7589 29.3097 36.6536C29.3097 36.5492 29.3342 35.8898 29.3342 35.7051C29.3342 35.5198 29.1354 35.8108 29.1604 34.5726C29.1859 33.3324 29.3842 32.4106 29.1859 31.5399C28.9855 30.6713 29.0619 30.5383 29.0619 30.5383C29.0619 30.5383 29.0374 31.2763 28.9616 31.4343C28.9616 31.4343 28.713 33.0159 28.29 33.7541C27.8671 34.4926 27.2977 35.2311 27.4953 35.8108C27.6933 36.3907 27.993 37.0491 27.993 37.2603C27.993 37.471 28.042 37.524 28.1175 37.683C28.1913 37.8398 28.4651 38.3686 28.29 38.7637C28.1175 39.1592 28.1415 40.0033 28.1415 40.5035C28.1415 41.0042 28.166 42.4274 28.166 42.5333C28.166 42.6386 28.166 42.7432 28.0654 42.7967C27.9687 42.8504 27.9174 42.9805 27.8929 43.0603C27.8671 43.1398 27.6191 43.192 27.6191 43.3771C27.6191 43.5607 27.7689 43.7998 27.7689 43.8783C27.7689 43.9568 27.5443 44.1143 27.5443 44.1143C27.5443 44.1143 26.3769 44.1941 26.3769 44.1143C26.3769 44.0348 26.7993 43.4548 26.7993 43.4548C26.7993 43.4548 26.7993 43.2702 26.9736 43.1917C27.1464 43.113 27.2214 42.9802 27.2214 42.6918C27.2214 42.4006 27.1722 42.3469 27.2717 42.0584C27.371 41.7685 27.2977 39.5003 27.2977 39.5003L27.2214 39.3958C27.2214 39.3958 26.775 40.9763 26.7487 41.268C26.7245 41.5572 26.8248 41.9794 26.5504 42.2947C26.276 42.612 26.0532 42.7432 26.0532 42.7432C26.0532 42.7432 25.9289 42.9289 26.0285 43.0603C26.1285 43.192 26.2521 43.3771 26.1775 43.4551C26.1038 43.5349 25.9289 43.5873 25.9289 43.5873C25.9289 43.5873 25.1086 43.7458 24.8608 43.6402C24.8608 43.6402 25.0339 43.192 25.0831 43.0874C25.1334 42.9802 25.1829 42.8233 25.3572 42.6663C25.5308 42.5064 25.7054 42.533 25.7054 42.2947C25.7054 42.0587 25.8289 41.9794 26.0037 41.5317C26.1775 41.0824 26.3516 39.6072 26.3516 39.4231C26.3516 39.2375 26.0037 38.3686 26.0037 37.7084V36.549C26.0037 36.549 25.7296 36.259 25.5553 35.5456C25.3838 34.8352 24.6857 33.9917 24.5127 33.8329C24.3394 33.6751 24.2388 33.7285 24.0405 33.7541C23.8414 33.781 23.8414 33.6751 23.616 33.5703C23.3935 33.4649 22.4734 33.9917 22.0765 34.2827C21.6846 34.5677 19.9001 35.1575 17.9263 35.3782C17.8922 35.3819 17.859 35.385 17.8244 35.3883C15.8109 35.5988 16.8811 35.5453 16.7805 35.5453C16.7805 35.5453 16.9799 36.3117 17.0544 36.9962C17.1289 37.6825 17.279 38.3399 17.279 38.7363C17.279 39.1332 17.2537 39.8177 17.3272 39.9491C17.4033 40.0813 17.6792 41.3202 17.6792 41.3202C17.6792 41.3202 18.0725 41.7158 17.9742 41.8738C17.8744 42.0308 17.6815 42.0584 17.6792 42.3226C17.6754 42.5854 17.5825 43.0342 17.6792 43.113C17.7759 43.192 17.8064 43.27 17.6792 43.2976C17.5516 43.3234 17.3783 43.4548 17.3783 43.4548C17.3783 43.4548 17.1542 43.7456 16.4094 43.587C16.4094 43.587 16.4094 43.3769 16.6083 43.1654C16.8066 42.9555 16.8066 42.9555 16.9551 42.8764C17.1042 42.7961 17.0296 42.6663 17.1289 42.4006C17.2287 42.1372 17.279 41.9792 17.279 41.9792C17.279 41.9792 17.0797 41.7948 17.0797 41.557C17.0797 41.3202 16.682 40.1074 16.6323 39.9754C16.5825 39.8438 16.2344 39.3162 16.0856 38.7102C15.936 38.1037 15.5631 36.9438 15.4133 36.6022C15.2653 36.2588 15.2402 36.3907 15.2402 36.653C15.2402 36.9167 14.9501 37.7352 15.108 38.1832C15.2653 38.6312 15.2488 39.5003 15.108 39.6847C14.9664 39.8706 14.9664 40.2925 14.9664 40.6078C14.9664 40.9244 15.0512 41.7158 15.108 41.9004C15.1655 42.0843 15.2983 42.2428 15.108 42.4006C14.9163 42.5594 14.8431 42.666 14.7668 42.7429C14.6933 42.823 14.5935 43.27 14.5935 43.35C14.5935 43.4275 14.8176 43.5602 14.7436 43.6136C14.668 43.6661 14.4455 43.9565 14.4455 43.9565C14.4455 43.9565 13.6984 44.009 13.2773 43.9297V43.8243C13.2773 43.8243 13.6783 43.1917 13.8872 43.0598C14.096 42.9283 14.0463 42.7961 14.1463 42.6381C14.2448 42.4816 14.3689 42.084 14.3689 41.9789C14.3689 41.8736 14.3689 41.6099 14.3941 41.5312C14.4202 41.4511 14.3207 40.055 14.3207 40.055C14.3207 40.055 14.0463 39.237 14.0715 38.6309C14.096 38.0249 14.1115 37.5684 13.8872 37.2327C13.0777 36.0235 13.3015 34.7833 13.3015 34.7833Z" fill="#002710" fill-opacity="0.25"/>
<path d="M29.483 25.4164C31.6522 27.6915 32.6004 30.3465 32.6004 33.7404C32.6004 37.3752 31.071 40.6496 28.6232 42.9601C28.618 42.9668 28.6119 42.973 28.6054 42.9784C36.2285 39.412 43.0568 31.9864 43.0568 31.9864C38.553 31.4038 33.364 28.5911 29.483 25.4164Z" fill="#002710" fill-opacity="0.25"/>
<path d="M51.4367 15.8503C51.8328 19.1902 52.3426 23.2183 50.4191 29.1703L54.0397 19.2431C54.7705 17.1374 52.2859 16.0044 51.4367 15.8503Z" fill="#002710" fill-opacity="0.25"/>
<path d="M51.1837 19.7691C45.2959 24.2179 27.9228 17.7845 20.642 18.3356C13.9086 18.8447 11.2055 22.9374 11.2055 22.9374C11.214 22.9307 11.2223 22.9255 11.23 22.9191C13.4921 21.21 16.3076 20.1954 19.3593 20.1954C22.8233 20.1954 25.6166 21.4405 28.3726 23.6475C29.5487 24.7252 30.7847 25.3958 31.9351 26.0899C41.4922 31.8596 45.562 31.1263 45.562 31.1263C38.3833 40.141 28.7563 43.6069 28.7563 43.6069C37.8637 45.1345 44.25 42.8346 44.2507 42.8346L50.4189 29.1704L50.4344 29.1368C51.209 26.0969 51.601 21.9384 51.1837 19.7691Z" fill="#002710" fill-opacity="0.25"/>
</svg>
