<svg width="178" height="79" viewBox="0 0 178 79" fill="none" xmlns="http://www.w3.org/2000/svg">
<g clip-path="url(#clip0_2736_19619)">
<path d="M0 78.7285H176.657" stroke="#001007" stroke-opacity="0.75" stroke-width="1.11249" stroke-miterlimit="10"/>
<path d="M0.61762 74.7114C0.429687 74.63 0.429688 74.5757 0.429688 74.2228C0.429688 73.5985 0.483382 73.0828 0.483382 72.8928C0.483382 72.7571 0.51023 72.7028 0.590773 72.7028C0.671315 72.7028 0.671315 72.73 0.671315 72.8385C0.671315 72.9471 0.671315 73.1371 0.698163 73.3C0.886095 74.2228 1.71837 74.5757 2.55064 74.5757C3.75878 74.5757 4.32258 73.7071 4.32258 72.8928C4.32258 72.0242 3.97356 71.5085 2.89966 70.6128L2.33586 70.1513C1.02033 69.0656 0.72501 68.2785 0.72501 67.4099C0.72501 66.0527 1.71837 65.1298 3.30237 65.1298C3.78563 65.1298 4.16149 65.1841 4.45681 65.2656C4.69844 65.3198 4.80583 65.3198 4.88637 65.3198C4.96692 65.3198 5.02061 65.347 5.02061 65.4013C5.02061 65.4556 4.96692 65.8899 4.96692 66.7313C4.96692 66.9213 4.94007 67.0299 4.88637 67.0299C4.80583 67.0299 4.80583 66.9756 4.77898 66.867C4.77898 66.7042 4.69844 66.3784 4.6179 66.2427C4.53736 66.107 4.21519 65.5641 3.06074 65.5641C2.20162 65.5641 1.53044 66.107 1.53044 67.0299C1.53044 67.7356 1.85261 68.197 3.06074 69.147L3.40976 69.4185C4.88637 70.5856 5.23539 71.3728 5.23539 72.3771C5.23539 72.8928 5.04746 73.8428 4.16149 74.4671C3.62454 74.8471 2.95335 75.01 2.28217 75.01C1.69152 75.0643 1.12772 74.9557 0.61762 74.7114Z" fill="#001007" fill-opacity="0.75"/>
<path d="M8.93941 71.7528C8.93941 72.7842 8.93941 73.6257 8.9931 74.0871C9.01995 74.4128 9.07365 74.6028 9.39582 74.6571C9.5569 74.6843 9.79853 74.7114 9.90592 74.7114C9.95961 74.7114 9.98646 74.7657 9.98646 74.7928C9.98646 74.8471 9.93277 74.8743 9.79853 74.8743C9.18104 74.8743 8.483 74.8471 8.42931 74.8471C8.37561 74.8471 7.67757 74.8743 7.3554 74.8743C7.24801 74.8743 7.16747 74.8471 7.16747 74.7928C7.16747 74.7657 7.19432 74.7114 7.24801 74.7114C7.3554 74.7114 7.48964 74.6843 7.59703 74.6571C7.81181 74.6028 7.83866 74.4128 7.89235 74.0871C7.94605 73.6528 7.94605 72.8114 7.94605 71.7528V69.8527C7.94605 68.197 7.94605 67.8713 7.9192 67.5456C7.89236 67.1927 7.81181 67.0027 7.57019 66.9756C7.43595 66.9484 7.30171 66.9484 7.22117 66.9484C7.16747 66.9484 7.14062 66.8941 7.14062 66.867C7.14062 66.8127 7.19432 66.7856 7.32856 66.7856C7.67757 66.7856 8.37561 66.8127 8.42931 66.8127C8.483 66.8127 9.18104 66.7856 9.53005 66.7856C9.66429 66.7856 9.71799 66.8127 9.71799 66.867C9.71799 66.8941 9.66429 66.9484 9.63744 66.9484C9.5569 66.9484 9.47636 66.9484 9.36897 66.9756C9.07365 67.0298 9.01995 67.1927 8.9931 67.5727C8.9931 67.9256 8.9931 68.2241 8.9931 69.8799V71.7528H8.93941Z" fill="#001007" fill-opacity="0.75"/>
<path d="M11.5693 74.7385C11.4082 74.6571 11.4082 74.63 11.4082 74.3314C11.4082 73.7885 11.4619 73.3814 11.4619 73.1914C11.4619 73.0828 11.4887 73.0014 11.5424 73.0014C11.5961 73.0014 11.6498 73.0285 11.6498 73.1371C11.6498 73.2185 11.6498 73.3814 11.6767 73.5171C11.8646 74.3042 12.67 74.5757 13.4218 74.5757C14.4957 74.5757 15.0595 73.9514 15.0595 73.1371C15.0595 72.3771 14.6568 71.9971 13.6634 71.2642L13.1533 70.8842C11.972 69.9885 11.5693 69.337 11.5693 68.577C11.5693 67.3284 12.5626 66.5684 14.0124 66.5684C14.442 66.5684 14.8984 66.6227 15.14 66.7041C15.3548 66.7584 15.4353 66.7584 15.5159 66.7584C15.5964 66.7584 15.6233 66.7584 15.6233 66.8398C15.6233 66.8941 15.5696 67.247 15.5696 67.9799C15.5696 68.1427 15.5696 68.2241 15.489 68.2241C15.4085 68.2241 15.4085 68.1699 15.3816 68.0884C15.3816 67.9527 15.2742 67.6813 15.2205 67.5456C15.14 67.4098 14.791 67.0027 13.7976 67.0027C12.9922 67.0027 12.3479 67.4099 12.3479 68.1699C12.3479 68.8484 12.6969 69.2556 13.7708 69.9885L14.093 70.2056C15.4353 71.1285 15.8917 71.8614 15.8917 72.7842C15.8917 73.4085 15.6501 74.0871 14.8715 74.6028C14.4151 74.9014 13.7171 74.9828 13.1264 74.9828C12.67 75.01 12.0257 74.9557 11.5693 74.7385Z" fill="#001007" fill-opacity="0.75"/>
<path d="M21.1296 71.7528C21.1296 72.7843 21.1296 73.6257 21.1833 74.0872C21.2102 74.4129 21.2639 74.6029 21.6129 74.6572C21.774 74.6843 22.0156 74.7115 22.123 74.7115C22.2035 74.7115 22.2035 74.7657 22.2035 74.7929C22.2035 74.8472 22.1499 74.8743 22.0156 74.8743C21.425 74.8743 20.7269 74.8472 20.6464 74.8472C20.5927 74.8472 19.841 74.8743 19.5188 74.8743C19.3846 74.8743 19.3309 74.8472 19.3309 74.7929C19.3309 74.7657 19.3577 74.7115 19.4114 74.7115C19.5188 74.7115 19.6262 74.6843 19.7336 74.6572C19.9484 74.6029 20.0289 74.3857 20.0557 74.0872C20.1094 73.6529 20.1094 72.8114 20.1094 71.7528V67.247L18.5254 67.2742C17.8274 67.2742 17.5858 67.3556 17.4247 67.627C17.2905 67.8171 17.2905 67.8985 17.2368 67.9799C17.2099 68.0613 17.1831 68.0885 17.1294 68.0885C17.1025 68.0885 17.0488 68.0613 17.0488 68.0071C17.0488 67.8985 17.2636 66.9213 17.2905 66.8399C17.2905 66.7856 17.371 66.6499 17.3978 66.6499C17.4784 66.6499 17.5858 66.7313 17.8811 66.7856C18.2033 66.8127 18.606 66.8399 18.7402 66.8399H22.8747C23.2238 66.8399 23.4922 66.8127 23.6533 66.7856C23.8144 66.7585 23.9218 66.7313 23.9755 66.7313C24.0292 66.7313 24.0292 66.7856 24.0292 66.867C24.0292 67.1928 24.0023 67.9528 24.0023 68.0885C24.0023 68.1699 23.9486 68.2242 23.8949 68.2242C23.8412 68.2242 23.8144 68.1971 23.8144 68.0342V67.9256C23.7876 67.5999 23.5459 67.3556 22.4989 67.3285L21.1296 67.3013V71.7528Z" fill="#001007" fill-opacity="0.75"/>
<path d="M26.0686 69.88C26.0686 68.2242 26.0686 67.8985 26.0417 67.5728C26.0149 67.2199 25.9612 67.0299 25.5853 66.9756C25.5048 66.9756 25.3168 66.9485 25.2094 66.9485C25.1826 66.9485 25.1289 66.8942 25.1289 66.8671C25.1289 66.8128 25.1826 66.7856 25.3168 66.7856C25.8269 66.7856 26.525 66.8128 26.5787 66.8128C26.6592 66.8128 28.9413 66.8128 29.2097 66.8128C29.4245 66.8128 29.6124 66.7585 29.7198 66.7585C29.7735 66.7585 29.8272 66.7042 29.8809 66.7042C29.9078 66.7042 29.9346 66.7585 29.9346 66.8128C29.9346 66.8942 29.8809 67.0028 29.8541 67.3285C29.8541 67.4371 29.8272 67.8985 29.8004 68.0342C29.8004 68.0885 29.7467 68.1428 29.693 68.1428C29.6393 68.1428 29.6124 68.0885 29.6124 68.0071C29.6124 67.9256 29.6124 67.7628 29.5587 67.6271C29.4782 67.4371 29.3708 67.3828 28.7802 67.3013C28.5922 67.2742 27.3304 67.2742 27.1962 67.2742C27.1425 67.2742 27.1425 67.3013 27.1425 67.3828V70.2871C27.1425 70.3685 27.1425 70.3957 27.1962 70.3957C27.3304 70.3957 28.7802 70.3957 29.0218 70.3685C29.2903 70.3414 29.4514 70.3414 29.5587 70.2057C29.6393 70.1243 29.693 70.07 29.7198 70.07C29.7467 70.07 29.7735 70.0971 29.7735 70.1514C29.7735 70.2057 29.7198 70.3957 29.693 70.7485C29.6661 70.9657 29.6393 71.3728 29.6393 71.4543C29.6393 71.5357 29.6124 71.6443 29.5319 71.6443C29.4782 71.6443 29.4514 71.6171 29.4514 71.5357C29.4514 71.4271 29.4514 71.3186 29.3977 71.1828C29.3708 71.02 29.2634 70.9114 28.8339 70.8571C28.5385 70.83 27.3572 70.8028 27.1693 70.8028C27.1156 70.8028 27.0888 70.83 27.0888 70.8843V71.78C27.0888 72.1329 27.0888 73.4086 27.0888 73.5986C27.1156 74.3043 27.3036 74.4672 28.4043 74.4672C28.6996 74.4672 29.2097 74.4672 29.5051 74.3586C29.8004 74.2229 29.9346 74.0329 30.0152 73.6257C30.042 73.49 30.0688 73.4629 30.1225 73.4629C30.1762 73.4629 30.2031 73.5443 30.2031 73.6257C30.2031 73.7072 30.1225 74.44 30.042 74.6572C29.9615 74.9286 29.8541 74.9286 29.4245 74.9286C28.5922 74.9286 27.9747 74.9015 27.5183 74.9015C27.0619 74.8743 26.7666 74.8743 26.6055 74.8743C26.5787 74.8743 26.3639 74.8743 26.1223 74.8743C25.9075 74.8743 25.6659 74.9015 25.4779 74.9015C25.3705 74.9015 25.29 74.8743 25.29 74.82C25.29 74.7929 25.3168 74.7386 25.3705 74.7386C25.4779 74.7386 25.6122 74.7115 25.7196 74.6843C25.9343 74.6572 25.9612 74.44 26.0149 74.1143C26.0686 73.68 26.0686 72.8386 26.0686 71.78V69.88Z" fill="#001007" fill-opacity="0.75"/>
<path d="M40.8634 73.5171C40.8902 73.8971 40.9708 74.4671 41.4272 74.63C41.7493 74.7386 42.0178 74.7386 42.1252 74.7386C42.1789 74.7386 42.2057 74.7657 42.2057 74.82C42.2057 74.8743 42.0983 74.9286 41.991 74.9286C41.7493 74.9286 40.5143 74.9286 40.1116 74.8743C39.8432 74.8471 39.7895 74.82 39.7895 74.7657C39.7895 74.7386 39.8163 74.6843 39.87 74.6843C39.9237 74.6843 39.9505 74.4943 39.9237 74.3043L39.3867 68.8485H39.3599L36.702 74.3314C36.4872 74.7928 36.4067 74.9014 36.3261 74.9014C36.2456 74.9014 36.165 74.7929 35.9503 74.4128C35.6549 73.87 34.9301 72.5128 34.6616 71.9157C34.3394 71.2371 33.4534 69.4185 33.2655 68.9842H33.2118L32.7823 73.8428C32.7823 74.0057 32.7823 74.1957 32.7823 74.3857C32.7823 74.5486 32.8897 74.6571 33.0507 74.6843C33.2387 74.7386 33.3998 74.7386 33.4803 74.7386C33.5071 74.7386 33.5608 74.7657 33.5608 74.82C33.5608 74.9014 33.4803 74.9286 33.3729 74.9286C32.9702 74.9286 32.4332 74.9014 32.3527 74.9014C32.2453 74.9014 31.7352 74.9286 31.4399 74.9286C31.3325 74.9286 31.252 74.9014 31.252 74.82C31.252 74.7929 31.3056 74.7386 31.3593 74.7386C31.4399 74.7386 31.5204 74.7386 31.6815 74.7114C32.0305 74.6571 32.0574 74.25 32.1111 73.8428L32.9165 66.8399C32.9165 66.7313 32.9702 66.6499 33.0507 66.6499C33.1313 66.6499 33.2118 66.677 33.2655 66.8127L36.5946 73.4628L39.7895 66.8127C39.8432 66.7041 39.8968 66.6227 39.9774 66.6227C40.0579 66.6227 40.1116 66.7041 40.1385 66.9213L40.8634 73.5171Z" fill="#001007" fill-opacity="0.75"/>
<path d="M45.7752 66.9756C45.9094 66.6227 45.9631 66.5684 46.0437 66.5684C46.1511 66.5684 46.2048 66.7313 46.3122 66.9484C46.5001 67.4099 48.272 71.8342 48.9432 73.4628C49.3459 74.4128 49.6412 74.5485 49.8829 74.63C50.044 74.6843 50.205 74.6843 50.3124 74.6843C50.3661 74.6843 50.4467 74.7114 50.4467 74.7657C50.4467 74.82 50.3124 74.8471 50.205 74.8471C50.044 74.8471 49.2385 74.8471 48.46 74.82C48.2452 74.82 48.0841 74.82 48.0841 74.7385C48.0841 74.6843 48.1109 74.6843 48.1646 74.6571C48.2183 74.63 48.3526 74.5485 48.272 74.3585L47.2518 71.9428C47.225 71.8885 47.225 71.8885 47.1444 71.8885H44.6208C44.5671 71.8885 44.5402 71.9156 44.5134 71.9699L43.8959 73.68C43.7885 73.9514 43.7348 74.2228 43.7348 74.3857C43.7348 74.6028 43.9227 74.6843 44.1107 74.6843H44.2181C44.2986 74.6843 44.3254 74.7114 44.3254 74.7657C44.3254 74.82 44.2717 74.8471 44.1644 74.8471C43.8959 74.8471 43.3052 74.82 43.171 74.82C43.0636 74.82 42.4998 74.8471 42.0702 74.8471C41.936 74.8471 41.8555 74.82 41.8555 74.7657C41.8555 74.7114 41.9092 74.6843 41.9629 74.6843C42.0434 74.6843 42.2045 74.6843 42.285 74.6571C42.7951 74.6028 42.9831 74.2228 43.1978 73.68L45.7752 66.9756ZM46.9833 71.4542C47.037 71.4542 47.037 71.4271 47.0102 71.3728L45.9363 68.4413C45.8826 68.2784 45.8021 68.2784 45.7484 68.4413L44.7282 71.3728C44.7282 71.4271 44.7282 71.4542 44.755 71.4542H46.9833Z" fill="#001007" fill-opacity="0.75"/>
<path d="M55.3322 69.88C55.3322 68.2242 55.3322 67.8985 55.3054 67.5728C55.2785 67.2199 55.2248 67.0299 54.849 66.9756C54.7684 66.9756 54.5805 66.9485 54.4731 66.9485C54.4463 66.9485 54.3926 66.8942 54.3926 66.8671C54.3926 66.8128 54.4463 66.7856 54.5805 66.7856C55.0906 66.7856 55.7886 66.8128 55.8423 66.8128C55.9766 66.8128 56.6746 66.7856 57.319 66.7856C58.4197 66.7856 60.4333 66.6771 61.7219 68.0071C62.2589 68.55 62.7958 69.4457 62.7958 70.7214C62.7958 72.0786 62.232 73.11 61.6146 73.7343C61.1313 74.2229 60.1648 74.9829 58.2855 74.9829C57.8022 74.9829 57.2116 74.9558 56.7552 74.9286C56.2719 74.9015 55.896 74.8744 55.8692 74.8744C55.8423 74.8744 55.6544 74.8744 55.4128 74.8744C55.198 74.8744 54.9295 74.9015 54.7416 74.9015C54.6342 74.9015 54.5537 74.8744 54.5537 74.8201C54.5537 74.7929 54.5805 74.7386 54.6342 74.7386C54.7416 74.7386 54.8758 74.7115 54.9832 74.6844C55.198 74.6301 55.2248 74.4401 55.2785 74.1143C55.3322 73.68 55.3322 72.8386 55.3322 71.78V69.88ZM56.3524 71.02C56.3524 72.16 56.3524 73.1643 56.3524 73.3543C56.3524 73.6258 56.3793 74.0058 56.4867 74.1143C56.6209 74.3043 57.0236 74.5486 58.3123 74.5486C59.3325 74.5486 60.2185 74.1958 60.8897 73.5715C61.4535 73.0286 61.7488 71.9972 61.7488 71.02C61.7488 69.6628 61.1581 68.7943 60.7017 68.3328C59.6547 67.2742 58.4466 67.1385 57.131 67.1385C56.9162 67.1385 56.5672 67.1657 56.4598 67.2199C56.3524 67.2471 56.3256 67.3014 56.3256 67.4371V71.02H56.3524Z" fill="#001007" fill-opacity="0.75"/>
<path d="M65.0256 69.88C65.0256 68.2242 65.0256 67.8985 64.9988 67.5728C64.9719 67.2199 64.9182 67.0299 64.5423 66.9756C64.4618 66.9756 64.2739 66.9485 64.1665 66.9485C64.1396 66.9485 64.0859 66.8942 64.0859 66.8671C64.0859 66.8128 64.1396 66.7856 64.2739 66.7856C64.784 66.7856 65.482 66.8128 65.5357 66.8128C65.6162 66.8128 67.8983 66.8128 68.1668 66.8128C68.3815 66.8128 68.5695 66.7585 68.6769 66.7585C68.7306 66.7585 68.7843 66.7042 68.8379 66.7042C68.8648 66.7042 68.8916 66.7585 68.8916 66.8128C68.8916 66.8942 68.8379 67.0028 68.8111 67.3285C68.8111 67.4371 68.7843 67.8985 68.7574 68.0342C68.7574 68.0885 68.7037 68.1428 68.65 68.1428C68.5963 68.1428 68.5695 68.0885 68.5695 68.0071C68.5695 67.9256 68.5695 67.7628 68.5158 67.6271C68.4352 67.4371 68.3278 67.3828 67.7372 67.3013C67.5493 67.2742 66.2874 67.2742 66.1532 67.2742C66.0995 67.2742 66.0995 67.3013 66.0995 67.3828V70.2871C66.0995 70.3685 66.0995 70.3957 66.1532 70.3957C66.2874 70.3957 67.7372 70.3957 67.9788 70.3685C68.2473 70.3414 68.4084 70.3414 68.5158 70.2057C68.5963 70.1243 68.65 70.07 68.6769 70.07C68.7037 70.07 68.7306 70.0971 68.7306 70.1514C68.7306 70.2057 68.6769 70.3957 68.65 70.7485C68.6232 70.9657 68.5963 71.3728 68.5963 71.4543C68.5963 71.5357 68.5695 71.6443 68.4889 71.6443C68.4352 71.6443 68.4084 71.6171 68.4084 71.5357C68.4084 71.4271 68.4084 71.3186 68.3547 71.1828C68.3278 71.02 68.2205 70.9114 67.7909 70.8571C67.4956 70.83 66.3143 70.8028 66.1263 70.8028C66.0727 70.8028 66.0458 70.83 66.0458 70.8843V71.78C66.0458 72.1329 66.0458 73.4086 66.0458 73.5986C66.0727 74.3043 66.2606 74.4672 67.3613 74.4672C67.6567 74.4672 68.1668 74.4672 68.4621 74.3586C68.7574 74.2229 68.8916 74.0329 68.9722 73.6257C68.999 73.49 69.0259 73.4629 69.0796 73.4629C69.1333 73.4629 69.1601 73.5443 69.1601 73.6257C69.1601 73.7072 69.0796 74.44 68.999 74.6572C68.9185 74.9286 68.8111 74.9286 68.3815 74.9286C67.5493 74.9286 66.9318 74.9015 66.4754 74.9015C66.019 74.8743 65.7236 74.8743 65.5626 74.8743C65.5357 74.8743 65.3209 74.8743 65.0793 74.8743C64.8645 74.8743 64.6229 74.9015 64.435 74.9015C64.3276 74.9015 64.247 74.8743 64.247 74.82C64.247 74.7929 64.2739 74.7386 64.3276 74.7386C64.435 74.7386 64.5692 74.7115 64.6766 74.6843C64.8914 74.6572 64.9182 74.44 64.9719 74.1143C65.0256 73.68 65.0256 72.8386 65.0256 71.78V69.88Z" fill="#001007" fill-opacity="0.75"/>
<path d="M75.6554 69.0113C75.6554 67.0298 75.6554 66.677 75.6286 66.2969C75.6017 65.8627 75.4944 65.6727 75.0916 65.5641C74.9842 65.5369 74.7695 65.5369 74.6621 65.5369C74.6084 65.5369 74.5547 65.5098 74.5547 65.4555C74.5547 65.3741 74.6084 65.3469 74.7426 65.3469C75.0379 65.3469 75.3601 65.3469 75.6286 65.3469L76.1387 65.3741C76.2192 65.3741 78.7161 65.3741 78.9845 65.3741C79.2262 65.3741 79.4141 65.3469 79.5215 65.3198C79.5752 65.3198 79.6289 65.2655 79.7094 65.2655C79.7363 65.2655 79.7631 65.3198 79.7631 65.3741C79.7631 65.4555 79.7094 65.6184 79.6557 65.9712C79.6557 66.1069 79.6289 66.6498 79.602 66.8127C79.602 66.867 79.5752 66.9484 79.5215 66.9484C79.4409 66.9484 79.4141 66.8941 79.4141 66.7855C79.4141 66.7041 79.4141 66.487 79.3335 66.3241C79.253 66.1341 79.1188 65.9712 78.4476 65.8898C78.2328 65.8627 76.8636 65.8627 76.7293 65.8627C76.6756 65.8627 76.6488 65.8898 76.6488 65.9984V69.4727C76.6488 69.5541 76.6488 69.6084 76.7293 69.6084C76.8904 69.6084 78.4207 69.6084 78.7161 69.5813C79.0114 69.5541 79.1993 69.527 79.3067 69.3913C79.3872 69.2827 79.4409 69.2284 79.4946 69.2284C79.5215 69.2284 79.5483 69.2556 79.5483 69.337C79.5483 69.4184 79.4946 69.6356 79.4409 70.0427C79.4141 70.287 79.3872 70.7485 79.3872 70.857C79.3872 70.9656 79.3872 71.1013 79.3067 71.1013C79.253 71.1013 79.2262 71.047 79.2262 70.9927C79.2262 70.857 79.2261 70.7485 79.1725 70.5856C79.1188 70.3956 79.0114 70.2056 78.5281 70.1513C78.1791 70.1242 76.9441 70.097 76.7562 70.097C76.7025 70.097 76.6756 70.1242 76.6756 70.1784V71.2913C76.6756 71.7256 76.6756 73.1914 76.6756 73.4628C76.7025 74.3314 76.8904 74.4942 78.1254 74.4942C78.4476 74.4942 79.0114 74.4942 79.3335 74.3585C79.6557 74.2228 79.8168 73.9785 79.8973 73.4628C79.9242 73.3271 79.951 73.2728 80.0047 73.2728C80.0853 73.2728 80.0853 73.3814 80.0853 73.4628C80.0853 73.5714 79.9779 74.4128 79.9242 74.6842C79.8436 75.01 79.7363 75.01 79.253 75.01C78.3133 75.01 77.6421 74.9828 77.132 74.9828C76.6488 74.9557 76.3535 74.9557 76.1655 74.9557C76.1387 74.9557 75.9239 74.9557 75.6554 74.9557C75.4138 74.9557 75.1185 74.9828 74.9306 74.9828C74.7963 74.9828 74.7426 74.9557 74.7426 74.8742C74.7426 74.8471 74.7695 74.7928 74.85 74.7928C74.9574 74.7928 75.1185 74.7657 75.2259 74.7385C75.4675 74.6842 75.548 74.4128 75.5749 74.0328C75.6286 73.4899 75.6286 72.5128 75.6286 71.2913V69.0113H75.6554Z" fill="#001007" fill-opacity="0.75"/>
<path d="M81.7509 74.7385C81.5898 74.6571 81.5898 74.63 81.5898 74.3314C81.5898 73.7885 81.6435 73.3814 81.6435 73.1914C81.6435 73.0828 81.6704 73.0014 81.7241 73.0014C81.7778 73.0014 81.8315 73.0285 81.8315 73.1371C81.8315 73.2185 81.8315 73.3814 81.8583 73.5171C82.0463 74.3042 82.8517 74.5757 83.6034 74.5757C84.6773 74.5757 85.2411 73.9514 85.2411 73.1371C85.2411 72.3771 84.8384 71.9971 83.845 71.2642L83.3349 70.8842C82.1536 69.9885 81.7509 69.337 81.7509 68.577C81.7509 67.3284 82.7443 66.5684 84.1941 66.5684C84.6236 66.5684 85.08 66.6227 85.3216 66.7041C85.5364 66.7584 85.617 66.7584 85.6975 66.7584C85.7781 66.7584 85.8049 66.7584 85.8049 66.8398C85.8049 66.8941 85.7512 67.247 85.7512 67.9799C85.7512 68.1427 85.7512 68.2241 85.6707 68.2241C85.5901 68.2241 85.5901 68.1699 85.5633 68.0884C85.5633 67.9527 85.4559 67.6813 85.4022 67.5456C85.3217 67.4098 84.9726 67.0027 83.9793 67.0027C83.1738 67.0027 82.5295 67.4099 82.5295 68.1699C82.5295 68.8484 82.8785 69.2556 83.9524 69.9885L84.2746 70.2056C85.617 71.1285 86.0734 71.8614 86.0734 72.7842C86.0734 73.4085 85.8317 74.0871 85.0532 74.6028C84.5968 74.9014 83.8987 74.9828 83.3081 74.9828C82.8517 75.01 82.2073 74.9557 81.7509 74.7385Z" fill="#001007" fill-opacity="0.75"/>
<path d="M88.6779 69.8799C88.6779 68.2241 88.678 67.8984 88.6511 67.5727C88.6243 67.2198 88.5706 67.0298 88.1947 66.9756C88.1141 66.9756 87.9262 66.9484 87.8188 66.9484C87.792 66.9484 87.7383 66.8941 87.7383 66.867C87.7383 66.8127 87.792 66.7856 87.9262 66.7856C88.4363 66.7856 89.1075 66.8127 89.1881 66.8127C89.4297 66.8127 90.262 66.7856 90.7452 66.7856C92.1681 66.7856 92.6514 67.2198 92.8393 67.3827C93.0809 67.5999 93.3763 68.0884 93.3763 68.6584C93.3763 70.2056 92.2218 71.2099 90.5304 71.2099C90.4767 71.2099 90.2888 71.2099 90.2083 71.2099C90.1546 71.2099 90.1009 71.1556 90.1009 71.1013C90.1009 71.0199 90.1546 70.9928 90.3962 70.9928C91.5775 70.9928 92.4366 70.2328 92.4366 69.2556C92.4366 68.9027 92.4098 68.197 91.8191 67.627C91.2553 67.057 90.5841 67.1113 90.3425 67.1113C90.1546 67.1113 89.8324 67.1656 89.725 67.1927C89.6713 67.1927 89.6445 67.2741 89.6445 67.3827V71.7528C89.6445 72.7842 89.6445 73.6257 89.6982 74.0871C89.725 74.4128 89.8055 74.6028 90.1277 74.6571C90.2888 74.6843 90.5036 74.7114 90.611 74.7114C90.6647 74.7114 90.6915 74.7657 90.6915 74.7928C90.6915 74.8471 90.6378 74.8743 90.5036 74.8743C89.9129 74.8743 89.188 74.8471 89.1344 74.8471C89.1075 74.8471 88.3826 74.8743 88.0605 74.8743C87.9531 74.8743 87.8725 74.8471 87.8725 74.7928C87.8725 74.7657 87.8994 74.7114 87.9531 74.7114C88.0605 74.7114 88.1947 74.6843 88.3021 74.6571C88.5169 74.6028 88.5437 74.4128 88.5974 74.0871C88.6511 73.6528 88.6511 72.8114 88.6511 71.7528V69.8799H88.6779Z" fill="#001007" fill-opacity="0.75"/>
<path d="M98.7985 66.6227C101.268 66.6227 103.148 68.1427 103.148 70.6399C103.148 73.0285 101.376 75.01 98.7448 75.01C95.7379 75.01 94.4492 72.73 94.4492 70.8028C94.4492 69.0656 95.7647 66.6227 98.7985 66.6227ZM99.0401 74.5757C100.034 74.5757 102.02 74.0328 102.02 70.9385C102.02 68.3599 100.463 67.0027 98.7448 67.0027C96.9192 67.0027 95.5768 68.1699 95.5768 70.5042C95.5768 73.0014 97.0534 74.5757 99.0401 74.5757Z" fill="#001007" fill-opacity="0.75"/>
<path d="M105.133 69.8799C105.133 68.2241 105.133 67.8984 105.106 67.5727C105.079 67.2198 105.026 67.0298 104.65 66.9756C104.569 66.9756 104.381 66.9484 104.274 66.9484C104.247 66.9484 104.193 66.8941 104.193 66.867C104.193 66.8127 104.247 66.7856 104.381 66.7856C104.891 66.7856 105.616 66.8127 105.67 66.8127C105.777 66.8127 106.717 66.7856 107.039 66.7856C107.737 66.7856 108.516 66.8398 109.08 67.247C109.348 67.437 109.831 67.9527 109.831 68.7127C109.831 69.4999 109.509 70.287 108.489 71.1556C109.375 72.2956 110.154 73.2728 110.798 73.9242C111.388 74.5214 111.738 74.63 112.033 74.6571C112.248 74.6843 112.355 74.6843 112.409 74.6843C112.462 74.6843 112.516 74.7385 112.516 74.7657C112.516 74.82 112.462 74.8471 112.248 74.8471H111.55C110.932 74.8471 110.664 74.7928 110.368 74.63C109.885 74.3857 109.482 73.87 108.865 73.0557C108.408 72.4856 107.925 71.7799 107.684 71.4813C107.63 71.4271 107.603 71.4271 107.522 71.4271L106.126 71.3999C106.073 71.3999 106.046 71.4271 106.046 71.4813V71.7256C106.046 72.7571 106.046 73.5985 106.1 74.0328C106.126 74.3585 106.207 74.5485 106.529 74.6028C106.69 74.63 106.905 74.6571 107.012 74.6571C107.093 74.6571 107.093 74.7114 107.093 74.7385C107.093 74.7928 107.039 74.82 106.905 74.82C106.314 74.82 105.616 74.7928 105.563 74.7928C105.563 74.7928 104.811 74.82 104.489 74.82C104.381 74.82 104.301 74.7928 104.301 74.7385C104.301 74.7114 104.328 74.6571 104.381 74.6571C104.489 74.6571 104.623 74.63 104.73 74.6028C104.945 74.5485 104.972 74.3585 105.026 74.0328C105.079 73.5985 105.079 72.7571 105.079 71.6985V69.8799H105.133ZM106.073 70.7756C106.073 70.8299 106.1 70.8842 106.153 70.9113C106.314 70.9928 106.878 71.0742 107.361 71.0742C107.63 71.0742 107.925 71.0742 108.194 70.8842C108.57 70.6399 108.865 70.0699 108.865 69.2556C108.865 67.9256 108.14 67.1384 106.959 67.1384C106.636 67.1384 106.287 67.1656 106.18 67.1927C106.126 67.2198 106.1 67.247 106.1 67.3284V70.7756H106.073Z" fill="#001007" fill-opacity="0.75"/>
<path d="M115.044 71.7528C115.044 72.7843 115.044 73.6257 115.097 74.0872C115.124 74.4129 115.178 74.6029 115.527 74.6572C115.688 74.6843 115.93 74.7115 116.037 74.7115C116.118 74.7115 116.118 74.7657 116.118 74.7929C116.118 74.8472 116.064 74.8743 115.93 74.8743C115.339 74.8743 114.641 74.8472 114.56 74.8472C114.507 74.8472 113.755 74.8743 113.433 74.8743C113.299 74.8743 113.245 74.8472 113.245 74.7929C113.245 74.7657 113.272 74.7115 113.325 74.7115C113.433 74.7115 113.54 74.6843 113.648 74.6572C113.862 74.6029 113.943 74.3857 113.97 74.0872C114.024 73.6529 114.024 72.8114 114.024 71.7528V67.247L112.44 67.2742C111.741 67.2742 111.5 67.3556 111.339 67.627C111.205 67.8171 111.205 67.8985 111.151 67.9799C111.124 68.0613 111.097 68.0885 111.043 68.0885C111.017 68.0885 110.963 68.0613 110.963 68.0071C110.963 67.8985 111.178 66.9213 111.205 66.8399C111.205 66.7856 111.285 66.6499 111.312 66.6499C111.392 66.6499 111.5 66.7313 111.795 66.7856C112.117 66.8127 112.52 66.8399 112.654 66.8399H116.789C117.138 66.8399 117.406 66.8127 117.567 66.7856C117.728 66.7585 117.836 66.7313 117.89 66.7313C117.943 66.7313 117.943 66.7856 117.943 66.867C117.943 67.1928 117.916 67.9528 117.916 68.0885C117.916 68.1699 117.863 68.2242 117.809 68.2242C117.755 68.2242 117.728 68.1971 117.728 68.0342V67.9256C117.702 67.5999 117.46 67.3556 116.413 67.3285L115.044 67.3013V71.7528Z" fill="#001007" fill-opacity="0.75"/>
<path d="M119.955 69.88C119.955 68.2242 119.955 67.8985 119.928 67.5728C119.902 67.2199 119.848 67.0299 119.472 66.9756C119.391 66.9756 119.204 66.9485 119.096 66.9485C119.069 66.9485 119.016 66.8942 119.016 66.8671C119.016 66.8128 119.069 66.7856 119.204 66.7856C119.714 66.7856 120.412 66.8128 120.465 66.8128C120.546 66.8128 122.828 66.8128 123.096 66.8128C123.311 66.8128 123.499 66.7585 123.607 66.7585C123.66 66.7585 123.714 66.7042 123.768 66.7042C123.794 66.7042 123.821 66.7585 123.821 66.8128C123.821 66.8942 123.768 67.0028 123.741 67.3285C123.741 67.4371 123.714 67.8985 123.687 68.0342C123.687 68.0885 123.633 68.1428 123.58 68.1428C123.526 68.1428 123.499 68.0885 123.499 68.0071C123.499 67.9256 123.499 67.7628 123.445 67.6271C123.365 67.4371 123.258 67.3828 122.667 67.3013C122.479 67.2742 121.217 67.2742 121.083 67.2742C121.029 67.2742 121.029 67.3013 121.029 67.3828V70.2871C121.029 70.3685 121.029 70.3957 121.083 70.3957C121.217 70.3957 122.667 70.3957 122.909 70.3685C123.177 70.3414 123.338 70.3414 123.445 70.2057C123.526 70.1243 123.58 70.07 123.607 70.07C123.633 70.07 123.66 70.0971 123.66 70.1514C123.66 70.2057 123.607 70.3957 123.58 70.7485C123.553 70.9657 123.526 71.3728 123.526 71.4543C123.526 71.5357 123.499 71.6443 123.419 71.6443C123.365 71.6443 123.338 71.6171 123.338 71.5357C123.338 71.4271 123.338 71.3186 123.284 71.1828C123.258 71.02 123.15 70.9114 122.721 70.8571C122.425 70.83 121.244 70.8028 121.056 70.8028C121.002 70.8028 120.975 70.83 120.975 70.8843V71.78C120.975 72.1329 120.975 73.4086 120.975 73.5986C121.002 74.3043 121.19 74.4672 122.291 74.4672C122.586 74.4672 123.096 74.4672 123.392 74.3586C123.687 74.2229 123.821 74.0329 123.902 73.6257C123.929 73.49 123.956 73.4629 124.009 73.4629C124.063 73.4629 124.09 73.5443 124.09 73.6257C124.09 73.7072 124.009 74.44 123.929 74.6572C123.848 74.9286 123.741 74.9286 123.311 74.9286C122.479 74.9286 121.861 74.9015 121.405 74.9015C120.949 74.8743 120.653 74.8743 120.492 74.8743C120.465 74.8743 120.251 74.8743 120.009 74.8743C119.794 74.8743 119.553 74.9015 119.365 74.9015C119.257 74.9015 119.177 74.8743 119.177 74.82C119.177 74.7929 119.204 74.7386 119.257 74.7386C119.365 74.7386 119.499 74.7115 119.606 74.6843C119.821 74.6572 119.848 74.44 119.902 74.1143C119.955 73.68 119.955 72.8386 119.955 71.78V69.88Z" fill="#001007" fill-opacity="0.75"/>
<path d="M125.618 74.7385C125.457 74.6571 125.457 74.63 125.457 74.3314C125.457 73.7885 125.511 73.3814 125.511 73.1914C125.511 73.0828 125.538 73.0014 125.591 73.0014C125.645 73.0014 125.699 73.0285 125.699 73.1371C125.699 73.2185 125.699 73.3814 125.726 73.5171C125.913 74.3042 126.719 74.5757 127.471 74.5757C128.544 74.5757 129.108 73.9514 129.108 73.1371C129.108 72.3771 128.706 71.9971 127.712 71.2642L127.202 70.8842C126.021 69.9885 125.618 69.337 125.618 68.577C125.618 67.3284 126.611 66.5684 128.061 66.5684C128.491 66.5684 128.947 66.6227 129.189 66.7041C129.404 66.7584 129.484 66.7584 129.565 66.7584C129.645 66.7584 129.672 66.7584 129.672 66.8398C129.672 66.8941 129.618 67.247 129.618 67.9799C129.618 68.1427 129.618 68.2241 129.538 68.2241C129.457 68.2241 129.457 68.1699 129.43 68.0884C129.43 67.9527 129.323 67.6813 129.269 67.5456C129.189 67.4098 128.84 67.0027 127.846 67.0027C127.041 67.0027 126.397 67.4099 126.397 68.1699C126.397 68.8484 126.746 69.2556 127.82 69.9885L128.142 70.2056C129.484 71.1285 129.941 71.8614 129.941 72.7842C129.941 73.4085 129.699 74.0871 128.92 74.6028C128.464 74.9014 127.766 74.9828 127.175 74.9828C126.692 75.01 126.075 74.9557 125.618 74.7385Z" fill="#001007" fill-opacity="0.75"/>
<path d="M138.613 65.6456C138.774 65.2384 138.801 65.157 138.881 65.157C138.962 65.157 139.016 65.2113 139.15 65.6184C139.338 66.107 141.298 71.3185 142.049 73.2186C142.506 74.3315 142.855 74.5486 143.123 74.63C143.311 74.6843 143.499 74.7115 143.633 74.7115C143.714 74.7115 143.768 74.7115 143.768 74.7929C143.768 74.8743 143.66 74.9015 143.526 74.9015C143.338 74.9015 142.425 74.9015 141.566 74.8743C141.325 74.8743 141.19 74.8743 141.19 74.7929C141.19 74.7386 141.217 74.7115 141.271 74.7115C141.351 74.6843 141.432 74.5757 141.351 74.3586L140.197 71.2643C140.17 71.21 140.143 71.1828 140.09 71.1828H137.405C137.351 71.1828 137.297 71.21 137.271 71.2914L136.519 73.5172C136.411 73.8429 136.331 74.1414 136.331 74.3586C136.331 74.6029 136.599 74.7115 136.814 74.7115H136.948C137.029 74.7115 137.083 74.7386 137.083 74.7929C137.083 74.8743 137.002 74.9015 136.895 74.9015C136.599 74.9015 136.062 74.8743 135.928 74.8743C135.794 74.8743 135.096 74.9015 134.505 74.9015C134.344 74.9015 134.264 74.8743 134.264 74.7929C134.264 74.7386 134.317 74.7115 134.371 74.7115C134.452 74.7115 134.64 74.7115 134.72 74.6843C135.284 74.6029 135.552 74.1415 135.767 73.49L138.613 65.6456ZM139.928 70.6942C139.982 70.6942 139.982 70.6671 139.982 70.6128L138.801 67.1928C138.747 67.0028 138.667 67.0028 138.613 67.1928L137.512 70.6128C137.485 70.6671 137.512 70.6942 137.539 70.6942H139.928Z" fill="#001007" fill-opacity="0.75"/>
<path d="M145.273 69.0113C145.273 67.0299 145.273 66.677 145.246 66.297C145.219 65.8627 145.112 65.6727 144.709 65.5641C144.601 65.537 144.387 65.537 144.279 65.537C144.226 65.537 144.172 65.5098 144.172 65.4556C144.172 65.3741 144.226 65.347 144.36 65.347C144.924 65.347 145.702 65.3741 145.783 65.3741C146.078 65.3741 146.561 65.347 147.152 65.347C149.192 65.347 149.649 66.5956 149.649 67.247C149.649 68.2785 149.058 68.9028 148.467 69.5271C149.38 69.8256 150.615 70.7214 150.615 72.1871C150.615 73.5443 149.568 74.9286 147.42 74.9286C147.286 74.9286 146.883 74.9014 146.534 74.9014C146.185 74.8743 145.836 74.8743 145.783 74.8743C145.756 74.8743 145.541 74.8743 145.273 74.8743C145.031 74.8743 144.736 74.9014 144.548 74.9014C144.414 74.9014 144.36 74.8743 144.36 74.7929C144.36 74.7657 144.387 74.7114 144.467 74.7114C144.575 74.7114 144.736 74.6843 144.843 74.6571C145.085 74.6029 145.165 74.3314 145.192 73.9514C145.246 73.4085 145.246 72.4314 145.246 71.2099V69.0113H145.273ZM146.266 69.2828C146.266 69.3642 146.293 69.3913 146.347 69.4185C146.427 69.4185 146.642 69.4728 147.098 69.4728C147.796 69.4728 147.984 69.4456 148.226 69.147C148.494 68.8485 148.682 68.387 148.682 67.8713C148.682 66.8127 148.226 65.6998 146.991 65.6998C146.857 65.6998 146.588 65.6998 146.4 65.7541C146.293 65.7813 146.239 65.8084 146.239 65.8899V69.2828H146.266ZM146.266 70.6128C146.266 71.5899 146.266 73.1371 146.266 73.3271C146.293 73.9514 146.293 74.1143 146.696 74.3043C147.045 74.4671 147.582 74.4943 147.796 74.4943C148.467 74.4943 149.568 74.1414 149.568 72.7028C149.568 71.9428 149.327 70.8571 148.36 70.1785C147.931 69.8799 147.635 69.8528 147.313 69.8256C147.152 69.7985 146.534 69.7985 146.347 69.7985C146.293 69.7985 146.266 69.8256 146.266 69.8799V70.6128Z" fill="#001007" fill-opacity="0.75"/>
<path d="M158.963 74.63C158.507 74.8743 157.675 75.0643 157.003 75.0643C153.54 75.0643 152.117 72.3771 152.117 70.0971C152.117 68.0614 153.594 65.157 157.03 65.157C159.849 65.157 161.943 66.9485 161.943 69.8799C161.943 72.1057 160.547 73.5714 159.742 74.1143L162.292 75.4443C165.031 76.8829 166.91 76.9372 167.555 76.9372C168.172 76.9372 169.165 76.8015 170.024 76.4486C170.105 76.4215 170.159 76.3943 170.212 76.3943C170.266 76.3943 170.293 76.4215 170.293 76.4758C170.293 76.5301 170.266 76.5572 170.186 76.6115C169.461 76.9372 168.065 77.4801 166.239 77.4801C164.736 77.4801 163.125 76.9372 161.084 75.7972L158.963 74.63ZM157.299 74.5757C158.426 74.5757 160.735 73.9243 160.735 70.26C160.735 67.2199 158.91 65.5913 156.95 65.5913C154.856 65.5913 153.298 66.9756 153.298 69.7442C153.298 72.6757 155.044 74.5757 157.299 74.5757Z" fill="#001007" fill-opacity="0.75"/>
<path d="M174.024 73.2729C174.077 73.7343 174.158 74.44 174.695 74.6029C175.044 74.7115 175.393 74.7115 175.5 74.7115C175.554 74.7115 175.608 74.7115 175.608 74.7657C175.608 74.8472 175.5 74.8743 175.339 74.8743C175.071 74.8743 173.728 74.8743 173.245 74.82C172.95 74.7929 172.896 74.7657 172.896 74.6843C172.896 74.63 172.923 74.6029 172.977 74.6029C173.03 74.6029 173.057 74.3857 173.03 74.1415L172.44 67.5999H172.413L169.352 74.1686C169.084 74.7115 169.057 74.8472 168.949 74.8472C168.869 74.8472 168.788 74.7115 168.574 74.2772C168.251 73.6529 167.178 71.4814 167.124 71.3457C167.016 71.1285 165.62 68.0885 165.486 67.7356H165.379L164.869 73.5986C164.869 73.7886 164.869 74.0329 164.869 74.25C164.869 74.44 165.003 74.6029 165.191 74.63C165.406 74.6843 165.594 74.6843 165.674 74.6843C165.728 74.6843 165.781 74.7115 165.781 74.7386C165.781 74.82 165.701 74.8472 165.567 74.8472C165.11 74.8472 164.493 74.82 164.412 74.82C164.305 74.82 163.687 74.8472 163.365 74.8472C163.231 74.8472 163.15 74.82 163.15 74.7386C163.15 74.7115 163.204 74.6843 163.285 74.6843C163.392 74.6843 163.473 74.6843 163.66 74.6572C164.063 74.5757 164.117 74.0872 164.171 73.5986L165.057 65.3742C165.057 65.2384 165.11 65.157 165.191 65.157C165.271 65.157 165.325 65.2113 165.379 65.347L169.191 73.2729L172.869 65.347C172.923 65.2384 172.977 65.157 173.057 65.157C173.138 65.157 173.191 65.2656 173.218 65.5099L174.024 73.2729Z" fill="#001007" fill-opacity="0.75"/>
<path d="M0 62.7141H67.9242" stroke="#001007" stroke-opacity="0.75" stroke-width="1.11249" stroke-miterlimit="10"/>
<path d="M91.2793 62.714H176.654" stroke="#001007" stroke-opacity="0.75" stroke-width="1.11249" stroke-miterlimit="10"/>
<path d="M4.05205 54.2725C3.40771 53.9468 3.38086 53.7839 3.38086 52.5354C3.38086 50.2553 3.56879 48.4367 3.59564 47.7038C3.64933 47.2153 3.72988 46.971 3.94466 46.971C4.21313 46.971 4.26683 47.1067 4.26683 47.4596C4.26683 47.8667 4.26683 48.5181 4.40106 49.1424C5.07225 52.5082 8.05232 53.7839 11.0861 53.7839C15.4085 53.7839 17.5295 50.6353 17.5295 47.731C17.5295 44.5824 16.214 42.7638 12.3479 39.5337L10.3075 37.8508C5.52866 33.8879 4.45476 31.065 4.45476 27.9435C4.45476 23.0577 8.05233 19.7462 13.7977 19.7462C15.5696 19.7462 16.8583 19.9362 17.9859 20.2077C18.845 20.3977 19.194 20.4248 19.5699 20.4248C19.9189 20.4248 20.0263 20.5062 20.0263 20.7505C20.0263 20.9677 19.8384 22.4877 19.8384 25.582C19.8384 26.3149 19.7578 26.6406 19.5162 26.6406C19.2477 26.6406 19.194 26.4235 19.1672 26.0435C19.1135 25.5006 18.845 24.252 18.5765 23.7634C18.3081 23.2749 17.0999 21.3477 12.9386 21.3477C9.82426 21.3477 7.38114 23.302 7.38114 26.6406C7.38114 29.2464 8.56243 30.875 12.8849 34.295L14.1467 35.2993C19.4625 39.5337 20.7243 42.3566 20.7243 46.021C20.7243 47.8938 19.9995 51.3682 16.8852 53.5939C14.9521 54.9511 12.509 55.5211 10.0659 55.5211C7.97178 55.5211 5.87768 55.1954 4.05205 54.2725Z" fill="#001007" fill-opacity="0.75"/>
<path d="M29.932 33.6166C29.932 26.505 29.932 25.2293 29.8514 23.7636C29.7709 22.2164 29.395 21.4835 27.9184 21.1578C27.5694 21.0764 26.7908 21.0221 26.3881 21.0221C26.2001 21.0221 26.0391 20.9407 26.0391 20.7507C26.0391 20.4792 26.2538 20.3978 26.7639 20.3978C27.811 20.3978 29.0191 20.3978 30.0125 20.4521L31.865 20.5335C32.1871 20.5335 41.1542 20.5335 42.2013 20.4792C43.0604 20.4249 43.7853 20.3435 44.1343 20.2621C44.3491 20.2078 44.537 20.0449 44.7786 20.0449C44.9129 20.0449 44.9666 20.2349 44.9666 20.4521C44.9666 20.7778 44.7518 21.3207 44.6175 22.5964C44.5638 23.0578 44.4833 25.0665 44.4028 25.6093C44.3491 25.8265 44.2685 26.0979 44.0806 26.0979C43.8121 26.0979 43.7316 25.8807 43.7316 25.5007C43.7316 25.175 43.6779 24.415 43.4631 23.8721C43.1409 23.1393 42.6845 22.5964 40.2682 22.325C39.4897 22.2435 34.5766 22.1893 34.0933 22.1893C33.9054 22.1893 33.8248 22.325 33.8248 22.6507V35.2452C33.8248 35.5709 33.8785 35.7066 34.0933 35.7066C34.684 35.7066 40.2145 35.7066 41.2616 35.6252C42.3355 35.5438 42.9798 35.4352 43.3826 34.9738C43.7047 34.6209 43.8658 34.3766 44.0537 34.3766C44.188 34.3766 44.2685 34.458 44.2685 34.7295C44.2685 35.0009 44.0537 35.7881 43.9195 37.2809C43.839 38.2038 43.7316 39.8867 43.7316 40.2124C43.7316 40.5653 43.7316 41.081 43.4094 41.081C43.1946 41.081 43.0872 40.891 43.0872 40.6739C43.0872 40.2124 43.0872 39.751 42.8993 39.181C42.7114 38.5295 42.3087 37.7695 40.5636 37.5795C39.3554 37.4438 34.8719 37.3624 34.1202 37.3624C33.9054 37.3624 33.798 37.4981 33.798 37.6881V41.7053C33.798 43.2525 33.7443 48.5454 33.798 49.4954C33.9322 52.6441 34.6034 53.2412 39.0333 53.2412C40.2145 53.2412 42.2013 53.2412 43.3557 52.7526C44.537 52.264 45.0739 51.3412 45.3961 49.4683C45.4767 48.9797 45.584 48.7897 45.7988 48.7897C46.0673 48.7897 46.0673 49.1426 46.0673 49.4683C46.0673 49.8212 45.7183 52.9426 45.4767 53.8927C45.1545 55.087 44.8055 55.087 43.0335 55.087C39.6507 55.087 37.1808 55.0055 35.4088 54.9512C33.6369 54.8698 32.563 54.8155 31.8918 54.8155C31.8113 54.8155 31.0327 54.8155 30.093 54.8698C29.1802 54.8698 28.16 54.9512 27.4888 54.9512C27.0056 54.9512 26.7639 54.8698 26.7639 54.5984C26.7639 54.4627 26.8445 54.3269 27.113 54.3269C27.5157 54.3269 28.0526 54.2455 28.4553 54.1369C29.3682 53.9469 29.5829 52.9426 29.7709 51.6398C29.9856 49.7126 29.9856 46.1297 29.9856 41.7324V33.6166H29.932Z" fill="#001007" fill-opacity="0.75"/>
<path d="M66.4173 53.4039C59.2222 53.4039 51.7854 47.5138 51.7854 36.1679C51.7854 26.8306 57.3965 21.2934 64.9944 21.2934C72.1895 21.2934 79.6263 27.1292 79.6263 38.5294C79.6263 47.8667 73.9614 53.4039 66.4173 53.4039ZM88.1101 59.9454C86.6335 60.5969 84.8615 60.9497 82.6869 60.9497C78.8208 60.9497 73.8809 58.0997 69.6927 54.001C78.1228 51.911 83.7071 44.0123 83.7071 36.765C83.7071 28.0792 76.5388 20.099 66.1488 20.099C55.2756 20.099 47.6777 29.4363 47.6777 37.8508C47.6777 46.5095 54.6312 54.3539 64.887 54.571C64.887 54.571 67.3838 54.5168 68.3772 55.6296C69.7195 57.0682 78.2033 65.6727 88.1101 60.5697C88.4322 60.4069 88.1906 59.8911 88.1101 59.9454Z" fill="#009640"/>
<path d="M77.7478 63.6911C78.3922 63.7997 79.0902 63.8269 79.7345 63.8269C84.2986 63.8269 86.2585 62.3068 88.2452 61.1668C77.7478 66.5412 69.2371 58.0996 67.8948 56.661C66.9014 55.5753 63.7871 55.6024 63.7871 55.6024C68.1096 59.5654 71.546 61.7911 74.7946 62.8768C74.7946 62.904 76.7008 63.5283 77.7478 63.6911Z" fill="#FFCD00"/>
<path d="M122.474 48.7624C122.635 50.3367 122.957 52.7796 124.836 53.4039C126.152 53.8382 127.333 53.8382 127.817 53.8382C128.031 53.8382 128.192 53.9468 128.192 54.164C128.192 54.4354 127.763 54.5982 127.253 54.5982C126.206 54.5982 121.078 54.544 119.413 54.3811C118.313 54.2725 118.098 54.1097 118.098 53.8925C118.098 53.7297 118.205 53.5668 118.42 53.5125C118.688 53.4582 118.742 52.7796 118.635 51.9382L116.433 29.1378H116.326L105.238 52.0196C104.298 53.9739 104.03 54.4082 103.627 54.4082C103.197 54.4082 102.956 53.9739 102.07 52.3454C100.862 50.1196 97.8279 44.3652 96.7003 41.9495C95.3311 39.0994 91.6261 31.5536 90.8476 29.7078H90.6328L88.8608 49.9839C88.8071 50.6625 88.8071 51.5039 88.8071 52.2639C88.8071 52.9425 89.2367 53.3768 89.9079 53.5397C90.6865 53.7568 91.3577 53.8111 91.6798 53.8111C91.8409 53.8111 92.0557 53.9739 92.0557 54.1368C92.0557 54.4625 91.7335 54.5711 91.2234 54.5711C89.5052 54.5711 87.3037 54.4082 86.9278 54.4082C86.4983 54.4082 84.3236 54.5711 83.0618 54.5711C82.5785 54.5711 82.2832 54.4625 82.2832 54.1368C82.2832 53.9739 82.498 53.8111 82.7665 53.8111C83.1423 53.8111 83.4376 53.7568 84.1357 53.6482C85.6391 53.3768 85.6928 51.7482 85.9076 50.0653L89.2367 20.7505C89.2904 20.262 89.5052 19.9634 89.7468 19.9634C90.069 19.9634 90.418 20.1262 90.6865 20.642L104.567 48.5181L117.937 20.6962C118.151 20.262 118.366 19.9634 118.662 19.9634C118.957 19.9634 119.225 20.3434 119.333 21.1848L122.474 48.7624Z" fill="#001007" fill-opacity="0.75"/>
<path d="M110.907 17.059L113.458 15.8104L115.391 17.9004L114.988 15.0775L117.538 13.8561L114.746 13.3675L114.397 10.5174L113.109 13.0418L110.316 12.4989L112.249 14.5347L110.907 17.059Z" fill="#001007" fill-opacity="0.75"/>
<path d="M104.408 17.5475L106.153 15.5389L108.543 16.6518L107.2 14.3718L108.945 12.4174L106.395 13.0146L105.106 10.7074L104.864 13.3132L102.287 13.856L104.677 14.9146L104.408 17.5475Z" fill="#001007" fill-opacity="0.75"/>
<path d="M121.591 20.2076L120.437 17.8461L117.859 18.2804L119.739 16.4347L118.531 14.0732L120.813 15.3218L122.638 13.476L122.209 16.0818L124.544 17.3033L121.967 17.6561L121.591 20.2076Z" fill="#001007" fill-opacity="0.75"/>
<path d="M130.609 18.6606C134.771 23.0578 136.596 28.1879 136.596 34.7566C136.596 41.8138 133.67 48.1654 128.972 52.5897C128.972 52.5897 128.972 52.5897 128.918 52.644C143.55 45.7496 156.625 31.3365 156.625 31.3365C148.033 30.2508 138.073 24.795 130.609 18.6606Z" fill="#FFCD00"/>
<path d="M172.763 0.148804C173.488 6.58177 174.508 14.399 170.83 25.9349L177.757 6.74463C179.126 2.64599 174.374 0.44738 172.763 0.148804Z" fill="#006B2D"/>
<path d="M172.251 7.74897C160.975 16.3534 127.657 3.92176 113.697 4.95321C100.81 5.95751 95.6016 13.8562 95.6016 13.8562C95.6016 13.8562 95.6553 13.8562 95.6553 13.8019C100.005 10.5176 105.401 8.53613 111.254 8.53613C117.858 8.53613 123.254 10.9519 128.543 15.2134C130.825 17.3306 133.188 18.6063 135.363 19.9635C153.673 31.1194 161.458 29.7079 161.458 29.7079C147.739 47.1882 129.241 53.8655 129.241 53.8655C146.692 56.8241 158.962 52.3454 158.962 52.3454L170.775 25.9078L170.828 25.8536C172.305 19.9906 173.057 11.9562 172.251 7.74897Z" fill="#009640"/>
</g>
<defs>
<clipPath id="clip0_2736_19619">
<rect width="177.999" height="78.987" fill="white" transform="translate(0 0.01297)"/>
</clipPath>
</defs>
</svg>
