<svg width="110" height="48" viewBox="0 0 110 48" fill="none" xmlns="http://www.w3.org/2000/svg">
<g clip-path="url(#clip0_301_4032)">
<path d="M0.915527 47.835H108.269" stroke="white" stroke-opacity="0.85" stroke-width="0.676056" stroke-miterlimit="10"/>
<path d="M1.29096 45.394C1.17676 45.3445 1.17676 45.3115 1.17676 45.0971C1.17676 44.7177 1.20939 44.4043 1.20939 44.2888C1.20939 44.2063 1.2257 44.1734 1.27465 44.1734C1.32359 44.1734 1.32359 44.1898 1.32359 44.2558C1.32359 44.3218 1.32359 44.4373 1.33991 44.5362C1.45411 45.0971 1.95988 45.3115 2.46565 45.3115C3.19983 45.3115 3.54245 44.7837 3.54245 44.2888C3.54245 43.761 3.33035 43.4476 2.67775 42.9032L2.33513 42.6228C1.53569 41.963 1.35622 41.4847 1.35622 40.9569C1.35622 40.1321 1.95988 39.5713 2.92247 39.5713C3.21614 39.5713 3.44455 39.6043 3.62402 39.6538C3.77086 39.6868 3.83612 39.6868 3.88506 39.6868C3.93401 39.6868 3.96664 39.7032 3.96664 39.7362C3.96664 39.7692 3.93401 40.0331 3.93401 40.5445C3.93401 40.66 3.91769 40.7259 3.88506 40.7259C3.83612 40.7259 3.83612 40.6929 3.8198 40.627C3.8198 40.528 3.77086 40.3301 3.72191 40.2476C3.67297 40.1651 3.47718 39.8352 2.77564 39.8352C2.25355 39.8352 1.84568 40.1651 1.84568 40.7259C1.84568 41.1548 2.04146 41.4352 2.77564 42.0125L2.98773 42.1775C3.88506 42.8868 4.09716 43.3651 4.09716 43.9754C4.09716 44.2888 3.98295 44.8661 3.44455 45.2455C3.11825 45.4764 2.71038 45.5754 2.3025 45.5754C1.94357 45.6084 1.60095 45.5424 1.29096 45.394Z" fill="white" fill-opacity="0.85"/>
<path d="M6.34848 43.5962C6.34848 44.223 6.34848 44.7343 6.38111 45.0147C6.39743 45.2127 6.43006 45.3282 6.62584 45.3611C6.72373 45.3776 6.87056 45.3941 6.93582 45.3941C6.96846 45.3941 6.98477 45.4271 6.98477 45.4436C6.98477 45.4766 6.95214 45.4931 6.87056 45.4931C6.49532 45.4931 6.07113 45.4766 6.0385 45.4766C6.00586 45.4766 5.58167 45.4931 5.38589 45.4931C5.32063 45.4931 5.27169 45.4766 5.27169 45.4436C5.27169 45.4271 5.288 45.3941 5.32063 45.3941C5.38589 45.3941 5.46747 45.3776 5.53273 45.3611C5.66325 45.3282 5.67956 45.2127 5.71219 45.0147C5.74482 44.7508 5.74482 44.2395 5.74482 43.5962V42.4416C5.74482 41.4354 5.74482 41.2374 5.72851 41.0395C5.71219 40.8251 5.66325 40.7096 5.51641 40.6931C5.43484 40.6766 5.35326 40.6766 5.30432 40.6766C5.27169 40.6766 5.25537 40.6436 5.25537 40.6271C5.25537 40.5941 5.288 40.5776 5.36958 40.5776C5.58167 40.5776 6.00586 40.5941 6.0385 40.5941C6.07113 40.5941 6.49532 40.5776 6.70741 40.5776C6.78899 40.5776 6.82162 40.5941 6.82162 40.6271C6.82162 40.6436 6.78899 40.6766 6.77267 40.6766C6.72373 40.6766 6.67478 40.6766 6.60952 40.6931C6.43006 40.7261 6.39743 40.8251 6.38111 41.056C6.38111 41.2704 6.38111 41.4519 6.38111 42.458V43.5962H6.34848Z" fill="white" fill-opacity="0.85"/>
<path d="M7.94701 45.4103C7.84912 45.3608 7.84912 45.3443 7.84912 45.1628C7.84912 44.8329 7.88175 44.5855 7.88175 44.4701C7.88175 44.4041 7.89807 44.3546 7.9307 44.3546C7.96333 44.3546 7.99596 44.3711 7.99596 44.4371C7.99596 44.4865 7.99596 44.5855 8.01227 44.668C8.12648 45.1463 8.61593 45.3113 9.07275 45.3113C9.72536 45.3113 10.068 44.9319 10.068 44.4371C10.068 43.9752 9.82325 43.7443 9.21959 43.2989L8.9096 43.068C8.19174 42.5237 7.94701 42.1278 7.94701 41.6659C7.94701 40.9072 8.55067 40.4453 9.43168 40.4453C9.69273 40.4453 9.97008 40.4783 10.1169 40.5278C10.2474 40.5608 10.2964 40.5608 10.3453 40.5608C10.3943 40.5608 10.4106 40.5608 10.4106 40.6103C10.4106 40.6433 10.378 40.8577 10.378 41.303C10.378 41.402 10.378 41.4515 10.329 41.4515C10.2801 41.4515 10.2801 41.4185 10.2638 41.369C10.2638 41.2866 10.1985 41.1216 10.1659 41.0391C10.1169 40.9567 9.90482 40.7092 9.30116 40.7092C8.81171 40.7092 8.42015 40.9567 8.42015 41.4185C8.42015 41.8309 8.63225 42.0783 9.28485 42.5237L9.48063 42.6556C10.2964 43.2164 10.5737 43.6618 10.5737 44.2226C10.5737 44.602 10.4269 45.0144 9.95377 45.3278C9.67641 45.5092 9.25222 45.5587 8.89329 45.5587C8.61593 45.5752 8.22437 45.5422 7.94701 45.4103Z" fill="white" fill-opacity="0.85"/>
<path d="M13.7553 43.5961C13.7553 44.223 13.7553 44.7343 13.7879 45.0147C13.8042 45.2126 13.8369 45.3281 14.049 45.3611C14.1468 45.3776 14.2937 45.3941 14.3589 45.3941C14.4079 45.3941 14.4079 45.4271 14.4079 45.4436C14.4079 45.4766 14.3753 45.4931 14.2937 45.4931C13.9347 45.4931 13.5106 45.4766 13.4616 45.4766C13.429 45.4766 12.9722 45.4931 12.7764 45.4931C12.6948 45.4931 12.6622 45.4766 12.6622 45.4436C12.6622 45.4271 12.6785 45.3941 12.7111 45.3941C12.7764 45.3941 12.8416 45.3776 12.9069 45.3611C13.0374 45.3281 13.0864 45.1961 13.1027 45.0147C13.1353 44.7508 13.1353 44.2394 13.1353 43.5961V40.858L12.1727 40.8745C11.7485 40.8745 11.6017 40.924 11.5038 41.0889C11.4222 41.2044 11.4222 41.2539 11.3896 41.3034C11.3733 41.3528 11.357 41.3693 11.3243 41.3693C11.308 41.3693 11.2754 41.3528 11.2754 41.3199C11.2754 41.2539 11.4059 40.6601 11.4222 40.6106C11.4222 40.5776 11.4712 40.4951 11.4875 40.4951C11.5364 40.4951 11.6017 40.5446 11.7812 40.5776C11.9769 40.5941 12.2217 40.6106 12.3032 40.6106H14.8158C15.0279 40.6106 15.191 40.5941 15.2889 40.5776C15.3868 40.5611 15.4521 40.5446 15.4847 40.5446C15.5173 40.5446 15.5173 40.5776 15.5173 40.6271C15.5173 40.825 15.501 41.2869 15.501 41.3693C15.501 41.4188 15.4684 41.4518 15.4357 41.4518C15.4031 41.4518 15.3868 41.4353 15.3868 41.3364V41.2704C15.3705 41.0724 15.2236 40.924 14.5874 40.9075L13.7553 40.891V43.5961Z" fill="white" fill-opacity="0.85"/>
<path d="M16.7576 42.4577C16.7576 41.4515 16.7576 41.2536 16.7412 41.0557C16.7249 40.8412 16.6923 40.7258 16.4639 40.6928C16.4149 40.6928 16.3007 40.6763 16.2355 40.6763C16.2192 40.6763 16.1865 40.6433 16.1865 40.6268C16.1865 40.5938 16.2192 40.5773 16.3007 40.5773C16.6107 40.5773 17.0349 40.5938 17.0675 40.5938C17.1165 40.5938 18.5033 40.5938 18.6664 40.5938C18.7969 40.5938 18.9111 40.5608 18.9764 40.5608C19.009 40.5608 19.0417 40.5278 19.0743 40.5278C19.0906 40.5278 19.1069 40.5608 19.1069 40.5938C19.1069 40.6433 19.0743 40.7093 19.058 40.9072C19.058 40.9732 19.0417 41.2536 19.0253 41.3361C19.0253 41.3691 18.9927 41.4021 18.9601 41.4021C18.9275 41.4021 18.9111 41.3691 18.9111 41.3196C18.9111 41.2701 18.9111 41.1711 18.8785 41.0887C18.8296 40.9732 18.7643 40.9402 18.4054 40.8907C18.2912 40.8742 17.5244 40.8742 17.4428 40.8742C17.4102 40.8742 17.4102 40.8907 17.4102 40.9402V42.7052C17.4102 42.7546 17.4102 42.7711 17.4428 42.7711C17.5244 42.7711 18.4054 42.7711 18.5522 42.7546C18.7154 42.7381 18.8133 42.7381 18.8785 42.6557C18.9275 42.6062 18.9601 42.5732 18.9764 42.5732C18.9927 42.5732 19.009 42.5897 19.009 42.6227C19.009 42.6557 18.9764 42.7711 18.9601 42.9856C18.9438 43.1175 18.9275 43.3649 18.9275 43.4144C18.9275 43.4639 18.9111 43.5299 18.8622 43.5299C18.8296 43.5299 18.8133 43.5134 18.8133 43.4639C18.8133 43.3979 18.8133 43.332 18.7806 43.2495C18.7643 43.1505 18.699 43.0845 18.438 43.0515C18.2585 43.035 17.5407 43.0186 17.4265 43.0186C17.3938 43.0186 17.3775 43.035 17.3775 43.068V43.6124C17.3775 43.8268 17.3775 44.6021 17.3775 44.7175C17.3938 45.1464 17.508 45.2454 18.177 45.2454C18.3564 45.2454 18.6664 45.2454 18.8459 45.1794C19.0253 45.0969 19.1069 44.9814 19.1559 44.734C19.1722 44.6515 19.1885 44.635 19.2211 44.635C19.2538 44.635 19.2701 44.6845 19.2701 44.734C19.2701 44.7835 19.2211 45.2289 19.1722 45.3608C19.1232 45.5258 19.058 45.5258 18.7969 45.5258C18.2912 45.5258 17.9159 45.5093 17.6386 45.5093C17.3612 45.4928 17.1817 45.4928 17.0839 45.4928C17.0675 45.4928 16.937 45.4928 16.7902 45.4928C16.6597 45.4928 16.5128 45.5093 16.3986 45.5093C16.3334 45.5093 16.2844 45.4928 16.2844 45.4598C16.2844 45.4433 16.3007 45.4103 16.3334 45.4103C16.3986 45.4103 16.4802 45.3938 16.5455 45.3773C16.676 45.3608 16.6923 45.2289 16.7249 45.0309C16.7576 44.767 16.7576 44.2557 16.7576 43.6124V42.4577Z" fill="white" fill-opacity="0.85"/>
<path d="M25.7471 44.6682C25.7634 44.8991 25.8123 45.2455 26.0897 45.3445C26.2854 45.4105 26.4486 45.4105 26.5139 45.4105C26.5465 45.4105 26.5628 45.427 26.5628 45.46C26.5628 45.493 26.4975 45.5259 26.4323 45.5259C26.2854 45.5259 25.535 45.5259 25.2902 45.4929C25.1271 45.4765 25.0944 45.46 25.0944 45.427C25.0944 45.4105 25.1108 45.3775 25.1434 45.3775C25.176 45.3775 25.1923 45.262 25.176 45.1466L24.8497 41.8311H24.8334L23.2182 45.1631C23.0877 45.4435 23.0387 45.5094 22.9898 45.5094C22.9409 45.5094 22.8919 45.4435 22.7614 45.2125C22.5819 44.8826 22.1414 44.0579 21.9783 43.695C21.7825 43.2826 21.2441 42.1775 21.1299 41.9136H21.0973L20.8362 44.8661C20.8362 44.9651 20.8362 45.0806 20.8362 45.196C20.8362 45.295 20.9015 45.361 20.9994 45.3775C21.1136 45.4105 21.2115 45.4105 21.2604 45.4105C21.2767 45.4105 21.3093 45.427 21.3093 45.46C21.3093 45.5094 21.2604 45.5259 21.1951 45.5259C20.9504 45.5259 20.6241 45.5094 20.5752 45.5094C20.5099 45.5094 20.1999 45.5259 20.0205 45.5259C19.9552 45.5259 19.9062 45.5094 19.9062 45.46C19.9062 45.4435 19.9389 45.4105 19.9715 45.4105C20.0205 45.4105 20.0694 45.4105 20.1673 45.394C20.3794 45.361 20.3957 45.1136 20.4283 44.8661L20.9178 40.6105C20.9178 40.5445 20.9504 40.495 20.9994 40.495C21.0483 40.495 21.0973 40.5115 21.1299 40.594L23.153 44.6352L25.0944 40.594C25.1271 40.528 25.1597 40.4785 25.2087 40.4785C25.2576 40.4785 25.2902 40.528 25.3065 40.66L25.7471 44.6682Z" fill="white" fill-opacity="0.85"/>
<path d="M28.7326 40.6927C28.8142 40.4783 28.8468 40.4453 28.8957 40.4453C28.961 40.4453 28.9936 40.5443 29.0589 40.6762C29.1731 40.9567 30.2499 43.6453 30.6578 44.635C30.9025 45.2123 31.082 45.2948 31.2288 45.3443C31.3267 45.3773 31.4246 45.3773 31.4898 45.3773C31.5225 45.3773 31.5714 45.3938 31.5714 45.4268C31.5714 45.4597 31.4898 45.4762 31.4246 45.4762C31.3267 45.4762 30.8372 45.4762 30.3641 45.4597C30.2336 45.4597 30.1357 45.4597 30.1357 45.4103C30.1357 45.3773 30.152 45.3773 30.1846 45.3608C30.2173 45.3443 30.2988 45.2948 30.2499 45.1793L29.6299 43.7113C29.6136 43.6783 29.6136 43.6783 29.5647 43.6783H28.031C27.9984 43.6783 27.9821 43.6948 27.9658 43.7278L27.5905 44.767C27.5253 44.9319 27.4926 45.0969 27.4926 45.1958C27.4926 45.3278 27.6068 45.3773 27.7211 45.3773H27.7863C27.8353 45.3773 27.8516 45.3938 27.8516 45.4268C27.8516 45.4597 27.8189 45.4762 27.7537 45.4762C27.5905 45.4762 27.2316 45.4597 27.15 45.4597C27.0848 45.4597 26.7421 45.4762 26.4811 45.4762C26.3995 45.4762 26.3506 45.4597 26.3506 45.4268C26.3506 45.3938 26.3832 45.3773 26.4158 45.3773C26.4648 45.3773 26.5627 45.3773 26.6116 45.3608C26.9216 45.3278 27.0358 45.0969 27.1663 44.767L28.7326 40.6927ZM29.4668 43.4144C29.4994 43.4144 29.4994 43.3979 29.4831 43.3649L28.8305 41.5835C28.7979 41.4845 28.7489 41.4845 28.7163 41.5835L28.0963 43.3649C28.0963 43.3979 28.0963 43.4144 28.1126 43.4144H29.4668Z" fill="white" fill-opacity="0.85"/>
<path d="M34.5408 42.4579C34.5408 41.4517 34.5408 41.2538 34.5244 41.0558C34.5081 40.8414 34.4755 40.7259 34.2471 40.6929C34.1981 40.6929 34.0839 40.6764 34.0187 40.6764C34.0024 40.6764 33.9697 40.6435 33.9697 40.627C33.9697 40.594 34.0024 40.5775 34.0839 40.5775C34.3939 40.5775 34.8181 40.594 34.8507 40.594C34.9323 40.594 35.3565 40.5775 35.7481 40.5775C36.417 40.5775 37.6406 40.5115 38.4237 41.3197C38.75 41.6496 39.0763 42.194 39.0763 42.9692C39.0763 43.794 38.7337 44.4208 38.3585 44.8002C38.0648 45.0971 37.4775 45.5589 36.3354 45.5589C36.0417 45.5589 35.6828 45.5424 35.4055 45.5259C35.1118 45.5094 34.8834 45.4929 34.8671 45.4929C34.8507 45.4929 34.7365 45.4929 34.5897 45.4929C34.4592 45.4929 34.296 45.5094 34.1818 45.5094C34.1166 45.5094 34.0676 45.4929 34.0676 45.4599C34.0676 45.4435 34.0839 45.4105 34.1166 45.4105C34.1818 45.4105 34.2634 45.394 34.3287 45.3775C34.4592 45.3445 34.4755 45.229 34.5081 45.0311C34.5408 44.7672 34.5408 44.2558 34.5408 43.6125V42.4579ZM35.1607 43.1507C35.1607 43.8435 35.1607 44.4538 35.1607 44.5692C35.1607 44.7342 35.177 44.9651 35.2423 45.0311C35.3239 45.1465 35.5686 45.295 36.3517 45.295C36.9717 45.295 37.5101 45.0806 37.918 44.7012C38.2606 44.3713 38.4401 43.7445 38.4401 43.1507C38.4401 42.3259 38.0811 41.7981 37.8038 41.5177C37.1675 40.8744 36.4333 40.7919 35.6339 40.7919C35.5033 40.7919 35.2912 40.8084 35.226 40.8414C35.1607 40.8579 35.1444 40.8909 35.1444 40.9733V43.1507H35.1607Z" fill="white" fill-opacity="0.85"/>
<path d="M40.4309 42.4577C40.4309 41.4515 40.4309 41.2536 40.4146 41.0557C40.3983 40.8412 40.3656 40.7258 40.1372 40.6928C40.0883 40.6928 39.9741 40.6763 39.9088 40.6763C39.8925 40.6763 39.8599 40.6433 39.8599 40.6268C39.8599 40.5938 39.8925 40.5773 39.9741 40.5773C40.2841 40.5773 40.7082 40.5938 40.7409 40.5938C40.7898 40.5938 42.1766 40.5938 42.3398 40.5938C42.4703 40.5938 42.5845 40.5608 42.6497 40.5608C42.6824 40.5608 42.715 40.5278 42.7476 40.5278C42.7639 40.5278 42.7803 40.5608 42.7803 40.5938C42.7803 40.6433 42.7476 40.7093 42.7313 40.9072C42.7313 40.9732 42.715 41.2536 42.6987 41.3361C42.6987 41.3691 42.6661 41.4021 42.6334 41.4021C42.6008 41.4021 42.5845 41.3691 42.5845 41.3196C42.5845 41.2701 42.5845 41.1711 42.5519 41.0887C42.5029 40.9732 42.4376 40.9402 42.0787 40.8907C41.9645 40.8742 41.1977 40.8742 41.1161 40.8742C41.0835 40.8742 41.0835 40.8907 41.0835 40.9402V42.7052C41.0835 42.7546 41.0835 42.7711 41.1161 42.7711C41.1977 42.7711 42.0787 42.7711 42.2256 42.7546C42.3887 42.7381 42.4866 42.7381 42.5519 42.6557C42.6008 42.6062 42.6334 42.5732 42.6497 42.5732C42.6661 42.5732 42.6824 42.5897 42.6824 42.6227C42.6824 42.6557 42.6497 42.7711 42.6334 42.9856C42.6171 43.1175 42.6008 43.3649 42.6008 43.4144C42.6008 43.4639 42.5845 43.5299 42.5355 43.5299C42.5029 43.5299 42.4866 43.5134 42.4866 43.4639C42.4866 43.3979 42.4866 43.332 42.454 43.2495C42.4376 43.1505 42.3724 43.0845 42.1113 43.0515C41.9319 43.035 41.214 43.0186 41.0998 43.0186C41.0672 43.0186 41.0509 43.035 41.0509 43.068V43.6124C41.0509 43.8268 41.0509 44.6021 41.0509 44.7175C41.0672 45.1464 41.1814 45.2454 41.8503 45.2454C42.0298 45.2454 42.3398 45.2454 42.5192 45.1794C42.6987 45.0969 42.7803 44.9814 42.8292 44.734C42.8455 44.6515 42.8618 44.635 42.8945 44.635C42.9271 44.635 42.9434 44.6845 42.9434 44.734C42.9434 44.7835 42.8945 45.2289 42.8455 45.3608C42.7966 45.5258 42.7313 45.5258 42.4703 45.5258C41.9645 45.5258 41.5893 45.5093 41.3119 45.5093C41.0346 45.4928 40.8551 45.4928 40.7572 45.4928C40.7409 45.4928 40.6104 45.4928 40.4635 45.4928C40.333 45.4928 40.1862 45.5093 40.072 45.5093C40.0067 45.5093 39.9578 45.4928 39.9578 45.4598C39.9578 45.4433 39.9741 45.4103 40.0067 45.4103C40.072 45.4103 40.1535 45.3938 40.2188 45.3773C40.3493 45.3608 40.3656 45.2289 40.3983 45.0309C40.4309 44.767 40.4309 44.2557 40.4309 43.6124V42.4577Z" fill="white" fill-opacity="0.85"/>
<path d="M46.8916 41.9301C46.8916 40.726 46.8916 40.5115 46.8753 40.2806C46.8589 40.0167 46.7937 39.9012 46.549 39.8353C46.4837 39.8188 46.3532 39.8188 46.2879 39.8188C46.2553 39.8188 46.2227 39.8023 46.2227 39.7693C46.2227 39.7198 46.2553 39.7033 46.3369 39.7033C46.5163 39.7033 46.7121 39.7033 46.8753 39.7033L47.1852 39.7198C47.2342 39.7198 48.7515 39.7198 48.9146 39.7198C49.0615 39.7198 49.1757 39.7033 49.2409 39.6868C49.2736 39.6868 49.3062 39.6538 49.3551 39.6538C49.3715 39.6538 49.3878 39.6868 49.3878 39.7198C49.3878 39.7693 49.3552 39.8682 49.3225 40.0827C49.3225 40.1651 49.3062 40.495 49.2899 40.594C49.2899 40.627 49.2736 40.6765 49.2409 40.6765C49.192 40.6765 49.1757 40.6435 49.1757 40.5775C49.1757 40.528 49.1757 40.3961 49.1267 40.2971C49.0778 40.1816 48.9962 40.0827 48.5883 40.0332C48.4578 40.0167 47.6257 40.0167 47.5442 40.0167C47.5115 40.0167 47.4952 40.0332 47.4952 40.0992V42.2105C47.4952 42.26 47.4952 42.293 47.5442 42.293C47.6421 42.293 48.572 42.293 48.7515 42.2765C48.931 42.26 49.0452 42.2435 49.1104 42.161C49.1594 42.095 49.192 42.0621 49.2246 42.0621C49.2409 42.0621 49.2573 42.0786 49.2573 42.128C49.2573 42.1775 49.2246 42.3095 49.192 42.5569C49.1757 42.7054 49.1594 42.9858 49.1594 43.0517C49.1594 43.1177 49.1594 43.2002 49.1104 43.2002C49.0778 43.2002 49.0615 43.1672 49.0615 43.1342C49.0615 43.0517 49.0615 42.9858 49.0288 42.8868C48.9962 42.7713 48.931 42.6559 48.6373 42.6229C48.4252 42.6064 47.6747 42.5899 47.5605 42.5899C47.5279 42.5899 47.5115 42.6064 47.5115 42.6394V43.3157C47.5115 43.5796 47.5115 44.4703 47.5115 44.6353C47.5279 45.1631 47.6421 45.2621 48.3926 45.2621C48.5883 45.2621 48.931 45.2621 49.1267 45.1796C49.3225 45.0971 49.4204 44.9487 49.4694 44.6353C49.4857 44.5528 49.502 44.5198 49.5346 44.5198C49.5836 44.5198 49.5836 44.5858 49.5836 44.6353C49.5836 44.7012 49.5183 45.2126 49.4857 45.3775C49.4367 45.5755 49.3715 45.5755 49.0778 45.5755C48.5068 45.5755 48.0989 45.559 47.7889 45.559C47.4952 45.5425 47.3158 45.5425 47.2016 45.5425C47.1852 45.5425 47.0547 45.5425 46.8916 45.5425C46.7447 45.5425 46.5653 45.559 46.4511 45.559C46.3695 45.559 46.3369 45.5425 46.3369 45.493C46.3369 45.4765 46.3532 45.4435 46.4021 45.4435C46.4674 45.4435 46.5653 45.427 46.6305 45.4105C46.7774 45.3775 46.8263 45.2126 46.8426 44.9816C46.8753 44.6518 46.8753 44.0579 46.8753 43.3157V41.9301H46.8916Z" fill="white" fill-opacity="0.85"/>
<path d="M50.595 45.4103C50.4971 45.3608 50.4971 45.3443 50.4971 45.1628C50.4971 44.8329 50.5297 44.5855 50.5297 44.4701C50.5297 44.4041 50.546 44.3546 50.5786 44.3546C50.6113 44.3546 50.6439 44.3711 50.6439 44.4371C50.6439 44.4865 50.6439 44.5855 50.6602 44.668C50.7744 45.1463 51.2639 45.3113 51.7207 45.3113C52.3733 45.3113 52.7159 44.9319 52.7159 44.4371C52.7159 43.9752 52.4712 43.7443 51.8675 43.2989L51.5576 43.068C50.8397 42.5237 50.595 42.1278 50.595 41.6659C50.595 40.9072 51.1986 40.4453 52.0796 40.4453C52.3407 40.4453 52.618 40.4783 52.7649 40.5278C52.8954 40.5608 52.9443 40.5608 52.9933 40.5608C53.0422 40.5608 53.0585 40.5608 53.0585 40.6103C53.0585 40.6433 53.0259 40.8577 53.0259 41.303C53.0259 41.402 53.0259 41.4515 52.977 41.4515C52.928 41.4515 52.928 41.4185 52.9117 41.369C52.9117 41.2866 52.8464 41.1216 52.8138 41.0391C52.7649 40.9567 52.5528 40.7092 51.9491 40.7092C51.4597 40.7092 51.0681 40.9567 51.0681 41.4185C51.0681 41.8309 51.2802 42.0783 51.9328 42.5237L52.1286 42.6556C52.9443 43.2164 53.2217 43.6618 53.2217 44.2226C53.2217 44.602 53.0749 45.0144 52.6017 45.3278C52.3244 45.5092 51.9002 45.5587 51.5412 45.5587C51.2639 45.5752 50.8723 45.5422 50.595 45.4103Z" fill="white" fill-opacity="0.85"/>
<path d="M54.8044 42.458C54.8044 41.4519 54.8044 41.2539 54.7881 41.056C54.7718 40.8416 54.7392 40.7261 54.5108 40.6931C54.4618 40.6931 54.3476 40.6766 54.2823 40.6766C54.266 40.6766 54.2334 40.6436 54.2334 40.6271C54.2334 40.5941 54.266 40.5776 54.3476 40.5776C54.6576 40.5776 55.0655 40.5941 55.1144 40.5941C55.2613 40.5941 55.767 40.5776 56.0607 40.5776C56.9254 40.5776 57.2191 40.8416 57.3333 40.9405C57.4801 41.0725 57.6596 41.3694 57.6596 41.7158C57.6596 42.656 56.958 43.2663 55.9302 43.2663C55.8975 43.2663 55.7833 43.2663 55.7344 43.2663C55.7018 43.2663 55.6691 43.2333 55.6691 43.2003C55.6691 43.1508 55.7018 43.1343 55.8486 43.1343C56.5665 43.1343 57.0885 42.6725 57.0885 42.0787C57.0885 41.8642 57.0722 41.4354 56.7133 41.089C56.3707 40.7426 55.9628 40.7756 55.816 40.7756C55.7018 40.7756 55.506 40.8086 55.4407 40.8251C55.4081 40.8251 55.3918 40.8745 55.3918 40.9405V43.5962C55.3918 44.223 55.3918 44.7343 55.4244 45.0147C55.4407 45.2127 55.4897 45.3282 55.6854 45.3611C55.7833 45.3776 55.9139 45.3941 55.9791 45.3941C56.0117 45.3941 56.0281 45.4271 56.0281 45.4436C56.0281 45.4766 55.9954 45.4931 55.9139 45.4931C55.5549 45.4931 55.1144 45.4766 55.0818 45.4766C55.0655 45.4766 54.625 45.4931 54.4292 45.4931C54.3639 45.4931 54.315 45.4766 54.315 45.4436C54.315 45.4271 54.3313 45.3941 54.3639 45.3941C54.4292 45.3941 54.5108 45.3776 54.576 45.3611C54.7065 45.3282 54.7229 45.2127 54.7555 45.0147C54.7881 44.7508 54.7881 44.2395 54.7881 43.5962V42.458H54.8044Z" fill="white" fill-opacity="0.85"/>
<path d="M60.9551 40.4785C62.456 40.4785 63.5981 41.4022 63.5981 42.9198C63.5981 44.3713 62.5213 45.5754 60.9224 45.5754C59.0951 45.5754 58.312 44.1899 58.312 43.0187C58.312 41.9631 59.1115 40.4785 60.9551 40.4785ZM61.1019 45.3115C61.7056 45.3115 62.9129 44.9816 62.9129 43.1012C62.9129 41.5342 61.9666 40.7094 60.9224 40.7094C59.813 40.7094 58.9972 41.4187 58.9972 42.8373C58.9972 44.3548 59.8946 45.3115 61.1019 45.3115Z" fill="white" fill-opacity="0.85"/>
<path d="M64.8054 42.458C64.8054 41.4519 64.8054 41.2539 64.7891 41.056C64.7728 40.8416 64.7401 40.7261 64.5117 40.6931C64.4628 40.6931 64.3486 40.6766 64.2833 40.6766C64.267 40.6766 64.2344 40.6436 64.2344 40.6271C64.2344 40.5941 64.267 40.5776 64.3486 40.5776C64.6586 40.5776 65.0991 40.5941 65.1317 40.5941C65.197 40.5941 65.768 40.5776 65.9638 40.5776C66.388 40.5776 66.8611 40.6106 67.2037 40.858C67.3669 40.9735 67.6605 41.2869 67.6605 41.7488C67.6605 42.2271 67.4648 42.7055 66.8448 43.2333C67.3832 43.9261 67.8563 44.5199 68.2479 44.9158C68.6068 45.2787 68.8189 45.3446 68.9984 45.3611C69.1289 45.3776 69.1942 45.3776 69.2268 45.3776C69.2594 45.3776 69.2921 45.4106 69.2921 45.4271C69.2921 45.4601 69.2594 45.4766 69.1289 45.4766H68.7047C68.3295 45.4766 68.1663 45.4436 67.9868 45.3446C67.6932 45.1962 67.4484 44.8828 67.0732 44.3879C66.7958 44.0416 66.5022 43.6127 66.3553 43.4312C66.3227 43.3983 66.3064 43.3983 66.2574 43.3983L65.4091 43.3818C65.3764 43.3818 65.3601 43.3983 65.3601 43.4312V43.5797C65.3601 44.2065 65.3601 44.7178 65.3927 44.9818C65.4091 45.1797 65.458 45.2952 65.6538 45.3281C65.7517 45.3446 65.8822 45.3611 65.9475 45.3611C65.9964 45.3611 65.9964 45.3941 65.9964 45.4106C65.9964 45.4436 65.9638 45.4601 65.8822 45.4601C65.5233 45.4601 65.0991 45.4436 65.0664 45.4436C65.0664 45.4436 64.6096 45.4601 64.4138 45.4601C64.3486 45.4601 64.2996 45.4436 64.2996 45.4106C64.2996 45.3941 64.3159 45.3611 64.3486 45.3611C64.4138 45.3611 64.4954 45.3446 64.5607 45.3281C64.6912 45.2952 64.7075 45.1797 64.7401 44.9818C64.7728 44.7178 64.7728 44.2065 64.7728 43.5632V42.458H64.8054ZM65.3764 43.0024C65.3764 43.0354 65.3927 43.0684 65.4254 43.0849C65.5233 43.1343 65.8659 43.1838 66.1596 43.1838C66.3227 43.1838 66.5022 43.1838 66.6653 43.0684C66.8937 42.9199 67.0732 42.5735 67.0732 42.0787C67.0732 41.2704 66.6327 40.7921 65.9148 40.7921C65.719 40.7921 65.507 40.8086 65.4417 40.8251C65.4091 40.8416 65.3927 40.858 65.3927 40.9075V43.0024H65.3764Z" fill="white" fill-opacity="0.85"/>
<path d="M70.8256 43.5961C70.8256 44.223 70.8256 44.7343 70.8582 45.0147C70.8745 45.2126 70.9072 45.3281 71.1193 45.3611C71.2172 45.3776 71.364 45.3941 71.4293 45.3941C71.4782 45.3941 71.4782 45.4271 71.4782 45.4436C71.4782 45.4766 71.4456 45.4931 71.364 45.4931C71.0051 45.4931 70.5809 45.4766 70.5319 45.4766C70.4993 45.4766 70.0425 45.4931 69.8467 45.4931C69.7651 45.4931 69.7325 45.4766 69.7325 45.4436C69.7325 45.4271 69.7488 45.3941 69.7814 45.3941C69.8467 45.3941 69.912 45.3776 69.9772 45.3611C70.1077 45.3281 70.1567 45.1961 70.173 45.0147C70.2056 44.7508 70.2056 44.2394 70.2056 43.5961V40.858L69.243 40.8745C68.8188 40.8745 68.672 40.924 68.5741 41.0889C68.4925 41.2044 68.4925 41.2539 68.4599 41.3034C68.4436 41.3528 68.4273 41.3693 68.3947 41.3693C68.3783 41.3693 68.3457 41.3528 68.3457 41.3199C68.3457 41.2539 68.4762 40.6601 68.4925 40.6106C68.4925 40.5776 68.5415 40.4951 68.5578 40.4951C68.6067 40.4951 68.672 40.5446 68.8515 40.5776C69.0473 40.5941 69.292 40.6106 69.3736 40.6106H71.8861C72.0982 40.6106 72.2613 40.5941 72.3592 40.5776C72.4571 40.5611 72.5224 40.5446 72.555 40.5446C72.5876 40.5446 72.5876 40.5776 72.5876 40.6271C72.5876 40.825 72.5713 41.2869 72.5713 41.3693C72.5713 41.4188 72.5387 41.4518 72.506 41.4518C72.4734 41.4518 72.4571 41.4353 72.4571 41.3364V41.2704C72.4408 41.0724 72.294 40.924 71.6577 40.9075L70.8256 40.891V43.5961Z" fill="white" fill-opacity="0.85"/>
<path d="M73.8113 42.4577C73.8113 41.4515 73.8113 41.2536 73.795 41.0557C73.7786 40.8412 73.746 40.7258 73.5176 40.6928C73.4686 40.6928 73.3544 40.6763 73.2892 40.6763C73.2729 40.6763 73.2402 40.6433 73.2402 40.6268C73.2402 40.5938 73.2729 40.5773 73.3544 40.5773C73.6644 40.5773 74.0886 40.5938 74.1213 40.5938C74.1702 40.5938 75.557 40.5938 75.7201 40.5938C75.8506 40.5938 75.9649 40.5608 76.0301 40.5608C76.0627 40.5608 76.0954 40.5278 76.128 40.5278C76.1443 40.5278 76.1606 40.5608 76.1606 40.5938C76.1606 40.6433 76.128 40.7093 76.1117 40.9072C76.1117 40.9732 76.0954 41.2536 76.0791 41.3361C76.0791 41.3691 76.0464 41.4021 76.0138 41.4021C75.9812 41.4021 75.9649 41.3691 75.9649 41.3196C75.9649 41.2701 75.9649 41.1711 75.9322 41.0887C75.8833 40.9732 75.818 40.9402 75.4591 40.8907C75.3449 40.8742 74.5781 40.8742 74.4965 40.8742C74.4639 40.8742 74.4639 40.8907 74.4639 40.9402V42.7052C74.4639 42.7546 74.4639 42.7711 74.4965 42.7711C74.5781 42.7711 75.4591 42.7711 75.6059 42.7546C75.7691 42.7381 75.867 42.7381 75.9322 42.6557C75.9812 42.6062 76.0138 42.5732 76.0301 42.5732C76.0464 42.5732 76.0627 42.5897 76.0627 42.6227C76.0627 42.6557 76.0301 42.7711 76.0138 42.9856C75.9975 43.1175 75.9812 43.3649 75.9812 43.4144C75.9812 43.4639 75.9649 43.5299 75.9159 43.5299C75.8833 43.5299 75.867 43.5134 75.867 43.4639C75.867 43.3979 75.867 43.332 75.8343 43.2495C75.818 43.1505 75.7528 43.0845 75.4917 43.0515C75.3123 43.035 74.5944 43.0186 74.4802 43.0186C74.4476 43.0186 74.4312 43.035 74.4312 43.068V43.6124C74.4312 43.8268 74.4312 44.6021 74.4312 44.7175C74.4476 45.1464 74.5618 45.2454 75.2307 45.2454C75.4101 45.2454 75.7201 45.2454 75.8996 45.1794C76.0791 45.0969 76.1606 44.9814 76.2096 44.734C76.2259 44.6515 76.2422 44.635 76.2748 44.635C76.3075 44.635 76.3238 44.6845 76.3238 44.734C76.3238 44.7835 76.2748 45.2289 76.2259 45.3608C76.177 45.5258 76.1117 45.5258 75.8506 45.5258C75.3449 45.5258 74.9696 45.5093 74.6923 45.5093C74.4149 45.4928 74.2355 45.4928 74.1376 45.4928C74.1212 45.4928 73.9907 45.4928 73.8439 45.4928C73.7134 45.4928 73.5665 45.5093 73.4523 45.5093C73.3871 45.5093 73.3381 45.4928 73.3381 45.4598C73.3381 45.4433 73.3544 45.4103 73.3871 45.4103C73.4523 45.4103 73.5339 45.3938 73.5992 45.3773C73.7297 45.3608 73.746 45.2289 73.7786 45.0309C73.8113 44.767 73.8113 44.2557 73.8113 43.6124V42.4577Z" fill="white" fill-opacity="0.85"/>
<path d="M77.2541 45.4103C77.1563 45.3608 77.1562 45.3443 77.1562 45.1628C77.1562 44.8329 77.1889 44.5855 77.1889 44.4701C77.1889 44.4041 77.2052 44.3546 77.2378 44.3546C77.2705 44.3546 77.3031 44.3711 77.3031 44.4371C77.3031 44.4865 77.3031 44.5855 77.3194 44.668C77.4336 45.1463 77.9231 45.3113 78.3799 45.3113C79.0325 45.3113 79.3751 44.9319 79.3751 44.4371C79.3751 43.9752 79.1304 43.7443 78.5267 43.2989L78.2167 43.068C77.4989 42.5237 77.2541 42.1278 77.2541 41.6659C77.2541 40.9072 77.8578 40.4453 78.7388 40.4453C78.9999 40.4453 79.2772 40.4783 79.4241 40.5278C79.5546 40.5608 79.6035 40.5608 79.6525 40.5608C79.7014 40.5608 79.7177 40.5608 79.7177 40.6103C79.7177 40.6433 79.6851 40.8577 79.6851 41.303C79.6851 41.402 79.6851 41.4515 79.6361 41.4515C79.5872 41.4515 79.5872 41.4185 79.5709 41.369C79.5709 41.2866 79.5056 41.1216 79.473 41.0391C79.424 40.9567 79.212 40.7092 78.6083 40.7092C78.1188 40.7092 77.7273 40.9567 77.7273 41.4185C77.7273 41.8309 77.9394 42.0783 78.592 42.5237L78.7878 42.6556C79.6035 43.2164 79.8809 43.6618 79.8809 44.2226C79.8809 44.602 79.734 45.0144 79.2609 45.3278C78.9835 45.5092 78.5594 45.5587 78.2004 45.5587C77.9067 45.5752 77.5315 45.5422 77.2541 45.4103Z" fill="white" fill-opacity="0.85"/>
<path d="M85.1504 39.8848C85.2483 39.6374 85.2646 39.5879 85.3135 39.5879C85.3625 39.5879 85.3951 39.6209 85.4767 39.8683C85.5909 40.1652 86.7819 43.3322 87.2387 44.4869C87.5161 45.1632 87.7281 45.2951 87.8913 45.3446C88.0055 45.3776 88.1197 45.3941 88.2013 45.3941C88.2502 45.3941 88.2829 45.3941 88.2829 45.4436C88.2829 45.493 88.2176 45.5095 88.136 45.5095C88.0218 45.5095 87.4671 45.5095 86.945 45.493C86.7982 45.493 86.7166 45.493 86.7166 45.4436C86.7166 45.4106 86.7329 45.3941 86.7656 45.3941C86.8145 45.3776 86.8635 45.3116 86.8145 45.1796L86.113 43.2992C86.0966 43.2662 86.0803 43.2497 86.0477 43.2497H84.4162C84.3836 43.2497 84.3509 43.2662 84.3346 43.3157L83.8778 44.6683C83.8125 44.8662 83.7636 45.0477 83.7636 45.1796C83.7636 45.3281 83.9267 45.3941 84.0573 45.3941H84.1388C84.1878 45.3941 84.2204 45.4106 84.2204 45.4436C84.2204 45.493 84.1715 45.5095 84.1062 45.5095C83.9267 45.5095 83.6004 45.493 83.5189 45.493C83.4373 45.493 83.0131 45.5095 82.6542 45.5095C82.5563 45.5095 82.5073 45.493 82.5073 45.4436C82.5073 45.4106 82.54 45.3941 82.5726 45.3941C82.6215 45.3941 82.7357 45.3941 82.7847 45.3776C83.1273 45.3281 83.2904 45.0477 83.421 44.6518L85.1504 39.8848ZM85.9498 42.9528C85.9824 42.9528 85.9824 42.9363 85.9824 42.9034L85.2646 40.825C85.2319 40.7095 85.183 40.7095 85.1504 40.825L84.4815 42.9034C84.4651 42.9363 84.4814 42.9528 84.4978 42.9528H85.9498Z" fill="white" fill-opacity="0.85"/>
<path d="M89.1963 41.9299C89.1963 40.7258 89.1963 40.5114 89.1799 40.2804C89.1636 40.0165 89.0984 39.9011 88.8536 39.8351C88.7884 39.8186 88.6579 39.8186 88.5926 39.8186C88.56 39.8186 88.5273 39.8021 88.5273 39.7691C88.5273 39.7196 88.56 39.7031 88.6416 39.7031C88.9842 39.7031 89.4573 39.7196 89.5062 39.7196C89.6857 39.7196 89.9794 39.7031 90.3383 39.7031C91.5783 39.7031 91.8556 40.4619 91.8556 40.8578C91.8556 41.4846 91.4967 41.864 91.1378 42.2433C91.6925 42.4248 92.443 42.9691 92.443 43.8598C92.443 44.6846 91.8067 45.5258 90.5015 45.5258C90.4199 45.5258 90.1752 45.5093 89.9631 45.5093C89.751 45.4928 89.5389 45.4928 89.5062 45.4928C89.4899 45.4928 89.3594 45.4928 89.1963 45.4928C89.0494 45.4928 88.87 45.5093 88.7558 45.5093C88.6742 45.5093 88.6416 45.4928 88.6416 45.4433C88.6416 45.4268 88.6579 45.3938 88.7068 45.3938C88.7721 45.3938 88.87 45.3774 88.9352 45.3609C89.0821 45.3279 89.131 45.1629 89.1473 44.932C89.1799 44.6021 89.1799 44.0083 89.1799 43.266V41.9299H89.1963ZM89.7999 42.0949C89.7999 42.1444 89.8162 42.1609 89.8489 42.1774C89.8978 42.1774 90.0283 42.2103 90.3057 42.2103C90.7299 42.2103 90.8441 42.1938 90.9909 42.0124C91.1541 41.831 91.2683 41.5505 91.2683 41.2371C91.2683 40.5938 90.9909 39.9176 90.2404 39.9176C90.1589 39.9176 89.9957 39.9176 89.8815 39.9505C89.8162 39.967 89.7836 39.9835 89.7836 40.033V42.0949H89.7999ZM89.7999 42.9031C89.7999 43.4969 89.7999 44.4371 89.7999 44.5526C89.8162 44.932 89.8162 45.031 90.061 45.1464C90.2731 45.2454 90.5994 45.2619 90.7299 45.2619C91.1378 45.2619 91.8067 45.0475 91.8067 44.1732C91.8067 43.7114 91.6598 43.0516 91.0725 42.6392C90.8115 42.4578 90.632 42.4413 90.4362 42.4248C90.3383 42.4083 89.9631 42.4083 89.8489 42.4083C89.8162 42.4083 89.7999 42.4248 89.7999 42.4578V42.9031Z" fill="white" fill-opacity="0.85"/>
<path d="M97.5173 45.3446C97.2399 45.493 96.7342 45.6085 96.3263 45.6085C94.2216 45.6085 93.3569 43.9755 93.3569 42.59C93.3569 41.3528 94.2543 39.5879 96.3426 39.5879C98.0557 39.5879 99.3283 40.6765 99.3283 42.458C99.3283 43.8106 98.4799 44.7013 97.9904 45.0312L99.5404 45.8394C101.204 46.7137 102.347 46.7467 102.738 46.7467C103.113 46.7467 103.717 46.6642 104.239 46.4497C104.288 46.4333 104.321 46.4168 104.353 46.4168C104.386 46.4168 104.402 46.4333 104.402 46.4662C104.402 46.4992 104.386 46.5157 104.337 46.5487C103.896 46.7467 103.048 47.0765 101.939 47.0765C101.025 47.0765 100.046 46.7467 98.8062 46.0539L97.5173 45.3446ZM96.5058 45.3116C97.191 45.3116 98.5941 44.9157 98.5941 42.6889C98.5941 40.8415 97.4847 39.8518 96.2936 39.8518C95.0211 39.8518 94.0748 40.693 94.0748 42.3755C94.0748 44.157 95.1353 45.3116 96.5058 45.3116Z" fill="white" fill-opacity="0.85"/>
<path d="M106.67 44.5198C106.703 44.8003 106.752 45.2291 107.078 45.3281C107.29 45.3941 107.502 45.3941 107.567 45.3941C107.6 45.3941 107.633 45.3941 107.633 45.4271C107.633 45.4765 107.567 45.493 107.47 45.493C107.306 45.493 106.491 45.493 106.197 45.4601C106.018 45.4436 105.985 45.4271 105.985 45.3776C105.985 45.3446 106.001 45.3281 106.034 45.3281C106.066 45.3281 106.083 45.1961 106.066 45.0477L105.708 41.0724H105.691L103.831 45.0642C103.668 45.3941 103.652 45.4766 103.587 45.4766C103.538 45.4766 103.489 45.3941 103.358 45.1302C103.162 44.7508 102.51 43.4312 102.477 43.3487C102.412 43.2168 101.563 41.3693 101.482 41.1549H101.417L101.107 44.7178C101.107 44.8333 101.107 44.9817 101.107 45.1137C101.107 45.2291 101.188 45.3281 101.302 45.3446C101.433 45.3776 101.547 45.3776 101.596 45.3776C101.629 45.3776 101.661 45.3941 101.661 45.4106C101.661 45.4601 101.612 45.4766 101.531 45.4766C101.254 45.4766 100.878 45.4601 100.829 45.4601C100.764 45.4601 100.389 45.4766 100.193 45.4766C100.111 45.4766 100.062 45.4601 100.062 45.4106C100.062 45.3941 100.095 45.3776 100.144 45.3776C100.209 45.3776 100.258 45.3776 100.372 45.3611C100.617 45.3116 100.65 45.0147 100.682 44.7178L101.221 39.7198C101.221 39.6374 101.253 39.5879 101.302 39.5879C101.351 39.5879 101.384 39.6209 101.417 39.7034L103.733 44.5198L105.969 39.7034C106.001 39.6374 106.034 39.5879 106.083 39.5879C106.132 39.5879 106.164 39.6539 106.181 39.8023L106.67 44.5198Z" fill="white" fill-opacity="0.85"/>
<path d="M0.915527 38.103H42.1927" stroke="white" stroke-opacity="0.85" stroke-width="0.676056" stroke-miterlimit="10"/>
<path d="M56.3867 38.103H108.269" stroke="white" stroke-opacity="0.85" stroke-width="0.676056" stroke-miterlimit="10"/>
<path d="M3.37907 32.9731C2.98751 32.7752 2.97119 32.6762 2.97119 31.9175C2.97119 30.5319 3.0854 29.4268 3.10171 28.9814C3.13434 28.6845 3.18329 28.536 3.31381 28.536C3.47696 28.536 3.50959 28.6185 3.50959 28.8329C3.50959 29.0804 3.50959 29.4762 3.59116 29.8556C3.99904 31.901 5.81002 32.6762 7.65362 32.6762C10.2803 32.6762 11.5692 30.7628 11.5692 28.9979C11.5692 27.0845 10.7698 25.9793 8.42043 24.0164L7.18048 22.9938C4.2764 20.5855 3.62379 18.8701 3.62379 16.9731C3.62379 14.0041 5.81002 11.9917 9.30144 11.9917C10.3782 11.9917 11.1614 12.1072 11.8466 12.2721C12.3687 12.3876 12.5808 12.4041 12.8092 12.4041C13.0213 12.4041 13.0865 12.4536 13.0865 12.602C13.0865 12.734 12.9723 13.6577 12.9723 15.5381C12.9723 15.9835 12.9234 16.1814 12.7766 16.1814C12.6134 16.1814 12.5808 16.0494 12.5645 15.8185C12.5318 15.4886 12.3687 14.7298 12.2055 14.4329C12.0424 14.136 11.3082 12.9649 8.77936 12.9649C6.88681 12.9649 5.40214 14.1525 5.40214 16.1814C5.40214 17.7649 6.12 18.7546 8.74673 20.8329L9.51354 21.4432C12.7439 24.0164 13.5107 25.7319 13.5107 27.9587C13.5107 29.0969 13.0702 31.2082 11.1777 32.5608C10.003 33.3855 8.51832 33.7319 7.03365 33.7319C5.76107 33.7319 4.48849 33.534 3.37907 32.9731Z" fill="white" fill-opacity="0.85"/>
<path d="M19.1069 20.4208C19.1069 16.0991 19.1069 15.3239 19.058 14.4331C19.009 13.4929 18.7806 13.0476 17.8833 12.8496C17.6712 12.8001 17.198 12.7672 16.9533 12.7672C16.8391 12.7672 16.7412 12.7177 16.7412 12.6022C16.7412 12.4373 16.8717 12.3878 17.1817 12.3878C17.818 12.3878 18.5522 12.3878 19.1558 12.4208L20.2816 12.4702C20.4774 12.4702 25.9266 12.4702 26.5629 12.4373C27.085 12.4043 27.5255 12.3548 27.7376 12.3053C27.8681 12.2723 27.9823 12.1733 28.1291 12.1733C28.2107 12.1733 28.2433 12.2888 28.2433 12.4208C28.2433 12.6187 28.1128 12.9486 28.0312 13.7239C27.9986 14.0043 27.9497 15.2249 27.9007 15.5548C27.8681 15.6867 27.8192 15.8517 27.7049 15.8517C27.5418 15.8517 27.4929 15.7197 27.4929 15.4888C27.4929 15.2909 27.4602 14.829 27.3297 14.4991C27.1339 14.0538 26.8566 13.7239 25.3882 13.5589C24.9151 13.5094 21.9294 13.4764 21.6357 13.4764C21.5215 13.4764 21.4726 13.5589 21.4726 13.7568V21.4105C21.4726 21.6084 21.5052 21.6909 21.6357 21.6909C21.9947 21.6909 25.3556 21.6909 25.9919 21.6414C26.6445 21.5919 27.036 21.5259 27.2808 21.2455C27.4765 21.0311 27.5744 20.8826 27.6886 20.8826C27.7702 20.8826 27.8192 20.9321 27.8192 21.0971C27.8192 21.262 27.6886 21.7404 27.6071 22.6476C27.5581 23.2084 27.4929 24.2311 27.4929 24.429C27.4929 24.6434 27.4929 24.9568 27.2971 24.9568C27.1665 24.9568 27.1013 24.8414 27.1013 24.7094C27.1013 24.429 27.1013 24.1486 26.9871 23.8022C26.8729 23.4063 26.6282 22.9445 25.5677 22.829C24.8335 22.7465 22.1089 22.6971 21.6521 22.6971C21.5215 22.6971 21.4563 22.7795 21.4563 22.895V25.3362C21.4563 26.2764 21.4236 29.4929 21.4563 30.0702C21.5378 31.9837 21.9457 32.3465 24.6377 32.3465C25.3556 32.3465 26.5629 32.3465 27.2644 32.0496C27.9823 31.7527 28.3086 31.1919 28.5044 30.0538C28.5533 29.7568 28.6186 29.6414 28.7491 29.6414C28.9123 29.6414 28.9123 29.8558 28.9123 30.0538C28.9123 30.2682 28.7002 32.1651 28.5533 32.7424C28.3576 33.4682 28.1455 33.4682 27.0687 33.4682C25.013 33.4682 23.512 33.4187 22.4352 33.3857C21.3584 33.3362 20.7058 33.3032 20.2979 33.3032C20.249 33.3032 19.7758 33.3032 19.2048 33.3362C18.6501 33.3362 18.0301 33.3857 17.6222 33.3857C17.3286 33.3857 17.1817 33.3362 17.1817 33.1713C17.1817 33.0888 17.2307 33.0063 17.3938 33.0063C17.6385 33.0063 17.9648 32.9568 18.2096 32.8909C18.7643 32.7754 18.8948 32.1651 19.009 31.3733C19.1395 30.2022 19.1395 28.0249 19.1395 25.3527V20.4208H19.1069Z" fill="white" fill-opacity="0.85"/>
<path d="M41.2786 32.4452C36.9061 32.4452 32.3868 28.8658 32.3868 21.971C32.3868 16.2968 35.7967 12.9318 40.4139 12.9318C44.7863 12.9318 49.3056 16.4782 49.3056 23.4061C49.3056 29.0803 45.8631 32.4452 41.2786 32.4452ZM54.4611 36.4205C53.5638 36.8164 52.487 37.0308 51.1655 37.0308C48.8161 37.0308 45.8141 35.2988 43.269 32.8081C48.3919 31.538 51.7855 26.738 51.7855 22.3339C51.7855 17.0555 47.4293 12.2061 41.1154 12.2061C34.5078 12.2061 29.8906 17.8803 29.8906 22.9937C29.8906 28.2555 34.1162 33.0225 40.3486 33.1545C40.3486 33.1545 41.8659 33.1215 42.4696 33.7978C43.2853 34.672 48.4409 39.9009 54.4611 36.7999C54.6569 36.7009 54.5101 36.3875 54.4611 36.4205Z" fill="#009640"/>
<path d="M48.1635 38.6968C48.5551 38.7627 48.9793 38.7792 49.3708 38.7792C52.1444 38.7792 53.3354 37.8555 54.5427 37.1627C48.1635 40.4287 42.9916 35.2988 42.1759 34.4246C41.5722 33.7648 39.6797 33.7813 39.6797 33.7813C42.3064 36.1895 44.3947 37.5421 46.3689 38.2019C46.3689 38.2184 47.5272 38.5978 48.1635 38.6968Z" fill="#FFCD00"/>
<path d="M75.3451 29.6251C75.443 30.5818 75.6387 32.0663 76.7808 32.4457C77.5802 32.7096 78.2981 32.7096 78.5918 32.7096C78.7223 32.7096 78.8202 32.7756 78.8202 32.9075C78.8202 33.0725 78.5591 33.1714 78.2492 33.1714C77.6129 33.1714 74.4967 33.1385 73.4851 33.0395C72.8162 32.9735 72.6857 32.8745 72.6857 32.7426C72.6857 32.6436 72.751 32.5446 72.8815 32.5117C73.0446 32.4787 73.0773 32.0663 73.012 31.555L71.6742 17.6993H71.6089L64.8708 31.6044C64.2998 32.7921 64.1366 33.056 63.8919 33.056C63.6308 33.056 63.484 32.7921 62.9456 31.8024C62.2114 30.4498 60.3678 26.9529 59.6826 25.4848C58.8505 23.7529 56.599 19.1673 56.1259 18.0457H55.9954L54.9186 30.3673C54.886 30.7797 54.886 31.291 54.886 31.7529C54.886 32.1653 55.147 32.4292 55.5549 32.5281C56.028 32.6601 56.4359 32.6931 56.6317 32.6931C56.7296 32.6931 56.8601 32.7921 56.8601 32.891C56.8601 33.089 56.6643 33.155 56.3543 33.155C55.3101 33.155 53.9723 33.056 53.7439 33.056C53.4829 33.056 52.1613 33.155 51.3945 33.155C51.1009 33.155 50.9214 33.089 50.9214 32.891C50.9214 32.7921 51.0519 32.6931 51.2151 32.6931C51.4435 32.6931 51.6229 32.6601 52.0471 32.5941C52.9608 32.4292 52.9934 31.4395 53.1239 30.4168L55.147 12.6024C55.1796 12.3055 55.3101 12.124 55.457 12.124C55.6528 12.124 55.8649 12.223 56.028 12.5364L64.4629 29.4766L72.5878 12.5694C72.7183 12.3055 72.8489 12.124 73.0283 12.124C73.2078 12.124 73.3709 12.355 73.4362 12.8663L75.3451 29.6251Z" fill="white" fill-opacity="0.85"/>
<path d="M68.313 10.359L69.863 9.60028L71.0377 10.8704L70.7929 9.15492L72.3429 8.41265L70.6461 8.11575L70.434 6.38379L69.6509 7.91781L67.9541 7.58791L69.1288 8.82503L68.313 10.359Z" fill="white" fill-opacity="0.85"/>
<path d="M64.3646 10.6557L65.4251 9.43511L66.8771 10.1114L66.0613 8.72583L67.1218 7.5382L65.5719 7.90109L64.7888 6.49902L64.6419 8.08253L63.0757 8.41243L64.5277 9.05572L64.3646 10.6557Z" fill="white" fill-opacity="0.85"/>
<path d="M74.8064 12.2724L74.1048 10.8373L72.5386 11.1012L73.6806 9.97958L72.9465 8.54453L74.3332 9.30329L75.4427 8.18164L75.1816 9.76515L76.601 10.5074L75.0348 10.7218L74.8064 12.2724Z" fill="white" fill-opacity="0.85"/>
<path d="M80.2881 11.332C82.8169 14.0042 83.9264 17.1217 83.9264 21.1135C83.9264 25.4021 82.148 29.2619 79.2929 31.9506C79.2929 31.9506 79.2929 31.9506 79.2603 31.9836C88.152 27.7939 96.0974 19.0351 96.0974 19.0351C90.8766 18.3753 84.8237 15.0599 80.2881 11.332Z" fill="#FFCD00"/>
<path d="M105.903 0.0825195C106.344 3.9918 106.964 8.74231 104.729 15.7526L108.938 4.09077C109.77 1.60005 106.882 0.263963 105.903 0.0825195Z" fill="#006B2D"/>
<path d="M105.593 4.7011C98.7404 9.92997 78.4934 2.37533 70.0096 3.00213C62.1783 3.61244 59.0132 8.41244 59.0132 8.41244C59.0132 8.41244 59.0458 8.41244 59.0458 8.37945C61.6889 6.38358 64.9682 5.17945 68.5249 5.17945C72.5384 5.17945 75.8177 6.6475 79.0318 9.23719C80.4186 10.5238 81.8543 11.299 83.1758 12.1238C94.3027 18.9032 99.0341 18.0454 99.0341 18.0454C90.6971 28.6681 79.456 32.7258 79.456 32.7258C90.0608 34.5238 97.5168 31.8021 97.5168 31.8021L104.695 15.7362L104.728 15.7032C105.625 12.1403 106.082 7.2578 105.593 4.7011Z" fill="#009640"/>
</g>
<defs>
<clipPath id="clip0_301_4032">
<rect width="108.169" height="48" fill="white" transform="translate(0.915527)"/>
</clipPath>
</defs>
</svg>
