<svg width="80" height="60" viewBox="0 0 80 60" fill="none" xmlns="http://www.w3.org/2000/svg">
<rect x="0.5" y="0.5" width="79" height="59" rx="3.5" stroke="white" stroke-opacity="0.25"/>
<path d="M27.5381 23.4792L29.0581 22.7276L30.2111 23.9777L29.9707 22.2883L31.5068 21.5729L29.839 21.281L29.637 19.5889L28.8456 21.0951L27.1841 20.7676L28.3634 21.9892L27.5381 23.4792Z" fill="white" fill-opacity="0.5"/>
<path d="M31.7316 26.4014L31.7268 26.4386C31.7289 26.4292 31.7316 26.4183 31.7361 26.4092L31.7316 26.4014Z" fill="white" fill-opacity="0.5"/>
<path d="M23.6164 23.8027L24.6544 22.6104L26.0885 23.2662L25.2818 21.9052L26.3426 20.7345L24.8077 21.0846L24.0303 19.7061L23.8891 21.2858L22.3443 21.6051L23.7933 22.2263L23.6164 23.8027Z" fill="white" fill-opacity="0.5"/>
<path d="M33.9783 25.4009L33.2859 23.9775L31.731 24.2329L32.8633 23.1313L32.1428 21.7227L33.5344 22.4637L34.6428 21.3389L34.3689 22.8996L35.7769 23.6142L34.2174 23.8329L33.9783 25.4009Z" fill="white" fill-opacity="0.5"/>
<path d="M20.6178 35.5807C19.7228 35.0587 19.809 34.3194 19.7228 33.9663C19.6357 33.6163 19.3771 31.8272 19.3771 31.3057C19.3771 30.7837 18.9156 30.198 18.5974 29.5215C18.2795 28.8442 17.4423 27.0609 17.3866 26.9377C17.3271 26.8154 16.9538 26.5075 16.3471 26.784C15.7407 27.0606 15.0487 26.8464 14.8747 26.9377C14.7014 27.0295 14.0684 27.2449 13.7789 27.2766C13.4901 27.307 13.5191 27.676 13.3171 27.7992C13.1153 27.923 12.538 27.5826 12.538 27.5826C12.538 27.5826 12.2497 27.4314 12.1922 27.307C12.1351 27.1838 12.1351 27.0112 12.018 26.662C11.8468 26.1388 12.1641 26.0881 12.1641 26.0881C12.1641 26.0881 12.6538 25.636 12.8271 25.4811C13.0001 25.3281 13.7316 24.4599 13.749 24.1394C13.7789 23.6161 14.2396 23.3091 14.4437 23.0633C14.5431 22.9395 14.7706 22.8166 14.8457 22.6301C14.9226 22.4473 14.8457 22.2021 14.8457 22.2021C14.5296 21.9562 14.8457 20.9398 14.8457 20.9398H14.9618C14.9618 20.9398 14.9618 21.2164 15.0765 21.3715C15.1932 21.5255 15.4228 22.0478 15.568 21.8945C15.7125 21.7388 15.9712 21.9243 15.9712 21.9243C15.7407 21.5866 16.0861 20.7549 16.0861 20.7549H16.2028V20.8477C16.2028 20.9398 16.26 21.2781 16.3181 21.4327C16.3755 21.5866 16.8377 22.3551 16.8377 22.3551C16.8377 22.3551 17.2861 22.5883 17.4591 22.7386C17.6318 22.8889 17.7797 22.8422 17.9907 22.7958C18.4244 22.7027 21.625 24.5816 23.0971 26.2915C23.8837 27.2028 24.5416 27.1835 24.9451 27.2136C25.3498 27.2446 27.052 28.0755 27.052 28.0755C27.052 28.0755 28.9275 28.1993 30.6582 27.5534C32.3892 26.9069 33.7454 26.3539 35.7652 27.1528C35.7652 27.1528 36.2262 27.3374 36.5159 27.398C36.8047 27.4609 37.3519 27.6757 37.3519 27.6757C37.3519 27.6757 38.9398 27.4606 39.9488 29.7371C40.9572 32.0119 41.1607 34.3504 40.7848 36.2269C40.7848 36.2269 40.7848 35.8256 40.6992 35.6114C40.613 35.3958 40.1799 37.0562 40.0072 37.3331V36.7179C40.0072 36.6254 39.5723 37.7325 39.4878 38.0696C39.4013 38.4085 39.3723 38.6851 39.3723 38.6851C39.3723 38.6851 39.3436 37.6714 39.4588 37.3948C39.5723 37.1177 39.1987 37.8856 39.1987 37.7627C39.1987 37.641 39.2271 36.8716 39.2271 36.6562C39.2271 36.4399 38.9964 36.7794 39.0254 35.3349C39.055 33.888 39.2852 32.8126 39.055 31.7968C38.8225 30.7834 38.9111 30.6282 38.9111 30.6282C38.9111 30.6282 38.8826 31.4892 38.7946 31.6736C38.7946 31.6736 38.5061 33.5187 38.0152 34.38C37.5243 35.2415 36.8634 36.1031 37.0927 36.7794C37.3226 37.456 37.6704 38.2242 37.6704 38.4706C37.6704 38.7164 37.7272 38.7782 37.8149 38.9637C37.9006 39.1466 38.2184 39.7635 38.0152 40.2244C37.8149 40.686 37.8428 41.6707 37.8428 42.2542C37.8428 42.8384 37.8712 44.4988 37.8712 44.6223C37.8712 44.7452 37.8712 44.8672 37.7545 44.9296C37.6422 44.9923 37.5827 45.1441 37.5542 45.2372C37.5243 45.33 37.2364 45.3908 37.2364 45.6068C37.2364 45.821 37.4103 46.0999 37.4103 46.1915C37.4103 46.2831 37.1496 46.4669 37.1496 46.4669C37.1496 46.4669 35.7945 46.5599 35.7945 46.4669C35.7945 46.3741 36.2848 45.6975 36.2848 45.6975C36.2848 45.6975 36.2848 45.4821 36.4872 45.3905C36.6877 45.2986 36.7748 45.1438 36.7748 44.8073C36.7748 44.4675 36.7176 44.4048 36.8332 44.0683C36.9484 43.73 36.8634 41.0839 36.8634 41.0839L36.7748 40.9619C36.7748 40.9619 36.2567 42.8058 36.2262 43.1462C36.198 43.4836 36.3145 43.9762 35.996 44.344C35.6775 44.7142 35.4189 44.8672 35.4189 44.8672C35.4189 44.8672 35.2746 45.0838 35.3902 45.2372C35.5063 45.3908 35.6497 45.6068 35.5632 45.6978C35.4776 45.7909 35.2746 45.852 35.2746 45.852C35.2746 45.852 34.3225 46.037 34.0348 45.9138C34.0348 45.9138 34.2357 45.3908 34.2928 45.2688C34.3512 45.1438 34.4087 44.9606 34.611 44.7775C34.8125 44.591 35.0151 44.622 35.0151 44.344C35.0151 44.0686 35.1585 43.9762 35.3614 43.4538C35.5632 42.9296 35.7652 41.2086 35.7652 40.9938C35.7652 40.7772 35.3614 39.7635 35.3614 38.9932V37.6406C35.3614 37.6406 35.0432 37.3023 34.8409 36.47C34.6419 35.6413 33.8316 34.6571 33.6308 34.4718C33.4296 34.2878 33.3129 34.3501 33.0827 34.38C32.8516 34.4113 32.8516 34.2878 32.59 34.1655C32.3317 34.0426 31.2637 34.6571 30.8031 34.9966C30.3481 35.3292 28.2768 36.0172 25.9858 36.2748C25.9463 36.279 25.9077 36.2826 25.8676 36.2865C23.5305 36.5321 24.7727 36.4697 24.6559 36.4697C24.6559 36.4697 24.8873 37.3638 24.9738 38.1624C25.0603 38.9631 25.2345 39.7301 25.2345 40.1925C25.2345 40.6555 25.2052 41.4541 25.2905 41.6075C25.3788 41.7617 25.6991 43.2071 25.6991 43.2071C25.6991 43.2071 26.1555 43.6686 26.0415 43.8529C25.9257 44.0361 25.7018 44.0683 25.6991 44.3765C25.6946 44.6832 25.5868 45.2068 25.6991 45.2986C25.8113 45.3908 25.8466 45.4818 25.6991 45.514C25.5509 45.5441 25.3498 45.6975 25.3498 45.6975C25.3498 45.6975 25.0896 46.0367 24.2252 45.8517C24.2252 45.8517 24.2252 45.6065 24.456 45.3598C24.6862 45.1149 24.6862 45.1149 24.8586 45.0227C25.0316 44.929 24.9451 44.7775 25.0603 44.4675C25.1762 44.1602 25.2345 43.9759 25.2345 43.9759C25.2345 43.9759 25.0031 43.7608 25.0031 43.4833C25.0031 43.2071 24.5416 41.7921 24.4838 41.6382C24.4261 41.4846 24.022 40.8691 23.8493 40.1621C23.6757 39.4545 23.2428 38.1013 23.0689 37.7027C22.8971 37.302 22.8681 37.456 22.8681 37.762C22.8681 38.0696 22.5314 39.0246 22.7145 39.5472C22.8971 40.0699 22.878 41.0839 22.7145 41.299C22.5502 41.5159 22.5502 42.0081 22.5502 42.3759C22.5502 42.7453 22.6487 43.6686 22.7145 43.884C22.7813 44.0985 22.9354 44.2834 22.7145 44.4675C22.4921 44.6528 22.4071 44.7772 22.3185 44.8669C22.2332 44.9603 22.1174 45.4818 22.1174 45.5752C22.1174 45.6656 22.3775 45.8204 22.2916 45.8827C22.2039 45.9439 21.9456 46.2828 21.9456 46.2828C21.9456 46.2828 21.0785 46.344 20.5897 46.2515V46.1286C20.5897 46.1286 21.0551 45.3905 21.2976 45.2366C21.54 45.0832 21.4822 44.929 21.5984 44.7446C21.7127 44.5621 21.8567 44.0982 21.8567 43.9756C21.8567 43.8527 21.8567 43.5451 21.886 43.4532C21.9163 43.3598 21.8007 41.731 21.8007 41.731C21.8007 41.731 21.4822 40.7766 21.5116 40.0696C21.54 39.3626 21.558 38.83 21.2976 38.4383C20.358 37.0276 20.6178 35.5807 20.6178 35.5807Z" fill="white" fill-opacity="0.5"/>
<path d="M39.3999 24.6523C41.9178 27.3066 43.0184 30.404 43.0184 34.3636C43.0184 38.6043 41.2431 42.4244 38.402 45.1199C38.396 45.1278 38.3888 45.135 38.3813 45.1413C47.2295 40.9805 55.1552 32.3173 55.1552 32.3173C49.9276 31.6376 43.9047 28.3562 39.3999 24.6523Z" fill="white" fill-opacity="0.5"/>
<path d="M64.8819 13.4922C65.3417 17.3888 65.9334 22.0883 63.7008 29.0323L67.9033 17.4506C68.7515 14.9939 65.8676 13.672 64.8819 13.4922Z" fill="white" fill-opacity="0.5"/>
<path d="M64.5883 18.0645C57.7542 23.2547 37.589 15.7491 29.138 16.392C21.3224 16.986 18.185 21.7608 18.185 21.7608C18.1948 21.7529 18.2044 21.7469 18.2134 21.7394C20.839 19.7454 24.107 18.5618 27.6492 18.5618C31.6699 18.5618 34.9122 20.0145 38.111 22.5892C39.4762 23.8466 40.9108 24.6289 42.2461 25.4387C53.3392 32.1701 58.0631 31.3145 58.0631 31.3145C49.7306 41.8316 38.5564 45.8753 38.5564 45.8753C49.1275 47.6574 56.5401 44.9742 56.541 44.9742L63.7005 29.0326L63.7184 28.9934C64.6176 25.4468 65.0726 20.5953 64.5883 18.0645Z" fill="white" fill-opacity="0.5"/>
</svg>
