<svg width="100" height="80" viewBox="0 0 100 80" fill="none" xmlns="http://www.w3.org/2000/svg">
<path fill-rule="evenodd" clip-rule="evenodd" d="M63.5601 15.0351C63.5488 15.0408 63.5374 15.0408 63.5317 15.0522C63.526 15.0636 63.5089 15.0636 63.5032 15.0693L63.2812 15.1433C63.0991 15.1945 62.5868 15.1774 62.3534 15.1661C62.2225 15.1604 62.1087 15.1718 62.0119 15.1319H61.9664C61.7102 15.1547 61.4029 15.1718 61.1923 15.3824L61.1638 15.4165C61.1581 15.4222 61.1524 15.4336 61.1524 15.4336C61.1467 15.4393 61.141 15.4507 61.141 15.4564L60.9646 15.7694C60.7881 15.8946 60.9589 15.6727 60.8564 16.0711C60.7938 16.3102 60.8678 16.6175 60.8337 16.868L60.7995 17.238C60.754 17.4827 60.6857 17.5283 60.5661 17.6421L60.4751 17.7332C60.4751 17.7389 60.4637 17.7446 60.4637 17.7503C60.3612 17.8698 60.5206 17.6876 60.4238 17.8015L60.2815 17.9324C60.2758 17.9381 60.2701 17.9438 60.2644 17.9495C60.2588 17.9552 60.2531 17.9609 60.2474 17.9666C60.2417 17.9722 60.236 17.9779 60.2303 17.9836L60.1563 18.0576C60.1506 18.0633 60.1449 18.069 60.1392 18.0747L60.0766 18.1373C60.0709 18.143 60.0652 18.1487 60.0595 18.1544C60.0538 18.1544 60.0481 18.1658 60.0425 18.1715L59.9115 18.2967C59.9058 18.3024 59.8888 18.3081 59.8888 18.3138C59.8831 18.3195 59.8717 18.3252 59.866 18.3308L59.7749 18.4219L59.6839 18.513L59.5928 18.6041L59.5017 18.6951L59.4106 18.7862L59.3196 18.8773L59.1374 19.0594L58.9553 19.2416C58.8585 19.3099 58.9097 19.2359 58.8187 19.5489C58.8016 19.6059 58.813 19.5489 58.8016 19.6343L58.7902 19.8734C58.813 20.1295 59.2342 20.1182 59.4106 20.2035H59.4562C59.57 20.158 59.4789 20.158 59.5928 20.2035H59.6383H59.6839H59.7294C59.8432 20.2491 59.7522 20.2491 59.866 20.2035H59.9115C60.0254 20.2491 59.9343 20.2491 60.0481 20.2035H60.0937H60.1392H60.1848L61.2378 20.1125C61.2378 20.2206 61.2264 20.3401 61.215 20.3743C61.1866 20.5223 61.0898 20.6589 61.2549 20.7727L61.3744 20.841L61.8355 21.137C61.8355 21.137 61.8696 21.1712 61.8753 21.1826L61.9493 21.2793C62.1201 21.5013 62.0688 21.3989 62.0859 21.5184C62.0859 21.5298 62.0916 21.5753 62.0916 21.5867C62.1087 21.6436 62.0859 21.581 62.1201 21.655C62.1827 21.7802 62.1485 21.6493 62.1713 21.7688C62.2225 22.025 62.2054 22.3608 62.6153 22.3324C62.7177 22.3267 62.7633 22.3494 62.8771 22.3039H62.9226C63.082 22.1958 63.0649 22.1445 63.3325 22.1218H63.378V22.1673C63.4178 22.2641 63.3894 22.1673 63.3837 22.247L63.2642 22.7934C63.2186 23.0097 63.1674 22.9869 63.1674 23.1805C63.1674 23.2716 63.1845 23.2602 63.1332 23.3911C63.0877 23.522 63.1275 23.374 63.0877 23.4992C63.0706 23.5618 63.0877 23.5163 63.0763 23.5903C63.0763 23.6017 63.0706 23.6245 63.0706 23.6358L62.8714 24.1823C62.7746 24.4669 62.786 24.2392 62.8031 24.6206C62.8259 25.1385 62.8999 25.3662 62.8942 25.9184C62.8942 26.1176 62.9283 26.0948 62.9682 26.3111L63.0649 26.7039C63.1902 27.1023 63.1674 27.2275 63.1902 27.2901C63.4805 28.0813 63.1219 27.9163 62.8145 28.5196L62.712 28.6562C62.6608 28.7188 62.7974 28.6221 62.6437 28.7359L62.5527 28.827L62.5014 28.8611C62.3762 28.975 62.473 28.8896 62.4217 29.0205C62.3307 29.2368 62.4047 29.0945 62.1884 29.197H62.1428C62.029 29.2425 62.1201 29.2425 62.0062 29.197H61.9607C61.8013 29.2596 61.5167 29.1628 61.3232 29.2881C61.2435 29.3393 61.215 29.3677 61.1353 29.419L61.0499 29.4702C61.0443 29.4702 60.9532 29.5499 60.9475 29.5499L60.5889 29.8345L60.3612 30.0166L60.3043 30.0508C60.0994 30.176 59.9115 30.3923 59.8831 30.5972C59.8375 30.9274 59.6895 30.6997 59.7009 31.0298C59.7066 31.155 59.7066 31.1152 59.6497 31.3087L59.5245 31.7072C59.5017 31.8039 59.5472 31.7129 59.496 31.8381L59.3879 32.0999C59.3822 32.1113 59.3651 32.1341 59.3651 32.1455L59.2968 32.2821C59.2968 32.2821 59.257 32.3447 59.2456 32.3618C59.1602 32.4927 59.1545 32.5553 59.0293 32.6464L58.7219 32.8399H58.6764C58.5967 32.8797 58.5284 32.8911 58.4487 32.931H58.4031C58.2893 32.9765 57.8169 32.9708 57.7201 32.931H57.6746C57.5607 32.9765 57.6518 32.9765 57.538 32.931H57.4924C57.3786 32.9765 57.4697 32.9765 57.3558 32.931H57.3103C57.1509 33.005 56.9004 32.9936 56.8094 33.2497H56.5817C56.4963 32.8854 56.2914 33.0676 56.4906 32.6691C56.4906 32.6634 56.5646 32.6464 56.4906 32.4756C56.3939 32.5211 56.428 32.4927 56.3483 32.5154L56.2117 32.5667C55.7279 32.8911 56.0239 32.6691 55.8133 32.9424C55.745 33.0277 55.7279 33.022 55.6653 33.1131L55.5685 33.227C55.4376 33.3977 55.5628 33.392 55.2099 33.4376C55.0733 33.4546 55.0562 33.4489 54.9765 33.4774H54.931L54.4301 33.6595H54.3846L54.0658 33.8417C54.0544 33.8474 54.043 33.8417 54.0373 33.8588L53.7584 34.0808C53.6503 34.1946 53.5877 34.3028 53.4283 34.3426C53.1494 34.1548 53.4681 34.0295 52.9502 33.8132C52.768 33.7392 52.8249 33.7962 52.6997 33.7449H52.6542C52.472 33.6425 52.4037 34.1035 52.2956 34.3255C52.25 34.4223 52.2842 34.3369 52.233 34.4394L52.085 34.6955C52.085 34.7012 52.0736 34.7069 52.0736 34.7126C52.0736 34.7183 52.0622 34.724 52.0622 34.7297C51.8117 35.0655 51.9085 34.9346 51.6467 35.1167C51.5841 35.1566 51.5727 35.1793 51.5158 35.2135C51.4418 35.259 51.4019 35.2647 51.3279 35.2989L51.1515 35.4013C51.0832 35.4355 51.0262 35.4525 50.9579 35.4867L50.457 35.7599L50.0529 35.9933C49.9789 36.0274 49.9391 36.0502 49.8366 36.1014L49.6601 36.1982C49.6545 36.2039 49.6431 36.2096 49.6317 36.2153C49.5691 36.2551 49.5577 36.2779 49.5008 36.312C49.4268 36.3576 49.3869 36.3633 49.3129 36.3974H49.2674C49.2048 36.4373 49.1934 36.46 49.1365 36.4942C49.0625 36.5397 49.0226 36.5454 48.9486 36.5796L48.8063 36.665C48.6982 36.7048 48.812 36.7276 48.6754 36.6706C48.5673 36.4088 48.7779 36.2096 48.5388 35.851L48.2485 35.6632C48.0778 35.5948 48.0265 35.5664 47.8956 35.6176L47.8842 35.7884C47.8842 35.7941 47.8899 35.8055 47.8899 35.8111C47.9355 36.0673 47.9696 36.3234 47.8045 36.5739L47.6224 36.756L47.4402 36.9382L47.2695 37.126C47.2695 37.1317 47.2581 37.1431 47.2581 37.1431C47.2581 37.1488 47.2467 37.1545 47.2467 37.1602C47.241 37.1659 47.2239 37.1829 47.2183 37.1886L46.928 37.4732C46.9223 37.4789 46.9166 37.4846 46.9109 37.4903C46.9052 37.496 46.8995 37.5017 46.8938 37.5074C46.8881 37.5131 46.8824 37.5188 46.8767 37.5245L46.5751 37.8489L46.3929 38.031L46.2108 38.2132L46.0286 38.3953C45.9546 38.5376 45.9319 38.6116 45.9034 38.7027C45.9034 38.7141 45.892 38.7369 45.892 38.7482L45.8522 38.8621C45.8522 38.8678 45.8465 38.8792 45.8465 38.8849C45.8009 39.0613 45.8351 39.2548 45.4879 39.4882C45.4822 39.4939 45.4651 39.4939 45.4651 39.5053L45.2602 39.6704C45.1236 39.7614 45.0724 39.8639 44.9471 39.9493C44.839 40.0233 44.8731 39.972 44.7479 40.0688C44.6625 40.1371 44.6739 40.1542 44.5771 40.2168C44.4918 40.3477 44.5088 40.2908 44.3495 40.4217L44.2584 40.49L44.1673 40.5811L43.5298 41.0365C43.3932 41.0934 43.507 41.0706 43.3989 41.0308C43.3875 41.0251 43.3534 41.008 43.342 41.0023C43.2623 40.9568 43.2907 40.9738 43.2566 40.9454C43.1541 40.8771 43.1314 40.8258 43.0346 40.7575C42.9663 40.712 42.9606 40.7177 42.8866 40.6722C42.8297 40.638 42.8126 40.6152 42.7557 40.5754L42.6191 40.4843L42.528 40.3932C42.3345 40.2623 42.4711 40.2794 42.1239 40.1086C42.1125 40.103 41.9702 40.0347 41.9702 40.0347L41.7311 39.955C41.7084 39.9493 41.6457 39.9208 41.6287 39.9151C41.4465 39.8582 41.3953 39.8867 41.2928 39.8468H41.2473C41.0538 39.7557 40.6496 39.8127 40.5642 39.8468H40.5187L40.3423 39.9891C40.4618 40.1713 40.3821 40.0574 40.4561 40.268C40.4561 40.2737 40.4618 40.2851 40.4675 40.2908C40.5586 40.5242 40.6155 40.5128 40.7122 40.6779L40.9968 41.1446C41.1221 41.3381 41.1904 41.4292 41.2928 41.6284C41.401 41.7195 41.3099 41.765 41.2473 41.8561C41.1505 41.896 41.0253 41.896 40.9285 41.8561H40.883C40.8147 41.822 40.7179 41.7878 40.6439 41.7537L39.9267 41.3951H39.8812C39.8015 41.3552 39.7332 41.3438 39.6535 41.304L39.5966 41.2698C39.2835 41.1389 39.0957 41.0535 38.9932 41.2869L39.016 41.6227C39.0615 41.7309 39.0274 41.6569 39.0615 41.7081L39.4657 42.4708C39.5055 42.5619 39.4771 42.4936 39.5112 42.5619C39.5112 42.5676 39.5169 42.579 39.5226 42.5847L39.6251 42.7896C39.7161 42.9831 39.7389 42.9262 39.8357 43.0742C40.0804 43.2393 40.126 43.4328 39.904 43.558C39.6364 43.7174 39.4771 43.6491 39.1811 43.5694C39.1754 43.5694 39.164 43.5637 39.1583 43.5637C39.0729 43.541 39.0217 43.5353 38.9192 43.4897H38.8737L38.4923 43.3645C38.2931 43.393 38.3785 43.319 38.407 43.4727L38.7314 44.0191C38.8225 44.1671 38.9819 44.3322 39.1355 44.4118C39.3234 44.5086 39.4884 44.6224 39.6934 44.5371H39.7389H39.7844H39.83H39.8755L39.83 44.5826H39.7844H39.7389C39.6934 44.6168 39.756 44.5826 39.6535 44.6338C39.6535 44.6338 39.5681 44.668 39.5568 44.6737H39.5112L39.238 44.7647L38.424 44.907C38.4126 44.9127 38.4013 44.9184 38.3899 44.9184L38.3216 44.9469C38.2476 44.9981 38.1907 45.038 38.128 45.1177C37.9573 45.334 38.2248 45.1518 38.0028 45.3112L38.2077 45.8861C38.2931 46.0056 38.276 45.9999 38.4126 46.0398L38.5493 45.9032C39.0331 45.5787 38.7769 45.7609 39.2494 45.647L39.3405 45.6186C39.3461 45.6186 39.3575 45.6129 39.3632 45.6129C39.4543 45.5901 39.5852 45.5901 39.6934 45.5389C39.7332 45.6299 39.7901 45.5559 39.5169 45.9145C39.4201 46.0455 39.4543 45.9544 39.4315 46.0796C39.4144 46.1878 39.4201 46.2902 39.4201 46.4097V46.4553L39.5169 46.848C39.5795 47.0074 39.4714 46.8708 39.5909 47.1042C39.6421 47.2066 39.6194 47.1326 39.6307 47.218C39.6535 47.366 39.6023 47.3319 39.7901 47.4571C39.8926 47.2977 39.9723 47.1668 40.0007 47.0131C40.0007 46.996 40.0121 46.9619 40.0178 46.9391C40.1032 46.6944 40.0747 46.626 40.3366 46.4496L40.5813 47.3945C40.5813 47.4002 40.587 47.4116 40.5927 47.4172L40.7293 47.662C40.7635 47.7132 40.7692 47.7246 40.7976 47.7645L40.8204 47.8043C40.8261 47.81 40.8318 47.8214 40.8318 47.8214L40.8602 47.8555C40.8659 47.8612 40.8773 47.8669 40.883 47.8726C40.8887 47.8783 40.9001 47.884 40.9058 47.8897C41.0481 48.0035 41.5774 48.4703 41.64 48.624L41.7482 48.9427C41.7823 49.0395 41.8051 49.0793 41.8222 49.1647L41.9133 50.1267C41.9133 50.2405 41.9019 50.4056 41.919 50.4966C42.0157 51.0203 42.0043 50.508 42.0043 51.3106C42.0043 51.4529 42.01 51.544 42.0043 51.6749L41.9076 52.3295C41.8507 52.5572 41.9645 52.3807 41.8336 52.8247L41.7823 53.0068L42.5849 53.559C42.7614 53.7013 42.8468 54.0656 43.5412 54.2762C43.6209 54.2989 43.6152 54.2989 43.6607 54.316L43.7347 54.3502C43.7404 54.3502 43.7518 54.3559 43.7575 54.3616C43.9339 54.4299 44.0876 54.4071 44.2812 54.3445C44.2868 54.3445 44.2982 54.3388 44.3096 54.3331C44.3153 54.3331 44.3267 54.3274 44.3381 54.3217L44.7991 54.1965C44.9585 54.1737 44.987 54.1851 45.0667 54.1509H45.1122H45.1577H45.2033C45.3 54.1054 45.3968 54.0656 45.4822 54.02C45.6017 53.9574 45.6814 53.929 45.7952 53.8777H45.8408C45.9091 53.8322 45.9148 53.8151 45.9888 53.781C46.1368 53.707 45.966 53.8379 46.1254 53.7127C46.2335 53.6273 46.3189 53.5305 46.3872 53.4281C46.5068 53.3427 46.4271 53.3939 46.4498 53.3484C46.6035 53.0979 46.484 53.2118 46.6035 52.967L46.8312 52.5116C47.0304 52.284 47.2467 52.2953 47.4573 52.1701C47.463 52.1644 47.4744 52.1587 47.4858 52.153L47.6224 52.062L47.7818 51.9481C47.8672 51.8798 47.8785 51.8741 47.9525 51.8001C48.0721 51.6863 48.1518 51.5952 48.2713 51.4814L48.8405 50.73C48.8917 50.6674 48.943 50.6162 48.9771 50.5593L49.0682 50.4056C49.1194 50.3373 49.0796 50.3999 49.1308 50.3373C49.2332 50.2064 49.1479 50.2462 49.2902 50.0868L49.6715 49.5973C49.8138 49.4948 49.6488 49.6144 49.8821 49.3127L49.9903 49.1647C49.9903 49.159 50.0017 49.1476 50.0017 49.1476C50.0131 49.1249 50.0187 49.0907 50.0358 49.0509C50.1269 48.9939 50.1212 49.0053 50.1838 48.9029L50.5367 48.4077C50.605 48.3109 50.6335 48.3052 50.7018 48.2141L50.7758 48.0832C50.8782 47.9238 50.8669 48.0206 51.0262 47.7588C51.0604 47.7018 50.9522 47.7758 51.0889 47.6791L51.1344 47.588C51.3108 47.4685 51.2539 47.4742 51.3165 47.3774C51.3792 47.2749 51.4588 47.2237 51.5328 47.1213L52.0451 46.3699C52.0907 46.2845 52.0679 46.3358 52.1305 46.2561L52.5517 45.6755L52.8135 45.2087C52.8819 45.1233 52.8989 45.1347 52.9615 45.038C53.0697 45.0835 53.1095 45.0493 53.2803 45.129H53.3258C53.7186 45.2941 53.2917 45.0664 53.7072 45.3909L53.878 45.4933L54.0146 45.5844L54.3049 45.7495C54.3106 45.7552 54.3219 45.7609 54.3333 45.7666L54.4358 45.8462C54.3333 45.9202 54.3276 45.9487 54.2195 46.0113L53.969 46.1707L53.8324 46.2618L53.3771 46.535L52.7396 47.1725C52.5802 47.2863 52.7339 47.1782 52.6712 47.2522L52.5062 47.4457C52.5005 47.4514 52.4891 47.4571 52.4834 47.4628L52.1362 47.8498C52.1305 47.8555 52.1191 47.8669 52.1134 47.8726C52.1077 47.8783 52.0964 47.8897 52.0907 47.8954L51.7719 48.2369C51.5727 48.55 51.5841 48.4361 51.4531 48.6297C51.1913 48.8061 51.1458 48.9655 51.0262 49.0793C50.8441 49.2558 50.975 49.2216 50.7701 49.3582L50.4513 49.7794C50.3546 49.9274 50.1724 50.047 50.0586 50.1893L49.8594 50.4283C49.8594 50.434 49.848 50.4397 49.848 50.4454L48.6868 51.8343C48.647 51.8912 48.6697 51.8684 48.6527 51.9026C48.5445 52.1303 48.5445 52.0164 48.3737 52.2669C48.3737 52.2726 48.3624 52.284 48.3624 52.284L48.1176 52.6084C48.1176 52.6141 48.1119 52.6255 48.1062 52.6312C48.1062 52.6369 48.1005 52.6482 48.0948 52.6539C47.9298 52.9898 47.6565 53.0239 47.4459 53.8094C47.4061 53.9517 47.4175 53.8834 47.3947 53.9517L47.2353 54.4925C47.2012 54.5779 47.1955 54.6177 47.1841 54.6632C47.1443 54.7998 47.1158 54.7714 47.0987 54.9364L47.0475 55.1186C47.0077 55.1926 47.0304 55.1357 47.0133 55.1869L46.9849 55.352C46.8995 55.591 46.7458 56.1659 46.6434 56.3253L46.4384 56.7181C46.41 56.7693 46.4214 56.7522 46.3929 56.7978L46.2791 56.923C46.1425 57.0027 46.1766 56.9742 46.0229 56.9913C45.818 57.0084 45.7611 56.9913 45.6586 57.0368H45.6131C45.4993 56.9913 45.5903 56.9913 45.4765 57.0368H45.4366C45.3228 57.0824 45.4139 57.0824 45.3 57.0368H45.2545C45.135 57.088 44.8788 57.0596 44.7422 57.0596C44.617 57.0596 44.3267 57.088 44.2072 57.0368H44.1616C44.0478 56.9913 44.1389 56.9913 44.025 57.0368H43.9795C43.9169 57.0084 43.9567 56.997 43.8827 57.0027C43.7859 57.0084 43.8486 57.0027 43.7973 57.0368C43.5013 56.8945 43.1769 57.0084 43.0232 56.9457H42.9777C42.4995 56.9059 42.4085 56.9059 41.9303 56.9457H41.8848C41.771 56.9913 41.862 56.9913 41.7482 56.9457H41.7027C41.6059 56.9856 41.566 56.9685 41.4807 56.9742C41.3099 56.9799 41.3384 56.9742 41.1505 56.9856L40.513 57.0368C40.3992 56.9913 40.4902 56.9913 40.3764 57.0368H40.3309C40.217 56.9913 40.3081 56.9913 40.1943 57.0368H40.1487C40.0349 56.9913 40.126 56.9913 40.0121 57.0368H39.9666L39.6478 57.1393C39.4771 57.1905 39.3689 57.1848 39.2778 57.219H39.2323C39.1526 57.1848 38.9762 57.1848 38.7314 57.1677C38.5379 57.1563 38.35 57.1563 38.2703 57.1279H38.2248C38.1394 57.0937 38.0427 57.1051 37.8548 57.0824C37.6442 57.0596 37.5304 57.071 37.445 57.0368H37.3995H37.3539H37.3084H37.2629H37.2173C37.0466 56.9628 35.3219 56.9344 35.0714 57.0368H35.0259C34.912 56.9913 35.0031 56.9913 34.8893 57.0368H34.8437C34.764 57.071 34.2176 57.0994 34.0753 57.1051C34.0468 57.1051 33.9785 57.1051 33.9045 57.1108L32.5669 57.1962C32.4075 57.2019 32.1002 57.162 31.9636 57.219H31.918C31.8042 57.1734 31.8952 57.1734 31.7814 57.219H31.7359C31.622 57.1734 31.7131 57.1734 31.5993 57.219H31.5537C31.4399 57.1734 31.531 57.1734 31.4171 57.219H31.3716C31.2577 57.1734 31.3488 57.1734 31.235 57.219H31.1894C31.0756 57.1734 31.1667 57.1734 31.0528 57.219H31.0073H30.9618H30.9162H30.8707H30.8251H30.7796H30.7341H30.6885H30.643C30.5292 57.2645 30.6202 57.2645 30.5064 57.219H30.4608C30.3242 57.2759 29.8916 57.2076 29.5103 57.3157C29.3623 57.3556 29.22 57.3157 29.0435 57.4011H28.998C28.8728 57.4637 28.9411 57.4353 28.7703 57.4523C28.6052 57.4694 28.628 57.4808 28.5426 57.4466C28.5711 57.384 28.5483 57.4068 28.5597 57.367L29.2826 56.3822C29.2883 56.3708 29.2997 56.3481 29.3054 56.3367C29.3395 56.2798 29.2314 56.3538 29.368 56.257L29.5501 55.8927C29.6583 55.6252 29.5786 55.2552 29.4932 54.9706C29.4363 54.7885 29.5558 54.9706 29.4078 54.6974C29.3452 54.5778 29.4477 54.6632 29.3224 54.5722L29.1858 54.4811L29.0549 54.3843L29.368 54.0713L29.459 53.9802L30.0852 53.5077C30.1762 53.4337 30.1819 53.4053 30.2844 53.3427L30.3755 53.2516L30.7967 52.8987C30.8194 52.8759 30.9276 52.7962 30.9504 52.7792C31.1837 52.6255 31.3943 52.5401 31.6619 52.597L31.7302 52.6198C31.7359 52.6198 31.7928 52.6369 31.7985 52.6369C31.8839 52.6482 31.9692 52.6312 32.0717 52.6369C32.3848 52.6596 32.3506 52.7336 32.5726 52.8076L32.7889 52.8873L32.9255 52.9784H32.971L33.1077 53.0695H33.1532H33.1987C33.2898 53.2061 33.2443 53.1548 33.4036 53.2345C33.5118 53.2858 33.5687 53.3028 33.6598 53.3484H33.7053C33.785 53.3882 33.8533 53.3996 33.933 53.4394C34.1379 53.5817 34.5136 53.6444 34.6616 53.7127H34.7071C34.9291 53.8208 35.2365 53.929 35.4243 54.0826L36.1244 54.3502H36.17C36.3009 54.4128 36.244 54.4185 36.409 54.3672C36.5172 54.3331 36.3294 54.3616 36.5457 54.316L37.001 54.2876C37.3425 54.2591 37.5475 54.077 37.7467 53.781C37.7922 53.7127 37.7751 53.7468 37.7865 53.6956C37.7865 53.6956 37.7922 53.6159 37.7979 53.6102L37.8321 53.4964C37.9288 53.1776 37.8947 53.3484 37.8321 53.2516L37.8036 53.2174C37.7979 53.2118 37.7865 53.1833 37.7808 53.1776L37.0636 51.5838C37.0579 51.5724 37.0522 51.544 37.0466 51.5326L36.8644 51.0146C36.8644 51.0089 36.8587 50.9975 36.8587 50.9919L36.7676 50.6845C36.6709 50.2462 36.6652 50.4113 36.7676 50.047L36.8587 49.8307C36.8587 49.825 36.8644 49.8136 36.8701 49.8079L36.8929 49.7624C36.9384 49.677 36.9099 49.7339 36.9441 49.6713C37.0693 49.4208 37.1206 49.159 37.0181 48.9086L36.9327 48.715C36.927 48.7093 36.9213 48.6923 36.9156 48.6866C36.9099 48.6809 36.9043 48.6638 36.8986 48.6581C36.7335 48.2597 36.8815 48.6012 36.7107 48.3223C36.631 48.1914 36.7563 48.3906 36.6766 48.2597C36.5684 48.0718 36.3806 48.0548 36.335 47.9352C36.318 47.8954 36.335 47.8441 36.318 47.7758L36.2383 47.6734C36.2326 47.6677 36.2212 47.662 36.2098 47.6563L36.1187 47.5652C35.8626 47.3945 35.8797 47.1896 35.8683 47.1213L35.8057 46.9846C35.8057 46.979 35.7943 46.9676 35.7943 46.9619C35.6748 46.7171 35.6862 46.8253 35.5723 46.6545C35.4357 46.5577 35.5495 46.6317 35.4755 46.5407C35.356 46.387 35.3105 46.2674 35.0657 46.1024C35.0543 46.0967 35.043 46.0739 35.0373 46.0853C35.0316 46.0967 35.0088 46.0682 34.9803 46.0512C34.9633 46.0398 34.9177 46.017 34.8893 45.9999C34.8722 45.9885 34.6957 45.9088 34.69 45.9088C34.525 45.8576 34.4282 45.9487 34.2859 45.7381C34.1948 45.6926 34.1379 45.6755 34.0355 45.6242C33.0564 45.129 33.0166 45.6413 32.8629 45.8235C32.7035 46.017 32.6409 45.9828 32.4645 46.1024C32.1172 46.3358 32.4758 46.3187 32.1912 46.5122C32.0546 46.4781 32.0717 46.4439 31.8554 46.3016C31.6505 46.165 31.5366 45.9999 31.235 45.7609L31.2008 45.7324C31.1951 45.7267 31.1894 45.721 31.1837 45.7153C31.178 45.7096 31.1667 45.7039 31.1667 45.6982C31.161 45.6926 31.1496 45.6869 31.1439 45.6812L31.0927 45.647L30.6373 45.3738C30.5747 45.334 30.5633 45.3112 30.5064 45.277C30.4324 45.2315 30.3925 45.2258 30.3185 45.1917H30.273L29.9258 45.6242C29.8347 45.7893 29.8689 45.7665 29.9315 46.0455C29.9429 46.091 29.9486 46.091 29.9827 46.1593C29.9884 46.1707 29.9998 46.1935 30.0055 46.2048C30.0567 46.3187 29.9884 46.1593 30.0339 46.2788L30.1136 46.5521C30.1136 46.5634 30.1136 46.5862 30.1193 46.5976L30.1136 46.8936C30.1079 47.0188 30.1535 47.1383 29.9656 47.1042L29.8689 47.0814C29.7209 47.053 29.7095 47.0757 29.59 47.0188H29.5444C29.4477 46.9733 29.3111 46.9619 29.1801 46.922C29.1061 46.8993 29.1289 46.8993 29.0151 46.8708C28.8898 46.8367 28.9866 46.8879 28.8557 46.8367H28.8158C28.7362 46.7968 28.6679 46.7854 28.5882 46.7456H28.5426C28.4516 46.7 28.3662 46.6944 28.2637 46.6602L28.0474 46.6033C28.0417 46.6033 27.9393 46.5805 27.9393 46.5805C27.9336 46.5805 27.9222 46.5748 27.9165 46.5748C27.9108 46.5748 27.8994 46.5691 27.8937 46.5691L27.5864 46.4724H27.5408C27.427 46.4268 27.5181 46.4268 27.4042 46.4724C27.3928 46.4667 27.3814 46.4439 27.3758 46.4553L27.2619 46.4097C27.1538 46.3756 27.3018 46.4496 27.131 46.3813H27.0855L26.5504 46.2731C26.5504 46.2731 26.4536 46.2504 26.4423 46.2504C26.3 46.2219 26.3113 46.239 26.2203 46.1991H26.1747C26.021 46.1365 26.0097 46.2276 25.7649 46.1081H25.7194C25.6226 46.0682 25.4063 46.0568 25.3095 46.017H25.264C25.1672 45.9772 25.1103 45.9942 24.9737 45.9772C24.9225 45.9715 24.8371 45.9601 24.7973 45.9544C24.7005 45.943 24.82 45.9658 24.7062 45.943C24.6208 45.9259 24.6834 45.9544 24.6208 45.9202C24.5127 45.9658 24.4273 45.8918 24.0801 45.7779L24.0345 45.7267C24.0231 45.721 24.0004 45.7153 23.989 45.7096L23.9434 45.6926C23.9378 45.6926 23.9264 45.6869 23.9207 45.6869L22.6514 45.334H22.6058L22.1049 45.1518H22.0594C21.9797 45.112 21.9114 45.1006 21.8317 45.0607H21.7862L21.5471 44.981C21.5414 44.981 21.5243 44.9754 21.5129 44.9697C21.3365 44.8957 21.5072 44.981 21.3536 44.9355L21.2113 44.8786C21.2056 44.8786 21.1942 44.8729 21.1885 44.8672C21.1828 44.8672 21.1714 44.8615 21.1657 44.8615C21.0576 44.8274 20.8868 44.7761 20.7502 44.7363L20.2038 44.5541C20.033 44.4972 20.1753 44.5769 20.0159 44.5086H19.9704C19.8793 44.4631 19.8167 44.4574 19.7541 44.4403L19.2133 44.2582C19.202 44.2525 19.1849 44.2468 19.1792 44.2468C19.1735 44.2468 19.1564 44.2411 19.145 44.2354C19.0483 44.1898 18.9117 44.1785 18.7808 44.1386C18.7068 44.1159 18.7295 44.1159 18.6157 44.0874C18.4905 44.0532 18.5872 44.1045 18.4563 44.0532H18.4108C18.3311 44.0134 18.2628 44.002 18.1831 43.9622H18.1375L17.8985 43.8825C17.8928 43.8825 17.8757 43.8768 17.8643 43.8711L16.7202 43.689H16.6747C16.5267 43.6206 16.5438 43.6833 16.447 43.5637L16.3047 43.2677C16.1681 43.0116 16.2933 43.1425 16.2193 42.9604L16.1283 42.9091C16.1226 43.097 16.1283 43.0514 16.0372 43.1425C15.9404 43.1824 16.0372 43.171 15.9632 43.1425C15.8949 43.1141 15.7526 42.8351 15.707 42.7156C15.6672 42.6132 15.7355 42.653 15.5761 42.5448C15.8892 42.0781 15.5078 42.4424 15.7697 42.1464C15.838 42.0667 15.838 42.0895 15.9006 41.9984C15.781 41.9472 15.5363 41.9529 15.3541 42.0439H15.3086C15.1777 42.1293 14.95 42.3399 14.876 42.4879L14.8305 42.579C14.728 42.7782 14.802 42.7327 14.7394 42.8465C14.6825 42.949 14.7223 42.9205 14.6199 42.9547H14.5743C14.4946 42.9205 14.3694 42.9091 14.1645 42.9091L14.3466 43.5466L13.7774 43.7516C13.675 43.8028 13.6124 43.8256 13.527 43.8654L13.0716 44.1386H13.0261L12.6219 44.372C12.548 44.4061 12.5081 44.4289 12.4057 44.4801C12.3715 44.4972 12.3487 44.5086 12.3146 44.5257C12.3032 44.5314 12.269 44.5541 12.2577 44.5598L12.2007 44.594L11.9844 44.6908C11.9787 44.6908 11.9674 44.6964 11.9617 44.6964L11.2786 44.9241C11.2729 44.9241 11.2615 44.9298 11.2559 44.9298C11.2502 44.9298 11.2388 44.9355 11.2331 44.9355L11.1876 44.9526C11.1022 44.981 11.1876 44.9526 11.0908 44.9754C11.0225 44.9924 10.9656 45.0038 10.8745 45.0437H10.829C10.7493 45.0835 10.681 45.0949 10.6013 45.1347H10.5557C10.4191 45.203 10.4305 45.1347 10.0321 45.3396C9.91822 45.3966 9.89545 45.4079 9.78731 45.4592L9.58239 45.573C9.5767 45.5787 9.56532 45.5844 9.55393 45.5901L9.46286 45.6812L8.69443 46.3756C8.68874 46.3813 8.67735 46.3927 8.67166 46.3984L8.29599 46.8822C8.24476 46.9448 8.38137 46.848 8.22768 46.9619C8.17076 47.0473 8.2163 46.9676 8.17076 47.0416L8.11384 47.1497C8.11384 47.1554 8.10815 47.1668 8.10246 47.1725L8.07969 47.218C7.98862 47.3945 8.01138 47.3262 8 47.6335L8.02846 48.4247C8.06261 48.5898 8.11384 48.3906 8.03984 48.5727L8.18215 49.085C8.18215 49.0907 8.18784 49.1021 8.19353 49.1078C8.24476 49.2216 8.26753 49.3241 8.3586 49.3924C8.37568 49.5859 8.34152 49.455 8.46106 49.6371L8.52936 49.7225C8.9278 50.2348 8.77981 49.9217 9.2181 50.3657C9.2864 50.434 9.30917 50.4568 9.38317 50.5194L9.51409 50.6162C9.51978 50.6219 9.53685 50.6276 9.54255 50.6333L9.59947 50.6674L10.8688 51.2309C11.0908 51.2708 11.4095 51.2594 11.4949 51.3334C11.7283 51.5155 11.4665 51.4415 11.6543 51.5838C11.6714 51.618 11.6828 51.6863 11.6828 51.6863L11.9503 52.2327C11.9787 52.3921 11.882 52.2441 12.0186 52.449V52.4946C12.0755 53.1435 12.2121 52.8702 12.0584 53.6273C12.0357 53.7354 12.0527 53.707 12.0243 53.798L11.5689 54.8738C11.4722 54.9991 11.3754 55.0503 11.2843 55.1869C11.2445 55.2552 11.2729 55.1755 11.2445 55.2894C11.1762 55.5455 11.2729 55.3975 11.1591 55.5683C11.1022 55.6593 11.0908 55.648 11.0509 55.7618C10.9826 55.9496 11.1363 55.7959 10.9656 55.9155C10.9542 56.0692 10.8916 56.3595 11.1022 56.5075L11.2843 56.6896L11.3754 56.7807L12.1495 57.4523L12.5707 58.0386C12.5764 58.0443 12.5821 58.0557 12.5821 58.0614L12.9122 58.494C12.9122 58.4997 12.9236 58.5054 12.9236 58.5111V58.6704C12.8269 58.7103 12.787 58.7103 12.6959 58.6704H12.6504H12.6049H12.5593C12.4398 58.6135 12.1723 58.6135 12.0698 58.6021C11.9503 58.5907 11.8649 58.5851 11.6941 58.6704H11.6486C11.2217 58.8754 11.3925 58.8981 11.1705 59.0746L10.9656 59.2169L10.829 59.3079C10.6696 59.4161 10.7436 59.4218 10.5273 59.5072C10.3793 59.5698 10.2711 59.6096 10.1459 59.6722H10.1004L9.73038 59.8259C9.47993 59.8942 9.52547 59.8658 9.37748 60.139C9.27502 60.3268 9.24656 60.7367 9.36609 60.8846L9.61654 61.3514C9.62793 61.3742 9.62793 61.3685 9.6507 61.4197C9.70762 61.5392 9.67346 61.5335 9.82715 61.636L9.91822 61.7271C9.92961 61.7328 9.94099 61.7271 9.94668 61.7441L10.0321 61.7954C10.1174 61.8523 10.0719 61.8295 10.1345 61.8751C10.2711 61.9775 10.2313 61.932 10.3736 62.0003C10.4134 62.0288 10.385 62.0117 10.459 62.0515L11.0509 62.2337C11.0623 62.2394 11.0737 62.2394 11.0851 62.245L11.1477 62.2735H11.1932H11.2388L11.8194 62.4613C11.8251 62.4613 11.8364 62.467 11.8421 62.467C11.8478 62.467 11.8592 62.4727 11.8649 62.4727C11.9503 62.4955 12.0015 62.5012 12.104 62.5467H12.1495C12.2577 62.5923 12.2975 62.5581 12.4683 62.6378H12.5138C12.6789 62.7175 12.8952 62.6776 13.0147 62.7289H13.0602H13.1058H13.1513C13.2765 62.7801 13.453 62.763 13.601 62.8086L15.024 63.2753H15.0695L15.4224 63.355C15.4281 63.355 15.4395 63.3607 15.4452 63.3607C15.7867 63.4631 16.3844 63.4119 16.7544 63.3948C16.7658 63.3948 16.8853 63.3891 16.9024 63.3891C16.9707 63.3891 17.0618 63.3948 17.1357 63.3778L17.3691 63.3322C17.4374 63.3265 17.631 63.2867 17.6765 63.2696H17.722H17.7676H17.8131C17.9099 63.2241 18.3083 63.1842 18.4051 63.1785H18.4506C18.5645 63.133 18.4734 63.133 18.5872 63.1785H18.6328C18.8035 63.0989 19.6687 63.0249 19.8566 63.0135C20.1127 63.0021 20.2778 63.0078 20.5111 63.0306C20.6534 63.0419 21.0746 63.0989 21.1885 63.1729C21.3023 63.1273 21.234 63.1672 21.4959 63.2412C21.5016 63.2412 21.5129 63.2468 21.5186 63.2468L21.9057 63.3721C21.9341 63.3778 22.0025 63.3948 22.0765 63.4062L22.2358 63.4518C22.2814 63.4688 22.3781 63.5144 22.4237 63.5315H22.4692L23.0099 63.6111C23.1579 63.6111 23.4539 63.6111 23.6133 63.5315H23.6588H23.7044H23.7499C23.9207 63.4518 23.9605 63.4859 24.0687 63.4404H24.1142C24.228 63.3948 24.1882 63.4347 24.3476 63.3948C24.6777 63.3208 24.4216 63.2639 24.6151 63.3493H24.6606C24.6891 63.3379 24.7403 63.3152 24.7574 63.3095C24.8428 63.2639 24.7973 63.2867 24.8428 63.2582H24.8883H24.9339C24.9623 63.2468 25.0136 63.2241 25.0306 63.2184C25.116 63.1729 25.0705 63.1956 25.116 63.1672C25.3038 63.0419 25.1843 63.1387 25.3437 63.0761H25.3892C25.5031 63.1216 25.412 63.1216 25.5258 63.0761H25.5714C25.6852 63.1216 25.5941 63.1216 25.708 63.0761H25.7535C25.8674 63.1216 25.7763 63.1216 25.8901 63.0761H25.9357C26.1121 63.0021 26.9659 62.8996 26.983 62.8939H27.0285H27.0741H27.1196C27.1765 62.8712 27.3985 62.8484 27.6205 62.8484C27.9051 62.8427 28.7988 62.8256 29.0094 62.8769C29.0151 62.8769 29.0264 62.8826 29.0321 62.8826L29.3737 62.9679C29.3794 62.9679 29.3964 62.9736 29.4078 62.985C29.516 63.0306 29.5558 62.9964 29.7266 63.0761H29.7721C29.8006 63.0875 29.8518 63.1102 29.8689 63.1159C29.9543 63.1615 29.9087 63.1387 29.9543 63.1672C30.125 63.2468 30.1649 63.2127 30.273 63.2582L30.4039 63.3095C30.4153 63.3152 30.4267 63.3208 30.4381 63.3208C30.4495 63.3265 30.4608 63.3322 30.4722 63.3322C30.4779 63.3322 30.495 63.3379 30.5064 63.3436C30.6088 63.3038 30.7455 63.3607 30.9219 63.3835L31.2236 63.4233C31.3773 63.4518 31.1894 63.5087 31.3716 63.429H31.4171C31.5025 63.4688 31.5765 63.4631 31.6391 63.4631C31.7985 63.4631 31.77 63.4575 31.8896 63.4688C32.1514 63.4859 32.362 63.4802 32.4701 63.5258H32.5157L33.1987 63.7079H33.2443H33.2898H33.3353C33.5118 63.7933 33.785 63.7421 33.9615 63.7876C33.9728 63.7876 33.9956 63.799 34.007 63.799L34.9177 63.8616C35.1283 63.8616 35.9764 63.8274 36.1187 63.8844H36.1643C36.2781 63.8388 36.1871 63.8388 36.3009 63.8844H36.3464C36.4603 63.8388 36.3692 63.8388 36.483 63.8844H36.5286C36.6424 63.8388 36.5513 63.8388 36.6652 63.8844H36.7107C36.8246 63.8388 36.7335 63.8388 36.8473 63.8844H36.8929C37.0067 63.8388 36.9156 63.8388 37.0295 63.8844H37.075C37.1889 63.8388 37.0978 63.8388 37.2116 63.8844H37.2572C37.371 63.8388 37.2799 63.8388 37.3938 63.8844H37.4393C37.5531 63.8388 37.4621 63.8388 37.5759 63.8844H37.6215C37.7353 63.8388 37.6442 63.8388 37.7581 63.8844H37.8036C37.9174 63.8388 37.8264 63.8388 37.9402 63.8844H37.9857L42.01 63.7307C42.4312 63.7307 43.2907 63.6282 43.5697 63.9641C43.6436 64.0494 43.6038 64.0267 43.6209 64.0551L43.7233 64.2145C43.9112 64.4194 43.9055 64.3682 44.0933 64.4194C44.2015 64.4536 44.1446 64.4479 44.321 64.482C44.4519 64.5048 44.4121 64.4763 44.5202 64.5162H44.5658C44.6796 64.5617 44.8219 64.5389 44.93 64.6073C45.152 64.5162 44.8333 64.5902 45.1919 64.63C45.2716 64.6414 45.4708 64.6756 45.522 64.6983H45.5676H45.6131H45.6586C45.8237 64.778 46.04 64.7382 46.1595 64.7894H46.2051C46.3644 64.7211 46.2506 64.7837 46.3815 64.8008C46.3929 64.8008 46.4612 64.8065 46.4669 64.8065L48.7267 64.8577C48.8234 64.8634 48.8746 64.8349 48.9885 64.8805H49.034C49.1479 64.8349 49.0568 64.8349 49.1706 64.8805H49.2162H49.2617H49.3072C49.4211 64.926 49.33 64.926 49.4439 64.8805H49.4894C49.6032 64.926 49.5122 64.926 49.626 64.8805H49.6715C49.7911 64.926 49.7341 64.8919 49.8423 64.9032C49.9163 64.9089 49.9334 64.9203 50.0415 64.9431C50.1212 64.9545 50.1326 64.9431 50.2066 64.9488C50.309 64.9545 50.218 64.9431 50.2977 64.9602L50.3887 64.9886C50.4912 65.0114 50.605 64.9886 50.7132 65L53.36 64.9715C53.4454 64.9602 53.2917 64.9032 53.4624 64.9715H53.508C53.6218 64.926 53.5307 64.926 53.6446 64.9715H53.6901C53.7983 64.926 53.9975 64.9488 54.1626 64.9374C54.3106 64.926 54.413 64.9146 54.4927 64.9146C54.6293 64.9146 54.6521 64.9203 54.7375 64.8862H54.783C54.9936 64.9715 54.8001 64.8008 55.0107 64.8862H55.0562C55.1701 64.8406 55.8303 64.8406 56.1036 64.8235C56.1832 64.8179 56.1776 64.8122 56.2345 64.8008C56.3939 64.7666 56.1946 64.7154 56.3825 64.7894H56.428C56.6215 64.6983 58.6365 64.7552 59.0862 64.7609C59.2114 64.7609 59.6212 64.7325 59.718 64.7894C59.8148 64.7496 59.94 64.7496 60.0368 64.7894H60.0823C60.1791 64.7496 60.3043 64.7496 60.4011 64.7894H60.4466C60.5434 64.7496 60.6686 64.7496 60.7653 64.7894H60.8109C60.919 64.7439 61.3346 64.7666 61.4939 64.6983H61.5395C61.6305 64.7325 61.6248 64.6756 61.8924 64.6756C61.9948 64.6756 62.1371 64.6585 62.3705 64.6357C62.5242 64.6186 62.6494 64.6471 62.8543 64.6016C62.86 64.6016 62.8714 64.5959 62.8771 64.5959L63.1389 64.6073H63.1845C63.2812 64.5674 63.4065 64.5674 63.5032 64.6073H63.5488C63.6455 64.5674 63.7708 64.5674 63.8675 64.6073H63.9131C64.2204 64.4593 64.6303 64.5788 64.7782 64.5162H64.8238H64.8693H64.9149C65.0287 64.4706 64.9376 64.4706 65.0515 64.5162H65.097C65.2279 64.4649 65.9793 64.4763 66.2809 64.4422C66.6282 64.4023 67.9146 64.3568 68.1593 64.243H68.2049C68.2732 64.2145 68.4098 64.2031 68.5122 64.1747C68.5179 64.1747 68.5293 64.169 68.535 64.169C68.8367 64.0836 68.9391 64.1348 69.1497 64.0893L70.3849 63.7705C70.4874 63.7477 70.6524 63.725 70.7151 63.7022H70.7606C70.8574 63.6624 70.8289 63.6851 70.9541 63.6624L71.6315 63.5201H71.677H71.7226H71.7681C71.9332 63.4404 72.1495 63.4802 72.269 63.429H72.3145C73.3049 63.3436 73.5725 63.3664 74.5857 63.3607L75.2516 63.429C75.3712 63.4518 75.1947 63.503 75.3768 63.429H75.4224C75.6387 63.5315 76.2591 63.4347 76.4697 63.5201H76.5153C76.6974 63.4461 76.5153 63.4973 76.6405 63.5201C76.6462 63.5201 76.6576 63.5258 76.6633 63.5258L77.4374 63.6054C77.5626 63.6282 77.3748 63.6851 77.5626 63.6054H77.6081C77.722 63.651 77.6309 63.651 77.7447 63.6054H77.7903C77.944 63.6681 79.1848 63.6681 79.441 63.6681C79.6004 63.6681 80.8128 63.6965 81.0291 63.6054H81.0746C81.2454 63.5941 81.6381 63.5656 81.7576 63.5144H81.8032C82.0252 63.4062 82.5033 63.4916 82.6684 63.4233H82.7139C82.8164 63.4631 82.9074 63.4461 83.0839 63.4518C83.1863 63.4575 83.5279 63.4518 83.6303 63.5144H83.6759H83.7214C83.8694 63.577 84.2735 63.5656 84.4614 63.5827C84.4727 63.5827 84.4955 63.5884 84.5069 63.5884C84.6321 63.6111 84.5126 63.6738 84.6777 63.6054L84.746 63.6339C84.7517 63.6339 84.7687 63.6453 84.7801 63.6453C84.9736 63.7022 84.9281 63.6453 85.2583 63.7136L86.0153 63.7876C86.1178 63.8161 85.9811 63.799 86.1291 63.8161L87.2619 63.8559C87.5351 63.8559 87.5237 63.8787 87.7741 63.7933L87.8254 63.7762C87.8709 63.7648 88.0189 63.7477 88.1157 63.7307L88.9809 63.5201H89.0264H89.0719H89.1175L90.2559 63.1444C90.273 63.1387 90.2616 63.133 90.347 63.1045C90.512 63.0476 90.3925 63.133 90.5291 63.0476C91.0528 62.7289 90.5576 62.5297 90.8422 62.228L91.03 62.154C91.1837 62.1084 91.2178 62.1084 91.178 61.9491C91.0698 61.4937 90.4949 61.6132 90.0453 61.5734L89.5785 61.4595H89.533L89.4419 61.3685C89.2313 61.2262 89.1744 60.9473 89.237 60.7082L89.2598 60.6513C89.3167 60.4862 89.2541 60.4691 89.2996 60.1788C89.3281 60.0195 89.3565 59.9739 89.3053 59.8942C89.2313 59.769 89.1801 59.8088 89.0378 59.7633C89.0321 59.7633 89.015 59.7576 89.0093 59.7519C89.0036 59.7519 88.9865 59.7462 88.9809 59.7405C88.7873 59.6665 88.6792 59.5869 88.5312 59.3649C88.3946 59.2681 88.4856 59.234 88.4629 59.0746C88.4515 58.9949 88.4287 58.9493 88.3946 58.8754L88.3661 58.8014C88.2181 58.4029 87.8311 58.4712 87.5692 58.3631H87.5237C87.4383 58.3289 87.3529 58.3403 87.1992 58.3232C86.9317 58.2948 86.9659 58.2891 86.7496 58.272H86.704C86.6187 58.2378 86.4877 58.2321 86.2714 58.2094C86.1291 58.198 86.0495 58.2265 85.9242 58.1809H85.8787C85.7933 58.1468 85.6965 58.1582 85.5087 58.1354C85.2981 58.1126 85.1843 58.124 85.0989 58.0898H85.0533C84.9737 58.0557 84.7972 58.0557 84.5524 58.0386C84.3589 58.0272 84.1711 58.0272 84.0914 57.9988H84.0459C83.9263 57.9475 83.4368 57.976 83.2717 57.9077H83.2262C83.0384 57.9874 83.2376 57.9305 83.0782 57.8963L82.5204 57.8451C82.3325 57.828 82.0422 57.8735 81.8999 57.8109H81.8544L81.7633 57.7199C81.399 57.4751 81.4958 57.3783 81.3307 57.2417C81.3194 57.236 81.2909 57.219 81.2852 57.2076L81.251 57.1734C81.1315 57.0368 81.2567 56.9913 80.8981 56.8034L80.8412 56.7693C80.6705 56.6611 80.9266 56.8433 80.7843 56.7351C80.6932 56.6668 80.7331 56.7067 80.6705 56.6213L80.4883 56.4392L80.3062 56.257C80.1582 56.1489 80.1639 56.109 80.124 55.9781L79.811 54.834C79.7825 54.6974 79.7882 54.7771 79.7825 54.6689C79.754 54.1396 79.8223 54.3046 79.8679 54.0599C79.8963 53.929 79.8394 53.9176 79.9419 53.7013V53.6557C79.9533 53.5191 79.9533 53.5021 79.959 53.4337C79.9703 53.2971 79.8963 53.3882 80.033 53.2914C80.0614 53.3142 80.1013 53.3541 80.2037 53.3484L80.4029 53.2914C80.4029 52.9215 80.4314 52.8133 80.42 52.6596C80.3859 52.3124 80.4655 52.3466 80.568 52.1872C80.6078 52.1303 80.5908 52.1473 80.6022 52.1189C80.6078 52.1075 80.6192 52.0847 80.6192 52.0733L80.6761 51.9595C80.8754 51.5895 80.8185 51.8286 81.0803 51.1968C81.1884 51.1171 81.1827 50.9805 81.4218 50.8097L81.4901 50.7642C81.4958 50.7585 81.5015 50.7528 81.5072 50.7471L81.5755 50.6446C81.6552 50.4966 81.6267 50.4682 81.7633 50.3771C81.7861 50.3202 81.7747 50.3316 81.7804 50.3031L82.4919 49.2842C82.6285 48.9541 82.4976 49.2501 82.6968 48.9427L82.7651 48.8289C82.8107 48.7606 82.8221 48.7549 82.8676 48.6809C82.9473 48.5443 82.8277 48.7378 82.9017 48.6183C82.9814 48.4874 83.1237 48.2597 83.2262 48.1914C83.4539 47.6449 83.0213 48.419 83.3913 47.9068C83.4311 47.8498 83.5165 47.6392 83.6645 47.514C83.8922 47.3148 84.0345 47.0586 84.1881 46.7911L84.2109 46.7456C84.2109 46.7399 84.2223 46.7285 84.2223 46.7228L84.3418 46.3756C84.3703 46.2219 84.2963 46.3585 84.4215 46.1251C84.4215 46.1195 84.4329 46.1081 84.4329 46.1024C84.4329 46.0967 84.4386 46.0853 84.4443 46.0796L84.5411 45.869C84.5752 45.5958 84.4784 44.9412 84.3646 44.6224L84.2052 44.3037C84.1995 44.2923 84.1825 44.2638 84.1768 44.2582L84.0857 44.076C84.0857 44.0703 84.08 44.0589 84.0743 44.0532C84.0743 44.0476 84.0686 44.0362 84.0629 44.0305L83.71 43.2336C83.71 43.2279 83.6872 43.1425 83.6702 43.0913L83.562 42.8408C83.562 42.8351 83.5506 42.8238 83.5506 42.8181L82.7538 41.6227L82.361 41.2983L82.2415 41.2015C82.2358 41.1958 82.2301 41.1901 82.2244 41.1844L82.1618 41.1332C82.1561 41.1275 82.1447 41.1218 82.139 41.1161C81.9398 40.9795 81.9682 40.9055 81.621 40.6779L81.2738 40.3876L81.0917 40.2054C81.0291 40.0688 81.0404 40.0574 80.9551 39.9322C80.8469 39.8525 80.9095 39.8923 80.8924 39.8525C80.7957 39.6761 80.8355 39.5508 80.7274 39.4768C80.5339 39.0158 80.42 38.9304 80.4314 38.6686C80.4371 38.4693 80.4371 38.5661 80.3176 38.384C80.0557 38.1961 80.4428 38.3896 80.1809 38.2018C80.1468 38.1563 80.1297 38.1392 80.1069 38.0994C80.1012 38.088 80.0899 38.0595 80.0842 38.0538C79.9533 37.792 79.9874 37.9343 79.8622 37.7464L79.7142 37.5301C79.5434 37.3309 79.293 37.0691 79.0881 36.9268L78.9059 36.7446L78.7067 36.5796C78.701 36.5739 78.6839 36.5682 78.6782 36.5625C78.5416 36.4714 78.4904 36.369 78.3652 36.2836C78.257 36.2096 78.2912 36.2608 78.166 36.1641C78.0806 36.0957 78.092 36.0787 77.9952 36.0161L77.8586 35.925L77.7675 35.8339C77.6707 35.7713 77.6821 35.7542 77.5967 35.6859L77.0389 35.2875C76.9763 35.2476 76.9649 35.2249 76.908 35.1907C76.834 35.1452 76.7942 35.1395 76.7202 35.1053H76.6746C76.6006 35.0712 76.5551 35.0655 76.4868 35.02C76.4128 34.9687 76.39 34.9232 76.3217 34.8663C76.2022 34.7638 76.0428 34.7183 75.9005 34.65H75.855C75.7753 34.6101 75.559 34.5703 75.4452 34.5589H75.3996C75.3199 34.519 75.2516 34.5077 75.1719 34.4678H75.1264C75.0182 34.4223 74.8759 34.4507 74.7166 34.3767H74.671C74.5743 34.3312 74.4377 34.3255 74.3637 34.3084L72.2974 34.1491L72.3601 33.3863C72.3601 33.3806 72.3658 33.3693 72.3658 33.3636C72.4398 33.1074 72.417 33.1074 72.2974 32.9196C72.1779 32.8399 72.2234 32.8285 72.0811 32.7773C72.0242 32.7545 71.9275 32.7488 71.7965 32.7374H71.751C71.2387 32.4927 71.6542 32.635 71.4436 32.0942C71.4436 32.0885 71.4379 32.0715 71.4323 32.0658L71.2786 31.7413C71.2786 31.7356 71.2444 31.6787 71.2444 31.673L70.9769 31.4567H70.9314C70.9143 31.451 70.8403 31.4169 70.8346 31.4169C70.4361 31.229 70.0662 31.3201 69.6393 31.3941C69.514 31.4169 69.3148 31.4283 69.2408 31.4624H69.1953C69.1099 31.5023 69.1384 31.4966 69.0131 31.508C69.0928 31.3201 68.9562 31.4112 69.1042 31.1892V31.1437C69.2237 30.8534 69.0644 30.4777 69.0416 30.3809C68.9961 30.1931 69.0131 30.0736 68.8765 29.7036C68.8594 29.658 68.8651 29.6694 68.8538 29.6239C68.8481 29.6011 68.8367 29.5556 68.8082 29.4816C68.757 29.3507 68.7855 29.4645 68.7627 29.3507L68.7456 29.2141C68.7456 29.2084 68.7399 29.197 68.7399 29.1913C68.7342 29.123 68.6545 29.1742 68.8025 29.1116C68.8139 29.1059 68.8082 29.1287 68.8708 29.0774C68.9733 28.9978 69.0416 28.5367 69.0416 28.3944C69.0416 27.5577 68.7342 27.8992 68.8196 27.1137C68.8424 26.8917 68.8481 26.8575 68.8538 26.7437C68.8538 26.7266 68.8538 26.6356 68.8651 26.5729C68.8822 26.442 68.9334 26.5388 68.8765 26.3965V26.351C68.9107 26.2713 68.905 26.2485 68.905 26.1802L68.8765 25.998C68.8765 25.9867 68.8822 25.9639 68.8822 25.9525C68.8822 25.9468 68.8822 25.9354 68.8822 25.9297L68.8708 25.8102C68.8424 25.5484 68.8993 25.5882 68.8025 25.3435L68.7513 25.2239C68.5862 24.8995 68.7228 25.0987 68.6716 24.9109L68.5748 24.6149C68.5748 24.6092 68.5692 24.5978 68.5692 24.5921C68.4382 24.1766 68.5236 24.5352 68.4952 24.1311L68.4155 23.744C68.4155 23.7383 68.4098 23.7269 68.4098 23.7212L68.3529 23.6074C68.3472 23.6017 68.3415 23.5903 68.3415 23.5846L68.3187 23.5391C68.3187 23.5334 68.3073 23.4765 68.2902 23.4366C68.1935 23.3683 68.2504 23.4195 68.1992 23.2829L67.9316 22.6739C67.778 22.2925 67.943 22.2754 67.7267 21.9965C67.6584 21.9055 67.6243 21.8998 67.556 21.7973C67.4934 21.7575 67.482 21.7347 67.4251 21.7005C67.3511 21.655 67.3112 21.6493 67.2372 21.6152L67.1803 21.581C67.1632 21.5696 67.0949 21.5525 67.0095 21.433C66.9469 21.3932 66.9185 21.3704 66.8558 21.3135C66.8502 21.3078 66.8388 21.2964 66.8331 21.2907C66.8274 21.285 66.816 21.2736 66.8103 21.2679L66.3265 20.8866C66.3151 20.8809 66.3037 20.8638 66.298 20.8695C66.2809 20.9037 65.7004 20.3857 65.6491 20.2149C65.6207 20.1182 65.6321 20.1921 65.6377 20.1238C65.6377 20.1182 65.689 19.9474 65.7061 19.8962L65.7516 19.7539C65.7516 19.7425 65.7573 19.7197 65.7573 19.7083L65.7971 19.6116C65.8028 19.6059 65.8142 19.6002 65.8199 19.5945C65.8256 19.5888 65.8427 19.5831 65.8427 19.5774C65.8484 19.5717 65.8597 19.566 65.8711 19.5603L66.6452 19.2757C66.6509 19.27 66.668 19.2643 66.6737 19.2643C66.7534 19.2302 66.7705 19.2245 66.8331 19.196H66.8786C66.9241 19.1733 67.0209 19.1334 67.0664 19.1107L67.7438 18.8317C67.8576 18.661 68.0512 18.4902 67.9886 18.2341C67.9373 18.0235 67.8861 18.0633 67.7438 17.9666C67.4307 17.7559 67.6983 17.682 67.3112 17.4884C67.0494 17.3575 67.26 17.4201 66.8729 17.238L66.7818 17.1469H66.7363C66.6111 17.0615 66.5883 16.9989 66.4574 16.9249L65.3702 16.5094C65.2052 16.4012 65.2336 16.3785 65.1938 16.2931C65.1482 16.1963 65.1881 16.2817 65.1368 16.1906C65.1312 16.1849 65.1255 16.1679 65.1198 16.1622C64.801 15.6214 65.0799 16.1906 64.8295 15.5588C64.8295 15.5531 64.7839 15.4564 64.7839 15.4507C64.727 15.3425 64.7384 15.3596 64.6758 15.2628L64.5449 15.1376L64.4083 15.0465H64.3343C64.2603 15.0124 64.1863 15.001 64.1066 15.001C63.8903 14.9896 63.6683 15.0807 63.5601 15.0351ZM59.9058 32.6521C59.8319 32.4699 59.8831 32.6464 59.9058 32.5268L59.9343 32.4244C59.94 32.3959 59.9514 32.3048 59.9628 32.2764C60.0425 32.0658 60.0368 32.3048 60.162 32.043C60.162 32.0373 60.1677 32.0259 60.1734 32.0202C60.1734 32.0145 60.1791 32.0032 60.1848 31.9975L60.2303 31.9064C60.2303 31.9007 60.236 31.8893 60.2417 31.8836C60.2417 31.8779 60.2474 31.8666 60.2531 31.8609C60.2531 31.8552 60.2588 31.8438 60.2644 31.8381L60.3214 31.7356C60.5604 31.7356 60.3897 31.7356 60.458 31.7812C60.6117 31.8836 60.5149 31.8495 60.7369 31.8438C61.1183 31.8381 61.6078 31.8779 61.8355 31.7413L61.9208 31.6901C62.1087 31.5649 61.9891 31.6616 62.1485 31.599C62.1941 31.7072 62.1997 31.6332 62.0062 31.9576C61.9891 31.9861 61.9834 31.9975 61.955 32.043C61.6078 32.6634 61.9379 32.4415 61.3459 32.4927C61.0727 32.5154 61.1069 32.5098 60.919 32.6065C60.68 32.7317 59.9798 32.6805 59.9058 32.6521ZM39.8641 44.5598C39.9267 44.5143 39.7674 44.5143 40.0007 44.5143C39.9438 44.5598 40.052 44.5428 39.8641 44.5598ZM51.8288 45.1518L51.0035 46.239C50.9978 46.2447 50.9864 46.2561 50.9807 46.2618C50.9579 46.2902 50.9579 46.2845 50.9409 46.313L50.753 46.5919C50.753 46.5976 50.7416 46.609 50.7416 46.609C50.7416 46.6147 50.7303 46.6204 50.7303 46.626C50.7303 46.6317 50.7189 46.6374 50.7189 46.6431L50.3717 47.1554C50.218 47.2692 50.3546 47.1668 50.3034 47.2351L49.4552 48.402C49.3983 48.4874 49.3414 48.5215 49.2731 48.6183C49.1194 48.7321 49.256 48.6297 49.2048 48.698L49.1023 48.8346C49.0625 48.8972 49.0625 48.8915 49.0169 48.9541L48.7267 49.3469L48.1802 50.0754L48.0493 50.2348C47.9924 50.3145 48.0208 50.3316 47.8615 50.4397L47.4516 50.804C47.3719 50.8609 47.4459 50.8154 47.3719 50.8609C47.2979 50.9122 47.3207 50.8951 47.2581 50.9292C47.1727 50.9748 47.2296 50.9406 47.1443 50.9975C47.093 51.0317 47.093 51.0374 47.0418 51.0772H46.9963C46.8141 51.2025 46.723 51.3391 46.5295 51.3789C46.2905 51.4301 46.2563 51.3049 46.3189 51.0829C46.3417 51.0146 46.3417 51.0203 46.3701 50.9179L46.4897 50.5422C46.4897 50.5365 46.4954 50.5251 46.5011 50.5194L46.9109 49.3013C46.9621 49.1818 46.9109 49.233 46.9792 49.0509C46.9849 49.0395 46.9963 49.0053 47.002 48.9939L47.0532 48.8744C47.0532 48.8744 47.093 48.8004 47.0987 48.8004V48.7549C47.1955 48.5215 47.0304 48.0661 47.167 47.8612L47.3321 47.6051C47.3606 47.5425 47.3378 47.5994 47.3663 47.5368L47.6509 47.0586C47.7192 46.9334 47.6053 47.0814 47.7248 46.922C47.9412 46.6204 47.7818 46.831 47.8785 46.6147L48.0721 46.2219C48.0891 46.1935 48.0835 46.2162 48.1062 46.1536C48.2144 45.8633 48.1518 45.5104 48.2827 45.2429C48.3225 45.1632 48.3396 45.0949 48.4477 45.0152C48.5559 44.9298 48.4876 44.9924 48.5616 44.9526C48.6925 44.89 48.7153 44.8274 49.0283 44.6851C49.182 44.6168 49.0511 44.668 49.182 44.6338C49.3015 44.6054 49.2731 44.6168 49.3699 44.5712H49.4154C49.6715 44.4517 49.7626 44.446 50.07 44.3891C50.0757 44.3891 50.0871 44.3834 50.0927 44.3834H50.3773H50.4229C50.5367 44.3378 50.4457 44.3378 50.5595 44.3834H50.605C50.8043 44.4005 50.7644 44.4005 50.9636 44.4289C51.0832 44.446 51.0775 44.4517 51.1401 44.4631C51.2938 44.4972 51.1002 44.5485 51.2881 44.4688H51.3336C51.5044 44.5485 51.5442 44.5143 51.6524 44.5598H51.6979H51.7434H51.789C51.9597 44.6395 52.028 44.5712 52.1988 44.6509C52.2443 44.7647 52.2443 44.6737 52.1988 44.7875L51.8288 45.1518ZM11.0566 50.2633H11.0111L10.8745 50.1722H10.829C10.3281 49.8364 10.015 49.825 9.719 49.455L9.41163 48.9541C9.41163 48.9484 9.40594 48.937 9.40025 48.9313L9.36609 48.8346C9.21241 48.4532 9.22379 48.1344 9.38317 47.7645C9.38317 47.7588 9.38886 47.7474 9.39455 47.7417C9.39455 47.736 9.40025 47.7246 9.40594 47.7189C9.49701 47.4912 9.49132 47.514 9.65639 47.3546C9.81577 47.2009 9.94668 47.0416 10.1174 46.905C10.1288 46.8936 10.1573 46.8708 10.1687 46.8651L10.7436 46.5691H10.7891C10.9656 46.4496 10.8688 46.4325 11.3355 46.4325C11.2843 46.5577 11.3355 46.5407 11.3014 46.6488C11.2615 46.774 11.3014 46.6317 11.2559 46.757L11.1648 47.0757C11.1363 47.1554 11.1534 47.0928 11.1363 47.1497L11.0908 47.4172C10.9143 48.1231 11.142 48.9427 11.1306 49.7282C11.1306 49.8193 11.1192 49.6998 11.1306 49.8193L11.1762 50.0242C11.1932 50.2291 11.1876 50.3202 11.0566 50.2633ZM68.0796 53.5533V53.5988C67.943 53.8094 67.9999 53.9859 67.8633 54.2079L67.5275 54.834C67.3567 54.9535 67.5104 54.8055 67.4421 54.9877C67.3966 55.1129 67.3966 55.1186 67.3112 55.2097C67.1917 55.3463 67.0778 55.4146 66.9811 55.5626C66.8331 55.6593 66.7932 55.7618 66.6395 55.8586L66.2525 56.109C66.1273 56.1944 66.0134 56.3652 65.8996 56.405C65.8028 56.4391 65.4784 56.4278 65.2905 56.4278C64.8864 56.4278 64.1977 56.4562 64.0098 56.3822H63.9643C63.8618 56.3424 63.526 56.3538 63.3723 56.2912H63.3268C63.1446 56.3652 63.3325 56.3196 63.1788 56.2798C63.1162 56.2627 63.0991 56.257 62.9568 56.2456C62.2794 56.2001 62.2168 56.2342 61.5452 56.2912H61.4996C61.2036 56.4335 60.8792 56.3196 60.7255 56.3822H60.68L59.6668 56.5018C59.3253 56.553 58.1242 56.5644 57.8567 56.5188C57.7486 56.5018 57.7201 56.479 57.6518 56.3993C57.538 56.2627 57.6006 56.0578 57.6518 55.9155C57.7429 55.6593 57.6461 55.7163 57.7144 55.5797C57.7486 55.5113 57.7884 55.5853 57.7827 55.3007C57.7827 55.2097 57.7713 55.2324 57.8169 55.1129L58.0616 54.1566C58.0673 54.1339 58.0673 54.1225 58.0844 54.0883C58.1299 53.9916 58.0844 54.1225 58.1356 53.9973L58.2438 53.633C58.2608 53.4964 58.1982 53.633 58.3121 53.4622V53.411C58.3462 53.3313 58.3348 53.2402 58.4316 53.0353L58.5967 52.6482C58.6251 52.5799 58.6593 52.5003 58.6877 52.4376L58.9496 51.857C58.9667 51.8229 58.978 51.7546 58.978 51.7546L59.0122 51.6863C59.0122 51.6806 59.0236 51.6692 59.0236 51.6635C59.052 51.6123 59.0577 51.6009 59.0691 51.5724L59.2342 51.248C59.4562 50.9122 59.6554 50.8382 59.8091 50.5422C59.8945 50.3771 59.8717 50.5308 60.0937 50.1551C60.1221 50.1096 60.1221 50.121 60.162 50.0584C60.2303 49.9616 60.1677 50.0527 60.236 49.9445C60.2417 49.9331 60.2474 49.9217 60.2531 49.9161L60.3897 49.6542C60.5149 49.4152 60.5661 49.4436 60.6686 49.2045L60.8792 48.8573C60.9361 48.7549 60.7995 48.863 60.9532 48.7549C61.0158 48.6069 60.9418 48.7321 60.9987 48.641L61.0499 48.5784C61.0499 48.5727 61.0613 48.567 61.0613 48.5613L61.2207 48.254C61.4256 48.254 61.7159 48.3223 61.8582 48.3906H61.9038C61.955 48.4247 61.9664 48.4418 62.0062 48.4646L62.1941 48.5613C62.5242 48.7435 62.2851 48.5386 62.5128 48.698L62.7746 48.846H62.8202C62.8828 48.8858 62.8942 48.9086 62.9511 48.9427C63.0251 48.9883 63.0649 48.9939 63.1389 49.0281H63.1845C63.2186 49.0509 63.2699 49.0964 63.2869 49.1021C63.4122 49.1761 63.2755 49.1078 63.4122 49.1476C63.6455 49.2159 63.4748 49.1192 63.5488 49.3013C63.6626 49.4664 63.5431 49.3867 63.6911 49.7225L63.7309 49.8478C64.1863 50.1551 63.7024 50.1267 64.5449 50.0527C64.6815 50.0413 64.5847 50.0527 64.6986 50.0185C65.1255 49.899 65.3304 50.0185 65.2393 49.8022V49.7567C65.1995 49.2672 65.1881 49.5233 65.3645 49.0167C65.3987 48.9199 65.4271 48.9541 65.4442 48.8289C65.4556 48.7435 65.4328 48.6297 65.4499 48.5272C65.4897 48.1857 65.4954 47.8157 65.6093 47.5937C65.615 47.5823 65.6264 47.5595 65.6321 47.5539C65.6548 47.514 65.6093 47.5595 65.6662 47.5083C65.9337 47.2749 65.9167 47.3603 65.9736 47.3831H66.0191C66.133 47.3376 66.0419 47.3376 66.1557 47.3831H66.2013C66.3151 47.3376 66.224 47.3376 66.3379 47.3831H66.3834C66.4972 47.3376 66.4062 47.3376 66.52 47.3831H66.5655C66.6794 47.3376 66.5883 47.3376 66.7022 47.3831H66.7477C66.8615 47.3376 66.7705 47.3376 66.8843 47.3831H66.9298C67.0608 47.3319 67.499 47.366 67.647 47.3603C67.9601 47.3546 67.9259 47.3376 67.9487 48.3678C67.9658 49.085 67.9203 49.4948 68.0682 50.1779C68.1024 50.3373 68.0853 50.2803 68.091 50.3885C68.1081 50.5763 68.165 50.5479 68.1821 50.8439C68.2162 51.4358 68.2959 50.9805 68.239 51.8798C68.2106 52.3636 68.2447 52.6824 68.1707 53.1036C68.1593 53.1776 68.1536 53.189 68.1366 53.2459L68.0796 53.5533ZM56.6215 51.9083L56.576 52.0563C56.5475 52.1473 56.5361 52.136 56.5134 52.2896C56.4678 52.597 56.5191 52.6312 56.3369 53.0581L56.3085 53.1264C56.3085 53.1321 56.2971 53.1435 56.2971 53.1491L56.2117 53.3654C56.0979 53.4508 56.1889 53.3598 56.0694 53.6045L55.9897 53.7639C55.9897 53.7696 55.9783 53.781 55.9783 53.7867L55.7962 54.2477C55.7962 54.2534 55.7905 54.2648 55.7848 54.2705L55.7393 54.3616C55.7222 54.39 55.7279 54.3729 55.7051 54.4299L55.4376 55.0446C55.4376 55.0503 55.4319 55.0617 55.4262 55.0674L55.375 55.1812C55.3067 55.2894 55.227 55.4089 55.1644 55.5057L54.9765 55.7447C54.8399 55.9496 54.5838 56.2058 54.4813 56.4164C54.3675 56.6554 54.2138 56.5928 54.0601 56.6554H54.0146C53.9178 56.6156 53.7926 56.6156 53.6958 56.6554H53.6503C53.5364 56.6099 53.6275 56.6099 53.5137 56.6554H53.4681C53.3543 56.6099 53.4454 56.6099 53.3315 56.6554H53.286L51.4133 56.7465H51.3678L50.8156 56.7864C50.7815 56.7864 50.7189 56.7921 50.6847 56.7978L50.5424 56.8376C50.4286 56.7921 50.5196 56.7921 50.4058 56.8376H50.3603C50.2464 56.7921 50.3375 56.7921 50.2237 56.8376H50.1781C49.996 56.7522 49.848 56.8148 49.7057 56.6213C49.6146 56.4904 49.5634 56.0122 49.5634 55.8187C49.5634 55.6593 49.552 55.4943 49.5634 55.3406L49.7228 54.7315V54.686C49.774 54.5608 49.7285 54.6462 49.7512 54.5551L50.1895 53.1719C50.235 53.0182 50.1554 53.0922 50.2692 52.9784L50.531 52.7222C50.531 52.7222 50.5424 52.7109 50.5481 52.7052L50.5993 52.6596C50.7359 52.5515 50.6904 52.6312 50.7815 52.5002L50.8726 52.4092L50.9636 52.3181L51.1458 52.136L51.3279 51.9538C51.4873 51.8457 51.5613 51.7091 51.7093 51.6009L52.1533 51.3106L52.2443 51.2195L52.5631 50.9463L52.6542 50.8552C52.6656 50.8496 52.6769 50.8325 52.6826 50.8382L52.7282 50.804C52.8079 50.73 52.7168 50.7585 52.842 50.6731L53.6844 49.9616C53.7698 49.9104 53.7755 49.899 53.8438 49.8478L53.9576 49.7794C54.0373 49.7282 54.0203 49.7282 54.0829 49.6827L54.2992 49.5745H54.3447C54.4529 49.5233 54.5041 49.5233 54.5838 49.5005C54.6293 49.4892 54.5952 49.5062 54.6862 49.4607L54.8001 49.3924H54.8456H54.8911L56.2629 48.9484C56.2686 48.9484 56.28 48.9427 56.2914 48.937L56.3426 48.9199C56.4109 48.8972 56.5077 48.863 56.5931 48.8346C56.65 48.8175 56.7411 48.8061 56.8549 48.7549H56.9004C56.9346 48.7378 57.0826 48.6695 57.1167 48.6581C57.2021 48.624 57.2078 48.6183 57.3103 48.6638C57.3558 48.7549 57.3444 48.8346 57.3387 48.9029C57.3217 49.1476 57.3273 48.8516 57.2363 49.2672L57.2078 49.3412C57.2078 49.3469 57.1964 49.3639 57.1964 49.3696C57.1794 49.4152 57.168 49.4493 57.1566 49.4835C57.1509 49.4948 57.1452 49.5233 57.1452 49.5347C57.1452 49.5404 57.1395 49.5518 57.1395 49.5575C57.1395 49.5631 57.1338 49.5745 57.1281 49.5802C56.7468 50.6162 56.9232 50.3771 56.8834 51.2878C56.872 51.4984 56.8663 51.2765 56.7809 51.5667C56.7354 51.7091 56.724 51.8343 56.6215 51.9083ZM73.5611 53.9176C73.2992 54.1054 73.6863 53.9119 73.4245 54.0997C72.7983 55.0389 73.2708 54.4526 72.9805 55.1983C72.952 55.2666 72.9577 55.2438 72.9463 55.295L72.7699 56.0009C72.7357 56.109 72.713 56.1659 72.6504 56.2855C72.3885 56.4733 72.7756 56.2798 72.5137 56.4676C72.3714 56.6839 72.3259 56.9799 71.9673 56.8319H71.9218C71.8079 56.7864 71.899 56.7864 71.7852 56.8319H71.7396C71.6201 56.7807 71.1306 56.8091 70.9655 56.7408H70.92C70.6752 56.7181 70.7207 56.7181 70.5045 56.701C70.2483 56.6839 70.0662 56.6953 69.958 56.6498H69.9125C69.7986 56.6042 69.8897 56.6042 69.7759 56.6498H69.7303C69.645 56.6099 69.6734 56.6156 69.5482 56.6042L69.6393 56.2969C69.6393 56.2912 69.645 56.2798 69.6506 56.2741L70.1003 55.1926V55.1471L70.5671 53.8208C70.5671 53.8151 70.5728 53.8037 70.5784 53.798L70.5955 53.7468C70.5955 53.7411 70.6012 53.7297 70.6069 53.724C70.6297 53.6671 70.6695 53.559 70.698 53.502C70.7094 53.4736 70.7378 53.411 70.7378 53.411L70.7663 53.337C70.7663 53.3313 70.772 53.3199 70.772 53.3142L70.8858 52.9955C70.8858 52.9898 70.8972 52.9784 70.8972 52.9727L71.3867 51.8115C71.4266 51.7318 71.3753 51.8058 71.4323 51.7204C71.4778 51.6521 71.5176 51.6294 71.5632 51.5611L71.6429 51.4017C71.6429 51.396 71.6542 51.3846 71.6542 51.3789C71.7795 51.1455 71.9901 50.9122 72.2291 50.7926L72.656 50.582C73.1114 50.3543 73.4472 50.3145 73.6692 50.2234H73.7148C73.84 50.1722 73.84 50.1779 73.9595 50.6674L74.0108 50.8382C74.0108 50.8439 74.0221 50.8552 74.0221 50.8609L74.21 51.322C74.2726 51.4814 74.3978 52.375 74.3466 52.6027C74.3466 52.6084 74.3409 52.6198 74.3409 52.6255L74.2271 52.8759C74.2214 52.8873 74.1986 52.9158 74.1872 52.9215C74.1474 52.9784 74.1644 52.9556 74.1531 52.9898C74.0449 53.2118 74.0108 53.1435 73.914 53.2858L73.7091 53.633C73.6465 53.724 73.6123 53.8208 73.5611 53.9176ZM19.3158 54.5095H19.3613C19.4923 54.5665 19.7769 54.5152 19.9078 54.6006C20.0216 54.5551 19.9305 54.5551 20.0444 54.6006H20.0899L21.6894 54.9649H21.7349C21.9057 55.0844 21.6951 54.8966 21.9512 55.517L22.1163 55.9553C22.2301 56.183 22.1163 56.0692 22.2074 56.2285L22.657 57.1905C22.7197 57.3214 22.7481 57.2816 22.7993 57.3954L22.8335 57.5776C22.8506 57.6231 22.8961 57.7711 22.9075 57.8052C22.9872 58.0272 22.9758 57.7939 23.0156 58.2492L22.9246 58.2037H22.879C22.6798 58.2834 22.583 58.1525 22.2871 58.2948H22.2415L21.8602 58.4086C21.8545 58.4086 21.8032 58.42 21.7463 58.4314C21.7179 58.4371 21.6382 58.4541 21.6382 58.4541L21.2853 58.5623H21.2397C21.16 58.6021 21.0917 58.6135 21.012 58.6534H20.9608C20.7445 58.7558 20.477 58.7387 20.2778 58.8355H20.2322L19.1337 58.9721C18.98 58.9721 18.8718 58.955 18.7864 58.955C18.5018 58.9437 18.1091 58.9323 17.8985 58.8355H17.8529C17.648 58.7387 17.5057 58.6761 17.3464 58.4086L17.1642 57.9874C17.1244 57.8736 17.1699 57.9874 17.1301 57.8849L17.0162 57.6572C16.9878 57.6117 16.9764 57.606 16.9422 57.5548C16.6804 57.367 17.0674 57.5605 16.8056 57.3726C16.7828 57.1165 16.8056 57.3328 16.7544 57.1962C16.7373 57.1507 16.7202 57.1165 16.7032 57.0482L16.6462 56.9059C16.6462 56.9002 16.6348 56.8888 16.6348 56.8831C16.6348 56.8774 16.6235 56.8661 16.6235 56.8604C16.6235 56.8547 16.6178 56.8433 16.6121 56.8376L16.4015 56.2798L16.3502 56.2001C16.225 55.9439 16.2193 55.9553 16.2933 55.7276L16.447 54.8738C16.6918 54.6974 16.4584 54.1851 16.9593 54.0656L17.0048 54.0542C17.1016 54.0371 16.9764 54.0428 17.0731 54.0485L18.8434 54.4128C19.0141 54.4469 19.2589 54.4868 19.3158 54.5095ZM24.3419 55.5113L24.4273 55.5626C24.5354 55.6309 24.7119 55.8643 25.2242 55.6935C25.3038 55.665 25.2071 55.6992 25.3152 55.6593L25.8958 55.5057H25.9414L26.1633 55.3577C26.1747 55.352 26.1861 55.3463 26.1918 55.3406L26.4992 55.1926C26.6699 55.1357 26.5959 55.1869 26.7212 55.1357H26.7667C27.0001 55.2324 26.9033 55.0275 27.2164 55.3747C27.3302 55.5 27.2904 55.4601 27.2961 55.5797C27.3018 55.6707 27.3074 55.8016 27.3644 55.9155V55.961C27.2619 56.2115 27.3587 56.4562 27.2391 56.6953L26.9261 57.293C26.8919 57.3499 27.0001 57.2759 26.8635 57.3726C26.8236 57.4296 26.8407 57.4182 26.7781 57.4694C26.7724 57.4751 26.761 57.4808 26.7496 57.4865L26.6642 57.5377C26.6529 57.5434 26.6415 57.5491 26.6301 57.5548C26.3967 57.6516 26.2089 57.606 26.0267 57.6288L25.0136 57.7085C24.8314 57.7199 24.581 57.7028 24.4899 57.7426C24.4387 57.6174 24.4842 57.6288 24.4614 57.5206C24.4216 57.3271 24.3988 57.4125 24.376 57.2759C24.3419 57.0653 24.433 57.2417 24.2622 56.8319C24.0857 56.7067 24.2679 56.9401 24.1199 56.3822L24.0801 55.9212C24.0459 55.8699 24.0573 55.9269 24.0231 55.8073C23.989 55.6935 24.0174 55.796 24.0118 55.6821C24.0061 55.591 24.0061 55.5512 23.9434 55.4203V55.3747L23.989 55.2837C24.0801 55.2894 24.063 55.3064 24.0744 55.3121L24.1142 55.3349C24.1199 55.3406 24.1427 55.3577 24.1541 55.3634C24.2167 55.426 24.2679 55.4658 24.3419 55.5113ZM15.8493 57.976L16.0429 58.3061C16.0429 58.3118 16.077 58.5452 16.077 58.7046C15.9233 58.642 15.0411 58.7217 14.8874 58.6591H14.8418H14.7963H14.7508C14.432 58.4484 14.654 58.7387 14.2783 58.3175L13.7661 57.5548C13.7661 57.5491 13.7604 57.5377 13.7547 57.532L13.6522 57.3271C13.4473 56.8262 13.4701 56.3879 13.5953 55.961C13.5953 55.9553 13.601 55.9439 13.601 55.9383L13.6579 55.8244C13.7034 55.7276 13.8514 55.4487 14.1076 55.3804L14.3865 55.7618C14.3865 55.7675 14.3922 55.7789 14.3979 55.7846C14.3979 55.7903 14.4036 55.8016 14.4093 55.8073C14.58 56.1147 14.8134 56.3253 14.8589 56.4221L14.9386 56.5815C14.9386 56.5871 14.95 56.5985 14.95 56.6042L15.0012 56.6725C15.0012 56.6782 15.0126 56.6839 15.0126 56.6896L15.098 56.8091C15.1549 56.8831 15.1891 56.9002 15.2517 56.9799C15.2517 56.9799 15.2915 57.0368 15.2972 57.0482C15.2972 57.0539 15.3086 57.0653 15.3086 57.071C15.3086 57.0767 15.32 57.088 15.32 57.0937L15.3428 57.1393C15.3769 57.2019 15.3484 57.145 15.3883 57.2303L15.7298 57.8223C15.8607 57.9931 15.7013 57.8679 15.8493 57.976ZM78.1261 63.5884L78.1375 63.5998C78.1375 63.6054 78.1204 63.5941 78.1261 63.5884Z" fill="white" fill-opacity="0.85"/>
</svg>
