<svg width="13" height="14" viewBox="0 0 13 14" fill="none" xmlns="http://www.w3.org/2000/svg">
<path d="M5.57117 10.5263C3.43209 10.5263 1.22119 8.77518 1.22119 5.40213C1.22119 2.62623 2.88934 0.980057 5.14814 0.980057C7.28721 0.980057 9.49812 2.715 9.49812 6.10418C9.49812 8.88008 7.814 10.5263 5.57117 10.5263ZM12.0203 12.471C11.5813 12.6647 11.0545 12.7696 10.408 12.7696C9.25867 12.7696 7.79006 11.9223 6.54492 10.7038C9.05115 10.0824 10.7113 7.73422 10.7113 5.57966C10.7113 2.99743 8.58024 0.625 5.49135 0.625C2.2588 0.625 0 3.4009 0 5.90244C0 8.47661 2.06724 10.8087 5.11621 10.8732C5.11621 10.8732 5.85851 10.8571 6.15382 11.188C6.55291 11.6156 9.0751 14.1737 12.0203 12.6566C12.1161 12.6082 12.0443 12.4549 12.0203 12.471Z" fill="#006B2D"/>
<path d="M8.9395 13.5845C9.13106 13.6168 9.33858 13.6249 9.53014 13.6249C10.887 13.6249 11.4697 13.173 12.0603 12.8341C8.9395 14.4318 6.40933 11.9222 6.01025 11.4945C5.71493 11.1718 4.78906 11.1798 4.78906 11.1798C6.0741 12.358 7.09575 13.0197 8.06152 13.3425C8.06152 13.3505 8.62822 13.5361 8.9395 13.5845Z" fill="#FFCD00"/>
</svg>
