<svg width="100" height="80" viewBox="0 0 100 80" fill="none" xmlns="http://www.w3.org/2000/svg">
<path fill-rule="evenodd" clip-rule="evenodd" d="M30.7149 33.0281C30.6255 32.8071 30.6781 32.8597 30.7833 32.6544L30.9675 32.1966C31.3622 31.223 31.3412 31.7651 31.4938 31.3441C31.5359 31.3757 31.6885 31.3651 31.578 31.823C31.5148 32.0966 31.5517 31.9177 31.4569 32.0808C31.4517 32.0914 31.4411 32.1019 31.4359 32.1124C31.4306 32.1177 31.4254 32.1335 31.4201 32.144C31.4148 32.1492 31.4096 32.165 31.4043 32.1756L31.2464 32.5071C31.2254 32.5545 31.2254 32.5439 31.1991 32.5966L31.1464 32.6755C30.8728 33.0649 30.9991 32.8913 30.7149 33.0281ZM72.4413 37.5328H72.4992C72.6623 37.6012 72.8623 37.5538 73.0307 37.5696L74.9621 37.6538H75.0199C75.2199 37.7485 75.062 37.6854 75.2673 37.6959C75.5515 37.7117 75.9882 37.7012 76.1619 37.7696H76.2198C76.3671 37.7064 76.2514 37.7064 76.3987 37.7696H76.4566C76.625 37.7012 76.4513 37.7643 76.7724 37.7643L78.8142 37.8696C78.8195 37.8696 78.8353 37.8748 78.8458 37.8801C78.851 37.8801 78.8721 37.8854 78.8773 37.8906C79.0458 37.9222 78.7984 37.9959 79.0458 37.8959H79.1036C79.2405 37.9538 79.3562 37.9275 79.5878 37.938C79.7246 37.9433 80.1193 37.9485 80.3666 37.959L80.9824 38.0169C80.9876 38.0169 81.0087 38.0169 81.0139 38.0169C81.3455 38.0222 81.1665 38.0801 81.3297 38.0117H81.3876C81.5349 38.0748 81.4191 38.0748 81.5665 38.0117H81.6244C81.7717 38.0748 81.656 38.0748 81.8033 38.0117H81.8612C82.0085 38.0748 81.8928 38.0748 82.0401 38.0117H82.098C82.2454 38.0748 82.1296 38.0748 82.2769 38.0117H82.3348C82.4822 38.0748 82.3664 38.0748 82.5137 38.0117H82.5716C82.719 38.0748 82.6032 38.0748 82.7506 38.0117H82.8084C82.9558 38.0748 82.84 38.0748 82.9874 38.0117H83.0452C83.1926 38.0748 83.0768 38.0748 83.2242 38.0117H83.2821C83.4294 38.0748 83.3136 38.0748 83.461 38.0117H83.5189C83.6662 38.0748 85.2976 38.0696 85.7449 38.1169C85.9291 38.138 86.1028 38.1801 86.2185 38.1274H86.2764C86.508 38.2222 87.6131 38.1274 87.8973 38.2485H87.9552C88.1025 38.1853 87.9867 38.1853 88.1341 38.2485H88.192C88.4867 38.1274 88.0236 38.2485 88.6551 38.2748C89.0498 38.2906 90.1917 38.2748 90.4128 38.3695H90.4706C90.6759 38.2853 90.5391 38.3748 90.7811 38.4011L91.4232 38.4748C91.7863 38.5748 93.3335 38.5958 93.6545 38.7274H93.7124C93.8597 38.6642 94.0492 38.7589 94.3175 38.7853C94.7701 38.8326 94.707 38.7853 94.9859 38.8589L96.2962 39.0852H96.3541C96.5278 39.1694 96.6015 39.1221 96.7751 39.2063H96.833C97.0014 39.222 97.1803 39.2536 97.4014 39.2799C97.5592 39.301 97.4856 39.2852 97.6119 39.3378C97.675 39.3641 97.7961 39.4168 97.8592 39.4483C97.7645 39.5746 97.8434 39.5115 97.6908 39.5746C97.6013 39.6115 97.6382 39.5904 97.5803 39.6009L97.3277 39.6641C97.1751 39.7062 97.2014 39.6904 97.0804 39.7483H97.0225C96.612 39.9483 94.9438 39.8799 94.6807 39.9904H94.6228H94.4438H94.3859C94.2386 40.0535 94.3544 40.0535 94.207 39.9904H94.1491C93.9334 40.0798 89.9023 40.0746 89.4708 40.043C89.3182 40.0325 89.2603 40.0272 89.1813 40.0167L89.0919 39.9956C89.0866 39.9956 89.0656 39.9904 89.0603 39.9904C88.9498 39.9746 89.1498 39.9009 88.9235 39.9956H88.8656C88.6235 39.8799 86.729 39.9009 86.4501 39.9062C86.1712 39.9114 86.3133 39.9114 85.9765 39.7641C85.7502 39.6641 85.766 39.722 85.4134 39.5431L84.845 39.2694H84.7871C84.6819 39.2168 84.5924 39.201 84.4872 39.1484C84.424 39.1063 84.5082 39.1484 84.3714 39.08C84.3714 39.08 84.2609 39.0326 84.2451 39.0273H84.1872H84.1293H84.0714C83.9241 38.9642 84.0399 38.9642 83.8925 39.0273H83.8346H83.7767H83.7189C83.6873 39.0431 83.6136 39.0694 83.5926 39.08C83.482 39.1378 83.5399 39.1063 83.482 39.1484C83.1716 39.3747 83.5241 39.1273 83.361 39.3431L83.1663 39.4904C83.1558 39.4957 83.14 39.501 83.1242 39.5115C82.9347 39.6009 82.8137 39.6115 82.5822 39.6325H82.5243C82.3927 39.6851 81.998 39.6851 81.8612 39.6325H81.8033L80.9192 39.5115C80.8087 39.4957 81.0087 39.422 80.7824 39.5167H80.7245C80.5614 39.4378 80.3403 39.4325 80.2561 39.4273C80.1246 39.422 79.9456 39.3747 79.8299 39.3589C79.3931 39.301 78.8458 39.3694 78.6195 39.2799H78.5616C78.4143 39.3431 78.53 39.3431 78.3827 39.2799H78.3248L77.3775 39.1747C77.046 39.0905 76.6987 39.1378 76.4619 39.0379H76.404L74.4253 38.68H74.3674C74.2253 38.6221 74.0359 38.659 73.8253 38.559H73.7675L72.8044 38.3169L72.2887 38.1748C72.2729 38.1695 72.2203 38.1485 72.2045 38.138C72.0835 38.0801 72.1519 38.1169 72.0887 38.0748C71.9098 37.9854 71.7414 37.938 71.5677 37.817L71.3625 37.6696C71.2415 37.5749 71.3309 37.6749 71.2467 37.4749L72.1045 37.538C72.1098 37.538 72.1308 37.538 72.1361 37.538C72.4466 37.5433 72.2571 37.6065 72.4413 37.5328ZM33.2988 42.8216C33.1936 42.5743 33.4725 42.3848 33.262 42.0217C33.1304 41.7954 33.0936 41.8849 33.0778 41.727C33.0567 41.527 33.1778 41.5744 33.2093 41.3376L33.5251 39.9272C33.6567 39.6273 33.4462 39.8325 33.6567 39.5167V39.4589C33.6882 39.3799 33.7303 39.1221 33.7777 38.9168H34.1987C34.3355 39.5062 34.2882 39.1273 34.2882 39.8904C34.2882 39.9851 34.3039 40.2745 34.2882 40.343C34.2724 40.4114 34.2829 40.3745 34.2355 40.464L34.1987 41.0797C34.2671 41.4586 34.1303 41.4954 33.9303 41.9059C33.8198 42.1375 33.9724 41.8586 33.8882 41.9954C33.8566 42.048 33.8408 42.0585 33.7935 42.1217C33.783 42.1322 33.7093 42.2375 33.704 42.2427C33.6093 42.3953 33.7356 42.2217 33.6461 42.3532L33.2988 42.8216ZM88.8919 40.7745C88.7867 41.0639 88.492 41.0166 88.2341 41.0166C88.2288 41.0113 88.2236 40.985 88.2236 40.9955C88.2025 41.0955 88.2657 40.9745 88.0288 40.785L87.9341 40.7166C88.3656 40.7166 88.7761 40.7271 88.8919 40.7745ZM89.2497 40.7745H89.3076H89.3655H89.4234L89.4813 40.8324H89.4234H89.3655H89.3076H89.2497L89.134 40.8955L89.0708 40.7692C89.2182 40.7113 89.1077 40.7113 89.2497 40.7745ZM14.5064 48.584L14.6853 48.7051C14.8853 49.084 14.7064 49.826 14.459 50.1628L14.317 50.3943C14.317 50.3943 14.2275 50.5154 14.2222 50.5154L13.7276 50.8048L13.0803 51.2416C13.0697 51.2469 13.0487 51.2574 13.0434 51.2627C13.0382 51.2679 13.0171 51.2784 13.0066 51.2837C12.875 51.3732 12.7698 51.4679 12.6593 51.5995C12.6487 51.61 12.6172 51.6468 12.6066 51.6573C12.554 51.731 12.5803 51.7047 12.5593 51.7468L12.5224 51.8415C12.4382 52.0468 12.3856 52.1152 12.4803 52.352C12.5382 52.5046 12.4909 52.3573 12.5277 52.4625L12.5909 52.7362C12.7908 53.1519 12.6172 53.0361 12.5593 53.4571C12.5277 53.6676 12.6119 53.9571 12.5277 54.1623L12.2856 53.9202C12.112 53.8044 12.0383 53.6308 11.8173 53.5518C11.7962 53.5466 11.3015 53.4519 11.1437 53.4361H11.0858C10.9805 53.3834 10.8911 53.3677 10.7858 53.315H10.7279L9.7912 52.8677C9.60175 52.794 9.47545 52.7625 9.22285 52.7677C8.98604 52.773 8.95973 52.7835 8.75449 52.9098L8.68081 52.9572C8.40716 53.1414 8.32296 53.3782 7.99669 53.5361C7.81776 53.6203 7.71777 53.6413 7.47044 53.6413C7.32309 53.6413 7.12837 53.5729 6.93892 53.5571H6.88104C6.54424 53.394 6.58634 53.5834 6.28111 53.2571C6.48109 52.9572 6.49161 53.1414 6.69159 52.7309C6.73895 52.6309 6.76526 52.6256 6.82315 52.5362L7.30204 52.0573L7.48096 51.9363L7.602 51.8152L7.78092 51.5731C8.01774 51.4153 7.92301 51.3732 8.21771 51.2363C8.25981 51.2153 8.22824 51.2416 8.30718 51.189L8.73344 50.5627C8.7387 50.5522 8.75975 50.5154 8.76501 50.5049C8.91236 50.2102 8.72818 50.3943 8.92289 50.2523C9.09655 49.9891 9.03866 50.1575 9.26495 49.9944L9.76489 49.5629C9.88066 49.4418 9.83856 49.3892 10.0701 49.2366L10.1491 49.1945C10.1596 49.1892 10.1754 49.184 10.1859 49.1734L10.3648 49.0524L10.5174 48.9629C10.5595 48.9366 10.6595 48.8682 10.6911 48.8366C10.7806 48.7472 10.849 48.6525 10.949 48.5525L11.5647 48.0894L12.0646 47.721C12.0699 47.7157 12.0857 47.7105 12.0962 47.7105L13.3644 47.3263C13.6591 47.3105 13.5592 47.4 13.9117 47.8789L14.5064 48.584ZM23.2106 48.463H23.2685C23.4 48.4104 23.5842 48.4841 23.8158 48.5104L24.5262 48.7051H24.5841C24.7314 48.7682 24.6157 48.7682 24.763 48.7051H24.8209C25.063 48.8051 24.8104 48.7367 25.0156 48.6946C25.0209 48.6946 25.0367 48.6893 25.0472 48.684C25.6366 48.5577 25.4261 49.1682 25.7208 49.605V49.6629C25.7892 49.8313 25.7261 49.705 25.7682 49.8734C25.8103 50.0312 25.8103 49.9944 25.8471 50.1312C25.8839 50.2786 25.8629 50.2154 25.8945 50.3575C26.005 50.9048 25.8366 50.9785 25.926 51.389C25.9681 51.5889 25.9787 51.4363 25.9997 51.631C26.0313 51.9626 25.9155 51.6837 26.0839 51.9889L25.9945 53.2835C25.9839 54.0255 25.8734 54.6464 25.8734 54.9938L25.8629 55.5411C25.7734 56.0726 25.8208 55.8305 25.8682 56.2515C25.8945 56.4831 25.805 56.441 26.0839 56.6304H26.1418L26.1997 56.6883H26.1418H26.0944H23.5684L24.6209 55.2832C24.6262 55.2779 24.6367 55.2622 24.642 55.2516L24.6736 55.1937C24.6788 55.1885 24.6841 55.1727 24.6894 55.1674L25.2788 54.3254C25.2788 54.3202 25.2209 54.336 25.3261 54.157C25.3314 54.1518 25.4629 53.9886 25.4787 53.9676C25.6471 53.7097 25.4366 54.0307 25.5577 53.7413C25.1893 53.7413 25.3261 53.6781 25.0104 53.7571L24.5788 53.9044C24.5683 53.9097 24.5473 53.915 24.5367 53.9202C24.4315 53.9728 24.342 53.9886 24.2368 54.0413H24.1789C24.0736 54.0939 23.9842 54.1097 23.8789 54.1623H23.821C23.6316 54.2518 23.5947 54.2518 23.4 54.1623H23.3421L23.2264 54.2254C23.2001 53.9097 23.1685 54.1412 23.1317 53.8992C23.0106 53.1203 23.158 53.7887 22.879 53.1887L22.3791 53.1414C22.5265 53.494 22.2686 53.6466 22.5054 54.3886L22.558 54.5833C22.2423 54.5833 22.4686 54.5833 22.3791 54.6412L22.137 54.8833C21.8318 55.1043 22.2896 54.9517 21.9581 55.0622C21.7897 54.9359 21.8213 54.8569 21.7844 54.7149C21.6318 54.1781 22.1581 54.2833 21.8371 53.6203C21.2898 53.6203 21.3003 53.5413 20.9056 53.8729L20.8582 53.915C20.8477 53.9255 20.8267 53.9518 20.8214 53.9623C20.3057 54.578 20.5951 54.2939 20.3951 54.5886C20.0689 54.3675 20.4215 54.4044 19.9741 54.1097C19.7373 54.4623 19.9373 55.1569 20.011 55.5674C20.011 55.5726 20.0162 55.5884 20.0162 55.599L20.0426 55.6884C20.1215 55.9042 20.1952 55.9726 20.0268 56.0936H19.9689C19.8215 56.0305 19.9373 56.0305 19.79 56.0936H19.7268H19.6689H19.611H19.5531H19.4953C19.3058 56.0147 18.3217 56.0884 17.9165 55.9779L17.8586 55.9568C17.6586 55.9094 17.185 55.9779 16.8114 55.8884C16.5588 55.8305 16.5325 55.6726 16.4904 55.4411L16.4325 55.2043C16.4325 55.199 16.4272 55.1832 16.422 55.178L16.3851 55.0938C16.0641 54.6096 15.4905 55.3885 14.9485 54.8885C14.7485 54.7043 14.7169 54.4412 14.6959 54.1728C14.6853 54.1623 14.6801 54.1255 14.6748 54.136C14.6695 54.157 14.6222 53.9413 14.4696 53.736C14.3117 53.5203 14.3643 53.6255 14.3696 53.3782C14.3748 53.0519 14.2643 52.9624 14.7011 52.673L14.8485 52.4467C14.9695 52.2257 15.3747 51.9994 15.6957 51.7994L16.4641 51.4626C16.6693 51.3469 16.4483 51.3942 16.8219 51.2732C17.1377 51.1732 17.4008 50.7522 17.585 50.4522L18.748 49.4418C18.9374 49.3155 18.9427 49.4103 19.1321 49.2787C19.2479 49.1998 19.169 49.2313 19.3005 49.1524C19.3584 49.1156 19.4532 49.0892 19.511 49.0629C19.7742 48.8787 20.011 48.7472 20.1531 48.4472L20.1794 48.3893C20.2215 48.2999 20.1846 48.3893 20.2425 48.2683C20.2478 48.2578 20.2899 47.9736 20.5793 47.9473C20.7319 47.9315 20.9109 48.0367 21.1214 48.0946L21.7581 48.2262C22.2739 48.4051 23.0264 48.3893 23.2106 48.463ZM82.7085 55.8516H82.6506C82.4611 55.7516 82.3874 55.7779 82.4822 55.5674L82.5506 55.4463C82.5874 55.3411 82.5453 55.1253 82.5506 54.9675C82.5611 54.4833 82.8558 54.5938 83.3663 54.3465C83.4663 54.1991 83.5294 54.1886 83.5978 54.036L83.661 53.6729C83.661 53.6676 83.6662 53.6518 83.6662 53.6413L83.6347 53.0414C83.6294 52.8151 83.5241 52.5309 83.5084 52.3204L83.661 51.5837C83.8557 51.4416 83.6873 51.5837 83.7557 51.4521C83.761 51.4468 83.7662 51.4258 83.7662 51.4205C83.7715 51.4153 83.7767 51.3942 83.782 51.389C83.782 51.389 83.8346 51.289 83.8399 51.2837V51.2258C83.9346 50.989 83.7873 50.9259 83.9609 50.5627C84.1609 50.7101 84.0978 51.1153 84.1556 51.6363L84.2241 52.1678C84.324 52.7309 84.0662 53.215 83.982 53.5782C83.982 53.5834 83.9767 53.6045 83.9715 53.6097C83.9715 53.6203 83.9609 53.636 83.9609 53.6413C83.8241 54.0307 83.7294 54.978 84.0504 55.4411L84.3977 55.7726C84.6451 55.9305 84.6872 55.841 84.8608 55.7253C84.8345 56.0463 84.7135 55.9358 84.5135 55.9252C84.4135 55.92 84.3872 55.9305 84.2346 55.9252L82.7085 55.8516ZM85.4081 51.41C85.4713 51.3679 85.4713 51.3521 85.5449 51.3416C85.5502 51.3416 85.5713 51.3416 85.5765 51.3416C85.5818 51.3416 85.6028 51.3469 85.6081 51.3469L85.6976 51.3732C85.8028 51.3942 85.8765 51.3995 86.0765 51.4153C85.987 51.631 86.1133 51.4363 85.987 51.6784L85.4765 52.373L85.4081 51.41ZM21.8897 55.1306L21.9055 55.1464C21.9055 55.1516 21.8844 55.1411 21.8897 55.1306ZM84.6135 58.7354H84.2398C83.9662 58.7249 83.6925 58.6933 83.561 58.6723C83.4505 58.6565 83.6504 58.5828 83.4242 58.6775H83.3663C83.1716 58.5986 82.8032 58.6407 82.4559 58.546C82.2243 58.4828 80.9824 58.4144 80.7824 58.3197H80.7245C80.4824 58.4197 80.7192 58.3512 80.5614 58.3197L80.4351 58.2828C80.2667 58.2513 80.1246 58.267 79.9456 58.2565L79.5404 58.2144C79.5352 58.2144 79.5194 58.2092 79.5089 58.2092C79.5036 58.2092 79.4825 58.2039 79.4773 58.2039C79.3668 58.1881 79.5667 58.1144 79.3405 58.2092H79.2826L75.0883 57.5408C74.8936 57.5198 74.8357 57.5303 74.7305 57.504C74.5305 57.4566 74.7673 57.4882 74.5832 57.4619L73.8148 57.3724H73.7569C73.6148 57.3145 73.4254 57.3514 73.2149 57.2514H73.157H73.0991C73.0518 57.2198 73.0728 57.2251 72.9833 57.1935C72.9676 57.1882 72.9255 57.1724 72.9097 57.1724C72.7623 57.1303 72.9623 57.2303 72.736 57.1356H72.6781C72.5466 57.0725 72.5887 57.0988 72.4308 57.0567C72.115 56.9725 72.4045 57.0146 72.0308 56.8462C72.0256 56.8409 72.0045 56.8356 71.9993 56.8304C71.994 56.8251 71.9729 56.8146 71.9677 56.8146C71.9572 56.8093 71.9151 56.783 71.8993 56.7725L71.7467 56.683C71.2678 56.3725 71.573 55.8726 71.8887 55.4411C72.1256 55.1201 72.2413 55.1832 72.3203 55.1516H72.3782C72.5255 55.2148 72.4097 55.2148 72.5571 55.1516H72.615C72.7623 55.2148 72.6465 55.2148 72.7939 55.1516H72.8518L74.6937 55.299C74.7831 55.299 75.2568 55.3043 75.4357 55.3885C75.5462 55.32 75.8093 55.3464 75.9146 55.3885H75.9725C76.3356 55.5411 77.4986 55.4253 77.7143 55.4516C78.0143 55.4832 77.867 55.5253 78.1038 55.5569C78.288 55.5832 78.4827 55.5726 78.6721 55.5726C79.0458 55.5726 79.4194 55.5937 79.5141 55.6305H79.572C79.7194 55.5674 79.6036 55.5674 79.7509 55.6305H79.8088C79.9562 55.6937 79.8404 55.6937 79.9877 55.6305H80.0456L80.6456 55.6884C80.5719 55.5042 80.5666 54.999 80.7561 54.7201C80.8718 54.5517 81.0139 54.3833 81.2507 54.3412C81.4454 54.3096 81.5875 54.3833 81.7507 54.0834L81.8138 53.7518C81.798 53.0835 81.777 53.2361 81.9191 52.7888L81.9717 52.3678C82.1085 51.5942 82.0506 50.0944 82.0506 49.8734C82.0506 49.1471 82.1296 49.3261 81.798 48.9998C81.3402 48.5472 81.5454 48.8314 81.1929 48.4051C81.1034 48.2946 81.0771 48.2893 80.9981 48.1736C80.9192 48.2262 80.9034 48.2262 80.8297 48.3051C80.7192 48.4156 80.7613 48.3788 80.735 48.4577C80.7298 48.4683 80.714 48.5683 80.6877 48.6419C80.4772 49.2419 80.7876 48.8629 80.4193 49.8049C80.414 49.8207 80.3982 49.8576 80.393 49.8734C80.3877 49.8786 80.3824 49.8997 80.3824 49.9049L79.8562 50.5101C79.8509 50.5154 79.8404 50.5312 79.8351 50.5417L79.7878 50.6312C79.7878 50.6312 79.7509 50.7627 79.7351 50.8101C79.693 50.9364 79.7404 50.8048 79.693 50.9206L79.5352 51.2521C79.5299 51.2574 79.5246 51.2784 79.5246 51.2837C79.5194 51.2942 79.5141 51.31 79.5089 51.3153L79.3668 51.7047C79.2247 51.9836 79.3668 51.7836 79.2299 52.2204C79.0668 52.7467 79.3141 52.3467 79.0773 52.994L79.03 53.1572V53.215L78.6826 54.1623C78.5721 54.4359 78.2985 54.8464 78.1301 54.9569C78.1196 54.9675 78.0985 54.978 78.0932 54.978C78.088 54.9832 78.0669 54.9938 78.0564 54.999L77.7722 55.1306C77.5723 54.9832 77.7038 55.0674 77.5933 54.8306C77.4144 54.9148 77.3986 54.899 77.2355 55.0096L77.025 54.4886C76.9302 53.836 77.3565 53.315 77.6459 52.773C77.6933 52.6835 77.7038 52.6783 77.7196 52.6414C77.9038 52.2994 78.1774 51.7836 78.33 51.3311C78.3511 51.2732 78.3616 51.2048 78.3774 51.0416C78.3879 51.0311 78.3932 51.0101 78.3985 51.0048C78.4037 50.9995 78.4143 50.9785 78.4195 50.968L78.5037 50.6996C78.5037 50.6943 78.509 50.6785 78.5142 50.668L78.6879 49.9155C78.6984 49.8734 78.709 49.9049 78.709 49.7997C78.7142 49.1734 78.6037 49.626 78.8089 48.9682C78.8879 48.7156 78.6984 48.9156 78.9195 48.7577L79.2826 47.6157C79.2983 47.2684 79.3089 47.179 79.3141 47.0316C79.3141 46.9211 79.3089 46.9369 79.3194 46.7895L79.5825 44.9056C79.6141 44.7898 79.6404 44.7372 79.6667 44.6108C79.6878 44.5109 79.672 44.5267 79.7299 44.3372L79.9035 43.8057C79.9299 43.711 79.9193 43.4426 80.0719 43.0321L80.4087 42.0164C80.4087 42.0059 80.414 41.9901 80.4193 41.9849C80.4245 41.9743 80.4298 41.9585 80.4298 41.9533L80.5403 41.627C80.5719 41.5428 80.5666 41.5796 80.5877 41.5375L80.8929 41.0639C80.8982 41.0587 80.9087 41.0481 80.9139 41.0429C80.9192 41.0376 80.9297 41.0271 80.935 41.0218L81.2718 40.5903C81.056 40.5745 80.9508 40.564 80.8666 40.5429C80.5245 40.4587 79.872 40.4745 79.7141 40.4114H79.6562C79.5141 40.3535 79.0089 40.3745 78.6195 40.2798L77.6301 40.1903C77.6249 40.1903 77.5512 40.164 77.5407 40.164L76.3513 39.9377H76.2935H76.2356H76.1777L75.8093 39.8588C75.7146 39.843 75.7356 39.8588 75.6514 39.843L75.0936 39.7325C74.741 39.6641 75.0305 39.6009 74.7989 39.6957C74.7884 39.6851 74.7673 39.6799 74.7568 39.6799L74.6147 39.643C74.3937 39.5957 74.5042 39.6694 74.32 39.5799H74.2621C74.1148 39.5167 73.7201 39.5062 73.5833 39.4799L72.9991 39.3378H72.9412C72.7886 39.2641 72.8623 39.3168 72.7044 39.2694C72.5571 39.2273 72.615 39.2378 72.5045 39.2063C72.4308 39.1852 72.3098 39.1694 72.1571 39.0957H72.0992C71.8887 39.0115 72.0466 39.1431 71.7993 38.9747H71.7414L71.3678 38.7589C71.2888 38.7063 71.3257 38.7274 71.2783 38.7063C71.2678 38.7011 71.2309 38.6905 71.2204 38.6853L71.131 38.659C71.1257 38.659 71.1099 38.6537 71.0994 38.6484L70.8415 38.4906H70.7836L70.6047 38.3695L70.1311 37.8433C70.1258 37.838 70.1205 37.8222 70.1153 37.8117C70.0153 37.5959 70.0048 37.5328 69.7627 37.4065H69.7048H69.6469H69.589C69.5048 37.3696 69.0523 37.3065 68.8102 37.2854C68.7523 37.1907 68.8102 37.1907 68.7523 37.2854L68.4681 37.2012C68.4523 37.196 68.4365 37.1907 68.426 37.1855C68.4155 37.1802 68.3944 37.1749 68.3839 37.1697L67.2525 36.9223H67.1946C67.042 36.8487 67.1157 36.9013 66.9578 36.8539C66.8104 36.8118 66.8683 36.8223 66.7578 36.7908C66.6841 36.7697 66.5631 36.7539 66.4105 36.6803H66.3526C66.2368 36.7276 66.0947 36.6434 66.0947 36.6434C65.9211 36.5908 65.9579 36.6276 65.8106 36.5592H65.7527L65.2317 36.4329C65.1317 36.4013 65.2948 36.4382 65.1422 36.4066C64.8317 36.3487 65.0107 36.4329 64.6002 36.3066L64.0897 36.2119C64.0845 36.2119 64.0687 36.2066 64.0581 36.2014L63.5793 36.1066C63.4109 36.0856 63.5529 36.1066 63.4372 36.0751C63.1056 35.9803 63.053 36.0751 62.8162 35.9593H62.7583C62.532 36.054 62.732 35.9751 62.6215 35.9646L62.532 35.9435C62.432 35.9225 62.4268 35.9277 62.3478 35.9225C62.1321 35.9014 61.9058 35.9067 61.6795 35.8961L61.0901 35.8435C60.8743 35.8383 61.1532 35.733 60.8954 35.8435H60.8375C60.6375 35.7593 60.0955 35.9172 59.6955 35.7225C59.585 35.7909 59.3219 35.7646 59.2166 35.7225H59.1588C59.0219 35.7804 58.7535 35.6962 58.6272 35.6909C58.4799 35.6856 58.3904 35.7014 58.2483 35.6909C57.9799 35.6804 57.2906 35.6488 57.18 35.6014H57.1222C56.8643 35.7067 57.18 35.5962 56.7485 35.5541C56.3749 35.5172 55.3803 35.5804 55.1435 35.4857H55.0856C54.8435 35.5857 55.0803 35.5172 54.9224 35.4857C54.9172 35.4857 54.9014 35.4804 54.8909 35.4751C54.5383 35.3909 54.333 35.4541 53.8647 35.3699C53.8594 35.3699 53.8384 35.3646 53.8331 35.3646C53.7226 35.3488 53.9226 35.2752 53.6963 35.3699L53.3384 35.3067C53.0858 35.2962 53.1648 35.3383 52.9753 35.2489H52.9174C52.6438 35.2278 52.7069 35.2068 52.4385 35.191C52.1649 35.1804 52.0965 35.2225 51.8965 35.1278H51.8386C51.6597 35.2015 51.7755 35.1489 51.6492 35.1173C51.6439 35.1173 51.6281 35.112 51.6176 35.1068C51.6123 35.1068 51.5913 35.1015 51.586 35.0962L50.8019 34.9963C50.7019 34.9857 50.8229 34.9542 50.7019 35.0015H50.644C50.5335 34.9594 50.1967 34.9331 49.9967 34.9173L49.0968 34.7384C48.9811 34.7173 48.7495 34.7384 48.539 34.6384H48.4811C48.3285 34.5753 48.3969 34.6226 48.2548 34.6068C48.1391 34.5963 48.2022 34.5963 48.0338 34.5647L46.7392 34.2753H46.6814L45.4184 34.0332H45.3026C45.1815 33.9859 45.2026 34.0069 45.05 33.9753L44.3764 33.8227C44.1185 33.7227 43.9764 33.749 43.566 33.6333C43.4186 33.5912 43.4449 33.6122 43.3186 33.5491H43.2607C43.0397 33.4438 42.9818 33.4859 42.8397 33.428H42.7818C42.6082 33.3438 42.4345 33.307 42.2345 33.2544C41.9819 33.1912 42.1661 33.2491 41.9662 33.1596C41.8662 33.1175 41.8346 33.1018 41.7609 33.0649H41.703C41.603 33.0176 41.5241 32.9912 41.4083 32.9334L40.0032 32.4334C39.998 32.4334 39.9506 32.4229 39.8875 32.4071L37.5562 31.8651H37.4983C37.3509 31.8545 37.0668 31.7967 36.9562 31.744H36.8984C36.7352 31.6756 36.3774 31.7493 36.1195 31.623H36.0616C35.909 31.5598 35.909 31.6072 35.7301 31.5756C35.6248 31.5598 35.5775 31.5441 35.5406 31.5335C35.3933 31.502 35.5459 31.5598 35.4038 31.502H35.3459V31.5598C35.3564 31.6704 35.367 31.7493 35.3722 31.7809L35.6248 32.4124C35.6301 32.4176 35.6354 32.4334 35.6406 32.4439L36.009 33.0649C36.1353 33.2912 36.1669 33.4596 36.551 33.7175L36.6721 33.8385C36.7615 33.8964 36.5352 33.8964 36.851 33.8964C36.73 34.1543 36.7352 34.5332 36.6352 34.8121L36.5826 35.2331C36.5879 35.7962 36.53 35.5436 36.6668 35.8014L36.7878 36.0435C36.7931 36.0488 36.7984 36.0645 36.8036 36.0698L37.4036 37.0276C37.5351 37.2697 37.7825 37.4644 37.7825 37.9064C37.7825 38.3274 37.6141 38.4906 37.393 38.8168C37.1878 38.9642 37.372 38.8274 37.2825 38.98C37.2299 39.08 37.2194 39.0852 37.1404 39.1642C37.0562 39.2484 37.0404 39.2536 36.9405 39.3273L36.8299 39.4062C36.7247 39.4904 36.4458 39.6799 36.23 39.6904C36.1616 39.6904 36.1563 39.6904 36.0827 39.6904C35.6354 39.7062 35.5406 39.5957 35.4143 39.6746C35.2249 39.7904 35.1512 40.4429 35.1354 40.6061C35.0881 41.0902 34.7776 40.8429 34.7197 41.4691C34.625 42.4901 34.6355 42.1112 34.1882 42.8953L33.9566 43.2215C33.804 43.432 33.8093 43.2952 33.6672 43.5057C33.4883 43.632 33.6514 43.4794 33.5198 43.732C33.5146 43.7373 33.504 43.7531 33.504 43.7636C33.3777 44.0162 33.4935 44.3688 33.4619 44.6635L33.1304 45.5949C33.1251 45.6002 33.1199 45.616 33.1146 45.6265L33.0673 45.7949C33.0567 45.8054 33.0515 45.8265 33.0462 45.8318L32.0937 46.9053C31.8674 47.1263 32.0516 47.2421 32.1411 47.3684L32.8041 48.0104C32.8094 48.0157 32.8252 48.021 32.8357 48.021L33.6619 48.6472C33.7409 48.7682 33.7619 48.7682 33.8356 48.8998C34.0882 49.3524 33.6619 50.5575 33.4935 50.768C33.1672 51.1732 33.383 51.0101 33.0357 51.4942L32.5989 52.2625C32.0726 53.3361 32.52 52.3309 31.6359 53.4045L31.599 53.4466C31.5938 53.4519 31.5832 53.4624 31.5832 53.4676L31.3885 53.8044C31.1254 54.3254 31.4254 53.9676 31.2412 54.2254C31.157 54.3465 30.9991 54.457 30.8938 54.5938L30.6623 54.9622C30.4834 55.0938 30.6518 55.0569 30.3676 55.2779L30.2992 55.3253C30.1045 55.42 29.8308 55.42 29.6361 55.3253H29.5782C29.4361 55.2306 29.4046 55.1464 29.2625 55.0727C29.0993 54.9885 28.9467 54.9569 28.8888 54.5307C28.8625 54.336 28.5836 54.1149 29.0467 53.3519L29.1151 53.2308C29.173 53.1256 29.1467 53.1151 29.3361 52.9835C29.4151 52.8677 29.3677 52.9203 29.4835 52.8309L29.594 52.7625C29.5993 52.7467 29.6203 52.7519 29.6308 52.7414C29.7414 52.6835 29.8308 52.652 29.9413 52.573C30.0466 52.4941 30.0571 52.4625 30.1729 52.3836C30.1834 52.3783 30.1992 52.3678 30.2097 52.3625L30.2939 52.2941C30.4202 52.1573 30.2466 52.373 30.3465 52.2204C30.6939 51.6784 30.5097 51.8047 30.8938 51.6521L31.599 50.9311C31.6043 50.9206 31.6253 50.8838 31.6306 50.8732C31.6359 50.868 31.6411 50.8522 31.6464 50.8417L31.7779 50.5733C31.799 50.5312 31.7727 50.5575 31.8253 50.4838C31.8779 50.4101 31.9358 50.3733 32.0042 50.3049C32.1463 50.1628 32.541 49.405 32.2095 49.4524L29.9571 49.4629C29.4467 49.3366 28.9888 49.4681 28.4415 49.2103C28.2205 48.9998 28.2258 48.9051 28.1573 48.7998C28.1521 48.7945 28.1416 48.7788 28.1416 48.7735C28.0837 48.6946 28.0942 48.7156 28.0258 48.6682L27.9363 50.0312C27.9363 50.1523 27.9889 50.4575 27.9889 50.5996C27.9889 50.7996 27.9995 50.6996 27.9626 50.9469C27.9363 51.1364 27.9363 51.0627 27.9363 51.21C27.9363 51.6994 27.7048 51.5995 27.7048 51.9994L27.7206 53.0045C27.7258 53.0782 27.7153 53.0203 27.7574 53.1414L27.9363 53.9676C27.9574 54.0939 27.8995 54.1202 27.9626 54.3202C28.0679 54.6622 28.3468 54.9675 28.5152 55.3464L28.5783 55.5042C28.5836 55.5095 28.5941 55.5253 28.5941 55.5358L28.7731 56.1305C28.7783 56.1778 28.7783 56.2147 28.7783 56.2199C28.7783 56.362 28.8046 56.5199 28.7467 56.6567C29.1677 56.6567 30.836 56.6778 31.0307 56.5988H31.0886C31.2359 56.662 31.1201 56.662 31.2675 56.5988H31.3254C31.4727 56.662 31.3569 56.662 31.5043 56.5988H31.5622H31.6201H31.678H31.7358H31.7937C31.9411 56.5357 31.8253 56.5357 31.9727 56.5988H32.0305C32.1779 56.5357 32.0621 56.5357 32.2095 56.5988H32.2674C32.4147 56.5357 32.2989 56.5357 32.4463 56.5988H32.5042C32.6726 56.5304 33.262 56.5725 33.4777 56.5673L37.1615 56.5199C37.3457 56.5778 37.3194 56.683 37.1878 56.7778H37.1299C36.6879 56.9883 36.9668 56.7514 36.8299 57.0777C36.6615 57.0777 36.4247 57.0882 36.3616 57.0988C36.1984 57.1356 36.2669 57.1514 36.109 57.2566H36.0511C35.6354 57.4566 35.7985 57.425 35.5196 57.625C35.4512 57.6776 35.4933 57.6461 35.4091 57.6934L35.3301 57.7355L35.1512 57.8566C34.8618 58.0565 34.8039 58.0197 34.5881 58.0986C33.7777 58.3933 33.704 58.2249 33.2146 58.3197L33.0883 58.346C32.9883 58.3565 33.1094 58.3881 32.9883 58.3407H32.9357C32.7883 58.4039 32.9041 58.4039 32.7568 58.3407H32.6989C32.5515 58.4039 32.6673 58.4039 32.52 58.3407H32.4621C32.3147 58.4039 32.4305 58.4039 32.2831 58.3407H32.2253C31.999 58.4354 30.0097 58.4197 29.5887 58.3933C29.2677 58.3723 28.5836 58.3986 28.4415 58.3407H28.3836C28.2363 58.4039 28.3521 58.4039 28.2047 58.3407H28.1468C27.9995 58.4039 28.1152 58.4039 27.9679 58.3407H27.91C27.6311 58.4565 27.889 58.2249 27.61 58.3407H27.5522C27.4048 58.2776 27.5206 58.2776 27.3732 58.3407H27.3153C27.1627 58.2776 27.0364 58.3091 26.8786 58.3091C26.7154 58.3091 26.647 58.2828 26.2944 58.2776H22.9264C22.6528 58.2776 22.3896 58.2776 22.137 58.2986C21.6581 58.3407 21.9739 58.4407 21.7266 58.3355H21.6687C21.5161 58.3986 21.1266 58.3828 21.0056 58.3355H20.9477C20.8846 58.3091 20.3846 58.2618 20.1478 58.246C19.9689 58.2355 19.7689 58.246 19.5795 58.246C19.09 58.246 15.1484 58.3249 14.88 58.2144H14.8222C14.6959 58.267 14.5275 58.267 14.4012 58.2144H14.3433C14.0644 58.3302 14.3222 58.0986 14.0433 58.2144H13.9854C13.8381 58.1513 13.9538 58.1513 13.8065 58.2144H13.7486C13.6013 58.1513 13.717 58.1513 13.5697 58.2144H13.5118C13.3171 58.1302 6.87051 58.1723 6.81262 58.1723C6.56529 58.1776 6.27059 58.1513 6.1285 58.2144H6.07061C5.7917 58.0986 6.04956 58.3302 5.77065 58.2144H5.71276C5.61804 58.2565 5.43385 58.2776 5.17072 58.2776C4.39713 58.2723 4.68657 58.0302 3.97087 57.7355C3.84457 57.5513 3.82878 57.6092 3.62881 57.4724L3.34463 57.2724C3.33937 57.2566 3.31832 57.2566 3.3078 57.2514C3.16045 57.1514 3.06046 57.0461 2.92363 56.9041C2.91311 56.8935 2.84996 56.8199 2.8447 56.8146C2.77628 56.6988 2.82891 56.8251 2.81312 56.7251C2.81312 56.7199 2.81838 56.6462 2.81838 56.6409C2.82891 56.5041 2.61841 56.4462 2.41843 56.2357L1.21332 54.7254C1.20806 54.7201 1.20279 54.7043 1.19753 54.6938L1.16596 54.6359C1.02387 54.3517 1.04492 54.478 1.02387 54.3096C0.981769 53.9992 0.987032 53.7676 1.10807 53.5255C1.11333 53.5203 1.11859 53.5045 1.12386 53.494C1.12912 53.4887 1.13438 53.4729 1.13438 53.4624C1.13964 53.4571 1.14491 53.4413 1.14491 53.4308C1.15017 53.4255 1.15543 53.4098 1.16069 53.3992C1.21858 53.2887 1.27647 53.2414 1.36593 53.1572L1.63958 52.9361C1.72905 52.9046 1.83956 52.9098 1.95007 52.9624H2.00796C2.52368 53.2098 3.10782 52.9519 3.22886 52.9203C3.41831 52.8782 3.61302 52.9203 3.80773 52.8888C4.03928 52.8519 3.92351 52.8151 4.16032 52.8046L5.31281 52.9624H5.3707C5.42859 52.9203 5.43911 52.9256 5.50752 52.8572L5.7075 52.5257C5.79696 52.3994 5.72329 52.5046 5.80222 52.373C5.84959 52.2941 5.80222 52.3625 5.87064 52.2573C6.29164 51.6468 5.91274 51.7994 6.16007 51.1995L6.27059 51.0416C6.32321 50.9627 6.339 50.9259 6.3811 50.8522C6.38636 50.8417 6.39689 50.8259 6.40215 50.8101C6.40741 50.7996 6.41794 50.7838 6.4232 50.7732C6.59686 50.4785 6.51266 50.5785 6.64949 50.2154L6.96524 49.6471C7.19679 49.3471 7.181 49.3629 7.61779 49.0892L7.94406 48.8787L8.3177 48.5262C8.33875 48.4946 8.25981 48.5209 8.42295 48.3999C8.56504 48.1841 8.68608 48.1578 8.79659 47.9683L9.71753 46.8106C9.79646 46.6632 9.78594 46.3527 9.80173 46.1212C9.6649 46.2159 9.68069 46.237 9.44388 46.2422C9.50176 45.9791 9.57018 46.137 9.38599 46.0002C9.35441 46.1422 9.35441 46.1054 9.31231 46.2528C9.24916 46.4527 9.10708 46.5896 8.90184 46.7895L8.72818 46.6632C8.46505 46.2685 8.63871 46.5159 8.54925 46.3001C8.20719 46.5475 8.67029 46.2896 8.40716 46.5264C8.2756 46.6422 8.29665 46.6001 8.0651 46.6001C8.09141 46.5475 8.15456 46.4054 8.17561 46.3527C8.21771 46.2475 8.1914 46.3317 8.20719 46.2528L8.32823 45.8949C8.52294 45.3634 8.60714 45.3108 8.60714 44.9161L8.31244 45.2581C8.25455 45.3423 8.32823 45.2739 8.24403 45.3371C8.20193 45.4002 8.18087 45.416 8.14404 45.4739L7.80197 46.0423C7.79671 46.0475 7.79145 46.0633 7.78619 46.0738C7.78093 46.0791 7.77566 46.0949 7.7704 46.1054C7.76514 46.1107 7.75987 46.1265 7.75461 46.137C7.61779 46.4264 7.602 46.3475 7.45465 46.6211L6.51792 48.784C6.51266 48.7945 6.5074 48.8103 6.50214 48.8209C6.49687 48.8314 6.49161 48.8472 6.48635 48.8577C6.33374 49.284 6.57055 49.0156 6.339 49.184C6.1706 49.4366 6.23375 49.305 5.98115 49.426C5.92326 49.2787 5.97062 49.3418 5.91274 49.1313C5.77065 48.6314 5.7917 47.0632 5.8759 46.8474C6.02325 46.4685 6.05482 46.1633 6.17586 45.8054L6.2548 45.5528C6.51266 45.0003 6.36531 45.1529 6.52845 45.0424C6.58634 44.9529 6.61265 44.9424 6.66001 44.8477C6.83367 44.5003 6.79157 44.6898 6.90209 44.4898L7.14416 44.132C7.37571 43.7478 7.39676 43.8373 7.54937 43.6057C7.45991 43.5478 7.4336 43.3742 7.09154 43.7373L6.98102 43.8373C6.63896 44.0899 6.55476 44.253 6.34952 44.3898L6.1706 44.6319L5.57067 45.4739C5.36544 45.6213 5.54962 45.4844 5.46016 45.637C5.4128 45.7212 5.42332 45.7107 5.34965 45.7896C5.21282 45.9423 5.19177 45.9949 4.96549 46.0107C5.06021 45.7844 4.8655 45.2055 5.08652 45.0476L5.37596 44.5214C5.53384 44.1793 5.52331 44.253 5.73381 43.9636L5.76539 43.9215C5.77065 43.9162 5.78117 43.9057 5.78117 43.9004L5.98115 43.611L5.26019 43.7899H5.2023C5.076 43.8478 5.10757 43.832 4.95496 43.8688L3.9814 44.1793C3.84983 44.2109 3.66565 44.2319 3.58145 44.2688H3.5183C3.33411 44.3477 3.49725 44.353 3.27622 44.2109C3.44462 43.9583 3.57618 43.8583 3.80247 43.7373C3.80773 43.732 3.82352 43.7267 3.83405 43.7215C3.83931 43.7162 3.8551 43.7057 3.86562 43.7004L5.56015 42.8847H5.61804L6.76 42.4059L6.99681 42.1954C7.07575 42.1164 6.9705 42.2006 7.11785 42.0954L8.17561 41.3007C8.2756 41.2271 8.23876 41.2428 8.35454 41.1744C8.72291 40.9481 8.68081 40.8903 8.83343 40.8061C9.02814 40.7008 8.99656 40.785 9.16496 40.7166H9.22285C9.40704 40.6429 10.1227 40.6903 10.349 40.685C10.528 40.685 10.6174 40.685 10.8016 40.685C11.0174 40.685 11.0016 40.6903 11.3279 40.7166H11.3857C11.5331 40.7797 11.4173 40.7797 11.5647 40.7166H11.6226C11.7699 40.7797 11.6541 40.7797 11.8015 40.7166H11.8594L12.9961 40.8008C13.6591 40.8218 13.696 40.9639 13.8591 40.7324C13.8644 40.7219 13.8802 40.6903 13.8907 40.6745L14.3696 40.0746C14.3748 40.0693 14.3854 40.0535 14.3906 40.0483C14.3959 40.043 14.4064 40.0272 14.4117 40.0167L14.5801 39.7693C14.6327 39.6957 14.5853 39.743 14.659 39.6641L15.1695 39.2747H15.2274L15.5221 39.0642C15.8273 38.8221 15.8957 38.8431 16.2483 38.6747H16.3062C16.4114 38.6221 16.5009 38.6063 16.6061 38.5537L17.3271 38.3116H17.385C17.706 38.159 17.7271 38.2748 17.927 38.1906H17.9849C18.1849 38.1064 18.6322 38.1274 18.7638 38.0696H18.8217C18.948 38.0169 19.1164 38.0169 19.2427 38.0696H19.3005L19.9005 38.0117C19.8215 37.817 19.9426 37.7591 19.7215 37.2907C19.7373 37.2802 19.911 37.1802 19.911 37.1802C20.1425 37.0118 19.811 37.0276 20.1899 36.8539C20.2952 36.8066 20.2741 36.8171 20.3899 36.7855C20.4057 36.7802 20.4425 36.775 20.4583 36.7697C20.4636 36.7697 20.4846 36.7645 20.4899 36.7592L20.9267 36.6276H20.9845C21.1056 36.5697 21.0793 36.5855 21.2319 36.5434L21.5897 36.4487L22.2633 35.7383C22.4896 35.512 22.7054 35.2962 22.8475 35.0173C22.8738 34.9699 22.8738 34.9647 22.879 34.9226C22.9159 34.7752 22.8527 35.0436 22.8948 34.8015C22.9212 34.6437 22.9211 34.6752 22.9527 34.5753L23.0053 34.4069C23.0053 34.4069 23.0369 34.3174 23.0474 34.2963C23.0527 34.2911 23.0632 34.2806 23.0685 34.2595C23.0685 34.2385 23.079 34.2332 23.0895 34.2227C23.1737 34.0964 23.2001 34.0227 23.2843 33.8753L23.921 32.8544C23.9263 32.8492 23.9316 32.8334 23.9368 32.8228C23.9421 32.8176 23.9473 32.8018 23.9473 32.7913C24.1315 32.4176 24.1315 32.7071 24.1684 32.3545C24.2105 31.9598 24.0315 31.9019 24.1526 31.3862C24.2052 31.1599 24.1947 31.1336 24.3789 30.9547C24.7051 30.6442 24.5578 30.6968 24.642 30.1811C24.7104 29.7759 24.6262 29.7653 24.763 29.4759V29.418L25.2051 28.1129C25.2103 28.0971 25.2367 28.0497 25.2524 28.0234C25.3366 27.8656 25.1682 28.0024 25.363 27.8603L25.6577 27.4393C25.6682 27.4288 25.6787 27.4182 25.6892 27.4077L25.8366 27.213C25.926 27.0762 25.905 27.092 26.026 27.0814C25.9945 27.013 25.8787 26.7446 25.8734 26.7341C25.8576 26.6447 25.9103 26.6183 25.9524 26.5868C25.9576 26.5815 25.9839 26.5815 25.9892 26.5657C25.9945 26.5499 26.0155 26.5499 26.026 26.5447L26.5154 26.3131C26.5891 26.2763 26.6838 26.2289 26.7575 26.1921L26.9891 26.0605C27.3311 25.8132 26.8259 26.071 27.168 25.8184L27.2785 25.65L26.9891 25.3974H26.9312L26.7523 25.2764C26.6417 25.1133 26.6681 25.1975 26.5312 25.0764L26.2471 24.6291C26.2365 24.6186 26.2102 24.5818 26.1997 24.5712C26.0734 24.3923 26.1629 24.487 26.0892 24.1502C25.9787 23.6398 26.1734 22.9293 26.6944 23.1767H26.7523L27.5943 23.5977C27.8521 23.2082 27.5101 23.5661 27.7837 22.982C27.8416 22.8557 27.7732 22.982 27.8469 22.8241L28.4784 22.0979C28.5678 22.0452 28.531 22.0715 28.6468 22.0452C28.8994 21.9873 29.4203 21.9663 29.6993 22.0979H29.7571C29.8992 22.1557 29.9519 22.1084 30.1781 22.2189H30.236L30.7044 22.3926C30.857 22.4715 30.8623 22.3978 31.0359 22.6557L31.3096 23.224C31.3096 23.2293 31.3148 23.2451 31.3201 23.2556V23.5398C31.2938 23.7134 31.2991 23.6187 31.2885 23.745L31.1991 24.387C31.3622 24.466 31.2096 24.4449 31.4096 24.4134C31.4254 24.4134 31.4675 24.3976 31.4832 24.3923L31.8621 24.266H31.92C32.0463 24.2134 32.4094 24.166 32.662 24.2607C32.9515 24.3713 32.4252 24.145 32.7357 24.2923C32.7462 24.2976 32.762 24.3028 32.7726 24.3081C32.9146 24.3818 32.8725 24.3292 32.9725 24.4712C33.0252 24.5449 32.9673 24.4502 33.0146 24.5502C33.283 25.0659 32.6357 25.2869 32.6357 25.2869H32.5778C32.52 25.3132 32.3937 25.3711 32.3305 25.3974L31.8411 25.5606C31.8043 25.5658 31.7358 25.5764 31.6201 25.5869L31.7937 25.8605C31.7937 25.8553 31.799 25.8763 31.8043 25.8869C31.92 25.8553 31.899 25.8763 31.9832 25.829H32.0411C32.2358 25.6974 32.1358 25.7763 32.2674 25.7237C32.2726 25.7237 32.4042 25.6606 32.4094 25.6606C32.5147 25.6027 32.4673 25.629 32.5252 25.5922L32.6463 25.5343V25.8974H33.1251C33.0567 26.0658 33.1304 26.0132 33.0883 26.1552L32.8252 26.8604C33.3251 26.8604 33.4777 26.6868 33.4672 27.0446C33.4462 27.6287 33.4198 27.2919 33.904 27.5235C33.9935 27.5814 33.7672 27.5814 34.0829 27.5814C34.0724 27.5972 34.0303 27.7077 34.0303 27.7077C33.9671 27.8392 34.004 27.7603 33.9619 27.8235C33.9514 27.834 33.9303 27.8393 33.9198 27.8445C33.4093 28.134 33.9198 28.2971 33.5672 28.6234C33.4725 28.7128 33.5567 28.6707 33.4198 28.7234L33.5619 28.8339C33.5672 28.8391 33.5777 28.8497 33.583 28.8549L34.1513 29.6127C34.7407 30.26 34.1355 29.9443 35.0986 30.4074L35.5617 30.5337C35.6248 30.5547 35.5459 30.5337 35.6564 30.56C35.8564 30.6021 36.0879 30.6336 36.2984 30.6494C36.3142 30.66 36.33 30.6652 36.3405 30.6705L36.9036 30.7915C37.0141 30.8073 37.2667 30.781 37.4983 30.8915H37.5562L38.6981 31.1336H38.756C38.9665 31.2336 39.4454 31.2704 39.6559 31.3757H39.7138C39.819 31.4283 39.9085 31.4441 40.0138 31.4967H40.0716C40.2032 31.5493 40.4821 31.5651 40.6137 31.6177H40.6716C40.9926 31.7703 40.9979 31.6335 41.3294 31.8598H41.3873C41.4925 31.9124 41.582 31.9282 41.6872 31.9808H41.7451C41.8504 32.0335 41.9398 32.0493 42.0451 32.1019L42.1346 32.1387C42.1451 32.144 42.1661 32.1492 42.1819 32.1545L42.7713 32.344C42.7818 32.3545 42.8029 32.3597 42.8134 32.3597C42.8239 32.365 42.845 32.3703 42.8555 32.3755C42.866 32.3808 42.8871 32.3861 42.8976 32.3913L43.1292 32.4597H43.1871C43.2923 32.5124 43.3818 32.5281 43.487 32.5808H43.5449C43.7028 32.6544 43.8186 32.665 43.8922 32.686C43.9449 32.7018 44.1554 32.7965 44.208 32.8176H44.2659C44.4501 32.8913 44.3132 32.8071 44.5185 32.8755C44.6132 32.907 44.6237 32.9176 44.6342 32.9228C44.65 32.9281 44.6869 32.9439 44.7027 32.9491L45.171 33.0544C45.1868 33.0649 45.2026 33.0702 45.2131 33.0754C45.2236 33.0807 45.2447 33.0912 45.2552 33.0912L46.1288 33.2965H46.1867L47.5655 33.5385H47.6233C47.7444 33.5859 48.1549 33.628 48.3338 33.6648C48.4759 33.6964 48.8916 33.7333 49.0074 33.7806H49.0653L50.1283 33.9332C50.2493 33.9332 50.2178 33.9227 50.3598 33.9438L51.165 34.0227H51.2229C51.386 34.0911 51.907 34.0964 52.1965 34.1122L53.27 34.2227C53.3489 34.2279 53.4489 34.2121 53.5647 34.2648H53.6226C53.7699 34.2016 53.6542 34.2016 53.8015 34.2648H53.8594C53.9857 34.3174 54.633 34.3542 54.7488 34.3542C54.9277 34.3542 55.1961 34.3121 55.3592 34.3805H55.4171C55.5645 34.4384 55.6908 34.4121 55.8223 34.4121C56.0223 34.4121 55.996 34.4279 56.317 34.4384C56.9801 34.4647 56.959 34.4647 57.4011 34.5016H57.459L58.6009 34.5595C59.3166 34.5542 59.7534 34.6331 60.427 34.6595C60.727 34.67 61.3585 34.691 61.4795 34.7437H61.5374C61.6374 34.7858 61.89 34.7805 62.1426 34.7963C62.4689 34.8173 62.6952 34.8173 62.8004 34.8594H62.8583C63.032 34.9278 63.1161 34.8752 63.3109 34.9015C63.6371 34.9436 63.595 34.9542 63.8792 34.9805H63.9371L65.3159 35.2225H65.3738C65.5843 35.3225 65.7737 35.2857 65.9158 35.3436H65.9737C66.1053 35.3962 66.3842 35.412 66.5157 35.4646H66.5736L67.2788 35.6067C67.2946 35.612 67.384 35.6278 67.3893 35.6278C67.6051 35.6646 67.5524 35.6278 67.7156 35.7067H67.7735C67.8998 35.7593 67.8629 35.7277 68.0261 35.7646L69.6364 36.1908H69.6943C69.8679 36.2645 69.7364 36.1961 69.9048 36.2382C70.0469 36.275 70.0258 36.275 70.1205 36.3014C70.2837 36.354 70.4679 36.3698 70.5942 36.4277H70.6521C70.9257 36.5592 71.3993 36.5961 71.5519 36.6697H71.6098C71.7151 36.7118 72.2045 36.7224 72.6939 36.7276C72.9939 36.7329 73.0939 36.7592 73.2202 36.7592C73.3623 36.7592 73.4412 36.7276 73.5938 36.7908H73.6517C73.799 36.8539 74.3042 36.8171 74.5832 36.8276L76.5987 36.9118H76.6566C76.8039 36.975 76.6881 36.975 76.8355 36.9118H76.8934C77.0407 36.975 76.925 36.975 77.0723 36.9118H77.1302L79.2299 37.1539H79.2878C79.5299 37.2539 80.2456 37.1276 81.1771 37.2276C81.6402 37.2802 82.4769 37.396 82.9032 37.2749L84.1977 37.2381C84.4714 37.2486 85.4081 37.1907 85.5923 37.2697H85.6502C85.7975 37.3328 85.6818 37.3328 85.8291 37.2697H85.887C86.0133 37.3223 86.1817 37.3223 86.308 37.2697H86.3659L88.8287 37.3907H88.8866C89.034 37.4538 88.9182 37.4538 89.0656 37.3907H89.1234C89.355 37.4854 89.8339 37.4644 89.997 37.4959C90.4338 37.5801 90.7811 37.5328 90.9864 37.6275H91.0443C91.1916 37.5644 91.0758 37.5644 91.2232 37.6275H91.2811C91.5021 37.717 92.1441 37.6801 92.302 37.7485H92.3599H92.5388H92.5967C92.7335 37.8064 93.0072 37.8012 93.3282 37.8327C93.4334 37.8433 93.4597 37.838 93.5703 37.838C93.6808 37.8433 93.665 37.8538 93.8597 37.8696H93.9176C94.086 37.938 94.5333 37.9117 94.807 37.9538C94.8912 37.9696 95.049 38.0064 95.1385 38.0222C95.2543 38.038 95.4016 38.0432 95.5437 38.1117H95.6016C95.7437 38.1695 95.9331 38.1327 96.1436 38.2327H96.2015C96.3436 38.2906 96.5331 38.2537 96.7436 38.3537H96.8014C96.9277 38.4064 97.0383 38.3906 97.2856 38.4327C97.4382 38.459 97.3172 38.4274 97.4908 38.5011C97.5961 38.5484 97.6224 38.5537 97.7013 38.5905H97.7592L98.2539 38.7432C98.317 38.7695 98.2381 38.7326 98.3486 38.7905C98.3591 38.7958 98.4012 38.8221 98.417 38.8326H98.4749C98.5433 38.88 98.6223 38.9168 98.6959 38.9694C99.017 39.1852 99.0748 39.6273 98.9117 39.8641C98.8907 39.8956 98.917 39.8641 98.8591 39.9272L98.7749 40.0062C98.5328 40.1903 97.7013 40.4324 97.4382 40.485L96.8751 40.5377H96.8172C96.7593 40.5587 96.5015 40.6113 96.4173 40.6219L96.1752 40.664C95.9489 40.7219 95.4963 40.7061 95.3174 40.7797H95.2595C94.9806 40.664 95.2385 40.8955 94.9596 40.7797H94.9017L93.2493 40.8639C93.0545 40.8692 93.1072 40.8639 92.9651 40.8534L90.6075 40.8218C90.3391 40.8218 89.8181 40.8376 89.6813 40.7797H89.6234L89.5023 40.8376C89.5865 40.8903 89.4445 40.8429 89.6392 40.885C89.7181 40.9008 89.7286 40.8955 89.8023 40.9008C90.0339 40.9271 89.9128 40.8639 90.1023 40.9587C90.2707 41.2113 90.3549 41.2902 90.5812 41.2007H90.639C90.7601 41.1429 90.739 41.1586 90.8864 41.1165C91.4021 40.9745 91.0653 41.0481 91.4179 41.1376C91.4074 41.5954 91.139 41.5007 90.818 41.9796C90.9706 42.0796 90.9811 42.1164 91.2442 42.1269C91.3442 42.1269 91.5337 42.1006 91.6547 42.0427H91.7126C91.8178 41.9901 91.9073 41.9743 92.0126 41.9217H92.0704C92.1915 41.8638 92.2599 41.8428 92.402 41.7691C92.5862 41.6744 92.6388 41.627 92.7756 41.6586C92.7861 41.6638 92.823 41.6744 92.8335 41.6796L93.044 41.748C93.2861 41.827 93.2966 42.1901 93.2282 42.4322C93.1545 42.6953 93.2282 42.5322 93.0387 42.6532C92.9809 42.69 93.0124 42.6427 92.8914 42.7427L92.4546 43.432C92.2546 43.8004 92.4388 44.1056 91.5337 44.0793C91.0706 44.0635 91.1548 44.0162 91.0969 44.5266C91.0758 44.7161 91.0758 44.7056 91.0548 44.9845V45.0424C90.9706 45.216 90.9759 45.2897 90.9548 45.395L90.7864 46.137C90.7864 46.1475 90.7811 46.1843 90.7811 46.1949C90.7496 46.5475 90.839 46.7632 90.8443 47.0421C90.8443 47.0527 90.8548 47.6105 90.8548 47.6157C90.7338 48.0841 89.5813 47.7157 89.5181 48.1157C89.4655 48.4472 89.3761 48.763 89.2129 49.0787C89.2076 49.084 89.2024 49.0998 89.1971 49.1103L89.134 49.305V49.3629C88.9393 49.6523 89.1234 49.5208 88.9866 49.8734L88.9287 50.0049C88.9077 50.0418 88.9077 50.0523 88.8603 50.1207C88.8182 50.1891 88.734 50.2996 88.7077 50.347C88.7025 50.3522 88.6972 50.368 88.6919 50.3733L88.1709 51.2206L86.8027 53.3677C86.8027 53.3729 86.7922 53.3887 86.7922 53.3992L86.729 53.6255V53.6834C86.5974 53.8834 86.629 53.9623 86.5343 54.1518L86.1291 54.899C86.0817 55.0148 86.1238 54.8675 86.0659 55.0517C86.0186 55.1885 86.008 55.2727 86.008 55.4884C86.0186 56.1357 86.108 56.0094 86.2501 56.0884H86.308H86.3659H86.4238H86.4817H86.5396C86.6869 56.0252 86.5711 56.0252 86.7185 56.0884H86.7764C86.9974 55.9989 87.6394 56.0357 87.7973 55.9673H87.8552C88.0025 55.9042 87.8868 55.9042 88.0341 55.9673H88.092C88.2972 55.8831 88.7919 55.92 89.0077 55.9779L89.1445 56.0094C89.355 56.0831 89.1655 56.0042 89.4129 56.2673C89.355 56.3515 89.3445 56.3778 89.3024 56.4567C89.2182 56.6094 89.134 56.783 88.9919 56.8935L88.5077 57.2198C88.4288 57.2672 88.413 57.2935 88.3341 57.3461H88.2762L88.0973 57.4671C88.0867 57.4777 88.0657 57.4829 88.0604 57.4882C88.0552 57.4935 88.0341 57.504 88.0236 57.5092C88.0131 57.5145 87.9973 57.525 87.9867 57.5303L86.8553 58.0513C86.8448 58.0565 86.829 58.0618 86.8237 58.0671C86.8132 58.0723 86.7974 58.0776 86.7869 58.0829C86.4027 58.2355 86.5553 58.0618 86.2975 58.1881H86.2396C86.0396 58.2723 86.0186 58.1565 85.6292 58.3565L85.0397 58.667H84.9819H84.924C84.8608 58.7091 84.745 58.7301 84.6135 58.7354Z" fill="white" fill-opacity="0.85"/>
</svg>
