<svg width="100" height="80" viewBox="0 0 100 80" fill="none" xmlns="http://www.w3.org/2000/svg">
<path fill-rule="evenodd" clip-rule="evenodd" d="M88.2944 31.0366H88.338C88.476 31.1311 88.4179 31.0511 88.5851 31.1602L88.7377 31.2619C88.8103 31.3128 88.8176 31.32 88.883 31.3636L88.963 31.4436L89.0429 31.5235C89.0502 31.5308 89.0647 31.5235 89.072 31.5381C89.0938 31.5962 89.0647 31.5163 89.1955 31.618L89.399 31.7851C89.4353 31.8142 89.4353 31.807 89.4789 31.836C89.5516 31.8869 89.5589 31.8942 89.6243 31.9378C89.7115 32.0032 89.8423 32.0686 89.9295 32.1776L89.9804 32.2575C89.9804 32.2648 89.9877 32.2721 89.9877 32.2793L90.0095 32.3229C90.0894 32.4901 90.1112 32.3157 90.0458 32.4828L89.588 32.0686L89.0066 31.7343H88.963C88.6068 31.4945 88.6141 31.5599 88.258 31.32H88.2144C88.1054 31.2474 88.04 31.2183 87.9237 31.1529C87.9165 31.1456 87.9019 31.1311 87.8946 31.1384L87.7638 31.0657C87.6984 31.0366 87.6476 31.0221 87.5894 30.993L87.088 30.7459C87.1897 30.6006 87.3351 30.7459 87.6766 30.8404L88.2944 31.0366ZM55.9255 31.8288C55.9182 31.836 55.9109 31.8433 55.9109 31.8578C55.9109 31.8724 55.8964 31.8796 55.8964 31.8869L55.751 32.1558C55.7438 32.1631 55.7365 32.1703 55.7365 32.1776L55.5839 32.4901C55.5621 32.5337 55.5476 32.5337 55.5185 32.5846C55.4313 32.6427 55.3441 32.8898 55.2714 32.9988C55.1042 33.1151 55.2351 33.0061 55.206 33.1514L55.1333 33.3476C55.1042 33.5657 55.1115 33.6311 55.1914 33.7401V33.7837C55.3295 34.118 55.4167 34.1906 55.3513 34.3578C55.2569 34.5976 55.3077 34.5758 55.2787 34.9901V35.0337C55.1624 35.2081 55.2569 35.0991 55.1987 35.2444V35.288C55.0388 35.6296 55.2787 36.022 54.9226 36.5089L54.254 37.5046C54.2031 37.5918 54.2467 37.5118 54.2176 37.57C54.2176 37.5772 54.2104 37.5845 54.2104 37.5918C54.2104 37.5991 54.2031 37.6063 54.2031 37.6136L54.174 37.679C54.0069 38.0206 54.0432 37.8171 53.9633 38.0932C53.9633 38.1005 53.956 38.1078 53.956 38.115C53.956 38.1223 53.9487 38.1296 53.9487 38.1368L53.6217 38.7836C53.5127 39.0089 53.5999 38.9217 53.4909 39.0017L53.4109 39.1979C53.4109 39.2051 53.4037 39.2124 53.4037 39.2197L53.1638 39.6266V39.6703C53.2002 39.7647 53.1566 39.8301 53.113 39.9537L52.8804 40.615C52.8804 40.6223 52.8732 40.6295 52.8732 40.6368L52.7351 40.8839C52.7351 40.8912 52.7278 40.8984 52.7278 40.9057L52.6188 41.3345V41.3781L52.5825 41.5162C52.5243 41.7269 52.6188 41.567 52.5025 41.7851C52.5025 41.7923 52.4953 41.7996 52.4953 41.8069L52.4662 41.8723C52.2918 42.2792 52.5316 42.3955 52.1392 42.4101C52.0665 42.4101 51.7467 42.3737 51.674 42.3446H51.6304C51.5578 42.3083 51.4924 42.2938 51.4197 42.2647H51.3761L51.1581 42.192C51.1508 42.192 51.1362 42.1848 51.129 42.1775L50.1115 42.1121C50.0243 42.1121 50.0461 42.1048 49.9226 42.0976H49.879C49.7773 42.054 49.8572 42.054 49.7555 42.0976H49.7118C49.6174 42.0612 49.3121 42.0758 49.1741 42.0176H49.1305C49.0069 41.9595 48.6363 41.8941 48.5055 41.8941C48.3746 41.8868 48.222 41.9086 48.1566 41.9159C48.0694 41.9231 48.0258 41.8941 47.9241 41.9377H47.8514L47.6334 42.0103C47.6261 42.0103 47.6116 42.0176 47.6043 42.0249H47.5607H47.5171C47.2918 42.1339 46.9648 42.1848 46.7104 42.1412C46.5433 42.1121 46.6305 42.1266 46.4779 42.0249L46.2816 41.8069C46.1654 41.8432 46.238 41.8141 46.1508 41.8577H46.1072C45.8819 41.9667 45.8747 41.8868 45.7293 41.9377H45.6857L45.4677 42.0103C45.4604 42.0103 45.4459 42.0176 45.4386 42.0249C45.3369 42.0685 45.4168 42.0685 45.3151 42.0249H45.2715C45.1552 41.9231 45.2715 41.9013 45.3514 41.7851L45.4241 41.6397C45.4241 41.6324 45.4314 41.6252 45.4386 41.6179C45.4386 41.6106 45.4459 41.6034 45.4459 41.5961C45.4532 41.5888 45.4604 41.567 45.4677 41.5598L45.5404 41.458C45.5767 41.4144 45.584 41.4072 45.613 41.3636L45.6785 41.2618C45.6785 41.2545 45.6857 41.24 45.693 41.2327L45.8238 41.0147C45.8238 41.0074 45.8311 41.0002 45.8383 40.9929C45.8965 40.8839 46.1799 40.2662 46.2744 40.1717L46.3616 40.1063C46.3979 40.0772 46.3979 40.0845 46.4561 40.0409C46.6595 39.8665 46.7976 39.8083 46.8485 39.7284L47.3863 38.9799C47.3863 38.9799 47.3936 38.9653 47.4008 38.9653L47.5825 38.7546C47.6697 38.6383 47.6043 38.7255 47.6334 38.6746C47.6479 38.6528 47.5534 38.6892 47.6988 38.5801L47.7933 38.4421C47.8877 38.2749 47.9386 38.2604 47.9749 38.1514C48.0186 38.0278 47.9313 38.224 47.9895 38.0787C48.0694 38.0206 48.0258 38.0351 48.113 37.8752L48.1712 37.7662C48.2293 37.679 48.193 37.7153 48.2729 37.6645L48.4837 37.2502C48.5854 37.1775 48.5127 37.2502 48.6145 37.0322C48.6145 37.0249 48.6217 37.0177 48.6217 37.0104C48.7017 36.836 48.7235 36.8868 48.818 36.7488C49.0432 36.6034 48.8761 36.6398 49.036 36.4653L49.2758 36.1674L49.3194 36.0874L49.8209 35.4188C49.9517 35.3244 49.8063 35.4261 49.9226 35.2662L50.206 34.8883C50.2424 34.8447 50.2496 34.8447 50.2787 34.8011C50.2787 34.7938 50.286 34.7866 50.2932 34.7793L50.831 34.1761C50.9836 33.9799 50.7438 34.1398 50.9473 34.0017L51.1581 33.7546L51.2816 33.6747C51.4051 33.4857 51.3761 33.6093 51.5432 33.4784L51.8267 33.2604C51.8848 33.2314 51.9357 33.2168 52.0011 33.1878L52.161 33.0933L52.5025 32.9334C52.5461 32.9116 52.6188 32.8753 52.6697 32.8462C52.7423 32.8098 52.8005 32.788 52.8732 32.759H52.9168C52.9386 32.7444 52.9894 32.7299 53.004 32.7226C53.0839 32.6863 53.0403 32.7008 53.0839 32.679C53.0984 32.6718 53.1275 32.65 53.1348 32.65L53.3165 32.5773C53.4255 32.5264 53.3819 32.541 53.4473 32.5046L54.1231 32.1849L54.9952 31.7706L55.4531 31.5235H55.4967C55.7728 31.3346 55.8746 31.2619 56.2452 31.2328C56.1653 31.4218 56.267 31.2038 56.2161 31.3782C56.1362 31.6325 56.1653 31.3636 56.0417 31.7052C55.9836 31.7197 55.9618 31.7633 55.9255 31.8288ZM90.1693 32.6209C90.0313 32.57 90.1403 32.6718 90.0458 32.4974C90.1766 32.5482 90.0749 32.4392 90.1693 32.6209ZM90.2057 32.6645H90.1621V32.6209L90.2057 32.6645ZM90.3728 32.868V32.9116L90.3292 32.868H90.3728ZM74.7698 41.9813H74.7262C74.6462 42.0394 74.4645 42.1848 74.4282 42.2792C74.3265 42.5045 74.3192 42.7153 74.3337 42.9696C74.3483 43.3475 74.6171 42.8388 74.3483 43.6964C74.3046 43.8345 74.3846 43.8781 74.3192 44.0307C74.2465 44.1833 74.2538 44.2051 74.1666 44.2124L73.6506 44.1906C73.7233 44.0161 73.6288 43.3475 73.6942 43.035L73.7305 42.817V42.7734C73.8032 42.5917 73.7378 42.7807 73.7523 42.6571C73.7523 42.6499 73.7523 42.6208 73.7523 42.6135L73.8541 42.3083C73.8686 42.0685 73.8177 41.647 73.8977 41.5234H73.9413C73.9631 41.538 74.014 41.5525 74.0285 41.5598C74.1084 41.5961 74.0648 41.5816 74.1084 41.6034C74.2465 41.6688 74.2683 41.6324 74.4355 41.676C74.4427 41.676 74.4645 41.6833 74.4718 41.6906C74.4791 41.6906 74.4863 41.6979 74.4936 41.6979L74.9805 41.8577C74.8279 41.9159 74.9805 41.8505 74.8715 41.9159C74.8061 41.9595 74.8279 41.9522 74.7698 41.9813ZM17.8081 60.9564H16.3401C16.231 60.9491 16.1584 60.9273 16.1438 60.9055C16.1075 60.8329 16.1366 60.8983 16.1584 60.8256L16.1729 60.782C16.1874 60.7093 16.1729 60.7311 16.1729 60.6802C16.1802 60.4913 16.2165 60.6366 16.2383 60.4186C16.1366 60.4913 16.1293 60.5204 16.0421 60.593C15.8604 60.7456 16.0566 60.5858 15.8677 60.6657H15.8241C15.7223 60.7093 15.8023 60.7093 15.7005 60.6657H15.6569C15.5261 60.5712 15.6206 60.6657 15.5915 60.5712C15.5479 60.4477 15.4898 60.157 15.5261 59.9971L15.5479 59.9317C15.5479 59.9244 15.5552 59.9172 15.5624 59.9026C15.5624 59.8881 15.5697 59.8808 15.577 59.8736C15.6569 59.7573 15.6424 59.75 15.7005 59.6265C15.8386 59.532 15.7223 59.6192 15.7805 59.5102L16.1656 58.798C16.1729 58.7835 16.093 58.8053 16.231 58.7035L16.311 58.6236C16.4345 58.4346 16.5871 58.4128 16.6453 58.1657H16.6017H16.5581C16.4563 58.1221 16.5363 58.1221 16.4345 58.1657H16.3909H16.3473H16.3037H16.2601H16.2383C16.1148 58.1149 16.0566 58.1875 15.9476 58.0422C15.9185 57.9768 15.8895 58.0785 16.013 57.955L16.0276 57.9404C16.1438 57.8242 16.0348 57.8823 16.1511 57.7951C16.1729 57.7515 16.1947 57.7079 16.2165 57.657C16.42 57.1701 16.3982 57.5117 16.6889 56.9666C16.8052 56.8794 16.8052 56.7486 16.9796 56.6323L17.4229 56.0437L17.4374 56.0291L17.997 55.455C18.0552 55.3823 17.9098 55.4913 18.0552 55.3823L18.3022 55.1352L18.404 55.0771C18.4549 55.0408 18.4403 55.0553 18.4767 55.0262C18.5203 54.9899 18.5857 54.9245 18.6147 54.8809C18.6365 54.8518 18.6583 54.8082 18.6656 54.8082C18.6656 54.8082 18.6729 54.7937 18.6801 54.7937L18.7528 54.6992C18.7964 54.6483 18.7528 54.6847 18.8037 54.6483L18.9999 54.2849C18.9999 54.2777 19.0072 54.2704 19.0144 54.2631C19.1453 54.0597 19.1453 54.2268 19.1525 53.8634C19.1598 53.66 19.1889 53.8925 19.2397 53.4637C19.2543 53.3257 19.3124 53.2966 19.3415 52.9768V52.9332C19.4142 52.8169 19.3778 52.8751 19.4069 52.7951C19.4142 52.7806 19.3996 52.7879 19.4287 52.7225C19.4505 52.6571 19.4432 52.6789 19.4723 52.6425L19.5377 52.0902C19.5595 51.8504 19.5886 52.003 19.6685 51.7777L19.7194 51.596V51.5524V51.4289V51.3853C19.7194 51.189 19.7194 51.3053 19.6758 51.2617L19.7412 50.8765C19.7557 50.7893 19.7848 50.7748 19.8139 50.6731L19.8357 48.6019C19.8066 48.224 19.8647 48.0132 19.7557 47.9333H19.7266H19.683H19.6394C19.3633 48.1222 19.1816 48.4565 18.9854 48.5147L18.92 48.5292C18.9127 48.5292 18.8982 48.5292 18.8982 48.5292C18.8909 48.5292 18.8618 48.5292 18.8473 48.5219H18.8037C18.7165 48.5583 18.5203 48.5655 18.4258 48.6019H18.3822C18.2732 48.6455 18.3604 48.6091 18.2586 48.6309C18.2441 48.6309 18.1351 48.66 18.1278 48.66C18.0261 48.6745 18.0261 48.6455 17.9243 48.6891H17.8807C17.779 48.6455 17.7572 48.6818 17.5973 48.6455C17.4229 48.6091 17.5028 48.6309 17.3429 48.5219H17.2993C17.2121 48.4856 17.1758 48.4856 17.0886 48.5219H17.045C16.9432 48.4783 17.0232 48.4783 16.9214 48.5219H16.8778H16.8342H16.8197C16.718 48.5655 16.7979 48.5655 16.6962 48.5219H16.6525C16.5508 48.5655 16.6307 48.5655 16.529 48.5219H16.4854L16.1656 48.5074C16.1584 48.5074 16.1511 48.5001 16.1438 48.5001C15.8822 48.4347 15.9767 48.3984 15.7805 48.2676C15.6642 48.0859 15.6642 48.2022 15.5697 47.9623C15.4607 47.6934 15.5116 46.4725 15.5188 46.4434C15.5988 46.2327 15.7005 46.1091 15.9113 46.0147C15.9113 46.0147 15.9767 45.9783 15.9839 45.9783L16.1075 45.8984L16.1874 45.8185C16.2964 45.7385 16.2456 45.6949 16.2528 45.5786V44.2269C16.2601 44.0016 16.2528 44.1542 16.1802 43.9798C16.1729 43.958 16.1584 43.8272 16.1438 43.6964V43.6528C16.0566 43.5292 16.0784 43.5728 16.0784 43.4566C16.0784 43.3548 16.1148 43.3548 16.013 43.2821C16.0058 43.1586 15.9331 42.9551 15.9113 42.8752C15.8967 42.8388 15.904 42.8461 15.8749 42.788C15.7805 42.5917 15.8822 42.7007 15.7659 42.6135L15.3154 41.5016C15.2645 41.3636 15.2281 41.3345 15.2063 41.0656C15.0828 39.6557 15.5261 39.8083 15.2427 39.1107L15.17 38.9653C15.1627 38.958 15.1627 38.9072 15.1482 38.8708V38.8272L15.0683 38.7037C14.9665 38.6601 15.0465 38.6601 14.9447 38.7037H14.9011C14.8139 38.6674 14.7848 38.6819 14.6468 38.6746C14.6031 38.6746 14.4505 38.6601 14.3415 38.6456C14.1962 38.631 14.0581 38.6674 13.9418 38.6165H13.8982H13.8546H13.811C13.7165 38.5801 13.4549 38.6019 13.2369 38.5438L12.561 38.3767C12.5537 38.3767 12.5465 38.3694 12.5392 38.3694L12.1904 38.2894H12.1468L11.5218 38.1223C11.5145 38.115 11.5 38.115 11.4927 38.1078L11.1366 38.0206C11.1293 38.0206 11.1148 38.0133 11.1148 38.0133L10.9113 37.9406C10.9041 37.9406 10.8968 37.9333 10.8895 37.9333L10.5116 37.7226C10.5043 37.7081 10.4971 37.7153 10.4825 37.7081L10.1773 37.5554C10.17 37.5409 10.1628 37.5482 10.1482 37.5409C10.1119 37.5191 10.0392 37.4973 10.0029 37.4755C9.89389 37.4101 9.98836 37.461 9.90842 37.4028C9.78488 37.3084 9.82848 37.352 9.6904 37.2866L9.47965 37.0395L9.24709 36.7778L9.13808 36.647C9.05087 36.5307 9 36.3781 9 36.2328V36.1964C9 36.1238 9.01453 36.0511 9.0436 35.9857C9.19622 35.913 9.32703 35.8985 9.50145 35.9857L9.91569 36.2328H9.95929C10.032 36.2691 10.0974 36.2837 10.17 36.3127H10.2137C10.3663 36.3781 10.8096 36.3491 10.9186 36.3927H10.9622C11.0639 36.3491 10.984 36.3491 11.0857 36.3927H11.1293C11.391 36.4145 11.1947 36.4726 11.4273 36.5162C11.5145 36.5307 11.6889 36.5162 11.7979 36.5235C12.0305 36.538 12.0014 36.538 12.2558 36.5598H12.2994H12.4229H12.4665C12.5683 36.6034 12.4883 36.6034 12.5901 36.5598H12.6337C12.7354 36.6034 12.6555 36.6034 12.7572 36.5598H12.8008C12.9026 36.6034 12.8226 36.6034 12.9244 36.5598H12.968C13.0697 36.6034 12.9898 36.6034 13.0915 36.5598H13.1133C13.2151 36.6034 13.1351 36.6034 13.2369 36.5598H13.2805H13.404H13.4476H13.5712H13.6148H13.7383H13.7819C14.1017 36.5307 14.7921 36.5453 15.0029 36.4944C15.0101 36.4944 15.0174 36.4871 15.0247 36.4871C15.0319 36.4871 15.0392 36.4799 15.0465 36.4799L15.1264 36.4581C15.1918 36.4435 15.2863 36.4072 15.388 36.3781C15.5116 36.3418 15.5479 36.3563 15.6497 36.3055H15.6933L15.9912 36.2401C15.9985 36.2401 16.0058 36.2328 16.013 36.2328L16.0857 36.2037C16.1656 36.1819 16.1293 36.1819 16.231 36.1819L16.7325 36.2255H16.7761C16.8996 36.2764 17.1613 36.2328 17.3139 36.3055H17.3575H17.4011H17.4447H17.4883H17.5319C17.7354 36.3927 18.2732 36.3345 18.404 36.3854H18.4476C18.5493 36.3418 18.4694 36.3418 18.5711 36.3854H18.6147C18.8182 36.3999 18.949 36.4363 19.0726 36.3854H19.1162H19.2397H19.2833H19.4069H19.4505C19.5958 36.3273 19.4868 36.4145 19.6612 36.3055L20.199 35.9712L20.8676 35.6369L20.9476 35.5569C20.8386 35.4842 20.7877 35.4842 20.7586 35.3607C20.7513 35.3171 20.7368 34.8592 20.824 34.6848V34.6412L21.4926 33.6456L21.8269 33.3113C21.9795 33.086 22.2048 32.9552 22.3792 32.7372C22.4519 32.65 22.4156 32.679 22.4301 32.6572L22.7426 32.2285L23.0042 32.054C23.2731 31.9087 23.1278 31.945 23.324 31.8142C23.433 31.6543 23.4475 31.7415 23.5057 31.5163C23.5638 31.291 23.7528 31.2474 23.949 31.0439C23.9853 31.0075 23.9708 31.0293 23.9853 31.0003C24.0435 30.9131 23.9708 31.0293 24.0289 30.8985C23.3603 30.5497 23.8545 30.7096 23.622 30.5206C23.4984 30.4261 23.1787 30.3753 23.3676 29.9828C23.4257 29.9538 23.4766 29.9392 23.542 29.9102C23.8473 29.7576 23.7164 29.7794 24.1161 29.7794C24.0725 29.6703 24.058 29.5613 24.1597 29.4887L24.3269 29.3215C24.5013 29.2052 24.5813 29.1762 24.8283 29.1544H24.872L25.0391 28.9872C25.1336 28.9218 25.1336 28.8927 25.2208 28.8346C25.3153 28.7619 25.3153 28.791 25.417 28.7401H25.4606C25.5624 28.6965 25.5769 28.711 25.7004 28.7547L25.8385 28.8273H25.8821C25.9911 28.8709 26.3981 28.8927 26.478 28.8927C26.8196 28.8927 26.9141 28.9145 27.0667 28.7619L27.6481 28.2895C27.6481 28.2823 27.6554 28.275 27.6626 28.2677C27.8443 28.0134 27.8443 28.0788 28.0115 27.9988C28.0187 27.9916 28.0333 27.9843 28.0405 27.9843C28.2077 27.8826 28.2876 27.8172 28.3676 27.6791C28.4257 27.5773 28.2949 27.6863 28.433 27.5846L28.5129 27.5047C28.6074 27.3666 28.6074 27.4829 28.76 27.4247H28.8036C28.9053 27.3593 28.9272 27.352 28.9708 27.2285C28.9708 27.2212 28.978 27.214 28.978 27.2067L28.9926 27.134C28.9926 27.1268 28.9926 27.1122 28.9926 27.105C28.9926 27.0977 28.9853 27.0904 28.9853 27.0759C28.9853 27.0614 28.978 27.0541 28.978 27.0468C28.9708 27.0396 28.9562 27.0323 28.9562 27.0323L28.8399 26.8942C28.7237 26.6762 28.8835 26.8942 28.7382 26.6035L28.7091 26.5381C28.6655 26.4582 28.7745 26.5817 28.6583 26.4582C28.6147 26.4073 28.6074 26.4146 28.5638 26.3855H28.5202C28.3312 26.2474 28.5783 26.3782 28.3603 26.0076C28.3167 25.9349 28.3458 26.0003 28.3167 25.9349L28.2222 25.666C28.2077 25.6079 28.2004 25.5352 28.1931 25.3826V25.339C28.2077 25.1282 28.2658 25.2227 28.3167 25.0992C28.3167 25.0919 28.324 25.0846 28.324 25.0774C28.324 25.0701 28.324 25.0556 28.3312 25.0556C28.3458 24.9102 28.2222 24.3652 28.1495 24.2634C28.0914 24.307 28.0769 24.3216 28.0187 24.3579C27.9243 24.4088 28.0551 24.3434 27.9606 24.387C27.7208 24.4814 27.5681 24.4378 27.3937 24.387L27.1321 24.2925C27.0667 24.2634 27.0376 24.2561 26.9868 24.2271C26.9795 24.2198 26.965 24.2125 26.9577 24.2125C26.9504 24.2125 26.9359 24.198 26.9286 24.198C26.7469 24.089 26.8051 24.1689 26.6525 24.0672L26.3908 23.8201C26.3836 23.7983 26.3763 23.7692 26.3618 23.7329C26.2237 23.6384 26.26 23.653 26.2019 23.5367L26.1583 23.4567C26.1292 23.3913 26.1437 23.4495 26.1365 23.3768C26.1219 23.2896 26.1437 23.3041 26.1001 23.1515L26.0783 23.0643C26.0783 23.057 26.0711 23.0498 26.0711 23.0425L26.1219 22.5628C26.1655 22.4538 26.0493 22.4102 26.369 22.1995C26.4199 22.1704 26.3545 22.1922 26.4562 22.1631C26.6743 22.0977 26.7978 22.1849 26.9504 22.2867L27.074 22.3666C27.2702 22.4611 27.212 22.3957 27.3792 22.5628C27.4664 22.6573 27.5173 22.7155 27.619 22.7809H27.6626C27.7353 22.8172 27.8007 22.8317 27.8734 22.8608H27.917C27.9751 22.8899 28.0042 22.9044 28.0914 22.9189C28.135 22.9262 28.2077 22.9335 28.2149 22.8826C28.2149 22.8826 28.2149 22.8681 28.2222 22.8608C28.2222 22.8535 28.2295 22.8245 28.2295 22.8099V22.73C28.2295 22.7009 28.2295 22.6355 28.2295 22.5628C28.2295 22.3594 28.3821 21.669 28.4693 21.4873V21.4437C28.5129 21.3347 28.4766 21.3419 28.4984 21.2475C28.6147 20.7678 28.5783 20.7969 28.7963 20.4989L28.8545 20.4117C28.8545 20.4117 28.8617 20.3972 28.869 20.3972L29.1742 20.1137C29.276 20.0483 29.2469 20.0483 29.3777 19.9829C29.4431 19.9466 29.5231 19.9103 29.603 19.8739C29.8428 19.7576 29.821 19.8448 29.9664 19.7867H30.01C30.1263 19.7358 30.4533 19.7649 30.5841 19.7649C30.7222 19.7649 31.0202 19.7358 31.1364 19.7867H31.18C31.2745 19.8303 31.4053 19.8012 31.5579 19.8667H31.6015C31.6742 19.8957 31.6888 19.8885 31.8123 19.903C31.9504 19.9248 31.9576 19.9175 32.0303 19.9466C32.2047 20.012 32.2556 20.1137 32.3864 20.2009C32.3937 20.2082 32.4082 20.2155 32.4155 20.2155C32.6408 20.3463 32.5826 20.3681 32.7425 20.4698C32.7498 20.4771 32.7643 20.4844 32.7716 20.4844L32.8515 20.528L33.0623 20.6951L33.1422 20.7751L33.2658 20.855C33.3094 20.8841 33.3166 20.8768 33.3603 20.9277C33.4257 20.9931 33.3966 20.9786 33.4111 21.0076L33.4838 21.1748C33.4911 21.182 33.4983 21.1893 33.4983 21.2038C33.6945 21.5091 33.5928 22.2867 33.5928 22.6428C33.6727 22.6646 33.6582 22.6501 33.7164 22.6864C33.7672 22.7155 33.7091 22.7082 33.7963 22.7155C33.869 22.7227 33.8254 22.7155 33.8835 22.6864H33.9271C34.0288 22.73 33.9489 22.73 34.0507 22.6864H34.0943C34.196 22.73 34.1161 22.73 34.2178 22.6864H34.2614C34.3631 22.73 34.2832 22.73 34.385 22.6864H34.4286C34.5303 22.73 34.4504 22.73 34.5521 22.6864H34.5957C34.6974 22.73 34.6175 22.73 34.7192 22.6864C34.7265 22.6937 34.7411 22.6937 34.7483 22.7009C34.7556 22.7009 34.7701 22.7082 34.7774 22.7155L34.9009 22.7445C34.9082 22.7445 34.9736 22.7591 34.9809 22.7591L35.1553 22.8027C35.2716 22.8317 35.2134 22.8099 35.3006 22.8535H35.3442C35.4823 22.9117 35.6495 22.8245 35.8748 23.028C36.1146 23.246 36.2672 23.791 36.0564 24.1762L35.8384 24.3942H35.7948H35.7512H35.7076C35.6059 24.4669 35.6204 24.4524 35.5841 24.605L36.0564 24.8375C36.0637 24.8303 36.071 24.8448 36.0855 24.8521C36.1437 24.8811 36.1945 24.8957 36.2599 24.9247L36.3907 24.9974C36.398 24.9902 36.4053 25.0047 36.4198 25.012C36.4925 25.0483 36.5579 25.0628 36.6306 25.0919H36.6742C36.8195 25.1646 36.9649 25.2009 37.0811 25.3099C37.2047 25.4189 37.2556 25.5061 37.4009 25.6151L37.5099 25.6951C37.9314 26.0221 37.7715 25.8186 37.975 25.9567C38.0404 26.0003 37.9678 25.9567 38.0477 26.0149C38.1276 26.1311 38.1858 26.1529 38.2657 26.2547C38.4038 26.4291 38.2149 26.2692 38.3893 26.4654C38.4329 26.5163 38.4692 26.5381 38.5128 26.589L38.709 26.8506C38.7817 26.9596 38.8399 26.9887 38.9125 27.105C38.9416 27.1558 38.9561 27.1849 38.9925 27.2358C39.0288 27.2866 39.0433 27.2939 39.0797 27.352L39.1669 27.4538C39.1669 27.4538 39.1742 27.4683 39.1814 27.4683C39.1814 27.4683 39.1887 27.4829 39.196 27.4829C39.2614 27.5628 39.2323 27.5919 39.3776 27.6863C39.4866 27.8462 39.443 27.8608 39.5957 28.0134C39.6611 28.0788 39.6683 28.0715 39.7192 28.1587C39.7773 28.2605 39.6538 28.1733 39.7919 28.275L39.8718 28.3549C39.9227 28.4567 40.0462 28.711 40.1189 28.7692C40.2061 28.9 40.2134 28.8419 40.3151 29.0235C40.4023 29.1762 40.4459 29.1689 40.5186 29.2779C40.6349 29.4378 40.4823 29.336 40.6204 29.4305C40.6858 29.525 40.9547 29.8157 41.0564 30.0046L41.1218 30.0991C41.2308 30.259 41.2163 30.1573 41.3253 30.3825C41.3253 30.3898 41.3326 30.3971 41.3326 30.4043L41.4561 30.6514C41.536 30.8113 41.7032 30.9058 41.8703 31.0148L41.9212 31.0511C42.1174 31.1674 42.1102 31.0947 42.241 31.182L42.5753 31.3491C42.7715 31.4799 42.9459 31.6834 43.1131 31.8506C43.2875 32.0104 43.411 32.2139 43.6145 32.352H43.6581L43.7817 32.4319H43.8253C44.2831 32.65 44.5084 32.3447 44.6974 32.1994L45.2061 31.8142C45.286 31.7488 45.2787 31.7343 45.366 31.6834C45.4459 31.5671 45.395 31.6325 45.4895 31.5599L45.5258 31.5308C45.5331 31.5308 45.5404 31.5235 45.5404 31.5163L45.7075 31.3564C45.7075 31.3418 45.7221 31.3491 45.7293 31.3418C45.8165 31.2837 45.8238 31.2619 45.9037 31.182C46.0854 31.0003 45.9691 31.1674 46.2162 30.9567L46.3907 30.8404C46.5215 30.7532 46.5651 30.6587 46.7032 30.5715C46.8194 30.4988 46.754 30.5642 46.8776 30.4552C46.9502 30.3971 46.9284 30.3971 47.0157 30.3389L47.3936 30.0046C47.459 29.9756 47.5026 29.9683 47.568 29.9247C47.6188 29.8956 47.6334 29.8738 47.6842 29.8375C47.8587 29.7139 47.8659 29.7721 48.0185 29.6703C48.0258 29.6631 48.0404 29.6558 48.0476 29.6558L48.6435 29.336L48.8543 29.1689L48.9342 29.089L49.0578 29.009L49.6101 28.6093C49.6174 28.6093 49.6246 28.602 49.6319 28.602L49.7046 28.573C49.8645 28.5003 49.8136 28.5076 49.9299 28.4276C49.9371 28.4204 49.9517 28.4131 49.9517 28.4131C50.1406 28.275 50.1479 28.1733 50.3296 28.0933C50.3368 28.0933 50.3441 28.0861 50.3514 28.0861L50.395 28.0715C50.4022 28.0715 50.4095 28.0643 50.4168 28.0643C50.4459 28.0497 50.4822 28.0352 50.5113 28.0134L50.6857 27.9189C50.7729 27.8826 50.7075 27.9334 50.8456 27.8462L51.1435 27.73C51.2162 27.6936 51.1871 27.7081 51.2235 27.6791L51.5578 27.5119L51.8921 27.3448C51.9938 27.2939 52.0665 27.2648 52.1755 27.214C52.2554 27.1704 52.3426 27.1413 52.4298 27.0977H52.4734C52.5171 27.0686 52.5243 27.0541 52.5679 27.0323C52.6115 27.0032 52.6188 27.0032 52.6551 26.9887L53.0984 26.7634H53.142L53.8615 26.4218C53.8688 26.4218 53.8761 26.4146 53.8833 26.4146L53.9269 26.4C53.956 26.3855 53.9923 26.3637 54.0214 26.3492H54.065C54.174 26.2983 54.254 26.291 54.3048 26.2765C54.3412 26.2619 54.4865 26.2038 54.5229 26.182H54.5665L54.6391 26.1457C54.9298 26.0076 54.7554 26.0585 54.9444 25.9349H54.988C55.0606 25.8986 55.126 25.884 55.1987 25.855L55.3877 25.7532C55.6057 25.6442 55.7801 25.6151 55.9109 25.5279L56.2452 25.3608C56.6086 25.1864 56.5068 25.448 56.6958 25.0774C56.6958 25.0701 56.7031 25.0628 56.7031 25.0556L56.8339 24.8666C56.8702 24.8303 56.8848 24.8157 56.9138 24.7794C56.972 24.7067 56.9502 24.7213 56.9647 24.6995L57.2772 24.2707L57.735 23.6384C57.7859 23.5003 57.9603 23.1878 57.9676 23.0788C57.9749 22.9916 57.9531 22.9989 57.9749 22.9117C57.9749 22.9044 57.9821 22.8753 57.9894 22.8681L58.033 22.7445C58.0766 22.5992 58.0112 22.5774 58.0839 22.3303C58.1565 22.0541 58.2147 22.1486 58.2219 21.9742C58.2365 21.4945 58.1347 21.5599 58.2728 21.3783L58.3092 21.3274C58.3164 21.3129 58.36 21.2402 58.36 21.2329V21.1893C58.2728 21.0585 58.2728 21.1021 58.36 20.9132L58.4836 20.5789C58.6217 20.2518 58.4763 20.3754 58.6144 20.2809C58.6289 20.2446 58.6362 20.1937 58.6362 20.1864L58.876 19.7068C58.876 19.6995 58.8833 19.6922 58.8833 19.685L58.9414 19.6123L59.2466 19.2126C59.392 19.0527 59.501 18.9437 59.69 19.0309L59.7699 19.1108L59.8498 19.1908L59.9516 19.3507C59.9516 19.3579 59.9588 19.3652 59.9588 19.3725L60.1478 19.7722C60.3004 20.0483 60.1042 19.8303 60.2641 20.0701C60.1987 20.1137 60.1987 20.0701 60.2641 20.1137C60.3149 20.23 60.3004 20.8623 60.2931 21.0658C60.2931 21.1748 60.2859 21.2184 60.2859 21.3056L60.3222 21.5527C60.3804 21.7416 60.4966 21.887 60.8382 21.7707L61.0199 21.6835H61.0635C61.2016 21.6254 61.4487 21.6617 61.6885 21.6835L61.9356 21.7634H61.9792C62.0737 21.7998 62.1681 21.7852 62.2917 21.7925C62.4806 21.807 62.4952 21.8579 62.6696 21.7925C62.8731 21.7198 62.9966 21.4655 63.1783 21.3419C63.5489 21.0803 63.3818 21.153 63.8469 20.8405L63.9268 20.7605H63.9704L64.0504 20.6806L64.1303 20.5716C64.1376 20.5716 64.1449 20.5643 64.1521 20.5643C64.2393 20.5207 64.2466 20.4844 64.3265 20.4335L64.4501 20.3536C64.5664 20.2882 64.6318 20.2591 64.7408 20.1864H64.7844C64.9079 20.1065 64.8716 20.1428 64.937 20.1137C65.0024 20.0847 65.0097 20.0629 65.0751 20.0193H65.1187C65.1914 19.9829 65.2568 19.9684 65.3294 19.9393C65.3658 20.0338 65.3876 20.8695 65.3004 21.1384C65.2568 21.262 65.2858 21.1457 65.2713 21.262C65.2568 21.371 65.2858 21.2838 65.235 21.3855C65.0678 21.7126 65.3512 21.3347 64.9152 21.9815L64.8353 22.0614L64.4864 22.512C64.3992 22.621 64.3265 22.6719 64.501 22.7663H64.5446C64.6172 22.8027 64.6826 22.8172 64.7553 22.8463H64.7989L65.1042 22.9989C65.1114 22.9916 65.1187 23.0062 65.1332 23.0134C65.2204 23.0716 65.2495 23.1006 65.3222 23.1951C65.4021 23.3114 65.3294 23.2751 65.4239 23.3477L65.7582 23.682C65.7655 23.6893 65.78 23.6966 65.7873 23.6966L66.0925 23.8492C66.2088 23.9218 66.3396 23.8637 66.4559 23.791L66.5794 23.7111C66.5867 23.7111 66.6012 23.7111 66.6085 23.6966C66.6158 23.682 66.6303 23.6893 66.6376 23.682C66.7684 23.6239 66.7829 23.6675 66.8774 23.5439C66.9791 23.4204 66.9283 23.3114 67.0155 23.1878C67.0663 23.1079 67.0954 23.1224 67.1754 23.0861L67.3062 23.0134H67.3498H67.3934C67.5024 22.9626 67.6623 22.9117 67.8076 22.8826C67.9675 22.8535 67.9966 22.8899 68.0983 22.8463H68.1419C68.3236 22.7736 68.1347 22.8535 68.2655 22.8245C68.4908 22.7663 68.4181 22.4684 68.4907 22.2358C68.5271 22.1268 68.469 22.2503 68.5198 22.1413V22.0977C68.5707 21.9669 68.5198 22.0614 68.5416 21.9451C68.5416 21.9306 68.5562 21.9015 68.5634 21.8797C68.6652 21.5818 68.5852 21.7126 68.7378 21.5309C68.8396 21.4073 68.7742 21.4291 68.905 21.2838C68.9995 21.1748 69.0721 21.1312 69.1448 21.0222C69.2466 20.9495 69.2611 20.9059 69.3774 20.8332C69.4428 20.7896 69.4355 20.8041 69.5082 20.7605C69.5518 20.7315 69.5518 20.7242 69.6027 20.6879L70.1041 20.5207H70.1477C70.373 20.4117 70.3803 20.4916 70.5256 20.4408H70.5692C70.5838 20.4335 70.6564 20.4044 70.6564 20.4044C70.7509 20.3608 70.6928 20.3899 70.7364 20.3608C70.8963 20.2809 71.2088 20.3318 71.434 20.31C71.4849 20.3027 71.8337 20.2446 71.9428 20.1937H71.9864C72.0881 20.1501 72.0082 20.1501 72.1099 20.1937H72.1535C72.2553 20.1501 72.1753 20.1501 72.2771 20.1937H72.3207C72.4224 20.1501 72.3425 20.1501 72.4442 20.1937H72.4878C72.5896 20.1501 72.5096 20.1501 72.6114 20.1937H72.655C72.7567 20.1501 72.6768 20.1501 72.7785 20.1937H72.8221C72.9239 20.1501 72.8439 20.1501 72.9457 20.1937H72.9893C73.091 20.1501 73.0111 20.1501 73.1128 20.1937H73.1564C73.2581 20.1501 73.1782 20.1501 73.28 20.1937H73.3236C73.4253 20.1501 73.3454 20.1501 73.4471 20.1937H73.4907C73.5924 20.1501 73.5125 20.1501 73.6143 20.1937H73.6579C73.7596 20.1501 73.6797 20.1501 73.7814 20.1937H73.825C73.9268 20.1501 73.8468 20.1501 73.9485 20.1937H73.9922C74.0939 20.1501 74.014 20.1501 74.1157 20.1937H74.1593L74.6099 20.2591C74.7334 20.2809 74.5808 20.2518 74.7116 20.2882C74.7916 20.31 74.8134 20.2954 74.9878 20.3245C75.1404 20.3463 75.1113 20.3463 75.2858 20.3608H75.3294C75.482 20.4335 75.5474 20.3681 75.7073 20.4408H75.7509C75.8235 20.4771 75.8889 20.4916 75.9616 20.5207H76.0052L76.6302 20.6879L76.8264 20.7605C76.841 20.7678 76.9209 20.8041 76.9209 20.8041C76.9936 20.8405 76.9645 20.8259 77.0008 20.855C77.059 20.8841 77.1099 20.8986 77.1753 20.9277L77.3061 21.0004C77.3133 20.9931 77.3206 21.0076 77.3352 21.0149C77.4224 21.073 77.4732 21.1312 77.5677 21.1966C77.6258 21.2329 77.6331 21.2402 77.6912 21.2765C77.7421 21.3129 77.7349 21.3129 77.7857 21.3492H77.8293C77.9456 21.4073 78.0401 21.4073 78.1854 21.6108C78.2872 21.7489 78.2072 21.6835 78.4543 21.8506L78.6215 22.0178C78.6869 22.1123 78.716 22.1268 78.7959 22.214L79.1811 22.6428C79.1883 22.6428 79.1956 22.6573 79.1956 22.6573L79.2465 22.7227C79.2537 22.73 79.261 22.7373 79.261 22.7445C79.37 22.8681 79.1883 22.6573 79.2973 22.7881C79.3046 22.7954 79.3264 22.8245 79.3337 22.8317L79.559 23.137C79.697 23.3405 79.6462 23.0352 79.7406 23.3477L79.8061 23.5512C79.8061 23.5585 79.8133 23.5657 79.8133 23.573C79.995 24.0091 79.7479 24.307 79.9659 24.525L80.3584 24.7649H80.402L80.5255 24.8448H80.5691C80.6999 24.932 80.6345 24.8811 80.729 24.9175C80.7363 24.9175 80.8235 24.9611 80.8235 24.9611C80.8962 24.9974 80.8671 24.9829 80.9034 25.012L81.1505 25.1791L81.354 25.2954C81.3758 25.3099 81.3976 25.339 81.4049 25.3245C81.4121 25.3172 81.4194 25.3317 81.4339 25.339L81.6447 25.5061C82.0153 25.7968 82.3351 26.1675 82.4659 26.2329L82.5967 26.3419C82.8366 26.5163 82.4805 26.3346 82.7203 26.509L82.8874 26.6253C83.0037 26.7707 82.7566 26.6035 82.9746 26.7634C83.0546 26.916 83.0328 26.9087 83.2508 26.9378C83.3743 26.9523 83.4034 26.9378 83.556 27.0105C83.5633 27.0177 83.5778 27.025 83.5851 27.025L84.0575 27.2067C84.0793 27.214 84.1374 27.2285 84.1665 27.243L84.4499 27.352C84.7115 27.4611 84.5735 27.3884 84.7406 27.4175C84.7479 27.4175 84.7551 27.4247 84.7624 27.4247L84.8424 27.4465C84.8496 27.4465 84.8569 27.4538 84.8642 27.4538C84.9223 27.4683 84.9804 27.4756 85.0604 27.5192L85.2784 27.6355C85.4019 27.7009 85.3801 27.7009 85.4819 27.7663H85.5255L85.6636 27.8608C85.6708 27.8608 85.6781 27.868 85.6854 27.868L85.947 28.0206C86.0051 28.0497 86.056 28.0643 86.1214 28.0933C86.165 28.1151 86.245 28.1515 86.2886 28.1733L86.572 28.3477L86.6519 28.3986C86.9136 28.5366 86.7827 28.4349 87.1534 28.682H87.197C87.2551 28.7183 87.2624 28.7329 87.3205 28.7692C87.3641 28.7983 87.3496 28.7837 87.4005 28.8201L87.4513 28.8491C87.5167 28.8782 87.5604 28.8855 87.6258 28.9291C87.6766 28.9581 87.6912 28.9799 87.742 29.0163L88.2798 29.3506C88.2944 29.3578 88.3525 29.3869 88.3743 29.4014L88.9048 29.6849L89.0647 29.7794C89.1083 29.8084 89.1519 29.8375 89.1882 29.8666L89.5589 30.2009C89.5661 30.2081 89.588 30.2372 89.5952 30.2445L89.8786 30.5424C89.9513 30.5933 89.9368 30.5206 90.0167 30.6878L90.2784 31.3418C90.4455 31.4654 90.2638 31.2619 90.3946 31.5962L90.5254 31.9232C90.5618 32.0032 90.5327 31.9596 90.569 32.0032L90.649 32.1994C90.649 32.2067 90.6562 32.2139 90.6562 32.2212C90.6562 32.2285 90.6635 32.2357 90.6635 32.243L90.9397 32.9988C90.9978 33.0424 91.0342 33.0715 91.0051 33.1369C90.976 33.2168 90.9906 33.2314 90.8379 33.195C90.7144 33.1659 90.6272 33.0279 90.5254 32.9552H90.4818H90.4382C90.3946 33.0642 90.4237 32.9625 90.4528 33.0279L90.7871 33.5657C90.7871 33.5729 90.7943 33.5802 90.8016 33.5875L91.1359 34.2488C91.165 34.3142 91.1504 34.2706 91.1577 34.3215C91.1722 34.3651 91.1722 34.3941 91.2013 34.4741C91.274 34.6703 91.2158 34.634 91.303 34.9247L91.3248 35.0046C91.3394 35.1281 91.2958 35.2008 91.3466 35.3244C91.4339 35.368 91.3612 35.3389 91.4702 35.368V35.3825C91.4702 35.7386 91.4266 35.7459 91.4266 36.1165C91.4266 36.2691 91.4484 36.3927 91.4411 36.4726L91.3685 37.0831C91.274 37.4319 91.3757 37.5264 91.3103 37.6935V37.7371L91.085 38.1877C91.085 38.195 91.0778 38.2022 91.0778 38.2095L91.0341 38.2894C91.0341 38.2967 91.0269 38.304 91.0196 38.3113C91.0196 38.3185 91.0124 38.3258 91.0124 38.3331L90.9397 38.4784C90.9397 38.4857 90.9324 38.4929 90.9324 38.5002L90.8961 38.6165L90.4237 39.3578C90.322 39.5394 90.3147 39.4886 90.2275 39.6121C90.1621 39.6557 90.1548 39.6775 90.0821 39.7139C90.0385 39.7357 89.9804 39.7575 89.9368 39.7793C89.9077 39.7357 89.8932 39.7284 89.8714 39.6848C89.8132 39.5903 89.8714 39.6921 89.8423 39.6194L89.7551 39.3723C89.7478 39.3069 89.7478 39.2996 89.7406 39.1906V39.147C89.697 39.0453 89.697 39.1252 89.7406 39.0235V38.9799C89.697 38.8781 89.697 38.958 89.7406 38.8563V38.8127C89.697 38.711 89.697 38.7909 89.7406 38.6892V38.6456C89.7478 38.522 89.7551 38.5438 89.7551 38.4566C89.7551 38.3912 89.7551 38.3549 89.7624 38.3258C89.7769 38.0133 89.8278 37.9842 89.9077 37.599C89.9586 37.3665 89.9586 35.5715 89.806 35.259C89.6025 34.8374 89.7406 34.9174 89.5371 34.7793C89.4862 34.9029 89.5298 35.0046 89.6025 35.1645C89.6025 35.1717 89.6097 35.179 89.6097 35.1863C89.6097 35.1935 89.617 35.2008 89.617 35.2081L89.6752 35.3534C89.6752 35.3607 89.6824 35.4116 89.6824 35.4188L89.697 35.4624C89.697 35.4697 89.7042 35.477 89.7042 35.4842C89.7842 35.695 89.806 36.1601 89.7987 36.4145L89.7624 36.7851C89.7551 36.836 89.7696 36.8868 89.7624 36.9305C89.7333 37.0831 89.7333 36.9595 89.6897 37.0758C89.6461 37.1775 89.7115 37.2284 89.6534 37.3592V37.4028C89.5734 37.5264 89.588 37.49 89.588 37.599C89.588 37.6645 89.6025 37.7226 89.588 37.7807L89.5443 37.9115C89.4717 38.1804 89.4717 38.4275 89.3627 38.7618C89.3263 38.8781 89.3481 38.8708 89.3481 38.9653C89.3409 39.1543 89.3409 38.9799 89.2755 39.1543C89.2464 39.2342 89.2755 39.2415 89.2464 39.3578L89.1083 39.8737C89.072 40.0191 89.1228 39.9173 89.0356 40.0772C88.7885 40.5278 88.883 40.4769 88.5778 40.9348L88.4978 41.0147L88.4179 41.0947L88.338 41.1746L88.258 41.2545L88.0909 41.4217L87.9237 41.5888L87.2987 42.1702L87.1316 42.3374L87.0516 42.4173L86.7319 42.7153L86.7173 42.7298L86.7028 42.7444C86.6955 42.7516 86.681 42.7662 86.6737 42.7734C86.6737 42.7734 86.6665 42.788 86.6592 42.788L86.5865 42.8534C86.5793 42.8534 86.572 42.8606 86.5647 42.8679C86.3176 43.0496 86.2595 43.1586 86.1287 43.2531H86.0851C85.7217 43.4275 85.9034 42.7371 85.947 42.6135L86.0487 42.4101C86.1723 42.1775 86.0705 42.2647 86.165 42.0176L86.7028 41.2691C86.7755 41.131 86.8118 41.1601 86.7537 41.0075L86.5793 40.7676C86.5066 40.695 86.463 40.6441 86.383 40.5932H86.3394L86.2595 40.5133L86.1359 40.4333L86.0124 40.3534L85.7653 40.1862L85.6418 40.1063L85.5909 40.0772C85.5836 40.07 85.5691 40.0627 85.5618 40.0627L85.3874 39.9391L85.2784 39.8374C85.2711 39.8301 85.2639 39.8229 85.2566 39.8229C85.2493 39.8156 85.2421 39.8083 85.2348 39.8083L85.0022 39.5612C84.995 39.554 84.9877 39.5467 84.9877 39.5394L84.915 39.4522C84.9078 39.445 84.9005 39.4377 84.8932 39.4304L84.6316 39.1252C84.6316 39.1179 84.6243 39.1107 84.6243 39.1034L84.5953 39.0162C84.4935 38.8636 84.4426 38.711 84.4281 38.5147V38.4711C84.29 38.1804 84.4281 37.9552 84.4499 37.7953L84.5298 37.3156C84.5735 37.1121 84.8423 36.4072 84.6389 36.2619L84.5735 35.7895C84.5371 35.5206 84.6679 35.477 84.4717 35.3462L84.4281 35.7604C84.3918 35.8113 84.4281 35.7386 84.3918 35.8403C84.37 35.8985 84.3845 35.8839 84.37 35.913C84.3482 35.9712 84.37 35.9566 84.3046 36.0075L84.0357 36.7488C84.0357 36.756 84.0211 36.8069 84.0139 36.8432V36.8868C83.9557 36.9741 83.9121 37.0395 83.854 37.1485L83.6287 37.5627C83.6214 37.57 83.6142 37.5918 83.6069 37.599L83.5851 37.6427C83.5851 37.6499 83.5778 37.6572 83.5706 37.6645C83.5633 37.6717 83.5415 37.7008 83.5415 37.7081C83.527 37.7299 83.4833 37.7953 83.4761 37.7953L83.4252 37.897C83.3961 37.9479 83.4179 37.9115 83.3889 37.9552L83.3598 38.0206C83.3598 38.0278 83.3525 38.0351 83.3525 38.0424L83.0473 38.5656C82.9819 38.6819 83.0982 38.5801 82.9674 38.6746C82.9528 38.711 82.9456 38.7618 82.9456 38.7691L82.9238 38.8127C82.8874 38.8926 82.8729 38.958 82.8002 39.0089L82.6331 39.1761L82.4659 39.3432L82.2988 39.5104L81.5502 40.2589L81.0996 40.7022C81.056 40.7531 81.0996 40.7168 81.0488 40.7531L80.9252 40.9202C80.8017 41.0075 80.918 40.9711 80.7581 41.1092C80.7508 41.1092 80.7435 41.1237 80.7435 41.1237C80.7363 41.1237 80.729 41.1383 80.7217 41.1383L80.6781 41.1673L80.5982 41.2473L80.4311 41.4144C80.293 41.5162 80.4165 41.4217 80.3584 41.5307C80.2857 41.6615 79.2537 42.6644 79.0939 42.817C78.7741 43.1295 78.9412 43.1223 78.854 43.3257V43.3693C78.7523 43.5147 78.8395 43.442 78.7232 43.7109L78.5197 44.3286V44.3722C78.4035 44.5467 78.4979 44.4377 78.4398 44.583V44.6266L78.309 44.9682C78.2581 45.1571 78.2799 45.1935 78.0692 45.3315C77.9601 45.4914 77.9529 45.4624 77.8875 45.6513C77.8875 45.6586 77.8802 45.6658 77.8802 45.6731L77.6186 46.1091C77.6186 46.1164 77.6113 46.1237 77.604 46.131L77.2479 46.5379C77.2479 46.5452 77.2407 46.5525 77.2334 46.5597L77.168 46.6324C77.168 46.6324 77.1607 46.6397 77.1535 46.6469L77.0299 46.7559C77.0227 46.7632 77.0154 46.7705 77.0081 46.7777C76.7392 47.0176 76.8264 47.0466 76.732 47.2283C76.6738 47.3373 76.7901 47.2429 76.652 47.3446L76.4413 47.926C76.3468 47.9914 76.3104 48.333 76.2523 48.4856L76.2232 48.5583C76.2232 48.5655 76.216 48.5728 76.216 48.5801L75.9689 49.0016C75.9689 49.0088 75.9616 49.0161 75.9616 49.0234L75.7363 49.4013C75.7363 49.4085 75.7291 49.4158 75.7218 49.4231C75.7218 49.4303 75.7145 49.4376 75.7145 49.4449L75.4529 49.8809C75.4529 49.8882 75.4456 49.8955 75.4456 49.9027C75.4166 49.9536 75.402 49.9609 75.3657 50.0117L75.1259 50.3824C75.1113 50.4042 75.0895 50.455 75.0823 50.4623C74.9296 50.7821 74.966 50.5786 74.7189 50.942C74.7044 50.9638 74.7552 50.942 74.6608 51.0146L74.2829 51.596L74.2029 51.676L74.1738 51.7268C74.1666 51.7341 74.1593 51.7486 74.1593 51.7559C74.152 51.7632 74.152 51.7777 74.1448 51.785C74.0285 51.9594 73.7741 52.1338 73.6724 52.301L73.6506 52.3446C73.6506 52.3518 73.6433 52.3591 73.6433 52.3664C73.6433 52.3736 73.6361 52.3809 73.6361 52.3882L73.5852 52.4899C73.5343 52.5771 73.5561 52.5698 73.4326 52.6934C73.3599 52.7661 73.3163 52.8097 73.2436 52.8823C73.0619 53.0713 73.0983 53.064 73.0329 53.173C73.0038 53.2166 72.9965 53.2166 72.9675 53.2675C72.8294 53.3693 72.9529 53.2748 72.8948 53.3838C72.8512 53.4637 72.873 53.4201 72.8148 53.4855L72.7422 53.5873C72.684 53.6818 72.8148 53.58 72.6768 53.6818L72.575 53.8416C72.4878 54.0233 72.4297 54.0015 72.3497 54.1396C72.3497 54.1469 72.3425 54.1541 72.3352 54.1614C72.3352 54.1687 72.3279 54.1759 72.3279 54.1832C72.3279 54.1905 72.3207 54.1977 72.3207 54.205C72.3134 54.2268 72.3279 54.2195 72.3061 54.2704L72.139 54.4376C72.0009 54.5393 72.1462 54.423 72.0518 54.5684C72.0154 54.6265 71.9791 54.6556 71.921 54.721L71.8555 54.8082L71.1506 55.8038C71.1361 55.8402 71.1215 55.8838 71.1215 55.8838L71.107 55.9274C71.107 55.9346 71.0997 55.9419 71.0997 55.9492C71.0198 56.1963 71.1651 55.971 71.0925 56.3779C71.0707 56.4797 71.0925 56.4652 71.0779 56.5378L71.0125 56.6904C71.0053 56.8213 70.998 56.8794 70.9689 56.9375L70.8599 57.1992C70.7727 57.3663 70.8745 57.1701 70.8381 57.2428L70.7291 57.4099C70.6637 57.4753 70.6492 57.4826 70.591 57.5262L70.5111 57.6061L70.3803 57.6861C70.3221 57.7297 70.3367 57.7224 70.3003 57.7733L70.1768 57.8532L70.1259 57.8823C69.8716 58.0567 70.0096 58.0349 69.8279 58.1657C69.7553 58.2166 69.7407 58.2311 69.6826 58.2675H69.639C69.5373 58.3183 69.4646 58.3474 69.3556 58.3983C69.2756 58.4419 69.1884 58.471 69.1012 58.5146H69.0576C68.9849 58.5509 68.9195 58.5654 68.8469 58.5945H68.8032C68.7742 58.609 68.6143 58.6817 68.5852 58.689C68.5489 58.7035 68.4762 58.7108 68.3599 58.7253C68.2219 58.7471 68.1129 58.718 68.0111 58.7617H67.9094H67.8658H67.8222C67.7204 58.8053 67.8003 58.8053 67.6986 58.7617H67.655C67.5533 58.8053 67.6332 58.8053 67.5315 58.7617H67.4879C67.3861 58.8053 67.466 58.8053 67.3643 58.7617H67.328H67.2844H67.2408C67.1245 58.7108 67.1899 58.7544 67.0809 58.7398C67.03 58.7326 67.0445 58.7398 66.9864 58.718C66.921 58.6962 66.9428 58.6962 66.9065 58.6744L66.6739 58.5291C66.4995 58.4273 66.4559 58.4855 66.4123 58.3038L66.405 58.0276C66.4413 57.875 66.3832 57.955 66.485 57.8823L66.6448 57.5989C66.7684 57.3518 66.7393 57.4753 66.8265 57.33C66.8265 57.3227 66.8338 57.3154 66.8338 57.3082C66.8338 57.3009 66.8411 57.2936 66.8411 57.2864L67.03 57.0538C67.1463 56.9085 67.0373 56.923 67.2262 56.7922C67.2335 56.7849 67.248 56.7777 67.2553 56.7777L67.6405 56.4579C67.6768 56.4216 67.6986 56.407 67.7422 56.3561L69.0939 54.9608L69.2611 54.7937C69.3774 54.7137 69.4573 54.6192 69.5663 54.5102C69.6099 54.4666 69.6753 54.4085 69.7044 54.3649C69.8425 54.1687 69.639 54.4158 69.7771 54.2195L70.0968 53.7399C70.1477 53.6672 70.155 53.6745 70.2204 53.6236L70.3948 53.3184C70.3948 53.3111 70.4021 53.3038 70.4021 53.2966C70.4021 53.2893 70.4093 53.282 70.4093 53.2748L70.4747 53.1512C70.4747 53.144 70.482 53.1367 70.482 53.1294L70.562 52.9623C70.562 52.955 70.5692 52.9478 70.5692 52.9405C70.5692 52.9332 70.5765 52.9259 70.5765 52.9187C70.6201 52.8387 70.5765 52.9041 70.6346 52.8387L70.9762 52.1919C71.0198 52.1411 70.9035 52.221 71.0416 52.1193C71.1143 52.0103 71.0997 52.0611 71.1361 51.9085C71.2015 51.676 71.1288 51.923 71.296 51.6542C71.296 51.6469 71.3032 51.6396 71.3032 51.6324L71.6957 51.0873C71.7465 51.0074 71.7029 51.0728 71.7393 51.0074C71.8265 50.8547 71.8628 50.8039 71.8846 50.644C71.9064 50.5277 72.0445 50.2734 72.0518 50.0844C72.059 49.8882 72.1172 50.0335 72.139 49.8373C72.1462 49.7501 72.1244 49.4013 72.1971 49.285C72.1608 49.1978 72.1608 49.0815 72.1971 48.9943V48.9507C72.2262 48.6382 72.2698 48.3984 72.4079 48.1222C72.466 48.0786 72.5169 48.0495 72.5677 47.9914C72.575 47.9841 72.5823 47.9769 72.5896 47.9696C72.5968 47.9623 72.6041 47.9551 72.6114 47.9478L73.1128 47.4754C73.2145 47.3737 73.0619 47.5263 73.1564 47.4245L73.3308 47.2356C73.3308 47.2283 73.3381 47.2211 73.3454 47.2138C73.3962 47.1411 73.4326 47.1266 73.4907 47.0684C73.607 46.9449 73.5343 47.0103 73.5634 46.9449C73.6215 46.8214 73.6433 46.8504 73.7015 46.7559C73.7015 46.7487 73.7087 46.7414 73.7087 46.7341C73.8831 46.4144 73.8759 46.6033 73.8977 46.4144L73.9558 46.0801L73.4834 45.9057C73.3744 45.8548 73.4689 45.9638 73.3672 45.8257L72.6986 45.4914C72.5896 45.4405 72.5169 45.4696 72.4151 45.2879L72.3715 45.1571C72.2843 45.099 72.3425 45.1426 72.2698 45.0045L72.2407 44.9391C72.2407 44.9318 72.2335 44.9246 72.2335 44.9173C72.2335 44.91 72.2262 44.9028 72.2262 44.8955L72.139 44.7283C72.0082 44.4813 72.0372 44.6557 72.1317 44.394C72.2189 44.1615 72.3134 43.551 72.3134 43.3112C72.3061 43.0641 72.3715 43.1368 72.4006 42.9624C72.4079 42.897 72.3933 42.8461 72.4006 42.7952L72.5459 42.2865L72.575 41.9231C72.7058 41.5162 72.6332 41.7705 72.6404 41.2545C72.6404 41.1237 72.7204 41.0583 72.873 40.9493C72.8802 40.942 72.8948 40.942 72.9021 40.9348L72.9965 40.9057C73.0619 40.8839 73.0329 40.913 73.1273 40.8694H73.1709C73.3308 40.804 73.4471 40.913 73.7087 40.7894H73.7523C73.8541 40.833 73.7741 40.833 73.8759 40.7894C73.9704 40.6513 73.9994 40.506 73.9849 40.2807C73.9776 40.2153 73.9776 40.1136 73.8032 40.1281C73.6288 40.1426 73.7959 40.2516 73.3672 40.3025C72.9529 40.3534 73.309 40.317 73.0474 40.4333C72.8875 40.506 73.0474 40.3825 72.7422 40.5787H72.6986L71.9936 40.913H71.95L71.8265 40.9929H71.7829C71.6593 41.0511 71.3541 41.2037 71.2451 41.1601H71.2015C71.0997 41.2037 71.1797 41.2037 71.0779 41.1601H71.0343C70.9326 41.2037 71.0125 41.2037 70.9108 41.1601H70.8672C70.7654 41.2037 70.8454 41.2037 70.7436 41.1601H70.7C70.5983 41.2037 70.6782 41.2037 70.5765 41.1601H70.5329L69.8279 41.3272H69.7843H69.7407H69.6971C69.6172 41.3636 69.5591 41.3781 69.5009 41.3926L69.0721 41.4944C68.9486 41.5525 68.905 41.5162 68.7814 41.5743H68.7378C68.6652 41.6106 68.5998 41.6252 68.5271 41.6542H68.4907C68.3745 41.7051 68.0983 41.7269 68.0038 41.8287C67.9893 41.8432 67.9457 41.9159 67.9384 41.9304C67.8948 42.0103 67.8658 42.0758 67.8222 42.1484V42.192C67.7277 42.3374 67.7567 42.3374 67.7567 42.4755C67.7567 42.5772 67.7785 42.6353 67.7349 42.7371L67.2771 43.6528L67.0881 44.1615C67.0518 44.2414 66.9864 44.394 67.0009 44.4885C67.0227 44.6339 66.9937 44.4958 67.0518 44.6266C67.1245 44.801 67.0881 44.7647 67.0954 44.8882C67.1027 45.0554 67.1172 44.9246 67.1681 45.1281C67.2044 45.2589 67.1608 45.3824 67.1826 45.4769C67.1826 45.4769 67.2044 45.5423 67.2117 45.5568L67.2408 45.6077C67.2044 45.6876 67.219 45.6876 67.2117 45.7676C67.2117 45.7748 67.2117 45.8403 67.2117 45.8621C67.2262 45.942 67.2044 45.8911 67.2335 45.942C67.1608 46.1237 67.2844 46.0946 67.1027 46.4507L67.0227 46.6179C66.9646 46.7341 67.0518 46.5597 66.9937 46.6833L66.8774 46.865L66.8629 46.8795L66.2451 47.4463C66.1434 47.5481 66.0707 47.6135 65.9762 47.7152C65.7728 47.9405 65.9181 47.8751 65.78 47.9769L65.5693 48.224C65.4675 48.2966 65.5475 48.2385 65.4748 48.3548C65.3294 48.5728 64.8135 48.987 64.5082 49.3867L63.7379 50.2298L63.389 50.6803C63.389 50.6803 63.3818 50.6949 63.3745 50.6949C63.3745 50.6949 63.3673 50.7094 63.36 50.7094L63.2728 50.8111L63.2292 50.8911L63.062 51.0582L62.5533 51.6324C62.4007 51.8286 62.6405 51.6687 62.437 51.8068C62.3716 51.9594 62.4952 51.8576 62.3498 52.003L62.1754 52.1193C62.1681 52.112 62.1536 52.1265 62.1463 52.1338C62.0083 52.2283 62.1318 52.1411 62.0664 52.2428L61.8193 52.5844C61.8193 52.5916 61.812 52.5989 61.812 52.6062L61.4414 53.0568H61.3978C61.3397 53.0858 61.2452 53.1222 61.1798 53.1512C61.0926 53.1876 61.1507 53.1367 61.0272 53.2239L60.5257 53.471H60.4821C60.3513 53.5655 60.4603 53.4783 60.4022 53.58C60.3004 53.7472 60.3222 53.7326 60.2859 53.878L60.0679 54.7719C59.9443 55.1134 59.9734 55.1934 59.8498 55.5204L59.8208 55.6948C59.7481 55.8765 59.8862 55.5567 59.7844 55.7602C59.7481 55.8329 59.7408 56.0219 59.6027 56.3561C59.6027 56.3634 59.5955 56.3707 59.5955 56.3779L59.501 56.5596C59.203 56.9739 59.3121 56.7268 58.8469 57.0756C58.8106 57.1047 58.8106 57.1047 58.7888 57.1192C58.7089 57.1846 58.5708 57.2791 58.2873 57.3082C58.2801 57.3154 58.2656 57.3154 58.2583 57.3227H57.6115C57.6042 57.3082 57.5897 57.3154 57.5824 57.3082C57.4589 57.359 57.5388 57.3227 57.4516 57.3009L57.2554 57.2646C57.1464 57.25 57.1536 57.2428 57.0955 57.2355C56.9574 57.2064 57.1318 57.1556 56.9647 57.2282C56.9211 57.1992 56.9647 57.221 56.8847 57.1846C56.8702 57.1774 56.8193 57.1628 56.7975 57.1483H56.7539L56.485 56.9957C56.4705 56.9811 56.3833 56.9157 56.3833 56.9157L56.1071 56.5524C56.1071 56.5451 56.0999 56.5378 56.0999 56.5306C55.9981 56.3489 56.0345 56.3707 55.9618 56.1163C55.9618 56.1091 55.9545 56.1018 55.9545 56.0945V55.4913C55.9545 55.1498 55.8819 54.9826 56.0199 54.83C56.267 54.5538 55.9618 54.6992 56.2089 54.2486C56.2089 54.2413 56.2161 54.2341 56.2161 54.2268L56.6013 53.8489C56.6086 53.8489 56.6159 53.8416 56.6231 53.8416L56.6595 53.8271C56.6595 53.8198 56.674 53.8271 56.674 53.8198C56.6377 53.6963 56.6595 53.7544 56.5941 53.6527L56.5141 53.5727C56.4051 53.4928 56.4778 53.5364 56.456 53.5001C56.4487 53.4928 56.4414 53.471 56.4342 53.4565L56.2598 53.1004C56.2234 53.0277 56.2525 53.1076 56.2234 53.035L56.1943 52.8896C56.158 52.5553 56.1362 52.8678 56.1798 52.4027V52.3591C56.2307 52.2355 56.1871 52.2501 56.2016 52.1411L56.3978 51.6614C56.4269 51.5815 56.4051 51.6396 56.4342 51.5815L56.4778 51.4434L56.5214 51.3998V51.3853C56.565 51.269 56.5141 51.3635 56.5577 51.269L56.6159 51.1672C56.6159 51.16 56.6231 51.1527 56.6231 51.1454L56.7467 50.8039C56.892 50.4042 56.892 50.6658 57.0955 50.3751L57.2118 50.128C57.2408 49.9754 57.1173 50.0917 57.2772 49.9754C57.299 49.7501 57.3135 49.7719 57.3717 49.5394C57.4007 49.4303 57.4153 49.2995 57.4879 49.1396C57.5897 49.067 57.6115 48.9652 57.706 48.8562L57.9603 48.5292C58.0403 48.4274 58.0911 48.4056 58.1565 48.3039L58.2365 48.224L58.3164 48.144C58.4763 48.035 58.4981 47.9405 58.7961 47.7516C58.8687 47.7007 58.876 47.6934 58.9414 47.6498L59.1086 47.4827L59.1885 47.4027L59.2684 47.3228C59.3266 47.2356 59.3702 47.2211 59.4138 47.1338C59.4865 46.9958 59.3775 47.1193 59.5228 46.9086C59.5228 46.9086 59.5301 46.894 59.5373 46.894L59.7699 46.6542C59.7772 46.6469 59.7917 46.6397 59.7917 46.6397L59.9007 46.5525C60.0025 46.4507 59.9588 46.5452 59.9588 46.4144C59.9588 46.1818 59.9734 46.269 60.1478 46.1528L60.6347 45.5641C60.6347 45.5568 60.642 45.5496 60.642 45.5423L61.296 44.474C61.296 44.4667 61.3033 44.4595 61.3033 44.4522C61.5213 43.9289 61.2888 43.7691 61.2888 43.5365C61.2888 43.4057 61.3397 43.2313 61.1144 43.1731C61.0417 43.1513 60.8019 43.1586 60.7292 43.1949H60.6856C60.5475 43.1368 60.5693 43.2167 60.3804 43.0787L60.1405 42.9406L60.0606 42.8897C60.0533 42.8824 60.0243 42.8679 60.0097 42.8606C59.8426 42.7807 59.8716 42.8897 59.4211 42.6499C59.2975 42.5845 59.3193 42.5845 59.2176 42.5191L58.9269 42.3519C58.7452 42.2647 58.8033 42.3374 58.6435 42.1775L58.2728 41.8505C58.2728 41.8505 58.2583 41.8432 58.2583 41.8359L58.2292 41.8069C58.2292 41.8069 58.2219 41.7923 58.2147 41.7923L58.1275 41.6906H58.0839C57.9894 41.647 57.8586 41.6542 57.7786 41.6688L57.6769 41.7051C57.2118 41.8723 56.6813 41.7124 56.4342 41.8505L56.2452 42.0612C56.2234 42.0976 56.2016 42.1484 56.1653 42.192V42.2356C56.1289 42.2938 56.1144 42.3156 56.0563 42.381C56.0199 42.4246 55.9836 42.4609 55.9473 42.5045L55.8673 42.5917C55.7728 42.6862 55.9182 42.5409 55.8237 42.6353C55.8237 42.6353 55.8164 42.6499 55.8092 42.6499L55.7801 42.6789C55.7801 42.6789 55.7728 42.6935 55.7656 42.6935L55.751 42.708L55.7365 42.7225L55.5548 42.9042C55.5548 42.9042 55.5476 42.9188 55.5403 42.9188C55.5403 42.9188 55.533 42.9333 55.5257 42.9333L55.4385 43.035C55.206 43.5946 55.9473 43.1804 56.267 43.5438C56.3833 43.6746 56.2743 43.6092 56.456 43.8054L56.5141 43.8708C56.7031 44.067 56.8484 44.1688 56.9429 44.4086C57.1173 44.8519 56.9356 45.2516 56.9138 45.3751C56.892 45.506 56.9574 45.4987 56.8629 45.8548L56.8339 45.9565C56.7757 46.0873 56.6667 46.131 56.565 46.2763C56.4342 46.1891 56.4705 46.1746 56.3397 46.16C56.2234 46.1455 56.1071 46.1528 55.9909 46.1455C55.6566 46.1237 55.6784 45.9638 55.5257 46.0219H55.4821C55.2133 45.9129 55.0606 46.1382 54.9226 45.7022C54.8717 45.535 54.5083 45.1135 54.2322 45.7748L54.0868 46.0365C54.0577 46.1455 54.1086 45.9711 54.0795 46.0946C54.0577 46.2109 54.0868 46.1309 53.9923 46.2472L53.9415 46.3126L53.767 46.6687C53.658 46.865 53.658 46.7995 53.5563 46.9449L53.4763 47.0248V47.0684C53.4109 47.1702 53.4182 47.1266 53.4473 47.2647L53.4763 47.5263V47.5699V47.6934V47.737C53.4763 47.9333 53.4763 47.817 53.4327 47.8606C53.5054 48.035 53.4182 47.8097 53.4182 48.1585V49.6847C53.4182 49.8373 53.4182 49.8446 53.4182 49.9899C53.4109 50.2225 53.4327 50.1716 53.52 50.2298C53.6217 50.3024 53.5854 50.3024 53.5854 50.5132C53.5854 51.1309 53.5926 50.753 53.767 51.0146C53.8615 51.1527 53.8179 51.1309 53.8325 51.2036C53.8543 51.3199 53.7598 51.2181 53.8979 51.3199C53.9124 51.5088 53.9415 51.5379 53.9051 51.6396C53.7743 52.0321 53.8761 51.814 53.7598 52.33L53.6653 52.6207C53.658 52.6425 53.658 52.6716 53.6508 52.7079C53.629 52.9696 53.658 53.0495 53.847 53.2021L54.3993 53.6454C54.4066 53.6527 54.4211 53.66 54.4284 53.66C54.4356 53.66 54.4502 53.6745 54.4574 53.6745C54.4647 53.6818 54.4792 53.6818 54.4865 53.689C54.501 53.6963 54.5374 53.7181 54.5665 53.7326L54.6973 53.8053L54.908 53.9725C55.0316 54.1541 55.1042 54.1105 55.1696 54.3213L55.2859 54.6919C55.4749 55.2006 55.3804 55.3751 55.2787 55.7312C55.2496 55.8329 55.2932 55.8111 55.2496 55.9274V55.971L55.126 56.1599C55.0534 56.2544 55.017 56.3489 54.8281 56.4652C54.7409 56.516 54.8135 56.4652 54.7263 56.5306C54.7263 56.5306 54.6609 56.5814 54.6537 56.5887C54.501 56.6977 54.4138 56.6904 54.254 56.9375H54.2104L53.5272 57.25C53.4109 57.3009 53.52 57.2646 53.3891 57.3154L53.2656 57.3445C52.9749 57.4317 52.6551 57.4463 52.3644 57.3663C52.2191 57.33 52.379 57.3518 52.2482 57.33C52.1537 57.3154 52.1392 57.3445 51.972 57.2646L51.8921 57.1846L51.7685 57.0756C51.7249 57.0175 51.6958 56.9811 51.6377 56.9375L51.5941 56.8576C51.4924 56.7922 51.4778 56.7486 51.3615 56.6686C51.3107 56.6323 51.3325 56.6541 51.2816 56.6178L51.1217 56.4434C51.1072 56.4143 51.1072 56.3925 51.1072 56.3707L51.0926 56.3053C50.9546 55.8184 51.0418 55.0044 51.049 54.4448C51.049 54.1977 51.0345 53.9143 51.0345 53.7835C51.02 53.362 51.0854 53.4855 50.8746 53.2239C50.8674 53.2166 50.8528 53.1948 50.8456 53.1948C50.7293 53.0568 50.7293 52.9841 50.6639 52.7951L50.6348 52.7152C50.5621 52.5044 50.5839 51.8431 50.6566 51.5669C50.7002 51.3998 50.6929 51.4507 50.6929 51.3417C50.6929 51.051 50.7511 51.0146 50.7729 50.8402C50.7874 50.7094 50.7365 50.7239 50.8092 50.5931L50.8674 50.4623C50.9255 50.2297 50.8674 50.1716 50.9182 50.0408V49.9972C50.8601 49.8518 50.9255 49.9391 50.94 49.801C50.9764 49.3649 51.0272 49.6992 51.0272 49.4303C51.0272 49.1469 50.9546 48.7981 51.0926 48.5365L51.1217 48.471C51.1217 48.4638 51.129 48.4565 51.129 48.4492C51.129 48.442 51.1363 48.4347 51.1435 48.4274C51.2235 48.2821 51.1871 48.333 51.1871 48.1149C51.1871 47.9841 51.1871 47.8824 51.1871 47.737C51.1871 47.599 51.129 47.083 51.2525 46.9958C51.2598 46.8722 51.2671 46.8504 51.2816 46.7923C51.2816 46.785 51.3252 46.567 51.3252 46.5597C51.3397 46.349 51.1944 46.4071 50.9618 46.4144C50.4967 46.4216 50.5331 46.4216 50.2133 46.2908H50.1697H50.1261H50.1043C50.0025 46.2472 50.0825 46.2472 49.9807 46.2908H49.9371C49.8354 46.2472 49.9153 46.2472 49.8136 46.2908H49.77H49.7264H49.6828C49.581 46.3344 49.661 46.3344 49.5592 46.2908H49.5156H49.472L49.4212 46.2618C49.1668 46.1091 48.302 46.0728 47.9604 46.0365C47.8877 46.0292 47.9749 46.0074 47.8877 46.0437H47.8514C47.8078 46.0292 47.3645 45.9856 47.1465 45.8766H47.1029C47.0011 45.9202 47.0811 45.9202 46.9793 45.8766H46.9357C46.834 45.9202 46.9139 45.9202 46.8122 45.8766H46.7686C46.6668 45.9202 46.7468 45.9202 46.645 45.8766H46.6014C46.4997 45.9202 46.5796 45.9202 46.4779 45.8766H46.4343C46.3325 45.9202 46.4125 45.9202 46.3107 45.8766H46.2671C46.1654 45.9202 46.2453 45.9202 46.1436 45.8766H46.1072C46.0055 45.9202 46.0854 45.9202 45.9837 45.8766H45.9401C45.8383 45.9202 45.9183 45.9202 45.8165 45.8766H45.7729C45.6712 45.9202 45.7511 45.9202 45.6494 45.8766H45.6058H45.5622H45.5258C45.366 45.8112 45.5186 45.8839 45.3805 45.8403L45.2279 45.7821C45.2206 45.7821 45.2133 45.7748 45.2061 45.7748L45.1334 45.753C44.7918 45.644 45.068 45.7458 44.7918 45.6876C44.7046 45.6731 44.6538 45.6658 44.5738 45.7022H44.5302C44.4357 45.6658 43.9997 45.6658 43.9052 45.7022H43.8616C43.7599 45.6586 43.8398 45.6586 43.7381 45.7022H43.6945C43.6073 45.6658 43.2875 45.7312 43.1203 45.7167L42.9459 45.7022C42.7642 45.8112 42.9532 46.131 42.9532 46.131C42.9823 46.1964 42.9532 46.2472 42.9677 46.3199C42.9895 46.4434 43.0113 46.3635 43.0477 46.5452C43.0695 46.6542 43.0331 46.6251 43.0767 46.785C43.1131 46.9086 43.1349 46.9449 43.1349 47.0321L43.2875 47.8024C43.3456 48.035 43.2148 47.8097 43.3674 48.3039C43.4328 48.5147 43.2948 48.4638 43.5782 48.7399C43.709 48.8708 43.8471 48.9798 43.9416 49.1251V49.1687C43.9706 49.2269 43.9706 49.2414 44.007 49.3141L44.0506 49.4303C44.0651 49.4594 44.0506 49.4376 44.0796 49.4885L44.5665 50.0989C44.5665 50.0989 44.5738 50.1135 44.5811 50.1135L44.6828 50.2588C44.7264 50.317 44.7192 50.2952 44.7628 50.3896L44.959 50.8257C45.0099 50.9129 44.9008 50.8257 45.0244 50.9202H45.068C45.3369 51.1018 45.1261 50.9928 45.2569 51.2617L45.3587 51.5306C45.3587 51.5379 45.366 51.5451 45.366 51.5524L45.5549 52.1774C45.5767 52.2646 45.6712 52.3954 45.6857 52.7152C45.6857 52.7443 45.6857 52.8678 45.6785 52.9041L45.613 53.2893C45.3805 53.4565 45.693 53.2602 45.4968 53.471C45.3224 53.6527 45.0317 53.4129 44.8645 53.2893C44.7046 53.173 44.9081 53.3329 44.6901 53.0495C44.5738 52.8969 44.6828 52.8823 44.4866 52.8315C44.4866 52.8387 44.4793 52.846 44.4793 52.846L44.4721 52.8605C44.4721 52.8678 44.4648 52.8896 44.4648 52.8969C44.4357 53.1076 44.4721 53.2384 44.6101 53.4492V53.4928C44.6901 53.689 44.4793 53.7762 44.4721 53.769C44.4648 53.7617 44.4503 53.7762 44.443 53.7835C44.3122 53.8489 44.036 53.8489 43.9052 53.7835H43.8616C43.6581 53.689 43.6727 53.7399 43.4837 53.4928L43.4474 53.4419C43.3311 53.2748 43.4546 53.3838 43.3166 53.282C43.273 53.2166 43.2657 53.2239 43.2221 53.1658C43.1494 53.064 43.193 53.1294 43.1421 53.0422L43.0622 52.9114C43.0331 52.8678 43.0041 52.8315 42.9895 52.7879L42.8224 52.2864L42.6407 51.3271C42.6334 51.269 42.6407 51.2617 42.6334 51.2181L42.5389 51.0146C42.4299 50.7603 42.4009 50.8257 42.3791 50.6803L42.2628 50.1353C42.0956 49.8155 42.3427 49.067 42.1538 48.7908C42.1392 48.6382 42.0884 48.5728 42.0302 48.4565V48.4129L41.616 47.708C41.4779 47.6135 41.5942 47.7007 41.536 47.5917C41.507 47.5336 41.507 47.5481 41.4852 47.4899L41.427 47.3519C41.3326 47.1556 41.2599 47.1338 41.2236 47.0466C41.0564 46.567 41.2018 46.7995 40.8384 46.3562L40.5695 45.9057C40.5041 45.7748 40.6349 45.8984 40.4895 45.7894C40.4387 45.6731 40.5186 45.6368 40.3587 45.5932C40.1916 45.5496 40.1625 45.6222 39.9954 45.5423H39.9518C39.8573 45.506 39.9518 45.5423 39.8573 45.5205C39.6393 45.4696 39.5666 45.4333 39.5593 45.5932C39.5303 45.9347 39.5739 45.9202 39.6247 46.0728C39.6974 46.2981 39.5666 46.1091 39.6974 46.4652C39.741 46.5888 39.7483 46.9304 39.7047 47.0394V47.083C39.7192 47.2647 39.7265 47.2211 39.7265 47.3446C39.7265 47.5263 39.7192 47.3809 39.7919 47.5336L39.8282 48.8635C39.8282 48.878 39.8646 48.9652 39.8718 48.9652C39.9445 49.1106 39.9663 49.067 39.9881 49.176C40.0026 49.2632 39.9518 50.3533 40.0099 50.4986C40.1116 50.5422 40.0317 50.5422 40.1334 50.4986C40.2134 50.5568 40.2425 50.5422 40.2425 50.6731C40.2425 50.7457 40.2352 50.7094 40.2497 50.7748L40.5259 51.3998C40.5332 51.4071 40.555 51.4289 40.5622 51.4434C40.6785 51.5815 40.802 51.7704 40.7512 52.0829C40.7294 52.2137 40.7294 52.1483 40.6349 52.2864C40.4823 52.3954 40.5913 52.3373 40.555 52.3954L40.475 52.5408C40.4677 52.5553 40.4532 52.5844 40.4459 52.5989C40.4241 52.6425 40.4023 52.6716 40.3805 52.7007V52.7443C40.2061 52.9986 40.257 52.9623 40.1262 53.0277C39.7483 53.2312 39.3994 53.3838 39.007 53.1149C38.9997 53.1076 38.9852 53.1004 38.9779 53.1004C38.709 52.9405 38.7599 52.9259 38.6945 52.7951L38.382 52.0321C38.2367 51.7704 38.3747 51.8794 38.2512 51.705L38.1785 51.3853C38.1785 51.378 38.1713 51.3707 38.1713 51.3635C38.1131 51.1091 38.1858 49.83 38.1349 49.4812C38.1204 49.3867 38.1058 49.3504 38.0986 49.2995C38.0186 48.9071 38.1495 49.067 38.0041 48.9652L37.9605 48.8853C37.8951 48.8417 37.9096 48.8635 37.866 48.7908L37.8442 48.4129C37.8442 48.4056 37.8442 48.3984 37.8442 48.3911L37.7715 48.0786C37.6698 47.817 37.8006 47.3083 37.6771 46.8722L37.4227 46.0001C37.4227 45.9929 37.4154 45.9856 37.4154 45.9783C37.4154 45.9711 37.4082 45.9638 37.4082 45.9565C37.4082 45.9493 37.4009 45.942 37.4009 45.9347L37.3355 45.8112C37.3355 45.8112 37.321 45.753 37.3137 45.7167C37.1829 45.6222 37.2919 45.7094 37.2483 45.6222L37.0012 45.1208C36.9358 44.99 36.8922 44.9972 36.8195 44.881L36.7396 44.801L36.4925 44.4158C36.4416 44.3359 36.4416 44.3504 36.3689 44.2996C36.1945 44.176 36.1873 44.2342 36.0346 44.1324L35.6567 43.8853C35.6349 43.8781 35.4533 43.7909 35.4387 43.7909C35.3878 43.7763 35.3515 43.7691 35.2788 43.8054C35.0608 43.9071 35.3006 43.8781 35.0317 44.0597L34.9082 44.2269L34.2033 44.9754H34.1597C33.898 45.1499 34.1161 45.1353 33.898 45.2952C33.8036 45.3606 33.869 45.3097 33.789 45.3606L33.7382 45.3897C33.164 45.7676 33.3166 45.8039 32.8225 46.1382L32.2701 46.458C32.2629 46.458 32.2556 46.4652 32.2483 46.4652L32.0303 46.5597L31.696 46.7269L31.4489 46.894H31.4053L31.2818 46.974H31.2382L31.1146 47.0539H31.071L30.8385 47.192C30.744 47.2501 30.7949 47.2138 30.7295 47.2429C30.7222 47.2429 30.7149 47.2501 30.7077 47.2501L30.6132 47.301H30.5696L29.7338 47.5844C29.6684 47.6135 29.6757 47.6062 29.6176 47.6353H29.5739C29.3051 47.7661 29.3777 47.6208 28.869 47.9696H28.8254H28.7818H28.7382C28.571 48.035 28.3966 47.9405 28.0478 48.0277L27.2847 48.224H27.2411C27.183 48.2676 27.0449 48.4856 27.0086 48.6237L26.8196 48.9362C26.7905 48.9798 26.776 49.0016 26.7397 49.0524L26.6597 49.1324L26.5362 49.2123L26.4562 49.2923H26.4126C26.3472 49.3359 26.34 49.3577 26.2673 49.394C26.2237 49.4158 26.1655 49.4376 26.1219 49.4594C26.0783 49.4885 26.1219 49.4667 26.042 49.503C26.0275 49.5103 25.9766 49.5248 25.9548 49.5394H25.9112C25.635 49.6702 25.6205 49.6411 25.4025 49.8591C25.2571 50.0045 25.1045 50.1207 24.9955 50.2879L24.6612 50.6222L24.3705 50.8693L23.6656 51.6178L23.3749 51.8649L23.0914 52.1701C22.9388 52.3518 23.0914 52.3082 22.8734 52.4536H22.8298C22.59 52.5698 22.7426 52.4318 22.6627 52.6207C22.6554 52.628 22.6481 52.6425 22.6481 52.6498L22.4374 53.1948C22.401 53.3693 22.5173 53.2602 22.372 53.3693L22.2775 53.6672C22.2775 53.6745 22.2702 53.6818 22.2702 53.689L22.1612 54.0379C22.0377 54.3722 22.1612 54.2704 22.0304 54.3649C21.9868 54.4812 22.0304 54.4085 21.9795 54.5684L21.6961 55.0335C21.6234 55.2006 21.7324 55.048 21.6525 55.1716C21.6162 55.2297 21.5871 55.237 21.5435 55.2951L21.4054 55.5349V55.5785C21.3109 55.7166 21.3109 55.6439 21.2455 55.8184L21.0711 56.2035V56.2471L20.7732 56.8431C20.7732 56.8503 20.7659 56.8576 20.7659 56.8649L20.5915 57.221C20.5333 57.3518 20.4534 57.359 20.3807 57.4753C20.279 57.6497 20.4897 57.5044 20.279 57.766L20.0246 58.1803C20.0246 58.1875 20.0173 58.1948 20.0173 58.2021L19.9301 58.3692C19.8357 58.6163 19.9011 58.6454 19.9737 58.7689C20.0464 58.8997 20.0246 59.3212 19.9665 59.5175C19.9665 59.5247 19.9592 59.532 19.9592 59.5393C19.9519 59.5683 19.9519 59.5829 19.9374 59.6047C19.872 59.7427 19.8502 59.6555 19.6976 59.7137C19.654 59.7427 19.6976 59.7209 19.6176 59.7573C19.6031 59.7645 19.5522 59.7791 19.5304 59.7936H19.4868H19.436H19.3924C19.247 59.8663 19.3342 59.8227 19.1598 59.8227C18.7601 59.8227 19.0653 60.3314 18.84 60.7602L18.7674 60.8547C18.702 60.9201 18.7964 60.8328 18.7019 60.9128L18.6365 60.9564C18.3749 60.9782 18.1496 61 17.8371 61H17.8081V60.9564Z" fill="white" fill-opacity="0.85"/>
</svg>
