<svg width="100" height="80" viewBox="0 0 100 80" fill="none" xmlns="http://www.w3.org/2000/svg">
<path fill-rule="evenodd" clip-rule="evenodd" d="M42.2962 15.416H42.3328L42.3008 15.4617L42.2962 15.416ZM41.9168 15.9462H41.9534L41.9214 15.992L41.9168 15.9462ZM47.3703 17.0068H47.4068L47.3748 17.0525L47.3703 17.0068ZM41.5785 17.3862V17.4227L41.5328 17.3907L41.5785 17.3862ZM40.4814 19.2375V19.201L40.5272 19.2329L40.4814 19.2375ZM40.934 19.5438V19.5072L40.9797 19.5392L40.934 19.5438ZM41.9945 19.8455V19.8089L42.0402 19.8409L41.9945 19.8455ZM49.3039 21.4728V21.5094L49.2582 21.4774L49.3039 21.4728ZM50.5153 22.6842V22.7208L50.4696 22.6888L50.5153 22.6842ZM40.1752 22.9859H40.2117L40.1797 23.0316L40.1752 22.9859ZM39.9512 23.2145H39.9877L39.9558 23.2602L39.9512 23.2145ZM51.4204 23.8956V23.9322L51.3747 23.9002L51.4204 23.8956ZM54.2637 24.8053H54.3002L54.2682 24.851L54.2637 24.8053ZM52.2569 25.3355V25.3721L52.2112 25.3401L52.2569 25.3355ZM52.33 25.4087V25.4452L52.2843 25.4132L52.33 25.4087ZM53.3906 26.62V26.6566L53.3449 26.6246L53.3906 26.62ZM38.9638 28.1377H39.0004L38.9684 28.1834L38.9638 28.1377ZM55.3608 28.1377V28.1743L55.315 28.1423L55.3608 28.1377ZM41.6928 29.2348V29.1982L41.7385 29.2302L41.6928 29.2348ZM41.8802 30.0667V30.1033C41.9031 30.1627 41.9077 30.1993 41.9077 30.2862C41.9077 30.4096 41.8894 30.2542 41.9077 30.3867C41.9854 30.8941 41.9991 30.5376 42.0174 30.853C42.0357 31.1867 41.9488 31.1135 41.9351 31.269C41.9259 31.3741 41.9031 31.525 41.8437 31.6164C41.6288 31.461 41.9488 31.621 41.7294 31.4655C41.6882 31.365 41.734 31.4335 41.702 31.3604C41.6517 31.2507 41.6974 31.3787 41.6425 31.2644L41.3363 30.6427C41.3317 30.6381 41.318 30.6336 41.3134 30.629L41.254 30.5467C41.1397 30.2999 41.126 30.2862 41.1717 29.9662C41.19 29.8382 41.3637 29.5502 41.4094 29.4816L41.6151 29.1936L41.6928 29.2302L41.7294 29.3079C41.7934 29.3536 41.7751 29.3262 41.8162 29.4679L41.8665 29.8702C41.8665 29.8793 41.8665 29.9113 41.8665 29.9205C41.8665 29.925 41.8711 29.9387 41.8711 29.9433C41.8939 30.0713 41.9442 29.9113 41.8802 30.0667ZM56.2704 29.6508V29.6873L56.2247 29.6553L56.2704 29.6508ZM56.5721 30.405V30.4416L56.5264 30.4096L56.5721 30.405ZM56.8738 31.1638V31.2004L56.8281 31.1684L56.8738 31.1638ZM41.7294 31.4655V31.5021L41.6837 31.4701L41.7294 31.4655ZM41.8437 31.6164H41.8802L41.8482 31.6621L41.8437 31.6164ZM39.2655 31.9592V31.9227L39.3112 31.9547L39.2655 31.9592ZM58.9949 37.5224V37.559L58.9492 37.527L58.9949 37.5224ZM59.2966 37.8287V37.8652L59.2509 37.8332L59.2966 37.8287ZM27.0009 38.2812H27.0375L27.0055 38.3269L27.0009 38.2812ZM63.5387 46.3083V46.3449L63.493 46.3129L63.5387 46.3083ZM64.2198 47.5197V47.5562L64.1741 47.5242L64.2198 47.5197ZM64.5992 48.2739V48.3105L64.5535 48.2785L64.5992 48.2739ZM45.2904 49.6773H45.3269C45.3361 49.6818 45.3452 49.6818 45.3498 49.691C45.3544 49.7001 45.3681 49.7001 45.3726 49.7047C45.4229 49.7321 45.3864 49.7047 45.4458 49.7458C45.5098 49.7915 45.5144 49.8098 45.5509 49.8647V49.9013C45.5829 49.9835 45.5646 50.0613 45.6332 50.1984C45.6743 50.2807 45.6789 50.2532 45.7155 50.3264C45.7612 50.4224 45.6515 50.3355 45.7795 50.427C45.8252 50.4909 45.7886 50.4315 45.8298 50.4909C45.8343 50.4955 45.8435 50.5047 45.8435 50.5092C45.8481 50.5138 45.8526 50.5229 45.8572 50.5275L45.8846 50.5961C45.8846 50.6007 45.8938 50.6098 45.8938 50.6144L46.0812 50.8292C46.4012 51.3778 45.8389 50.5412 46.2183 51.0395L46.3006 51.1812C46.5109 51.4509 46.7029 51.5103 46.7029 51.908C46.7029 52.26 46.6937 52.4611 46.8811 52.7583C46.8994 52.7857 46.9223 52.804 46.9451 52.8451L47.0594 52.9228C47.0686 52.9274 47.0823 52.9274 47.0823 52.9366L47.1646 53.0234C47.1691 53.0325 47.1828 53.0554 47.1874 53.06L47.224 53.1194C47.224 53.124 47.2286 53.1331 47.2286 53.1377C47.2286 53.1423 47.2331 53.1514 47.2331 53.156C47.2331 53.1605 47.2377 53.1697 47.2377 53.1743C47.2971 53.2931 47.5303 53.4348 47.6674 53.6359V53.6725C47.7314 53.8325 47.64 54.2942 47.6994 54.3765C47.6994 54.3811 47.7085 54.3856 47.7131 54.3902C47.7177 54.3948 47.736 54.4085 47.7405 54.4131L47.832 54.573C47.832 54.5776 47.8365 54.5868 47.8365 54.5913C47.8502 54.6325 47.8365 54.5959 47.8594 54.6508C47.9782 54.9296 47.8457 54.7285 47.9234 54.8565C47.9554 54.9067 48.0285 54.957 48.0788 55.0347C48.1519 55.0713 48.2617 55.0667 48.3531 55.2359C48.3942 55.3136 48.3394 55.2267 48.3851 55.3364L48.4628 55.4142C48.5176 55.4507 48.5268 55.469 48.5679 55.4964C48.6274 55.533 48.6639 55.5376 48.7279 55.565H48.7645H48.8011H48.8376C48.9656 55.6244 49.217 55.6016 49.4045 55.6016C49.409 55.6061 49.409 55.6107 49.409 55.6153L49.4273 55.6656C49.4456 55.7021 49.4547 55.7204 49.4776 55.7524V55.789L49.7244 56.1044C49.8479 56.1913 49.8022 56.109 49.8936 56.2415L49.9667 56.2827C49.921 56.3924 49.9576 56.6438 49.9667 56.7718V56.8084C50.0719 56.9638 49.9896 56.8678 50.0444 56.9958C50.1587 57.0781 50.0719 56.9958 50.1039 57.0781L50.1587 57.1832C50.1084 57.2198 49.8616 57.5306 49.5507 57.3341C49.4593 57.3752 49.5279 57.3752 49.4365 57.3341H49.3999C49.3176 57.3021 49.217 57.3021 49.1348 57.3341H49.0982C49.0068 57.2929 49.0753 57.2929 48.9839 57.3341H48.9473H48.9108H48.8742H48.8376H48.8011C48.7096 57.3752 48.7782 57.3752 48.6868 57.3341H48.6502C48.5176 57.2792 48.5496 57.3935 48.5131 57.2701C48.4948 57.2061 48.5268 57.1741 48.5725 57.1055V57.0689C48.6319 56.9272 48.5634 56.9135 48.5542 56.7535L48.4445 56.3558C48.4125 56.2781 48.4948 56.3558 48.3851 56.2735L47.96 55.7524C47.7771 55.5056 47.6171 55.4416 47.4937 55.3456C47.416 55.2862 47.3977 55.2587 47.3246 55.213C47.1234 55.0759 47.3611 55.1947 47.1737 55.0622C47.0914 54.9387 47.0823 54.9799 46.9863 54.9113L46.8354 54.7605L46.5337 54.4588L46.456 54.3811L46.3783 54.3033C46.328 54.2805 46.3052 54.2759 46.2457 54.2485C46.0995 54.1799 46.2823 54.2074 46.0766 54.1936C46.1543 54.0062 45.9806 54.0382 46.04 53.8919C45.7841 53.8691 45.7886 53.8919 45.7063 53.8097C45.5738 53.6771 45.6698 53.7365 45.6378 53.6725C45.5966 53.5948 45.5875 53.6177 45.4961 53.5674C45.4915 53.5628 45.4778 53.5582 45.4732 53.5537C45.1761 53.3525 45.3818 53.3982 45.1715 53.252C45.1395 53.2291 45.1212 53.2291 45.0847 53.188C45.0161 53.1148 45.0527 53.1423 45.0435 53.1103C45.0161 53.0325 45.0572 53.0051 44.8698 52.9868L44.9064 50.8749C44.9018 50.8429 44.8972 50.8521 44.9064 50.8201C44.9201 50.7286 44.911 50.8795 44.9338 50.7424L44.9384 50.1435C44.9384 50.0978 44.943 50.0887 44.9521 49.9973V49.9607V49.8464V49.8098V49.6956V49.659C44.9932 49.5584 44.9658 49.5036 44.9704 49.403L44.9932 49.3207C45.2172 49.3939 44.8332 49.3893 45.2492 49.6316L45.2904 49.6773ZM45.3269 49.6773V49.6407L45.3726 49.6727L45.3269 49.6773ZM45.7795 50.4315V50.395L45.8252 50.427L45.7795 50.4315ZM60.8508 51.8349V51.8715V52.1C60.6588 52.036 60.8599 52.1046 60.7639 52.0314C60.7502 52.0223 60.7045 51.9995 60.6999 51.9949C60.6451 51.9675 60.6634 51.9766 60.6177 51.9675C60.5994 51.9629 60.54 51.9583 60.476 51.9537C60.5445 51.7892 60.4074 51.6886 60.2428 51.62C60.1194 51.5698 60.092 51.6018 59.9457 51.3869C59.8497 51.3183 59.9228 51.3823 59.8863 51.3046C59.8863 51.3001 59.8817 51.2909 59.8817 51.2863C59.8817 51.2818 59.8771 51.2726 59.8726 51.2681C59.8086 51.1492 59.8131 51.2543 59.8131 51.1172L59.8223 50.8201C59.8406 50.6738 60.348 50.5184 60.476 50.4818C60.4805 50.4864 60.4805 50.4909 60.4805 50.4955L60.5811 50.6144C60.5857 50.6189 60.5902 50.6281 60.5902 50.6327L60.6177 50.6738C60.7228 50.8064 60.7137 50.7561 60.7182 50.8521C60.7319 51.1172 60.8005 50.8749 60.7914 51.1172C60.7914 51.1629 60.7868 51.2452 60.7914 51.2863C60.7914 51.2909 60.7959 51.3001 60.7959 51.3046L60.8142 51.3595C60.8417 51.7983 60.7457 51.1858 60.8188 51.5286C60.8234 51.5423 60.8234 51.6063 60.8234 51.6246C60.8325 51.7069 60.8371 51.6795 60.8508 51.8349ZM54.2637 51.492C54.3414 51.6795 54.1997 51.4783 54.3094 51.6338C54.3094 51.6338 54.3597 51.684 54.3642 51.6932C54.5928 51.8897 54.282 51.4418 55.0271 52.2006C55.251 52.4291 55.1596 52.292 55.3196 52.3971L55.3973 52.4749L55.443 52.5023C55.5939 52.5891 55.7265 52.7628 56.0053 52.9868L56.0647 53.0508C56.2247 53.2154 56.1653 53.0783 56.2659 53.2337L56.5676 53.5354L56.6818 53.6131H56.7184C56.7733 53.6497 56.7778 53.6634 56.8281 53.6954L56.947 53.7639L57.0247 53.8417C57.107 53.8965 57.0933 53.9011 57.1664 53.9651C57.2715 54.0565 57.2487 54.0108 57.3675 54.0702H57.4041C57.5047 54.1434 57.4544 54.1342 57.4681 54.1525L57.5824 54.3033C57.6327 54.3399 57.6829 54.3445 57.7424 54.3719H57.7789L57.8932 54.4496H57.9298L58.0441 54.5273C58.1172 54.637 58.2178 54.669 58.3366 54.7056L58.3732 54.7193C58.3778 54.7193 58.3869 54.7239 58.3915 54.7239C58.6292 54.797 58.4875 54.8107 58.5972 54.9525C58.6429 55.0073 58.6429 54.9936 58.684 55.0576L58.94 55.1582C59.0132 55.1947 59.0863 55.2999 59.1777 55.3593H59.2143C59.5983 55.6153 59.516 55.533 59.8497 55.6656C60.1194 55.7753 59.964 55.757 60.1605 55.8896H60.1971L60.476 56.1044C60.4805 56.109 60.4942 56.1135 60.4988 56.1181C60.6314 56.1821 60.7502 56.1593 60.8417 56.1958H60.8782H60.9148H60.9514L61.2119 56.3558C61.2531 56.3741 61.3262 56.4152 61.3628 56.4335C61.4222 56.461 61.4679 56.4747 61.5228 56.5021L61.7879 56.653C61.829 56.6804 61.829 56.685 61.8747 56.7032L62.2039 56.8038H62.2404L62.3547 56.8815H62.3913L62.7981 57.2701C62.9307 57.4529 62.8301 57.5763 63.1273 57.7363L63.2233 57.7912C63.2781 57.8232 63.2644 57.8095 63.3375 57.8278C63.3741 57.8963 63.3238 57.9055 63.4884 58.0152L63.6758 58.2437V58.2803H63.6392C63.5021 58.3489 63.4655 58.3077 63.3421 58.3443L63.1181 58.422C62.7296 58.5546 62.3227 58.5774 62.3136 58.582H62.277C62.1856 58.5409 62.2542 58.5409 62.1627 58.582H62.1262C62.0347 58.5409 62.1033 58.5409 62.0119 58.582H61.9753C61.8839 58.5409 61.9525 58.5409 61.861 58.582H61.8245C61.6782 58.5226 61.8199 58.6003 61.669 58.55C61.5182 58.4997 61.637 58.4997 61.4496 58.4632C61.2805 58.4312 61.2302 58.4814 61.1068 58.4312H61.0702C60.9788 58.39 61.0474 58.39 60.9559 58.4312H60.9285C60.6817 58.3123 60.4165 58.4083 60.284 58.3534H60.2474C60.156 58.3123 60.2245 58.3123 60.1331 58.3534H60.0965L59.5663 58.2757H59.5297H59.4931H59.4566H59.42C59.3423 58.2392 59.2326 58.2255 59.1457 58.2026C59.0132 58.166 59.068 58.1889 58.9309 58.1569C58.78 58.1203 58.6612 58.1706 58.5469 58.1249H58.5103C58.3869 58.0426 58.4509 58.0426 58.3321 58.0243C58.1766 58.0015 58.1401 58.0335 58.0212 57.974H57.9846L57.5778 57.878C57.2715 57.878 57.1161 57.7866 57.0384 57.8186H57.0018C56.8784 57.7592 56.7138 57.7592 56.6544 57.7592L56.2476 57.8186C56.147 57.8598 56.2201 57.8323 56.1242 57.8369C56.0556 57.8415 56.0647 57.846 55.9413 57.8552C55.8819 57.7272 55.9002 57.6632 55.6762 57.5123L55.2328 57.3066C55.0956 57.2792 54.5791 57.3158 54.4648 57.3615H54.4282C54.2362 57.4529 54.026 57.4392 53.8614 57.3615H53.8248H53.7883H53.7517H53.7151H53.6786C53.5963 57.3295 53.4957 57.3295 53.4134 57.3615H53.3769C53.2717 57.4118 53.2763 57.3798 53.1666 57.4163C53.1209 57.4346 53.1163 57.4438 53.066 57.4666C53.0203 57.4849 53.002 57.4895 52.9609 57.5123H52.9243C52.7232 57.5946 52.81 57.4529 52.6592 57.5123C52.554 57.4392 52.5723 57.4758 52.4215 57.4255L52.3255 57.3935C52.0832 57.3158 52.0923 57.2564 51.9369 57.2472L52.2523 56.6712C52.4855 56.1135 52.2158 55.9764 52.1838 55.8347L52.0558 55.4644C51.9735 55.3319 51.9918 55.3959 51.8821 55.3319C51.7678 55.2679 51.6078 55.0622 51.5255 54.9707C51.5164 54.9616 51.4935 54.9387 51.4889 54.9342C51.4844 54.9296 51.4752 54.9205 51.4706 54.9159L51.3381 54.7056L51.2649 54.6645C51.3472 54.4588 51.2101 54.4131 51.2055 54.2988C51.1964 54.1571 51.2787 54.2713 51.1507 54.1754C51.1415 54.0474 50.9998 53.7457 50.9632 53.6999C50.8124 53.5217 50.9221 53.6862 50.9084 53.5811C50.8901 53.4714 50.8855 53.5308 50.849 53.4668L50.8033 53.3525C50.785 53.3068 50.753 53.2337 50.7347 53.1925C50.9587 53.2108 50.8718 53.2428 50.9998 53.156C51.1232 53.0737 51.0547 53.0554 51.2284 53.0417C51.1644 52.8817 51.2832 52.7766 51.1644 52.58L51.041 52.1366C50.9587 52.0772 50.9998 52.1229 50.9815 52.0543C50.945 51.9217 51.0181 52.1366 50.9678 51.9812C50.9312 51.8623 50.9541 51.9583 50.9312 51.9035C50.8947 51.8166 50.9084 51.9172 50.9038 51.8075C50.881 51.4189 50.7804 51.8989 50.753 51.396C50.7484 51.3321 50.7438 51.3412 50.7347 51.2315V51.1949C50.6981 51.1263 50.7073 51.1492 50.6981 51.0441C50.8307 51.0989 51.4341 51.0989 51.5712 51.0441H51.6078C51.6992 51.0852 51.6306 51.0852 51.7221 51.0441H51.7586L52.3758 50.9709C52.3803 50.9709 52.3895 50.9618 52.394 50.9618L52.4809 50.9664H52.5175C52.7597 50.8521 52.7186 50.9526 52.9243 50.8886C52.9289 50.8886 52.938 50.8841 52.9426 50.8795C53.1574 50.8155 53.3677 50.8566 53.4637 50.8155H53.5003C53.5186 50.8246 53.6054 50.8612 53.6191 50.8704L53.7014 50.9572C53.834 51.1218 53.8523 51.1995 54.0625 51.3138C54.1448 51.3686 54.154 51.4189 54.2637 51.492ZM50.6661 51.0395H50.6295L50.6615 50.9938L50.6661 51.0395ZM54.2637 51.492V51.4555L54.3094 51.4875L54.2637 51.492ZM60.8508 52.1366C60.8554 52.132 60.8599 52.1412 60.8599 52.1457L60.8508 52.1366ZM60.9285 52.2097L60.9376 52.2189C60.9376 52.2234 60.9239 52.2143 60.9285 52.2097ZM55.3242 52.4017V52.3652L55.3699 52.3971L55.3242 52.4017ZM55.3973 52.4749V52.4383L55.443 52.4703L55.3973 52.4749ZM61.6828 52.8543L62.0165 53.2017L61.989 53.2703L61.4496 52.7491C61.6325 52.7583 61.5593 52.772 61.6828 52.8543ZM61.6828 52.8543V52.8177L61.7285 52.8497L61.6828 52.8543ZM47.0686 52.932V52.8954L47.1143 52.9274L47.0686 52.932ZM50.9678 53.156H50.9312L50.9632 53.1103L50.9678 53.156ZM61.989 53.2703H62.0256L61.9936 53.316L61.989 53.2703ZM51.1187 54.1799V54.2165L51.073 54.1845L51.1187 54.1799ZM58.0486 54.5228V54.4862L58.0943 54.5182L58.0486 54.5228ZM66.1123 54.9387V54.9753L66.0666 54.9433L66.1123 54.9387ZM47.1828 55.0896V55.1262L47.1371 55.0942L47.1828 55.0896ZM66.2677 55.0896V55.1262L66.222 55.0942L66.2677 55.0896ZM47.3337 55.2404V55.277L47.288 55.245L47.3337 55.2404ZM66.4185 55.5421V55.5787L66.3728 55.5467L66.4185 55.5421ZM48.3942 56.301V56.3375L48.3485 56.3055L48.3942 56.301ZM61.5319 56.4884V56.4518L61.5776 56.4838L61.5319 56.4884ZM67.3282 56.7535V56.7901L67.2825 56.7581L67.3282 56.7535ZM52.6363 57.5123V57.5489L52.5906 57.5169L52.6363 57.5123ZM55.6625 57.5123V57.5489L55.6167 57.5169L55.6625 57.5123ZM56.2339 57.814H56.2704L56.2384 57.8598L56.2339 57.814ZM63.5021 58.0015V57.9649L63.5478 57.9969L63.5021 58.0015ZM60.7777 58.422L60.7868 58.4312C60.7868 58.4312 60.7731 58.422 60.7777 58.422ZM70.0527 58.422V58.4586L70.0069 58.4266L70.0527 58.422ZM75.5061 58.5729V58.6094L75.4604 58.5774L75.5061 58.5729ZM72.8182 58.9523H72.8548L72.8228 58.998L72.8182 58.9523ZM24.729 60.2368H24.7656L24.7336 60.2825L24.729 60.2368ZM76.9461 60.2368V60.2734L76.9003 60.2414L76.9461 60.2368ZM22.1509 60.6893H22.1874L22.1554 60.7351L22.1509 60.6893ZM23.5176 61.7499H23.5542L23.5222 61.7956L23.5176 61.7499ZM23.0605 63.1532V63.1167L23.1062 63.1487L23.0605 63.1532ZM76.8683 63.6058H76.8318L76.8638 63.5601L76.8683 63.6058ZM78.6877 63.6058H78.6511L78.6831 63.5601L78.6877 63.6058ZM25.1039 63.6835V63.6469L25.1496 63.6789L25.1039 63.6835ZM70.5052 64.136H70.4686L70.5006 64.0903L70.5052 64.136ZM68.7636 64.2869H68.727L68.759 64.2412L68.7636 64.2869ZM36.541 64.5154V64.4789L36.5868 64.5109L36.541 64.5154ZM43.0002 15H43.8276C44.015 15.0183 43.8413 15 43.9739 15.0503C44.2024 15.1326 44.8835 14.9726 45.1761 15.1143C45.1852 15.1189 45.1944 15.1234 45.1989 15.128C45.2035 15.128 45.2172 15.1371 45.2264 15.1371C45.2355 15.1417 45.2447 15.1417 45.2538 15.1463C45.3041 15.16 45.2812 15.1417 45.3452 15.1691C45.3955 15.192 45.4275 15.2286 45.4778 15.2651L45.7155 15.4845C45.7292 15.5028 45.6789 15.4937 45.7795 15.5668L45.8709 15.7085C45.8938 15.7862 45.8526 15.7634 45.9303 15.8685C45.9989 16.0377 45.912 15.8548 45.9578 15.9965L46.104 16.4994C46.104 16.5039 46.1086 16.5131 46.1132 16.5176C46.1406 16.5862 46.1315 16.4994 46.168 16.6411C46.2 16.7645 46.136 17.3953 46.1909 17.5279L46.6069 17.2993H46.6434L46.7577 17.2216H46.7943L46.9086 17.1439H46.9451C47.0137 17.1119 47.0686 17.0982 47.1326 17.0662H47.1691C47.2377 17.0342 47.2926 17.0205 47.3566 16.9885C47.4388 16.9382 47.4845 16.9611 47.5851 16.9108H47.6217C47.7177 16.8696 47.9645 16.8788 48.0377 16.9108L48.1794 16.9656C48.3394 17.0022 48.4491 17.1988 48.5039 17.3359L48.4902 17.6285V17.665L48.2937 17.9073C48.2114 18.0216 48.2754 17.9302 48.1611 18.017C48.0377 18.113 47.8594 18.2273 47.6994 18.2776C47.6628 18.2913 47.6171 18.2913 47.608 18.2958L47.3886 18.3873H47.352L46.52 18.689L46.1772 18.8947C46.0675 19.0044 46.2457 18.785 46.1543 18.9404C46.1498 18.9495 46.136 18.9678 46.1315 18.977C45.9395 19.2878 46.0629 19.2467 45.9623 19.5849L45.9486 19.6215C45.8755 19.9278 46.0629 20.2569 46.1406 20.3118C46.1635 20.3666 46.1863 20.5357 46.2915 20.6135H46.328C46.3966 20.6455 46.4469 20.6592 46.5063 20.6683C46.5429 20.6729 46.5886 20.682 46.6709 20.6866H46.7074C46.7897 20.7186 46.8903 20.7186 46.9726 20.6866H47.0091C47.0914 20.7186 47.192 20.7186 47.2743 20.6866H47.3108C47.3977 20.7232 47.4937 20.714 47.6903 20.7277C47.7908 20.7369 47.7634 20.7415 47.8365 20.7415C47.928 20.746 47.8548 20.7186 47.96 20.7597H47.9965C48.0651 20.7917 48.1199 20.8054 48.1839 20.8374C48.2434 20.8786 48.1428 20.8283 48.2571 20.8786C48.2708 20.8832 48.3302 20.9014 48.3439 20.906C48.4445 20.9472 48.4079 20.9334 48.4902 20.9883H48.5268C48.5954 21.0203 48.6502 21.034 48.7142 21.066C48.7508 21.0934 48.7142 21.0706 48.7873 21.1071C48.8011 21.1163 48.8468 21.13 48.8696 21.1391H48.9062L49.0205 21.2169L49.0845 21.258C49.089 21.2626 49.0936 21.2671 49.0982 21.2717C49.1302 21.3083 49.0388 21.2717 49.1713 21.3677L49.2856 21.4454C49.4045 21.5003 49.3816 21.4591 49.4867 21.5506C49.5599 21.6146 49.5462 21.6191 49.6284 21.674L49.7062 21.7517C49.7747 21.8568 49.8844 21.9254 49.9347 22.0077C49.9713 22.0625 49.889 22.0305 50.0536 22.1585L50.5016 22.6568C50.6021 22.7254 50.6295 22.7848 50.7118 22.8945C50.7255 22.9128 50.6981 22.9082 50.7667 22.9585C50.8307 23.0545 50.8535 23.0225 50.8627 23.1185C50.8673 23.1413 50.8581 23.2145 50.8581 23.2511C50.8535 23.7036 50.8398 23.5162 51.1918 23.6579C51.2238 23.6716 51.201 23.6533 51.2467 23.6853L51.4067 23.8636C51.5255 23.9504 51.4295 23.8636 51.4661 23.9459L51.5346 24.0784C51.5346 24.083 51.5392 24.0922 51.5392 24.0967L51.5529 24.1333C51.7266 24.4624 51.6581 24.275 51.7541 24.4396C51.8272 24.563 51.8089 24.4624 52.0375 24.7001C52.1838 24.851 52.1061 24.8281 52.1792 25.1207L52.1975 25.1755C52.1975 25.1801 52.202 25.1892 52.202 25.1938C52.202 25.1984 52.2066 25.2075 52.2066 25.2121C52.2432 25.3355 52.1838 25.1847 52.2295 25.299L52.3072 25.3767C52.3575 25.4132 52.3666 25.4178 52.4169 25.459L52.6363 25.8018C52.6729 25.9298 52.6226 25.9664 52.874 26.1355C52.8832 26.1401 52.8923 26.1446 52.8969 26.1492C53.0889 26.2635 53.2031 26.3915 53.2671 26.5058C53.2809 26.5332 53.258 26.5103 53.2991 26.5515C53.3174 26.5698 53.3357 26.588 53.3403 26.5789C53.3449 26.5698 53.3586 26.588 53.3631 26.5926C53.5048 26.492 53.3357 26.62 53.4637 26.4326C53.5186 26.3503 53.5414 26.3046 53.6008 26.2269L53.8065 25.8109C53.8568 25.7058 53.8157 25.8246 53.866 25.7149L54.0443 25.3355C54.1082 25.2212 54.0991 25.3401 54.122 25.0795V25.043C54.1905 24.9378 54.1768 24.9927 54.1814 24.9013C54.186 24.7596 54.1082 24.8693 54.2362 24.7778L54.3871 24.627H54.4237H54.5379H54.5745C54.6934 24.6773 54.7482 24.6087 54.9356 24.7961L55.2968 25.2121C55.2968 25.2167 55.3059 25.2212 55.3059 25.2258C55.3105 25.2304 55.3196 25.2532 55.3242 25.2578L55.3836 25.3538C55.4842 25.5732 55.4659 25.4544 55.4705 25.5641L55.4659 27.1366C55.4659 27.3194 55.4796 27.3103 55.4248 27.516L55.379 27.7491C55.3059 27.9183 55.4476 27.6166 55.3379 27.8086C55.2465 27.9686 55.4202 27.7766 55.2191 28.0783C55.411 28.0783 55.283 28.0783 55.3333 28.1148C55.4248 28.1834 55.4613 28.3434 55.4659 28.444C55.4842 28.7137 55.4842 28.4074 55.5436 28.6725L55.6167 28.8782C55.6305 28.9102 55.6076 28.8919 55.6442 28.9331C55.6807 28.9788 55.7082 28.9925 55.7493 29.0154L55.9002 29.1662C55.9596 29.2531 56.019 29.3033 56.1013 29.3856C56.2019 29.4862 56.2293 29.4633 56.243 29.6233C56.3619 29.7102 56.2613 29.605 56.3161 29.7468L56.371 29.8976C56.3756 29.9067 56.3756 29.9296 56.3756 29.9387L56.5447 30.3822C56.6544 30.4599 56.5767 30.4462 56.5996 30.5421L56.8464 31.1364C56.9287 31.1958 56.883 31.1867 56.9241 31.2598C56.9744 31.3513 56.9287 31.2278 56.9744 31.333L57.1527 31.9409C57.1572 31.9455 57.1618 31.9547 57.1664 31.9592L57.2807 32.1649C57.331 32.2701 57.2487 32.0918 57.299 32.2198C57.4635 32.6403 57.2715 32.3478 57.4132 32.5809C57.4681 32.6678 57.4361 32.6678 57.4407 32.7135C57.459 32.8598 57.4681 32.7363 57.5138 32.846L57.5778 33.3672V33.4037L57.6327 33.646C57.6692 33.7283 57.6509 33.7054 57.6967 33.7786L57.7515 33.8654C57.7561 33.8746 57.7652 33.934 57.7881 33.9888C57.9115 34.286 57.7332 34.0483 57.8841 34.2723V34.3088L57.9298 34.9259C57.8978 35.1774 57.7926 35.5111 58.0349 35.6711L58.3412 36.0779C58.3458 36.0825 58.3458 36.0916 58.3503 36.0962C58.3869 36.1785 58.3092 36.1099 58.4189 36.2287C58.6063 36.4253 58.5743 36.3247 58.6658 36.5304C58.7206 36.6539 58.7343 36.5076 58.7343 36.7773C58.7343 36.9647 58.7526 37.0104 58.812 37.1933C58.8623 37.3487 58.94 37.271 58.8669 37.4493C59.0589 37.4493 58.9309 37.4493 58.9812 37.4858L59.068 37.5361C59.3149 37.6321 59.2143 37.6138 59.2874 37.7875C59.3926 37.8607 59.3149 37.7921 59.3697 37.9338L59.5617 38.3452C59.5937 38.4412 59.5434 38.3406 59.58 38.4275C59.6257 38.5326 59.58 38.4138 59.6303 38.5006L59.7171 38.6698C59.7171 38.6743 59.7217 38.6835 59.7217 38.6881L59.7308 38.7246C59.8223 38.9166 59.8954 38.7246 59.932 39.1863V39.2229C59.9137 39.4286 59.8771 39.5337 59.996 39.5474C60.0783 39.5566 60.1788 39.5383 60.3114 39.6023H60.348C60.3937 39.6343 60.3937 39.6434 60.4348 39.6663C60.5125 39.7166 60.4394 39.6709 60.5079 39.7074C60.6542 39.7852 60.6954 39.8766 60.6954 39.8811C60.7594 39.9863 60.6542 39.8263 60.7182 39.9269C60.7685 40.0091 60.8188 40.0229 60.8554 40.1234L60.9102 40.6263C60.9605 40.6583 60.9696 40.6628 61.0199 40.7085C61.1342 40.8228 61.0245 40.7771 61.1251 40.9005C61.2576 41.056 61.1891 40.9097 61.3216 41.1428L61.573 41.4811C61.797 41.7873 61.5913 41.5634 61.733 41.8102C61.7376 41.8148 61.7422 41.8239 61.7468 41.8285C61.8245 41.9793 61.701 41.8788 61.8793 41.9702C61.9205 41.9931 61.9433 42.0068 61.9753 42.0296C61.989 42.0662 61.9936 42.1073 61.9936 42.1165L62.1673 42.441C62.277 42.6376 62.2496 42.5096 62.373 42.7976L62.4416 42.9302C62.533 43.1404 62.5147 42.9759 62.5193 43.1176C62.5284 43.2593 62.4461 43.145 62.5741 43.241C62.5924 43.4787 62.5924 43.3873 62.661 43.5153C62.661 43.5198 62.6656 43.529 62.6701 43.5336L62.8758 43.8901C62.8941 43.945 62.8987 43.977 62.8987 43.9907L62.9536 44.1598C62.9581 44.169 62.9627 44.1918 62.9673 44.1964L63.1273 44.7266C63.1364 44.8912 63.1684 44.7678 63.205 44.8958C63.2141 44.9232 63.1958 45.0375 63.205 45.0649C63.2415 45.1883 63.2735 45.0786 63.2827 45.234C63.3147 45.7049 63.3512 45.8374 63.525 46.2671C63.6804 46.3769 63.5112 46.2031 63.6392 46.5231L63.7581 46.7106C64.0506 46.994 63.8587 46.8705 64.0049 47.0351C64.2015 47.2591 64.1375 47.3139 64.2061 47.4785C64.2655 47.5197 64.3798 47.6019 64.4118 47.6751C64.4483 47.7665 64.3523 47.7665 64.4712 47.8534C64.5078 47.9448 64.4712 47.8625 64.4941 47.9356C64.4941 47.9402 64.4986 47.9494 64.4986 47.9539C64.4986 47.9585 64.5032 47.9676 64.5078 47.9722C64.5535 48.0819 64.5763 48.0682 64.5855 48.2282C64.686 48.3013 64.6175 48.2191 64.6586 48.3516L64.6723 48.3882C64.6769 48.3973 64.6815 48.4202 64.686 48.4248L64.7226 48.539C64.7318 48.6167 64.7135 48.7127 64.7775 48.8682V48.9047C64.7638 49.083 64.7546 49.0602 64.7272 49.2659C64.7089 49.4213 64.7638 49.3619 64.6632 49.5081V49.5447C64.6175 49.6544 64.6586 49.6773 64.6449 49.7641L64.5489 49.9698C64.4849 50.1207 64.4575 50.2807 64.5032 50.4224C64.5398 50.5321 64.5489 50.4864 64.5626 50.5595C64.5672 50.5732 64.5626 50.6372 64.5626 50.6509C64.5809 50.7332 64.7135 51.1309 64.622 51.3595L64.6952 51.4006C64.7409 51.5103 64.6906 51.46 64.7226 51.5789V51.7343C64.6906 51.9537 64.75 51.9583 64.8872 51.9675C64.8552 52.0497 64.8506 52.1412 64.8963 52.2234C65.0243 52.452 64.8643 52.2509 64.9923 52.5389C65.0837 52.7491 64.9238 52.5114 65.0746 52.7857L65.2209 53.1788C65.2529 53.2611 65.2392 53.252 65.2483 53.2977C65.2529 53.3251 65.2575 53.3571 65.2849 53.4211C65.3854 53.6497 65.2712 53.5125 65.3489 53.6954L65.3809 53.7411C65.5317 53.8371 65.5729 53.6908 65.6231 53.9376L65.7603 54.2256C65.7603 54.2302 65.7694 54.2393 65.7694 54.2439C65.7694 54.2485 65.774 54.2576 65.774 54.2622L65.806 54.3353C66.0528 54.6736 65.8197 54.5319 65.9843 54.6508L66.0986 54.8793C66.286 55.0119 66.0483 54.893 66.2494 55.0302L66.3271 55.0667C66.2997 55.1307 66.2951 55.2084 66.3088 55.2633L66.4048 55.4827C66.5282 55.5696 66.414 55.4553 66.4871 55.629L66.8208 56.0907C66.9442 56.2781 66.8939 56.2735 66.9214 56.3238L67.0859 56.4884C67.0905 56.493 67.0951 56.4975 67.0997 56.5021L67.1591 56.5661C67.1636 56.5707 67.1728 56.5752 67.1774 56.5798C67.1819 56.5844 67.1911 56.589 67.1956 56.5935L67.3145 56.7032C67.4059 56.7627 67.4562 56.7947 67.4562 56.9089L67.4288 57.0415C67.5796 57.1055 67.4608 56.9729 67.5705 57.0872C67.7259 57.2426 67.4973 57.0415 67.6253 57.2198C67.6848 57.3021 67.8036 57.4072 67.8813 57.4575L67.9453 57.4986C68.0093 57.5581 67.8859 57.5032 68.0322 57.6083L68.2562 57.8689C68.5716 58.3717 68.7819 58.0837 69.0927 58.2117H69.1293H69.1658H69.2024H69.239H69.2756C69.367 58.2529 69.2984 58.2529 69.3898 58.2117H69.4264C69.5178 58.2529 69.4493 58.2529 69.5407 58.2117H69.5773C69.6778 58.2529 69.6001 58.2209 69.687 58.2346C69.7098 58.2392 69.7875 58.2575 69.8104 58.262C69.9475 58.2895 70.0069 58.3534 70.0069 58.3489C70.0115 58.3397 70.0207 58.358 70.0298 58.3626C70.1852 58.4677 70.1441 58.4952 70.3452 58.4952C70.4321 58.4952 70.5052 58.4723 70.6012 58.5134H70.6378C70.8572 58.6186 71.0492 58.5592 71.2777 58.55C71.5429 58.5409 71.7577 58.5134 71.9543 58.5911L72.1143 58.6643H72.1508C72.2286 58.6963 72.2148 58.6826 72.3108 58.6963L72.7954 58.8928L72.9097 58.8151C72.9965 58.7557 73.0148 58.7283 73.0879 58.6551C73.2114 58.5317 73.3668 58.4769 73.5085 58.454L73.7416 58.3626C73.9473 58.2255 73.8056 58.2483 74.1576 58.2483C74.3405 58.2483 74.4867 58.2255 74.6102 58.2849L74.6879 58.3626C74.7702 58.4769 74.985 58.4449 75.0673 58.4403C75.1633 58.4357 75.2913 58.4494 75.3233 58.454L75.4833 58.5134L75.561 58.55C75.5427 58.7511 75.5747 58.7649 75.3416 58.902C75.337 58.9066 75.3233 58.9249 75.3187 58.9157C75.3141 58.9066 75.3004 58.9248 75.2958 58.9294H75.2593H75.2227L74.9941 59.0071C75.113 59.0071 75.2456 59.0208 75.3416 59.0208C75.5244 59.0254 76.0912 58.9523 76.2832 59.0437H76.3198C76.3884 59.0757 76.4432 59.0894 76.5072 59.1214H76.5438H76.5804H76.6169H76.6535H76.6901H76.7266H76.7632H76.7998H76.8363C77.0329 59.2128 77.0009 59.0986 77.0101 59.2997C77.0146 59.4825 77.0009 59.5054 76.8912 59.6654C76.7998 59.798 76.7998 59.9077 76.7998 60.1408C76.9918 60.1408 76.8638 60.1408 76.9141 60.1774C77.0466 60.2414 77.2935 60.2551 77.4626 60.2642C77.5952 60.2734 77.5586 60.2596 77.7277 60.3008C77.9197 60.3465 77.7689 60.2962 77.9334 60.4059H77.97C78.0386 60.4379 78.0934 60.4516 78.1574 60.4836H78.194C78.2443 60.5065 78.2489 60.5065 78.3037 60.5293C78.3769 60.5613 78.3174 60.5431 78.3951 60.5705C78.482 60.6025 78.4088 60.5522 78.5368 60.6345C78.5963 60.6711 78.45 60.6711 78.6511 60.6711V60.7853V60.8219C78.6328 61.0276 78.6648 60.8585 78.6054 60.9682L78.5003 61.1053C78.5003 61.1099 78.4911 61.1145 78.4911 61.119C78.4866 61.1282 78.4774 61.1739 78.4637 61.2013L78.386 61.3156C78.45 61.4162 78.4866 61.4253 78.5506 61.5899C78.674 61.919 78.6146 61.9236 78.8431 62.1293L79.218 62.4493V62.463V63.0435C79.2088 63.0938 79.1997 63.1441 79.1768 63.1944L79.1585 63.2492C79.1311 63.3132 79.2134 63.2218 79.1174 63.3224C79.0762 63.3635 79.0625 63.3681 79.0305 63.3864H78.994C78.9482 63.4092 78.93 63.4092 78.8888 63.4321C78.8111 63.4686 78.8843 63.4366 78.8157 63.4686C78.7563 63.4961 78.7106 63.5144 78.6557 63.5372C78.6191 63.5601 78.6466 63.5555 78.5734 63.5738C78.5643 63.5784 78.5231 63.5829 78.5094 63.5829C78.4774 63.5875 78.4226 63.5921 78.4134 63.5921C78.3174 63.6195 78.354 63.6652 78.2626 63.7018C78.258 63.7018 77.3895 63.7292 77.2889 63.6881H77.2523C77.202 63.6652 77.1838 63.6606 77.1198 63.6286C77.1106 63.6241 77.1015 63.6195 77.0969 63.6149C76.9689 63.5601 77.0055 63.6103 76.8363 63.5326L76.4615 63.6515C76.4204 63.6652 76.3701 63.6698 76.3701 63.6698C76.1415 63.7292 76.0501 63.7018 75.9267 63.7612H75.8901C75.7484 63.7018 75.8855 63.7338 75.7667 63.7703L75.7073 63.7841C75.3918 63.8389 75.1496 63.7383 75.0536 63.912C74.953 63.9532 74.8616 63.9349 74.7427 63.944L73.3485 63.9532C73.2937 63.9166 73.2342 63.8481 73.2068 63.8343C73.1382 63.8023 72.8502 63.8298 72.7405 63.8389H72.704C72.4845 63.9852 72.6445 63.9258 72.3703 63.9395H71.9634C71.3783 63.9395 71.5657 64.008 71.2732 64.008C71.1635 64.008 71.0218 64.0309 70.9212 63.9898H70.8846C70.7932 64.0309 70.8618 64.0309 70.7703 63.9898H70.7338C70.6469 64.0263 70.6103 63.9989 70.4686 64.0675C70.4001 64.1635 70.2721 64.1315 70.0572 64.1315L68.727 64.2183C68.5122 64.3692 68.1419 64.3326 68.0459 64.296H68.0093H67.9728H67.9362C67.8448 64.2549 67.9133 64.2549 67.8219 64.296H67.7853C67.6939 64.2549 67.7625 64.2549 67.6711 64.296H67.6345C67.4608 64.2229 67.6208 64.3692 67.4471 64.296H67.4105C67.3191 64.3372 67.3876 64.3372 67.2962 64.296H67.2596C67.1636 64.3372 66.9991 64.3143 66.8528 64.3189C66.67 64.328 66.3683 64.3052 66.2403 64.3692C66.1991 64.3463 66.2357 64.3509 66.1626 64.3326C66.0437 64.3097 65.6917 64.3006 65.5454 64.4377L65.5226 64.4652C65.4312 64.5337 65.4357 64.4743 65.3306 64.52H65.294H65.2575H65.2209C65.1295 64.5612 65.198 64.5612 65.1066 64.52H65.07C64.9786 64.5612 65.0472 64.5612 64.9557 64.52H64.9192C64.8278 64.5612 64.8963 64.5612 64.8049 64.52H64.7683C64.6723 64.5612 64.5672 64.5383 64.4758 64.5383C64.3752 64.5383 64.2975 64.5612 64.2015 64.52H64.1649L63.5981 64.3692L63.557 64.4423C63.3741 64.5292 63.2644 64.4972 63.1318 64.4972C63.0313 64.4972 62.8621 64.4743 62.7616 64.5154H62.725C62.6427 64.4834 62.5421 64.4834 62.4599 64.5154H62.4233C62.3319 64.4743 62.4004 64.4743 62.309 64.5154H62.2724H62.2542H62.2176C62.1262 64.552 61.893 64.552 61.8016 64.5932H61.765C61.6782 64.6297 61.6599 64.6069 61.5593 64.6206C61.4405 64.6343 61.3125 64.648 61.2531 64.6434C61.1525 64.6389 61.0154 64.6252 60.9194 64.616C60.8371 64.6069 60.8279 64.6297 60.7411 64.5932H60.6999C60.6085 64.552 60.6771 64.552 60.5857 64.5932H60.5491C60.4028 64.5337 60.3068 64.5932 60.2748 64.6023C60.0783 64.6617 59.7766 64.584 59.6029 64.6663H59.5663C59.5251 64.6937 59.4977 64.7029 59.4611 64.7486C59.3926 64.84 59.4749 64.808 59.388 64.8994C59.3514 64.9406 59.3331 64.9451 59.3012 64.9634H59.2646C59.2189 64.9863 59.1686 64.9954 59.1092 65H58.588C58.4966 64.9954 58.5195 64.9726 58.3915 64.8857H58.3549C58.2178 64.7943 58.2543 64.7623 58.0715 64.6754C57.9801 64.6297 58.0212 64.6389 57.9481 64.6297C57.8384 64.616 57.8658 64.6206 57.7881 64.6572C57.7195 64.6114 57.8704 64.6389 57.6738 64.616L54.4831 64.6023C54.2774 64.5932 53.9574 64.6252 53.8477 64.5794H53.8111C53.7197 64.6206 53.7883 64.6206 53.6968 64.5794H53.6603H53.6237H53.5871C53.3403 64.4789 52.234 64.6297 51.7998 64.4926L51.4067 64.4743C51.3152 64.4835 51.3564 64.4697 51.2787 64.5017H51.2421H51.2055H51.169L50.4787 64.552C50.4376 64.552 50.3278 64.552 50.2776 64.552L48.6959 64.5612C48.5725 64.5566 48.4262 64.5612 48.3348 64.5612C48.2342 64.5612 48.1199 64.5429 48.024 64.5794H47.9874L47.3748 64.6297C47.3246 64.6297 47.2651 64.6206 47.192 64.6526C47.1508 64.6252 47.192 64.6389 47.1234 64.6252C47.1189 64.6252 47.1051 64.6252 47.1006 64.6252L46.8949 64.6526C46.8537 64.6252 46.8949 64.6389 46.8263 64.6252C46.8217 64.6252 46.808 64.6252 46.8034 64.6252L46.5932 64.6526H46.2915L45.4869 64.5932C45.4824 64.5932 44.943 64.5703 44.7784 64.6526C44.655 64.8354 44.6778 64.7714 44.4858 64.7852C44.3853 64.7897 44.3396 64.7897 44.239 64.7897C44.1247 64.7897 43.823 64.7669 43.7179 64.808H43.6813C43.5899 64.7669 43.6584 64.7669 43.567 64.808H43.5304C43.439 64.7669 43.5076 64.7669 43.4162 64.808H43.3796C43.2882 64.7669 43.3567 64.7669 43.2653 64.808H43.2287H43.1922H43.1556C43.0642 64.8491 43.1327 64.8491 43.0413 64.808H43.0048C42.9133 64.8491 42.9819 64.8491 42.8905 64.808H42.8265C42.7351 64.8491 42.8036 64.8491 42.7122 64.808H42.6756C42.5842 64.8491 42.6528 64.8491 42.5613 64.808H42.5248C42.4334 64.8491 42.5019 64.8491 42.4105 64.808H42.3739C42.2642 64.8537 41.8711 64.8263 41.7385 64.8263L39.7363 64.8583C39.5352 64.8674 39.2609 64.8994 39.0735 64.808H39.0369C38.9044 64.744 38.8861 64.7989 38.7032 64.7303L38.5432 64.6572L38.3147 64.6252C38.2004 64.616 38.0861 64.6206 37.9764 64.6206C37.2907 64.6206 37.4781 64.5612 37.0942 64.5657L36.7239 64.5109H36.6873C36.6736 64.5063 36.6096 64.4789 36.605 64.4789C36.5182 64.4377 36.573 64.4652 36.5319 64.4377L36.1845 64.4195C35.7411 64.4012 36.0108 64.2823 35.8142 64.36H35.7777C35.6862 64.3189 35.7548 64.3189 35.6634 64.36C35.6085 64.328 35.7457 64.3189 35.4394 64.3189C35.2337 64.3189 34.8817 64.296 34.7583 64.36C34.7491 64.3555 34.74 64.3509 34.7354 64.3463L34.6623 64.3326C34.6531 64.3326 34.6074 64.3372 34.5983 64.3417C34.5206 64.3463 34.5434 64.328 34.4566 64.36H34.42C34.2966 64.3097 34.2052 64.36 34.1092 64.328C33.9949 64.2915 34.036 64.2777 33.972 64.2412C33.8852 64.1955 33.9355 64.2549 33.8029 64.2137L33.6338 64.1909C33.4235 64.1955 32.5915 64.168 32.4864 64.2092H32.4498C32.3584 64.168 32.427 64.168 32.3355 64.2092H32.299C32.2075 64.168 32.2761 64.168 32.1847 64.2092H32.1481C32.0567 64.168 32.1253 64.168 32.0338 64.2092H31.9973C31.8144 64.136 32.0155 64.2595 31.8555 64.1589C31.5996 63.9943 31.5996 64.1086 31.2704 64.0675L31.211 64.0492C31.1836 64.0446 31.1836 64.0492 31.1562 64.0492C30.9367 64.072 31.147 63.9806 30.9779 64.0538H30.9413C30.8179 64.0035 30.9093 64.0446 30.8545 64.0492C30.667 64.0766 30.9413 64.0675 30.7996 64.0629C30.6396 64.0538 30.859 63.9806 30.6762 64.0538H30.6396C30.5162 64.0035 30.6076 64.0446 30.5528 64.0492L30.3836 64.0583C30.379 64.0583 30.3699 64.0629 30.3653 64.0629L30.2876 64.0492C30.283 64.0492 30.2739 64.0492 30.2693 64.0492L30.0591 64.0629C30.0545 64.0629 30.0453 64.0629 30.0408 64.0629L29.8168 64.0446C29.8168 64.0446 29.7619 64.0629 29.7574 64.0629L26.8592 64.0675C26.4478 64.0446 26.7998 63.9669 26.5895 64.0538H26.5529C26.5027 64.0309 26.5072 64.04 26.4661 64.0309C26.4295 64.0263 26.4387 64.0263 26.3701 64.008C26.2649 63.9852 26.2969 64.008 26.2147 63.976H26.1781L25.9038 63.8892C25.8078 63.8572 25.753 63.9303 25.4696 63.8252C25.465 63.8252 25.4558 63.8206 25.4513 63.8161C25.2821 63.7566 25.3827 63.7795 25.2639 63.6835C25.1496 63.5921 25.1633 63.6652 25.145 63.6103C25.1404 63.6012 25.1267 63.6012 25.1221 63.5966C25.0719 63.5738 25.049 63.5692 24.9896 63.5418C24.9302 63.5144 24.7062 63.4138 24.6285 63.4458H24.5919C24.5005 63.4046 24.569 63.4046 24.4776 63.4458C24.4685 63.4412 24.4593 63.4321 24.4547 63.4321C24.4502 63.4321 24.4365 63.4229 24.4273 63.4184L23.8011 63.3178C23.7919 63.3178 23.7599 63.3224 23.7233 63.3178C23.6685 63.3178 23.6045 63.3178 23.5771 63.3132C23.4628 63.2995 23.1702 63.1304 23.0742 63.0664H23.0377C22.7954 62.8972 22.9097 62.9887 22.8502 62.8378V62.8012C22.8045 62.7327 22.7634 62.7098 22.8091 62.527L22.832 62.4538C22.8868 62.3258 22.8868 62.4218 22.9462 62.2847L22.9645 62.2253C22.9965 62.143 22.96 62.2527 23.0011 62.1521C23.056 62.0013 22.9874 62.0698 23.0514 61.9784C23.1017 61.9099 23.1428 61.887 23.2251 61.8459L23.5359 61.6676L23.6868 61.5167H23.7233L23.8011 61.439C23.6868 61.3613 23.4125 61.279 23.2617 61.2699C23.1748 61.2653 23.2159 61.2927 23.1199 61.2516H23.0834C22.992 61.2927 23.0605 61.2927 22.9691 61.2516H22.9325L22.3931 61.343L22 60.991C22.0137 60.8082 22.0366 60.927 22 60.7625C22.1097 60.7305 22.0594 60.7488 22.1509 60.6848C22.1966 60.6208 22.1691 60.6391 22.2423 60.5888C22.3611 60.5065 22.1509 60.6436 22.2926 60.5613L22.3383 60.5339C22.4068 60.5019 22.4617 60.4882 22.5257 60.4562H22.5623C22.6491 60.4196 22.7725 60.4425 22.9051 60.3785H22.9417L23.2982 60.2779C23.7553 60.1316 23.9611 60.4151 24.1896 60.3008H24.2262C24.2948 60.2688 24.3496 60.2551 24.4136 60.2231H24.4502C24.5416 60.1819 24.473 60.1819 24.5645 60.2231H24.601C24.6924 60.1819 24.6239 60.1819 24.7153 60.2231L24.793 60.1819L24.8662 60.2231L24.9941 60.2871C25.0764 60.3191 25.0627 60.3054 25.1313 60.3374C25.2593 60.1454 25.305 60.2139 25.5107 60.0722C25.6113 60.0311 25.5564 60.0722 25.6935 60.0311C26.0958 59.9077 26.5301 60.0905 26.8455 60.0174C26.9049 60.0037 26.8226 60.0265 26.9278 59.9808C27.0192 59.9397 27.0329 59.9351 27.1381 59.9259C27.1472 59.7888 27.1563 59.8162 27.1563 59.7248V57.8506C27.1563 57.3661 27.1243 57.6221 26.9141 57.4163C26.7952 57.3021 26.8775 57.3295 26.8501 57.2244C26.8135 57.0918 26.7815 57.2244 26.7724 57.0369C26.7678 56.9501 26.7312 56.7855 26.7952 56.6667C26.8866 56.4975 27.1838 56.2141 27.1335 55.9033C27.0421 55.3273 27.0558 55.6701 27.0649 55.0805C27.0741 54.6279 27.1563 54.9936 27.1472 54.6873C27.1243 53.7228 27.1838 46.098 27.1335 45.9472C26.9735 45.4718 27.0741 45.4672 27.0329 45.298C27.0146 45.2249 27.0375 45.3255 27.0101 45.2432L26.9963 45.2066C26.9689 45.0786 27.0329 45.1655 26.9186 44.8821L26.8592 44.7861C26.7724 44.6626 26.6946 44.5164 26.8501 44.3838C26.8546 44.3792 26.8683 44.3747 26.8729 44.3701C26.8775 44.3655 26.8912 44.3609 26.8958 44.3564C27.2478 44.1324 27.1472 43.9678 27.0969 43.4833C27.0558 43.0764 27.1015 42.761 27.1015 42.4456L27.1289 40.4571C27.1198 40.3337 27.1152 40.1463 27.1061 40.0914C27.0283 39.5292 27.1061 39.7349 26.9323 39.6663H26.8958C26.7358 39.6023 26.9003 39.6937 26.7449 39.6297V38.7612C26.9369 38.7612 26.8089 38.7612 26.8592 38.7246L26.9735 38.2721C26.9872 38.0847 27.0603 38.0938 27.0695 37.9612C27.0878 37.6458 27.298 37.8332 27.298 37.4675L27.2843 37.3533C27.17 36.9921 27.2295 37.1841 27.2935 36.9647L27.298 35.2551C27.3118 34.9945 27.3529 34.9305 27.5495 34.8848C27.6546 34.8619 27.5129 34.9031 27.6089 34.8711C27.6135 34.8711 27.6637 34.8482 27.6637 34.8482C27.7095 34.8345 28.1849 34.8574 28.3357 34.7842C28.4043 34.8254 28.4317 34.8071 28.4957 34.8025C28.5734 34.798 28.5506 34.8162 28.6374 34.7842L28.7791 34.8117C28.9117 34.8117 28.834 34.8345 28.9391 34.7842C29.0305 34.8437 29.1128 34.8254 29.2408 34.8208L30.4065 34.8391C30.571 34.8391 30.6533 34.8391 30.7082 34.702L30.7173 34.67C30.8453 34.6425 30.8225 34.6654 30.9047 34.6334H30.9413C31.0419 34.6745 32.0293 34.67 32.1161 34.6334H32.1527C32.2441 34.6745 32.1755 34.6745 32.267 34.6334H32.3035H32.3401H32.3767H32.4132H32.4498H32.4864H32.5229H32.5595H32.5961C32.6875 34.5922 32.6189 34.5922 32.7104 34.6334H32.7469C32.8292 34.6014 32.9298 34.6014 33.0121 34.6334H33.0486C33.1401 34.5922 33.0715 34.5922 33.1629 34.6334H33.1995C33.2909 34.5922 33.2223 34.5922 33.3138 34.6334H33.3503C33.4372 34.67 33.5012 34.6334 33.7206 34.6974C33.7252 34.6974 33.7343 34.702 33.7389 34.702L33.9172 34.7842H33.9537C34.1366 34.8711 40.358 34.8208 41.1123 34.8208L41.0574 34.6791C40.9751 34.4643 41.0163 34.7294 40.9797 34.4551C40.9751 34.4231 40.9797 34.4323 40.9614 34.4003L40.8197 34.094C40.7786 34.03 40.7511 34.0117 40.6734 33.9751L40.4449 33.8609C40.4403 33.8563 40.4266 33.8517 40.422 33.8471L39.9969 33.3992C39.9969 33.3946 39.9923 33.3854 39.9877 33.3809C39.8689 33.1889 39.9146 33.3626 39.8232 33.2117C39.7775 33.1386 39.8003 33.1843 39.7729 33.134C39.7363 33.0655 39.782 33.0563 39.6998 32.9329C39.6769 32.878 39.6815 32.8003 39.5855 32.686L39.5581 32.6632C39.4803 32.5718 39.5581 32.5901 39.3935 32.4803L39.2884 32.1238C39.2518 32.0369 39.2701 32.1009 39.2472 32.0689C39.2426 32.0644 39.2381 32.0552 39.2381 32.0506L39.2061 31.9501L39.0232 31.6072C38.8907 31.2873 38.9272 31.2598 38.9044 31.1958V31.1593L38.8495 30.9033C38.7718 30.5056 38.8084 30.9216 38.7672 30.6564C38.7581 30.5787 38.7855 30.6061 38.7489 30.4827C38.7307 30.4187 38.7261 30.437 38.7032 30.341C38.685 30.2587 38.7169 30.3273 38.685 30.2587C38.6438 30.1582 38.621 30.2404 38.6118 30.1079C38.5707 29.3673 38.7627 29.541 38.7627 28.9194C38.7627 28.3205 38.9135 28.3845 38.8267 28.1743L38.8998 28.1331C38.8587 28.0417 38.8587 28.1103 38.8998 28.0188V27.9823C38.8587 27.8908 38.8587 27.9594 38.8998 27.868V27.8314L38.8404 27.612C38.8358 27.5114 38.8221 27.2417 38.8724 27.1594C39.1375 26.716 38.8724 26.6566 39.0552 26.3412L39.0872 26.2726C39.1101 26.2086 39.1009 26.2726 39.1101 26.1995L39.1146 25.5915C39.1055 25.5184 39.1146 25.5641 39.0872 25.5229C39.1466 25.3995 39.1055 25.4909 39.1146 25.3858L39.1695 24.9607C39.1695 24.9561 39.1741 24.947 39.1741 24.9424L39.2015 24.8373V24.8007C39.2426 24.7001 39.2152 24.7824 39.2198 24.6956L39.6632 23.5619C39.8278 23.3196 39.6952 23.4385 39.7638 23.3425L39.878 23.2145C39.8872 23.2099 39.8963 23.2008 39.9009 23.2008L40.0472 23.0545C40.0609 23.0362 40.0335 23.0408 40.102 22.9905C40.134 22.9311 40.1523 22.8808 40.1935 22.8168C40.2346 22.7528 40.2483 22.7528 40.294 22.6888L40.6369 22.4602H40.6734L40.7511 22.3825L41.4871 21.7928C41.4917 21.7837 41.5054 21.7837 41.51 21.7791L42.0768 21.4774H42.1134C42.3328 21.3311 42.1819 21.386 42.3099 21.1071L42.3419 21.0614C42.3145 21.0203 42.2916 21.002 42.2779 20.9746C42.2505 20.9334 42.2551 20.9243 42.2459 20.9014C42.2459 20.8969 42.2414 20.8877 42.2414 20.8832C42.1134 20.6135 42.2185 20.8512 42.1682 20.6317C42.1408 20.5175 42.1317 20.554 42.1042 20.4352C42.0859 20.3575 42.1088 20.3483 42.0951 20.298L41.9259 19.8501L41.7477 19.7678C41.7065 19.7495 41.7385 19.7586 41.67 19.7495C41.2585 19.6809 41.4003 19.6489 41.286 19.6992L41.1443 19.6535C40.998 19.6306 41.0757 19.6718 40.9157 19.5804C40.9111 19.5758 40.8974 19.5758 40.8929 19.5666C40.8883 19.5529 40.8746 19.5575 40.87 19.5529C40.5912 19.4204 40.7283 19.4707 40.4174 19.2512C40.2986 19.1735 40.2712 19.1278 40.2117 18.9541L39.9832 18.5564C39.9512 18.401 39.878 18.0764 39.7912 17.9439C39.75 17.8799 39.75 17.9302 39.7546 17.8022C39.7638 17.2719 39.6998 17.5736 39.8643 17.2948C39.974 17.1073 40.198 17.0113 40.39 17.0342L40.7969 17.1668H40.8334C41.0346 17.2628 41.0483 17.1896 41.1763 17.2445H41.2128C41.2814 17.2765 41.3363 17.2902 41.4003 17.3222L41.5145 17.3999C41.5968 17.441 41.5282 17.409 41.6288 17.4365C41.7202 17.377 41.67 17.3907 41.7797 17.3587C41.7797 17.0936 41.7797 16.8285 41.7797 16.5634C41.7797 16.4079 41.7111 16.0605 41.8574 15.9554C41.9808 15.7725 41.9259 15.8045 41.9579 15.7223C41.9762 15.6765 41.9488 15.7268 41.9899 15.672C42.0677 15.5668 42.1408 15.4937 42.2368 15.4297C42.3328 15.2834 42.3054 15.3748 42.4014 15.2834L42.5019 15.2011L42.5796 15.1234L42.7351 15.0549C42.8356 15.0229 42.9088 15.0091 43.0002 15ZM44.7601 64.744H44.7235L44.7555 64.6983L44.7601 64.744Z" fill="white" fill-opacity="0.85"/>
</svg>
