<svg width="100" height="80" viewBox="0 0 100 80" fill="none" xmlns="http://www.w3.org/2000/svg">
<path fill-rule="evenodd" clip-rule="evenodd" d="M72.3115 17.0221C72.0908 17.171 71.964 17.3696 71.8426 17.6343L71.5833 18.4287C71.5337 18.5776 70.8994 19.5429 70.778 19.7304C70.596 20.0063 70.7008 19.918 70.3808 20.0228C70.2981 20.0504 70.2209 20.0945 70.0995 20.0504C70.0278 20.0228 69.9506 19.9125 69.9506 19.9014C69.9396 19.8408 68.7757 20.0228 68.4668 20.2876C68.2406 20.4806 68.4502 20.42 68.0696 20.5137C67.4187 20.6682 66.7899 20.8833 66.1445 21.0598L62.3164 22.1465C61.9854 22.2347 61.7206 22.3947 61.4173 22.4885L59.1391 23.3104C58.9957 23.3655 58.8578 23.4428 58.7089 23.4924C57.4291 23.9557 54.2022 25.2631 53.0053 25.1693C52.1889 25.1031 51.6869 25.4341 51.0084 25.6547C50.8099 25.7209 50.2362 25.8864 50.0928 25.9746C49.7122 26.2118 49.3316 26.3221 48.8241 26.5593C47.8367 27.0172 47.3679 26.8076 46.739 26.9124C45.7627 27.0778 46.2536 27.0723 45.1118 26.9124C44.9187 26.8848 44.7477 26.8848 44.5216 26.8848C44.2623 26.8848 44.1961 26.8406 43.9755 26.8241C42.7013 26.7248 42.0338 26.5814 40.8148 26.267C40.1473 26.096 40.3018 26.0794 39.8881 25.947C39.6343 25.8643 39.3861 25.8588 39.1434 25.7816C39.011 25.7374 39.0386 25.7374 38.9448 25.6878C38.7463 25.594 38.2277 25.4947 37.974 25.423C37.643 25.3237 37.3176 25.2686 36.9811 25.1693C35.7621 24.8107 34.0024 24.5349 32.6841 24.5294C32.4855 24.5294 32.3145 24.5515 32.1215 24.5791C31.625 24.6453 31.0514 24.6563 30.4997 24.7776C30.3288 24.8163 30.1743 24.8714 30.0143 24.91C29.5786 25.0259 28.9056 25.3844 28.5526 25.6326C28.4974 25.6712 28.4478 25.6933 28.365 25.7374C28.2161 25.8147 28.1334 25.8698 27.9789 25.9746C27.6093 26.2228 27.7307 26.2008 27.2453 26.4821L25.7173 27.4309C25.6677 27.4805 25.6015 27.5412 25.5408 27.5798C25.4581 27.635 25.4415 27.6184 25.3588 27.6846C25.2264 27.7894 25.1381 27.8391 24.9892 27.9383C24.8458 28.0376 24.8127 28.148 24.6527 28.2252C24.4707 28.3134 24.4541 28.3355 24.3328 28.4899C24.2556 28.5837 24.1342 28.7216 24.0404 28.8154C23.7812 29.0691 23.9025 28.9919 23.7702 29.1629C23.6654 29.2953 23.6157 29.378 23.5054 29.5159C23.362 29.7035 23.3344 29.6263 23.2351 29.8634C23.1744 30.0179 23.0917 30.1503 23.02 30.2716C22.8986 30.4757 22.5677 31.4135 22.5346 31.6341C22.4629 32.0533 22.4408 31.8272 22.358 32.0809L22.0712 33.6585C21.983 34.6459 21.7182 35.9973 21.7127 36.9792C21.7127 37.1777 21.6741 37.3377 21.6079 37.4866C21.4755 37.7845 21.5582 37.7404 21.5637 37.9941C21.5637 38.1651 21.5031 38.314 21.5031 38.5402C21.5031 39.3676 21.5306 38.9649 21.4148 39.7041L21.2604 41.381C21.2438 41.5961 21.2217 41.7892 21.1997 41.9602C21.1445 42.5228 21.1555 43.1902 21.139 43.7529C21.1335 44.0397 21.0673 44.1445 21.0507 44.2935C21.0342 44.4589 21.0838 44.7072 21.0232 44.834C20.9845 44.9223 21.0011 45.667 21.0232 45.7331C21.0673 45.8159 21.0673 46.0034 21.1445 46.1413C21.2052 46.0476 21.1942 46.0365 21.2328 45.9317C21.3045 45.7442 21.4424 45.4629 21.5582 45.3139C21.5582 46.362 20.9625 46.8364 21.2052 48.6236C21.2714 49.0924 21.0894 49.3186 21.1445 49.7047C21.4424 49.6165 21.7016 49.3186 21.7954 49.0428C21.8947 48.7394 21.983 48.3091 22.0988 48.0499C22.165 48.1106 22.1595 47.9782 22.165 48.2264V48.7946C22.3801 48.8166 22.5401 48.6346 22.6118 48.4746C22.6669 48.3478 22.6504 47.9837 22.8269 47.9451C22.8269 48.3919 23.1468 49.2358 23.5164 49.302C23.533 48.9214 23.4282 48.5519 23.4282 48.1933C23.4282 47.7741 23.4888 47.4597 23.4888 47.0184C23.5992 47.0791 23.5164 46.9908 23.5992 47.1397C23.7315 47.3659 23.8474 47.6417 24.1342 47.6969C24.2556 47.7189 24.1949 47.57 24.1728 47.4431C24.1287 47.1894 24.1122 46.4557 24.1728 46.1799C24.2004 46.0531 24.2059 45.9703 24.3328 45.9372C24.3328 46.2351 24.3714 46.5275 24.4817 46.7702C24.4928 46.7922 24.5534 46.9356 24.559 46.9467C24.6196 47.046 24.8458 47.2004 24.9671 47.2666C25.0168 46.6378 25.1602 46.4999 25.1216 45.6118C25.1161 45.4353 25.0664 45.2643 25.0499 45.0933C25.254 45.1043 25.1602 45.1153 25.3312 45.165C25.8552 45.3194 25.5849 44.812 25.5187 44.4755C25.4691 44.2273 25.4415 44.0452 25.3643 43.8246C25.0278 42.8813 24.7079 42.1808 24.9892 41.1162C25.1988 40.3164 25.094 40.3715 25.1657 39.6986C25.3808 39.8916 25.9325 40.9618 25.9821 41.3424L26.2083 42.7986C26.3406 43.4826 26.1752 44.3486 26.0097 44.994C25.8552 45.5952 25.7284 46.3565 25.4029 46.897C25.3478 46.9908 25.2981 47.068 25.2374 47.1673C25.0664 47.4376 24.901 47.6362 24.7796 47.9451C24.6307 48.3312 24.912 49.3903 24.912 50.2012C24.912 50.7197 25.0223 51.2768 25.0333 51.7677C25.0554 52.5455 24.9616 54.4099 25.0389 55.0387C25.0995 55.5517 25.1161 56.7928 25.0168 57.3279C24.9782 57.521 24.9561 57.4989 24.8844 57.6368C24.7796 57.8409 24.8458 58.4642 24.9506 58.6518C25.0719 58.8724 25.1878 58.9331 25.4195 59.0268C25.7228 59.1537 25.9931 59.6667 26.1862 59.9315C26.5999 60.4996 26.1476 60.5658 26.0593 61.0512C26.0704 61.2664 26.964 61.6415 27.157 61.6856C27.3777 61.7352 28.6022 61.7187 28.7898 61.6801C28.9056 61.658 29.1704 61.6084 29.2642 61.5808C29.4241 61.5311 29.4021 61.3215 29.4131 61.1726C29.6061 61.1174 29.8599 61.2939 30.1467 61.3546C30.417 61.4098 30.6046 61.4649 30.8362 61.5091C31.1231 61.5642 31.2996 61.5863 31.5643 61.476C32.0332 61.2829 32.2483 61.2498 31.956 60.7534C31.8181 60.5217 31.5809 59.937 31.3934 59.7825C31.272 59.6833 31.2113 59.6998 31.0734 59.5619C30.9741 59.4626 30.919 59.3909 30.8362 59.2861C30.7425 59.1703 30.6873 59.1427 30.5935 59.0158C30.0695 58.2877 30.1136 58.0174 29.8489 57.179L29.5234 55.9323C29.4186 55.5793 29.3414 54.9394 29.3193 54.5699C29.2972 54.272 29.22 54.0072 29.1593 53.7149C29.0435 53.1743 28.9883 52.4462 28.9608 51.8394C28.9442 51.5305 29.0104 51.1665 29.0711 50.8796C29.1373 50.5487 29.2366 50.4052 29.3083 50.1074C29.5896 48.9545 29.6999 48.7615 30.0364 47.7024C30.1467 47.3493 30.4942 46.6323 30.7038 46.2903C30.9024 45.9648 30.8362 46.1965 30.9631 45.5401C31.0238 45.2257 31.0734 44.9609 31.1396 44.6575C31.1672 44.5196 31.2003 44.3541 31.2279 44.2273L31.4871 42.931C31.5478 42.5945 31.5754 42.3463 31.6416 42.0595C31.7022 41.7947 31.9725 41.6733 32.1601 41.5189C32.6234 41.1383 32.5352 41.2431 32.993 40.7852C33.2247 40.5536 33.1861 40.4874 33.5115 40.2833C33.6274 40.2116 33.7542 40.1785 33.9197 40.1674C34.6258 40.1288 34.7085 40.7908 35.2656 40.9011C35.58 40.9618 35.8945 40.8294 36.0324 40.6529C36.1427 40.515 36.1316 40.4377 36.1592 40.2612C36.1813 40.1233 36.2254 40.0185 36.2806 39.8916C37.0859 39.8916 37.6927 39.9799 38.4925 40.1123C38.8014 40.1619 39.0552 40.3605 39.3806 40.4653C39.684 40.5646 39.9819 40.6473 40.3183 40.7356L42.2103 41.2817C42.5192 41.381 42.8888 41.4141 43.2308 41.4968C44.2292 41.734 45.1504 42.0374 46.1764 42.1974C47.0865 42.3408 48.0022 42.3408 48.9013 42.5338C49.2709 42.6111 49.6019 42.6276 49.988 42.6883C50.5837 42.7876 50.9919 42.749 51.5214 42.9696C51.6704 43.0303 52.1944 43.2895 52.3047 43.3888C52.5198 43.5764 52.3985 45.2698 52.3985 45.678L52.3709 48.1161C52.3709 48.5684 52.4592 49.1972 52.3158 49.6164C52.2882 49.6992 52.2716 49.7599 52.2551 49.8426C52.2054 50.0908 52.1558 50.0522 52.1558 50.3391C52.1558 50.8355 52.2054 51.0175 52.3102 51.4312C52.415 51.8449 52.2165 53.1964 52.1613 53.6542C52.1172 54.0238 52.1172 54.3878 52.051 54.7464C51.9296 55.4193 51.8303 56.1695 51.7255 56.8535C51.6759 57.201 51.5711 57.6037 51.709 57.9733C51.88 58.4366 52.3709 58.5028 52.5254 59.5895C52.5585 59.8156 52.6191 59.8929 52.4812 60.0914C52.3985 60.2073 52.3213 60.3121 52.1889 60.3838C52.1834 60.6817 52.1723 60.814 52.2937 61.0292C52.3709 61.1671 52.4923 61.316 52.6247 61.4263C52.8729 61.6304 54.0478 61.7518 54.456 61.7297C54.627 61.7187 54.8752 61.658 55.0572 61.6856C55.2007 61.7021 55.2338 61.6966 55.3606 61.7518C55.6364 61.8621 55.9177 61.9062 56.2046 61.9724C56.2432 61.989 56.3094 61.9945 56.3866 62H56.9106C56.9548 62 56.9989 61.9945 57.032 61.9945C57.1258 61.989 57.0651 61.989 57.1533 61.989L57.4181 61.9669C57.4843 61.9338 57.9256 61.9007 58.1628 61.6084C58.1297 61.4705 58.1186 61.4539 58.0414 61.327C57.9752 61.2277 57.9697 61.1505 57.8925 61.0733C57.6829 60.8858 57.8208 61.1616 57.567 60.781L57.0706 60.2238C56.9051 60.0363 56.9161 59.8598 56.7231 59.7329C56.6348 59.6777 56.5686 59.6612 56.5024 59.5564L56.0887 58.729C55.8405 58.2822 55.7578 57.9953 55.7467 57.3775C55.7467 57.2231 55.7136 57.179 55.7136 57.019C55.7026 55.9489 55.6419 53.3894 55.846 52.5841C56.0225 51.8725 56.2211 51.2327 56.2928 50.5431C56.3645 49.8426 56.6183 49.8371 56.5576 49.1531C56.5024 48.5077 56.6238 48.5188 56.7286 48.1547C56.7672 48.0278 56.7727 47.9727 56.8169 47.8458C57.0927 47.1066 57.6498 45.3911 57.9807 44.8561C58.0966 44.6685 58.1848 44.5362 58.3007 44.3321C58.5654 43.8742 58.8357 43.4385 58.9295 42.8869C58.9571 42.7214 58.9295 42.6 58.9461 42.4566C58.9847 42.1422 60.1099 41.3865 60.485 40.6915C60.6671 40.3495 60.9208 39.9523 60.9704 39.5C61.0753 38.6009 61.4724 37.8176 61.5221 37.5804C61.6655 36.8578 61.9799 36.5268 62.2667 35.8484C62.355 35.6332 62.4377 35.4512 62.5039 35.2416C62.6915 34.6679 62.9342 33.9784 63.3203 33.5482C63.4803 33.3717 63.5685 33.2724 63.7285 33.1179C63.9932 32.8532 64.2249 32.5167 64.2911 32.445L64.7379 32.0919C64.771 32.0699 65.295 31.4355 65.7915 31.0384L66.8671 30.0731C67.4077 29.7421 67.5621 29.2622 68.7205 28.6168C68.9301 28.501 69.217 28.0597 69.5148 28.2141C70.618 28.7768 71.2414 28.5617 72.4328 28.5617C72.6093 28.3355 72.5873 28.1535 73.2382 28.2859C73.3981 28.319 73.5526 28.3907 73.7512 28.3245C74.54 28.0818 74.4186 28.2969 75.1412 28.6003C75.4501 28.7271 75.7921 28.7216 76.1341 28.8816C76.272 29.5545 76.3437 29.549 76.8236 29.9462C77.2152 30.2716 77.6951 30.3489 78.164 30.1227C78.4895 29.9627 78.495 29.7752 78.6218 29.3835C78.8645 29.3725 78.9363 29.367 79.1293 29.2677C79.4272 29.1133 79.2838 29.2236 79.4492 28.9754C79.5265 28.8595 79.6313 28.7327 79.703 28.6058C79.7637 28.4844 79.8023 28.2748 79.8629 28.159C79.896 28.0762 79.885 28.0156 79.8905 27.9494C79.896 27.8666 79.9016 27.7949 79.9016 27.7122V27.7067V27.2599C79.896 27.1937 79.885 27.1385 79.8685 27.0944C79.6147 26.6586 79.383 26.5869 79.2286 26.4545C78.9528 26.2173 79.0962 26.3773 78.9804 26.1898C78.848 25.9857 78.5115 25.6988 78.3957 25.572C78.0371 25.1748 78.2026 25.4892 77.9158 25.07C77.7227 24.7942 77.4745 24.5625 77.2208 24.2371C76.9394 23.8785 76.8843 23.8509 76.6195 23.3766C76.4651 23.1008 76.4595 22.9794 76.4099 22.6043C76.3492 22.163 76.3161 22.2072 76.0293 21.97C75.8583 21.8266 75.7038 21.6776 75.4942 21.5232C75.1136 21.2474 75.2681 21.3797 75.0088 21.0212C74.8489 20.8006 74.7275 20.6627 74.6006 20.4475C74.4351 20.1717 74.209 20.0504 74.22 19.8132C74.2255 19.7249 74.8378 17.2096 74.0711 17.3696C73.9001 17.4027 73.5415 18.2852 73.4312 18.4783C73.3154 18.6769 72.7583 19.3167 72.5597 19.3167C72.5045 19.063 72.6038 18.9858 72.6866 18.7982C72.8355 18.4562 72.5817 18.4949 72.5817 17.5902C72.5817 17.331 72.6204 17.2262 72.4714 17.0441C72.4438 17.0055 72.4935 17 72.4108 17C72.3556 17 72.3777 17 72.3115 17.0221Z" fill="white" fill-opacity="0.85"/>
</svg>
