<svg width="82" height="57" viewBox="0 0 82 57" fill="none" xmlns="http://www.w3.org/2000/svg">
<path d="M57.8543 0.000545957C57.7587 0.00272141 57.6621 0.00888518 57.5643 0.0193998C57.173 0.0603708 56.7712 0.173857 56.4002 0.35877C56.0296 0.553835 55.6895 0.800748 55.4014 1.11909C55.1027 1.43779 54.8552 1.80762 54.6082 2.18796C54.5053 2.17744 54.392 2.16729 54.186 2.12632C53.9799 2.0955 53.6711 2.02371 53.3107 1.93126C52.9397 1.82865 52.5171 1.69486 52.2083 1.58173C51.8994 1.46861 51.6931 1.37615 51.5078 1.304C51.3224 1.24236 51.1375 1.21155 50.9006 1.16006C50.6637 1.11909 50.3647 1.0676 50.0867 1.01612C49.8189 0.964995 49.5613 0.923661 49.283 0.872176C49.0152 0.831205 48.7064 0.790234 48.1606 0.718081C47.6145 0.656444 46.8217 0.574502 46.2142 0.502712C45.6063 0.441074 45.1634 0.399741 44.8233 0.389589C44.4734 0.379074 44.2158 0.399741 44.0305 0.441074C43.8448 0.49256 43.7213 0.553835 43.5051 0.625987C43.2784 0.687625 42.9597 0.769567 42.6919 0.862024C42.4136 0.954843 42.197 1.07776 41.9707 1.19088C41.8264 1.11909 41.6716 1.03678 41.5688 0.985299C41.4656 0.923661 41.4148 0.883053 41.3116 0.883053C41.2189 0.872538 41.0848 0.90372 40.9715 0.965357C40.8479 1.03715 40.7349 1.12924 40.6419 1.25252C40.5493 1.37579 40.4668 1.53025 40.3327 1.64337C40.2092 1.76665 40.034 1.8591 39.8695 1.95156C39.6943 2.03387 39.5297 2.13647 39.4062 2.21878C39.2725 2.31123 39.1795 2.40369 39.0868 2.50666C38.9942 2.61942 38.912 2.74306 38.7881 2.84603C38.6646 2.94864 38.4996 3.0411 38.3554 3.14371C38.201 3.24668 38.0571 3.3598 37.9128 3.57553C37.7584 3.80178 37.6036 4.12012 37.4699 4.52113C37.3257 4.91162 37.2018 5.39493 37.1607 5.79558C37.1298 6.19659 37.1811 6.52508 37.2843 6.84378C37.3871 7.17264 37.552 7.48119 37.923 7.94347C38.2835 8.3956 38.8601 8.99168 39.3546 9.52611C39.8491 10.0504 40.2713 10.513 40.7862 11.0167C41.3014 11.5203 41.8987 12.075 42.2799 12.373C42.6505 12.6711 42.8049 12.7226 42.9593 12.8357C43.1141 12.9383 43.2787 13.1236 43.4023 13.2983C43.5363 13.4731 43.6392 13.6479 43.7627 13.8125C43.8761 13.9767 43.9996 14.141 44.1028 14.2334C44.2056 14.3259 44.2779 14.3465 44.3604 14.3774C44.3706 14.4495 44.3804 14.5108 44.4422 14.5931C44.4937 14.6649 44.5864 14.737 44.6791 14.8193C44.6587 14.8603 44.6384 14.9118 44.6591 15.0043C44.6794 15.0866 44.7415 15.22 44.8033 15.3538C44.6176 15.5285 44.432 15.7029 44.2056 15.9702C43.9789 16.2374 43.7009 16.5974 43.4331 16.9571C43.0829 16.9571 42.733 16.9676 42.4034 16.9161C42.084 16.865 41.7854 16.762 41.0848 16.3712C40.3949 15.9912 39.2925 15.3335 38.52 14.9839C37.7581 14.6243 37.3046 14.5728 37.0266 14.5829C36.7382 14.5935 36.6146 14.6652 36.522 14.7679C36.4395 14.8705 36.3883 15.0043 36.3984 15.1482C36.409 15.3023 36.4809 15.4564 36.5427 15.6108C36.2749 15.662 35.9969 15.7033 35.7706 15.7754C35.5337 15.8472 35.3484 15.9397 35.1525 16.0427C34.6994 15.919 34.246 15.8063 33.5251 15.5184C32.8144 15.2305 31.8355 14.7784 30.981 14.5006C30.1158 14.2334 29.3641 14.1511 28.6225 14.1304C27.8809 14.1203 27.1495 14.1721 26.4286 14.2849C25.6972 14.4085 24.976 14.6036 24.3274 14.8502C23.6785 15.0967 23.1124 15.3947 22.5768 15.7033C22.0412 16.0216 21.5463 16.3505 21.155 16.6485C20.7637 16.9567 20.4756 17.245 20.105 17.502C19.7343 17.7692 19.2809 17.9951 18.9408 18.221C18.5909 18.4473 18.3435 18.6528 18.0037 18.8584C17.6535 19.064 17.2106 19.2797 16.7469 19.4853C16.2938 19.6909 15.8095 19.8968 15.408 20.1641C15.0167 20.4208 14.718 20.7391 14.4088 21.0578C14.7591 20.7699 15.0988 20.4719 15.4389 20.2667C15.7786 20.0506 16.1085 19.9171 16.4486 19.7939C16.0878 20.0506 15.7172 20.308 15.4185 20.5752C15.1199 20.8526 14.8931 21.1194 14.6562 21.3867C14.4193 21.6437 14.1723 21.8801 13.8017 22.1473C13.4205 22.404 12.9053 22.6923 12.3799 22.9798C12.7403 22.8565 13.0906 22.7227 13.4307 22.5788C13.7809 22.4352 14.1101 22.2706 14.4397 22.1064C14.2133 22.2913 13.9975 22.466 13.5647 22.7536C13.1218 23.0414 12.4725 23.4319 11.824 23.8329C12.5034 23.5451 13.1836 23.2575 13.6265 23.0313C14.0694 22.8156 14.2755 22.6615 14.4811 22.5074C14.2031 22.7847 13.9248 23.0617 13.6469 23.288C13.3685 23.5037 13.1011 23.6683 12.7301 23.9047C12.349 24.1513 11.8545 24.4801 11.3603 24.809C11.5972 24.6651 11.8443 24.5218 12.143 24.3779C12.4522 24.2441 12.8232 24.1103 13.1836 23.9769C13.019 24.0693 12.854 24.1516 12.5448 24.388C12.2462 24.6244 11.8033 25.0044 11.4119 25.5389C11.0101 26.0733 10.6703 26.7622 10.3201 27.4507C10.6602 26.9576 10.9999 26.4638 11.3193 26.1248C11.6387 25.7854 11.937 25.6009 12.2356 25.4054C11.9784 25.7756 11.7309 26.1451 11.5664 26.628C11.3912 27.1215 11.2986 27.7382 11.2059 28.3448C11.4428 27.5841 11.6797 26.834 11.9373 26.2894C12.1844 25.7444 12.442 25.4159 12.6993 25.0867C12.5757 25.3645 12.442 25.652 12.2774 26.094C12.1023 26.5359 11.8963 27.1422 11.4842 28.0776C11.0722 29.0025 10.4538 30.2567 9.88734 31.1715C9.31071 32.0862 8.79585 32.6511 8.09532 33.1138C7.40533 33.5761 6.52967 33.9256 5.66455 34.2853C6.40613 34.0695 7.13718 33.8639 7.75523 33.5761C8.36311 33.2987 8.85762 32.9492 9.40373 32.3016C9.96001 31.6439 10.5672 30.678 11.175 29.7117C10.9381 30.195 10.7012 30.6678 10.351 31.2846C10.0011 31.901 9.54761 32.6613 9.03275 33.1754C8.51789 33.679 7.95107 33.9462 7.19895 34.1928C6.45773 34.4292 5.54137 34.6453 4.79978 34.8302C4.0582 35.0151 3.49174 35.1591 3.04883 35.3545C2.61608 35.5394 2.29707 35.7653 1.98786 35.9912C2.47183 35.7239 2.95617 35.4672 3.48157 35.303C4.01714 35.1489 4.58323 35.0869 5.13951 35.0151C5.69543 34.9328 6.25207 34.8407 6.79782 34.7377C6.27242 34.9433 5.73685 35.1485 5.09845 35.3955C4.45969 35.6319 3.71811 35.9092 2.84281 36.1456C1.97769 36.3925 0.988661 36.5974 0 36.8135C0.308843 36.8236 0.607512 36.8342 1.14308 36.7518C1.66848 36.6695 2.43041 36.4951 3.08952 36.3614C3.74899 36.2381 4.31508 36.1663 4.8819 36.084C4.61412 36.1768 4.34669 36.2689 4.03749 36.423C3.72864 36.5876 3.38892 36.824 3.03865 37.2558C2.833 37.5078 2.62371 37.8262 2.41334 38.1663C2.42351 38.1528 2.43005 38.1423 2.44095 38.1289C2.73962 37.7486 3.24431 37.2348 3.67669 36.9574C4.10943 36.6797 4.48004 36.6286 4.85102 36.5361C5.22163 36.4437 5.60278 36.2997 6.40613 35.9194C7.20949 35.5289 8.43505 34.902 9.66061 34.2751C8.90885 34.6863 8.15745 35.0974 7.49835 35.5086C6.83924 35.9092 6.26188 36.32 5.64383 36.7827C5.01561 37.2449 4.34633 37.7489 3.66651 38.2627C4.43898 37.7388 5.20128 37.204 5.79862 36.8135C6.38578 36.4125 6.79745 36.1558 7.22002 35.8987C6.10746 36.721 5.00544 37.543 3.99607 38.1597C2.98669 38.7765 2.06998 39.188 1.15326 39.5991C1.66848 39.4552 2.17317 39.3007 2.72945 39.0542C3.2959 38.8076 3.89288 38.4686 4.46987 38.1394C5.0465 37.8004 5.5926 37.4813 6.13835 37.163C5.53083 37.6046 4.92332 38.0473 4.35687 38.5712C3.79041 39.0955 3.26465 39.7018 3.02775 40.2257C2.78068 40.75 2.8221 41.2025 2.86352 41.6546C2.85335 41.3257 2.83264 40.9969 2.95617 40.6267C3.06954 40.267 3.31661 39.8559 3.80059 39.4345C4.27439 39.0132 4.98509 38.5814 5.88146 37.9132C6.77747 37.2555 7.85842 36.3715 8.95027 35.4875C8.15709 36.2073 7.36391 36.9266 6.81816 37.564C6.26188 38.2011 5.94287 38.7456 5.63366 39.2906C5.89127 38.8794 6.14852 38.4581 6.78728 37.7903C7.42568 37.1322 8.44559 36.2069 9.46549 35.2921C8.49718 36.32 7.53904 37.3479 6.78728 38.242C6.03516 39.1361 5.48978 39.907 4.95421 40.6677C6.13871 39.2083 7.32321 37.7489 8.55895 36.5361C9.80522 35.3131 11.1031 34.3473 12.4006 33.3708C11.7931 33.8639 11.1954 34.3574 10.6496 34.8404C10.1141 35.3233 9.64026 35.7961 9.177 36.2689C9.97018 35.5289 10.7528 34.7889 11.5769 34.2029C12.3904 33.6069 13.2352 33.1653 14.0386 32.641C14.8314 32.1272 15.5933 31.5409 16.0257 30.9858C16.4584 30.4412 16.5722 29.9278 16.6753 29.4141C16.7062 29.4652 16.7262 29.5062 16.8189 29.6396C16.9013 29.7734 17.0456 29.9891 17.1898 30.2153C17.406 30.5032 17.6226 30.7911 17.9521 31.1098C18.2817 31.4285 18.7141 31.7878 19.0127 32.0036C19.3012 32.2091 19.456 32.2813 19.7547 32.5279C20.0639 32.7744 20.5166 33.1957 20.9697 33.617C20.9079 33.9256 20.8462 34.2338 20.7023 34.6348C20.5682 35.0253 20.3419 35.4981 19.9298 36.0735C19.5076 36.6387 18.879 37.2968 18.4982 37.6978C18.1066 38.0883 17.9521 38.2116 17.8286 38.3965C17.6945 38.5818 17.5812 38.8381 17.5503 39.1158C17.5194 39.3932 17.571 39.7018 17.7152 39.9795C17.8595 40.267 18.096 40.5136 18.3947 40.6883C18.6832 40.8631 19.0335 40.9657 19.6308 41.2228C20.2281 41.4693 21.0729 41.8805 22.1132 42.3841C23.1534 42.8775 24.3892 43.4736 25.3985 44.0494C26.4079 44.6248 27.2011 45.1897 27.6542 45.5291C28.0971 45.8681 28.1897 45.9917 28.2824 46.0947C28.375 46.1973 28.4677 46.2792 28.5709 46.3202C28.6737 46.3615 28.7874 46.3717 28.8801 46.4127C28.9626 46.4641 29.0342 46.5468 29.1061 46.6291C29.1886 46.711 29.2816 46.7832 29.3328 46.8651C29.3742 46.9373 29.3637 47.0091 29.3121 47.0707C29.2609 47.1324 29.1581 47.1838 29.0963 47.2147C29.0345 47.256 29.0138 47.2763 28.9829 47.3379C28.952 47.4097 28.9106 47.5232 28.8903 47.6773C28.8696 47.8314 28.8699 48.0268 28.8801 48.1809C28.9008 48.3249 28.9317 48.417 28.9626 48.5196C28.9008 48.4888 28.8492 48.4688 28.7874 48.4688C28.7358 48.4583 28.6843 48.479 28.6534 48.5819C28.6225 48.6845 28.6119 48.8695 28.7562 49.2393C28.9001 49.6095 29.1991 50.1544 29.508 50.5757C29.8172 50.9869 30.1467 51.2744 30.3629 51.4078C30.5896 51.5518 30.7132 51.5416 30.8472 51.4593C30.981 51.3669 31.1354 51.2124 31.321 50.8013C31.4962 50.4006 31.7124 49.7433 31.8363 49.3423C31.97 48.9416 32.0107 48.7973 32.0107 48.6327C32.0107 48.4786 31.97 48.2941 31.9289 48.0577C31.8875 47.8213 31.8563 47.5334 31.8254 47.2455C32.8554 48.0577 33.8855 48.8695 34.5239 49.3832C35.1627 49.897 35.3894 50.1232 35.513 50.2672C35.6365 50.4111 35.6572 50.4829 35.7397 50.5957C35.8323 50.7193 36.0071 50.8738 36.1306 50.9869C36.2647 51.0895 36.3468 51.1301 36.4395 51.1508C36.522 51.1714 36.6048 51.1511 36.7385 51.2229C36.8726 51.2846 37.0477 51.4387 37.1814 51.6134C37.3155 51.7983 37.4082 52.0043 37.5008 52.2099C37.3155 52.3331 37.1298 52.4463 37.0063 52.6004C36.8828 52.7646 36.8206 52.9495 36.8206 53.1961C36.8308 53.443 36.9238 53.7309 37.0063 54.0289C36.9652 54.0905 36.9136 54.1518 36.9238 54.2856C36.9238 54.4295 36.9856 54.6456 37.2534 54.9643C37.5212 55.2827 38.0051 55.6935 38.4582 55.9505C38.9113 56.2076 39.3237 56.3102 39.6431 56.3309C39.9625 56.3617 40.1892 56.3102 40.3127 56.2384C40.4464 56.1663 40.477 56.0742 40.5079 55.9919C40.3741 55.0053 40.2299 54.0082 40.0962 53.0213C40.0548 52.9702 40.0242 52.9089 39.9625 52.7958C39.9007 52.6725 39.8179 52.4767 39.7459 52.261C39.6634 52.0554 39.602 51.819 39.4062 51.4285C39.2002 51.038 38.8706 50.5032 38.6748 50.0718C38.4895 49.6399 38.4484 49.3216 38.4074 49.1262C38.3558 48.9311 38.3038 48.8488 38.1596 48.736C38.0051 48.6331 37.7784 48.4891 37.4903 48.2734C37.2018 48.0678 36.8722 47.8006 36.5427 47.5334C36.7076 47.5849 36.8828 47.6461 37.1298 47.7593C37.3875 47.8825 37.7272 48.0678 38.0462 48.335C38.3554 48.6022 38.6541 48.9412 38.8601 49.1262C39.0559 49.3111 39.1588 49.3423 39.303 49.3731C39.4574 49.3937 39.6533 49.414 39.9418 49.4449C40.2197 49.4757 40.6009 49.517 41.2393 49.6196C41.878 49.7327 42.7737 49.9075 43.4742 50.0515C44.1744 50.1954 44.6689 50.3085 45.0911 50.4318C45.5031 50.5652 45.8432 50.7092 46.111 50.7813C46.389 50.8633 46.595 50.8633 46.8729 50.7911C47.1614 50.7295 47.5117 50.5957 47.8311 50.4517C48.1403 50.2976 48.4179 50.1435 48.6035 49.9793C48.7783 49.8045 48.8815 49.6301 48.9534 49.4347C49.0257 49.2498 49.0668 49.0337 49.077 48.7766C49.0875 48.5301 49.0566 48.232 49.0977 47.7284C49.1391 47.2248 49.2521 46.5058 49.3655 45.776C49.4788 45.0461 49.582 44.3162 49.7056 43.6894C49.8291 43.0726 49.9734 42.5588 50.0558 42.1578C50.1383 41.747 50.1692 41.4588 50.2102 41.1713C50.3131 40.9965 50.4268 40.8218 50.6121 40.6162C50.7974 40.4106 51.0652 40.1847 51.7036 39.8762C52.3424 39.5578 53.3619 39.1463 53.9592 38.8896C54.5566 38.6325 54.7419 38.5194 54.8451 38.4784C54.9584 38.4375 54.9995 38.4683 55.0718 38.4991C55.1437 38.5299 55.2571 38.5607 55.4322 38.6122C55.5968 38.6637 55.8337 38.7359 55.9983 38.7768C56.1735 38.8076 56.2868 38.8178 56.4412 38.8794C56.6058 38.9411 56.8224 39.0542 57.1727 39.2188C57.5331 39.3834 58.0174 39.5988 58.8826 39.907C59.7582 40.205 61.0045 40.5857 61.6636 40.8014C62.3227 41.0175 62.3947 41.0484 62.4666 41.0893C62.5491 41.1307 62.621 41.1608 62.7035 41.1713C62.7758 41.1916 62.8474 41.1923 62.9815 41.2641C63.1152 41.3464 63.3008 41.5106 63.4658 41.6854C63.6304 41.8602 63.7539 42.0447 63.8262 42.2195C63.8982 42.3942 63.8985 42.5588 63.7234 42.867C63.5483 43.1857 63.1984 43.6484 62.8067 44.111C62.4052 44.5632 61.9724 45.0153 61.5502 45.375C61.128 45.7448 60.7051 46.0225 60.4271 46.1665C60.1492 46.31 60.0256 46.3307 59.8818 46.372C59.7375 46.4029 59.5929 46.4438 59.5108 46.5258C59.4283 46.6081 59.4181 46.7216 59.4181 46.8343C59.2532 46.8343 59.0882 46.8347 58.9545 46.8245C58.8204 46.814 58.7071 46.7934 58.6351 46.752C58.5632 46.7009 58.5323 46.6287 58.4705 46.5156C58.4193 46.4029 58.3368 46.2589 58.2336 46.1665C58.1308 46.074 58.0069 46.0428 57.9244 46.0533C57.8318 46.0635 57.7805 46.1146 57.6879 46.1454C57.5949 46.1766 57.4612 46.1969 57.3892 46.1763C57.3274 46.1661 57.3274 46.115 57.2966 46.0842C57.2759 46.0635 57.2243 46.0432 57.0698 46.0639C56.9154 46.074 56.6578 46.1045 56.5034 46.1973C56.349 46.2897 56.2974 46.4435 56.2458 46.5874C56.1738 46.5773 56.0913 46.557 56.019 46.5367C56.0605 46.4438 56.1015 46.3514 56.1117 46.2796C56.1117 46.2074 56.0808 46.1665 56.0292 46.1563C55.9882 46.1563 55.9268 46.1871 55.7106 46.3311C55.4838 46.475 55.0921 46.7317 54.7833 46.9884C54.4846 47.2353 54.2579 47.492 54.1344 47.7183C54.0108 47.9445 53.9796 48.1291 54.0312 48.2832C54.0828 48.4376 54.2169 48.5613 54.3404 48.6436C54.4639 48.7255 54.5875 48.777 54.9377 48.8183C55.2775 48.8492 55.8544 48.8695 56.2149 48.9104C56.5651 48.9518 56.6989 49.0134 56.8431 49.0236C56.9874 49.0442 57.1421 49.0239 57.3274 48.9931C57.5229 48.9724 57.7497 48.9315 57.9146 48.9315C58.0792 48.9209 58.182 48.9412 58.3157 48.9206C58.4498 48.9003 58.6046 48.8386 58.8208 48.8183C59.0475 48.7977 59.3357 48.8176 59.614 48.8691C59.8919 48.9104 60.1594 48.9822 60.3963 49.013C60.6433 49.0544 60.8599 49.0544 61.0452 48.9822C61.2305 48.9206 61.3853 48.777 61.5194 48.6229C61.6429 48.4583 61.7457 48.273 62.2915 47.636C62.8376 46.9986 63.8262 45.9098 64.3821 45.3032C64.9384 44.6969 65.0518 44.5733 65.1652 44.4914C65.2785 44.4192 65.3919 44.3884 65.5979 44.1933C65.7937 43.9979 66.0713 43.6484 66.205 43.4428C66.3391 43.2474 66.3188 43.1963 66.3086 43.1139C66.2981 43.0316 66.2879 42.9084 66.2984 42.6821C66.3086 42.4562 66.3497 42.127 66.3395 41.7779C66.3289 41.4283 66.2566 41.0585 66.1436 40.7706C66.0303 40.4831 65.8653 40.2772 65.6182 40.0719C65.3813 39.8664 65.0416 39.6709 64.784 39.4962C64.5268 39.3214 64.3415 39.1673 64.0737 38.9001C63.8059 38.643 63.4553 38.2627 63.0639 37.8617C62.6726 37.4712 62.2402 37.0499 61.9005 36.7109C61.571 36.382 61.3442 36.1355 61.1484 35.8788C60.9525 35.6115 60.7879 35.3237 60.623 35.0358C60.994 34.5938 61.3544 34.1616 61.6839 33.7403C62.003 33.3291 62.2915 32.939 62.5077 32.5279C62.7344 32.1167 62.8888 31.6954 62.9095 31.12C62.9404 30.5547 62.8477 29.835 62.786 29.2592C62.7242 28.6838 62.7035 28.2625 62.7344 27.872C62.7551 27.4815 62.827 27.132 63.0948 26.5773C63.3626 26.012 63.8161 25.2408 64.4029 24.2543C64.99 23.2778 65.7211 22.0959 66.2359 21.3558C66.7613 20.626 67.0807 20.3283 67.4619 20.1126C67.843 19.907 68.2757 19.7732 68.7183 19.6398C68.8833 19.7939 69.0588 19.9585 69.1718 20.0818C69.2749 20.205 69.3367 20.287 69.4087 20.349C69.3985 20.4208 69.3883 20.5031 69.4087 20.585C69.4294 20.6981 69.4806 20.8214 69.5631 20.883C69.6354 20.9552 69.7382 20.9653 69.8309 20.9447C69.9133 20.9345 70.006 20.8936 70.0885 20.8214H70.0986C70.1913 20.883 70.2941 20.9447 70.3973 20.9755C70.5826 21.0476 70.7374 21.0375 70.8817 20.986C71.0361 20.945 71.18 20.8526 71.2726 20.8112C71.3551 20.7703 71.386 20.7906 71.3962 20.8214C71.4063 20.8421 71.3965 20.8932 71.4067 20.9447C71.4274 20.9962 71.479 21.0578 71.4993 21.1093C71.5201 21.1608 71.5197 21.2017 71.5095 21.2326C71.5095 21.2634 71.5095 21.284 71.592 21.3457C71.6846 21.4073 71.8601 21.5099 72.0454 21.6129C72.1279 21.5821 72.2206 21.5408 72.3132 21.4998C72.4368 21.5821 72.5603 21.6745 72.787 21.7877C73.0239 21.9109 73.3637 22.065 73.8375 22.2605C73.8891 22.2808 73.9508 22.3119 74.0126 22.3326C73.9923 22.3943 73.9606 22.4555 73.9505 22.5273C73.9298 22.6404 73.9301 22.7844 74.0021 22.9077C74.0638 23.0309 74.1874 23.1238 74.3316 23.1955C74.486 23.2677 74.6514 23.3087 74.8675 23.3188C75.0013 23.329 75.1557 23.3188 75.3105 23.3188C75.2691 23.4319 75.2382 23.5556 75.2487 23.6789C75.2589 23.8228 75.3206 23.9461 75.3105 24.0693C75.3105 24.1825 75.2487 24.2952 75.1869 24.3982C75.1252 24.5008 75.0529 24.6038 75.022 24.6759C74.9911 24.7579 74.9911 24.7988 75.0118 24.7988C75.0427 24.7988 75.0939 24.7372 75.1353 24.6959C75.1764 24.6549 75.2178 24.6342 75.2487 24.6342C75.2898 24.6448 75.3206 24.6861 75.341 24.7068C75.3722 24.7169 75.3926 24.7064 75.4238 24.6959C75.4547 24.6857 75.506 24.6759 75.5681 24.7068C75.6299 24.7376 75.7116 24.8094 75.7941 24.8815C76.0412 24.6143 76.2988 24.3366 76.4637 24.1825C76.6283 24.0284 76.7108 24.0077 76.7831 23.9769C76.8343 24.0077 76.8758 24.0382 76.9582 24.1103C77.0302 24.172 77.1439 24.2746 77.2366 24.3464C77.3394 24.4287 77.432 24.4805 77.5759 24.5012C77.71 24.5215 77.8851 24.5012 78.0396 24.4704C78.194 24.429 78.3277 24.3775 78.4309 24.3674C78.5337 24.3467 78.6162 24.3674 78.7295 24.3674C78.8531 24.3674 79.0075 24.3362 79.1314 24.2543C79.2444 24.172 79.3269 24.0382 79.3988 23.9047C79.4813 23.9047 79.574 23.8946 79.6666 23.8844C79.7698 23.8743 79.873 23.8638 80.0376 23.7713C80.2025 23.6789 80.4293 23.5037 80.563 23.3805C80.6865 23.2572 80.7174 23.1749 80.7174 23.0824C80.7174 22.99 80.6862 22.8768 80.6658 22.7637C80.6349 22.6506 80.6146 22.5483 80.6455 22.4559C80.6763 22.3631 80.7686 22.3014 80.8718 22.1473C80.9746 22.0034 81.1087 21.7775 81.181 21.6028C81.2635 21.4178 81.2839 21.2837 81.1603 21.068C81.0262 20.8522 80.7486 20.5643 80.5837 20.3588C80.4086 20.1637 80.3468 20.0509 80.1717 19.8454C80.0071 19.6296 79.7291 19.3211 79.348 18.8892C78.9566 18.4578 78.4723 17.9128 78.1013 17.3991C77.7307 16.8849 77.4731 16.402 77.3085 16.0833C77.1537 15.7544 77.0818 15.5902 77.0098 15.4259C76.9375 15.2718 76.8758 15.1072 76.814 14.9941C76.7417 14.8708 76.6803 14.799 76.6287 14.6961C76.5771 14.6036 76.5251 14.5006 76.443 14.2951C76.3605 14.0895 76.2472 13.7914 76.1443 13.5964C76.031 13.3908 75.9282 13.2878 75.8148 13.1852C75.8148 13.1544 75.8152 13.1232 75.8664 13.0721C75.9282 13.0206 76.0415 12.9387 76.1549 12.8564C76.0724 12.7846 75.9899 12.7124 75.8457 12.6508C75.6913 12.5891 75.4852 12.5275 75.3512 12.476C75.2175 12.4245 75.1659 12.3734 75.0936 12.3219C75.0216 12.2603 74.9395 12.1881 74.8468 12.1366C74.7644 12.0852 74.6921 12.0442 74.445 11.8386C74.2081 11.633 73.7961 11.2527 73.384 10.8829C73.3738 10.7904 73.3637 10.6878 73.3531 10.5953C73.1678 10.4514 72.9825 10.3176 72.8281 10.2661C72.6631 10.2045 72.5192 10.2353 72.375 10.2661C72.3339 10.2252 72.2925 10.1943 72.169 10.1019C72.0556 10.0199 71.8601 9.86512 71.6127 9.6802C71.3656 9.50544 71.0771 9.30023 70.8817 9.11531C70.6858 8.94055 70.603 8.80676 70.4587 8.67333C70.3148 8.55006 70.1295 8.42678 69.9751 8.29299C69.8102 8.14905 69.6866 7.99496 69.5732 7.91265C69.4599 7.83035 69.3571 7.83071 69.2746 7.93332C69.1819 8.03629 69.11 8.23099 69.0893 8.42642C69.0584 8.61133 69.0889 8.79625 69.1096 8.98152C68.945 8.90937 68.7804 8.83794 68.5126 8.694C68.2449 8.56057 67.8739 8.34448 67.5443 8.05659C67.2046 7.77922 66.9056 7.43985 66.6069 7.09069C66.741 7.4297 66.8747 7.77922 66.9982 8.14905C67.1116 8.52939 67.2253 8.94055 67.4208 9.31074C67.6166 9.67041 67.8946 10.0094 68.1831 10.3383C67.843 10.513 67.5131 10.6773 67.1734 10.852C67.0084 10.6465 66.8543 10.4409 66.3395 9.85497C65.8243 9.25889 64.9697 8.29336 64.1046 7.31694C64.5475 7.93332 64.99 8.5497 65.2887 9.00219C65.5874 9.45432 65.7316 9.75272 65.8759 10.0402C65.4224 9.56744 64.9697 9.08449 64.5991 8.75564C64.2179 8.41663 63.9189 8.23136 63.6202 8.03593C63.6922 8.1592 63.7645 8.27233 63.8368 8.41627C63.9087 8.5497 63.9807 8.70415 64.053 8.86876C63.5686 8.38581 63.0741 7.91265 62.6519 7.57328C62.2195 7.23427 61.8485 7.03921 61.4779 6.83363C61.9619 7.20346 62.4357 7.56349 62.8477 7.93332C63.2496 8.30351 63.5995 8.67333 63.9396 9.04352C63.3423 8.6117 62.7449 8.16972 62.1683 7.94347C61.5913 7.70707 61.0456 7.68677 60.4994 7.66646C60.9631 7.74841 61.4162 7.83035 61.7973 7.95362C62.1781 8.0769 62.4873 8.25166 62.786 8.47791C63.0745 8.69364 63.3423 8.97101 63.5584 9.23823C63.7746 9.50544 63.9291 9.78318 64.0319 10.0504C64.1351 10.3176 64.1867 10.5848 64.2379 10.852C64.0319 10.7389 63.8266 10.6262 63.6308 10.5439C63.4247 10.4514 63.2394 10.3792 63.0436 10.3176C63.1261 10.3691 63.198 10.4206 63.2907 10.513C63.3833 10.6055 63.4865 10.7389 63.5999 10.8727C63.4247 10.7697 63.2492 10.6566 62.9404 10.554C62.6316 10.451 62.1886 10.3488 61.7355 10.2458C62.1167 10.3999 62.4873 10.554 62.7344 10.6773C62.992 10.8107 63.1261 10.9344 63.2496 11.0475C63.0541 10.9858 62.8583 10.9238 62.4048 10.7081C61.9623 10.492 61.2617 10.1019 60.5612 9.72154C60.9322 9.98912 61.2926 10.256 61.6429 10.5025C61.9826 10.7491 62.3016 10.9858 62.621 11.2121C62.2399 11.0888 61.8693 10.9757 61.3646 10.8317C60.8599 10.6776 60.2313 10.513 59.5206 10.3383C58.7997 10.1635 58.0069 9.99891 57.2243 9.82415C57.9553 10.0914 58.6867 10.3484 59.2841 10.5848C59.8709 10.8212 60.3243 11.0272 60.7774 11.2429C60.4271 11.1196 60.0772 10.9956 59.7168 10.9137C59.356 10.8209 58.9854 10.7806 58.6042 10.7393C58.9236 10.8216 59.2328 10.9035 59.6757 11.0681C60.1288 11.2429 60.7156 11.4996 61.3028 11.7563C61.1687 11.7153 61.0456 11.6744 60.7262 11.5718C60.4072 11.4688 59.8919 11.294 59.449 11.1707C59.0061 11.0471 58.6351 10.9855 58.254 10.9137C58.6042 11.0881 58.965 11.2531 59.2019 11.3868C59.449 11.5203 59.5827 11.6229 59.7266 11.7157C59.1707 11.4485 58.6246 11.1809 58.1406 11.0167C57.6566 10.852 57.2446 10.7908 56.8224 10.7393C57.3373 10.9449 57.8423 11.1606 58.3056 11.4278C58.7794 11.6845 59.2016 11.9931 59.634 12.3013C59.2942 12.1678 58.9549 12.0235 58.5014 11.9002C58.0483 11.7668 57.492 11.6537 57.5128 11.674C57.5331 11.6947 58.1304 11.8491 58.5526 12.0134C58.9749 12.178 59.2118 12.3422 59.4592 12.517C59.1914 12.4039 58.9236 12.3013 58.5425 12.219C58.1719 12.1366 57.6879 12.0852 57.2141 12.0235C57.3583 12.0543 57.5026 12.0852 57.8012 12.1675C58.0999 12.2599 58.5425 12.414 58.831 12.5478C59.1089 12.6812 59.2328 12.7947 59.3564 12.918C59.1093 12.8357 58.8517 12.7538 58.6558 12.7023C58.4498 12.6508 58.2954 12.6301 58.182 12.6094C58.069 12.5888 57.9862 12.5786 57.9346 12.5478C57.8935 12.517 57.863 12.4757 57.7704 12.4347C57.6773 12.3832 57.5022 12.3321 57.3685 12.3013C57.2446 12.2603 57.1625 12.2396 57.0905 12.2088C57.0186 12.178 56.967 12.137 56.9154 12.1163C56.8744 12.1062 56.8326 12.1062 56.7915 12.0859C56.7606 12.0652 56.7301 12.034 56.7094 11.9517C56.6992 11.8799 56.6989 11.7668 56.6989 11.6639C56.6887 11.5714 56.6887 11.4895 56.668 11.4278C56.6473 11.3658 56.6062 11.3143 56.5753 11.2628C56.5546 11.2012 56.5546 11.1399 56.5546 11.0373C56.5444 10.9344 56.5343 10.8107 56.5343 10.7081C56.5343 10.6156 56.5444 10.5645 56.5546 10.4822C56.5648 10.3999 56.5855 10.3075 56.5753 10.215C56.5753 10.1225 56.555 10.0301 56.5343 9.95794C56.5034 9.87599 56.462 9.79333 56.4412 9.71102C56.4205 9.62872 56.4209 9.53662 56.4209 9.45468C56.4314 9.37238 56.4514 9.30059 56.4412 9.2491C56.4412 9.19762 56.4002 9.17659 56.3693 9.15592C56.4209 8.96086 56.4623 8.76579 56.5034 8.64252C56.5448 8.51924 56.5753 8.46775 56.6062 8.41627L56.6371 8.44709C56.668 8.47791 56.7297 8.53991 56.8224 8.6117C56.915 8.68349 57.039 8.75564 57.1832 8.78646C57.3274 8.81728 57.492 8.80676 57.6054 8.77594C57.7082 8.73461 57.7602 8.68349 57.822 8.62185C57.8837 8.57036 57.9557 8.51924 58.028 8.49857C58.0999 8.47791 58.1613 8.47791 58.2231 8.44709C58.2849 8.41627 58.3365 8.35499 58.3673 8.28284C58.4088 8.20054 58.4295 8.10808 58.4396 8.05659C58.4396 7.99496 58.4393 7.97429 58.46 7.95362C58.4807 7.93296 58.5221 7.89199 58.5839 7.89199C58.6457 7.88183 58.7278 7.90214 58.7794 7.89199C58.8411 7.88183 58.8724 7.83035 58.8826 7.77886C58.9033 7.73789 58.9033 7.69692 58.9134 7.67625C58.9134 7.65595 58.9134 7.64543 58.9443 7.64543C58.965 7.64543 59.0057 7.64543 59.0472 7.65559C59.0984 7.6661 59.1609 7.67662 59.2328 7.66646C59.2946 7.66646 59.3771 7.64543 59.4388 7.59395C59.4904 7.55298 59.5104 7.48119 59.5206 7.31694C59.5413 7.16249 59.5315 6.90578 59.5315 6.64872C59.5624 6.59723 59.6034 6.54575 59.7066 6.47396C59.8095 6.40217 59.974 6.3195 60.1078 6.1654C60.2418 6.02146 60.3552 5.80573 60.458 5.60015C60.6124 5.62082 60.7571 5.63133 60.8806 5.62082C61.0041 5.60051 61.1073 5.55918 61.1484 5.50769C61.2 5.46672 61.1894 5.42575 61.2101 5.36375C61.241 5.30211 61.2821 5.21981 61.3028 5.11684C61.313 5.02438 61.3028 4.90111 61.2926 4.78835C61.3442 4.77783 61.3849 4.77783 61.5397 4.7365C61.6941 4.69553 61.9517 4.61358 62.1472 4.54179C62.3431 4.45949 62.4873 4.38734 62.5491 4.3257C62.6214 4.26406 62.6108 4.22309 62.5077 4.20242C62.4048 4.18176 62.209 4.20206 62.0131 4.18176C61.8278 4.17124 61.6324 4.13063 61.4471 4.09982C61.4674 3.86342 61.4881 3.62666 61.4572 3.35944C61.4365 3.09222 61.3747 2.78403 61.2512 2.47584C61.1277 2.15714 60.9424 1.81777 60.6847 1.50958C60.4377 1.21155 60.1183 0.924024 59.7782 0.677473C59.4385 0.43056 59.0675 0.235494 58.6969 0.122371C58.4189 0.0299145 58.141 -0.00489266 57.8543 0.000545957ZM2.41334 38.1663C2.13901 38.5132 2.03546 38.7438 1.93626 38.9617C2.09541 38.688 2.25492 38.4222 2.41334 38.1663ZM53.2602 9.2879C53.2867 9.2937 53.2998 9.32814 53.3307 9.4438C53.3721 9.60841 53.4338 9.9166 53.4647 10.2045C53.496 10.5025 53.5061 10.7697 53.5476 10.996C53.5785 11.2324 53.6399 11.4278 53.7118 11.633C53.7841 11.8491 53.8768 12.0649 53.9385 12.2396C53.9901 12.4249 54.021 12.558 54.0312 12.6609C54.0519 12.7635 54.0621 12.8458 54.1445 13.0105C54.2169 13.1747 54.3713 13.4216 54.5155 13.6685C54.3197 13.617 54.1238 13.5761 54.0003 13.5246C53.8768 13.4731 53.8045 13.4216 53.7118 13.3806C53.6293 13.3292 53.5061 13.2878 53.424 13.2469C53.3416 13.216 53.2896 13.1751 53.238 13.1236C53.1868 13.0721 53.125 13.0101 53.0632 12.959C52.9909 12.9075 52.919 12.8665 52.8263 12.8357C52.7337 12.8049 52.641 12.7741 52.5793 12.7432C52.5175 12.7124 52.507 12.6816 52.507 12.6609C52.507 12.6301 52.5175 12.6098 52.5175 12.5275C52.5175 12.4452 52.5073 12.3118 52.4866 12.2396C52.4764 12.1577 52.4557 12.137 52.4557 12.0859C52.4455 12.0344 52.4452 11.9416 52.4659 11.8901C52.4866 11.8285 52.5378 11.7875 52.5585 11.7462C52.5793 11.7052 52.5793 11.6541 52.5793 11.5924C52.5691 11.5308 52.5585 11.4583 52.5484 11.4068C52.5277 11.3557 52.4968 11.335 52.4968 11.2016C52.4866 11.0678 52.507 10.8216 52.4968 10.5645C52.4866 10.3078 52.4452 10.0297 52.4041 9.76251C52.5382 9.70087 52.6715 9.6396 52.7747 9.57796C52.8776 9.50581 52.9397 9.43365 53.0222 9.38217C53.0941 9.33104 53.1766 9.30023 53.2282 9.29007C53.2409 9.28717 53.2511 9.28572 53.2602 9.2879ZM69.5529 20.4313L69.6147 20.4621C69.687 20.5031 69.7487 20.5647 69.8825 20.6673C69.9032 20.688 69.9235 20.6985 69.9442 20.7192C69.9032 20.7395 69.8617 20.7598 69.8309 20.7699C69.7793 20.7804 69.7484 20.7804 69.7175 20.7699C69.6764 20.7493 69.6456 20.7188 69.6147 20.6673C69.5838 20.6263 69.5634 20.5545 69.5529 20.4929V20.4313ZM74.1463 22.3943C74.5583 22.5585 75.0325 22.7434 75.5063 22.9283C75.4856 22.9798 75.4544 23.0211 75.4336 23.0723C75.3515 23.0828 75.269 23.0929 75.176 23.1031C74.9497 23.1136 74.6924 23.0929 74.5173 23.0414C74.332 23.0005 74.2186 22.9283 74.167 22.846C74.1053 22.7536 74.1053 22.6615 74.1154 22.569C74.1154 22.5074 74.1361 22.4454 74.1463 22.3943ZM27.757 34.0797C27.8086 34.0797 27.8707 34.0692 27.9427 34.1206C28.015 34.1721 28.0971 34.2853 28.1796 34.501C28.262 34.7167 28.3543 35.0459 28.3958 35.3955C28.4368 35.7446 28.4266 36.1253 28.3649 36.526C28.2926 36.927 28.1592 37.3479 27.9427 37.9541C27.7265 38.5607 27.4274 39.3421 27.1081 40.0103C26.7992 40.6782 26.4802 41.2329 26.1608 41.7876C26.0682 41.7568 25.9752 41.7264 25.8516 41.6546C25.7281 41.5824 25.5635 41.4693 25.3059 41.3359C25.0381 41.2021 24.6777 41.0585 24.3379 40.8838C23.9978 40.709 23.6788 40.5136 23.4314 40.3181C23.1945 40.1231 23.0193 39.9276 22.9369 39.7326C22.8442 39.5371 22.8344 39.3421 22.8653 39.1572C22.8962 38.9723 22.9783 38.7971 23.0811 38.6122C23.1843 38.4375 23.3286 38.2424 23.4623 38.0879C23.6065 37.9237 23.7504 37.7899 23.9154 37.6771C24.0799 37.564 24.266 37.4716 24.4513 37.3791C24.6264 37.2866 24.7914 37.2043 25.1209 36.9063C25.4399 36.6184 25.9239 36.1144 26.3876 35.6108C26.8512 35.1072 27.3039 34.5934 27.757 34.0797ZM35.0286 34.3059C35.4199 34.4908 35.8116 34.6757 36.0998 34.7889C36.3882 34.9121 36.5736 34.9531 36.8413 35.0561C37.1091 35.1485 37.4489 35.303 37.6654 35.4161C37.8918 35.5292 37.995 35.6112 38.0981 35.6833C38.2112 35.745 38.3143 35.7961 38.4382 35.8371C38.5618 35.8679 38.7057 35.8991 38.8394 35.9404C38.9734 35.9814 39.1072 36.0325 39.303 36.0941C39.4988 36.1558 39.7663 36.2381 40.1576 36.3099C40.5594 36.3922 41.0954 36.4745 41.466 36.5361C41.837 36.5876 42.0321 36.6181 42.2174 36.6387C42.4031 36.6489 42.568 36.6496 42.6919 36.6699C42.8155 36.7007 42.8976 36.7518 42.9593 36.7827C43.0316 36.803 43.1036 36.8033 43.1345 36.8033H43.1654C43.2271 36.9574 43.2889 37.1119 43.3815 37.2352C43.4742 37.3584 43.6083 37.4505 43.7834 37.5122C43.9585 37.5742 44.1849 37.5948 44.4113 37.6155C44.432 37.708 44.4527 37.7899 44.4941 37.8925C44.5453 37.985 44.6278 38.0981 44.6791 38.2729C44.7408 38.4375 44.7822 38.684 44.8542 38.9719C44.9265 39.2493 45.0191 39.5785 45.1118 39.9487C45.1943 40.3185 45.2666 40.7293 45.3076 41.1713C45.3592 41.6133 45.3799 42.086 45.421 42.6615C45.4519 43.2267 45.5031 43.8848 45.5547 44.4914C45.6063 45.1077 45.6474 45.6523 45.7298 46.1356C45.8018 46.6186 45.905 47.0196 45.9976 47.3278C46.1005 47.6363 46.1935 47.8419 46.2861 48.0577C46.2345 48.1708 46.1833 48.2941 46.1317 48.4072C45.8741 48.4173 45.627 48.438 45.1634 48.3764C44.7001 48.3147 44.0305 48.1704 43.464 48.0471C42.8976 47.9235 42.4241 47.8209 42.1356 47.7593C41.8471 47.6976 41.7334 47.677 41.6306 47.636C41.5379 47.5946 41.4555 47.5229 41.4144 47.4511C41.3733 47.3793 41.3628 47.2966 41.3526 47.2248C40.8995 47.0707 40.4566 46.9061 40.1576 46.8137C39.8589 46.7212 39.715 46.7005 39.5606 46.6697C39.4473 46.5773 39.3343 46.4747 39.2311 46.4333C39.1384 46.3822 39.0559 46.3822 38.9734 46.3927C38.891 46.3927 38.8085 46.4029 38.7467 46.4442C38.6951 46.475 38.6748 46.5363 38.6541 46.6081C38.5512 46.5156 38.4484 46.4337 38.3249 46.372C38.201 46.3206 38.0567 46.2999 37.9019 46.2179C37.7475 46.1356 37.5728 45.9913 37.4699 45.7963C37.3671 45.5907 37.3257 45.3445 37.305 45.1284C37.2741 44.9228 37.253 44.7481 37.2018 44.6143C37.1502 44.4703 37.0681 44.3572 36.9856 44.3057C36.8929 44.2546 36.8105 44.2651 36.6869 44.255C36.5736 44.2445 36.4395 44.2242 36.3159 44.1933C36.2026 44.1625 36.1099 44.131 36.0482 44.1002C35.9864 44.0798 35.9559 44.0494 35.9148 44.0186C35.8323 44.0701 35.7495 44.1212 35.6772 44.2035C35.6052 44.2854 35.5333 44.3884 35.4614 44.4605C35.3789 44.5222 35.2964 44.553 35.2346 44.6045C35.1729 44.6556 35.1314 44.7173 35.0904 44.7582C35.0388 44.7996 34.9981 44.8097 34.9774 44.7789C34.9567 44.7379 34.957 44.6661 34.9465 44.6045C34.9363 44.553 34.8949 44.5323 34.864 44.5218C34.8331 44.5117 34.8023 44.532 34.6064 44.6759C34.4109 44.8097 34.04 45.0769 33.6792 45.3441C33.0099 44.8612 32.3511 44.3782 31.9594 44.0494C31.5681 43.7205 31.4548 43.5247 31.3828 43.2782C31.3207 43.0211 31.3003 42.6926 31.3519 42.2401C31.4032 41.7779 31.5165 41.1919 31.7327 40.5959C31.9493 40.0103 32.2686 39.4244 32.5466 39.0132C32.8249 38.6021 33.0615 38.3653 33.2573 38.1289C33.4528 37.8824 33.597 37.6257 33.8136 37.1529C34.0298 36.6902 34.3183 36.0122 34.5345 35.4984C34.7405 34.9948 34.8844 34.6453 35.0286 34.3059Z" fill="white" fill-opacity="0.85"/>
</svg>
