<svg width="100" height="80" viewBox="0 0 100 80" fill="none" xmlns="http://www.w3.org/2000/svg">
<path fill-rule="evenodd" clip-rule="evenodd" d="M33.4092 18.1492V18.1883L33.3637 18.1557L33.4092 18.1492ZM30.4165 19.509H30.4555L30.423 19.5545L30.4165 19.509ZM30.3384 19.587H30.3775L30.3449 19.6326L30.3384 19.587ZM28.5818 20.7061L28.5948 20.7191C28.5948 20.7126 28.5818 20.7061 28.5818 20.7061ZM29.8635 20.7061L29.8765 20.7191C29.87 20.7126 29.857 20.7061 29.8635 20.7061ZM27.4693 22.4562H27.5083L27.4758 22.5017L27.4693 22.4562ZM74.0583 22.7749H74.0974L74.0648 22.8205L74.0583 22.7749ZM27.1505 22.9376H27.1896L27.157 22.9831L27.1505 22.9376ZM35.1658 23.5752V23.6142L35.1203 23.5817L35.1658 23.5752ZM35.6473 23.894V23.933L35.6017 23.9005L35.6473 23.894ZM76.8884 24.1347V24.1737L76.8429 24.1412L76.8884 24.1347ZM36.441 24.5315V24.5706L36.3955 24.5381L36.441 24.5315ZM25.0751 25.1691H25.1142L25.0816 25.2147L25.0751 25.1691ZM37.56 25.8067V25.8457L37.5145 25.8132L37.56 25.8067ZM34.6454 26.171V26.132L34.6909 26.1645L34.6454 26.171ZM34.6454 26.171L34.7234 26.2491H34.7625C34.8535 26.3077 34.8796 26.3662 34.9576 26.4183C35.0878 26.5028 35.0682 26.4248 35.1658 26.5679L35.3285 26.7306L35.4911 26.8932L35.6538 27.0558L35.9335 27.2966L36.0116 27.3746L36.5581 27.7845C36.6362 27.8431 36.6362 27.8756 36.7273 27.9342L36.8053 28.0122L36.8574 28.0448C37.007 28.1293 37.2282 28.318 37.2477 28.4937L37.1697 28.4546H37.1306L36.8899 28.5327C36.8314 28.5652 36.8444 28.5522 36.7728 28.5717L36.7012 28.3831C36.7012 28.3766 36.6882 28.3505 36.6882 28.344C36.6882 28.3375 36.6817 28.331 36.6817 28.3245L36.6557 28.2725C36.6557 28.266 36.6427 28.2594 36.6427 28.2594L36.5711 28.2139L35.7384 27.9537C35.6343 27.9276 35.6473 27.9342 35.5692 27.8951H35.5302L35.3285 27.7325C35.2504 27.6414 35.2699 27.6999 35.2049 27.7195C35.0747 27.765 35.2829 27.752 35.0487 27.7715L34.8861 27.3356C34.7104 27.212 34.9576 27.4072 34.7039 27.0754L34.6454 26.9908C34.6454 26.9908 34.6323 26.9843 34.6323 26.9778L34.5478 26.8737C34.4242 26.7501 34.6649 26.9778 34.4827 26.8216C34.3526 26.711 34.5282 26.8086 34.307 26.646L34.0533 26.4573C33.9362 26.3467 33.9297 26.3337 33.9752 26.1385C34.0989 26.1385 34.1184 26.119 34.1899 26.119C34.7169 26.0735 34.4242 26.2621 34.6454 26.171ZM78.3652 26.2881H78.4043L78.3718 26.3337L78.3652 26.2881ZM34.0468 26.4508V26.4898L34.0013 26.4573L34.0468 26.4508ZM78.0465 26.6069H78.0855L78.053 26.6525L78.0465 26.6069ZM79.7185 27.0493C79.9267 27.1925 79.7575 26.9908 79.9072 27.2185C79.9072 27.2185 79.9137 27.2315 79.9202 27.2315L79.9332 27.2445L80.2129 27.9016C80.2455 27.9992 80.1934 27.9211 80.2845 28.0513L79.9657 28.37C79.5493 28.6498 79.7445 28.6953 79.5754 28.897L79.3672 29.1638H79.3281L79.0354 29.6322C79.0158 29.6908 79.0484 29.6387 79.0158 29.6908C78.9703 29.7688 78.8857 29.8339 78.8142 29.8794H78.7751C78.7036 29.8404 78.7231 29.8469 78.6125 29.8404C78.6775 29.6842 78.5865 29.8144 78.5995 29.6647C78.6125 29.5541 78.632 29.4175 78.6906 29.3264V29.2874C78.7036 29.1117 78.8402 28.7929 78.8662 28.6823L78.9573 28.4351C79.0028 28.3115 79.0419 28.2204 79.0484 28.0903C79.185 27.9927 79.0484 28.0708 79.1655 27.8886V27.8496C79.211 27.7455 79.1655 27.8236 79.1915 27.739C79.2371 27.6219 79.198 27.765 79.2501 27.6154C79.2761 27.5243 79.2501 27.5503 79.2761 27.4983C79.3216 27.3942 79.3151 27.5113 79.3477 27.3811C79.3737 27.2836 79.2956 27.3811 79.3867 27.2315C79.5103 27.0298 79.3346 27.1599 79.4843 26.9322C79.6014 26.9843 79.6079 26.9713 79.7185 27.0493ZM79.7185 27.0493V27.0103L79.764 27.0428L79.7185 27.0493ZM33.6499 27.2055H33.6109L33.6434 27.1599L33.6499 27.2055ZM33.8516 27.2836V27.2445L33.8972 27.2771L33.8516 27.2836ZM35.9205 27.2836V27.2445L35.9661 27.2771L35.9205 27.2836ZM33.6109 27.2836L33.6499 27.2055C33.7215 27.238 33.7801 27.251 33.8516 27.2836L33.9297 27.3616C33.9362 27.3681 33.9492 27.3616 33.9557 27.3746C33.9557 27.3877 33.9752 27.3877 33.9817 27.3877L34.3331 28.0252C34.3331 28.0317 34.3396 28.0382 34.3396 28.0448C34.3396 28.0513 34.3461 28.0578 34.3461 28.0643C34.3461 28.0708 34.3461 28.0773 34.3526 28.0838C34.3981 28.2009 34.3981 28.1554 34.4502 28.1944L34.4111 28.2725L34.3331 28.3505C34.2029 28.4351 34.2745 28.4546 34.0924 28.4676L34.1314 28.5457C34.2875 28.6498 34.2615 28.5717 34.4502 28.7084H34.4892L34.4502 28.7474H34.4046C34.2745 28.8125 34.1249 28.8255 34.0338 29.1182C34.0143 29.1703 34.0208 29.1963 34.0468 29.2679L34.2875 29.385C34.2485 29.4565 34.255 29.437 34.2485 29.5476C34.1249 29.4956 34.0143 29.5281 33.8126 29.5476H33.7736C33.6239 29.6062 33.7605 29.5281 33.6109 29.5802C33.4808 29.6257 33.5979 29.5867 33.5328 29.6192C33.4873 29.6387 33.4938 29.6387 33.4287 29.6712L33.1034 29.8664L33.0644 29.7883C32.8692 29.6452 33.1945 29.6908 32.9018 29.6712C32.9863 29.5021 32.8822 29.6387 32.9538 29.424L33.1945 28.6108C33.2596 28.4546 33.2336 28.5652 33.2401 28.4481C33.2466 28.357 33.2271 28.4221 33.2791 28.3375L33.4678 27.7129C33.5459 27.4787 33.5459 27.6869 33.5589 27.4722C33.5654 27.3746 33.5459 27.4332 33.6174 27.3226V27.2836H33.6109ZM33.9297 27.3681V27.3291L33.9752 27.3616L33.9297 27.3681ZM36.0051 27.3681V27.3291L36.0506 27.3616L36.0051 27.3681ZM35.322 27.726V27.765L35.2764 27.7325L35.322 27.726ZM36.7207 27.9211V27.8821L36.7663 27.9146L36.7207 27.9211ZM36.7988 28.0057V27.9667L36.8444 27.9992L36.7988 28.0057ZM79.0419 28.0838H79.0028L79.0354 28.0382L79.0419 28.0838ZM80.278 28.0448H80.317L80.2845 28.0903L80.278 28.0448ZM34.4046 28.2855H34.4437L34.4111 28.331L34.4046 28.2855ZM34.3266 28.3635H34.3656L34.3331 28.4091L34.3266 28.3635ZM79.9592 28.3635H79.9982L79.9657 28.4091L79.9592 28.3635ZM36.8834 28.5197H36.9224L36.8899 28.5652L36.8834 28.5197ZM81.5532 28.5197H81.5922L81.5597 28.5652L81.5532 28.5197ZM34.4892 28.7214V28.6823L34.5348 28.7149L34.4892 28.7214ZM81.358 28.6823V28.7214L81.3124 28.6888L81.358 28.6823ZM38.0805 28.9621C38.087 28.9686 38.1 28.9621 38.1065 28.9751L38.4774 29.2809C38.5229 29.3329 38.5619 29.3785 38.601 29.437C38.4383 29.45 38.2366 29.5932 38.0415 29.5997L37.8398 29.7623C37.7422 29.6257 37.8072 29.7363 37.7162 29.6647L37.534 29.4826C37.4169 29.3199 37.4299 29.3264 37.495 29.1443L37.6121 28.845C37.6446 28.7474 37.5925 28.8255 37.6836 28.6953L38.0805 28.9621ZM39.9542 28.8385V28.8775L39.9087 28.845L39.9542 28.8385ZM27.0659 28.9231H27.105L27.0724 28.9686L27.0659 28.9231ZM38.0805 28.9621V28.9231L38.126 28.9556L38.0805 28.9621ZM41.3855 29.3199V29.359L41.34 29.3264L41.3855 29.3199ZM26.8317 29.4826H26.8708L26.8382 29.5281L26.8317 29.4826ZM42.1857 29.8014V29.8404L42.1402 29.8079L42.1857 29.8014ZM26.5129 30.1201H26.552L26.5194 30.1657L26.5129 30.1201ZM38.9978 30.1592H38.9588L38.9913 30.1136L38.9978 30.1592ZM38.9978 30.1592L39.167 30.0811C39.206 30.0616 39.1865 30.0746 39.2385 30.0356L39.6354 30.3934L39.8826 30.5235C39.9607 30.556 39.8891 30.5105 39.9932 30.5495H40.0323C40.1299 30.5886 40.0518 30.5886 40.1494 30.5495H40.1884H40.2274H40.2665L40.4747 30.4845C40.4812 30.4845 40.4877 30.478 40.4942 30.478L40.7024 30.3869L40.852 30.5951L40.865 30.6081C40.865 30.6081 40.8715 30.6211 40.878 30.6211C40.8911 30.6406 40.839 30.6276 40.9496 30.7057L41.1123 30.8683C41.1188 30.8748 41.1318 30.8683 41.1383 30.8813C41.1578 30.9399 41.1513 30.8553 41.2814 30.9724C41.4831 31.1481 41.4961 31.2522 41.7628 31.4083C41.7694 31.4083 41.7824 31.4148 41.7889 31.4213L41.8669 31.4994L41.9841 31.5775L42.2248 31.8182C42.3028 31.8767 42.3354 31.8442 42.4265 31.9808C42.5631 32.0719 42.6542 32.189 42.7778 32.3126C42.8233 32.3582 42.8884 32.4363 42.9404 32.4688C43.0705 32.5534 43.051 32.4753 43.1486 32.6184L43.3113 32.7811C43.3698 32.8136 43.3503 32.8006 43.4284 32.8201C43.4284 32.8266 43.4349 32.8266 43.4349 32.8396L43.5064 32.9437H43.5455C43.7797 33.0999 43.7927 33.243 44.1115 33.4577L44.5474 33.822L44.6255 33.9001L44.8662 34.1408H44.9052L45.2696 34.4401L45.2826 34.4531C45.2826 34.4531 45.2891 34.4661 45.2956 34.4661C45.2956 34.4661 45.3021 34.4791 45.3086 34.4791C45.4777 34.6548 45.4517 34.5572 45.5493 34.7003L46.0698 35.1818L46.1479 35.2598C46.265 35.429 46.2259 35.2924 46.33 35.429C46.343 35.4485 46.304 35.4355 46.3886 35.5006L46.4666 35.5786L46.6293 35.7413L46.7074 35.8193L46.7854 35.8974L46.8635 35.9755L46.9416 36.0536L47.0652 36.1707C47.1302 36.2162 47.0912 36.1772 47.1172 36.2097C47.1237 36.2162 47.1237 36.2357 47.1302 36.2422L47.6898 36.8798C47.7418 36.9709 47.8004 37.0099 47.8719 37.0815L48.0085 37.2572C48.0085 37.2572 48.0151 37.2702 48.0216 37.2702L48.1452 37.4068L48.2232 37.4849L48.5095 37.8427C48.6331 38.0184 48.7567 38.0899 48.9844 38.3827L49.1081 38.5193L49.2252 38.682L49.3488 38.7926C49.3488 38.7991 49.3553 38.8056 49.3553 38.8121C49.3618 38.8186 49.3618 38.8381 49.3683 38.8446L49.3943 38.8706C49.3943 38.8706 49.4333 38.8836 49.4659 38.9097L50.0189 39.313L50.136 39.3911L50.2141 39.4692C50.2206 39.4757 50.2336 39.4757 50.2401 39.4822C50.2466 39.4952 50.2596 39.4952 50.2661 39.4952L50.9037 39.9311C50.9427 39.9701 50.9622 39.9962 51.0078 40.0287C51.0143 40.0352 51.0273 40.0417 51.0338 40.0417C51.0403 40.0482 51.0533 40.0482 51.0598 40.0547L51.1379 40.1003L51.255 40.1783L51.9316 40.6598L52.2504 40.9005L52.3675 40.9786L52.4911 41.0501C52.5432 41.0826 52.5497 41.0957 52.6082 41.1347L52.7254 41.2128L53.402 41.6942L53.7598 41.9544C53.7663 41.9544 53.7728 41.9675 53.7728 41.9675L53.8184 42C53.8249 42 53.8379 42.0065 53.8444 42.013L53.9615 42.0911L54.3193 42.3318L54.4364 42.4099C54.534 42.5465 54.4429 42.4294 54.547 42.4749L54.8333 42.6896C54.9048 42.7352 54.8203 42.6766 54.9048 42.7352C54.9504 42.7677 54.9439 42.7677 54.9959 42.8067C55.0024 42.8132 55.0154 42.8067 55.0219 42.8197C55.035 42.8653 55.0415 42.8262 55.074 42.8458C55.126 42.8783 55.0805 42.8393 55.1456 42.8913C55.1456 42.8913 55.2041 42.9499 55.2106 42.9499L55.3472 43.0474C55.3472 43.0474 55.3538 43.0605 55.3603 43.0605L55.3733 43.0735L55.3863 43.0865L55.3993 43.0995L55.5294 43.2361L55.5424 43.2491L55.666 43.3857C55.666 43.3923 55.6725 43.3988 55.6791 43.4053L55.8937 43.659C55.9588 43.7696 55.8937 43.6915 55.9848 43.8086L56.2906 44.1795C56.5313 44.4592 56.4012 44.3942 56.5118 44.4722L56.7655 44.8171C56.8826 44.9862 56.7786 45.0383 56.772 45.2009C56.772 45.2595 56.7851 45.2204 56.7655 45.292L56.7005 45.4416C56.7005 45.4481 56.694 45.4546 56.694 45.4611L56.7135 46.0662C56.6029 46.0597 56.6289 46.0597 56.5508 46.0272H56.5118C56.4142 45.9816 56.4988 46.0141 56.3882 45.9881L55.7246 45.7995C55.7181 45.7995 55.6921 45.7864 55.6856 45.7864L54.6381 45.5522H54.5991H54.56H54.521H54.482H54.4429C54.3063 45.4872 54.1762 45.5132 54.0851 45.4742H54.0461C53.942 45.4286 53.7923 45.4546 53.6752 45.4546C53.5711 45.4546 53.389 45.4286 53.2849 45.4742H53.2458C53.1547 45.5132 53.1873 45.4872 53.0767 45.5132C53.0051 45.5262 53.0116 45.5262 52.9726 45.5327C52.9335 45.5392 52.9335 45.5327 52.8815 45.5522H52.8425C52.7774 45.5848 52.7969 45.5783 52.6993 45.6043L52.4586 45.6889C52.387 45.7279 52.3805 45.7474 52.322 45.7929H52.2829L52.2049 45.871L51.808 46.2679C51.6649 46.372 51.795 46.2679 51.7234 46.4631C51.5933 46.8144 51.7104 46.5281 51.6649 46.8599L51.808 48.0245V48.0635C51.8536 48.1676 51.808 48.1156 51.8536 48.2587C51.8926 48.3888 51.8991 48.4018 51.9707 48.5059V48.545C52.0227 48.6751 51.9511 48.4994 51.9902 48.6165C52.0032 48.6621 51.9967 48.6425 52.0227 48.6946L52.0617 48.7531C52.0617 48.7597 52.0683 48.7662 52.0683 48.7727C52.0683 48.7727 52.0748 48.8247 52.0878 48.8638L52.2179 49.1565C52.2244 49.163 52.2244 49.189 52.2309 49.1956L52.4716 49.7551C52.5107 49.8527 52.5497 49.8527 52.6082 49.9437V49.9828L52.7058 50.1324C52.7058 50.1389 52.7123 50.1454 52.7123 50.1519C52.7774 50.2886 52.8945 50.3406 52.9401 50.4317C52.9596 50.4707 52.875 50.4252 53.0962 50.6529L53.2328 50.8285C53.2328 50.8285 53.2458 50.835 53.2458 50.8416L53.2588 50.8546L53.428 51.0302C53.6167 51.2905 53.8509 51.4661 53.8964 51.5507C53.942 51.6548 53.8314 51.5637 53.9615 51.6613L54.2412 51.9801C54.0851 52.0452 54.1502 51.928 53.7338 52.0386C53.6557 52.0582 53.6167 52.0582 53.5256 52.1037H53.4865C53.3564 52.1558 52.9075 52.1493 52.7709 52.1427C52.7579 52.1427 52.6408 52.1232 52.6408 52.1232C52.5497 52.0972 52.5042 52.0386 52.361 52.0061L52.2114 51.9476L51.7299 51.7849C51.6584 51.7524 51.5998 51.7394 51.5283 51.7068H51.4892C51.4502 51.6873 51.3851 51.6678 51.3461 51.6483C51.281 51.6158 51.268 51.5897 51.2095 51.5442H51.1704L51.0924 51.4661C51.0533 51.4466 50.5589 51.3035 50.5524 51.5767C50.5459 51.7849 50.4938 51.7199 50.3442 51.7914L50.2401 51.85C50.2336 51.8565 50.2206 51.863 50.2141 51.863L50.136 51.9411L50.0579 52.0191L49.9799 51.9411C49.8758 51.8695 49.9213 51.8825 49.8302 51.876C49.7717 51.876 49.7131 51.876 49.6741 51.876C49.5439 51.8825 49.2902 51.9085 49.2252 51.9346H49.1861C49.0885 52.0126 49.1796 52.1818 49.2121 52.2208L49.2382 52.2468C49.2447 52.2533 49.2512 52.2598 49.2577 52.2598L49.3097 52.2924L49.3943 52.3639C49.1731 52.3704 49.3293 52.3704 49.2642 52.3314C49.1276 52.2729 49.2317 52.3639 49.0625 52.2533L49.0105 52.2208C48.8608 52.1362 49.082 52.2794 48.9584 52.1948C48.8803 52.1427 48.9064 52.1623 48.8608 52.0907L48.7828 52.0126L48.7047 51.9346C48.555 51.8305 48.542 51.7199 48.3338 51.7133C48.1452 51.7068 48.1061 51.8109 47.8654 51.6938H47.8264C47.7873 51.6743 47.7223 51.6548 47.6833 51.6353C47.6182 51.6027 47.6052 51.5767 47.5466 51.5312L47.4425 51.4726C47.3254 51.4141 47.2734 51.4141 47.1042 51.4141C47.1433 51.5052 47.1237 51.5312 47.1237 51.6223C47.1237 51.6483 47.1172 51.7068 47.1237 51.7199L47.397 52.0061L47.41 52.0191L47.423 52.0321L47.4751 52.0842C47.5011 52.1037 47.4946 52.0907 47.5466 52.1232L48.3013 52.8063L48.1387 52.8389C48.0801 52.8584 48.0931 52.8649 48.0606 52.8844C48.002 52.9104 48.0346 52.8974 47.9955 52.9039C47.989 52.9039 47.9175 52.917 47.8979 52.917C47.7353 52.93 47.7288 52.9365 47.6247 52.8844H47.5857L47.3059 52.7218L47.1888 52.6437C47.0392 52.5331 47.1888 52.6242 47.0847 52.5136L47.0717 52.5006C47.0652 52.4941 47.0522 52.4811 47.0457 52.4745L47.0327 52.4615L47.0196 52.4485L47.0066 52.4355L46.9806 52.4095C46.9806 52.4095 46.9741 52.3965 46.9676 52.3965L46.896 52.3379C46.8895 52.3379 46.8765 52.3314 46.87 52.3249C46.8245 52.2924 46.857 52.3249 46.818 52.2729C46.7659 52.1948 46.8635 52.2859 46.7724 52.2143C46.6878 52.1493 46.7139 52.2208 46.6228 52.0907L46.4601 51.928L46.1413 51.6093C45.8616 51.4206 46.1479 51.5442 45.8616 51.2514L45.5883 51.0302C45.4257 50.9912 45.3671 51.2449 45.4192 51.375V51.4141C45.4907 51.5182 45.5168 51.4921 45.5298 51.6353C45.5623 51.928 45.4777 51.8435 45.3801 51.7784H45.3346L44.7361 51.4596L44.6645 51.4141C44.658 51.4076 44.5929 51.375 44.5864 51.375C44.5214 51.3425 44.4758 51.3295 44.4173 51.3035L44.1766 51.1408L43.9684 51.0302C43.9619 51.0237 43.9554 51.0172 43.9488 51.0172L43.8447 50.9196C43.8382 50.9196 43.8252 50.9066 43.8187 50.9066L43.578 50.6659L43.4154 50.5032L43.2527 50.3406L43.0901 50.178L43.012 50.0999C42.8624 49.9893 43.0445 50.1129 42.8949 49.9633L42.7908 49.8331C42.7387 49.7421 42.7322 49.7551 42.6607 49.703C42.5566 49.5469 42.5045 49.5143 42.3744 49.4298L42.2183 49.3062L42.1402 49.2281L41.9775 49.0654L41.8669 49.0069C41.8604 49.0069 41.8539 49.0004 41.8474 49.0004L41.6588 48.9418C41.6457 49.111 41.6653 49.0134 41.5807 49.1435L41.7433 49.3062V49.3452L41.9841 49.5859C42.1467 49.8266 42.1142 49.638 42.3419 50.0673C42.2638 50.0673 42.2313 50.0673 42.1597 50.0543C42.0621 50.0413 42.1077 50.0608 42.0231 50.0283H41.9841L41.34 49.9177C41.2814 49.8917 41.2749 49.8917 41.2229 49.8722H41.1838C41.0667 49.9502 41.0342 50.0413 41.0277 50.0543L40.9431 50.1129L40.865 50.191L40.0973 51.5182C40.0648 51.5962 40.1103 51.5247 40.0713 51.6288C39.9672 51.7068 40.0453 51.5962 39.9412 51.915C39.9412 51.9215 39.9347 51.928 39.9347 51.9346C39.9217 51.9736 39.9217 52.3119 39.5964 52.1037L39.0759 51.863H39.0369L38.9198 51.7849H38.8807C38.7636 51.7264 38.5489 51.6613 38.4318 51.6873C38.3602 51.7068 38.3668 51.7329 38.2431 51.7459C38.2627 51.9671 38.3733 51.9606 38.5229 52.0647C38.5814 52.0907 38.627 52.1037 38.692 52.1362L38.8417 52.2273L39.1149 52.3574C39.1214 52.3639 39.1344 52.3705 39.141 52.3705C39.1475 52.3705 39.1605 52.3835 39.167 52.3835C39.2385 52.416 39.2971 52.429 39.3687 52.4615C39.2451 52.6437 39.232 52.5656 38.9328 52.4225C38.8677 52.5786 38.9653 52.5136 38.8157 52.7413C38.7441 52.7088 38.6855 52.6957 38.614 52.6632H38.5749L38.4969 52.5851C38.3928 52.5136 38.4253 52.4876 38.2952 52.468C38.2496 52.4615 38.1846 52.4745 38.139 52.468C37.9829 52.4485 38.0675 52.455 38.0219 52.429C37.7942 52.2794 37.9309 52.3444 37.8463 52.1297C37.8463 52.1232 37.8333 52.1102 37.8333 52.1037L37.7877 51.9476C37.7422 51.7979 37.7227 51.7264 37.586 51.6353C37.5015 51.5312 37.495 51.6158 37.4169 51.6483C37.3844 51.6613 37.3258 51.6678 37.2282 51.6808C37.2738 51.5637 37.2412 51.5117 37.2282 51.323C37.0851 51.2189 37.2022 51.3425 37.1566 51.1864L37.007 50.8676C36.9875 50.835 36.981 50.8155 36.968 50.783L36.8509 50.2951C36.8313 50.0283 36.8834 48.9874 36.8313 48.8507V48.8117C36.7858 48.7011 36.8444 48.8377 36.8053 48.7206C36.8053 48.7141 36.7988 48.7076 36.7988 48.7011C36.7988 48.6946 36.7923 48.6881 36.7923 48.6816L36.7663 48.5254C36.7533 48.4604 36.7468 48.4864 36.7142 48.4083L36.6232 48.1871C36.5711 48.0895 36.6557 48.1221 36.5776 47.9854C36.5126 47.8814 36.5516 47.9789 36.5256 47.8879L36.467 47.7057C36.467 47.6992 36.4605 47.6927 36.4605 47.6862L36.3824 47.53C36.2979 47.3544 36.2914 47.3934 36.2914 47.1527C36.2914 46.6778 36.2783 46.977 36.3629 46.7753L36.3955 46.5541C36.4345 46.3785 36.3955 46.2288 36.3759 46.0207L36.4605 44.4853C36.5256 44.3226 36.5386 44.4853 36.5321 44.2836C36.5126 43.3858 36.5906 43.6135 36.6101 43.2621L36.7338 42.7742C36.7338 42.7677 36.7403 42.7547 36.7468 42.7482C36.7793 42.6636 36.7598 42.7612 36.7728 42.6831C36.8118 42.5009 36.7012 42.7287 36.8379 42.4879L37.1176 41.7983C37.1957 41.6812 37.1371 41.7528 37.2282 41.512C37.2738 41.3949 37.2412 41.4275 37.2607 41.3624C37.3128 41.1672 37.2998 41.4079 37.3323 41.0892C37.3323 41.0696 37.3453 41.0436 37.3453 41.0306L37.3778 40.8484C37.4169 40.7053 37.4039 40.8875 37.4104 40.7313C37.4234 40.5687 37.4039 40.406 37.4104 40.2499C37.4169 39.9571 37.3778 40.1588 37.3323 39.853L37.2022 39.5928C37.1697 39.5407 37.1892 39.5668 37.1697 39.5342C37.1697 39.5277 37.1632 39.5212 37.1632 39.5147L37.0786 39.3521C37.0786 39.3456 37.0721 39.3391 37.0721 39.3326C37.0721 39.326 37.0656 39.3195 37.0656 39.313C37.0395 39.2285 37.0656 38.9747 36.9094 38.7015L36.6036 37.9143C36.5906 37.8752 36.6101 37.9143 36.5711 37.8557C36.3889 37.5564 36.6947 37.7711 36.467 37.6085L36.3629 37.2767C36.3499 37.2376 36.3694 37.2767 36.3304 37.2181L36.2914 37.1596C36.2914 37.1531 36.2848 37.1466 36.2848 37.1401L36.2003 36.8213C36.1873 36.522 36.1027 36.6391 36.1808 36.4179C36.2198 36.3073 36.1677 36.3593 36.2588 36.2878C36.2979 36.1902 36.2458 36.1642 36.3239 36.1186C36.3824 36.0861 36.3564 36.1121 36.428 36.1381C36.4345 36.1381 36.441 36.1446 36.4475 36.1446C36.6687 36.2097 36.6817 36.1707 36.7858 36.2032L37.2542 36.2878H37.2933H37.3323C37.3713 36.3138 37.3974 36.3398 37.4234 36.3593L37.7747 36.5285H37.8137H37.8528H37.8918C37.9894 36.5675 37.9113 36.5675 38.0089 36.5285H38.048C38.1781 36.5805 37.9959 36.5415 38.4448 36.4895C38.6075 36.4699 38.7636 36.3789 38.9653 36.2878C39.0173 36.2162 39.6549 35.7868 39.707 35.5786C39.7525 35.3769 39.6289 35.6307 39.772 35.3769C39.8306 35.2728 39.785 35.2859 39.7265 35.1753L39.6614 35.0386C39.6159 34.9606 39.6549 35.0321 39.6159 34.9606C39.5573 34.8565 39.6289 34.9475 39.5378 34.837C39.4923 34.7784 39.4923 34.7914 39.4467 34.7263L39.3687 34.6483C39.1995 34.5247 39.4012 34.6873 39.2906 34.5507C39.219 34.4661 39.2581 34.5377 39.219 34.4401C39.1475 34.2579 39.1475 34.297 39.1345 34.0953L38.8287 33.269C38.8222 33.256 38.7961 33.204 38.7961 33.1975L38.679 32.8071C38.666 32.7616 38.679 32.8071 38.653 32.742C38.588 32.5924 38.614 32.6054 38.588 32.4883C38.5229 32.1825 38.5945 31.9873 38.5554 31.7596L38.5099 31.3302C38.4253 31.1741 38.4643 31.3042 38.4513 31.1546C38.4318 30.9659 38.2952 30.9724 38.2561 30.6862C38.2366 30.53 38.2952 30.5886 38.1846 30.4259L38.5749 30.2828C38.7896 30.2438 38.8026 30.2763 38.9458 30.1982C38.9523 30.1917 38.9653 30.1852 38.9718 30.1852C38.9783 30.1787 38.9913 30.1722 38.9978 30.1722C38.9783 30.1722 38.9848 30.1657 38.9978 30.1592ZM25.9534 30.6797H25.9925L25.9599 30.7252L25.9534 30.6797ZM40.9496 30.7187V30.6797L40.9951 30.7122L40.9496 30.7187ZM41.1123 30.8748V30.8358L41.1578 30.8683L41.1123 30.8748ZM43.3828 30.8358V30.8748L43.3373 30.8423L43.3828 30.8358ZM25.7908 30.9984H25.8298L25.7973 31.044L25.7908 30.9984ZM25.7127 31.0765H25.7517L25.7192 31.1221L25.7127 31.0765ZM41.9841 31.597V31.558L42.0296 31.5905L41.9841 31.597ZM44.3392 31.636V31.6751L44.2937 31.6425L44.3392 31.636ZM44.4173 31.7141V31.7531L44.3717 31.7206L44.4173 31.7141ZM42.2248 31.8312V31.7922L42.2703 31.8247L42.2248 31.8312ZM44.5799 31.8767V31.9158L44.5344 31.8833L44.5799 31.8767ZM23.9561 32.0329H23.9951L23.9626 32.0784L23.9561 32.0329ZM71.8203 32.8331H71.8593L71.8268 32.8787L71.8203 32.8331ZM68.3526 33.3081V33.3471L68.3071 33.3146L68.3526 33.3081ZM64.8004 33.4707H64.8394L64.8069 33.5162L64.8004 33.4707ZM44.5409 33.8285V33.7895L44.5864 33.822L44.5409 33.8285ZM44.619 33.9066V33.8676L44.6645 33.9001L44.619 33.9066ZM63.6879 34.1083H63.7269L63.6944 34.1538L63.6879 34.1083ZM47.2929 34.2644V34.3035L47.2474 34.2709L47.2929 34.2644ZM21.9653 34.349H22.0043L21.9718 34.3945L21.9653 34.349ZM21.8807 34.4271H21.9197L21.8872 34.4726L21.8807 34.4271ZM39.1149 34.4271L39.1279 34.4401C39.1279 34.4401 39.1084 34.4336 39.1149 34.4271ZM47.449 34.4271V34.4661L47.4035 34.4336L47.449 34.4271ZM47.6117 34.5832V34.6223L47.5661 34.5897L47.6117 34.5832ZM81.4751 35.0256V34.9866L81.5206 35.0191L81.4751 35.0256ZM20.4494 35.0647H20.4884L20.4559 35.1102L20.4494 35.0647ZM46.0568 35.1818V35.1427L46.1023 35.1753L46.0568 35.1818ZM81.6377 35.1818V35.1427L81.6833 35.1753L81.6377 35.1818ZM46.1348 35.2663V35.2273L46.1804 35.2598L46.1348 35.2663ZM46.3756 35.5071V35.468L46.4211 35.5006L46.3756 35.5071ZM46.4536 35.5851V35.5461L46.4992 35.5786L46.4536 35.5851ZM46.6163 35.7413V35.7022L46.6618 35.7348L46.6163 35.7413ZM46.6944 35.8259V35.7868L46.7399 35.8193L46.6944 35.8259ZM46.7724 35.9039V35.8649L46.818 35.8974L46.7724 35.9039ZM59.42 35.8649V35.9039L59.3744 35.8714L59.42 35.8649ZM46.8505 35.982V35.943L46.896 35.9755L46.8505 35.982ZM57.0648 35.943H57.1039L57.0713 35.9885L57.0648 35.943ZM46.9351 36.0601V36.021L46.9806 36.0536L46.9351 36.0601ZM56.9867 36.021H57.0258L56.9932 36.0666L56.9867 36.021ZM17.6518 36.2617H17.6909L17.6584 36.3073L17.6518 36.2617ZM17.5738 36.3398H17.6128L17.5803 36.3854L17.5738 36.3398ZM49.2056 36.3398V36.3789L49.1601 36.3463L49.2056 36.3398ZM61.8532 36.4244H61.8922L61.8597 36.4699L61.8532 36.4244ZM17.3331 36.5805H17.3721L17.3396 36.6261L17.3331 36.5805ZM17.1769 36.7432H17.2159L17.1834 36.7887L17.1769 36.7432ZM17.0988 36.8213H17.1379L17.1053 36.8668L17.0988 36.8213ZM17.0143 36.8993H17.0533L17.0208 36.9449L17.0143 36.8993ZM16.9362 36.9774H16.9752L16.9427 37.0229L16.9362 36.9774ZM16.8581 37.062H16.8972L16.8646 37.1075L16.8581 37.062ZM48.1322 37.4198V37.3808L48.1777 37.4133L48.1322 37.4198ZM48.2102 37.4979V37.4588L48.2558 37.4914L48.2102 37.4979ZM50.162 37.4588V37.4979L50.1165 37.4653L50.162 37.4588ZM36.441 37.615V37.654L36.3955 37.6215L36.441 37.615ZM16.136 37.9403H16.175L16.1425 37.9858L16.136 37.9403ZM50.9622 38.2591V38.2981L50.9167 38.2656L50.9622 38.2591ZM49.0885 38.5388V38.4998L49.1341 38.5323L49.0885 38.5388ZM51.4372 38.5779V38.6169L51.3916 38.5844L51.4372 38.5779ZM15.3422 38.8967H15.3813L15.3487 38.9422L15.3422 38.8967ZM52.1593 39.0528V39.0918L52.1138 39.0593L52.1593 39.0528ZM50.123 39.4106V39.3716L50.1685 39.4041L50.123 39.4106ZM50.201 39.4952V39.4562L50.2466 39.4887L50.201 39.4952ZM53.0376 39.6904V39.7294L52.9921 39.6969L53.0376 39.6904ZM14.3859 40.1718H14.4249L14.3924 40.2174L14.3859 40.1718ZM51.242 40.2109V40.1718L51.2875 40.2043L51.242 40.2109ZM54.1111 40.4906C54.1176 40.4841 54.1241 40.4971 54.1241 40.5036L54.1111 40.4906ZM52.3545 41.0111V40.972L52.4001 41.0046L52.3545 41.0111ZM13.9044 41.1282H13.9435L13.9109 41.1737L13.9044 41.1282ZM52.5952 41.1672V41.1282L52.6408 41.1607L52.5952 41.1672ZM55.113 41.1282V41.1672L55.0675 41.1347L55.113 41.1282ZM55.588 41.447V41.486L55.5424 41.4535L55.588 41.447ZM13.5076 41.6877H13.5466L13.5141 41.7332L13.5076 41.6877ZM53.3955 41.7267V41.6877L53.441 41.7202L53.3955 41.7267ZM37.0786 41.8048H37.0395L37.0721 41.7593L37.0786 41.8048ZM53.955 42.1236V42.0846L54.0005 42.1171L53.955 42.1236ZM54.4299 42.4424V42.4034L54.4754 42.4359L54.4299 42.4424ZM57.0258 42.7221V42.7612L56.9802 42.7287L57.0258 42.7221ZM54.9894 42.8458V42.8067L55.035 42.8393L54.9894 42.8458ZM12.4666 43.5224H12.5057L12.4731 43.5679L12.4666 43.5224ZM79.6404 43.5614V43.5224L79.686 43.5549L79.6404 43.5614ZM12.1478 44.16H12.1869L12.1543 44.2055L12.1478 44.16ZM56.5053 44.5178V44.4787L56.5508 44.5113L56.5053 44.5178ZM81.7158 44.9992V44.9602L81.7614 44.9927L81.7158 44.9992ZM81.7939 45.0773V45.0383L81.8394 45.0708L81.7939 45.0773ZM27.8662 45.1554L28.9852 45.3961H29.0242C29.0828 45.4351 29.1023 45.4611 29.1543 45.4872C29.2715 45.5392 29.0828 45.4481 29.2129 45.5002C29.2584 45.5197 29.2649 45.5262 29.304 45.5522H29.343C29.4796 45.6433 29.3886 45.6173 29.5317 45.6628L29.9871 45.8125C30.0392 45.819 29.9871 45.8125 30.0457 45.8125C30.2604 45.8125 30.3644 45.5327 30.4165 45.4286L30.5336 45.5457L30.8134 45.7864L30.8914 45.8645L31.0541 46.0272C31.3403 46.2223 31.6266 46.5216 31.9324 46.8079C31.9324 46.8079 31.9389 46.8209 31.9454 46.8209L32.622 47.2763C32.6936 47.3088 32.6285 47.2633 32.7326 47.3023C32.8107 47.465 32.7391 47.4129 32.8822 47.5496C32.9733 47.6406 33.0254 47.6797 33.0904 47.7773C33.2726 47.9009 33.1945 47.8944 33.2596 47.9724L33.2856 47.9985C33.2856 47.9985 33.2921 48.0115 33.2986 48.0115L34.4176 49.1305C34.4176 49.1305 34.4242 49.1435 34.4307 49.1435L34.5217 49.2151L34.6388 49.2931H34.6779V49.3322C34.8535 49.703 34.6193 50.6399 34.8015 51.0042L34.8796 51.1278C34.9641 51.2579 34.9446 51.1538 34.9576 51.3295C34.8535 51.4726 34.9707 51.349 34.8405 51.5962L34.7104 51.876C34.7104 51.8825 34.6974 51.889 34.6974 51.8955L34.4242 52.455C34.4242 52.4615 34.4176 52.468 34.4176 52.4745L34.2875 52.8063C34.0793 52.8063 34.229 52.8063 34.1704 52.7673C34.0598 52.6957 34.0273 52.6632 33.8516 52.6502C33.7215 52.8389 33.8646 52.7738 33.689 52.8909L33.7671 53.0601C33.7866 53.0991 33.7736 53.0796 33.8126 53.1316H33.8516L33.7345 53.4504C33.5393 53.3203 33.7736 53.4244 33.4157 53.2488H33.3767L33.0644 53.1512C32.9733 53.1251 32.9994 53.1577 32.8953 53.0861L32.7001 53.0015C32.6936 52.995 32.6806 52.995 32.6741 52.9885C32.4333 52.8584 32.6871 52.6502 31.8608 52.6502L31.9389 52.7673V52.8063C31.9974 52.9495 31.8478 52.8844 32.1145 53.0275C32.121 53.0275 32.1341 53.0341 32.1406 53.0406L32.2251 53.1121L31.8868 53.1707C31.8803 53.1707 31.8738 53.1772 31.8673 53.1772L31.6591 53.2422C31.6526 53.2488 31.6396 53.2422 31.6331 53.2553L31.2623 53.6781C31.3859 53.7627 31.3403 53.7757 31.503 53.8733L31.555 53.8993C31.5615 53.8993 31.5746 53.9058 31.5811 53.9124C31.6396 53.9514 31.6071 53.9384 31.6526 53.9579C31.6591 53.9579 31.6656 53.9644 31.6721 53.9644L31.8543 54.036C32.1015 54.114 31.6786 53.9904 31.9324 54.049L32.1406 54.1531C32.2121 54.1856 32.2707 54.1986 32.3423 54.2311H32.3813L32.4984 54.3092C32.7326 54.4719 32.648 54.5109 32.7001 54.628L32.622 54.667H32.583C32.4854 54.7061 32.5635 54.7061 32.4659 54.667H32.4268C32.3878 54.6475 32.3227 54.628 32.2837 54.6085C32.2186 54.576 32.2056 54.5499 32.1471 54.5044C32.1406 54.4979 32.1276 54.4849 32.121 54.4914C32.1145 54.4979 32.1015 54.4784 32.095 54.4784L31.8088 54.2897C31.8023 54.2832 31.7762 54.2311 31.5485 54.2311C31.6461 54.4719 31.4444 54.2962 31.6656 54.628C31.8413 54.7516 31.6461 54.6605 31.8023 54.7711C31.8088 54.7711 31.8218 54.7776 31.8283 54.7842L31.9909 54.9468H32.03L31.9909 54.9858H31.9324C31.9324 54.9858 31.3794 54.8687 31.3013 54.9078C31.1972 54.9598 31.2623 54.9793 31.0996 55.0639H31.0606C31.002 55.0964 31.0215 55.0834 30.9435 55.1029C30.8589 55.0444 30.8524 55.0119 30.7678 54.9598C30.6897 54.9078 30.6182 54.8752 30.5466 54.8232C30.5011 54.7581 30.462 54.7061 30.3905 54.654L30.2669 54.563C30.2604 54.5564 30.2473 54.5434 30.2408 54.5369L29.1478 53.6261C29.0502 53.561 29.0047 53.5025 28.9201 53.4179C28.7965 53.2943 28.777 53.3073 28.6274 53.2292L28.4647 53.0666L28.3671 52.9625C28.198 52.8454 28.3931 52.969 28.1394 52.7153C27.9117 52.4941 27.8857 52.5006 27.8011 52.3184L27.736 52.2013C27.736 52.1948 27.7295 52.1883 27.7295 52.1818L27.71 52.1427C27.645 52.0191 27.671 52.1753 27.6515 51.9411C27.632 51.7524 27.5669 51.863 27.5734 51.4596C27.5799 51.2254 27.5083 51.2775 27.4953 51.1278C27.4823 50.9456 27.5148 50.9522 27.4563 50.7635C27.3977 50.5813 27.3912 50.4447 27.4108 50.2755C27.4303 50.1324 27.4758 50.0673 27.4888 49.9958C27.5083 49.8787 27.4628 49.8657 27.5083 49.6965C27.5344 49.5924 27.5734 49.7421 27.5083 49.5859C27.5148 49.5794 27.5214 49.5534 27.5214 49.5599C27.5214 49.5664 27.5344 49.5404 27.5344 49.5339L27.5669 49.2996C27.5669 49.0784 27.5474 49.0199 27.6124 48.7987C27.6124 48.7922 27.6254 48.7662 27.632 48.7597C27.6515 48.7076 27.6385 48.7922 27.645 48.7011V48.1416C27.6385 48.0505 27.645 48.1156 27.6189 48.044L27.5994 47.9854C27.5018 47.7122 27.6385 47.8748 27.5018 47.6732V47.6341C27.5018 47.6016 27.4823 47.465 27.4823 47.465L27.3327 47.1852C27.1375 46.7688 27.2806 46.8079 27.3262 46.6452C27.3457 46.5606 27.3002 46.5932 27.4628 46.1117L27.6905 45.4221C27.7035 45.3896 27.71 45.3636 27.723 45.331L27.8662 45.1554ZM81.9565 45.2399V45.2009L82.0021 45.2334L81.9565 45.2399ZM59.8949 45.5587L60.0901 45.6433C60.4219 45.806 60.4479 45.8645 60.6236 45.9491C60.6496 45.9621 60.7342 46.0011 60.7602 46.0142C60.8252 46.0532 60.8383 46.0727 60.8968 46.1182C60.9033 46.1248 60.9163 46.1248 60.9228 46.1313L60.9684 46.1638L60.9814 46.1768C60.9879 46.1833 60.9944 46.1963 61.0009 46.2028C61.118 46.3069 61.079 46.1898 61.1636 46.359C61.1831 46.398 61.157 46.359 61.1961 46.4175C61.2351 46.4696 61.2677 46.4956 61.2872 46.5216L61.6385 47.3999C61.6385 47.4064 61.645 47.4129 61.645 47.4194L61.7296 47.6341C61.7816 47.7447 61.7361 47.6536 61.7751 47.7122C61.9052 48.0245 61.8076 47.7838 61.9768 48.031C61.7881 48.044 61.8337 48.0765 61.658 47.992H61.619C61.5474 47.9594 61.4888 47.9464 61.4173 47.9139H61.3782C61.2872 47.8683 61.2351 47.8814 61.131 47.8423L60.539 47.6732H60.4934L60.0575 47.5105C59.8559 47.3739 59.7388 47.439 59.6347 47.1787L59.5631 47.0421C59.5631 47.0356 59.5566 47.0291 59.5566 47.0226L59.5436 46.9835C59.5176 46.925 59.485 46.8534 59.4655 46.7884C59.4004 46.6062 59.3939 46.5802 59.3809 46.3915C59.2833 46.2549 59.3224 46.0987 59.3224 45.8645C59.3224 45.8255 59.3159 45.6563 59.3224 45.6238C59.3419 45.5457 59.3484 45.5913 59.3874 45.4807C59.4395 45.3245 59.3614 45.4611 59.42 45.3115C59.472 45.344 59.4915 45.3766 59.5306 45.3961L59.8949 45.5587ZM82.1127 45.3961V45.357L82.1582 45.3896L82.1127 45.3961ZM82.2753 45.5587V45.5197L82.3209 45.5522L82.2753 45.5587ZM74.0193 45.5978V45.6368L73.9737 45.6043L74.0193 45.5978ZM30.8199 45.7929V45.7539L30.8654 45.7864L30.8199 45.7929ZM63.2455 45.7929H63.2064L63.2389 45.7474L63.2455 45.7929ZM30.8979 45.8775V45.8385L30.9435 45.871L30.8979 45.8775ZM52.1984 45.9166H52.2374L52.2049 45.9621L52.1984 45.9166ZM31.0541 46.0337V45.9946L31.0996 46.0272L31.0541 46.0337ZM60.8968 46.1182V46.0792L60.9424 46.1117L60.8968 46.1182ZM56.707 46.1182H56.746L56.7135 46.1638L56.707 46.1182ZM54.1111 46.2744V46.2354L54.1567 46.2679L54.1111 46.2744ZM64.4816 46.2744V46.2354L64.5271 46.2679L64.4816 46.2744ZM51.8015 46.3134H51.8405L51.808 46.359L51.8015 46.3134ZM53.955 46.2744H53.994C54.0916 46.3134 54.0135 46.3134 54.1111 46.2744C54.1502 46.3004 54.1176 46.2939 54.1957 46.3134C54.1957 46.3134 54.2868 46.3264 54.2933 46.3264C54.2933 46.3264 54.3583 46.3329 54.3648 46.3329C54.3714 46.3329 54.3779 46.3394 54.3844 46.3394C54.3909 46.3394 54.4104 46.3525 54.4234 46.3525C54.573 46.4045 54.6251 46.3655 54.8268 46.437L55.3928 46.5867H55.4318C55.4513 46.5997 55.5034 46.6127 55.5164 46.6192C55.588 46.6582 55.5554 46.6387 55.5945 46.6647H55.6335H55.6725C55.7246 46.6908 55.7116 46.6908 55.7896 46.7103L55.9263 46.7428C55.9328 46.7428 55.9393 46.7493 55.9458 46.7558L56.1149 46.8274H56.154C56.3882 46.938 56.2776 46.8209 56.5248 46.9705C56.5313 46.977 56.5443 46.9835 56.5508 46.9835C56.6419 47.0226 56.681 46.99 56.8306 47.0616L56.9998 47.1527C57.0453 47.1657 57.0583 47.1527 57.1689 47.1982L57.4877 47.3153C57.5853 47.3609 57.6048 47.3739 57.6764 47.4064C57.8846 47.5105 57.8716 47.491 57.9041 47.5626C57.9496 47.6667 57.9171 47.6211 57.8911 47.7252C57.8911 47.7382 57.8846 47.7903 57.8846 47.8033C57.8846 48.2782 57.8325 48.2782 57.8065 48.6035L57.787 49.2476C57.6373 49.4818 57.8 51.1864 57.7089 51.4011V51.4401L57.6764 51.5507C57.6048 51.7849 57.7154 51.85 57.5918 52.1232C57.5658 52.1883 57.5788 52.1427 57.5658 52.1883C57.5658 52.1883 57.5658 52.2208 57.5528 52.2598C57.5137 52.4095 57.5332 52.3119 57.4942 52.416C57.4552 52.5201 57.5528 52.429 57.4226 52.5266H57.3836C56.8957 52.4876 56.9672 52.442 56.694 52.3574C56.6679 52.3509 56.6094 52.3639 56.5053 52.2924L56.0434 52.0712C55.9783 52.0321 55.9653 52.0126 55.9068 51.9671L55.7896 51.889C55.6465 51.7914 55.7246 51.8109 55.5164 51.6808L55.2692 51.4921L55.1521 51.3946L55.1391 51.3815C55.1325 51.375 55.126 51.3685 55.1195 51.3685L55.074 51.336C54.9829 51.2775 54.9829 51.2449 54.9048 51.1864C54.7877 51.0953 54.8138 51.1734 54.6836 51.0497L54.3583 50.7765L54.1176 50.5358C54.0135 50.4577 54.0656 50.4707 54.0461 50.4512C54.0461 50.4512 54.0396 50.4382 54.033 50.4382L53.4735 49.7421L53.3955 49.664L53.2198 49.3972C53.0897 49.176 53.1027 49.2541 53.0441 49.176L52.6928 48.4344C52.5692 47.9074 52.6343 47.9204 52.6213 47.4585C52.6213 47.3869 52.6082 47.3999 52.6017 47.2698V47.2308C52.5887 47.1006 52.5822 47.1137 52.5822 47.0421C52.5757 46.925 52.6017 46.9965 52.5237 46.8729L52.6017 46.7949V46.7558C52.6863 46.5606 52.5367 46.7753 52.6538 46.6062C52.6603 46.5997 52.7123 46.5411 52.7254 46.5216L52.7969 46.4175C53.0572 46.1768 53.6492 46.2484 53.955 46.2744ZM12.4666 46.7558V46.7168L12.5122 46.7493L12.4666 46.7558ZM65.2818 46.912V46.8729L65.3274 46.9055L65.2818 46.912ZM56.8241 47.0746V47.0356L56.8696 47.0681L56.8241 47.0746ZM23.4812 47.2308V47.1917L23.5267 47.2243L23.4812 47.2308ZM22.9997 47.0746H23.0388C23.0583 47.0876 23.1103 47.1006 23.1233 47.1071C23.1949 47.1462 23.1624 47.1267 23.2014 47.1527H23.2404H23.2795C23.351 47.1852 23.4096 47.1982 23.4812 47.2308C23.4877 47.2373 23.5007 47.2373 23.5072 47.2438L23.7609 47.3869L23.839 47.465C24.1383 47.6081 23.9756 47.6016 24.1187 47.7057C24.1318 47.7382 24.1383 47.7773 24.1448 47.7903C24.1448 47.7968 24.1513 47.8033 24.1513 47.8098L24.1903 47.8683C24.353 48.1416 24.2619 48.2197 24.3139 48.3173C24.3985 48.4734 24.4506 48.7532 24.4636 48.9418C24.4636 48.9483 24.4636 49.0459 24.4636 49.0459C24.4701 49.1435 24.5286 49.1695 24.5416 49.4168L24.6262 49.8136C24.6392 50.269 24.6067 50.191 24.5872 50.4707C24.5807 50.5683 24.5872 50.4967 24.5612 50.5683C24.5612 50.5748 24.5546 50.5813 24.5546 50.5878C24.5546 50.5943 24.5481 50.6008 24.5481 50.6073C24.5481 50.6138 24.5416 50.6399 24.5416 50.6464C24.5351 50.7505 24.5742 50.783 24.4831 50.9782V51.0172C24.5286 51.1343 24.4701 51.1408 24.4636 51.3035L24.5807 51.7589C24.8214 52.0777 24.6002 51.902 24.7628 52.0191L24.8409 52.0972H24.8799L25.6802 52.6567H25.7192C25.8558 52.8454 25.7127 52.6567 25.8493 52.7348L26.5129 53.2618C26.6105 53.3138 26.604 53.3203 26.6886 53.4049L27.0399 53.6912C27.1115 53.7367 27.105 53.7302 27.17 53.8018C27.2091 53.8473 27.1896 53.8278 27.2221 53.8668L27.2806 53.9254L27.6385 54.2442L27.7165 54.3222L27.8076 54.3938C27.8076 54.3938 27.7556 54.3938 27.8727 54.4784L27.9507 54.5564L28.4777 54.9923C28.4842 54.9989 28.4972 54.9989 28.4972 55.0054C28.5037 55.0054 28.5103 55.0119 28.5168 55.0184L28.6339 55.116C28.6859 55.142 28.7054 55.1485 28.777 55.181C28.9071 55.2396 28.777 55.2591 28.9136 55.2005L28.9917 55.2461C29.1869 55.3632 29.1674 55.3827 29.1739 55.4738C29.1804 55.5779 29.2845 55.7405 29.3495 55.8446L28.8681 56.0853C28.7575 56.0138 28.7445 56.0203 28.6274 55.9682L28.5103 55.8902L28.4322 55.8121C28.3736 55.7796 28.3866 55.7926 28.3151 55.7731C28.185 55.8576 28.2891 55.8381 28.1134 55.8511C28.1589 55.9552 28.1524 55.8706 28.1134 55.9682C28.0548 56.0008 28.0679 55.9878 27.9963 56.0073C27.8271 55.8967 27.8662 55.9617 27.7426 55.8576C27.645 55.7731 27.6254 55.721 27.5148 55.6494C27.4888 55.6104 27.4953 55.6039 27.4433 55.5649C27.4368 55.5584 27.4238 55.5519 27.4173 55.5519L27.3392 55.5128C27.3327 55.5128 27.3197 55.5063 27.3132 55.4998C27.2676 55.5323 27.2611 55.5388 27.2221 55.5714C27.0399 55.695 26.9488 55.7731 26.8317 55.7796C26.8577 55.8511 26.8903 56.0203 26.7797 56.0398L26.5129 56.0203C26.5455 55.9617 26.6105 55.7275 26.617 55.6885C26.63 55.5779 26.5845 55.5844 26.6496 55.4347C26.7862 55.1225 26.6235 55.0899 26.5975 54.7842C26.5259 54.8167 26.4674 54.8297 26.3958 54.8622L26.2332 55.2201L26.1551 55.181C26.0575 55.0379 26.077 55.1094 25.9469 55.0314C25.8688 54.9793 25.8428 54.9273 25.7517 54.8622C25.7452 54.8557 25.7322 54.8427 25.7257 54.8492L25.6216 54.7907C25.5696 54.7516 25.5631 54.7321 25.5175 54.6996C25.4395 54.6475 25.4655 54.6801 25.3874 54.6345C25.3419 54.602 25.3289 54.5825 25.2768 54.5499L25.1597 54.4719L24.8019 54.2311C24.7954 54.2246 24.7824 54.2116 24.7758 54.2181L23.7739 53.3463C23.7089 53.2683 23.7089 53.2227 23.6503 53.1512C23.5853 53.0666 23.5462 53.0536 23.4812 52.9625L23.312 52.7348C23.2665 52.6762 23.2535 52.6762 23.2014 52.6437L23.0323 52.3509C22.9151 52.0972 22.9347 52.2403 22.8696 52.1102L22.8176 51.9931C22.785 51.9346 22.798 51.9736 22.785 51.9346C22.6614 51.5507 22.6939 51.4401 22.707 50.9717L22.733 50.835C22.7395 50.796 22.733 50.7765 22.7395 50.6789C22.746 50.6138 22.7525 50.6138 22.7655 50.4837V50.4447C22.8436 50.2625 22.7655 49.7746 22.7395 49.5599C22.7395 49.5534 22.7395 49.5404 22.7395 49.5404L22.5313 48.8117C22.4012 48.7141 22.5248 48.7987 22.4532 48.7141C22.4142 48.6686 22.4467 48.7206 22.4142 48.6751C22.3426 48.584 22.4467 48.7271 22.3882 48.623C22.3817 48.6035 22.3491 48.5645 22.3491 48.5645L22.232 48.1481L22.3817 47.7122C22.4662 47.4455 22.2971 47.8163 22.4597 47.4715L22.5768 47.1852C22.5768 47.1462 22.5833 46.8729 22.9997 47.0746ZM66.082 47.3934V47.3544L66.1276 47.3869L66.082 47.3934ZM83.9473 47.3934V47.3544L83.9929 47.3869L83.9473 47.3934ZM60.0575 47.5105V47.5496L60.012 47.517L60.0575 47.5105ZM86.4651 47.5105V47.5496L86.4196 47.517L86.4651 47.5105ZM24.1187 47.7122V47.6732L24.1643 47.7057L24.1187 47.7122ZM61.7686 47.7122V47.6732L61.8141 47.7057L61.7686 47.7122ZM14.0671 47.8683V47.8293L14.1126 47.8618L14.0671 47.8683ZM67.1946 47.8683V47.8293L67.2401 47.8618L67.1946 47.8683ZM84.4288 47.8683V47.8293L84.4743 47.8618L84.4288 47.8683ZM87.2589 47.9074V47.9464L87.2133 47.9139L87.2589 47.9074ZM59.3809 49.3062C59.42 49.3972 59.3809 49.3062 59.4004 49.3777L59.472 49.5794C59.498 49.6249 59.5371 49.6705 59.5566 49.729C59.5826 49.8071 59.5566 49.8071 59.5696 49.8722C59.5826 49.9242 59.5696 49.8722 59.5891 49.9307C59.5891 49.9372 59.5956 49.9437 59.5956 49.9502C59.5956 49.9567 59.6086 49.9828 59.6086 49.9893L59.6477 50.0869C59.6802 50.2625 59.5566 50.0673 59.5631 50.6073C59.5631 50.757 59.5566 50.6269 59.5956 50.744C59.7257 51.1148 59.5631 51.349 59.7062 51.6548V51.6938C59.7062 51.7199 59.7192 51.7849 59.7192 51.7914V52.2989C59.7127 52.3639 59.6737 52.377 59.7062 52.4485L59.6282 52.6892C59.5045 52.6762 59.4395 52.6502 59.3484 52.6112H59.3094H59.2573C59.2313 52.5917 59.2378 52.5917 59.1792 52.5656C58.8865 52.442 58.8214 52.4745 58.5872 52.468C58.5807 52.468 58.4831 52.455 58.4571 52.455H58.418H58.34C58.366 52.3184 58.3465 52.3574 58.3725 52.2533C58.4831 51.863 58.418 51.9085 58.4376 51.85C58.4766 51.7199 58.5091 51.8305 58.5221 51.6678C58.5482 51.1994 58.5742 51.4856 58.6002 51.2905L58.6523 50.822C58.7108 50.2365 58.6588 50.3861 58.6393 49.9372C58.6327 49.8527 58.6458 49.8852 58.6197 49.7486L58.5872 49.2411C58.5547 49.111 58.5156 49.2606 58.5742 49.111V49.0719C58.5937 48.8703 58.6197 48.9678 58.6653 48.7857C58.6913 48.7011 58.6523 48.6425 58.6783 48.5385C58.7173 48.3693 58.7499 48.3628 58.7499 48.2262C58.7499 47.9724 58.6913 48.0375 58.8084 47.9985L58.8344 48.07C58.8735 48.1546 58.88 48.1481 58.8865 48.1546C58.9841 48.3238 58.8149 48.1026 58.9711 48.3888L58.9906 48.4474C58.9906 48.4539 58.9971 48.4604 58.9971 48.4669L59.0556 48.5645C59.0556 48.571 59.0621 48.5775 59.0621 48.584C59.0621 48.5905 59.0686 48.597 59.0686 48.6035L59.1532 48.7857C59.1597 48.8117 59.1727 48.8638 59.1857 48.8963C59.2313 49.0134 59.2118 48.9158 59.2248 48.9874C59.2508 49.098 59.1662 48.9678 59.2638 49.137C59.3549 49.2671 59.2898 49.2411 59.3809 49.3062ZM84.5849 48.031V47.992L84.6305 48.0245L84.5849 48.031ZM87.3369 47.992V48.031L87.2914 47.9985L87.3369 47.992ZM15.7391 48.2327H15.7001L15.7326 48.1806L15.7391 48.2327ZM14.7827 48.7466V48.7076L14.8283 48.7401L14.7827 48.7466ZM14.8608 48.8247V48.7857L14.9063 48.8182L14.8608 48.8247ZM87.3369 49.15H87.2979L87.3304 49.1045L87.3369 49.15ZM57.7805 49.2671H57.8195L57.787 49.3127L57.7805 49.2671ZM59.3809 49.3062V49.2671L59.4265 49.2996L59.3809 49.3062ZM17.0143 49.3842V49.3452L17.0598 49.3777L17.0143 49.3842ZM70.2263 50.5813C70.4605 50.744 70.4866 50.6724 70.6232 50.744H70.6622C70.7598 50.7049 70.6817 50.7049 70.7793 50.744H70.8184H70.8574H70.8964L71.2673 50.7635C71.3584 50.744 71.2282 50.7635 71.3453 50.731C71.4104 50.7114 71.3909 50.7244 71.4429 50.7244C71.5731 50.7179 71.7357 50.5878 71.8008 50.4967L71.9309 49.8266L72.0089 49.8657C72.1326 49.9567 72.0285 49.8657 72.0805 49.9763C72.0805 49.9828 72.087 49.9893 72.087 49.9958L72.2692 50.4057C72.2757 50.4252 72.2887 50.4512 72.3017 50.4772L72.4969 51.2189C72.562 51.3685 72.5489 51.362 72.5489 51.4726C72.5489 51.5572 72.5294 51.6093 72.5685 51.7003C72.2497 51.7264 72.1326 51.7394 71.8398 51.6483C71.7943 51.6353 71.6771 51.6223 71.5275 51.6223C71.5275 51.6288 71.521 51.6288 71.521 51.6353C71.521 51.6483 71.508 51.6678 71.508 51.6678C71.495 51.7003 71.508 51.6808 71.4755 51.7264C71.4429 51.7654 71.3974 51.8044 71.3584 51.8435C71.2347 51.9671 71.2478 51.9866 71.1697 52.1362L71.0916 52.2143L70.6948 51.9736C70.6167 52.0256 70.6427 52.0321 70.5646 52.0386C70.5126 52.0452 70.4931 52.0452 70.4736 51.9866C70.454 51.9085 70.5061 51.8565 70.454 51.7329V51.6938C70.441 51.5572 70.4085 51.5637 70.3955 51.5052C70.3695 51.3815 70.5126 51.2124 70.0962 51.1799C69.8945 51.6027 70.1938 51.8825 69.7514 52.0452L69.5822 52.1362C69.5237 52.1688 69.5367 52.1558 69.4651 52.1753C69.4651 52.1688 69.4586 52.1558 69.4586 52.1623L69.348 52.0582L69.27 51.9801C69.2049 51.9346 69.2634 51.9736 69.1984 51.928C69.1919 51.9215 69.1789 51.915 69.1724 51.9085C69.1659 51.902 69.1528 51.8955 69.1463 51.889C69.1398 51.8825 69.1073 51.8695 69.0943 51.863C68.8796 51.7199 68.9186 51.3425 68.9707 51.1603L69.0357 51.0107C69.1073 50.835 69.1659 50.8546 69.1073 50.7049L69.3155 50.6334C69.4131 50.5683 69.322 50.5813 69.4261 50.5032C69.4651 50.4122 69.4261 50.5032 69.4456 50.4317L69.6668 49.703C69.7058 49.638 69.7254 49.638 69.7579 49.5729C69.8099 49.4688 69.6928 49.5599 69.8295 49.4623H69.8685L69.9856 49.3777C70.0572 49.5404 69.9921 49.716 69.9726 49.8266C69.9401 50.0088 69.9401 50.3081 70.0767 50.4512C70.1352 50.5163 70.1613 50.5423 70.2263 50.5813ZM76.9274 49.4233H76.9665L76.9339 49.4688L76.9274 49.4233ZM27.5083 49.6249H27.4693L27.5018 49.5794L27.5083 49.6249ZM41.9841 49.6249V49.5859L42.0296 49.6184L41.9841 49.6249ZM42.6672 49.7486V49.7876L42.6216 49.7551L42.6672 49.7486ZM76.4525 49.7486H76.4915L76.459 49.7941L76.4525 49.7486ZM76.0491 49.9828H76.0882L76.0556 50.0283L76.0491 49.9828ZM40.9496 50.1454H40.9886L40.9561 50.191L40.9496 50.1454ZM40.8715 50.2235H40.9106L40.878 50.269L40.8715 50.2235ZM61.1701 50.2625H61.131L61.1636 50.217L61.1701 50.2625ZM75.4961 50.3861H75.5352L75.5026 50.4317L75.4961 50.3861ZM20.1306 50.5032V50.4642L20.1762 50.4967L20.1306 50.5032ZM70.2263 50.5813V50.5423L70.2719 50.5748L70.2263 50.5813ZM18.0552 50.744V50.7049L18.1008 50.7375L18.0552 50.744ZM67.8321 50.7049H67.8712L67.8386 50.7505L67.8321 50.7049ZM18.1333 50.822V50.783L18.1788 50.8155L18.1333 50.822ZM74.9366 50.783H74.9757L74.9431 50.8285L74.9366 50.783ZM86.1854 50.9001V50.8611L86.2309 50.8936L86.1854 50.9001ZM65.4835 51.0237V51.0628L65.438 51.0302L65.4835 51.0237ZM34.8861 51.1408V51.1018L34.9316 51.1343L34.8861 51.1408ZM44.1831 51.1799V51.2189L44.1375 51.1864L44.1831 51.1799ZM34.9641 51.3425H35.0032L34.9707 51.3881L34.9641 51.3425ZM44.4173 51.3425V51.3815L44.3717 51.349L44.4173 51.3425ZM88.6186 51.3425V51.3815L88.5731 51.349L88.6186 51.3425ZM44.7361 51.4987V51.5377L44.6905 51.5052L44.7361 51.4987ZM55.2692 51.4987V51.5377L55.2236 51.5052L55.2692 51.4987ZM47.5336 51.5832V51.6223L47.4881 51.5897L47.5336 51.5832ZM37.56 51.6613V51.7003L37.5145 51.6678L37.56 51.6613ZM40.0713 51.6613H40.1103L40.0778 51.7068L40.0713 51.6613ZM53.955 51.7003V51.6613L54.0005 51.6938L53.955 51.7003ZM67.5134 51.6613H67.5524L67.5199 51.7068L67.5134 51.6613ZM50.201 51.902H50.2401L50.2076 51.9476L50.201 51.902ZM24.7563 52.0191V51.9801L24.8019 52.0126L24.7563 52.0191ZM50.123 51.9801H50.162L50.1295 52.0256L50.123 51.9801ZM55.9068 51.9801V52.0191L55.8612 51.9866L55.9068 51.9801ZM64.0066 52.0191V51.9801L64.0522 52.0126L64.0066 52.0191ZM83.8302 51.9801V52.0191L83.7847 51.9866L83.8302 51.9801ZM54.2347 52.0191H54.2738L54.2412 52.0647L54.2347 52.0191ZM50.0449 52.0582H50.0839L50.0514 52.1037L50.0449 52.0582ZM69.5887 52.1362H69.6278L69.5952 52.1818L69.5887 52.1362ZM71.1827 52.1362H71.2217L71.1892 52.1818L71.1827 52.1362ZM71.1046 52.2208H71.1437L71.1111 52.2664L71.1046 52.2208ZM49.0495 52.2989V52.3379L49.004 52.3054L49.0495 52.2989ZM59.6997 52.455H59.7388L59.7062 52.5006L59.6997 52.455ZM64.4035 52.5786V52.5396L64.4491 52.5721L64.4035 52.5786ZM76.0882 52.5786H76.0491L76.0817 52.5331L76.0882 52.5786ZM23.2014 52.6177V52.6567L23.1559 52.6242L23.2014 52.6177ZM25.7127 52.6567V52.6177L25.7582 52.6502L25.7127 52.6567ZM59.2573 52.6177V52.6567L59.2118 52.6242L59.2573 52.6177ZM47.2929 52.7803V52.8194L47.2474 52.7868L47.2929 52.7803ZM48.0476 52.9365H48.0866L48.0541 52.982L48.0476 52.9365ZM28.4647 53.0991V53.1382L28.4192 53.1056L28.4647 53.0991ZM33.8516 53.1382V53.0991L33.8972 53.1316L33.8516 53.1382ZM66.4008 53.0991H66.4399L66.4073 53.1447L66.4008 53.0991ZM84.3117 53.1382H84.2726L84.3052 53.0926L84.3117 53.1382ZM28.6209 53.2553V53.2943L28.5753 53.2618L28.6209 53.2553ZM87.2979 53.2943V53.2553L87.3434 53.2878L87.2979 53.2943ZM89.0935 53.2943H89.0545L89.087 53.2488L89.0935 53.2943ZM87.3825 53.3789V53.3398L87.428 53.3724L87.3825 53.3789ZM21.2431 53.4569V53.4179L21.2887 53.4504L21.2431 53.4569ZM65.9194 53.4179H65.9584L65.9259 53.4634L65.9194 53.4179ZM65.6006 53.7367H65.6396L65.6071 53.7822L65.6006 53.7367ZM60.3763 54.0945H60.3373L60.3698 54.049L60.3763 54.0945ZM22.4402 54.2507V54.2116L22.4858 54.2442L22.4402 54.2507ZM24.7954 54.2116V54.2507L24.7498 54.2181L24.7954 54.2116ZM27.6254 54.2507V54.2116L27.671 54.2442L27.6254 54.2507ZM65.6006 54.2507V54.2116L65.6461 54.2442L65.6006 54.2507ZM27.7035 54.3352V54.2962L27.7491 54.3287L27.7035 54.3352ZM32.4919 54.3352V54.2962L32.5374 54.3287L32.4919 54.3352ZM27.8662 54.4914V54.4524L27.9117 54.4849L27.8662 54.4914ZM25.2703 54.5304V54.5695L25.2248 54.5369L25.2703 54.5304ZM27.9442 54.5695V54.5304L27.9898 54.563L27.9442 54.5695ZM32.1341 54.5304V54.5695L32.0885 54.5369L32.1341 54.5304ZM68.6714 54.7321H68.6324L68.6649 54.6866L68.6714 54.7321ZM25.7517 54.8492V54.8882L25.7062 54.8557L25.7517 54.8492ZM30.5401 54.8492V54.8882L30.4946 54.8557L30.5401 54.8492ZM32.017 54.9728V54.9338L32.0625 54.9663L32.017 54.9728ZM26.1486 55.168V55.207L26.1031 55.1745L26.1486 55.168ZM28.9006 55.2135V55.1745L28.9462 55.207L28.9006 55.2135ZM73.8957 55.2135V55.1745L73.9412 55.207L73.8957 55.2135ZM41.7043 55.5323H41.6653L41.6978 55.4868L41.7043 55.5323ZM24.353 55.6104V55.5714L24.3985 55.6039L24.353 55.6104ZM27.5083 55.6494V55.6885L27.4628 55.6559L27.5083 55.6494ZM28.1069 55.9682H28.1459L28.1134 56.0138L28.1069 55.9682ZM28.6209 55.9682V56.0073L28.5753 55.9747L28.6209 55.9682ZM25.472 56.4106V56.3716L25.5175 56.4041L25.472 56.4106ZM22.5183 57.406H22.5573L22.5248 57.4516L22.5183 57.406ZM22.5768 59H22.3947C21.9783 58.987 22.18 58.8764 22.1409 58.3364L22.0759 57.7053C22.0759 57.6403 22.1605 57.6142 22.193 57.6012L22.5183 57.4126L22.798 57.2499L22.9997 57.0873H23.0388C23.2144 57.0157 23.0713 57.2369 23.3315 56.8205C23.3641 56.775 23.3445 56.788 23.3771 56.7424C23.4291 56.6514 23.4356 56.6449 23.4812 56.5668L23.9626 56.6058H24.0016C24.0992 56.6449 24.0212 56.6449 24.1187 56.6058H24.1578C24.2554 56.6449 24.1773 56.6449 24.2749 56.6058C24.3334 56.6449 24.1903 56.6514 24.5156 56.6448C24.7368 56.6448 25.1011 56.6709 25.2378 56.6058H25.2768C25.3289 56.5733 25.3093 56.5798 25.3484 56.5603L25.524 56.4822L25.4785 56.4041C25.4329 56.3846 25.4134 56.3781 25.3679 56.3586C25.2833 56.3196 25.3679 56.3586 25.2898 56.3196C25.2313 56.287 25.1792 56.274 25.1207 56.248C25.0816 56.222 25.1207 56.2415 25.0426 56.2024C25.0296 56.1959 24.9775 56.1764 24.958 56.1699H24.919C24.8734 56.1504 24.7563 56.0984 24.7108 56.0788C24.4115 55.9682 24.5546 55.9032 24.366 55.6104C24.2554 55.4478 24.3855 55.5714 24.1578 55.3437C23.9106 55.0964 24.0212 55.2331 23.8845 55.142L23.3706 54.8167L22.5508 54.3157C22.5378 54.3092 22.5053 54.2897 22.4988 54.2897L22.4467 54.2572L22.0889 54.0165C22.0824 54.0099 22.0694 54.0034 22.0629 54.0034L21.9588 53.9449C21.9197 53.9254 21.8547 53.8993 21.8222 53.8798L21.4123 53.5675C21.2171 53.3984 21.3993 53.6716 21.2431 53.4634L20.508 52.7283C20.3128 52.2794 20.4364 52.3444 20.3648 51.9931C20.3388 51.8695 20.3778 51.7654 20.3258 51.4336C20.2998 51.2709 20.3388 50.9522 20.2933 50.8611C20.1111 50.5163 20.3778 50.8806 20.1306 50.5098L20.0525 50.5488C20.1046 50.6724 20.059 50.8676 20.0265 50.9782C19.9224 51.3165 20.0655 51.4726 19.9484 51.8565C19.9484 51.863 19.9419 51.8695 19.9419 51.876C19.9159 51.9541 19.9354 51.863 19.9224 51.9346C19.9224 51.9411 19.9224 52.0191 19.9224 52.0321C19.9224 52.1297 19.9419 52.1623 19.8964 52.2924L19.8183 52.5786L19.6752 52.8324C19.6036 52.9755 19.441 53.0601 19.2978 53.0991C19.2328 52.982 19.3369 52.7413 19.2328 52.3705L19.1742 51.863V51.824C19.1612 51.6548 19.1547 51.6873 19.1547 51.5767C19.1547 51.4987 19.1677 51.4596 19.1482 51.3685C19.0766 51.0302 19.1482 50.6594 19.1157 50.3211C19.0897 50.0608 19.1352 50.1519 19.0571 50.0348C19.0962 49.9372 19.0441 49.8331 19.0376 49.7225C19.0246 49.5209 19.0636 49.69 18.9791 49.5274L18.9595 49.4688C18.8815 49.2866 18.862 49.2931 18.6603 49.1565H18.6212C18.5236 49.1175 18.6017 49.1175 18.5041 49.1565H18.4651C18.374 49.1956 18.2439 49.1695 18.1073 49.2346C18.0357 49.4037 18.1333 49.2281 18.0682 49.3972V49.4363C17.9902 49.5469 17.9706 49.6965 18.0227 49.8071L18.2114 50.1649C18.4195 50.4122 18.7448 50.6334 18.901 50.8741C18.7058 51.0042 18.8229 50.8806 18.5822 50.9912H18.5301C18.4065 50.9391 18.4911 51.0042 18.335 50.9457L18.1268 50.8285L18.0487 50.7505L17.769 50.5098C17.7104 50.4187 17.7039 50.4382 17.6388 50.3601C17.5282 50.23 17.6649 50.3536 17.4697 50.0934L17.3851 49.9437C17.32 49.8657 17.32 49.9112 17.2745 49.8006C17.2094 49.6315 17.1899 49.6835 17.1249 49.5729L17.0143 49.3907C17.0078 49.3842 17.0013 49.3712 17.0013 49.3647L16.728 48.9613C16.5523 48.7727 16.7085 48.7857 16.4157 48.5905H16.3767L15.9083 48.3042C15.9017 48.3042 15.8692 48.2782 15.8627 48.2717C15.8172 48.2327 15.9343 48.2327 15.7456 48.2327L15.8237 48.4734L15.9863 48.7727C15.9863 48.7727 15.9928 48.7857 15.9993 48.7857L16.0189 48.8182C16.0189 48.8247 16.0254 48.8312 16.0254 48.8377L16.214 49.1956C16.3507 49.3647 16.2661 49.2476 16.3246 49.4363L16.5458 49.8527C16.5458 49.8592 16.5523 49.8657 16.5588 49.8722L16.6629 50.1519C16.7996 50.4642 16.7085 50.5228 16.5784 50.8741L16.5654 50.9326C16.5393 50.9912 16.4743 51.0432 16.4222 51.0888L16.3311 51.1603C16.2596 51.1994 16.3181 51.1734 16.2336 51.1864C16.1555 51.0172 16.0839 50.7179 15.9538 50.4772L15.9148 50.3796C15.8627 50.282 15.9083 50.4122 15.8627 50.3016L15.4593 49.638C15.4073 49.5469 15.5244 49.651 15.3943 49.5534C15.1991 49.2606 15.3618 49.4493 15.1471 49.2021L15.095 49.137C15.0885 49.1305 15.082 49.124 15.0755 49.1175L14.8738 48.8377L14.7957 48.7597L14.7502 48.6816C14.7437 48.6751 14.7437 48.6621 14.7372 48.6556C14.7047 48.61 14.6982 48.6035 14.6656 48.5645L14.3468 48.2197C14.3468 48.2132 14.3403 48.2066 14.3403 48.2001L14.2753 48.1156L14.1126 47.9529L14.0736 47.9139V47.9529V47.992C14.0801 48.0895 14.0931 48.0961 14.0866 48.1416C14.0866 48.1481 14.0736 48.2392 14.0736 48.2652V48.3042L13.9955 48.4669L13.7288 48.3042L13.7158 48.2912L13.6182 48.1741C13.5076 48.0505 13.6832 48.2457 13.5791 48.1351C13.5726 48.1286 13.5661 48.1221 13.5596 48.1156L13.1562 47.6406L12.9936 47.478C12.909 47.3479 12.7203 47.2373 12.6618 47.1071L12.4731 46.7558C12.4471 46.7233 12.4471 46.7623 12.4211 46.6517C12.2584 46.1117 12.5707 46.8664 12.2649 46.2223C12.2649 46.2158 12.2584 46.2093 12.2584 46.2028L12.2389 46.1443C12.0632 45.819 12.304 46.1443 12.1283 45.8645C12.0307 45.7084 12.1673 45.7474 12.0372 45.5522C12.0437 45.5392 12.0502 45.5132 12.0502 45.5067L12.0047 45.2269C11.9917 45.0578 12.0047 44.5113 12.0567 44.3747C12.0698 44.3486 12.0763 44.3291 12.0893 44.2901C12.1283 44.1339 12.0112 44.2575 12.1608 44.1535L12.2454 43.9648C12.2454 43.9583 12.2519 43.9518 12.2519 43.9453L12.4081 43.6265C12.4081 43.62 12.4146 43.6135 12.4146 43.607C12.4146 43.6004 12.4211 43.5939 12.4211 43.5874L12.4796 43.5224L12.6813 43.0409C12.7594 42.9824 12.844 42.7677 12.8895 42.6701L12.9611 42.5335C12.9611 42.527 12.9676 42.5205 12.9741 42.514L13.1627 42.0846L13.2408 42.0065C13.3709 41.9089 13.2473 41.9935 13.3189 41.9024C13.3449 41.8699 13.3254 41.9024 13.3579 41.8634L13.423 41.7983C13.4946 41.7202 13.384 41.7788 13.5141 41.6812C13.5726 41.5901 13.5791 41.6096 13.6442 41.5316C13.8068 41.3429 13.6182 41.5446 13.7092 41.3949C13.7418 41.3364 13.8003 41.3104 13.8394 41.2518C13.9174 41.1152 13.7223 41.2648 13.9174 41.1217L14.0345 40.9135C14.1582 40.7118 14.0996 40.7378 14.2167 40.5427L14.3794 40.1848C14.3794 40.1718 14.3924 40.1718 14.3924 40.1588C14.4184 40.1068 14.4509 40.0482 14.4704 39.9962L15.069 39.2024L15.2446 39.0073L15.2577 38.9942C15.3292 38.9162 15.2186 38.9747 15.3487 38.8771L15.6285 38.5583L15.8692 38.2396L15.9993 38.0899C16.0254 38.0509 15.9863 38.0314 16.149 37.9208C16.2075 37.8362 16.227 37.8297 16.2986 37.7516L16.4092 37.589C16.4808 37.4393 16.5523 37.4588 16.6695 37.2832L16.8711 37.0425L16.9492 36.9644L17.0273 36.8863L17.1053 36.8083L17.1834 36.7302L17.2355 36.6976C17.3461 36.6131 17.1834 36.6846 17.3461 36.5675L17.5868 36.3268L17.6649 36.2487L18.4261 35.6892C18.5367 35.6307 18.6017 35.5981 18.7058 35.5266H18.7448L19.0376 35.3834C19.0441 35.3704 19.0571 35.3704 19.0636 35.3704C19.1092 35.3639 19.2978 35.3379 19.3369 35.3249C19.4345 35.2924 19.415 35.2728 19.506 35.2143H19.5451H19.5841H19.6231H19.6622H19.7012H19.7403H19.7793H19.8183H19.8574C19.9484 35.1753 20.0786 35.2013 20.2152 35.1362H20.2542C20.3258 35.1037 20.3843 35.0907 20.4559 35.0582C20.4624 35.0516 20.4754 35.0451 20.4819 35.0451C20.7031 34.915 20.6186 35.0061 20.7747 34.902H20.8137C20.8593 34.8825 20.8788 34.876 20.9243 34.8565C21.0089 34.8174 20.9243 34.8565 21.0024 34.8174C21.061 34.7849 21.113 34.7719 21.1716 34.7459H21.2106L21.3797 34.6678C21.3863 34.6678 21.3928 34.6613 21.3993 34.6613C21.4058 34.6613 21.4123 34.6548 21.4188 34.6548L21.5684 34.5832H21.6075C21.7116 34.5182 21.7831 34.4921 21.8872 34.4206L21.9653 34.3425L22.0824 34.2644C22.193 34.1864 22.1214 34.2449 22.1409 34.1929C22.1474 34.1864 22.1474 34.1603 22.154 34.1538C22.154 34.1473 22.1605 34.1408 22.1605 34.1343L22.206 33.9912C22.245 33.8741 22.206 33.9131 22.3296 33.7895C22.5183 33.6073 22.4142 33.6724 22.4988 33.5553C22.6809 33.295 22.6939 33.4382 22.8761 33.0934C22.9151 33.0218 22.8696 33.1064 22.9217 33.0283L23.1949 32.4818L23.2079 32.4688L23.273 32.4037C23.2795 32.4037 23.286 32.3972 23.2925 32.3907C23.5397 32.2151 23.6894 32.15 23.9561 32.0264C23.9886 32.0069 23.9756 32.0069 24.0342 31.9808L24.2684 31.9028C24.6652 31.7466 24.6067 31.8117 24.9515 31.5254C24.997 31.4864 25.0881 31.4539 25.1467 31.4213L25.511 31.2262L25.7127 31.0635L25.7908 30.9854C25.8103 30.9399 25.8558 30.8423 25.8753 30.7968L25.9014 30.7187C25.9274 30.6666 25.9079 30.6992 25.9534 30.6666L26.0705 30.5886C26.1291 30.5495 26.1876 30.504 26.2527 30.4454C26.2592 30.4389 26.3308 30.3674 26.3308 30.3674C26.3698 30.3218 26.3698 30.3088 26.3893 30.2698C26.617 30.1071 26.2787 30.2763 26.5064 30.1071L26.8252 29.4696C26.8447 29.424 26.8773 29.359 26.8968 29.3004C27.0204 29.0206 26.9553 28.9881 27.0659 28.91L27.2351 28.5392C27.2351 28.5327 27.2416 28.5262 27.2416 28.5197C27.2416 28.5132 27.2416 28.5067 27.2481 28.5002C27.2936 28.3961 27.3067 28.4351 27.3912 28.37C27.6124 28.2009 27.5734 28.2269 27.5734 27.8105L27.5669 27.225C27.5669 27.173 27.5279 27.0038 27.5148 26.9648C27.4823 26.8607 27.4888 26.9648 27.4823 26.8477C27.4758 26.7826 27.5018 26.8086 27.4693 26.7501C27.4628 26.7371 27.2676 26.5419 27.2546 26.5289C27.1505 26.4508 27.1635 26.5354 27.0269 26.4833H26.9879C26.8903 26.5224 26.9683 26.5224 26.8708 26.4833H26.8317C26.6821 26.5549 26.6431 26.5224 26.552 26.5614H26.5129H26.4674H26.4284C26.3438 26.5939 26.2332 26.5939 26.1486 26.5614H26.1096H26.0705H26.0315C25.8884 26.5028 25.7062 26.5094 25.511 26.3402C25.2898 26.158 25.3809 26.2296 25.2833 26.0344L25.1142 25.7612C25.0491 25.6115 25.1142 25.7547 25.0881 25.6245C25.0621 25.5074 25.0621 25.553 25.0296 25.4489C24.9905 25.3188 25.0426 25.3253 24.997 25.2082L25.0751 25.1626C25.1272 25.0911 25.1467 25.078 25.1922 25C25.2508 24.9024 25.2183 24.9219 25.3028 24.8308C25.4199 24.7072 25.3939 24.6812 25.511 24.6031C25.5891 24.5511 25.5891 24.5381 25.6607 24.473C26.012 24.1542 25.5956 24.3168 25.986 24.0436C26.1551 23.933 26.09 23.933 26.1291 23.8744C26.1746 23.8094 26.1941 23.8679 26.2852 23.7443L26.6821 23.341C26.7797 23.2759 26.7471 23.2629 26.7667 23.2304L27.1375 22.9181C27.1961 22.879 27.0464 22.879 27.2546 22.879C27.1961 22.7554 27.2156 22.7359 27.2156 22.5602C27.3977 22.5472 27.3262 22.5277 27.4563 22.4431C27.4628 22.4366 27.4758 22.4301 27.4823 22.4301L27.5539 22.3716C27.6905 22.2349 27.7751 22.248 27.9117 22.2089L28.1004 22.1243H28.1394C28.25 22.0723 28.3216 22.0723 28.3671 22.0593C28.4517 22.0333 28.3801 22.0528 28.4647 22.0137C28.5168 21.9877 28.5298 21.9877 28.5818 21.9682H28.6209L28.9071 21.8771C28.9136 21.8771 28.9201 21.8706 28.9266 21.8706C28.9331 21.8706 28.9462 21.8706 28.9462 21.8641L29.0958 21.8056C29.1999 21.76 29.1218 21.7991 29.2064 21.7795L29.6098 21.6429L29.7204 21.3111C29.7464 21.0574 29.8505 21.1875 30.0392 21.0834L30.1302 20.9923C30.1693 20.9077 30.2148 20.8817 30.1498 20.8101C30.0587 20.7191 29.4927 20.7841 29.4211 20.8167H29.382H29.343H29.304H29.2649H29.2259H29.1869H29.1478C28.9657 20.8947 29.1348 20.7386 28.9462 20.8167H28.9071C28.6794 20.7256 28.3021 20.8882 28.4257 20.5759V20.5369C28.4322 20.4198 28.4452 20.4328 28.4452 20.3677C28.4452 20.3157 28.4257 20.3027 28.4582 20.2506C28.5298 20.1205 28.6274 20.1205 28.7445 20.062H28.7835C28.8551 20.0294 28.9136 20.0164 28.9852 19.9839H29.0242C29.1283 19.9384 29.0502 19.9774 29.1348 19.9579L29.3495 19.9058C29.5187 19.8408 29.7789 19.8278 29.896 19.7432H29.9351H29.9741C30.1237 19.6716 30.1237 19.6976 30.1823 19.6846L30.3319 19.587L30.41 19.509C30.6312 19.1772 30.397 19.3138 30.5726 19.0015L30.6247 18.8844C30.6247 18.8779 30.6377 18.8714 30.6377 18.8649L30.7418 18.6632C30.8199 18.5136 30.7483 18.6046 30.9305 18.4745L31.0476 18.3964H31.0866L31.6071 18.1557H31.6461C31.7632 18.0972 31.7958 18.0972 31.8738 18.0972C32.0365 18.0907 31.8998 18.0842 32.082 18.0386C32.4008 17.9605 32.9278 18.0126 33.2075 18.0907L33.2986 18.1102C33.4027 18.1427 33.3637 18.1362 33.4027 18.1622C33.5068 18.2078 33.5719 18.2013 33.7801 18.3444L33.9362 18.4745C33.9427 18.481 33.9492 18.5005 33.9557 18.507L33.9817 18.5461C34.3981 19.0991 33.9883 19.0601 34.3201 19.2813L34.6388 19.4439L34.7169 19.522H34.756L34.9446 19.6261C35.0227 19.6651 35.0357 19.7041 35.1138 19.7562L35.2179 19.8147C35.322 19.8798 35.4911 20.1335 35.5172 20.1856C35.5172 20.1921 35.5237 20.1986 35.5302 20.2051C35.5302 20.2116 35.5367 20.2181 35.5367 20.2246L35.5562 20.2832C35.5562 20.2897 35.5692 20.2962 35.5692 20.3027L35.6147 20.3808C35.6212 20.4068 35.6082 20.4783 35.6147 20.5174C35.6212 20.6475 35.6408 20.5499 35.6603 20.6735C35.6798 20.7776 35.6408 20.7061 35.6733 20.8687C35.5302 20.9077 35.5887 20.9077 35.4716 20.9858H35.4456L35.1723 21.0899C35.1463 21.0964 35.0617 21.1159 35.0422 21.1159C34.9511 21.1354 35.0357 21.0964 34.9316 21.142H34.8926H34.8535H34.8145H34.7755H34.7299C34.6323 21.181 34.7104 21.181 34.6128 21.142H34.5738C34.4762 21.181 34.5543 21.181 34.4567 21.142H34.4046C34.307 21.181 34.3851 21.181 34.2875 21.142H34.2485C34.0663 21.2786 34.1639 21.3436 34.0598 21.4738L33.9167 21.6559C33.8451 21.734 33.9037 21.6624 33.8646 21.734C33.8061 21.8316 33.7605 21.8511 33.6955 21.9422L33.5328 22.1048C33.3377 22.248 33.5979 22.0918 33.4092 22.2935C33.3246 22.3846 33.2856 22.3976 33.214 22.5017C33.2921 22.5537 33.3312 22.5733 33.4222 22.6123C33.4938 22.6513 33.5459 22.6643 33.6174 22.6969L34.0924 22.8986C34.1769 22.9376 34.1769 22.9571 34.2615 23.0157L34.6584 23.2564C34.6649 23.2629 34.6779 23.2694 34.6844 23.2694C34.6909 23.2694 34.7039 23.2824 34.7104 23.2824C34.7169 23.2889 34.7299 23.2954 34.7364 23.2954L35.0552 23.4971C35.1138 23.5361 35.0747 23.5101 35.1333 23.5426L35.1853 23.5752C35.2439 23.6142 35.2569 23.6402 35.322 23.6793C35.361 23.6988 35.4196 23.7183 35.4651 23.7378L35.5432 23.8159H35.5822L35.6603 23.894C35.7123 23.9265 35.7058 23.933 35.7514 23.9655C35.7904 23.9916 35.8359 24.0176 35.8424 24.0241C35.849 24.0241 35.8555 24.0306 35.8555 24.0371C35.8555 24.0371 35.862 24.0501 35.8685 24.0501L35.953 24.1152C36.0897 24.2062 36.1287 24.2908 36.2523 24.3754C36.2588 24.3819 36.2718 24.3884 36.2783 24.3884C36.2848 24.3884 36.2979 24.4014 36.3044 24.4014L36.3824 24.447C36.4345 24.486 36.428 24.4925 36.454 24.5315C36.5971 24.6291 36.5256 24.5966 36.6557 24.7527L36.6752 24.7853C36.6882 24.8048 36.6622 24.7983 36.7338 24.8568L36.8118 24.9349L36.8899 25.013C36.8964 25.0195 36.9094 25.026 36.9159 25.026L37.0721 25.1821C37.0851 25.2017 37.0591 25.1952 37.1306 25.2537C37.2022 25.3578 37.2868 25.4229 37.3778 25.5204C37.5015 25.6441 37.4884 25.6636 37.5665 25.8132C37.6186 25.8523 37.6641 25.8718 37.6966 25.9433L37.8983 26.2751C37.9048 26.2816 37.9113 26.2881 37.9178 26.2947L38.5749 26.9127C38.7831 27.0624 38.8222 27.1469 38.9458 27.3356C39.0629 27.5178 38.9848 27.6284 39.1149 27.726L39.2776 28.0448C39.3101 28.0968 39.3426 28.1163 39.3622 28.1554C39.4272 28.2725 39.4142 28.37 39.5183 28.4416L39.5964 28.5197L39.759 28.6823L39.8371 28.7604L39.9542 28.8385C40.0258 28.871 40.0843 28.884 40.1559 28.9165C40.2405 28.9751 40.2925 28.9491 40.3966 28.9946H40.4356C40.5072 29.0271 40.5658 29.0402 40.6373 29.0727H40.6764L41.3725 29.2939C41.379 29.2874 41.392 29.3069 41.3985 29.3069H41.4376H41.4766L41.7759 29.4435C41.8734 29.5021 41.8995 29.5606 41.9906 29.6257L42.1077 29.7038C42.1142 29.7103 42.1272 29.7168 42.1272 29.7233L42.1857 29.7818C42.2638 29.8339 42.2638 29.8404 42.3354 29.912C42.4785 30.0551 42.472 30.003 42.472 30.003C42.511 30.0161 42.485 29.9965 42.5501 30.0486L42.7843 30.1787C42.8689 30.3739 42.7127 30.1657 42.8363 30.3283L43.2657 30.7382L43.3828 30.8163C43.4609 30.8683 43.4414 30.8618 43.5129 30.9269C43.6105 31.018 43.5585 30.9724 43.6561 31.0245C43.7797 31.0895 43.7862 31.1416 43.9033 31.2196L44.066 31.3823L44.2286 31.5449L44.3457 31.623L44.4238 31.7011L44.5864 31.8637C44.6645 31.9158 44.6645 31.9223 44.7361 31.9939L44.8922 32.1175C44.8987 32.124 44.9117 32.1305 44.9117 32.1305C44.9182 32.137 44.9247 32.1435 44.9312 32.1435C44.9377 32.1435 44.9443 32.1565 44.9443 32.1565L45.3281 32.5078C45.4192 32.5989 45.4777 32.6705 45.5753 32.7355L45.6534 32.8136C45.8811 32.9697 46.1869 33.3081 46.343 33.4056C46.6098 33.5683 46.5642 33.6334 46.7724 33.7765L46.9351 33.9391C47.0131 34.0562 46.9546 33.9847 47.0587 34.0562L47.2929 34.2579L47.4555 34.4206L47.6182 34.5832L47.8329 34.8174C48.0281 35.0126 47.8199 34.8695 47.976 34.9866L48.0541 35.0647L48.4314 35.5266C48.5876 35.7153 49.0625 36.1186 49.2121 36.3398C49.2902 36.3919 49.2902 36.3789 49.3423 36.4699L49.8888 37.0555C50.0059 37.1401 49.9864 37.1335 50.0709 37.3027L50.123 37.3808C50.1295 37.3873 50.136 37.4003 50.136 37.4068L50.162 37.4588C50.2141 37.4979 50.2596 37.5174 50.2921 37.589C50.3312 37.667 50.2531 37.5955 50.3442 37.7061C50.4223 37.8037 50.5003 37.8752 50.5979 37.9338L50.7606 38.0964L50.8386 38.1745H50.8777L50.9557 38.2526L51.3136 38.4933L51.4307 38.5714L51.808 38.8316C51.8145 38.8381 51.8471 38.8511 51.8536 38.8576L52.1203 39.0333C52.1268 39.0268 52.1398 39.0463 52.1463 39.0463L52.8229 39.5277L52.901 39.6058L53.0181 39.6839L53.7403 40.1588C53.8184 40.2109 53.8444 40.2629 53.9355 40.328L54.2217 40.5166C54.2282 40.5231 54.2412 40.5231 54.2477 40.5296L54.4104 40.6468L54.4885 40.7248H54.5275C54.7097 40.8484 54.534 40.7899 54.7942 40.9135C54.8658 40.946 54.8723 40.9851 54.9309 41.0371L55.0805 41.1282L55.5619 41.447C55.6205 41.486 55.6205 41.499 55.6725 41.5316C55.7246 41.5706 55.7506 41.5706 55.7962 41.6031C55.8872 41.6617 55.9068 41.7007 55.9978 41.7593L56.2321 41.9284C56.3427 42 56.3101 41.9284 56.4663 42.0911L56.9932 42.7221C57.0973 42.8002 57.0453 42.7872 57.0648 42.8067C57.0648 42.8067 57.0713 42.8197 57.0778 42.8197C57.2014 42.9694 57.1364 42.9433 57.2795 43.0409C57.3576 43.158 57.4617 43.2817 57.5983 43.3207L57.7024 42.5855C57.7414 42.4359 57.7544 42.514 57.774 42.4099C57.8195 42.0911 57.7609 41.974 57.7089 41.7853C57.7089 41.7788 57.7024 41.7267 57.6959 41.7137C57.6959 41.7072 57.6894 41.7007 57.6894 41.6942C57.6894 41.6877 57.6829 41.6812 57.6764 41.6747C57.5202 41.3819 57.6829 41.6812 57.6113 41.4795L57.3641 40.9786C57.3641 40.972 57.3576 40.9655 57.3576 40.959C57.3576 40.9525 57.3511 40.9395 57.3446 40.933C57.2665 40.7508 57.2535 40.8094 57.2079 40.6793C57.2079 40.6728 57.2014 40.6663 57.2014 40.6598L57.1039 40.419C57.1039 40.4125 57.0908 40.406 57.0908 40.393C57.0908 40.38 57.0778 40.3735 57.0778 40.367C57.0128 40.2109 57.0908 40.354 57.0518 40.2564C57.0128 40.1588 56.9998 40.1718 56.9932 40.1523C56.9737 40.0937 56.9998 39.9246 56.9347 39.6774C56.9347 39.6709 56.9282 39.6644 56.9282 39.6579L56.9087 39.6188C56.9087 39.6123 56.9022 39.6058 56.9022 39.5993C56.8696 39.4757 56.9347 38.8316 56.8761 38.695V38.6559C56.9217 38.5518 56.8957 38.4412 56.8957 38.3436C56.8957 38.2396 56.9152 38.155 56.8761 38.0574V38.0184C56.8176 37.9338 56.8241 37.9728 56.8176 37.8882C56.7981 37.7061 56.8111 37.8232 56.7135 37.589C56.6875 37.5304 56.668 37.4653 56.6484 37.4133C56.5248 37.1075 56.6419 37.1856 56.5248 37.101C56.5118 36.9514 56.4988 36.9774 56.5053 36.8408L56.759 36.2617C56.9542 36.1186 56.7525 36.2683 56.8371 36.1316C56.8696 36.0731 56.9152 36.0536 56.9607 36.021L57.0388 35.943L57.1559 35.8649C57.299 35.7673 57.4812 35.6437 57.6699 35.5981C57.774 35.5721 57.7609 35.5786 57.839 35.5396H57.8781H57.9171H57.9561C58.0277 35.5071 58.3855 35.4615 58.5547 35.5396H58.5937C58.5937 35.5396 59.0426 35.6502 59.1988 35.7348L59.3419 35.8259C59.3484 35.8324 59.3614 35.8454 59.3679 35.8389C59.3744 35.8324 59.3874 35.8454 59.3939 35.8519C59.459 35.8844 59.498 35.8844 59.5631 35.9234C59.6086 35.9495 59.6216 35.9755 59.6737 36.008C59.8494 36.1251 59.999 36.1446 60.1877 36.1511H60.4869C60.9554 36.2487 61.3067 36.1381 61.5929 36.3268H61.632C61.7035 36.3593 61.7621 36.3724 61.8337 36.4049C61.8727 36.3528 61.9052 36.3268 61.9247 36.2748C61.9508 36.2162 61.9117 36.2617 61.9508 36.1642C62.1785 36.0015 61.8402 36.1707 62.0679 36.0015H62.1069C62.211 35.9365 62.2826 35.9104 62.3867 35.8389L62.0549 35.5656C62.0484 35.5656 62.0353 35.5591 62.0288 35.5526L61.8727 35.5006C61.7816 35.494 61.8076 35.5266 61.7035 35.481H61.6645C61.5669 35.5201 61.645 35.5201 61.5474 35.481H61.5344C61.4303 35.5266 61.2351 35.494 61.0985 35.5591H61.0595C60.9098 35.494 61.053 35.5331 60.9293 35.5721C60.7016 35.6372 60.2527 35.6827 60.0185 35.6827C60.0641 35.6177 60.0706 35.6177 60.1031 35.5266C60.1226 35.468 60.1031 35.4875 60.1161 35.455L60.3243 35.1948C60.4024 35.1167 60.3763 35.1362 60.4609 35.0907L60.7537 34.9996C60.8643 34.9736 60.7862 35.0126 60.8903 34.9671H60.9293C61.0269 34.928 60.9489 34.928 61.0464 34.9671H61.0855C61.1961 34.9215 61.4954 34.9345 61.606 34.889C61.6775 34.7198 61.5799 34.8955 61.645 34.7329L61.5669 34.6873L61.5279 34.6483L61.5669 34.5702H61.606H61.645C61.7556 34.5182 61.8272 34.5182 61.8727 34.5051C61.9573 34.4791 61.8857 34.4986 61.9703 34.4596C62.0223 34.4336 62.0354 34.4336 62.0874 34.4141H62.1264H62.1655H62.2045C62.3216 34.3555 62.3671 34.388 62.4843 34.336H62.5233C62.6144 34.297 62.7445 34.323 62.8811 34.2579H62.9202C62.9722 34.2384 62.9657 34.2449 63.0112 34.2384C63.0503 34.2319 63.0373 34.2319 63.1153 34.2189C63.2259 34.1929 63.1934 34.2189 63.2845 34.1798H63.3235C63.3756 34.1603 63.3691 34.1668 63.4146 34.1603C63.4536 34.1538 63.4406 34.1538 63.5187 34.1408C63.6293 34.1148 63.5968 34.1408 63.6814 34.1018L64.358 33.783C64.4165 33.744 64.436 33.7179 64.4881 33.6919C64.6052 33.6399 64.4751 33.7374 64.5857 33.6529C64.6703 33.5943 64.6898 33.5293 64.7939 33.4642L64.911 33.3861L64.989 33.3081C65.0801 33.2495 65.0801 33.217 65.1582 33.1584L65.6852 32.8461C65.6917 32.8331 65.7047 32.8331 65.7112 32.8331C65.8543 32.7355 65.7958 32.742 65.991 32.677C66.2772 32.5859 66.8628 32.6379 67.1035 32.755H67.1425C67.2791 32.8136 67.175 32.7225 67.3442 32.8331H67.3832L67.9037 33.0738L68.3396 33.3146C68.4047 33.3471 68.4437 33.3471 68.5088 33.3861C68.5543 33.4122 68.5673 33.4382 68.6194 33.4707L68.6714 33.5032C68.7885 33.5748 68.9577 33.7179 69.0683 33.7374L69.8945 33.6334H69.9336L70.1222 33.5748C70.1287 33.5748 70.1548 33.5618 70.1613 33.5618C70.1743 33.5553 70.2068 33.5488 70.2198 33.5423L70.3239 33.5032C70.3304 33.5032 70.3629 33.4772 70.3695 33.4707H70.4085C70.6427 33.3601 70.5256 33.4772 70.7598 33.3406L70.8119 33.3081L71.0526 33.1454L71.8073 32.8266C71.8138 32.8201 71.8268 32.8136 71.8333 32.8136L71.8918 32.7941C72.1586 32.703 71.9699 32.729 72.1651 32.7095C72.1586 32.6314 72.1521 32.5859 72.1456 32.5599L72.0155 32.2216C71.9829 32.1695 72.0024 32.1955 71.9829 32.163L71.9114 32.0264C71.7227 31.6165 71.8983 31.8767 71.7812 31.6165C71.7357 31.5059 71.7617 31.6035 71.7357 31.5059L71.56 30.8748V30.8358C71.4885 30.7252 71.5015 30.7838 71.5015 30.6862C71.4885 30.4194 71.4429 30.6471 71.4169 30.465C71.3649 30.1071 71.2803 30.1592 71.4364 29.7493C71.534 29.4826 71.4299 29.5541 71.4169 29.3459C71.3909 28.858 71.3388 28.5652 71.4169 27.9732C71.4299 27.8756 71.4169 27.9732 71.4364 27.9146C71.5015 27.726 71.4364 27.7715 71.469 27.6544C71.508 27.5048 71.495 27.7455 71.5015 27.3942L71.469 27.199C71.3649 26.8607 71.469 27.0298 71.5015 26.7761C71.521 26.6004 71.4429 26.7371 71.5405 26.5093C71.6381 26.2881 71.495 26.4053 71.6902 26.2166C71.7877 26.119 71.8528 26.0409 71.9634 25.9694H72.0024C72.1261 25.8848 72.113 25.9043 72.2497 25.8523L72.3733 25.7937C72.3798 25.7937 72.3863 25.7872 72.3928 25.7872L72.7571 25.6441H72.7962C72.8547 25.618 73.2711 25.5985 73.2581 25.2537C73.2516 25.052 73.2776 24.7397 73.3882 24.5706L73.2711 24.486L72.6595 24.1737C72.653 24.1672 72.64 24.1607 72.6335 24.1607C72.627 24.1607 72.614 24.1477 72.6075 24.1477C72.601 24.1412 72.5685 24.1217 72.5555 24.1217C72.5034 24.0956 72.2627 24.0111 72.1781 23.907L72.1456 23.8354C72.113 23.7834 72.1391 23.8159 72.0935 23.7834C72.061 23.7378 72.0415 23.7248 72.022 23.6923L71.9114 23.4516C71.9114 23.4385 71.8983 23.432 71.8983 23.4255C71.9244 23.3865 71.9504 23.3605 71.9699 23.3345C72.0024 23.2824 71.9829 23.3084 71.9959 23.2759C72.074 23.0807 72.1976 23.0417 72.3408 22.9441L72.8612 22.7034H72.9003C73.0889 22.6904 73.3492 22.6383 73.4988 22.7034H73.5378C73.6094 22.7359 73.668 22.7489 73.7395 22.7814H73.7786C73.8631 22.814 73.9737 22.814 74.0583 22.7814C74.3771 22.5602 74.2535 22.5993 74.5398 22.4627H74.5788C74.6699 22.4236 74.9301 22.4236 75.0147 22.4627L75.0928 22.5407H75.1318C75.2034 22.5733 75.2619 22.5863 75.3335 22.6188H75.3725C75.4701 22.6578 75.392 22.6578 75.4896 22.6188C75.7043 22.7554 76.1858 22.6123 76.3679 22.6969L76.2899 22.814C76.6672 22.8465 76.6152 23.1588 76.6347 23.2043C76.6802 23.3149 76.6867 23.1848 76.7127 23.341C76.7258 23.4385 76.6867 23.4841 76.7453 23.7118C76.7843 23.8549 76.8168 23.9785 76.7713 24.0891C76.973 24.0891 76.8364 24.0891 76.8884 24.1282C77.1031 24.2128 77.5455 24.1022 77.7927 24.1737L78.04 24.2843C77.8903 24.512 78.0725 24.4014 77.9229 24.5446L77.8253 24.6552C77.7082 24.8503 77.6821 24.7918 77.565 24.9674C77.4674 25.013 77.2853 24.9935 77.2137 24.9935C76.1142 24.9544 76.4655 25.065 76.3874 25.4294C76.3419 25.6245 76.394 25.4424 76.3354 25.527H76.2964L75.8149 25.6441C75.919 25.7937 75.893 25.6961 76.0166 25.8262L76.0687 25.8783C76.1077 25.9173 75.9646 25.9043 76.1793 25.9238C76.1402 26.0019 76.1337 26.106 76.1728 26.171C76.2183 26.2491 76.3029 26.3077 76.3744 26.3597L76.4395 26.4053C76.446 26.4053 76.4525 26.4183 76.4525 26.4183L76.5241 26.4833C76.5956 26.5289 76.5111 26.4638 76.5956 26.5289C76.9079 26.7696 76.8949 26.9322 77.0771 27.0038L77.2462 27.0819H77.2853L77.6106 26.9322C77.6431 26.9192 77.6886 26.8932 77.7212 26.8802C77.8578 26.8086 77.9098 26.698 78.0465 26.6069L78.3652 26.2881L78.4824 26.2101C78.593 26.1385 78.5539 26.119 78.7036 26.08C78.8207 26.0474 78.7101 26.08 78.7946 26.0669C78.8207 26.0669 78.8792 26.0539 78.9248 26.0539H78.9638C79.0614 26.0149 78.9833 26.0149 79.0809 26.0539H79.1199C79.2175 26.0149 79.1395 26.0149 79.2371 26.0539H79.2761C79.3737 26.0149 79.2956 26.0149 79.3932 26.0539H79.4322C79.6144 26.132 79.6795 25.9629 79.8616 26.2231C79.9527 26.3467 79.8096 26.2361 79.9787 26.4248C80.1609 26.6265 79.9202 26.4768 80.1088 26.6134C80.1869 26.724 80.239 26.7436 80.3235 26.8412L80.6684 27.3096C80.6684 27.3096 80.6749 27.3226 80.6814 27.3226C80.6944 27.3421 80.6423 27.3291 80.7529 27.4072L80.9286 27.8756C80.9351 27.8951 80.9351 27.9081 80.9481 27.9342L81.0977 28.2074C81.2149 28.4286 81.1433 28.1684 81.2539 28.5327L81.3515 28.6823L81.5532 28.5197L81.6703 28.4416L81.7483 28.3635C81.8459 28.2985 81.872 28.2399 81.963 28.1814C82.0411 28.1358 82.0021 28.1749 82.0932 28.1098C82.1322 28.0838 82.1322 28.0708 82.1842 28.0382H82.2233C82.451 27.9472 82.4705 28.0968 82.451 28.2594C82.4445 28.3245 82.4445 28.305 82.438 28.37C82.425 29.0792 82.3859 28.8385 82.3599 29.0467C82.3469 29.1377 82.3664 29.5346 82.2623 29.7558C82.4835 29.7753 82.2558 29.7298 82.6006 29.9315C82.8413 30.0681 82.9259 30.2893 82.9389 30.3153C82.9389 30.3218 82.9519 30.3283 82.9519 30.3348L83.0951 30.5365C83.0951 30.5365 83.1081 30.543 83.1081 30.5495C83.1081 30.5495 83.1211 30.556 83.1211 30.5625L83.2187 30.7838C83.2252 30.7968 83.2317 30.8358 83.2382 30.8423C83.2512 30.8944 83.2512 30.9204 83.2903 30.9984C83.3748 31.1936 83.2707 31.5384 83.3358 31.7596C83.4399 32.111 83.4008 32.1695 83.4008 32.4558C83.4008 32.5078 83.3943 32.5534 83.4008 32.5924C83.4074 32.6249 83.4269 32.6835 83.4399 32.7485L83.5635 33.9521L83.7066 34.1798H83.7457C83.9083 34.2905 83.8042 34.1994 83.9473 34.2579H83.9864L84.0645 34.297C83.9929 34.4661 84.097 34.7654 84.0254 34.9345V34.9736L84.0449 35.3249C84.0384 35.3769 84.0384 35.3574 84.0124 35.4225L83.9864 35.5006C83.9864 35.5071 83.9799 35.5136 83.9799 35.5201L83.8888 35.7218C83.8693 35.7543 83.9408 35.7218 83.8237 35.8063H83.7847L83.6546 35.8714C83.6481 35.8714 83.6416 35.8779 83.6351 35.8779L83.4204 35.9625H83.3813C83.1016 36.0991 82.965 35.969 82.7828 36.0405H82.7438H82.7047H82.6657C82.5941 36.008 82.5356 35.995 82.464 35.9625H82.425C82.3404 35.9234 82.3859 35.9299 82.2623 35.9234C82.2428 35.6957 82.2558 35.7478 82.1777 35.6437L82.1452 35.6047C82.0867 35.5201 82.1908 35.5721 82.0606 35.481L81.7418 35.2403H81.7028L81.6247 35.1622C81.5076 35.0777 81.5597 35.0777 81.5597 35.0777L81.4946 35.0191C81.4946 35.0061 81.4751 35.0126 81.4686 35.0061L81.3905 35.0451C81.5011 35.3119 81.2149 35.7998 81.6963 36.2878L81.872 36.4764C81.9435 36.5805 81.9826 36.5936 82.0671 36.6846L82.2948 37.2051C82.3209 37.2702 82.477 37.5239 82.5225 37.6931L82.6071 37.9012C82.6331 38.0053 82.5486 37.9858 82.6657 38.0704C82.6917 38.1094 82.7177 38.1355 82.7372 38.1615C82.7698 38.2135 82.7503 38.1875 82.7633 38.22L82.8543 38.3567C83.1731 38.6689 82.8869 38.4412 83.056 38.6364C83.0821 38.6689 83.1146 38.682 83.1406 38.7145L83.1992 38.8576C83.2057 38.8641 83.2512 38.9097 83.2577 38.9162C83.4139 39.0788 83.2382 39.0333 83.4659 39.1829L83.583 39.3911C83.6871 39.5147 83.6416 39.4692 83.6546 39.6448C83.6611 39.775 83.7392 39.853 83.7066 40.1848C83.9083 40.2043 83.7587 40.1848 83.8628 40.2304L83.9669 40.2824C84.2271 40.4386 84.2076 40.5687 84.136 40.7183C84.136 40.7248 84.1295 40.7313 84.1295 40.7378C84.1295 40.7443 84.123 40.7508 84.123 40.7508C84.123 40.7508 84.1165 40.7639 84.11 40.7639C84.084 40.7964 84.11 40.7639 84.071 40.8029L83.9734 40.8875C83.9734 40.881 83.9539 40.9005 83.9473 40.9005C83.8628 40.9395 83.9083 40.933 83.7847 40.9395C83.8107 41.2713 83.8693 41.0111 83.9604 41.3884C83.9864 41.5055 83.9408 41.3884 84.0124 41.512L84.136 41.7723C84.2141 41.9675 84.2076 41.9154 84.2076 42.0716L84.2466 42.2537C84.2466 42.2602 84.2531 42.2667 84.2531 42.2732L84.2857 42.3708C84.3507 42.7287 84.2922 42.4229 84.3637 42.592C84.3832 42.6376 84.3572 42.6766 84.3767 42.7287C84.4158 42.8458 84.4808 42.8718 84.5264 43.067C84.5524 43.1776 84.4613 43.0865 84.5914 43.1776L84.8777 43.7241C84.9037 43.7566 84.9297 43.7696 84.9623 43.8021C85.1314 44.0038 84.8582 43.8151 85.0729 43.9713L85.177 44.1404C85.177 44.1469 85.1835 44.1535 85.1835 44.16L85.2746 44.3096C85.2746 44.3096 85.2876 44.3161 85.2876 44.3226L85.5413 44.7C85.5673 44.7455 85.5673 44.7585 85.5738 44.778C85.5868 44.8106 85.5738 44.7845 85.6064 44.8366L85.7235 45.0578C85.7755 45.1684 85.6909 44.9797 85.743 45.1163L85.9056 45.4351C85.9902 45.5978 85.9447 45.5978 86.0488 45.858L86.3155 46.4045C86.2765 46.4566 86.2439 46.4826 86.2244 46.5346C86.1984 46.5932 86.2374 46.5476 86.1984 46.6452C86.0032 46.7819 86.296 46.6712 86.0358 46.8469C86.0878 46.9315 86.1008 46.925 86.1333 47.0551C86.1594 47.1722 86.2895 47.3739 86.4001 47.4455L86.4782 47.491C86.836 47.7317 86.7579 47.6276 86.9141 47.7317H86.9531C87.0116 47.7577 87.0572 47.7708 87.1223 47.8033L87.2524 47.8748C87.2589 47.8683 87.2719 47.8879 87.2784 47.8879L87.3565 47.9659C87.5061 48.07 87.6492 48.3107 87.6492 48.4929C87.6492 48.6295 87.6492 48.5645 87.6362 48.7271C87.4996 48.8247 87.6167 48.7336 87.5712 48.8377C87.5386 48.8963 87.5321 48.8898 87.4866 48.9353C87.3044 49.137 87.5451 48.9874 87.3565 49.124C87.2849 49.3062 87.402 49.4037 87.4801 49.5404L87.5256 49.6315C87.5256 49.638 87.5386 49.6445 87.5386 49.651L87.7859 50.0869C87.8379 50.2105 87.7598 50.1389 87.8574 50.2495L87.8704 50.2625L87.9485 50.3601L88.6251 51.3165C88.6707 51.349 88.6902 51.349 88.7357 51.4076C88.7682 51.4531 88.7422 51.5052 88.8919 51.5637C89.009 51.6093 89.1651 51.6158 89.2952 51.7264C89.3473 51.7719 89.3343 51.7654 89.3863 51.7979L89.4839 51.9476C89.5815 52.1818 89.5685 51.9996 89.5685 52.3054L89.549 52.8714C89.3408 53.021 89.6075 52.8454 89.4449 53.0406C89.3863 53.1121 89.3408 53.1447 89.2692 53.1902H89.2302L89.1131 53.2683L89.009 53.3268C89.0025 53.3333 88.9895 53.3398 88.9829 53.3398C88.9309 53.3724 88.9244 53.3854 88.8658 53.4244H88.8268L88.1372 53.5741C88.1307 53.5741 88.1242 53.5675 88.1177 53.5675C88.0005 53.5415 88.0005 53.5936 87.7598 53.5025L87.6232 53.4569C87.6167 53.4569 87.6102 53.4504 87.6037 53.4504L87.4215 53.3594C87.415 53.3463 87.402 53.3463 87.3955 53.3463L87.3174 53.2683L87.2003 53.1902C87.1418 53.1512 87.2914 53.1512 87.0832 53.1512L87.0051 52.3119V52.2729L86.8945 52.0061C86.849 51.8825 86.849 51.6873 86.7254 51.5962C86.6733 51.4661 86.7579 51.5767 86.6733 51.4791C86.6733 51.4791 86.6603 51.4726 86.6603 51.4661L86.6343 51.4401C86.5823 51.375 86.6083 51.362 86.4847 51.2709C86.4196 51.1669 86.3741 51.1538 86.2895 51.0628C86.1398 50.9066 86.2635 51.0302 86.2049 50.8741C86.1203 50.809 86.0227 50.5228 85.9902 50.4252C85.9707 50.3666 85.9967 50.3341 85.9837 50.282L85.9447 50.217C85.9447 50.2105 85.9317 50.204 85.9317 50.1975C85.8406 50.0088 86.0227 49.8461 85.769 49.677L85.5999 49.5859C85.4307 49.5339 85.6194 49.638 85.3396 49.4753C85.3201 49.4623 85.2876 49.4558 85.2811 49.4558C85.2746 49.4558 85.2681 49.4493 85.2615 49.4493C85.255 49.4493 85.2485 49.4428 85.242 49.4428L85.0924 49.4037C85.1379 49.2996 85.1119 49.3647 85.0794 49.1956C85.0013 48.8182 85.0794 49.0004 84.9558 48.6295L84.6175 48.005C84.5004 47.9204 84.5524 47.9204 84.5524 47.9204L84.4613 47.8488C84.2792 47.7642 84.3182 47.8228 84.1751 47.6536L84.0905 47.53C84.0775 47.4975 84.136 47.5235 84.0254 47.4455L83.9864 47.3674C83.8498 47.2698 83.9864 47.3349 83.8823 47.1982L83.4399 46.3785C83.4399 46.372 83.4334 46.3655 83.4334 46.359L83.2317 46.0922H83.1927L83.0756 46.0142L82.6787 45.7734C82.6722 45.7669 82.6592 45.7604 82.6527 45.7604C82.6462 45.7604 82.6331 45.7474 82.6266 45.7474C82.6201 45.7409 82.6071 45.7344 82.6006 45.7344L82.4835 45.6498C82.4185 45.5978 82.4445 45.6173 82.3924 45.5848L82.3144 45.5392C82.1192 45.3961 82.3664 45.5262 82.1517 45.3766C81.9565 45.2334 82.2038 45.3636 81.9891 45.2139C81.8199 45.0968 81.9891 45.1749 81.8785 45.0838L81.8264 45.0513L81.7483 44.9732L81.4686 44.7325L81.3905 44.6544L81.2474 44.5568C81.2409 44.5503 81.2344 44.5438 81.2279 44.5373L81.0197 44.3421C80.9676 44.3031 80.9937 44.3291 80.9611 44.3161L80.831 44.2575L80.7074 44.186C80.6553 44.1535 80.6488 44.1404 80.5903 44.1014H80.5513L79.751 43.5874C79.7445 43.5809 79.7315 43.5744 79.725 43.5744C79.7185 43.5744 79.7055 43.5744 79.699 43.5614C79.6925 43.5484 79.6795 43.5549 79.673 43.5484C79.5819 43.4833 79.5623 43.4443 79.4778 43.3792L79.3607 43.2817C79.3607 43.2752 79.3607 43.2686 79.3542 43.2621C78.9053 43.2621 79.1915 43.3858 78.9963 43.3012H78.9573C78.9443 43.3077 78.9183 43.3142 78.9118 43.3142C78.9052 43.3142 78.8922 43.3142 78.8922 43.3142C78.8857 43.3142 78.8792 43.3077 78.8727 43.3077L78.6906 43.2556C78.4173 43.1515 78.3783 43.1841 78.2872 43.145C78.2481 43.119 78.2872 43.1385 78.2091 43.0995C78.1961 43.093 78.1441 43.0735 78.1245 43.067H78.0855H78.0465H78.0074C77.8968 43.0149 77.9554 43.0539 77.8513 43.0214L77.0901 42.8262H77.0511H77.012C76.7062 42.6181 76.9405 42.8588 76.5306 42.5855H76.4915L76.3744 42.5074C76.3679 42.5009 76.3549 42.4944 76.3484 42.4944L76.0556 42.3513H76.0166L75.7238 42.2862C75.6393 42.2928 75.6653 42.2862 75.6263 42.3773L75.3725 43.145L75.0407 43.6135C74.9626 43.7371 74.9041 43.8086 74.8911 43.9453C74.826 43.9908 74.8455 43.9843 74.826 44.0363L74.5007 44.6934C74.4617 44.778 74.4877 44.713 74.4292 44.7975L74.0518 45.5783C74.1624 45.6303 74.1039 45.5913 74.208 45.6238C74.3641 45.6628 74.221 45.6303 74.3381 45.6693C74.3836 45.6823 74.4617 45.6889 74.5658 45.7344C74.5983 45.7539 74.5853 45.7539 74.6439 45.7799L74.9041 45.845C75.0082 45.871 74.9757 45.8645 75.0472 45.897H75.0863C75.2489 45.9751 75.2814 45.9361 75.3725 45.9686C75.5742 46.0402 75.5026 46.346 75.1643 46.5737H75.1253L75.0472 46.6517C74.9887 46.6908 74.9757 46.7038 74.9041 46.7558C74.8586 46.7819 74.8781 46.7688 74.8455 46.7949L74.813 46.8339C74.8065 46.8339 74.8 46.8404 74.8 46.8469L74.6113 46.977H74.5723L74.273 47.0876C74.2535 47.0941 74.208 47.1071 74.1884 47.1071L73.9607 47.1462C73.8957 47.1592 73.9607 47.1657 73.8892 47.1332H73.8501C73.694 47.1982 73.8436 47.1592 73.7395 47.1332L73.3622 47.0811C73.3101 47.0746 73.3036 47.0876 73.2581 47.0811L72.9263 46.9835L72.9198 47.1527C73.0499 47.4715 72.9848 47.2763 73.206 47.4194H73.2451C73.4077 47.53 73.6419 47.8488 73.7135 48.005C73.7135 48.0115 73.72 48.018 73.7265 48.0245L73.7525 48.0635C73.9152 48.3498 73.9347 48.3042 73.9933 48.4279L74.1819 48.7662C74.1819 48.7727 74.1884 48.7792 74.1884 48.7857C74.1884 48.7922 74.1949 48.7987 74.1949 48.8052L74.273 48.9613C74.3055 49.0459 74.3055 49.0069 74.3381 49.137L74.4227 49.3972C74.4747 49.6119 74.4942 49.4168 74.5072 49.5989C74.5137 49.7486 74.4292 49.6315 74.5658 49.729C74.6373 49.9047 74.5137 49.703 74.6374 50.0153C74.7219 50.23 74.5853 50.5163 74.7219 50.809C74.8846 50.809 74.852 50.822 74.9626 50.77L75.0798 50.6919C75.1318 50.6529 75.1448 50.6334 75.1904 50.6073C75.2684 50.5553 75.2489 50.5943 75.3205 50.5423C75.3985 50.4902 75.4246 50.4382 75.5157 50.3731C75.5222 50.3666 75.5352 50.3601 75.5417 50.3601C75.5482 50.3601 75.5612 50.3471 75.5677 50.3471L75.8019 50.1845C76.0296 50.0608 75.9125 50.0869 76.0752 49.9763L76.2768 49.8592C76.3614 49.8136 76.4005 49.7876 76.472 49.7355L76.5501 49.6575H76.5891L76.947 49.4168C76.9535 49.4102 76.9665 49.4037 76.973 49.4037L77.1031 49.3322C77.3373 49.2151 77.3178 49.2086 77.5 49.2021L78.0725 49.2606H78.1115L78.5409 49.3647C78.645 49.3907 78.632 49.3842 78.7101 49.4233H78.7491H78.7881H78.8272L79.5819 49.664H79.6209C79.6664 49.6835 79.6925 49.69 79.7315 49.7095C79.8356 49.7551 79.7315 49.7225 79.8096 49.7551C79.9332 49.8071 79.8876 49.7876 80.0243 49.7681C80.1999 49.7421 80.1219 49.7876 80.2975 49.9047H80.3366C80.4081 49.9372 80.4667 49.9502 80.5382 49.9828H80.5773C80.6488 50.0153 80.7074 50.0283 80.779 50.0608H80.818C80.857 50.0869 80.8635 50.0934 80.9091 50.1129C80.9156 50.1129 80.9221 50.1194 80.9286 50.1194L81.6573 50.3796H81.6963C81.7483 50.4122 81.7288 50.4057 81.7679 50.4252L81.8069 50.4382C81.872 50.4642 81.8329 50.3992 81.9956 50.5618L82.0932 50.6659C82.0606 50.7375 82.0476 50.796 82.0216 50.8611L82.2168 51.0302L82.2948 51.1083L82.3729 51.1864C82.3989 51.2254 82.4705 51.3295 82.5095 51.3685C82.5616 51.4271 82.6331 51.4661 82.6917 51.5052H82.7307C82.8023 51.5377 82.8609 51.5507 82.9324 51.5832H82.9715C83.043 51.6158 83.1016 51.6288 83.1731 51.6613H83.2122C83.2837 51.6938 83.3423 51.7068 83.4139 51.7394C83.4204 51.7459 83.4334 51.7524 83.4399 51.7524C83.4464 51.7524 83.4594 51.7654 83.4659 51.7654L83.6416 51.8435C83.7196 51.876 83.6676 51.863 83.7522 51.915L83.8302 51.9606C83.8367 51.9541 83.8498 51.9671 83.8563 51.9736L84.2922 52.2924L84.3702 52.3705C84.4223 52.4485 84.5004 52.5071 84.5329 52.5591C84.611 52.6892 84.5134 52.5136 84.5589 52.6697C84.5914 52.7803 84.5849 52.7348 84.611 52.7738C84.65 52.8649 84.6565 52.9039 84.5849 52.982C84.4743 53.1056 84.4613 53.0666 84.3312 53.1316C84.2922 53.1577 84.3312 53.1381 84.2531 53.1772C84.2401 53.1837 84.1946 53.2032 84.1686 53.2097H84.1295H84.0905H84.0514C83.8953 53.2878 83.5635 53.3073 83.4854 53.3073C83.2382 53.3073 82.2948 53.2878 82.0997 53.2097H82.0606C81.963 53.1707 82.0411 53.1707 81.9435 53.2097L81.5532 53.1056C81.4751 53.0926 81.4296 53.0926 81.345 53.0861L80.7464 52.969H80.7074C80.5838 52.9169 79.9787 52.8649 79.8681 52.8063H79.8291L79.3021 52.7478C79.1395 52.7478 79.198 52.7218 79.1004 52.7088L78.593 52.6502H78.5539H78.5149H78.4759C78.3457 52.5982 77.9879 52.6372 77.7082 52.5591L77.1291 52.5136C76.986 52.5071 77.0511 52.4745 76.9535 52.4876C76.7192 52.5266 76.7778 52.4485 76.6282 52.4876L76.5891 52.5071C76.5826 52.5071 76.5761 52.5136 76.5696 52.5136C76.5371 52.5201 76.4785 52.5136 76.4525 52.5136L76.1597 52.5721H76.1207L76.1597 52.6112H76.1988C76.3224 52.6697 76.5306 52.6827 76.8754 52.8519H76.9144L77.0315 52.93H77.0706L77.2202 53.0015C77.2267 53.0015 77.2332 53.008 77.2397 53.008L77.4284 53.0926C77.5325 53.1642 77.7407 53.1772 77.9294 53.2683C77.9359 53.2748 77.9489 53.2748 77.9554 53.2813C78.1961 53.4049 78.1766 53.47 78.1701 53.6781C78.1571 53.9644 78.092 53.7562 78.0855 53.9774C78.0855 54.036 78.0985 53.9969 78.079 54.0685C78.0334 54.2572 77.8448 54.3418 77.7472 54.4914L77.5845 54.654C77.3568 54.8167 77.6951 54.6605 77.4804 54.8167L76.9079 55.0509H76.8689C76.5956 55.181 76.6152 55.1225 76.2703 55.2916H76.2313C76.0947 55.3502 75.7889 55.2981 75.6328 55.3697H75.5937C75.4961 55.3307 75.5742 55.3307 75.4766 55.3697H75.4376C75.34 55.3307 75.4181 55.3307 75.3205 55.3697H75.2814C75.1838 55.3307 75.2619 55.3307 75.1643 55.3697H75.1253C75.0277 55.3307 75.1058 55.3307 75.0082 55.3697H74.9366C74.7935 55.3111 73.9412 55.2656 73.9282 55.2266C73.9217 55.2135 73.9087 55.2201 73.9022 55.2135C73.8176 55.2461 73.707 55.2461 73.6224 55.2135H73.5834C73.4403 55.2721 73.5769 55.2526 73.4468 55.194C73.3817 55.1615 73.3557 55.155 73.3036 55.129C73.2451 55.0379 73.206 55.0314 73.154 54.9598C73.0694 54.8362 73.2126 54.8882 73.0759 54.8037C72.9588 54.7256 72.6856 54.8167 72.5034 54.7321H72.4644C72.3668 54.7711 72.4449 54.7711 72.3473 54.7321H72.3082H72.2692H72.2302L71.5275 54.6345C70.8379 54.5174 70.376 54.602 69.7709 54.6735L69.322 54.6931C69.2114 54.6931 69.0553 54.7061 69.0097 54.7126C68.9186 54.7191 68.9381 54.6931 68.8406 54.7321H68.8015C68.7039 54.7711 68.782 54.7711 68.6844 54.7321L68.203 54.8102H68.1639H68.1249H68.0859C67.8842 54.8948 66.6546 54.8948 66.4529 54.8102H66.4138L66.1471 54.7256C66.1406 54.7256 66.1341 54.7191 66.1276 54.7191L66.069 54.6996C66.0625 54.6996 66.056 54.6931 66.0495 54.6931C65.8739 54.641 65.9259 54.654 65.7307 54.4589C65.5616 54.2897 65.6852 54.4003 65.6201 54.2507L65.542 54.2116C65.5811 54.1205 65.5811 53.8603 65.542 53.7757L65.6201 53.7302L65.9389 53.4114L66.056 53.3333C66.1406 53.2748 66.1861 53.2097 66.2447 53.1707C66.3748 53.0926 66.1991 53.1967 66.3228 53.1447C66.3683 53.1251 66.3683 53.1186 66.4138 53.0926C66.4203 53.0861 66.4334 53.0796 66.4399 53.0796C66.4464 53.0796 66.4594 53.0666 66.4659 53.0666C66.4724 53.0601 66.5049 53.0406 66.5179 53.0406L66.8172 52.8584H66.8562C66.9083 52.8259 66.9018 52.8194 66.9473 52.7868C67.0319 52.7283 66.9669 52.7738 67.0514 52.7283L67.2206 52.6177H67.2596C67.3117 52.5851 67.2921 52.5917 67.3312 52.5721C67.5654 52.4485 67.4743 52.5526 67.4808 52.429L67.5394 51.6613C67.6305 51.5312 67.6305 51.5182 67.637 51.349C67.6565 51.0563 67.6565 51.2709 67.7085 51.1343C67.7541 51.0107 67.6305 51.1864 67.7801 50.9131C67.8451 50.796 67.7215 50.8025 67.8582 50.7049L67.9167 50.1975C67.9232 50.1649 67.9297 50.1064 67.9362 50.0218C67.9688 49.6965 67.9558 49.651 67.9558 49.4363L67.9948 48.9809C68.0143 48.8117 68.0794 48.7401 67.9883 48.4409L67.9558 48.3433C67.9167 48.083 67.637 48.0895 67.3962 47.9789C67.3897 47.9789 67.2921 47.9204 67.2921 47.9204C67.2596 47.9009 67.2531 47.9334 67.2401 47.8879C67.2336 47.8748 67.2206 47.8748 67.2141 47.8748C67.1425 47.8423 67.084 47.8293 67.0124 47.7968H66.9734C66.9213 47.7642 66.9408 47.7708 66.9018 47.7512L66.8237 47.7252C66.8172 47.7187 66.7912 47.7122 66.7782 47.7057C66.6806 47.6667 66.635 47.6341 66.5375 47.5821C66.3098 47.4715 66.4464 47.5886 66.1926 47.452L66.0951 47.3934C65.8999 47.3023 65.4119 47.0876 65.2948 46.912L65.0151 46.6712C64.9175 46.5281 64.8719 46.5867 64.8524 46.3915C64.7678 46.385 64.6768 46.372 64.6637 46.3655L64.5206 46.2874C64.5141 46.2744 64.5011 46.2744 64.4946 46.2744L64.3775 46.1963L64.2994 46.1182L64.2474 46.0857C64.0262 45.9556 64.0782 45.9166 63.896 45.7995H63.857C63.6683 45.7084 63.4471 45.7084 63.2585 45.7995C63.252 45.806 63.2389 45.8125 63.2324 45.8125L62.8161 45.9946C62.8811 46.1508 62.7185 46.2288 63.0503 46.4826C63.1088 46.5281 63.1023 46.5086 63.1218 46.5216C63.1283 46.5216 63.1348 46.5281 63.1348 46.5346L63.1999 46.6452C63.2064 46.6517 63.2129 46.6582 63.2194 46.6647L63.3365 46.7493C63.343 46.7558 63.3495 46.7623 63.3561 46.7623C63.3626 46.7623 63.3691 46.7753 63.3691 46.7753L63.4016 46.8209C63.5447 47.0291 63.4862 46.8859 63.5577 47.0681C63.5968 47.1657 63.6228 47.1787 63.6293 47.2893C63.6358 47.4194 63.5903 47.3349 63.6879 47.478V47.517L63.7724 47.8683C63.831 48.018 63.7204 47.9074 63.8505 47.9985L64.0132 48.1611L64.1758 48.3238L64.2539 48.4018L64.4686 48.597C64.6377 48.7662 64.5922 48.6491 64.6833 48.8312C64.8069 49.0719 64.8654 49.15 64.911 49.4493C64.924 49.5208 64.95 49.5794 64.976 49.6705C65.0151 49.8071 64.976 50.0348 64.989 50.0804C65.0086 50.1519 64.9825 50.0608 65.0281 50.1714C65.0866 50.3081 65.0476 50.3016 65.0801 50.3601C65.1972 50.5553 65.3143 50.4707 65.3924 50.77L65.464 50.9652C65.4835 51.0237 65.4445 50.9456 65.4835 51.0367C65.6006 51.1213 65.5355 51.0367 65.5486 51.1473C65.5616 51.3165 65.5486 51.1669 65.6331 51.3881L65.6657 51.4596C65.6657 51.4661 65.6722 51.4791 65.6787 51.4856C65.7177 51.5962 65.6917 51.5702 65.7112 51.6288C65.7502 51.7459 65.7177 51.6028 65.7698 51.7524C65.8608 52.0191 65.7242 51.5702 65.7828 51.8305C65.8088 51.9346 65.9454 52.2403 65.8283 52.429C65.6526 52.7218 65.7307 52.7673 65.6396 52.956C65.3794 52.956 65.0021 52.943 64.8719 52.9365C64.7548 52.93 64.7028 52.8063 64.4035 52.5917C64.1888 52.4355 64.5011 52.6827 64.1758 52.2989L64.0066 52.0191C63.8375 51.8955 64.0717 52.0386 63.857 51.8109C63.6293 51.5702 63.7269 51.0497 63.7139 50.7765L63.4667 50.178C63.3951 49.9828 63.4341 50.256 63.3886 49.9567C63.3691 49.8331 63.3626 49.9047 63.3235 49.8396L63.2194 49.5209C63.1674 49.4037 63.2129 49.5339 63.1609 49.4233C63.1218 49.3322 63.1153 49.2671 62.9137 49.1305L62.738 48.9744C62.6599 48.9028 62.6404 48.7271 62.3802 48.8377H62.3411C62.2435 48.7987 62.3216 48.7987 62.224 48.8377H62.185C62.0874 48.7987 62.1655 48.7987 62.0679 48.8377H62.0288C61.9313 48.7987 62.0093 48.7987 61.9117 48.8377H61.8727C61.7556 48.7922 61.632 48.8507 61.4368 48.7597H61.3978C61.3197 48.7922 61.3197 48.7597 61.1961 48.7206C61.118 48.7011 61.1375 48.7076 61.0725 48.6816C60.9619 48.6425 60.8057 48.584 60.6821 48.636L60.9619 49.163C60.9619 49.1695 60.9749 49.176 60.9749 49.1825L61.0855 49.3842C61.2611 49.6315 61.131 49.6119 61.1961 49.8006V50.269L61.105 50.5618C60.9489 51.0042 61.0074 50.8546 61.144 51.0432L61.2546 51.2644C61.3392 51.4011 61.3457 51.2775 61.3848 51.5312C61.4238 51.7719 61.4173 51.7719 61.4173 51.902L61.3327 52.6177L61.157 52.9039C61.0204 53.0015 61.144 52.9104 61.0855 53.008L61.0074 53.0731C60.9424 53.1056 61.0009 53.0536 60.9098 53.1251C60.8513 53.1707 60.8643 53.1707 60.7992 53.2162H60.7602L60.4739 53.3073C60.3568 53.3398 60.3568 53.3138 60.1942 53.4244L60.2787 53.496C60.2853 53.5025 60.2983 53.509 60.3048 53.509L60.4414 54.0165C60.4219 54.075 60.4154 54.062 60.3959 54.0945C60.3438 54.2246 60.3893 54.1271 60.3698 54.2051L60.2853 54.4393C60.2592 54.4914 60.2462 54.4979 60.2072 54.5369C60.038 54.7126 60.0966 54.6475 60.0055 54.6735L59.6867 54.7842C59.6802 54.7842 59.6672 54.7842 59.6672 54.7907L59.5891 54.8167C59.4525 54.8557 58.8344 54.8492 58.7173 54.8037H58.6783H58.6393H58.6002C58.4831 54.7451 58.4376 54.7776 58.3205 54.7256H58.2814L57.2925 54.5434C57.1884 54.5174 57.2014 54.5239 57.1234 54.4849H57.0843L56.7265 54.2442H56.6875H56.3296H56.2646L55.575 54.3873C55.5294 54.4003 55.575 54.3873 55.5164 54.4133L55.3472 54.4849H55.3082L54.4689 54.7256H54.4299C54.3583 54.7581 54.2998 54.7711 54.2282 54.8037H54.1892C54.007 54.8817 54.2152 54.7842 54.0526 54.8297C53.8899 54.8752 54.007 54.8622 53.9029 54.8948C53.8444 54.9143 53.8704 54.8882 53.7598 54.9273C53.6622 54.9663 53.7208 54.9663 53.6232 54.9858L53.0311 55.1225H52.9921H52.9531H52.914C52.836 55.155 52.6082 55.168 52.5237 55.194C52.4066 55.2331 52.5432 55.2201 52.387 55.2266C52.322 55.2266 52.3155 55.2331 52.2374 55.207H52.1984C52.1138 55.2396 52.0032 55.2396 51.9186 55.207H51.8796C51.8015 55.2396 51.7104 55.2396 51.6519 55.2201C51.5152 55.181 51.6844 55.2005 51.5543 55.1875C51.5152 55.181 51.4957 55.1875 51.4567 55.1875C51.3851 55.1875 51.3331 55.181 51.1834 55.155L51.0924 55.1355C50.9688 55.0964 51.1119 55.0639 50.9622 55.1225C50.8061 55.0119 50.8061 55.0834 50.6955 55.0574L50.4092 54.9663H50.3702C50.2661 55.0054 50.2206 54.9533 49.9733 55.129H49.9343H49.8953L49.3293 55.3111C49.2642 55.3241 49.2252 55.3307 49.1406 55.3697H49.1015H49.0625H49.0235C48.9324 55.4087 48.8934 55.3762 48.7437 55.4478H48.7047L48.5746 55.4543C48.2623 55.5453 47.8459 55.5128 47.5206 55.4282L47.3124 55.3632H47.2734H47.2343H47.1953C47.0587 55.3046 46.883 55.3111 46.7399 55.3111C46.5577 55.3111 46.6813 55.2981 46.4992 55.3372L45.9397 55.4282C45.712 55.4998 44.5734 55.4868 44.3132 55.4673C44.2026 55.4608 44.1375 55.3697 43.9619 55.4478H43.9033L43.4934 55.3697C43.3893 55.3437 43.539 55.3046 43.3828 55.3697H43.3438C43.2462 55.3307 43.3243 55.3307 43.2267 55.3697H43.1876C43.0901 55.3307 43.1681 55.3307 43.0705 55.3697H43.0315C42.9469 55.3372 42.8363 55.3372 42.7518 55.3697H42.7127C42.6151 55.3307 42.6932 55.3307 42.5956 55.3697H42.5566C42.4655 55.4087 42.498 55.3827 42.3874 55.4022C42.2053 55.4282 42.2898 55.4282 42.1857 55.4608C42.1337 55.4803 41.906 55.4738 41.7954 55.5258H41.7563H41.7173C41.6783 55.5519 41.7043 55.5453 41.6327 55.5649C41.6262 55.5649 41.5416 55.5779 41.5351 55.5779C41.418 55.5974 41.5026 55.5584 41.3985 55.6039H41.3595C41.2229 55.6625 41.0472 55.6299 40.8325 55.695C40.5202 55.7861 40.5137 55.8056 40.0843 55.8056C40.0128 55.9162 39.9477 55.9552 39.8566 56.0593C39.8501 56.0658 39.8306 56.0918 39.8241 56.0984L39.707 56.313C39.6224 56.5147 39.6094 56.3911 39.5443 56.5538C39.5443 56.5538 39.5573 56.5473 39.5248 56.6123C39.5053 56.6514 39.4728 56.6709 39.4402 56.7229C39.3491 56.788 39.4012 56.801 39.3426 56.8661L39.1995 56.9636L39.1214 57.0417C38.9002 57.1458 39.0108 57.0547 38.7571 57.1328C38.6855 57.1523 38.3863 57.1718 38.3147 57.1783L37.7942 57.2629C37.7031 57.2694 37.7487 57.2434 37.6446 57.2824H37.6056C37.4754 57.3345 37.3648 57.2629 37.2087 57.3605C37.0786 57.3085 37.1371 57.3735 36.8444 57.3735L35.8945 57.4386H35.8555H35.8164H35.7774C35.6798 57.4776 35.7579 57.4776 35.6603 57.4386H35.6212C35.5562 57.4646 35.309 57.4906 35.1853 57.4906C35.0357 57.4906 34.9511 57.4776 34.8601 57.5166H34.821H34.782H34.7299C34.5933 57.5752 34.0078 57.5166 33.663 57.6012H31.5876C31.464 57.6142 31.568 57.5752 31.3664 57.5752C30.8719 57.5817 30.7158 57.4646 30.41 57.5947C29.9676 57.7834 30.0261 57.7053 29.9025 57.7574H29.8635C29.8505 57.7639 29.7789 57.7899 29.7789 57.7899C29.6878 57.8354 29.7464 57.8029 29.7008 57.8354C29.6423 57.8615 29.5967 57.8745 29.5317 57.907L29.382 57.9981C29.2519 58.0566 28.9917 58.0566 28.8616 57.9981H28.8225C28.6404 58.0762 28.8095 57.92 28.6209 57.9981H28.5818C28.4777 57.9525 28.224 57.9786 28.1134 57.9786C27.9898 57.9786 27.7686 57.9525 27.6645 57.9981H27.6254L27.1961 58.0436C27.118 58.0501 27.0659 58.0501 27.0204 58.0566C26.9358 58.0762 27.0529 58.0501 26.9423 58.0827C26.8643 58.1087 26.9423 58.0827 26.8512 58.1022L26.7016 58.1347C26.6951 58.1347 26.6886 58.1412 26.6821 58.1412L26.077 58.3104H26.038H25.999H25.9599C25.8688 58.3494 25.8298 58.3169 25.6802 58.3884H25.6411L25.0426 58.5511H25.0036H24.9645H24.9255L24.6587 58.6357C24.6197 58.6487 24.6652 58.6357 24.6002 58.6552L24.3985 58.6942C24.1773 58.7072 24.3465 58.7072 24.1513 58.7658C23.9366 58.8243 24.0407 58.8373 23.9301 58.7918C23.813 58.8634 23.813 58.8113 23.6178 58.8764C23.5592 58.8959 23.6568 58.8829 23.5592 58.8959C23.4356 58.9089 23.4161 58.8569 23.2079 58.9545H23.1689C23.0062 58.8894 23.1754 58.9284 23.0388 58.9675L22.5768 59ZM23.9171 58.7983H23.878L23.9106 58.7528L23.9171 58.7983Z" fill="white" fill-opacity="0.85"/>
</svg>
