<svg width="100" height="80" viewBox="0 0 100 80" fill="none" xmlns="http://www.w3.org/2000/svg">
<path fill-rule="evenodd" clip-rule="evenodd" d="M82.4859 15.1692H82.5352L82.493 15.2254L82.4859 15.1692ZM80.3121 17.5892V17.54L80.3684 17.5822L80.3121 17.5892ZM81.1633 19.151H81.2126L81.1704 19.2073L81.1633 19.151ZM87.3613 24.8776H87.312L87.3542 24.8214L87.3613 24.8776ZM87.4105 24.8776V24.8284L87.4668 24.8706L87.4105 24.8776ZM87.3613 24.8776H87.4105V25.3982V25.4475C87.3542 25.5882 87.3472 25.7641 87.2417 25.9751L86.9743 26.4043C86.9181 26.5309 87.0517 26.4183 86.8899 26.5309C86.8547 26.5942 86.8336 26.6575 86.7985 26.7208C86.7422 26.8123 86.7141 26.8193 86.6578 26.9108C86.6015 26.953 86.6367 26.9108 86.5945 26.9741C86.5241 27.0796 86.5311 27.1148 86.4256 27.157L85.9894 27.15C86.0105 27.1078 86.0105 27.0515 86.0176 27.0445C86.0176 27.0374 86.0246 27.0234 86.0246 27.0234L86.6156 25.743C86.8759 25.1309 86.6437 25.5038 86.9603 25.3349L87.3613 24.8776ZM74.9161 25.2083H74.9654L74.9232 25.2646L74.9161 25.2083ZM76.9071 27.5791C76.7664 27.6776 76.8297 27.6776 76.8297 27.6776L76.8016 27.7128C76.7945 27.7198 76.7804 27.7269 76.7804 27.7269C76.7734 27.7339 76.7593 27.7409 76.7523 27.7409C76.7453 27.748 76.7312 27.755 76.7242 27.762L76.6327 27.8535L76.3724 28.0153C76.2528 28.0857 76.3583 28.0294 76.2669 28.0997C76.2247 28.1279 76.2387 28.1279 76.1825 28.163L75.9714 28.3249C75.8799 28.3882 75.9151 28.3882 75.9011 28.4093C75.9011 28.4093 75.894 28.4233 75.887 28.4304C75.8096 28.5289 75.7533 28.5922 75.7111 28.7892L75.7322 29.1339C75.8096 29.1902 75.9433 29.4434 75.9011 29.6404L75.8237 29.7811C75.7674 29.8937 75.8659 29.8374 75.7322 29.9359C75.3664 30.6324 75.296 30.5902 74.6066 31.2726C74.2759 31.6032 74.494 31.6103 74.2759 31.6243C74.086 31.6384 73.9382 31.561 73.7905 31.4555H73.7413L73.481 31.6665C73.4739 31.6736 73.4669 31.6806 73.4599 31.6876C73.4599 31.6947 73.4458 31.7017 73.4458 31.7088L73.4247 31.751C73.4247 31.758 73.4177 31.765 73.4177 31.7721L73.2418 31.962C73.2347 31.9691 73.2207 31.9761 73.2136 31.9761C73.2066 31.9831 73.1925 31.9902 73.1855 31.9902L72.89 32.152C72.7634 32.1801 72.7845 32.1731 72.693 32.2153H72.6438C72.5594 32.2575 72.489 32.2716 72.4046 32.3067H72.3553C72.1795 32.3912 72.1161 32.363 71.9966 32.567C71.9825 32.5881 71.9121 32.7429 71.9121 32.7429C71.9051 32.764 71.891 32.8625 71.884 32.968L71.7925 33.0173C71.8418 33.1439 71.8066 33.0525 71.8136 33.165C71.8207 33.2776 71.7996 33.2143 71.884 33.3409V33.3901L71.9332 33.8615L70.6458 33.8756C70.5544 33.8896 70.6106 33.8756 70.5544 33.9107C70.4418 33.8615 70.5262 33.8615 70.4137 33.9107H70.3644C70.2026 33.9741 70.076 33.9037 69.8016 33.96C69.6539 33.9881 69.7523 33.9741 69.6116 34.0092L69.084 34.1007H69.0348L68.0428 34.3821H67.9936C67.9091 34.4243 67.8388 34.4384 67.7544 34.4736H67.7051C67.5785 34.5369 67.4941 34.5369 67.4308 34.5509L67.1634 34.6424C67.1564 34.6424 67.1423 34.6494 67.1353 34.6565L66.9102 34.755C66.9031 34.755 66.8891 34.762 66.8891 34.762L66.7132 34.8464C66.6639 34.8816 66.7343 34.8464 66.6217 34.9027C66.6217 34.9027 66.5373 34.9379 66.5232 34.9449H66.474C66.4107 34.9871 66.3966 35.0153 66.3403 35.0504C66.27 35.0926 66.2207 35.0997 66.1433 35.1349H66.0941L66.0026 35.2263L65.4187 35.6414C65.278 35.7469 65.2077 35.754 65.0529 35.9791L64.9614 36.0705C64.8067 36.1831 64.9403 36.0776 64.877 36.1901L64.7293 36.3519L64.2931 36.964L64.279 36.9781C64.0469 37.2173 64.0961 37.2806 63.7866 37.4916H63.7373C63.6247 37.4424 63.7092 37.4424 63.5966 37.4916H63.5474L61.8941 37.3017H61.8449L58.7635 37.2454C58.5032 37.2665 58.0951 37.2243 57.9122 37.3017H57.863H57.8137H57.7645L57.3705 37.3931C57.3283 37.4142 57.3002 37.4565 57.2439 37.4916L56.9625 37.6816L56.871 37.773H56.8358L56.7444 37.8645C56.66 37.9208 56.6389 37.9348 56.5404 37.9911C56.4137 38.0615 56.4208 38.0826 56.3223 38.1529L56.1675 38.2866C56.1605 38.2936 56.1464 38.3007 56.1464 38.3007L56.0901 38.3358C55.9354 38.4414 55.865 38.575 55.7243 38.6735C55.6328 38.7439 55.5836 38.7368 55.4921 38.8142C55.4007 38.8916 55.4007 38.9198 55.2881 38.9901L55.1474 39.0816L54.6761 39.363C54.5494 39.4474 54.4791 39.4826 54.3454 39.5529C54.3384 39.56 54.3173 39.56 54.3173 39.574L53.8741 39.8414H53.8107C53.466 40.0735 53.7404 39.9187 53.5504 39.968C53.3464 40.0172 53.5012 39.9821 53.3886 40.0383C53.3183 40.0735 53.255 40.0946 53.1917 40.1228H53.1424L52.1505 40.5941H52.1012C52.0379 40.6363 52.0098 40.6715 51.9464 40.7067C51.8057 40.77 52.0309 40.6645 51.8761 40.7278C51.8268 40.7489 51.8198 40.7559 51.7706 40.7911H51.7213L51.5806 40.8826H51.5314H51.4892L51.3484 40.974L50.7083 41.2836C50.4902 41.3891 50.2228 41.6564 50.0821 41.8393C49.9414 42.0293 50.1173 41.7831 50.0258 42.0152C50.1736 42.0011 50.1173 42.0152 50.2158 41.966H50.265H50.3143H50.3635C50.3917 41.9519 50.448 41.9308 50.462 41.9238C50.5535 41.8815 50.5042 41.9027 50.5535 41.8675C50.666 41.8182 50.7083 41.8604 50.8841 41.776H50.9334C51.0178 41.7338 51.0882 41.7197 51.1726 41.6846H51.2218L52.7836 41.2132H52.8329L53.459 41.0092C53.4871 41.0022 53.5715 40.9881 53.6841 40.974C53.5856 41.2062 53.7685 40.9599 53.6278 41.1499C53.5716 41.2202 53.5293 41.2202 53.4801 41.3117L53.3746 41.5509C53.3605 41.5861 53.3816 41.565 53.3183 41.6494L53.2128 41.776C53.2128 41.7831 53.2057 41.7901 53.1987 41.7971L53.1002 41.98C53.0298 42.1278 53.1494 41.9027 53.0791 42.0504L52.6992 42.7117C52.6429 42.8383 52.7062 42.6836 52.657 42.782C52.6288 42.8313 52.6288 42.8454 52.6148 42.8735L52.4319 43.176C52.3756 43.2534 52.3896 43.2253 52.3545 43.2815C52.263 43.4433 52.3826 43.2253 52.3334 43.3519C52.3334 43.3589 52.3263 43.373 52.3263 43.373C52.2701 43.4996 52.2138 43.4363 52.2489 43.6755C52.2489 43.6825 52.256 43.6966 52.256 43.7036C52.263 43.7459 52.2982 43.774 52.2701 43.8584C52.2982 43.8936 52.2982 43.8725 52.3263 43.9499C52.3545 44.0273 52.3404 43.9921 52.3474 44.0624C52.3545 44.168 52.3193 44.1187 52.3685 44.2383C52.5022 44.2946 52.3826 44.2805 52.5303 44.2172C52.8891 44.0554 52.5303 44.2454 52.854 43.8725L53.0298 43.577L53.656 42.6906C53.867 42.4725 53.656 42.6062 53.8459 42.4092C53.867 42.3881 53.9022 42.3599 53.9163 42.3388L54.8942 41.3258C54.9012 41.3187 54.9153 41.3117 54.9223 41.3047L55.063 41.2132L55.2459 41.1077C55.3233 41.0725 55.3796 41.0584 55.4429 41.0233H55.4921C55.5766 40.9811 55.5484 40.9881 55.6821 40.974L55.4781 41.3187C55.3585 41.572 55.457 41.368 55.3163 41.5579C55.2037 41.7057 55.3514 41.5439 55.26 41.6635L54.8097 42.3107C54.7957 42.3529 54.8308 42.3177 54.7535 42.4021L54.6268 42.5429C54.6268 42.5499 54.6198 42.564 54.6198 42.564C54.6198 42.564 54.6409 42.5569 54.5987 42.6343C54.5776 42.6765 54.5424 42.7047 54.5002 42.768C54.3947 42.8454 54.3665 42.9157 54.3032 43.0916L54.0499 43.6333C54.0499 43.6403 54.0429 43.6544 54.0429 43.6544L53.9585 43.8232C53.9163 43.9639 54.0007 43.7529 53.9374 43.9077C53.8107 43.9991 53.9092 43.8655 53.7826 44.2524L53.6841 44.6534C53.656 44.8644 53.6278 44.4845 53.5927 45.0051C53.5856 45.0825 53.5786 45.1107 53.5293 45.2514C53.4449 45.5187 53.5364 45.5398 53.466 45.7087V45.7579L53.4379 45.8634C53.3675 46.1026 53.3746 46.4262 53.3886 46.7006L53.4379 47.2142C53.4379 47.2212 53.4449 47.2564 53.452 47.2634C53.4801 47.3689 53.4871 47.4041 53.4942 47.4745C53.5293 47.988 53.5504 47.8403 53.5856 48.1147V48.375C53.5856 48.382 53.5856 48.4101 53.5927 48.4242C53.5927 48.4313 53.5997 48.4453 53.5997 48.4453C53.5997 48.4524 53.6067 48.4664 53.6067 48.4664C53.6067 48.4735 53.6138 48.4875 53.6208 48.4875L53.6841 48.7689C53.6911 48.8182 53.6841 48.8111 53.7122 48.8745C53.8741 48.8041 53.7545 48.9096 53.9514 48.783L54.2399 47.988C54.2962 47.8755 54.2047 47.9529 54.3595 47.6644L54.4509 47.4604C54.4861 47.3197 54.4158 47.4182 54.5283 47.2564C54.5776 47.1298 54.5213 47.2142 54.5635 47.1227C54.5846 47.0735 54.5987 47.0664 54.6128 47.0524C54.6479 46.9891 54.6339 47.0242 54.6479 46.982L54.7112 46.8202C54.7675 46.7076 54.7534 46.7288 54.8168 46.6373V46.6584L54.9575 46.2785C55.0771 46.1941 55.2952 45.6383 55.3233 45.582C55.3725 45.4835 55.3374 45.568 55.3655 45.5117L55.5344 45.1529C55.5344 45.1458 55.5484 45.1388 55.5555 45.1318C55.5906 45.0685 55.5766 45.0966 55.5906 45.0614L55.6117 44.9911C55.6539 44.9137 55.6539 44.9418 55.7173 44.8222L56.3223 43.8232L56.4419 43.6474C56.4419 43.6403 56.4489 43.6333 56.4489 43.6263C56.5333 43.4574 56.7092 43.3449 56.7866 43.2464C56.9203 43.0634 56.6881 43.2675 56.9062 43.0353C56.9484 42.9931 56.9625 42.9861 56.9906 42.9368L57.3705 42.4655C57.4409 42.3459 57.272 42.381 57.5112 42.3599C57.4901 42.5991 57.4901 42.4303 57.4057 42.6132L57.2439 42.9931C57.1665 43.176 57.2369 43.0705 57.1806 43.2112C57.0117 43.3308 57.1665 43.2112 57.075 43.4433C57.0258 43.57 57.075 43.4222 57.0188 43.5559L57.0047 43.5981C56.9132 43.8514 56.857 43.8444 56.8218 43.9288C56.8007 43.978 56.8218 43.9991 56.8147 44.0484L56.6248 44.5197C56.6248 44.5268 56.6178 44.5338 56.6178 44.5408L56.4911 44.8996C56.47 44.9559 56.456 44.97 56.4348 45.0544C56.4137 45.1458 56.47 45.0333 56.4067 45.1881L56.6881 45.0896C56.857 44.9981 56.8921 44.8011 56.9132 44.7308L57.068 44.4845C57.1313 44.6323 57.0891 44.7308 56.9766 44.9137L57.2509 44.9911C57.3213 45.0333 57.3846 45.2443 57.4057 45.4343C57.8137 45.1599 57.9052 44.7097 58.2077 44.2524V44.1961L58.4117 43.7529C58.4188 43.7459 58.4188 43.7177 58.4258 43.7036L58.5102 43.5629C58.5524 43.4715 58.5172 43.4645 58.658 43.2534C58.8409 42.972 58.5735 43.3308 58.7987 42.9227L58.8971 42.7047C58.9464 42.5921 58.862 42.7469 58.9253 42.6413C58.9534 42.5921 58.9112 42.6624 58.9534 42.5991L59.1856 42.3037C59.2067 42.2685 59.1293 42.2966 59.263 42.2052L59.3544 42.1137H59.4037V42.163L59.1856 42.5499C59.1715 42.5921 59.1856 42.5569 59.1504 42.6202L58.8901 43.0494C58.8831 43.0564 58.876 43.0916 58.869 43.0986L58.7002 43.4293C58.6509 43.5418 58.6931 43.4293 58.658 43.4996L58.3343 44.1398C58.3273 44.168 58.3414 44.2454 58.3343 44.2805C58.2992 44.4142 58.2921 44.3438 58.2569 44.4634C58.1936 44.6393 58.3062 44.4142 58.2218 44.6252L58.1162 44.7097C58.3343 44.8574 58.4188 44.7871 58.5243 44.5901L58.6439 44.4845L58.7353 44.5338C58.6439 44.766 58.7916 44.984 58.7635 45.1318L57.9826 46.0956C57.9404 46.1589 57.9263 46.1589 57.877 46.2293L57.7926 46.3277C57.7926 46.3277 57.7856 46.3418 57.7786 46.3418L57.4972 46.7569C57.4409 46.8413 57.3705 46.8765 57.3072 46.982L57.1665 47.1438C57.1665 47.1438 57.1595 47.1579 57.1524 47.1579C56.9062 47.5237 56.8992 47.4112 56.7163 47.6644L56.4067 47.9669C56.3223 48.0373 56.2941 48.0725 56.2097 48.1498C56.1675 48.1921 56.1605 48.1991 56.1042 48.2343L56.0127 48.2835C56.0057 48.2906 55.9916 48.2976 55.9846 48.3046C55.9213 48.3468 55.9072 48.375 55.8509 48.4101C55.7806 48.4524 55.7313 48.4594 55.6539 48.4946L55.5625 48.586H55.5132L55.4218 48.6775C55.2741 48.7478 55.3022 48.6916 55.1685 48.8041C55.0982 48.8604 55.0489 48.9237 54.9786 48.9941C54.7042 49.2684 54.8731 49.3106 54.7042 49.4302L54.465 50.0001C54.3384 50.0915 54.4017 50.1127 54.3947 50.176L54.0007 50.978C54.0007 50.985 53.9937 50.9991 53.9866 50.9991C53.9374 51.0905 53.9866 50.978 53.9374 51.0694L53.867 51.2805C53.867 51.2875 53.86 51.3016 53.86 51.3016C53.7967 51.4915 53.8178 51.7659 53.8248 51.9629C53.8318 52.181 53.8459 52.0543 53.7052 52.2584C53.5223 52.378 53.4942 52.5538 53.3746 52.6383C53.3324 52.6945 53.2972 52.7227 53.2761 52.7719L53.2198 52.9126C53.2198 52.9197 53.2057 52.9267 53.1987 52.9337C53.1635 52.9971 53.1776 52.9689 53.1635 53.0041L52.854 53.5388C52.5655 53.5317 52.7484 53.5177 52.5585 53.4543C51.9464 53.2574 51.9394 53.3277 51.257 53.3207C51.1655 53.3207 50.8208 53.3488 50.7223 53.391H50.6731C50.5535 53.4403 50.5535 53.4051 50.448 53.4192L49.5897 53.581H49.5404C49.3434 53.6724 49.1042 53.6513 49.0057 53.6513L48.45 53.581H48.4007C48.3022 53.5177 47.9575 53.4051 47.7887 53.4966L47.4369 53.8131L47.4228 53.8272L47.3947 53.8553L47.3806 53.8694L47.1837 54.0875C47.1696 54.1086 47.1414 54.1578 47.1414 54.1578L47.0781 54.3337V54.383C47.0148 54.5166 47.0641 54.3408 47.0218 54.5166C47.0007 54.6222 47.0359 54.6151 47.0429 54.7066C47.0641 54.8473 47.0007 54.7558 47.0781 54.9036V54.9528C47.0852 55.0021 47.0992 55.0865 47.0992 55.1076L47.2048 55.5578C47.254 55.6634 47.2821 55.593 47.2892 55.7478C47.3032 56.0081 47.5354 56.2614 47.6972 56.4654L47.7465 56.5357C47.7887 56.6061 47.6902 56.5568 47.8309 56.6553L48.0701 56.9367L48.1615 57.0282L48.253 57.1196L48.3444 57.2111L48.4359 57.3026L48.6259 57.4925L48.9565 57.7739C49.2238 57.9639 49.4419 58.189 49.5686 58.203L49.5193 58.2945C49.4068 58.2453 49.4912 58.2453 49.3786 58.2945H49.3294C49.2168 58.3438 49.252 58.3156 49.1535 58.3156C49.0902 58.3156 49.0339 58.3297 48.9143 58.3508C48.7525 58.3719 48.647 58.3367 48.5274 58.386H48.4781C48.3656 58.3367 48.45 58.3367 48.3374 58.386H48.2882L46.7615 58.4563C46.6771 58.4563 46.6912 58.4704 46.5364 58.4845H46.4872C46.3746 58.5337 46.459 58.5337 46.3465 58.4845H46.2972C45.9947 58.6322 45.8681 58.5056 45.6852 58.5759H45.6359C45.5234 58.5267 45.6078 58.5267 45.4952 58.5759H45.446C45.3193 58.6322 45.4108 58.597 45.2912 58.597C45.1997 58.597 45.2349 58.6041 45.1083 58.6181C44.8621 58.6392 44.7425 58.6252 44.6369 58.6674H44.5877C44.3977 58.6814 44.4259 58.6955 44.3133 58.6885L42.6952 58.8081C42.5264 58.8151 42.442 58.8221 42.3646 58.8573H42.3153C42.2028 58.8081 42.2872 58.8081 42.1746 58.8573H42.1254C42.0128 58.8081 42.0973 58.8081 41.9847 58.8573H41.9354H41.8862H41.837H41.7877H41.7385C41.6259 58.9066 41.7103 58.9066 41.5978 58.8573H41.5485C41.4148 58.9136 41.3375 58.8714 41.1827 58.8784L40.0008 58.9699C39.9093 58.9699 39.8179 58.991 39.6068 58.998L38.9455 59.0473H38.8963C38.7837 59.0965 38.8681 59.0965 38.7556 59.0473C38.643 59.0965 38.7274 59.0965 38.6149 59.0473H38.5656C38.2561 59.195 37.9254 59.0754 37.7636 59.1387H37.7144C37.6018 59.0895 37.6862 59.0895 37.5737 59.1387H37.5244L36.3566 59.2091C36.2792 59.2161 36.2862 59.2231 36.1526 59.2302H36.1033C35.9767 59.2794 35.2169 59.2794 35.1114 59.3216H35.0621C34.9496 59.3709 35.034 59.3709 34.9214 59.3216H34.8722C34.7455 59.3779 34.837 59.3427 34.7174 59.3427C34.6259 59.3427 34.6611 59.3498 34.5345 59.3638C34.2883 59.385 34.1687 59.3709 34.0631 59.4131H34.0139C33.9013 59.3638 33.9857 59.3638 33.8732 59.4131H33.8239C33.7184 59.4553 33.6903 59.4342 33.5707 59.4483C33.4018 59.4694 33.2471 59.4623 33.0712 59.4623L33.1486 59.2091C33.2541 58.9628 33.0853 58.1468 33.0853 58.1468L32.5576 57.5558C32.5506 57.5488 32.5365 57.5417 32.5295 57.5417C32.5224 57.5347 32.5084 57.5277 32.5013 57.5206C32.3958 57.4784 32.431 57.5066 32.3044 57.4784C32.2199 57.4573 32.227 57.4644 32.1848 57.4503C32.1355 57.4433 32.1425 57.4503 32.0792 57.4221H32.03C31.8963 57.3659 31.9526 57.4362 31.7697 57.3518L31.6712 57.3026C31.6571 57.2955 31.629 57.2815 31.6149 57.2744C31.6079 57.2744 31.6008 57.2603 31.5938 57.2603L31.5657 57.2041C31.5657 57.197 31.5586 57.183 31.5516 57.183L31.4601 56.9508C31.3194 56.5287 31.3828 56.3739 31.3828 55.7408C31.3828 55.6493 31.3828 55.6212 31.3828 55.5297L31.2702 54.6785C31.1998 54.4604 31.1928 54.6292 31.1928 54.4393C31.1928 54.0383 31.0943 54.1297 31.1013 53.8694C31.1013 53.7498 31.1084 53.7709 31.0802 53.595L31.1013 51.4564C31.1084 51.1679 30.9817 51.4142 30.9958 51.0835C31.0521 50.1127 30.8551 49.8594 31.1576 49.6624L31.2139 49.6272L31.3546 49.5358H31.4039C31.5375 49.4513 31.5797 49.374 31.6993 49.2614L32.2692 48.6916C32.5858 48.382 32.2621 48.5649 32.4943 48.3961L32.642 48.2132C32.6913 48.2413 32.7405 48.2694 32.7827 48.3328C32.8812 48.4946 32.642 48.3187 32.8742 48.4875C32.9094 48.9448 32.8742 48.6775 32.9797 48.8956C33.043 49.0363 32.9797 48.9026 33.0008 48.973L33.1837 49.6835C33.1978 49.7609 33.1626 49.7257 33.2189 49.8594L33.4651 50.6333C33.5285 50.9076 33.831 51.3016 33.845 51.3297C33.845 51.3368 33.8521 51.3438 33.8521 51.3508L33.8732 51.393C33.9154 51.4634 33.9295 51.4564 33.9858 51.5549C34.2179 51.9488 34.5063 52.0262 34.6119 52.2935L34.8933 52.8423C34.9285 53.0041 34.8159 52.786 34.9425 53.0604C35.1114 53.4473 35.0762 53.6091 35.0903 53.6443C35.1747 53.8553 35.1888 53.6443 35.1747 53.9257C35.1747 53.9609 35.1677 54.0594 35.1747 54.0664C35.1888 54.1156 35.1817 54.0875 35.2028 54.1297C35.3576 54.39 35.1888 54.1579 35.3084 54.5377C35.4139 54.8684 35.3365 54.8614 35.3576 55.0161C35.3928 55.2342 35.3154 54.8192 35.3787 55.0865C35.3998 55.185 35.3998 55.0583 35.3928 55.1568C35.3857 55.2975 35.3224 55.1357 35.4139 55.396L35.4491 55.586C35.442 55.7759 35.5898 56.388 35.6953 56.5568L36.1948 57.5558C36.1948 57.5629 36.2018 57.5769 36.2018 57.5769L36.4269 58.0483L36.9264 58.4985C36.9335 58.5056 36.9475 58.5126 36.9546 58.5126C36.9616 58.5196 36.9757 58.5267 36.9827 58.5337C37.0671 58.59 37.3556 58.8221 37.5033 58.6744L37.5174 58.2593C37.4752 58.0975 37.4259 58.2945 37.5033 58.1046H37.644C37.6581 58.2945 37.6651 58.2593 37.7847 58.3438L37.9184 58.4985C38.249 58.4 37.9676 58.393 38.1646 58.2523C38.1928 58.189 38.1716 58.2101 38.1857 58.1749C38.2631 57.9568 38.3616 58.0623 38.3757 57.8161L38.3827 57.7458C38.3827 57.7387 38.3897 57.7247 38.3968 57.7176C38.439 57.6121 38.3968 57.7669 38.4531 57.591V56.8664C38.4249 56.7679 38.3897 56.6624 38.3546 56.585C38.1646 56.4513 38.3897 56.5498 38.1717 56.2402L37.9254 55.79C37.6792 55.1639 37.7636 55.5508 37.5033 55.1639L36.8772 53.9679C36.8772 53.9609 36.8702 53.9468 36.8702 53.9468C36.8702 53.9398 36.8631 53.9257 36.8631 53.9257C36.7646 53.7006 36.7857 53.8905 36.7717 53.7146L36.6732 53.3629C36.6732 53.3558 36.6661 53.3418 36.6661 53.3418L36.4832 52.793C36.441 52.4483 36.4199 52.7508 36.3847 52.5116C36.3636 52.378 36.4058 52.582 36.3918 52.4413C36.3777 52.3217 36.3003 52.3146 36.2933 52.1036C36.2862 51.9348 36.3214 52.0825 36.237 51.9418C36.1948 51.8714 36.2018 51.9136 36.1948 51.8503C36.1877 51.787 36.2089 51.8433 36.2018 51.7518C36.1948 51.6533 36.1596 51.6252 36.1244 51.5408C36.1244 51.5337 36.1174 51.5197 36.1174 51.5197C35.9274 50.985 36.0822 50.3659 35.9837 50.1197C35.9274 49.979 35.9626 50.1408 35.9274 50.0071C35.8782 49.8101 36.0048 49.9579 35.843 49.5569L35.7938 49.3599C35.7656 49.2825 35.7938 49.3388 35.7445 49.2403L35.6249 49.0785C35.6249 49.0714 35.6179 49.0574 35.6109 49.0574C35.6109 49.0503 35.5968 49.0363 35.5968 49.0363L35.5194 48.8323L35.1817 47.5659C35.1817 47.5589 35.1747 47.5448 35.1747 47.5448L34.9707 45.7227C34.9566 45.582 34.9777 45.4273 34.9707 45.2725L34.9425 44.6675V44.6182L34.9003 44.4634C34.8229 44.2242 34.9285 44.1961 34.8511 43.9991L34.8018 43.9499V43.9006C34.7666 43.4926 34.7104 43.57 34.6822 43.4363C34.6611 43.3378 34.7244 43.38 34.64 43.2464C34.4852 42.9861 34.6259 43.2815 34.5837 42.965L34.4852 42.6273C34.4852 42.6273 34.4501 42.5217 34.443 42.5006C34.3234 42.2192 34.4501 42.3881 34.3727 42.1911V42.1418C34.3164 42.0574 34.3445 42.1207 34.3164 42.0574C34.2672 41.9378 34.3375 41.966 34.2249 41.8042C34.2179 41.7479 34.2109 41.6916 34.2038 41.6564C34.1616 41.3258 34.1546 41.6001 34.1053 41.2484C34.0842 41.1218 34.042 41.1921 34.0069 41.0373L33.3456 38.9549C33.3315 38.9198 33.3456 38.9479 33.3104 38.8846C33.226 38.7439 33.2541 38.9127 33.2541 38.6454C33.2541 38.4203 33.2189 38.6946 33.1486 38.1389C33.1064 37.7871 32.9727 37.766 32.7054 37.6394C32.5717 37.5479 32.6209 37.6323 32.431 37.4353C32.2199 37.2243 32.3536 37.3439 32.2762 37.161C32.3888 37.161 32.5154 37.1469 32.5506 37.1399C32.7616 37.0977 32.5224 37.0414 33.0923 37.0414C33.24 37.0414 33.6551 37.0695 33.7888 37.0203H33.838C34.1265 36.8796 34.3727 37.0132 34.7455 36.9077L35.9274 36.76C36.04 36.7529 35.9626 36.7529 36.047 36.7318L36.6169 36.6685C36.7717 36.6474 36.5676 36.6756 36.7365 36.6263L38.5234 36.359H38.5727C38.6852 36.3168 38.7274 36.3449 38.8681 36.3238C39.1073 36.2886 39.0651 36.2816 39.2832 36.2675H39.3324C39.4943 36.1901 39.6068 36.2042 39.7264 36.1972L39.8179 36.1761C40.0289 36.1057 40.1204 36.1761 40.3244 36.0776H40.3736L41.5485 35.8595C41.6751 35.8313 41.654 35.8384 41.7455 35.7962H41.7947C41.9706 35.8665 41.7244 35.8313 42.1184 35.768C42.3294 35.7328 42.4068 35.6625 42.5053 35.6977H42.5545C42.7304 35.6132 42.7726 35.6484 42.8852 35.6062H42.9344H42.9837H43.0329L43.9686 35.4303C43.9756 35.4303 43.9897 35.4233 43.9897 35.4233C44.1234 35.3811 44.3415 35.3881 44.4962 35.3248H44.5455L45.0098 35.2263C45.1364 35.1982 45.0028 35.2263 45.1224 35.2052C45.1997 35.1911 45.249 35.1771 45.3475 35.1349H45.3967C45.4812 35.0926 45.5515 35.0786 45.6359 35.0434H45.6852C45.9173 34.9308 45.8681 35.0153 46.0369 34.9238L46.1284 34.8675C46.1354 34.8605 46.1495 34.8535 46.1565 34.8464H46.2058H46.255C46.459 34.7479 46.3887 34.8394 46.6701 34.6987C47.0429 34.5158 47.0781 34.5509 47.3384 34.3751L47.859 34.0937L47.9997 34.0022L48.1897 33.8123L48.3796 33.6223L48.5063 33.3057C48.5063 33.2987 48.5133 33.2846 48.5203 33.2846L48.647 32.9751C48.647 32.968 48.654 32.954 48.654 32.954L48.6962 32.8414C48.8088 32.6515 49.1676 32.6937 49.4982 32.5811C49.6459 32.5319 49.7515 32.56 49.8922 32.4897H49.9414L50.8419 32.2082H50.8912C50.9474 32.1801 50.9615 32.1801 51.0248 32.152C51.1233 32.1098 51.0389 32.1309 51.1374 32.0957C51.1937 32.0746 51.2781 32.0816 51.4118 32.0183H51.461C51.5454 31.9761 51.6158 31.962 51.7002 31.9268H51.7495L53.269 31.4133C53.3605 31.3851 53.3394 31.3922 53.4027 31.357H53.452C53.9022 31.1389 53.867 31.2866 54.1625 31.167H54.2117H54.261H54.3102C54.4861 31.0826 54.5283 31.1178 54.6409 31.0756H54.6901C54.8027 31.0263 55.0982 31.0263 55.2107 30.9841H55.26C55.4359 30.8997 55.4781 30.9349 55.5906 30.8927H55.6399H55.6891H55.7384C55.9635 30.8012 57.0047 30.8575 57.1454 30.8083C57.4338 30.7168 57.3987 30.7731 57.5956 30.7168C57.7223 30.6816 57.6097 30.6324 57.7715 30.6957H57.8208C57.9333 30.6464 57.9615 30.6676 58.067 30.6746L59.0941 30.6042H59.1434H59.1926H59.2419L60.4589 30.4846C60.5785 30.4846 60.5434 30.4917 60.7122 30.4635C61.0006 30.4213 61.064 30.4635 61.1836 30.4143H61.2328H61.2821H61.3313C61.472 30.351 61.3594 30.3932 61.5212 30.3721C61.5916 30.365 61.5424 30.3791 61.6057 30.365C61.7042 30.3439 61.6549 30.358 61.7042 30.3228C61.873 30.3932 61.7534 30.3228 61.9082 30.3017C62.0418 30.2806 62.2951 30.2877 62.5202 30.2173C62.6258 30.1892 62.4921 30.2173 62.5976 30.2032C62.7946 30.1681 62.8931 30.1751 62.9846 30.1399H63.0338H63.083H63.1323C63.3152 30.0555 63.3433 30.1118 63.5474 30.0696L63.6599 30.0274C63.667 30.0274 63.681 30.0203 63.681 30.0203C63.8428 29.9851 64.1031 30.0063 64.3001 29.9359C64.5182 29.8585 64.5041 29.9359 64.7715 29.8444L64.8207 29.8304C64.9122 29.8093 64.9614 29.8093 65.074 29.753H65.1232C65.271 29.7389 65.6087 29.6756 65.6438 29.6615H65.6931C65.8056 29.6052 65.8549 29.6123 65.9463 29.5841C65.9534 29.5841 65.9674 29.5771 65.9674 29.5771L66.5936 29.4294C66.7202 29.3942 66.6569 29.4364 66.7835 29.3801H66.8328H66.882H66.9313C67.0298 29.3309 67.079 29.3309 67.1564 29.3098L67.5574 29.1761C67.6911 29.1339 67.7614 29.1761 67.9232 29.0987H67.9725L68.4508 28.958C68.5845 28.9228 68.5282 28.9228 68.683 28.9088H68.7323C68.7604 28.8947 68.8167 28.8736 68.8307 28.8666C68.9222 28.8243 68.873 28.8455 68.9222 28.8103H68.9715H69.0207C69.1122 28.7681 69.091 28.7751 69.2177 28.747L69.8227 28.5289H69.8719C69.9001 28.5148 69.9564 28.4937 69.9704 28.4867C70.0619 28.4445 70.0126 28.4656 70.0619 28.4304C70.1745 28.3811 70.2167 28.4233 70.3925 28.3389H70.4418L70.5825 28.2475H70.6317C70.6951 28.2193 70.7584 28.1982 70.8287 28.163C70.9202 28.1208 70.8217 28.163 70.9202 28.1138C70.9765 28.0857 70.9976 28.0857 71.0538 28.0575C71.0609 28.0505 71.075 28.0294 71.082 28.0364L71.6729 27.7269C71.68 27.7198 71.694 27.7128 71.7011 27.7128C71.7081 27.7058 71.7222 27.6987 71.7292 27.6917C71.7363 27.6847 71.7503 27.6776 71.7574 27.6706L72.1373 27.4806C72.1935 27.4525 72.2146 27.4525 72.2709 27.4244C72.3413 27.3892 72.3553 27.3821 72.4257 27.347C72.5383 27.2907 72.6016 27.2626 72.7071 27.2063C72.8056 27.157 72.9041 27.1078 72.9885 27.0656L73.3121 26.9178H73.3614C73.3965 26.8967 73.4739 26.8756 73.495 26.8615C73.5865 26.8123 73.5654 26.8053 73.6357 26.7701L74.4518 26.4394H74.5011H74.5503L75.8377 25.9681C75.9433 25.9259 75.7885 25.9681 75.9573 25.9118C76.1402 25.8555 75.9855 25.9399 76.1543 25.8696H76.2036C76.288 25.8274 76.3583 25.8133 76.4428 25.7781H76.492C76.5975 25.7359 76.5624 25.7641 76.689 25.7359C76.7734 25.7148 76.7664 25.7219 76.8086 25.7078C76.8578 25.7008 76.8508 25.7078 76.9141 25.6796H76.9634H77.0126H77.0619L77.4277 25.56C77.7161 25.4967 77.6176 25.6726 77.6176 25.7078V25.8766C77.6176 25.8837 77.6176 25.8977 77.6176 25.8977V26.2495C77.6176 26.2565 77.6106 26.2706 77.6106 26.2706C77.5895 26.3761 77.6387 26.4254 77.5895 26.5309L77.5051 26.6997C77.3362 27.0656 77.3573 26.9319 77.1955 27.1289C77.0689 27.2837 77.2096 27.1992 77.0619 27.3681C76.9634 27.5088 76.9704 27.4806 76.9071 27.5791ZM73.4036 25.7781H73.4528L73.4106 25.8344L73.4036 25.7781ZM72.4538 26.158H72.5031L72.4609 26.2143L72.4538 26.158ZM86.6507 26.9108H86.7L86.6578 26.9671L86.6507 26.9108ZM92.9472 27.1007V27.15L92.8909 27.1078L92.9472 27.1007ZM85.9894 27.15V27.1992L85.9331 27.157L85.9894 27.15ZM69.9915 27.2907H70.0408L69.9986 27.347L69.9915 27.2907ZM72.1232 27.5299H72.0739L72.1161 27.4736L72.1232 27.5299ZM76.9071 27.5791H76.9563L76.9141 27.6354L76.9071 27.5791ZM71.7433 27.7198H71.694L71.7363 27.6636L71.7433 27.7198ZM76.7171 27.7691H76.7664L76.7242 27.8254L76.7171 27.7691ZM68.479 27.8605H68.5282L68.486 27.9168L68.479 27.8605ZM76.6186 27.8605H76.6679L76.6257 27.9168L76.6186 27.8605ZM75.9573 28.3319H76.0066L75.9644 28.3882L75.9573 28.3319ZM66.5865 28.4304H66.6358L66.5936 28.4867L66.5865 28.4304ZM70.0408 28.4726H69.9915L70.0338 28.4163L70.0408 28.4726ZM68.9081 28.8525H68.8589L68.9011 28.7962L68.9081 28.8525ZM60.9092 29.1831H60.9584L60.9162 29.2394L60.9092 29.1831ZM53.7122 29.9429H53.7615L53.7193 29.9992L53.7122 29.9429ZM61.7112 30.3721H61.6619L61.7042 30.3158L61.7112 30.3721ZM50.8771 30.7027H50.9263L50.8841 30.759L50.8771 30.7027ZM39.7053 31.8354H39.7546L39.7123 31.8917L39.7053 31.8354ZM47.0852 32.7851C46.8108 32.9821 47.2118 32.7781 46.9445 32.9751L46.7545 33.165C46.7475 33.1721 46.7334 33.1721 46.7264 33.1861L46.3535 33.3831C46.051 33.5379 46.1073 33.4394 45.9525 33.5449C45.8681 33.5871 45.7977 33.6012 45.7133 33.6364H45.6641C45.5796 33.6786 45.5093 33.6927 45.4249 33.7278H45.3756L45.0239 33.8545C44.9043 33.8826 44.9394 33.8756 44.855 33.9178H44.8058C44.6791 33.9811 44.5947 33.9811 44.5314 33.9952C44.3977 34.0374 44.5455 33.9952 44.4118 34.0444L44.2359 34.1077H44.1867H44.1374C43.9616 34.1922 43.4832 34.2273 43.3354 34.2977H43.2862C43.1173 34.3751 42.9696 34.3469 42.857 34.3891H42.8078C42.7023 34.4313 42.7374 34.4032 42.6108 34.4313C42.5264 34.4525 42.5334 34.4454 42.4912 34.4595C42.442 34.4665 42.449 34.4595 42.3857 34.4876H42.3364C42.238 34.5369 42.0973 34.5509 42.0128 34.558L41.3797 34.6494C41.2671 34.6635 41.3656 34.6283 41.246 34.6776H41.2179L40.4932 34.7479C40.451 34.755 40.3877 34.7761 40.3103 34.7901C40.247 34.8042 39.9093 34.7972 39.7475 34.8675H39.6983H39.649H39.5998H39.5505H39.5013C39.3254 34.9519 39.0299 34.9027 38.8892 34.959H38.84C38.7063 34.9731 38.7134 34.9801 38.636 34.9801C38.1294 35.0082 37.7918 35.0997 37.3556 35.1208C37.2571 35.1278 37.2923 35.0997 37.1797 35.1419H37.1305C37.0038 35.1982 36.7224 35.1349 36.5184 35.2334H36.4692C36.3566 35.1841 36.441 35.1841 36.3284 35.2334H36.2792C36.1385 35.2896 35.6953 35.2896 35.5968 35.3178C35.4068 35.36 35.4491 35.367 35.238 35.3741C35.0058 35.3881 34.9144 35.3811 34.8089 35.4233H34.7596C34.6471 35.4725 34.7315 35.4725 34.6189 35.4233H34.5697C34.3797 35.5148 34.1264 35.4514 33.8521 35.5148C33.6903 35.5499 33.7043 35.557 33.4792 35.564C33.2752 35.571 33.1908 35.5781 33.0993 35.6132H33.0501C32.9375 35.6625 33.0219 35.6625 32.9094 35.6132H32.8601C32.7546 35.6625 32.5998 35.6836 32.5154 35.6836C32.4662 35.6836 32.4521 35.6766 32.4028 35.6836L32.2129 35.7328C32.2059 35.7328 32.1496 35.7399 32.1425 35.7399L30.3556 35.9017H30.3064C30.1375 35.9791 29.9898 35.9509 29.8772 35.9931L29.5818 35.768C29.4762 35.6625 29.4059 35.5921 29.3004 35.4866C29.0119 35.1982 29.1315 35.3529 28.9697 35.2474C28.8079 35.1419 28.9838 35.17 28.6039 35.0434C28.1536 34.8957 27.4712 35.0364 27.1757 35.2404L26.4159 35.6203L26.1556 35.7399C26.0712 35.7821 26.0501 35.7962 25.9938 35.8243C25.9235 35.8595 25.8602 35.8806 25.7969 35.9087H25.7476L25.6562 36.0002L25.1074 36.155C24.9526 36.1901 25.1215 36.1127 24.9456 36.1901H24.8964C24.7768 36.2394 24.7697 36.2042 24.6361 36.2183C24.5868 36.2253 24.4954 36.2394 24.4461 36.2464C24.3124 36.2675 24.3969 36.2323 24.2843 36.2816H24.2351C23.3346 36.359 22.9969 36.2886 22.3426 36.3308L21.6391 36.3449C21.4773 36.3449 21.4491 36.3379 21.2944 36.3449L20.9708 36.373H20.9215C20.8089 36.4223 20.8934 36.4223 20.7808 36.373H20.7316C20.4291 36.5208 20.3024 36.3941 20.1195 36.4645H20.1125C19.9999 36.5137 20.0843 36.5137 19.9718 36.4645H19.9225C19.81 36.5137 19.8944 36.5137 19.7818 36.4645H19.7326C19.62 36.5137 19.7044 36.5137 19.5919 36.4645H19.5426C19.4301 36.5137 19.5145 36.5137 19.4019 36.4645H19.3527C19.2401 36.5137 19.3245 36.5137 19.212 36.4645H19.1627C19.0502 36.5137 19.1346 36.5137 19.022 36.4645H18.9728C18.8602 36.5137 18.9446 36.5137 18.8321 36.4645H18.7828C18.6703 36.5137 18.7547 36.5137 18.6421 36.4645H18.5929C18.4803 36.5137 18.5647 36.5137 18.4522 36.4645H18.4029C18.3044 36.5067 18.1708 36.5067 18.0723 36.4645H18.023C17.9245 36.5067 17.7909 36.5067 17.6924 36.4645H17.6502C17.5517 36.5067 17.418 36.5067 17.3195 36.4645H17.2703C17.1718 36.5067 17.0381 36.5067 16.9396 36.4645H16.8904C16.7919 36.5067 16.6582 36.5067 16.5597 36.4645H16.5105C16.412 36.5067 16.2783 36.5067 16.1798 36.4645H16.1306C16.018 36.5137 16.1024 36.5137 15.9899 36.4645H15.9406C15.8281 36.5137 15.9125 36.5137 15.7999 36.4645H15.7507C15.6522 36.5067 15.5185 36.5067 15.42 36.4645H15.3708C15.2582 36.5137 15.3427 36.5137 15.2301 36.4645H15.1879C15.0753 36.5137 15.1597 36.5137 15.0472 36.4645H14.9979C14.8854 36.5137 14.9698 36.5137 14.8572 36.4645H14.808C14.6954 36.5137 14.7798 36.5137 14.6673 36.4645H14.618C14.5055 36.4153 14.5899 36.4153 14.4773 36.4645H14.4281L13.0562 36.4153C12.9296 36.4153 12.817 36.4153 12.6904 36.4082L12.4723 36.3871C12.4653 36.3871 12.4512 36.3801 12.4442 36.373C12.3316 36.4223 12.416 36.4223 12.3035 36.373H12.2542C12.1417 36.4223 12.2261 36.4223 12.1135 36.373H12.0643L11.0583 36.3027C11.009 36.2957 10.9879 36.2886 10.8753 36.2816H10.8261C10.6995 36.2323 10.615 36.2605 10.4884 36.2605C10.397 36.2605 10.0944 36.2183 10.0241 36.1901H9.98188C9.88339 36.1479 9.56681 36.1268 9.45425 36.0987C9.29244 36.0635 9.34872 36.0776 9.17284 36.0494C9.01104 36.0283 8.97586 36.0354 8.89144 36.0002H8.84219C8.68742 35.9228 8.65928 35.965 8.49747 35.9228L7.98391 35.7188C7.85727 35.6625 8.04019 35.6836 7.80099 35.6625C7.91356 35.4937 8.01205 35.5007 8.26531 35.4444C8.39194 35.4163 8.37084 35.4233 8.4623 35.3811H8.51154L9.27837 35.1349C9.59495 35.0293 9.6442 35.0715 9.82711 35.0153C9.83415 35.0153 9.84118 35.0082 9.84822 35.0082H9.97485H10.0241C10.2 34.9238 10.2422 34.959 10.3547 34.9168H10.404H10.4532H10.5025C10.6924 34.8253 10.8824 34.8605 10.9668 34.8394L11.7266 34.7057C11.7547 34.6987 12.2191 34.6846 12.3527 34.6354H12.402C12.4864 34.6002 12.5005 34.6072 12.599 34.6002C12.6271 34.6002 12.7185 34.5932 12.7326 34.5932C12.9366 34.558 12.6552 34.6213 12.81 34.5791L12.8733 34.5439C12.9859 34.5932 12.9015 34.5932 13.014 34.5439H13.0633C13.2603 34.6213 13.0773 34.5158 13.3376 34.5228L14.0482 34.4736C14.1256 34.4736 14.1326 34.4806 14.1889 34.4665C14.3507 34.4243 14.1537 34.3751 14.3437 34.4525H14.3929C14.5618 34.368 14.7869 34.4102 14.9135 34.361H14.9628C15.1808 34.4525 14.9768 34.2695 15.202 34.361H15.2512L17.8542 34.0796H17.9034C18.0019 34.0374 18.1497 34.0585 18.2904 34.0444C18.4029 34.0303 18.5647 34.0163 18.5999 34.0092C18.7125 34.0022 18.6773 34.0163 18.8039 33.9881L19.7396 33.8896H19.7889H19.8381H19.8873L20.2672 33.8474C20.2743 33.8474 20.3517 33.8404 20.3517 33.8404C20.4502 33.8193 20.4009 33.8334 20.4502 33.7982C20.5627 33.8474 20.4783 33.8474 20.5909 33.7982H20.6401C20.8582 33.8896 20.6542 33.7067 20.8793 33.7982H20.9285C21.0974 33.7278 21.5617 33.8052 22.2019 33.7419L23.0954 33.7138C23.2994 33.6997 23.018 33.6082 23.2501 33.7067H23.2994C23.4119 33.6575 23.3275 33.6575 23.4401 33.7067H23.4893L24.5235 33.6364C24.6853 33.6293 24.833 33.6645 24.9597 33.6153H25.0089C25.1215 33.6645 25.0371 33.6645 25.1496 33.6153H25.1989H25.2481H25.2974C25.4099 33.566 25.3255 33.566 25.4381 33.6153H25.4873C25.6139 33.566 25.9094 33.5942 26.0431 33.5942L27.7667 33.552C27.8793 33.5449 27.7034 33.552 27.8582 33.552C28.027 33.552 28.3576 33.559 28.4632 33.5168H28.5124C28.6109 33.559 28.7446 33.559 28.8431 33.5168H28.8923C29.0049 33.566 28.9205 33.566 29.033 33.5168H29.0823C29.2863 33.6012 29.0682 33.5168 29.237 33.5097L30.5104 33.4957C30.5667 33.4886 30.6019 33.4746 30.7355 33.4746L32.4662 33.4605C32.7265 33.4605 32.8038 33.4535 33.0008 33.4535C33.3878 33.4535 33.1908 33.4253 33.3526 33.4042L34.1476 33.3339H34.1968H34.246H34.2953C34.4079 33.2846 34.3234 33.2846 34.436 33.3339H34.4852C34.5837 33.2917 34.7174 33.2917 34.8159 33.3339H34.8651C34.9918 33.2846 35.1677 33.3128 35.3013 33.3128C35.3928 33.3128 35.4209 33.3057 35.5335 33.3057L37.2782 33.2424H37.3274C37.5385 33.3339 37.2852 33.2494 37.5315 33.2143C37.5877 33.2072 37.644 33.2213 37.7214 33.2143C37.9114 33.2002 38.2279 33.1861 38.3264 33.1439H38.3757H38.4249H38.4742C38.6078 33.0876 38.9807 33.1228 39.234 33.1158C39.3254 33.1158 39.6068 33.1017 39.7757 33.0806C39.9093 33.0665 40.0078 33.0947 40.1274 33.0454H40.1767C40.2892 33.0947 40.2048 33.0947 40.3174 33.0454H40.3666C40.4792 33.0947 40.3948 33.0947 40.5073 33.0454H40.5566C40.6691 33.0947 40.5847 33.0947 40.6973 33.0454H40.7465C40.9646 33.1369 40.7606 32.954 40.9857 33.0454H41.035C41.1475 32.9962 41.0631 32.9962 41.1757 33.0454H41.2249C41.4008 32.9751 41.8299 33.0525 42.1254 33.0032C42.2802 32.9751 42.3083 32.961 42.4842 32.9329C42.8711 32.8766 43.3917 32.9188 43.5465 32.8555H43.5957H43.645H43.6942L44.5947 32.8062C44.8972 32.8273 45.2912 32.8203 45.5515 32.7499L47.1977 32.6233C47.057 32.7922 47.1696 32.5881 47.0852 32.7851ZM47.0852 32.7851H47.1344L47.0922 32.8414L47.0852 32.7851ZM71.891 32.9751H71.9403L71.8981 33.0314L71.891 32.9751ZM45.9525 33.5449H46.0017L45.9595 33.6012L45.9525 33.5449ZM20.4431 33.7771H20.3939L20.4361 33.7208L20.4431 33.7771ZM70.5614 33.9178H70.6106L70.5684 33.9741L70.5614 33.9178ZM44.25 34.1077H44.2992L44.257 34.164L44.25 34.1077ZM47.8942 34.157H47.845L47.8872 34.1007L47.8942 34.157ZM7.51959 34.4876H7.56883L7.52662 34.5439L7.51959 34.4876ZM12.8733 34.5369H12.8241L12.8663 34.4806L12.8733 34.5369ZM67.1564 34.6776H67.2056L67.1634 34.7339L67.1564 34.6776ZM46.1917 34.9168H46.1425L46.1847 34.8605L46.1917 34.9168ZM90.8155 37.8997V37.9489L90.8015 38.167C90.7874 38.3992 90.6959 38.5821 90.5763 38.7298C90.4849 38.8494 90.6326 38.7017 90.4989 38.8635C90.2105 39.2012 90.4919 38.9549 90.2879 39.173C89.8517 39.6303 90.2879 39.2152 89.9502 39.5951C89.8376 39.7288 89.915 39.6092 89.8447 39.778C89.8306 39.8132 89.8236 39.8273 89.8095 39.8625L89.6336 40.2142C89.6336 40.2213 89.6266 40.2353 89.6196 40.2353C89.6125 40.2424 89.6125 40.2705 89.6055 40.2846C89.5844 40.3197 89.6266 40.2986 89.5351 40.369C89.4085 40.1087 89.5562 39.6022 89.5844 39.3278V39.2715C89.6266 39.1801 89.6336 39.1308 89.5773 39.0464C89.514 38.9549 89.4366 38.8987 89.3522 38.8424H89.303L89.1693 38.7439L89.303 38.4695V38.4203C89.3593 38.2866 89.303 38.371 89.3452 38.2233C89.3733 38.1178 89.3874 38.1107 89.4155 37.9841C89.4789 37.7097 89.5 37.9278 89.514 37.5831C89.5211 37.4565 89.704 36.957 89.7321 36.6263C89.7814 36.556 89.8025 36.5841 89.8025 36.4012L89.8728 36.155C89.908 35.7047 89.9713 35.9439 89.9854 35.6203C89.9995 35.3811 89.9924 35.7399 90.0839 35.3178C90.0909 35.2685 90.0909 35.2967 90.112 35.2545C90.2527 35.0153 90.1191 35.1771 90.2035 34.9801C90.2457 34.8816 90.2738 34.8816 90.3442 34.7831C90.6397 34.9801 90.4638 34.7198 90.7522 34.9379L90.9351 35.1911C90.9351 35.1911 90.9492 35.3037 90.9562 35.3459C90.9914 35.8384 90.8788 35.8102 91.0125 36.3379C91.0477 36.4645 91.0055 36.4997 91.0477 36.556C91.0477 36.556 91.0618 36.57 91.0688 36.57C91.0688 36.57 91.0829 36.5771 91.0899 36.5841C91.0899 36.5841 91.104 36.5911 91.111 36.5982L91.1321 36.6333C91.1321 36.6333 91.1462 36.7529 91.1532 36.8163C91.0055 36.8303 90.8859 36.8655 90.8085 36.9429C90.717 37.0343 90.7522 37.1469 90.7522 37.2524C90.7522 37.9067 90.7803 37.4213 90.8155 37.8997ZM27.2109 35.2474H27.2602L27.218 35.3037L27.2109 35.2474ZM66.0167 35.2474H66.0659L66.0237 35.3037L66.0167 35.2474ZM26.4511 35.6273H26.5004L26.4582 35.6836L26.4511 35.6273ZM25.6984 36.0072H25.7476L25.7054 36.0635L25.6984 36.0072ZM29.9054 36.0072V36.0565L29.8491 36.0143L29.9054 36.0072ZM65.074 36.0072H65.1232L65.081 36.0635L65.074 36.0072ZM64.9755 36.0987H65.0247L64.9825 36.155L64.9755 36.0987ZM6.19698 36.2394V36.1901L6.25326 36.2323L6.19698 36.2394ZM89.7321 36.6193H89.6829L89.7251 36.563L89.7321 36.6193ZM91.1954 36.76L91.2095 36.774C91.2095 36.774 91.1954 36.767 91.1954 36.76ZM22.4763 37.4705V37.4213L22.5326 37.4635L22.4763 37.4705ZM22.2863 37.7097H22.3356L22.2934 37.766L22.2863 37.7097ZM32.7476 37.7097V37.759L32.6913 37.7168L32.7476 37.7097ZM56.7444 37.8997H56.7936L56.7514 37.9559L56.7444 37.8997ZM56.0831 38.371H56.1323L56.0901 38.4273L56.0831 38.371ZM15.8984 39.0323V39.0816L15.8421 39.0394L15.8984 39.0323ZM17.9316 39.0816V39.0323L17.9879 39.0745L17.9316 39.0816ZM55.1333 39.1308H55.1826L55.1404 39.1871L55.1333 39.1308ZM54.662 39.4122H54.7112L54.669 39.4685L54.662 39.4122ZM89.5422 40.362V40.4112L89.4859 40.369L89.5422 40.362ZM51.3484 41.0233H51.3977L51.3555 41.0795L51.3484 41.0233ZM54.8942 41.3539H54.8449L54.8871 41.2976L54.8942 41.3539ZM34.2601 41.8745V41.9238L34.2038 41.8815L34.2601 41.8745ZM50.5464 41.9238H50.4972L50.5394 41.8675L50.5464 41.9238ZM17.5587 42.3037V42.2544L17.615 42.2966L17.5587 42.3037ZM54.472 42.8243H54.5213L54.4791 42.8805L54.472 42.8243ZM57.1243 43.2042H57.1735L57.1313 43.2604L57.1243 43.2042ZM53.0017 43.6263H52.9525L52.9947 43.57L53.0017 43.6263ZM53.9022 43.9569H53.9514L53.9092 44.0132L53.9022 43.9569ZM57.0258 44.4775V44.4283L57.0821 44.4705L57.0258 44.4775ZM58.5876 44.4775H58.5384L58.5806 44.4212L58.5876 44.4775ZM58.1655 44.6252H58.2147L58.1725 44.6815L58.1655 44.6252ZM18.1215 44.766V44.7167L18.1778 44.7589L18.1215 44.766ZM63.7443 46.2785C63.9765 46.6232 63.7303 46.37 63.9695 46.6232C64.1242 46.785 64.0046 46.6654 64.0609 46.7921L64.7996 47.5941C64.8067 47.6011 64.8207 47.6081 64.8278 47.6152C64.884 47.6504 64.884 47.6644 64.9333 47.6996L65.2991 47.9458C65.2569 48.0373 65.2639 48.0162 65.2358 48.1428L65.0881 48.8534C65.081 48.9448 65.1021 48.8323 65.081 48.9237L65.0388 49.0433C64.9333 49.3458 65.0458 49.184 64.9685 49.3599V49.4091C64.9333 49.5006 64.9614 49.4443 64.9403 49.5147L64.4971 50.2111L64.1172 50.4996C64.1102 50.5066 64.1031 50.5137 64.0961 50.5137L63.7443 50.774L63.1745 51.1539C63.1041 51.2031 63.1464 51.182 63.0901 51.2031L63.0408 51.2172C62.8439 51.2875 62.9986 51.2664 62.7876 51.379C62.6539 51.4493 62.7102 51.4001 62.5906 51.5126L62.2599 51.8714C62.1052 52.195 62.0489 52.3146 62.1685 52.6805C62.2459 52.9126 62.3373 52.9478 62.3444 53.1237C62.3655 53.4051 62.5343 53.384 62.3866 53.7217C62.2599 54.0172 62.4428 53.8624 62.267 54.1227V54.1719C62.2459 54.4533 62.274 54.9458 62.1755 55.1639L61.8941 54.9247L61.8027 54.8332L61.7253 54.7769C61.7182 54.7769 61.7112 54.7629 61.7042 54.7629L61.5986 54.6503C61.5986 54.6503 61.5916 54.6362 61.5846 54.6292C61.5705 54.6081 61.6057 54.6081 61.5142 54.5448C61.4509 54.4533 61.3946 54.397 61.3102 54.3126C61.1836 54.193 61.2117 54.2352 61.0991 54.2352L60.5645 54.1649H60.5152C60.4027 54.1156 60.4871 54.1156 60.3745 54.1649H60.3253C60.2409 54.1227 60.1705 54.1086 60.0861 54.0734H60.0368C59.9524 54.0312 59.8821 54.0171 59.7976 53.982H59.7484C59.5584 53.8553 59.6851 53.9679 59.4881 53.8624C59.474 53.8553 59.4388 53.8342 59.4248 53.8272L59.3685 53.792C59.3052 53.7639 59.2419 53.7428 59.1715 53.7076C59.0801 53.6654 59.1786 53.7076 59.0801 53.6584C59.0238 53.6302 59.0027 53.6302 58.9464 53.6021C58.9042 53.5669 58.9534 53.5739 58.8268 53.5388L58.6087 53.4684C58.5454 53.4403 58.5313 53.4403 58.475 53.4121H58.4258C58.2288 53.2785 58.3554 53.384 58.1866 53.3207H58.1373C58.0389 53.2785 58.0881 53.2996 57.9755 53.2855C57.863 53.2714 57.7786 53.2644 57.666 53.2785L57.3424 53.377C57.3353 53.384 57.3213 53.391 57.3142 53.3981C57.3072 53.4051 57.2931 53.4121 57.2861 53.4192L56.9695 53.6724C56.7092 53.8976 56.9203 53.785 56.7233 53.9398C56.7163 53.9468 56.7022 53.9538 56.6951 53.9609L56.3856 54.1719L56.0057 54.3619H55.9565C55.8439 54.4111 55.9283 54.4111 55.8158 54.3619H55.7665C55.6539 54.4111 55.7384 54.4111 55.6258 54.3619H55.5766C55.464 54.4111 55.5484 54.4111 55.4359 54.3619H55.3866C55.2741 54.4111 55.3585 54.4111 55.2459 54.3619H55.1967C55.0841 54.3126 55.1685 54.3126 55.056 54.3619H55.0067C54.8801 54.3126 54.9715 54.3548 54.8449 54.3267L54.5283 54.2423C54.4509 54.2282 54.4017 54.2212 54.3032 54.1719H54.254C53.9092 53.9398 54.1766 54.1156 53.9725 54.0312L54.2399 53.4543C54.5283 53.1166 54.2399 53.3488 54.5002 53.0955C54.7675 52.8352 54.5635 52.9478 54.7183 52.8423C54.7746 52.8071 54.7323 52.8845 54.8238 52.7649C54.9504 52.6101 54.7112 52.8212 54.8801 52.6664L54.9293 52.6312C54.9364 52.6242 54.9504 52.6172 54.9575 52.6101L55.0489 52.5187L55.6188 51.9488L56.0127 51.5267C56.0127 51.5267 56.0268 51.5126 56.0338 51.5126L56.0479 51.4986C56.0901 51.4423 56.069 51.386 56.2308 51.2734L56.3786 51.189C56.4841 51.1398 56.5615 51.1046 56.7092 51.0976C56.7796 50.992 56.7866 51.0131 56.864 50.9217C56.9625 50.8021 57.0961 50.4011 57.1946 50.19C57.3142 49.9227 57.1102 50.2885 57.3564 49.9508C57.4479 49.8242 57.3002 49.8453 57.5605 49.6765L57.9263 49.4302C57.9333 49.4232 57.9474 49.4162 57.9544 49.4162C57.9615 49.4091 57.9755 49.4021 57.9826 49.3951C58.067 49.3388 58.067 49.3177 58.1373 49.2684C58.3343 49.1277 58.1092 49.388 58.5876 48.9096C58.6931 48.8041 58.7635 48.7338 58.869 48.6282L59.1856 48.375C59.1926 48.375 59.2067 48.3609 59.2137 48.3539L59.3544 48.2624H59.4037L59.5444 48.171C59.5514 48.1639 59.5655 48.1569 59.5725 48.1498L59.6851 48.0725L59.9454 47.77C60.079 47.6292 59.875 47.8544 59.9946 47.7207L60.5574 47.186C60.5645 47.179 60.5996 47.1649 60.6137 47.1579C60.7052 47.0946 60.677 47.1016 60.7474 47.0524L61.2539 46.7569H61.3032C61.3665 46.7147 61.3805 46.6865 61.4368 46.6514C61.5072 46.6092 61.5564 46.6021 61.6338 46.5669H61.6831C61.7112 46.5529 61.7675 46.5318 61.7815 46.5247C61.873 46.4825 61.8238 46.5036 61.873 46.4685C61.9996 46.4051 62.0841 46.4051 62.1474 46.3911C62.2881 46.3418 62.1192 46.384 62.3021 46.3348C62.4288 46.2996 62.3655 46.3418 62.4921 46.2855H62.5413L62.865 46.18C62.872 46.18 62.8861 46.1659 62.8931 46.1659L63.3785 46.0182C63.5263 45.969 63.3363 46.0112 63.5333 45.9549C63.5333 45.9619 63.5403 45.9619 63.5403 45.976C63.5403 45.9901 63.5544 46.0112 63.5544 46.0182C63.5544 46.0252 63.5614 46.0393 63.5614 46.0393L63.7443 46.2785ZM54.8942 46.2785H54.8449L54.8871 46.2222L54.8942 46.2785ZM57.877 46.2293H57.9263L57.8841 46.2855L57.877 46.2293ZM63.7443 46.2785V46.2293L63.8006 46.2715L63.7443 46.2785ZM61.9011 46.4685H61.8519L61.8941 46.4122L61.9011 46.4685ZM73.5935 47.1298H73.6428C73.896 47.2353 74.6629 47.2916 74.7332 47.3197H74.7825H74.8317H74.881C75.092 47.4182 75.4649 47.3338 75.7885 47.4323L76.1614 47.4604C76.2669 47.4745 76.4005 47.4885 76.4357 47.4885C76.5412 47.4956 76.5201 47.4674 76.6327 47.5167H76.682H76.7312H76.7804C76.893 47.5659 76.8086 47.5659 76.9212 47.5167H76.9704C77.097 47.5659 77.09 47.5237 77.1955 47.5448C77.1955 47.5448 77.3433 47.58 77.3503 47.58C77.4558 47.6011 77.3644 47.5589 77.484 47.6081H77.5332C77.5895 47.6363 77.6036 47.6363 77.6669 47.6644C77.7654 47.7066 77.6809 47.6855 77.7794 47.7137C77.8357 47.7348 77.9201 47.7348 78.0538 47.7911H78.1031H78.1523H78.2015C78.293 47.8333 78.5955 47.8192 78.6377 47.8122L78.8277 47.7629C78.898 47.7559 78.9895 47.7348 79.102 47.7911H79.1513C79.4257 47.988 79.0247 47.784 79.292 47.981L79.4116 48.2765C79.6437 48.8815 79.3975 49.1488 79.5382 49.388L79.8689 49.9579C79.9463 50.1126 80.0025 50.3659 79.9744 50.5277C79.8478 51.2312 79.9814 50.8724 79.9814 51.3086C79.9744 51.6674 79.9603 51.4564 80.0236 51.7096C80.0658 51.8714 79.9885 51.7448 80.1362 51.9699L80.3402 52.385V52.4342L80.2699 52.6805C80.2558 52.7368 80.2699 52.6805 80.2417 52.7579C80.2206 52.8071 80.1995 52.8282 80.1854 52.9126L80.1503 53.0885C80.1221 53.2011 80.1362 53.1307 80.1292 53.2292L80.087 53.4473C80.087 53.4473 80.087 53.5247 80.087 53.5458L80.0307 54.9036C80.0236 54.988 79.9814 55.2131 79.9814 55.2624C79.9674 55.7478 79.89 56.0573 79.89 56.1629C79.89 56.2965 79.904 56.4091 79.8548 56.5639L79.8126 56.6835C79.7915 56.7397 79.8055 56.6553 79.7915 56.7538C79.7633 56.9438 79.8548 57.0845 79.7211 57.3588L79.7774 57.4503L79.7211 57.5488C79.7704 57.598 79.7704 57.4644 79.7704 57.6895V57.7387C79.8478 57.9287 79.7704 57.7458 79.7985 57.8724C79.7985 57.8865 79.8055 57.9216 79.8126 57.9287C79.8407 57.999 79.8407 57.985 79.8689 58.0201C79.9181 58.1327 79.9181 58.0483 79.8689 58.1608C80.101 58.1819 80.0166 58.2593 80.2347 58.2804C80.3824 58.2945 80.3613 58.2242 80.4809 58.4L80.1995 58.4493H80.1503C79.6086 58.4915 79.4608 58.4633 78.9262 58.4633L78.6799 58.4493H78.6307H78.49H78.4407H78.3H78.2508H78.1101H78.0608H77.9201H77.8709H77.7302H77.6809H77.5402H77.491H77.3503H77.301H77.1603H77.1111C76.9985 58.4 77.083 58.4 76.9704 58.4493H76.9212H76.7804H76.7312C76.5413 58.3719 76.682 58.5407 76.5412 58.3578C76.7171 58.3438 76.6327 58.3508 76.6749 58.2804C76.682 58.2664 76.7171 58.2101 76.7171 58.2101C76.9071 57.8513 76.7242 58.1538 77.0407 57.8161L77.1111 57.7387C77.1111 57.7387 77.1533 57.6825 77.1744 57.6613C77.3925 57.4081 77.301 57.6121 77.4277 57.3307C77.4699 57.2463 77.5191 57.2181 77.5825 57.1759L77.688 57.0211C77.688 57.0141 77.695 57.0071 77.695 57C77.695 56.993 77.702 56.986 77.702 56.9789C77.702 56.9719 77.7091 56.9649 77.7091 56.9578L77.8005 56.8382C77.8498 56.782 77.9272 56.7186 77.9553 56.6694C78.0679 56.4794 77.8076 56.7749 78.1031 56.4302L78.2438 56.198C78.2508 56.191 78.2578 56.1769 78.2649 56.1699C78.3141 56.1136 78.3915 56.0503 78.4196 56.0011C78.5111 55.8392 78.286 56.0151 78.5111 55.8463L78.6096 55.6845C78.6096 55.6845 78.6166 55.6704 78.6236 55.6704C78.6236 55.6634 78.6307 55.6563 78.6307 55.6493C78.7573 55.4523 78.7644 55.5297 78.8206 55.389L78.9402 55.185C79.1654 55.0232 78.8769 55.1991 79.095 54.9599C79.1442 54.9036 79.1583 54.9106 79.1935 54.8403C79.2498 54.7207 79.1161 54.8262 79.2709 54.7136C79.3553 54.5166 79.2357 54.7207 79.3201 54.5237C79.2287 54.5237 79.1935 54.5237 79.102 54.5377C78.9895 54.5518 79.0387 54.5307 78.9402 54.5729H78.891C78.7221 54.6503 78.5744 54.6222 78.4618 54.6644H78.4126C78.3282 54.7066 78.2578 54.7207 78.1734 54.7558H78.1242C78.1101 54.7629 78.0749 54.791 78.0679 54.791L77.9694 54.8262C77.9623 54.8262 77.9483 54.8332 77.9483 54.8332L77.5121 55.0372H77.4629C77.3292 55.1006 77.2659 55.0654 77.1322 55.1287H77.083H77.0337H76.9845C76.9212 55.1568 76.9 55.1779 76.7945 55.1779C76.7804 55.1779 76.7242 55.1779 76.7101 55.1709C76.6116 55.1498 76.6608 55.1568 76.6116 55.1217C76.485 55.1076 76.485 55.1006 76.3724 55.0724L76.2317 55.2624C76.2176 55.0795 76.1684 54.6151 76.098 54.4533C76.0629 54.383 76.084 54.4322 76.0699 54.3759L75.9503 54.0242L75.8518 53.8976C75.5563 53.581 75.2186 53.6513 75.2116 53.9327C75.2046 54.0453 75.2186 54.0312 75.2046 54.1508C75.1835 54.3548 75.1905 54.8895 75.2468 55.0865C75.2749 55.192 75.3453 55.5367 75.3101 55.6282C75.2397 55.8111 75.2538 55.6423 75.085 55.7759C75.0146 55.8322 75.0357 55.8322 74.9513 55.8815L74.4448 56.4161C74.3252 56.2402 74.3674 56.3669 74.3744 56.0151C74.3744 55.9588 74.3815 55.9799 74.3744 55.9237L74.2478 55.6001L74.1563 55.5508C74.2337 55.4312 74.5573 55.0724 74.5573 54.8121C74.5573 54.7066 74.5784 54.6785 74.5292 54.5659C74.1563 54.383 74.283 54.4674 74.0438 54.4463C73.5232 54.397 73.8046 54.3197 73.4388 54.5659C73.1855 54.7418 73.481 54.587 73.2488 54.7558L73.0589 54.9458C72.9533 55.1076 72.9182 55.0654 72.6649 55.4805L72.6297 55.5367C72.5805 55.593 72.6227 55.5227 72.5805 55.5789C72.5101 55.6704 72.6297 55.6845 72.3905 55.7478C72.3483 55.5578 72.3976 55.5438 72.3413 55.4171L72.292 55.3679V55.3186V55.1779C72.1373 55.0724 72.2287 55.0513 72.0106 55.0372C71.9684 55.1357 72.0036 55.0583 71.9895 55.1146C71.9121 55.4031 71.8418 55.6352 71.8981 56.0362C71.9121 56.1136 71.891 56.0292 71.9262 56.1207C71.9262 56.1277 71.9403 56.1347 71.9684 56.2121C72.0388 56.4232 71.9051 56.2191 72.0317 56.5287C72.1373 56.7679 72.0177 56.6201 72.1232 56.9227L72.1795 57.1337C72.1795 57.4362 72.278 57.5206 72.2006 57.598C72.1935 57.598 72.1865 57.598 72.1795 57.6051L71.1594 57.598H71.1101C70.9976 57.6473 71.082 57.6473 70.9694 57.598H70.9202H70.8709H70.8217H70.7724H70.7232C70.6106 57.5488 70.6951 57.5488 70.5825 57.598H70.5332C70.3925 57.5277 69.5061 57.5699 69.3513 57.5066H69.3021C68.7393 57.4573 68.9785 57.4362 68.2961 57.4362C68.2398 57.4362 68.2257 57.4433 68.1554 57.4362C68.071 57.4362 68.085 57.4221 67.9303 57.4081H67.881C67.8107 57.3588 67.8529 57.3799 67.7966 57.3588C67.7895 57.3588 67.7755 57.3518 67.7684 57.3518C67.7614 57.3518 67.7473 57.3448 67.7473 57.3448L67.6981 57.3307C67.6559 57.3096 67.5644 57.2322 67.5292 57.19L67.3252 56.599C67.3252 56.388 67.3463 56.4865 67.2689 56.3598L67.1916 56.198C67.1705 56.1629 67.1423 56.1418 67.1071 56.0925C66.9102 56.191 66.481 56.1136 66.3051 56.184H66.2559C66.1363 56.2332 66.2137 56.2051 66.1011 56.2051C66.0237 56.2051 66.0308 56.2051 65.876 56.2332C65.5946 56.2825 65.6438 56.2191 65.4468 56.0855L65.3273 56.0151C65.2358 55.9518 65.2639 55.9729 65.2147 55.8955C64.9474 55.6985 65.3413 55.9026 65.074 55.7056C65.0529 55.4875 65.0458 55.5438 65.0247 55.3257L64.8559 54.9317C64.8348 54.791 64.877 55.0021 64.8629 54.8614L64.4127 53.7639C64.4479 53.6373 64.5604 53.4543 64.6519 53.384C64.7222 53.2081 64.5604 53.377 64.7644 53.2151L64.9685 52.9971L64.9825 52.983L65.1021 52.8423C65.1092 52.8352 65.1162 52.8212 65.1232 52.8141L65.4609 52.5327L65.7001 52.3428L65.7916 52.2935C65.8549 52.2513 65.7986 52.3006 65.876 52.2373L66.0941 52.0262C66.1011 52.0192 66.1152 52.0121 66.1222 52.0051L66.3614 51.8714C66.3685 51.8644 66.3896 51.8433 66.3896 51.8503C66.3966 51.8574 66.4107 51.8363 66.4177 51.8292L66.5092 51.78C66.9102 51.5689 66.474 51.8855 66.9242 51.59L67.2689 51.4493C67.3041 51.4353 67.3463 51.4142 67.3604 51.4001C67.4167 51.3719 67.487 51.3368 67.5504 51.3086L67.7333 51.2031C68.1413 51.0061 67.9584 51.0483 68.4438 50.6614L68.5493 50.5488C68.7252 50.2815 68.7674 50.3167 68.8237 50.2182C68.9152 50.0564 68.69 50.2252 68.9152 50.0634L69.0559 49.8453L69.0699 49.8312L69.1333 49.7679C69.4147 49.3951 69.4217 49.4162 69.7242 49.2051L69.8157 49.1137L70.076 48.9519C70.2237 48.8674 70.1111 48.8815 70.3925 48.7478C70.477 48.7056 70.5403 48.6845 70.6247 48.6423H70.674L70.9061 48.5368C70.9202 48.5297 70.9554 48.5086 70.9624 48.5086L71.0327 48.4453C71.2579 48.2413 71.2579 48.3679 71.4619 48.1569L71.6659 48.0021L71.68 47.988L71.7292 47.9388C71.7363 47.9318 71.7503 47.9247 71.7503 47.9247C71.7574 47.9247 71.7996 47.8966 71.8347 47.8684C71.891 47.8262 71.884 47.8262 71.9473 47.784L72.0036 47.7488C72.1865 47.6433 72.1654 47.6785 72.278 47.4041C72.4468 47.2775 72.2639 47.3478 72.4116 47.0172C72.489 46.8413 72.4046 46.7217 72.5734 46.7639C72.7071 46.7991 72.5875 46.8061 72.7634 46.8695L73.5935 47.1298ZM57.3142 46.9891H57.3635L57.3213 47.0453L57.3142 46.9891ZM89.1623 47.179V47.2282L89.106 47.186L89.1623 47.179ZM72.3131 47.4182H72.2639L72.3061 47.3619L72.3131 47.4182ZM89.7321 47.5589V47.6081L89.6758 47.5659L89.7321 47.5589ZM82.5352 47.7911H82.4859L82.5281 47.7348L82.5352 47.7911ZM82.6759 47.7911V47.7418L82.7322 47.784L82.6759 47.7911ZM79.2709 47.981V47.9318L79.3272 47.974L79.2709 47.981ZM59.7273 48.0795H59.678L59.7203 48.0232L59.7273 48.0795ZM55.9846 48.3187H56.0338L55.9916 48.375L55.9846 48.3187ZM59.2489 48.3609H59.1996L59.2419 48.3046L59.2489 48.3609ZM32.8883 48.5508V48.5016L32.9445 48.5438L32.8883 48.5508ZM83.2457 48.5508V48.5016L83.302 48.5438L83.2457 48.5508ZM55.4148 48.6916H55.464L55.4218 48.7478L55.4148 48.6916ZM69.8508 49.1207H69.8016L69.8438 49.0644L69.8508 49.1207ZM82.3452 49.1207H82.296L82.3382 49.0644L82.3452 49.1207ZM69.7594 49.2122H69.7101L69.7523 49.1559L69.7594 49.2122ZM58.0177 49.4021H57.9685L58.0107 49.3458L58.0177 49.4021ZM31.235 49.6905H31.1858L31.228 49.6343L31.235 49.6905ZM88.1703 49.6413H88.2196L88.1774 49.6976L88.1703 49.6413ZM20.5838 49.8805V49.8312L20.6401 49.8735L20.5838 49.8805ZM87.9804 49.8312H88.0296L87.9874 49.8875L87.9804 49.8312ZM54.472 50.0212H54.5213L54.4791 50.0775L54.472 50.0212ZM64.5041 50.2111H64.5534L64.5112 50.2674L64.5041 50.2111ZM63.7443 50.781H63.7936L63.7514 50.8373L63.7443 50.781ZM82.3452 51.0131H82.296L82.3382 50.9569L82.3452 51.0131ZM56.4137 51.2031H56.3645L56.4067 51.1468L56.4137 51.2031ZM63.1815 51.1539H63.2308L63.1886 51.2101L63.1815 51.1539ZM67.7684 51.2031H67.7192L67.7614 51.1468L67.7684 51.2031ZM28.822 55.4171V55.4664L28.7586 55.7548C28.7516 55.9448 28.7164 56.6413 28.7727 56.789L28.9416 57.0845C29.0189 57.3518 29.1667 57.4855 29.4059 57.6262C29.4129 57.6332 29.427 57.6402 29.434 57.6473C29.8421 57.8443 29.5818 57.7106 29.9476 57.795C29.9898 57.802 30.032 57.8091 30.039 57.8091L30.433 58.1538C30.4963 58.2804 30.44 59.0543 30.4471 59.2161C30.4541 59.3638 30.5315 59.4342 30.6019 59.5468C30.7214 59.7437 30.5667 59.4975 30.6652 59.7226C30.4963 59.7367 30.5245 59.7508 30.4119 59.7437C30.3204 59.7437 30.2923 59.7226 30.1868 59.7648H30.1375C29.7365 59.7297 29.9476 59.7719 29.7647 59.786L28.5757 59.8633H28.5265C28.4139 59.9126 28.4983 59.9126 28.3858 59.8633H28.3436C28.1607 59.9478 27.6049 59.9337 27.5486 59.9337C27.4501 59.9337 27.4009 59.9337 27.3094 59.9337L27.028 59.8282C26.9647 59.7086 27.0069 59.8211 26.9647 59.7367L26.9225 59.4834L27.1828 59.5186C27.3305 59.5538 27.3164 59.5819 27.4923 59.5819C27.7315 59.5819 27.8019 59.5116 27.8019 59.5116C27.8159 59.5046 27.8441 59.4834 27.8582 59.4764C27.8652 59.4764 27.8722 59.4623 27.8793 59.4623L27.9074 59.4272L27.9215 59.4131L27.9355 59.399L28.3576 58.8081C28.3576 58.801 28.3647 58.787 28.3647 58.787L28.3999 58.6674C28.421 58.5829 28.3999 58.6603 28.421 58.5618L28.4632 58.2312C28.4702 58.0835 28.4632 57.7598 28.4561 57.6473C28.4491 57.5488 28.4561 57.5699 28.428 57.401L28.3576 56.9086C28.3365 56.6483 28.4069 56.5709 28.3014 56.2684L28.2451 56.0573C28.1888 55.8885 28.231 56.0433 28.1888 55.9377L28.1607 55.8111C28.1325 55.7196 28.1185 55.7126 28.1114 55.6845L27.7878 54.9247C27.7737 54.7136 27.83 54.7347 27.8933 54.4463C27.9215 54.3126 27.9004 54.2212 27.9215 54.0945C27.9426 53.9679 27.9848 53.9187 27.9848 53.8131L28.02 53.3629C28.027 53.2574 27.9707 53.3558 28.02 53.1729C28.02 53.1659 28.027 53.1518 28.027 53.1518L28.0551 52.9478V52.8986C28.1255 52.7227 28.0481 52.4061 28.0833 52.2584L28.1677 51.9629C28.1677 51.9559 28.1747 51.9488 28.1747 51.9418L28.238 51.8081C28.5054 51.991 28.4421 52.4342 28.4561 52.5257C28.4561 52.5327 28.4561 52.5468 28.4632 52.5538C28.5265 52.7579 28.5054 52.3709 28.5476 52.8845L28.7657 53.4543C28.7657 53.4614 28.7727 53.4754 28.7727 53.4754C28.7727 53.4825 28.7868 53.5106 28.7868 53.5247L28.9205 53.9257C28.9205 53.9327 28.9275 53.9468 28.9275 53.9468C28.9275 53.9538 28.9345 53.9679 28.9345 53.9679C28.9345 53.9749 28.9416 53.989 28.9486 53.989C29.0189 54.1156 29.033 54.0383 29.0189 54.179C29.0049 54.397 28.9697 54.4182 28.9416 54.4885C28.8642 54.6925 28.9908 54.5659 28.8712 54.9458C28.8009 55.2272 28.8853 55.2553 28.822 55.4171ZM55.6539 51.9629H55.6047L55.6469 51.9066L55.6539 51.9629ZM53.7122 52.2935H53.7615L53.7193 52.3498L53.7122 52.2935ZM55.0841 52.5327H55.0349L55.0771 52.4765L55.0841 52.5327ZM65.4961 52.5327H65.4468L65.4891 52.4765L65.4961 52.5327ZM54.9926 52.6242H54.9434L54.9856 52.5679L54.9926 52.6242ZM85.3281 52.8634H85.3774L85.3352 52.9197L85.3281 52.8634ZM84.8568 53.1448H84.906L84.8638 53.2011L84.8568 53.1448ZM25.3185 53.194H25.3677L25.6421 53.1096C25.7476 53.0815 26.2471 52.9759 26.2964 53.0674C26.3456 53.1659 26.2893 53.3488 26.2893 53.5388L26.2682 54.0031V54.0523C26.1979 54.2282 26.2752 54.2212 26.219 54.4182C26.2049 54.4744 26.2119 54.383 26.1979 54.4885C26.1838 54.587 26.233 54.6222 26.1768 54.7629L25.8953 54.5518L25.8813 54.5377L25.5225 54.0101C25.2481 53.8131 25.6491 54.0171 25.3818 53.8202L25.3396 53.6654C25.2974 53.588 25.3466 53.6795 25.2903 53.595C25.2903 53.588 25.2833 53.5739 25.2763 53.5739C25.2692 53.5669 25.2622 53.5388 25.2552 53.5317C25.2552 53.5317 25.2481 53.5177 25.2411 53.5177L25.227 53.5036C25.227 53.5036 25.2129 53.4895 25.2059 53.4895L25.1918 53.4754L25.1567 53.4192C25.1215 53.3488 25.1707 53.4754 25.1356 53.3699C25.1004 53.2785 25.1074 53.3488 25.1004 53.2151C25.1778 53.2292 25.22 53.2292 25.3185 53.194ZM52.1997 53.4262L52.2138 53.4403C52.2138 53.4403 52.1927 53.4332 52.1997 53.4262ZM57.3142 53.4262H57.3635L57.3213 53.4825L57.3142 53.4262ZM58.9675 53.6161V53.6654L58.9112 53.6232L58.9675 53.6161ZM25.3677 53.8061V53.8553L25.3114 53.8131L25.3677 53.8061ZM87.4598 53.8061V53.8553L87.4035 53.8131L87.4598 53.8061ZM61.5212 54.5659V54.6151L61.465 54.5729L61.5212 54.5659ZM87.0799 54.6151H87.0306L87.0728 54.5589L87.0799 54.6151ZM26.1697 54.7558H26.219L26.1768 54.8121L26.1697 54.7558ZM61.8097 54.8473V54.8965L61.7534 54.8543L61.8097 54.8473ZM61.9011 54.9458V54.995L61.8449 54.9528L61.9011 54.9458ZM78.9402 55.1779H78.891L78.9332 55.1217L78.9402 55.1779ZM76.2387 55.3257L76.2528 55.3398C76.2528 55.3327 76.2387 55.3257 76.2387 55.3257ZM76.2387 55.5156L76.2528 55.5297C76.2528 55.5227 76.2387 55.5156 76.2387 55.5156ZM65.1232 55.6985V55.7478L65.067 55.7056L65.1232 55.6985ZM65.4961 56.0784V56.1277L65.4398 56.0855L65.4961 56.0784ZM84.3854 56.3176V56.2684L84.4417 56.3106L84.3854 56.3176ZM47.845 56.6975V56.6483L47.9012 56.6905L47.845 56.6975ZM48.9846 57.8302V57.7809L49.0409 57.8232L48.9846 57.8302ZM79.8407 58.0201V57.9709L79.897 58.0131L79.8407 58.0201ZM37.5315 58.1186V58.0694L37.5877 58.1116L37.5315 58.1186ZM90.2527 58.1608H90.302L90.2598 58.2171L90.2527 58.1608ZM92.1452 58.1608H92.1944L92.1522 58.2171L92.1452 58.1608ZM37.8129 58.4V58.3508L37.8691 58.393L37.8129 58.4ZM49.5475 58.3508H49.5967L49.5545 58.4071L49.5475 58.3508ZM26.831 59.4905C26.8381 59.4834 26.8451 59.4975 26.8451 59.5045L26.831 59.4905ZM92.4758 59.6312H92.4266L92.4688 59.5749L92.4758 59.6312ZM74.3041 60.5809H74.2548L74.297 60.5246L74.3041 60.5809ZM51.1093 60.6724H51.067L51.1093 60.6161V60.6724ZM22.0049 62.0935V62.0442L22.0612 62.0864L22.0049 62.0935ZM95.4587 33.6504V33.8474C95.4587 33.8756 95.4517 33.9107 95.4446 33.953C95.4446 33.967 95.4306 34.0233 95.4306 34.0374C95.325 34.4384 95.4939 34.171 95.3321 34.368L94.9381 34.8042L94.924 34.8183C94.7693 34.9731 94.8607 34.8605 94.7974 35.0153C94.5723 35.1771 94.8045 35.0082 94.706 35.17L94.2768 35.6555C94.108 35.8032 94.115 35.8173 93.8055 35.965H93.7562C93.5663 36.0565 93.4607 36.0002 93.2708 36.0565C93.1301 36.0987 92.9613 36.0283 92.7713 36.0002L92.4688 35.9509C92.4055 35.9298 92.4125 35.9439 92.2859 35.9158C92.2718 35.972 92.2648 36.0424 92.2648 36.0494L92.0326 36.563C92.0185 36.5911 91.9974 36.6404 91.9834 36.6826C91.9411 36.8303 92.0115 36.6193 91.9623 36.7529C91.8919 36.9499 91.913 36.6756 91.913 36.9359C91.913 37.1188 91.9763 36.9359 91.9482 37.2876V37.3369C91.8849 37.4846 91.8778 37.3509 91.9974 37.5268C91.8075 37.6042 91.9412 37.4353 91.8286 37.5972C91.7512 37.7027 91.8638 37.6745 91.5964 37.8926C91.2939 38.1459 91.4276 38.1178 91.3994 38.6032C91.3924 38.6876 91.3854 38.6735 91.3713 38.8072V38.8564C91.2728 39.0675 91.308 39.0886 91.301 39.1801L90.8577 39.9961C90.8577 40.0032 90.8507 40.0102 90.8437 40.0172L90.7452 40.2002C90.6185 40.4745 90.6678 40.2986 90.5693 40.4605C90.5693 40.4675 90.5623 40.4816 90.5552 40.4816L90.4497 40.5871C90.2387 40.7208 90.2809 40.7559 90.1683 40.9248C90.0417 41.1218 89.9713 41.3891 89.6688 41.4172C89.6688 41.9519 89.6829 42.7258 89.5633 43.2393C89.5633 43.2534 89.5492 43.3167 89.5492 43.3237C89.5492 43.3308 89.5422 43.3449 89.5422 43.3449L89.2115 43.9569C89.1482 44.0906 89.2045 43.9428 89.1412 44.0765C89.0005 44.3861 89.0497 44.1891 88.9442 44.3861C88.6346 44.977 88.8105 44.5901 88.5924 44.8785C88.501 44.9981 88.515 45.1388 88.2125 45.3006C88.0085 45.4061 87.9452 45.575 87.7341 45.7227L87.7975 45.8283C87.7975 45.8353 87.8045 45.8494 87.8045 45.8494L87.8889 46.0182C87.8889 46.0252 87.896 46.0393 87.896 46.0393L87.9171 46.0745C87.9241 46.0815 87.9311 46.0886 87.9382 46.0886L88.1774 46.3207L88.1914 46.3348L89.1552 47.179C89.2186 47.2212 89.2326 47.2423 89.2889 47.2775L89.5703 47.4674C89.6407 47.5167 89.5984 47.4815 89.6618 47.5167L89.718 47.5519C89.9713 47.7207 90.2598 47.9318 90.2598 48.2483C90.2598 48.4524 90.3653 48.4242 90.3582 48.6071L90.2668 49.0785C90.2386 49.191 90.2809 49.2544 90.2387 49.4021C90.2105 49.5076 90.1894 49.5147 90.1683 49.6413L90.0768 50.0493C90.0768 50.0564 90.0698 50.0704 90.0698 50.0775C90.0487 50.1478 90.0909 50.0564 90.0487 50.1619L89.9221 50.3659C89.908 50.387 89.8095 50.5066 89.8025 50.5137L89.6266 50.8302C89.6196 50.8373 89.6125 50.8513 89.6055 50.8584C89.4789 51.0131 89.507 51.0413 89.4859 51.0765L89.2608 51.4071C89.1412 51.6041 89.2537 51.5197 88.9934 51.8503C88.8879 51.984 88.9653 51.9699 88.8457 52.1739L88.5361 52.6242L88.311 53.0111C88.1492 53.2996 88.0789 53.4262 87.7271 53.6654H87.6779C87.5583 53.7146 87.6568 53.6795 87.5442 53.6935C87.4879 53.7006 87.4598 53.7076 87.3894 53.7146L87.4387 53.8061C87.4457 53.8202 87.502 53.8061 87.509 53.9538C87.5161 54.1508 87.2276 54.3478 87.1432 54.5096C87.0869 54.6222 87.2206 54.4955 87.0658 54.6081C86.8266 54.9669 87.0588 54.6996 86.8196 54.9739C86.7211 55.0865 86.7 55.199 86.6578 55.2835L86.2849 55.8533C86.2357 55.9799 86.1794 55.9799 86.0668 56.1207L85.9824 56.2402C85.9754 56.2473 85.9543 56.2614 85.9472 56.2684L85.9331 56.2825C85.9331 56.2825 85.9261 56.2965 85.9191 56.3036C85.8628 56.388 85.9894 56.2965 85.8487 56.4161L85.4548 56.7116L84.906 56.6413C84.8708 56.6272 84.8497 56.6201 84.8005 56.599L84.3714 56.3176L84.2307 56.2262L83.7452 55.5016C83.7452 55.4945 83.7382 55.4805 83.7382 55.4805C83.6608 55.2694 83.6327 55.3046 83.6397 55.0091L83.8367 54.3689C83.8367 54.3619 83.8437 54.3478 83.8437 54.3478C83.8859 54.2563 83.8578 54.3267 83.8859 54.2774L84.1884 53.778C84.3925 53.377 84.2588 53.6865 84.4206 53.4332C84.4769 53.391 84.5121 53.3558 84.5543 53.3347C84.7372 53.2363 84.4839 53.384 84.6457 53.3066C84.7231 53.2714 84.7583 53.2081 84.8497 53.1518L84.9904 53.0604C85.1241 52.99 85.1945 52.9548 85.3211 52.8704C85.3281 52.8634 85.3492 52.8564 85.3492 52.8493L85.511 52.7016L85.5251 52.6875L85.5744 52.6383C85.8417 52.3709 85.8347 52.2724 85.9472 52.1177C85.9824 52.0684 86.0598 52.0051 86.1161 51.9488C86.1723 51.8925 86.2146 51.8363 86.2779 51.8011L86.4538 51.7237H86.503C86.5663 51.6956 86.7985 51.6041 86.8407 51.5619C86.9392 51.4564 86.7774 51.6182 86.897 51.4564L87.1221 51.1609C87.1643 51.0905 87.1854 51.0835 87.2206 51.0272L87.2558 50.9428C87.2558 50.9358 87.2628 50.9287 87.2698 50.9217L87.3331 50.8513C87.5301 50.6121 87.3754 50.8021 87.4457 50.6544L87.8889 49.9579C87.8889 49.9579 87.896 49.9438 87.903 49.9438C87.9171 49.9227 87.8608 49.9297 87.9874 49.8453L88.1774 49.6554C88.3743 49.3599 88.2407 49.4513 88.3251 49.2333C88.3603 49.1418 88.4728 48.9519 88.3603 48.8745C88.3392 48.8604 88.2336 48.8885 88.1281 48.8463H88.0789H88.0296H87.9804C87.8678 48.7971 87.9522 48.7971 87.8397 48.8463H87.7904C87.6779 48.7971 87.7623 48.7971 87.6497 48.8463H87.6005C87.4879 48.7971 87.5723 48.7971 87.4598 48.8463H87.4105C87.298 48.7971 87.3824 48.7971 87.2698 48.8463H87.2206C87.108 48.7971 87.1924 48.7971 87.0799 48.8463H87.0306C86.9181 48.7971 87.0025 48.7971 86.8899 48.8463H86.8407C86.7281 48.7971 86.8125 48.7971 86.7 48.8463H86.6507C86.5171 48.79 85.1593 48.8463 84.8638 48.7689L84.498 48.7197C83.7804 48.6423 83.5412 48.8182 83.3794 48.7549L83.2387 48.5649C83.1895 48.5297 83.1543 48.5157 83.105 48.4594C83.0136 48.3398 83.1683 48.4594 82.9502 48.1921L82.8869 48.0373C82.8729 47.9388 82.9221 48.0443 82.8518 47.9599L82.704 47.8333C82.704 47.8192 82.6829 47.8192 82.6759 47.8122C82.5633 47.7629 82.6477 47.7629 82.5352 47.8122C82.4719 47.9669 82.5422 47.9599 82.4789 48.1991C82.3523 48.6282 82.4789 48.7549 82.3945 48.9448V48.9941C82.3945 49.2192 82.3945 49.0855 82.3452 49.1348C82.4085 49.2755 82.4156 49.3177 82.4156 49.4091C82.4226 49.6413 82.5141 49.4795 82.5141 49.7116C82.5141 49.8312 82.507 49.6624 82.5141 49.8031C82.5211 49.9368 82.5563 50.3167 82.4789 50.4433C82.3171 50.7036 82.5 50.591 82.4015 50.8302V50.8795C82.4015 51.1046 82.4015 50.9709 82.3523 51.0202C82.4296 51.2172 82.3734 51.0202 82.3523 51.1468L82.3312 51.5267C82.3382 51.9066 82.1412 51.9699 82.1412 52.5187C82.1412 52.6101 82.1412 52.6383 82.1412 52.7297L82.1764 52.9478C82.303 53.2363 82.1694 53.0393 82.303 53.4825C82.4085 53.8342 82.2327 54.397 82.4015 54.798V54.8473C82.4719 55.0161 82.3945 54.9317 82.4437 55.0935L82.6055 55.5649C82.6055 55.5789 82.6126 55.6071 82.6126 55.6141L82.7181 55.8252C82.8447 56.0995 82.8518 55.9026 83.105 56.5146C83.1121 56.5287 83.1261 56.5568 83.1332 56.5709C83.2317 56.8031 83.105 56.7257 83.2528 56.8312C83.3231 57.0071 83.2317 56.8453 83.302 57.0211L83.4708 57.598C83.492 57.6895 83.4638 57.5558 83.499 57.6684C83.5201 57.7317 83.506 57.6332 83.5201 57.7387L83.506 58.0201C83.4216 58.4282 83.6678 58.2382 83.9211 58.3438H83.9703H84.0196H84.0688H84.1181H84.1673H84.2166H84.2658H84.3151H84.3643H84.4136H84.4628C84.5754 58.2945 84.4909 58.2945 84.6035 58.3438H84.6528L85.2296 58.3086C85.8839 58.2593 87.1502 58.2734 87.8537 58.2312C87.9241 58.2242 88.0929 58.203 88.2477 58.203L89.5281 58.1538H89.5773H89.6266H89.6758H89.7251H89.7743C89.8869 58.1046 89.8025 58.1046 89.915 58.1538H89.9643C90.0768 58.1046 89.9924 58.1046 90.105 58.1538H90.1542C90.2668 58.1046 90.1824 58.1046 90.2949 58.1538C90.302 58.1468 90.316 58.1397 90.3231 58.1397L90.4145 58.1186C90.4216 58.1186 90.4356 58.1186 90.4427 58.1186H91.7653C91.913 58.1186 92.0889 58.1116 92.1803 58.1468C92.2718 58.0905 92.4829 58.1186 92.5602 58.1468H92.6095C92.7009 58.0835 92.708 58.0553 92.7854 58.0272C92.7854 58.0272 92.9683 58.0061 92.9894 58.0061C93.2215 57.992 93.3411 58.0412 93.51 57.9568C93.6788 58.0623 94.1502 57.9639 94.3612 58.0483H94.4105C94.5723 58.1186 94.4527 58.0131 94.6497 58.1397H94.6989C94.8537 58.2453 94.7622 58.2664 94.9803 58.2804C94.8115 58.5267 94.8818 58.3578 94.6426 58.5548C94.5723 58.6111 94.5793 58.6111 94.509 58.6603H94.4597C94.3894 58.6955 94.3331 58.7096 94.2627 58.7448C94.2557 58.7518 94.1783 58.794 94.1713 58.794L94.0869 58.8503H94.0376H93.9884C93.8547 58.9136 93.7914 58.8784 93.6577 58.9417H93.6085C93.4185 58.8643 93.6155 58.9066 93.4537 58.9558C93.0175 59.0754 93.4045 58.9277 92.912 59.2865C92.905 59.2865 92.8979 59.3005 92.8909 59.3005L92.7502 59.4201L92.511 59.6101C92.504 59.6171 92.4899 59.6241 92.4828 59.6312C92.4758 59.6382 92.4618 59.6453 92.4547 59.6453C92.4477 59.6523 92.4336 59.6593 92.4266 59.6593C92.2296 59.7789 92.2859 59.793 92.1381 59.8915H92.0889C91.8849 60.0251 91.9623 60.0111 91.6949 60.1096L91.5683 60.1799H91.519L91.3783 60.2714H91.3291C91.0969 60.3839 91.0618 60.3277 90.9914 60.3417C90.7803 60.391 90.8929 60.4402 90.4427 60.4332C90.1964 60.4262 90.316 60.4754 90.1613 60.4824C90.0839 60.4895 89.7673 60.4613 89.5844 60.5528H89.5351C89.4226 60.5035 89.507 60.5035 89.3944 60.5528H89.3452C89.1693 60.4824 89.317 60.5598 89.0919 60.588C88.9371 60.6091 88.7964 60.595 88.6346 60.602C88.5432 60.602 88.501 60.6091 88.4165 60.6161L88.0648 60.6513H88.0155C87.903 60.7005 87.9874 60.7005 87.8748 60.6513H87.8256C87.713 60.7005 87.7975 60.7005 87.6849 60.6513H87.6357C87.4809 60.7146 87.5934 60.6653 87.5301 60.6583L87.3683 60.6653C87.3613 60.6653 87.3472 60.6583 87.3472 60.6583L83.9844 60.5457C83.907 60.5317 83.9914 60.5176 83.9 60.5598H83.8507C83.5131 60.398 79.9674 60.5598 79.7352 60.4684H79.686C79.5734 60.5176 79.6578 60.5176 79.5452 60.4684H79.496C79.3834 60.5176 79.4679 60.5176 79.3553 60.4684H79.3061C79.1935 60.5176 79.2779 60.5176 79.1654 60.4684H79.1161C79.0035 60.5176 79.088 60.5176 78.9754 60.4684H78.9262H78.8769H78.8277C78.7151 60.4191 78.7995 60.4191 78.687 60.4684H78.6377C78.5252 60.4191 78.6096 60.4191 78.497 60.4684H78.4478C78.3352 60.4191 78.4196 60.4191 78.3071 60.4684H78.2578C78.1523 60.4262 77.8428 60.4262 77.7372 60.4684H77.688C77.5754 60.4191 77.6598 60.4191 77.5473 60.4684H77.498C77.2799 60.3769 77.484 60.5598 77.2588 60.4684H77.2096C77.097 60.5176 77.1814 60.5176 77.0689 60.4684H77.0196H75.3664H75.3171C75.2046 60.5176 75.289 60.5176 75.1764 60.4684H75.1272H75.0568H75.0076C74.895 60.4191 74.9794 60.4191 74.8669 60.4684H74.8176H74.7754H74.7262C74.6136 60.5176 74.698 60.5176 74.5855 60.4684H74.5362C74.3744 60.5387 74.494 60.4332 74.297 60.5598L74.1774 60.6302C74.1212 60.6724 74.1423 60.6583 74.1071 60.7076L74.0156 60.6583H73.9664C73.7835 60.7357 73.9594 60.6935 73.8398 60.6583L73.7975 60.6372C73.6428 60.595 73.5654 60.6372 73.3965 60.5739C73.1433 60.4824 73.0307 60.5317 72.89 60.4684H72.8408H72.7915H72.7423C72.5594 60.3839 72.3694 60.4121 72.285 60.391C72.1091 60.3417 71.2438 60.3136 71.0538 60.3628C70.8639 60.4121 70.9765 60.3628 70.8639 60.3628C70.7795 60.3699 70.8428 60.4262 70.7091 60.3699H70.6599C70.5473 60.4191 70.6317 60.4191 70.5192 60.3699H70.4699C70.3714 60.4121 70.2378 60.4121 70.1393 60.3699H70.09L69.4709 60.4121C69.1262 60.4402 67.6207 60.4121 67.487 60.4613H67.4378C67.3252 60.4121 67.4097 60.4121 67.2971 60.4613H67.2478C67.1353 60.4121 67.2197 60.4121 67.1071 60.4613H67.0579H67.0086H66.9664C66.8609 60.5035 66.5514 60.5035 66.4458 60.4613H66.3966H66.3473H66.2981H66.2489H66.1996H66.1504H66.1011L63.9273 60.4121C63.6529 60.398 62.3092 60.4191 62.1755 60.3628H62.1263C62.0137 60.4121 62.0981 60.4121 61.9856 60.3628H61.9363C61.6971 60.4613 62.0418 60.3558 61.6901 60.3699L61.6408 60.3628C61.6338 60.3628 61.6197 60.3558 61.6197 60.3558C61.6127 60.3558 61.5986 60.3488 61.5986 60.3488L58.271 60.2925C58.1162 60.2995 57.9896 60.2854 57.9263 60.2925L54.4087 60.3417C54.4017 60.3417 54.3876 60.3488 54.3806 60.3488L54.3102 60.3699C54.3032 60.3699 54.2891 60.3699 54.2891 60.3699L54.1977 60.3488C54.1906 60.3488 54.1766 60.3558 54.1766 60.3558C53.7474 60.4332 53.6278 60.3839 53.2057 60.4191C52.9947 60.4332 52.4248 60.4684 52.2489 60.5528H52.1997C52.1082 60.5176 52.1434 60.5598 51.9042 60.5809L51.2992 60.6513H51.25C51.1374 60.7005 51.2218 60.7005 51.1093 60.6513C51.06 60.6865 51.1022 60.6724 51.0108 60.6935C50.9474 60.7076 50.9967 60.6935 50.9263 60.7005C50.7645 60.7216 50.8701 60.6794 50.7364 60.7427H50.6871H50.6379H50.5887L49.2168 60.9327H49.1676H49.1183H49.0691L47.4158 61.2141H47.3666H47.3173H47.2681C47.1555 61.2633 47.1133 61.2211 46.9374 61.3055H46.8882C46.6982 61.2282 46.8882 61.2704 46.7334 61.3196C46.6842 61.3337 46.6701 61.3407 46.5927 61.3478C46.4028 61.3689 46.3183 61.39 46.1776 61.404H46.1425C46.0088 61.4674 45.9455 61.4322 45.8118 61.4955H45.7626H45.7133H45.6641L44.6721 61.6854H44.6229H44.5736H44.5244C44.3977 61.7347 44.1726 61.6995 44.0038 61.7769H43.9616H43.9123H43.8631C43.7786 61.8121 43.5817 61.8191 43.448 61.8472L42.5967 61.995C42.4701 62.0231 42.4912 62.0161 42.3998 62.0583H42.3505C42.1606 61.9809 42.3505 62.0231 42.1957 62.0724L41.1757 62.2271C41.035 62.2553 41.1405 62.3186 40.9787 62.2553H40.9365L38.8048 62.6352H38.7556C38.643 62.6844 38.6782 62.6563 38.5797 62.6563C38.5164 62.6563 38.4953 62.6633 38.3757 62.6844C38.1998 62.7126 38.1505 62.6844 38.038 62.7266H37.9887C37.8621 62.8111 37.9254 62.797 37.8129 62.797C37.7003 62.804 37.7918 62.7618 37.6581 62.8181H37.6088H37.5596H37.5103L36.9335 62.8884C36.8561 62.8955 36.7717 62.8814 36.6943 62.8955L35.2872 63.1065H35.238H35.1888H35.1395C35.041 63.1487 34.9425 63.1417 34.7244 63.1628C34.5978 63.1769 34.5275 63.1628 34.429 63.198H34.3797C34.1616 63.2191 34.1265 63.2261 33.831 63.2613L33.4792 63.2965H33.43C33.2963 63.3598 33.233 63.3246 33.0993 63.3879H33.0501C33.036 63.3809 33.0008 63.3739 32.9938 63.3739C32.9868 63.3739 32.9727 63.3739 32.9657 63.3739L32.9164 63.3879C32.7827 63.4231 32.5717 63.402 32.227 63.4653C31.9807 63.5146 31.9948 63.4935 31.84 63.5075C31.6149 63.5357 31.4812 63.5286 31.3898 63.5709H31.3405H31.2913H31.242L30.7566 63.6623C30.426 63.7678 30.4049 63.7186 30.2853 63.7538C30.025 63.8382 28.7798 63.8382 28.5476 63.9508H28.4983C28.3084 63.8734 28.5054 63.9226 28.3436 63.9648C28.2873 63.9789 28.0481 63.993 27.7808 64H27.3657C27.1195 63.993 26.9014 63.9789 26.8381 63.9508H26.7888L26.6481 63.8593H26.5989L26.2401 63.6975C25.7054 63.4302 25.4943 63.4513 25.2692 63.2965H25.22H25.1707L24.5587 63.1065H24.5094L23.0391 62.6352C23.0321 62.6281 23.018 62.6211 23.0109 62.6141C23.0039 62.607 22.9898 62.6 22.9828 62.593L22.8632 62.5226C22.7858 62.4874 22.7295 62.4734 22.6662 62.4382C22.4411 62.2834 22.4763 62.3749 22.2863 62.2482L21.9557 62.0583H21.9064L21.815 61.9668C21.5898 61.8121 21.625 61.9035 21.4351 61.7769L21.1607 61.6292C20.9215 61.5096 20.7034 61.397 20.5627 61.1015C20.5486 61.0734 20.5627 61.0875 20.5275 61.0312C20.5205 61.0241 20.4924 60.989 20.4853 60.9819L20.1336 60.3347C20.0984 60.1588 20.1125 60.2573 20.1617 60.2151L20.3517 60.2643L20.6612 59.997C20.8301 59.9056 20.8652 59.997 21.02 59.9337H21.0693C21.1818 59.8844 21.0974 59.8844 21.21 59.9337H21.2592C21.3577 59.8915 21.4914 59.8915 21.5898 59.9337H21.6391C21.7517 59.8844 21.6672 59.8844 21.7798 59.9337H21.829C21.9416 59.8844 21.8572 59.8844 21.9697 59.9337H22.019C22.1316 59.8844 22.0471 59.8844 22.1597 59.9337H22.2089C22.3215 59.9829 22.2371 59.9829 22.3496 59.9337H22.3989H22.5396H22.5888C22.7014 59.9829 22.617 59.9829 22.7295 59.9337H22.7788C22.8984 59.9829 23.5315 59.9548 23.7004 59.9689C23.9114 59.9829 24.5938 59.9759 24.7205 60.0322H24.7697C24.8682 59.99 25.0019 59.99 25.1004 60.0322H25.1496C25.2974 59.9267 25.1989 60.0885 25.234 59.7367C25.2974 59.1035 25.2622 58.8714 25.0441 58.4071L24.6923 57.6965C24.5798 57.4925 24.7416 57.6332 24.5798 57.5206L24.4743 57.2744C24.4743 57.2674 24.4672 57.2533 24.4672 57.2533C24.4672 57.2463 24.4602 57.2322 24.4602 57.2322L24.1788 56.6201C24.1717 56.5709 24.1858 56.5357 24.1788 56.5005C24.1717 56.4372 24.1788 56.4794 24.1366 56.4091C24.0592 56.2754 24.1225 56.2402 24.0521 56.1136C23.9466 55.9237 23.9677 55.783 23.8903 55.5297L23.0602 54.1438L23.0461 54.1297L22.9969 54.0805L22.9828 54.0664L22.9687 54.0523L22.216 53.3207C22.1175 53.194 21.9557 53.0393 21.9064 52.9056L21.7728 52.7156C21.6391 52.5749 21.5758 52.392 21.4843 52.2443L21.2381 51.583C21.21 51.4704 21.2592 51.59 21.1818 51.4634L20.9285 51.0061V50.9569C20.7949 50.7599 20.9074 50.8795 20.8089 50.6473C20.7456 50.4925 20.7667 50.6473 20.7597 50.4925C20.7456 50.2323 20.6894 50.4363 20.6612 50.2322C20.619 49.8946 20.6542 50.1619 20.5768 49.9931C20.5346 49.9016 20.5979 49.986 20.5416 49.8594C20.5064 49.8101 20.5205 49.8594 20.4783 49.7398C20.415 49.5428 20.5064 49.782 20.4572 49.6343C20.415 49.5076 20.4572 49.6483 20.4009 49.5217L20.2743 49.184C20.1899 48.8041 20.0281 48.572 19.9929 48.3328C19.9788 48.2554 19.9507 48.2272 19.9225 48.1076C19.7607 48.178 19.7044 48.0865 19.5426 48.1569H19.4934C19.2894 48.0725 19.0713 48.2272 18.4663 48.0091C18.4592 48.0091 18.4451 48.0021 18.4451 48.0021C18.3607 47.974 18.4311 48.0162 18.3326 47.9458C18.2622 47.8895 18.2693 47.8966 18.206 47.8333C18.1567 47.7911 18.1356 47.77 18.1075 47.7137C18.016 47.5237 17.9386 47.1227 18.0441 46.7991C18.1075 46.6021 18.1004 46.6303 18.1004 46.5107C18.0934 45.9549 18.1075 46.2996 18.1848 45.9971L18.1919 45.2795C18.1919 45.0825 18.1778 45.1107 18.1215 45.0333C18.1145 44.9348 18.1075 44.8855 18.1004 44.8504C18.0934 44.8011 18.1004 44.8082 18.0723 44.7448C17.9245 44.6393 18.0512 44.7448 17.9879 44.6182C17.9879 44.6112 17.9808 44.5971 17.9738 44.5971L17.8261 44.0413C17.7487 43.5911 17.8894 43.7107 17.7346 43.0916C17.6924 42.9227 17.7416 42.979 17.6924 42.8524V42.8032C17.6502 42.7398 17.6642 42.768 17.6431 42.7187L17.608 42.5991C17.608 42.5921 17.6009 42.578 17.6009 42.578L17.5869 42.5288C17.5869 42.5217 17.5798 42.5077 17.5798 42.5077L17.5095 42.2825C17.4954 42.2896 17.411 42.3248 17.411 42.3248C17.3055 42.374 17.3688 42.3459 17.3195 42.381C17.0663 42.5006 16.7849 42.5991 16.4894 42.5006L16.2291 42.381L16.0743 42.2474C15.6733 41.9167 16.1728 42.2333 15.8562 42.0011L15.7577 41.776C15.6311 41.5509 15.6381 41.3117 15.6311 41.3047C15.5818 41.178 15.5537 41.2976 15.5396 41.1147C15.5326 40.9951 15.5818 41.0162 15.4482 40.8896C15.3567 40.7981 15.3145 40.7841 15.216 40.6926L14.8009 40.3971C14.7939 40.3901 14.7728 40.3831 14.7728 40.376C14.5829 40.2424 14.604 40.172 14.5195 40.1087C14.4351 39.8976 14.5336 39.7218 14.5336 39.6444C14.5336 39.6162 14.4633 39.5177 14.5899 39.37C14.7025 39.2363 14.604 39.4615 14.6814 39.2504C14.7165 39.159 14.5618 39.1449 14.9839 38.9971L15.1035 38.962C15.202 38.9268 15.3567 38.8564 15.5537 38.9127L15.821 39.0042C15.8281 38.9971 15.8421 39.0182 15.8492 39.0253C15.9055 39.0534 15.9266 39.0534 15.9829 39.0816C16.0602 39.1167 16.018 39.1027 16.1095 39.1449C16.5879 39.3841 16.5808 39.3278 16.7497 39.4052H16.7989C16.9256 39.4685 17.017 39.4685 17.0733 39.4826C17.1718 39.5177 17.0874 39.4896 17.1859 39.5318C17.2492 39.56 17.2632 39.56 17.3195 39.5881H17.3688C17.4391 39.6162 17.3969 39.6022 17.4462 39.6092C17.4532 39.6092 17.5165 39.6233 17.5306 39.6233C17.6502 39.6233 17.615 39.6303 17.6994 39.5881H17.7487C17.9738 39.4685 18.0301 39.4755 18.1778 39.2574C18.1145 39.2152 18.1004 39.1941 18.0441 39.159C17.9879 39.1167 18.016 39.1449 17.9527 39.1097C17.9457 39.1027 17.9245 39.1027 17.9245 39.0886C17.9175 39.0745 17.9034 39.0745 17.8964 39.0675L17.7557 38.976C17.4673 38.772 17.608 38.7509 17.3758 38.5961C17.3266 38.4695 17.3758 38.568 17.3406 38.4695C17.2703 38.2796 17.2984 38.5328 17.2843 38.3077C17.2703 38.0755 17.2843 38.2655 17.3477 38.0826C17.3477 38.0755 17.3477 38.0615 17.3547 38.0615C17.418 37.8926 17.5095 37.9067 17.6713 37.97L17.8964 38.0755H17.9457L18.5788 38.2022C18.9657 38.2444 19.0361 38.2303 19.2683 37.8856C19.3949 37.8012 19.3386 37.8152 19.4441 37.8082C19.5004 37.8082 19.5426 37.8082 19.5848 37.8152C19.7889 37.8363 19.9085 37.8645 20.0703 37.7871H20.1195C20.2321 37.7379 20.3798 37.773 20.5486 37.6956H20.5979C20.7105 37.7449 20.626 37.7449 20.7386 37.6956H20.7878L20.9426 37.7379C21.2522 37.8363 21.224 37.8786 21.3718 37.9489L21.5336 38.0052C21.618 38.0263 21.9064 38.0052 21.9135 38.0052C21.9838 37.9771 22.1527 37.773 22.2582 37.7027L22.3707 37.6112C22.3848 37.5972 22.2371 37.5831 22.5044 37.5549L22.4552 37.4635L21.618 37.4494C21.4632 37.4916 21.6461 37.5409 21.4632 37.4635H21.414C21.2733 37.5198 20.0703 37.5057 19.9436 37.5549H19.8944C19.7818 37.5057 19.8662 37.5057 19.7537 37.5549H19.7044H19.6552H19.6059C19.4723 37.6112 18.5436 37.5972 18.3678 37.6464L16.7215 37.7449H16.6723C16.5597 37.6956 16.6442 37.6956 16.5316 37.7449H16.4823C16.3698 37.6956 16.4542 37.6956 16.3416 37.7449H16.2924L14.5055 37.6605C14.3718 37.6394 14.5266 37.6253 14.3437 37.6253L13.0281 37.5549H12.9788C12.7608 37.6464 12.9648 37.4635 12.7397 37.5549H12.7256C12.606 37.5057 12.5075 37.5338 12.3809 37.5338L11.0653 37.4635H11.016C10.9035 37.4142 10.8331 37.4353 10.7206 37.4424L10.0944 37.3369C9.9045 37.3087 9.82008 37.3087 9.73565 37.2735H9.70048H9.65123H9.60199L9.11656 37.1821C8.79998 37.0766 8.66631 37.1399 8.45526 37.0836C8.32863 37.0484 8.51154 37.0062 8.32159 37.0836C8.27938 37.0554 8.32159 37.0766 8.23014 37.0273C8.21607 37.0203 8.15979 36.9992 8.13164 36.9851H8.0824H8.03315H7.98391C7.89245 36.9429 7.91356 36.9499 7.78692 36.9218L7.37889 36.8092H7.32964C7.24522 36.767 7.17487 36.7529 7.09045 36.7178H7.0412C6.97788 36.6896 6.97085 36.6896 6.90753 36.6615C6.80904 36.6193 6.89346 36.6404 6.79497 36.6122C6.74572 36.5982 6.70351 36.6263 6.59095 36.563L6.18995 36.2534C6.09146 36.2042 6.14774 36.2183 6 36.2042C6.09146 35.972 5.92965 35.7399 6.10553 35.3811L6.61206 34.8746C6.76683 34.769 6.75979 34.8042 6.93567 34.7268C7.02009 34.6916 7.00602 34.6846 7.09045 34.6494C7.14673 34.6213 7.16783 34.6213 7.22411 34.5932H7.27336C7.35778 34.5509 7.42813 34.5369 7.51255 34.5017C7.54773 34.4736 7.53366 34.4736 7.60401 34.4454C7.61808 34.4384 7.65326 34.4313 7.66029 34.4313C7.78692 34.4032 7.60401 34.4806 7.79396 34.4032H7.8432C7.92763 34.361 7.99798 34.3469 8.0824 34.3117H8.13164C8.2231 34.2695 8.65224 34.2133 8.84219 34.1218H8.89144L9.79193 33.9319H9.84118C10.0944 33.8123 10.1085 33.9037 10.2703 33.8404H10.3196L10.5728 33.763C10.5799 33.7489 10.5939 33.7489 10.601 33.7419C10.7909 33.8193 10.601 33.7771 10.7557 33.7278C10.812 33.7138 10.812 33.7138 10.9246 33.6856C11.0794 33.6504 11.0934 33.6927 11.213 33.6434H11.2623C11.3256 33.6153 11.3186 33.6293 11.3678 33.6153C11.41 33.6082 11.403 33.6082 11.4874 33.5871C11.614 33.559 11.5789 33.5871 11.6844 33.5449H11.7336L13.1899 33.3831C13.3306 33.369 13.4361 33.4183 13.5768 33.355H13.6261H13.6753H13.7246H13.7738H13.8231C13.9427 33.3057 13.8582 33.3409 13.9849 33.3198C14.0412 33.3128 14.1256 33.2987 14.1748 33.2917C14.3085 33.2705 14.3155 33.3128 14.4351 33.2635H14.4844C14.5969 33.3128 14.5125 33.3128 14.6251 33.2635H14.6743L15.8562 33.1721H15.9055C16.011 33.1298 16.1306 33.1369 16.3768 33.1228C16.5034 33.1158 16.4683 33.1087 16.5597 33.1017C16.6793 33.0947 16.5808 33.1298 16.7145 33.0806H16.7637C16.8763 33.0314 16.7919 33.0314 16.9045 33.0806H16.9537C17.0733 33.0314 17.1859 33.0665 17.3406 33.0454C17.4602 33.0243 17.5235 33.0173 17.5798 33.0103C17.6783 33.0032 17.6431 33.0314 17.7557 32.9891H17.8049L18.3255 32.9399C18.4733 32.9329 18.5858 32.9469 18.7336 32.9258C18.8039 32.9188 18.7969 32.9188 18.8743 32.9047C18.8954 32.8977 19.0009 32.8695 19.0009 32.8695C19.0642 32.8555 19.1487 32.8625 19.219 32.8695C19.3456 32.8695 19.3105 32.8625 19.4652 32.8484L20.0351 32.7992H20.0843C20.1969 32.75 20.1125 32.75 20.225 32.7992H20.2743C20.4431 32.7288 20.9778 32.7429 21.0904 32.7288L21.9205 32.6374C22.0612 32.6233 22.1667 32.6726 22.3074 32.6092H22.3567C22.4692 32.56 22.3848 32.56 22.4974 32.6092H22.5466C22.617 32.5811 22.9195 32.5389 23.0109 32.5389C23.1376 32.5389 23.222 32.567 23.3486 32.5178H23.3979L24.7697 32.4263H24.819C24.9526 32.4826 25.016 32.4263 25.3466 32.4052C26.4441 32.3489 28.1044 32.3208 29.3144 32.4263C29.3637 32.5037 29.3144 32.5037 29.3637 32.4263C29.4973 32.4826 32.1988 32.553 32.5717 32.4404C32.5787 32.4404 32.5858 32.4334 32.5928 32.4334L32.635 32.4123C32.642 32.4123 32.6561 32.4052 32.6561 32.4052C32.8812 32.3489 33.4511 32.3771 33.5707 32.3278H33.6199C33.7325 32.3771 33.6481 32.3771 33.7606 32.3278H33.8099C33.9787 32.2575 34.3868 32.3419 34.6119 32.2364H34.6611C34.7737 32.2856 34.6893 32.2856 34.8018 32.2364H34.8511C34.9636 32.1871 34.8792 32.1871 34.9918 32.2364H35.041L37.0671 32.0746C37.1727 32.0675 37.1516 32.0957 37.2641 32.0464H37.3134H37.3626H37.4119H37.4611H37.5103C37.6229 31.9972 37.5385 31.9972 37.6511 32.0464H37.7003C38.0169 31.8917 38.3264 32.0253 38.5023 31.955H38.5515C38.7415 32.0324 38.5445 31.9831 38.7063 31.9409L39.4802 31.8917C39.5998 31.8776 39.6279 31.9057 39.7334 31.8565C39.7686 31.8284 39.7546 31.8284 39.8249 31.8002C39.839 31.7932 39.8742 31.7861 39.8812 31.7861C40.0078 31.758 39.8249 31.8354 40.0149 31.758H40.0641C40.1767 31.8072 40.0922 31.8072 40.2048 31.758H40.254C40.3666 31.7088 40.2822 31.7088 40.3948 31.758H40.444C40.5566 31.7088 40.4721 31.7088 40.5847 31.758H40.6339C40.7465 31.7088 40.6621 31.7088 40.7747 31.758H40.8239C40.9365 31.7088 40.852 31.7088 40.9646 31.758H41.0138C41.1264 31.7088 41.042 31.7088 41.1545 31.758H41.2038C41.3164 31.7088 41.2319 31.7088 41.3445 31.758H41.3937C41.5063 31.7088 41.4219 31.7088 41.5344 31.758H41.5837C41.6963 31.7088 41.6118 31.7088 41.7244 31.758H41.7736C41.8862 31.7088 41.8018 31.7088 41.9143 31.758H41.9636L43.3354 31.6665H43.3847C43.4972 31.7158 43.4128 31.7158 43.5254 31.6665H43.5746C43.7646 31.6525 43.7364 31.6454 43.849 31.6454C44.4048 31.6454 44.8761 31.6243 45.4249 31.6665H45.4741H45.6148H45.6641C45.7766 31.7158 45.6922 31.7158 45.8048 31.6665H45.854C45.9666 31.7158 45.8822 31.7158 45.9947 31.6665H46.044C46.1565 31.7158 46.0721 31.7158 46.1847 31.6665H46.2339L46.9445 31.6173C47.057 31.6103 47.1837 31.5962 47.2188 31.5962C47.4158 31.5751 47.9012 31.561 48.0771 31.4766H48.1264H48.1756H48.2248C48.2811 31.4555 48.5274 31.4133 48.6399 31.4062L49.6459 31.0967C49.8007 31.0826 49.8711 31.0474 49.9836 31.0052L50.251 30.9419C50.265 30.9349 50.2721 30.9349 50.2861 30.9279C50.3002 30.9208 50.3073 30.9138 50.3213 30.9138L50.9263 30.7168L51.4962 30.5268H51.5454C51.6299 30.4846 51.7002 30.4706 51.7846 30.4354H51.8339C52.0238 30.358 51.8409 30.4354 51.9675 30.4073C51.9746 30.4073 52.0449 30.3791 52.059 30.3791C52.066 30.3791 52.0871 30.3721 52.0871 30.358C52.0942 30.3439 52.1082 30.3439 52.1153 30.3369C52.2349 30.3299 52.46 30.2806 52.5444 30.2454H52.5937C52.6781 30.2032 52.7484 30.1892 52.8329 30.154H52.8821L53.7826 29.964C53.8952 29.8937 54.2329 29.8515 54.3384 29.8444C54.5143 29.8233 54.5635 29.7952 54.7042 29.76L55.9424 29.6545C56.0409 29.6545 56.1042 29.6686 56.1957 29.6404C56.7092 29.4645 56.5404 29.5701 57.0961 29.4716C57.1665 29.4575 57.2509 29.4645 57.3353 29.4645C57.4409 29.4645 57.4409 29.4645 57.6449 29.4294C57.8208 29.4012 57.9896 29.4505 58.1303 29.3942H58.1796C58.2921 29.4434 58.2077 29.4434 58.3203 29.3942H58.3695C58.4821 29.4434 58.3976 29.4434 58.5102 29.3942H58.5595H58.6087H58.658H58.7072H58.7564L60.5996 29.2042H60.6489C60.7615 29.155 60.677 29.155 60.7896 29.2042H60.8388C60.9514 29.155 60.867 29.155 60.9795 29.2042C61.1906 29.0706 61.465 29.1831 61.6408 29.1128H61.6901C61.873 29.0354 62.0067 29.162 62.3021 29.0213H62.3514C62.464 29.0706 62.3795 29.0706 62.4921 29.0213H62.5413C62.7102 29.0073 62.682 29.0002 62.7876 29.0002C62.865 29.0002 62.865 28.9862 63.0127 28.9791C63.3222 28.958 63.3011 28.951 63.5333 28.9299H63.5825C63.6951 28.8806 63.8428 28.9158 64.0117 28.8384H64.0609H64.1102H64.1594H64.2087H64.2579C64.3775 28.7892 64.2931 28.8243 64.4197 28.8032L65.5313 28.6485H65.5805C65.6931 28.5992 65.8408 28.6344 66.0097 28.557H66.0589C66.1433 28.5218 66.5232 28.4726 66.671 28.4656C66.7202 28.4374 66.685 28.4445 66.7695 28.4233L67.0368 28.3671C67.2197 28.3037 67.2408 28.3671 67.4308 28.2756H67.48L68.0006 28.0857H68.0499C68.0991 28.0646 68.1694 28.0434 68.2187 28.0153C68.3524 27.9379 68.2257 27.9731 68.3453 27.9239C68.4297 27.8887 68.4297 27.952 68.5704 27.8957L68.6338 27.8676C68.6408 27.8676 68.6619 27.8605 68.6689 27.8535L68.8519 27.8043H68.9011C69.0348 27.748 68.9855 27.8183 69.1614 27.7339C69.2458 27.6917 69.2036 27.7058 69.288 27.6706C69.3373 27.6495 69.3725 27.6424 69.4217 27.6143H69.4709C69.5343 27.5862 69.5694 27.5791 69.6398 27.544C69.7031 27.5158 69.7242 27.5017 69.7946 27.4666L70.083 27.3329L70.8569 26.9741C70.8639 26.96 70.878 26.96 70.885 26.953C70.9694 26.9108 71.0398 26.8967 71.1242 26.8615H71.1734L71.5885 26.6646C71.5956 26.6646 71.6096 26.6575 71.6167 26.6505L71.877 26.4817H71.9262L72.489 26.2354C72.496 26.2354 72.5312 26.2073 72.5453 26.2002C72.6227 26.151 72.496 26.2073 72.6367 26.151C72.6508 26.144 72.7282 26.1229 72.7423 26.1158C72.8689 26.0666 72.8267 26.0806 72.9252 26.0173H72.9744C73.0307 25.9892 73.0589 25.9892 73.1081 25.9611C73.1925 25.9188 73.1362 25.9399 73.2347 25.8977C73.3403 25.8485 73.3825 25.8415 73.495 25.8274C73.5865 25.6937 73.5161 25.7852 73.5795 25.757L73.8749 25.6374H73.9242C74.0086 25.5952 74.079 25.5812 74.1634 25.546H74.2126C74.297 25.5038 74.3674 25.4897 74.4518 25.4545H74.5011C74.5573 25.4264 74.5784 25.4264 74.6347 25.3982C74.698 25.3701 74.7051 25.356 74.7614 25.3349C74.895 25.2857 74.888 25.3279 75.0217 25.2646C75.0287 25.2575 75.0428 25.2505 75.0498 25.2505L75.3593 25.145C75.4156 25.1309 75.4508 25.1239 75.5423 25.0817C75.6478 25.0394 75.5704 25.0606 75.6689 25.0394L75.9714 24.9621C76.0207 24.948 76.2247 24.9339 76.3372 24.8847H76.3865L77.097 24.6947H77.1463C77.2307 24.6525 77.301 24.6384 77.3855 24.6033H77.4347C77.5473 24.554 77.695 24.5892 77.8639 24.5118H77.9131C78.286 24.3289 78.0749 24.5259 78.1804 24.2867C78.3422 23.9349 78.2086 24.35 78.2649 23.956C78.293 23.7661 78.3704 23.956 78.3633 23.4847L78.4829 22.4294V22.3802C78.6025 22.1973 78.5955 22.0354 78.6518 21.8455L78.7432 21.5852C78.7503 21.55 78.7573 21.543 78.7714 21.4867L78.8417 21.2757C78.8417 21.2616 78.8417 21.1842 78.8417 21.1842L79.2287 20.4948C79.285 20.3681 79.3483 20.3892 79.3975 20.2837C79.5312 20.0023 79.2779 20.4244 79.5593 20.0445C79.6367 19.946 79.5452 19.9742 79.686 19.8897C79.693 19.8827 79.7071 19.8757 79.7141 19.8757L79.9463 19.7701H79.9955C80.2628 19.6435 80.1503 19.7631 80.4106 19.6646L80.706 19.5802H80.7553L81.1422 19.3058C81.2055 19.2495 81.2126 19.2495 81.2759 19.2003L81.3673 19.1088H81.4166C81.5784 19.0314 81.6558 19.0737 81.7261 18.8837L81.8457 18.349C81.5714 18.349 81.3392 18.342 81.2337 18.2998H81.1844C81.0226 18.2294 81.1422 18.335 80.9452 18.2083L80.6568 17.9832C80.6568 17.9762 80.6498 17.9621 80.6427 17.9621L80.4176 17.6455L80.3824 17.5892C80.3754 17.5822 80.3684 17.5681 80.3684 17.5611C80.3613 17.5541 80.3543 17.54 80.3543 17.533C80.3473 17.5259 80.3402 17.5119 80.3332 17.5048C80.1643 17.2586 80.1221 17.139 80.1081 16.8717C80.101 16.7521 80.1151 16.6747 80.1432 16.6114V16.5621L80.2136 16.2526C80.2206 16.2455 80.2277 16.2315 80.2277 16.2174L80.305 15.9641C80.4035 15.732 80.2628 15.7953 80.5161 15.5631L80.706 15.4154H80.7553L81.2759 15.2254H81.3251C81.5362 15.1199 81.8457 15.134 82.0357 15.2254H82.0849L82.5141 15.3661C82.5141 15.3591 82.5211 15.3521 82.5211 15.345L82.6126 15.2254C82.6548 15.1481 82.6759 15.0847 82.7251 15.0074C82.7814 14.93 82.7744 14.9581 82.8025 14.9089C82.8377 14.8385 82.9291 14.6134 83.0699 14.4586C83.1965 14.3179 83.2176 14.3672 83.2809 14.332C83.8437 14.0295 83.5553 14.2265 83.8367 14.0928H83.8859C84.1181 13.9943 85.3563 13.9802 85.6025 14.0224C85.6236 14.0295 85.8065 14.0646 85.8347 14.0717L86.0105 14.0928C86.095 14.2053 86.0809 14.135 86.3904 14.2827H86.4397C86.4889 14.3179 86.496 14.3249 86.5452 14.3461C86.7 14.4094 86.4749 14.3038 86.6156 14.3672C86.6789 14.3953 86.7 14.4305 86.7703 14.4797L87.2417 14.7611H87.2909C87.3894 14.8315 87.4105 14.8455 87.4879 14.944C87.4949 14.9511 87.502 14.9651 87.509 14.9651L87.5372 15.0074C87.6919 15.2817 87.6427 15.1621 87.6497 15.3028C87.6638 15.6053 87.6286 16.2666 87.5301 16.4988V16.548L87.4387 16.6888L87.5301 16.738H87.5794H87.6286H87.6779H87.7271H87.7764C88.0226 16.8576 88.0226 16.7591 88.3814 16.935L88.6698 17.1179C88.6768 17.1249 88.6909 17.132 88.698 17.139L89.2256 17.4134C89.5492 17.6596 89.4929 17.7862 89.6125 17.8777C89.6899 17.9902 89.6688 17.9269 89.704 18.0676C89.5633 18.1028 89.6618 18.0747 89.5351 18.138C89.5211 18.145 89.4859 18.1661 89.4718 18.1732L89.4155 18.2083C89.0075 18.2435 89.2748 18.2576 88.8598 18.1872L88.5502 18.1169C88.5432 18.1169 88.5361 18.1098 88.5291 18.1098C88.5221 18.1098 88.515 18.1028 88.508 18.1028L87.896 17.9973C87.0095 17.9269 87.1573 17.8073 87.2065 18.5531L87.0377 18.9541C87.0095 18.9892 86.9462 19.0385 86.9181 19.0737C86.904 19.0877 86.6648 19.6083 86.8688 19.6928C86.904 19.7068 86.9603 19.6787 87.1502 19.7701L87.2417 19.8616H87.2909L88.0859 20.1008C88.1211 20.1149 88.1422 20.1219 88.1914 20.143H88.2407L88.3814 20.2345H88.4306C88.508 20.2837 88.515 20.3048 88.5924 20.3541C88.8809 20.5159 89.8376 21.4797 90.0487 21.74C90.1824 21.9018 90.0276 21.7822 90.1261 21.8736C90.1824 21.9299 90.1542 21.8525 90.2598 21.9581C90.4005 22.0917 90.2035 21.9159 90.3231 22.0636C90.3653 22.1128 90.3231 22.0495 90.3723 22.1058L90.4427 22.2043C90.4638 22.2395 90.506 22.2817 90.506 22.2817L90.703 22.6545C90.71 22.6616 90.717 22.6686 90.7241 22.6756L90.8718 22.8093C90.8788 22.8163 90.8929 22.8234 90.8999 22.8304C90.907 22.8375 90.9211 22.8445 90.9281 22.8445L90.9914 22.8797C91.2306 23.0415 91.2517 23.2666 91.3502 23.6184L91.5612 24.2023C91.6035 24.2585 91.6457 24.2726 91.6949 24.3078C91.7934 24.54 91.6246 24.2867 91.7512 24.4837L91.9974 24.8636C91.9974 24.8706 92.0045 24.8847 92.0045 24.8847L92.0959 25.0746C92.0959 25.0817 92.103 25.0957 92.103 25.0957C92.1452 25.1872 92.11 25.1168 92.1522 25.1661C92.2226 25.2505 92.1663 25.159 92.2226 25.2435L92.3773 25.5249C92.4969 25.8203 92.4969 25.56 92.5673 25.8766L92.6236 26.0314C92.6798 26.1651 92.6587 26.1791 92.6798 26.2354L92.9894 26.946C93.0175 27.0023 93.0527 27.0937 93.0738 27.143C93.2356 27.2555 93.0949 27.15 93.1582 27.2696C93.2075 27.3751 93.1723 27.2907 93.2426 27.3962L93.4045 27.7128C93.5241 27.8957 93.5733 28.0083 93.7773 28.1419L93.9743 28.2756C94.0658 28.3389 94.1713 28.3741 94.2487 28.4726C94.3331 28.5852 94.2698 28.4867 94.3261 28.6344C94.3261 28.6344 94.3683 28.7329 94.3683 28.7399C94.3683 28.747 94.3823 28.7751 94.3823 28.7681C94.3823 28.761 94.3964 28.7892 94.4034 28.7962C94.2205 29.0706 94.312 29.0354 94.2768 29.1198C94.2135 29.2746 94.2346 29.0776 94.0798 29.4012C94.0165 29.5419 94.0095 29.4083 93.9884 29.5912L93.9954 29.8726C93.9954 31.0826 93.9251 30.5339 94.1783 31.0475L94.2487 31.16C94.3542 31.3429 94.4527 31.6103 94.6778 31.9268L94.8537 32.2575C94.8537 32.2645 94.8607 32.2786 94.8607 32.2786C94.924 32.4123 94.8678 32.2645 94.9311 32.3982C94.9944 32.5319 94.8889 32.3771 94.9803 32.5178C95.2828 32.9821 95.0014 32.757 95.2055 32.9118C95.2547 32.9821 95.2547 32.9962 95.2899 33.0595L95.4024 33.2565C95.4306 33.3198 95.3813 33.3128 95.4869 33.3831C95.5361 33.5097 95.4869 33.4113 95.522 33.5097C95.4235 33.559 95.4446 33.5942 95.4587 33.6504ZM25.3185 63.3246V63.2754L25.3747 63.3176L25.3185 63.3246Z" fill="white" fill-opacity="0.85"/>
</svg>
