<svg width="100" height="80" viewBox="0 0 100 80" fill="none" xmlns="http://www.w3.org/2000/svg">
<path fill-rule="evenodd" clip-rule="evenodd" d="M49.4112 11.1053H49.4632L49.4187 11.1646L49.4112 11.1053ZM49.3074 11.2166H49.3593L49.3148 11.2759L49.3074 11.2166ZM47.2823 11.7432H47.3342L47.2897 11.8026L47.2823 11.7432ZM54.7374 11.9584H54.7893L54.7448 12.0177L54.7374 11.9584ZM46.8594 12.3812H46.9114L46.8669 12.4405L46.8594 12.3812ZM62.0219 12.3812V12.4331L61.9625 12.3886L62.0219 12.3812ZM65.6419 13.0265V13.0785L65.5825 13.034L65.6419 13.0265ZM65.9608 13.3455V13.3974L65.9015 13.3529L65.9608 13.3455ZM32.1718 14.5102H32.2237L32.1792 14.5695L32.1718 14.5102ZM33.7741 15.3113H33.826C33.9224 15.3558 33.9966 15.3706 34.0931 15.4151H34.145L34.6271 15.7341C34.6346 15.7415 34.6568 15.7415 34.6568 15.7564C34.6642 15.7712 34.6865 15.7712 34.6939 15.7786L35.0574 16.0308C35.0648 16.0383 35.0871 16.1199 35.2577 16.2237C35.5099 16.3795 36.6226 17.5367 36.7042 17.6554C36.8748 17.7815 36.7858 17.7518 36.7932 17.7667C36.8971 17.9521 37.1493 18.0931 37.216 18.1969L37.4979 18.5159C37.5573 18.5752 37.5944 18.5975 37.6314 18.6791C37.6982 18.8126 37.5424 18.6939 37.7205 18.8274L38.618 19.8511C38.7812 20.0292 38.6032 19.8585 38.8406 20.2072C38.9222 20.2591 38.9444 20.2665 39.0038 20.3555L39.1521 20.5632C39.2782 20.7264 39.2337 20.5855 39.3821 20.8006L40.0794 21.5647C40.2129 21.8021 40.0942 21.6463 40.3761 21.9282L41.0289 22.6329C41.1253 22.759 40.9473 22.6996 41.2292 22.8035C41.2885 22.8257 41.2959 22.8332 41.3479 22.8703C41.4295 22.9964 41.5333 22.9815 41.4814 23.3598C41.3924 24.0349 41.5852 24.2129 41.422 24.3761L41.1327 24.7544C41.1327 24.7618 41.1179 24.7693 41.1179 24.7693L40.977 24.9399C40.9102 25.0957 40.9844 25.1031 40.9473 25.1921C40.9102 25.2811 40.8063 25.3256 40.7396 25.4443L40.6432 25.6446C40.4874 26.0526 40.5838 26.0303 40.6357 26.2825C40.7025 26.6238 40.5616 27.2469 40.4429 27.5362C40.4429 27.5436 40.4354 27.5584 40.428 27.5659L40.3613 27.7736C40.339 28.0332 40.4132 27.8329 40.3242 28.0925L40.161 28.7824C40.161 28.7898 40.1536 28.8047 40.1536 28.8121C40.1536 28.8195 40.1313 28.9233 40.1165 28.9753C40.0497 29.2646 40.1016 29.6132 40.0942 29.7913C40.0942 29.8432 40.0868 30.0064 40.0868 30.088C40.0868 30.763 40.0126 31.5197 40.0868 32.1873C40.1387 32.6694 39.9904 32.2837 40.161 32.714C40.2574 32.9513 40.3539 33.7451 40.4355 33.8934L40.6283 34.2643C40.7099 34.472 40.8064 34.4349 40.9695 34.6797C41.066 34.7242 41.0363 34.7242 41.1847 34.7317C41.1253 34.8726 41.1253 34.7539 41.1847 34.8874C41.5407 35.1248 41.2514 35.1693 41.474 35.3399C41.4814 35.3473 41.8152 35.4141 41.6594 35.7924C42.0452 35.8221 41.8894 36.0224 42.06 36.2969C42.1268 36.4081 42.1045 36.3265 42.1119 36.4378C42.1193 36.5491 42.0897 36.4675 42.1416 36.6307C42.1638 36.6974 42.2009 36.7716 42.2158 36.8606C42.2974 37.3502 42.1935 36.8977 42.3196 37.2093L42.3345 37.2612C42.468 37.6024 42.4828 38.0327 42.5793 38.27C42.6831 38.5148 42.5644 38.4258 42.7202 38.6632L42.5125 38.8338C42.7128 39.1379 42.557 39.0712 42.6534 39.3976C42.6534 39.405 42.6609 39.4198 42.6609 39.4198L42.6089 39.8278C42.9353 40.0429 42.8166 40.0355 42.9205 40.3174C43.0169 40.5845 42.8982 40.5251 42.9798 40.7328C42.6979 40.7551 42.8389 40.7996 42.6386 40.9183L42.238 41.1037V41.2669C42.2009 41.2669 42.1119 41.2669 42.0822 41.2743C41.9784 41.2966 42.0229 41.2892 41.971 41.3263C41.6817 41.5191 42.0155 41.3634 41.4295 41.6897L41.333 41.7491C41.1253 41.89 41.1624 41.7862 40.9102 41.9642L40.8064 42.0236C40.6654 41.979 40.7618 42.0236 40.6432 41.9642H40.5912C40.3613 41.8529 40.2723 41.8826 40.1239 41.8826C39.5824 41.8826 38.1136 41.942 37.7946 41.8678C37.624 41.8307 37.6463 41.8233 37.5276 41.8159C36.8229 41.7862 37.5128 41.9197 36.6003 41.6897L36.3555 41.6156C36.3407 41.6081 36.2962 41.5859 36.2888 41.5785L36.222 41.534H36.0588H36.0069C35.9401 41.4969 35.9476 41.4969 35.8511 41.4746L35.4209 41.3188H35.3689C35.1761 41.2298 35.2651 41.3337 34.9684 41.1853C34.9313 41.1631 34.8052 41.1037 34.7978 41.1037L34.5085 40.9554C34.4491 40.9257 34.412 40.9109 34.323 40.8663C34.3082 40.8589 34.2711 40.8367 34.2637 40.8293C34.2562 40.8218 34.2488 40.8144 34.2414 40.8144L34.2043 40.7773C34.056 40.6364 34.0337 40.6438 34.2859 40.399L34.7384 39.8352C35.0277 39.5385 34.7087 39.724 34.9387 39.5534L34.9906 39.4495C35.2132 39.2863 35.1242 39.1899 35.2428 38.908L35.3912 38.5668C35.4728 38.3961 35.4357 38.5668 35.4505 38.3961L35.5321 37.914C35.636 37.6543 35.6063 37.8769 35.6063 37.417C35.6063 37.3576 35.5989 37.3354 35.6063 37.2834C35.6508 37.0461 35.7102 37.1203 35.6657 36.7642C35.5989 36.2153 35.5915 36.601 35.5989 35.926C35.5989 35.8814 35.6063 35.8295 35.5989 35.7924L34.9387 33.9602C34.8942 33.8192 34.909 33.9008 34.8942 33.8563L34.7533 33.5596C34.7533 33.5522 34.7458 33.5373 34.7458 33.5299L34.3527 32.8549C34.3453 32.8475 34.3378 32.8326 34.3378 32.8326L34.2785 32.7065C34.1376 32.4692 34.1376 32.3505 33.9373 32.0389L33.8928 31.9351C33.8928 31.9276 33.8853 31.9128 33.8853 31.9128L33.4477 31.2081C33.4032 31.1413 33.3958 31.1117 33.3438 31.0375C33.2771 30.9336 33.329 31.0449 33.2771 30.9559C33.2326 30.8743 33.2548 30.8817 33.2474 30.8743L32.9136 30.2438C32.8765 30.177 32.9284 30.2363 32.8617 30.1399C32.8023 30.0509 32.8617 30.1473 32.7875 30.0509L32.424 29.4649C32.3795 29.3833 32.4017 29.3907 32.3943 29.3833C32.3795 29.3388 32.3943 29.3758 32.3572 29.3017L32.0605 28.7527C32.0012 28.6192 32.0234 28.6563 31.9492 28.545C31.7786 28.4189 31.9344 28.5821 31.8306 28.3447L31.6674 28.0554C31.6006 27.9145 31.7564 28.0406 31.5783 27.9145C31.5561 27.8626 31.5487 27.8403 31.5338 27.7958C31.4967 27.7142 31.4893 27.6994 31.4671 27.6549L31.4448 27.5733C31.3929 27.4472 31.3335 27.4472 31.2445 27.2024L30.5992 25.6891C30.5843 25.6372 30.5917 25.6446 30.5621 25.5778L30.1541 24.4132C29.9093 24.2352 30.206 24.5467 30.0057 24.0349C29.9093 23.7975 30.0354 23.8568 29.9019 23.5527L29.7832 23.0854C29.7758 22.9073 29.8129 22.9073 29.8129 22.8035C29.8129 22.6403 29.7758 22.7738 29.7535 22.5958V21.0825C29.7832 20.8971 29.7609 21.1122 29.7906 20.9787C29.8351 20.771 29.7238 20.9119 29.8425 20.6003L29.9835 20.0662C29.9835 20.0588 29.9909 20.044 29.9983 20.0366L30.0354 19.9698C30.1096 19.8066 30.0799 19.8289 30.0873 19.7399C30.1022 19.458 30.0725 19.7695 30.1763 19.5396C30.2283 19.4283 30.1689 19.4283 30.1912 19.3467C30.2431 19.1538 30.2728 19.3541 30.3099 19.1019C30.3692 18.7087 30.3024 19.1242 30.3989 18.8423L31.0739 17.2919C31.0813 17.2845 31.0888 17.2622 31.0962 17.2548C31.1036 17.2474 31.111 17.2326 31.1184 17.2251L31.4448 16.6465C31.4522 16.6391 31.4671 16.6243 31.4671 16.6169L31.8009 16.0902C31.8528 16.0086 31.8973 15.9938 31.9641 15.9418L32.0679 15.838L32.1718 15.7341C32.1792 15.7267 32.2015 15.7045 32.2089 15.7119L32.5353 15.4522C32.743 15.2816 32.9062 15.3187 33.1584 15.2668C33.3067 15.2371 33.3067 15.2149 33.3883 15.2223L33.7741 15.3113ZM34.6197 15.7341V15.6822L34.6791 15.7267L34.6197 15.7341ZM61.9699 16.4314H62.0219L61.9774 16.4908L61.9699 16.4314ZM52.8755 16.8023C53.0016 16.8617 53.009 16.832 53.1277 16.921C53.2834 17.0397 53.1648 17.0471 53.4096 17.0694L53.3576 17.1732C53.1202 17.151 52.6455 16.9803 52.5046 16.6391C52.7493 16.6614 52.5862 16.6317 52.7123 16.6985L52.8755 16.8023ZM53.3502 17.1732H53.4021L53.3576 17.2326L53.3502 17.1732ZM46.2215 17.915H46.2734L46.2289 17.9744L46.2215 17.915ZM37.7056 18.82V18.7681L37.765 18.8126L37.7056 18.82ZM44.9456 18.9832H44.9975L44.953 19.0426L44.9456 18.9832ZM55.8501 18.9832V19.0351L55.7907 18.9906L55.8501 18.9832ZM58.8321 19.8363V19.8882L58.7728 19.8437L58.8321 19.8363ZM43.2395 21.7501H43.2914L43.2469 21.8095L43.2395 21.7501ZM53.8843 22.44C53.8917 22.4474 53.914 22.4474 53.9214 22.4623L54.4036 22.7664C54.411 22.7664 54.4258 22.7738 54.4332 22.7738C54.7596 22.8925 54.5148 22.8851 54.7225 22.8925C54.9451 22.9073 54.8561 22.848 55.1528 22.9222C55.3531 22.9667 55.4347 22.9073 55.583 22.9667H55.635H55.6869H55.7388C55.9836 23.0705 57.1482 22.9073 57.5933 23.078L57.9123 23.1818C58.0161 23.2041 57.9865 23.1521 58.0755 23.1521C58.3574 23.1521 58.2387 23.3524 58.847 23.1744C58.9656 23.1373 58.8618 23.1521 59.0027 23.1521C59.4033 23.1447 59.0398 23.3079 59.4849 23.1299L59.9597 23.0186C60.1451 22.9815 60.1377 23.0334 60.3676 22.9593C60.3751 22.9593 60.3899 22.9518 60.3899 22.9518C60.3973 22.9518 60.4122 22.9444 60.4196 22.9444C60.9017 22.7812 60.8572 23.0186 61.2578 22.7812C61.3468 22.7293 61.3617 22.6996 61.4433 22.6477C61.5545 22.9148 61.243 23.1744 61.1317 23.345C61.0278 23.4934 61.0204 23.5824 60.835 23.6862C60.694 23.7678 60.7831 23.6714 60.6347 23.8049C60.4789 23.9459 60.5753 23.9236 60.338 24.0423C60.3083 24.0571 60.2786 24.072 60.2341 24.0942L59.3588 24.428C59.025 24.4503 59.4997 24.48 59.0102 24.5319C58.8618 24.5467 58.9211 24.5467 58.8395 24.6654C58.4835 24.428 58.6689 24.7099 57.8529 24.6506L55.9688 24.658C55.7388 24.6728 54.6261 24.6877 54.4036 24.6283C54.2107 24.5764 54.2404 24.569 54.0623 24.569C53.8472 24.569 52.8309 24.6357 52.6158 24.5022C52.4304 24.4874 52.5046 24.48 52.3784 24.4874C52.2598 24.4948 52.1633 24.5022 52.0298 24.5022C52.0521 24.2723 52.1262 24.2129 52.2375 24.0126C52.4007 23.7085 52.2153 23.9088 52.4526 23.6491C52.46 23.6417 52.4675 23.6269 52.4823 23.6195L52.7419 23.2857C53.0757 22.6403 52.9274 23.0112 53.1351 22.7293C53.1796 22.6625 53.1573 22.6922 53.1722 22.6477L53.2389 22.5142C53.3131 22.3955 53.2538 22.4919 53.2983 22.3881C53.365 22.2026 53.3428 22.44 53.365 22.1581C53.7137 22.2026 53.2538 22.1433 53.8843 22.44ZM53.8843 22.44V22.3881L53.9436 22.4326L53.8843 22.44ZM41.3256 22.8703V22.8183L41.385 22.8628L41.3256 22.8703ZM61.3839 24.9399H61.332L60.4938 25.1698C60.4863 25.1698 60.4492 25.1624 60.4344 25.155L60.5976 24.9918H60.6495C60.7682 24.9102 60.8053 24.836 60.9092 24.7693C61.013 24.7025 60.9759 24.747 61.0872 24.6802C61.154 24.6432 61.1688 24.6135 61.2356 24.569C61.243 24.5616 61.2652 24.5393 61.2652 24.5467C61.2949 24.6061 61.8216 24.0497 61.9254 23.983C62.0219 24.2203 61.9032 24.4206 61.8958 24.5541C61.8883 24.6877 61.9477 24.7322 61.7548 24.8064C61.7474 24.8064 61.7326 24.8064 61.7251 24.8138L61.6139 24.8509C61.5471 24.8731 61.4433 24.9176 61.3839 24.9399ZM52.0224 24.517V24.569L51.963 24.5245L52.0224 24.517ZM60.427 25.155C60.3676 25.2069 60.5234 25.2069 60.2638 25.2069C60.3306 25.155 60.1748 25.155 60.427 25.155ZM59.9522 25.3182V25.2663L60.0116 25.3108L59.9522 25.3182ZM60.108 25.2589V25.3108L60.0487 25.2663L60.108 25.2589ZM59.841 25.3182H59.8929H59.9448L59.8929 25.3701H59.841H59.789L59.841 25.3182ZM59.6333 25.3701L59.6481 25.385C59.6481 25.385 59.6258 25.3701 59.6333 25.3701ZM59.789 25.3701V25.422L59.7297 25.3775L59.789 25.3701ZM52.1782 25.5259H52.2301C52.4675 25.4295 52.7716 25.563 53.1944 25.563C53.7434 25.563 54.0252 25.5333 54.6113 25.5927C54.997 25.6298 54.7077 25.7336 54.9377 25.6372H54.9896C55.1231 25.6965 55.0193 25.6965 55.1528 25.6372H55.2047C55.3382 25.6965 55.2344 25.6965 55.3679 25.6372H55.4198C55.5534 25.6965 55.4495 25.6965 55.583 25.6372H55.635C55.7685 25.6965 55.6646 25.6965 55.7982 25.6372H55.8501C55.9836 25.6965 55.8797 25.6965 56.0133 25.6372H56.0652C56.1987 25.6965 56.0949 25.6965 56.2284 25.6372H56.2803C56.4138 25.6965 56.31 25.6965 56.4435 25.6372H56.4954C56.629 25.6965 56.5251 25.6965 56.6586 25.6372H56.7106C56.8441 25.6965 56.7402 25.6965 56.8738 25.6372H56.9257C57.0592 25.6965 56.9554 25.6965 57.0889 25.6372H57.1408C57.2743 25.6965 57.1705 25.6965 57.304 25.6372H57.3559C57.4895 25.6965 57.3856 25.6965 57.5191 25.6372H57.5711C57.7046 25.6965 57.6007 25.6965 57.7343 25.6372H57.7862C57.9197 25.6965 57.8159 25.6965 57.9494 25.6372H58.0013C58.1348 25.6965 58.031 25.6965 58.1645 25.6372H58.2164H58.2683H58.3203C58.4983 25.5482 58.5428 25.5556 58.7505 25.563C58.8321 25.563 58.8099 25.5852 58.9582 25.5852V25.6372C58.8247 25.6372 58.8321 25.652 58.7431 25.6891H58.6763L57.942 25.9265C57.8678 25.9413 57.8529 25.9116 57.7491 25.9339C57.712 25.9413 57.6749 25.9636 57.6378 25.9784C57.6304 25.9858 57.6156 25.9932 57.6007 25.9932L57.5191 26.0303C57.5191 26.0303 57.3485 26.0674 57.2818 26.0823C57.1556 26.1119 57.3188 26.0674 57.1927 26.1045C57.1853 26.1045 57.1556 26.1193 57.1408 26.1268L56.807 26.2306H56.7551L56.2729 26.3864C56.0207 26.4309 56.1987 26.4012 56.0726 26.4531L55.3753 26.6534C55.2121 26.7276 55.1528 26.6831 54.8561 26.7795L54.6187 26.8611C54.3368 26.965 54.3961 26.8982 54.1662 26.9798C54.1588 26.9798 54.1439 26.9872 54.1439 26.9872L53.6173 27.1282C53.3947 27.1727 53.5282 27.1504 53.417 27.195L53.365 27.2172C53.1648 27.2766 53.1796 27.2246 52.9571 27.3285C52.868 27.3656 52.8384 27.373 52.7642 27.4101H52.7123C52.4971 27.4991 52.7048 27.4101 52.5565 27.4397C52.5416 27.4397 52.5046 27.4546 52.4897 27.4546C52.4081 27.4843 52.4304 27.4843 52.3859 27.5139L51.5847 27.729H51.5328C51.3844 27.7958 51.4364 27.7513 51.2806 27.7958C51.021 27.87 51.2806 27.9219 51.058 27.8329C51.2657 27.5288 51.0135 27.6475 51.3399 26.9724L51.4586 26.5718C51.466 25.9413 51.5476 26.5273 51.5625 26.0674C51.5773 25.5111 51.5921 26.0452 51.6663 25.563C51.696 25.3924 51.8221 25.474 52.0521 25.5185C52.1188 25.5111 52.1114 25.4962 52.1782 25.5259ZM58.9953 25.474L59.0102 25.4888C59.0102 25.4888 58.9879 25.4814 58.9953 25.474ZM59.0992 25.474L59.114 25.4888C59.114 25.4888 59.0917 25.4814 59.0992 25.474ZM59.203 25.474L59.2179 25.4888C59.2179 25.4888 59.203 25.4814 59.203 25.474ZM58.9953 25.5778L59.0102 25.5927C59.0102 25.5927 58.9879 25.5852 58.9953 25.5778ZM55.3753 26.646H55.4273L55.3827 26.7054L55.3753 26.646ZM58.1422 26.9131V26.8611L58.2016 26.9056L58.1422 26.9131ZM56.0133 31.7496V31.8015C55.9836 32.1353 55.9243 31.809 55.9317 32.2169C55.9391 32.5508 55.8352 32.5656 55.6572 32.7659L55.6127 32.8252C55.6127 32.8326 55.6053 32.8475 55.6053 32.8475C55.5979 32.8549 55.583 32.892 55.5756 32.8994C55.5756 32.8994 55.4866 33.0107 55.4792 33.0181C55.4272 33.0774 55.4347 33.1219 55.2641 33.1813C55.227 33.1071 55.227 33.1294 55.2047 33.0255C55.1528 32.8326 55.2344 32.7733 54.9451 32.751C54.9748 32.6843 54.9896 32.6249 54.9748 32.573C54.9154 32.3282 54.8486 32.662 54.5223 32.165H54.4703C54.4629 32.1576 54.4407 32.1353 54.4407 32.1428L53.5653 31.6309L53.4392 31.5642C53.276 31.4826 53.3873 31.5567 53.2983 31.3639H53.0312C53.0683 31.2749 53.1202 31.2897 53.0016 31.2303L52.7048 31.1042C52.7048 31.1042 52.601 31.0523 52.601 31.0449L52.5342 31.0078C52.5268 31.0004 52.512 30.993 52.5046 30.9856C52.4155 30.9262 52.3859 30.9114 52.2746 30.8446C52.1337 30.763 52.1411 30.7408 52.0298 30.6666L51.5476 30.4515C51.3028 30.2883 51.5476 30.3847 51.2361 30.2883L51.1248 30.2438C50.9245 30.1102 51.058 30.088 50.7539 30.0806L50.6871 29.9841C50.6278 29.9396 50.6352 29.9767 50.5314 29.8803C50.2346 29.6206 50.4275 29.7913 50.2272 29.7097H50.1753C50.1605 29.7022 50.1456 29.68 50.1382 29.6948L49.797 29.502H49.7451C49.5448 29.3981 49.5003 29.4278 49.3742 29.2349C49.6931 29.0791 49.5448 29.183 49.8118 29.2052L50.9097 28.8863C51.1545 28.8343 51.0135 28.9159 51.1322 28.7602L51.288 28.8714C51.4215 28.686 51.3548 28.8047 51.5625 28.7008H51.6144L52.1337 28.5673C52.4007 28.5302 52.0521 28.5154 52.4823 28.4412L52.6826 28.3744L53.1202 28.2706C53.2093 28.2335 53.098 28.2483 53.2909 28.1964C53.6766 28.0851 53.6692 28.1815 53.8472 28.0554C53.9956 27.9813 53.9956 28.0332 54.1439 27.9738L56.0207 27.4472C56.1542 27.4175 56.0059 27.4546 56.1245 27.4101L56.2358 27.3804C56.2655 27.373 56.3397 27.3507 56.3768 27.3359L56.4435 27.2988C56.4509 27.2988 56.4658 27.2914 56.4732 27.284L57.2447 27.0614C57.2521 27.0614 57.3337 27.0466 57.3708 27.0392L57.89 26.9279C58.1793 26.8537 57.9494 26.787 58.1571 26.876L57.9642 27.2914C57.9271 27.373 57.9123 27.3656 57.8529 27.4249C57.7194 27.5659 57.7491 27.5733 57.6675 27.7513L57.4153 28.1741C57.3634 28.278 57.4153 28.1519 57.3633 28.2557C57.3633 28.2631 57.3559 28.278 57.3485 28.2854C57.3485 28.2928 57.3411 28.3077 57.3411 28.3151C57.3411 28.3225 57.3337 28.3373 57.3337 28.3447L57.1037 28.8269C56.9924 29.0124 56.9183 28.9011 56.9109 29.1162C56.896 29.3833 56.9034 29.183 56.7699 29.3833C56.6512 29.5687 56.7847 29.4945 56.6364 29.7245C56.4584 29.999 56.5251 29.9545 56.4732 30.1028L56.3768 30.3921C56.3471 30.5405 56.1913 30.7482 56.1691 31.0523C56.1542 31.2155 56.1245 31.1562 56.0504 31.3787C55.9688 31.579 55.9613 31.6383 56.0133 31.7496ZM59.4181 27.284C59.344 27.3359 59.3811 27.3136 59.3217 27.3433C59.2549 27.3804 59.2327 27.3804 59.1808 27.4101C59.0695 27.4768 59.0547 27.5288 58.9434 27.5955L58.884 27.4917C59.1214 27.3359 58.9656 27.1875 59.4775 26.8537C59.4478 27.0985 59.4404 27.0392 59.4181 27.284ZM68.1936 27.0688V27.1208L68.1343 27.0763L68.1936 27.0688ZM59.4181 27.284H59.4701L59.4256 27.3433L59.4181 27.284ZM52.3933 27.4991H52.4452L52.4007 27.5584L52.3933 27.4991ZM58.936 27.6029V27.6549L58.8766 27.6104L58.936 27.6029ZM51.0655 27.8181V27.87L51.0061 27.8255L51.0655 27.8181ZM31.5858 27.9219V27.9738L31.5264 27.9293L31.5858 27.9219ZM53.8324 28.0851H53.7805L53.825 28.0258L53.8324 28.0851ZM52.6603 28.4041H52.6084L52.6529 28.3447L52.6603 28.4041ZM57.8233 29.4649V29.4129L57.8826 29.4574L57.8233 29.4649ZM57.8233 29.4649C57.8974 29.5687 57.9568 29.502 57.8529 29.9619C57.7936 30.2067 57.6527 30.0286 57.5562 30.4218H57.393C57.4524 30.2883 57.3856 30.4292 57.4227 30.3031L57.6749 29.6874C57.7936 29.4945 57.712 29.5465 57.8233 29.4649ZM31.9641 30.5256V30.4737L32.0234 30.5182L31.9641 30.5256ZM57.3411 30.4737V30.5256L57.2818 30.4811L57.3411 30.4737ZM52.0224 30.6888V30.7408L51.963 30.6963L52.0224 30.6888ZM54.4703 32.1799V32.2318L54.411 32.1873L54.4703 32.1799ZM33.0249 32.4469V32.395L33.0842 32.4395L33.0249 32.4469ZM71.6059 33.0329V33.0849L71.5466 33.0403L71.6059 33.0329ZM47.7125 35.1026V34.9987C47.9054 35.0432 47.9944 35.0951 48.165 35.1842C48.4617 35.3325 48.4098 35.2212 48.7214 35.2657C48.9068 35.2954 48.8771 35.3696 49.1516 35.3696C49.5003 35.3696 49.2555 35.2657 49.6783 35.2583C50.4498 35.2435 49.9824 35.4586 50.7465 35.4735C51.0729 35.4809 51.0284 35.518 51.1841 35.5625C51.3473 35.607 51.3325 35.5328 51.5476 35.7405C51.555 35.7479 51.5699 35.7628 51.5773 35.7702C51.5847 35.7776 51.5921 35.785 51.5996 35.7998C51.4809 35.9705 51.4735 35.9111 51.4512 36.0891C51.4215 36.3488 51.4883 36.423 51.4364 36.5491C51.7182 36.5491 51.518 36.5491 51.5996 36.601L51.7034 36.5416C51.8666 36.7642 51.8073 36.5194 51.8963 36.8235L51.9111 36.8829C52.1114 37.3947 51.8814 37.0164 52.0669 37.3502L52.1114 37.4911C52.1114 37.4986 52.1188 37.5134 52.1188 37.5208C52.2004 37.7879 52.0891 37.6766 52.2153 37.9436L52.3265 38.27C52.3265 38.2775 52.3414 38.2923 52.3414 38.2997C52.4897 38.6484 52.3191 38.4332 52.5342 38.6855C52.7123 38.8932 52.5936 38.7225 52.6677 38.9896L52.8532 39.4124C52.9645 39.6498 52.92 39.4273 52.9422 39.6498C52.9645 39.8427 53.0609 39.672 53.0609 40.0207L53.0238 40.488V40.54C52.8161 40.8515 53.0609 40.9034 52.8755 41.7194C52.8755 41.7194 52.8458 41.89 52.8458 41.8975L52.8532 42.1497C52.7568 42.7134 52.9496 42.5428 52.9422 43.0547C52.9422 43.433 52.8532 44.2119 53.009 44.4863C53.0906 44.6273 53.0238 45.013 53.0461 45.2875C53.0609 45.4433 53.0683 45.332 53.0832 45.421V46.059C53.0832 46.0664 53.0906 46.0812 53.0906 46.0812L53.0461 46.8082C53.0461 46.823 53.0461 46.8675 53.0461 46.8749C53.009 47.1049 52.9496 46.8972 52.9422 47.142C52.9348 47.5351 52.8829 47.1642 52.8309 47.6538C52.7939 48.0544 52.6307 48.1063 52.5936 48.5662C52.4007 48.7072 52.5565 48.544 52.5046 48.7517L52.2227 49.7383C52.193 49.8125 52.2004 49.7976 52.193 49.857C52.1856 49.9015 52.1856 49.8941 52.1633 49.9979C52.0817 50.354 52.104 50.6359 52.0966 50.8732C52.0743 51.1922 51.9259 50.6136 51.9927 52.2159V52.6758C51.9927 52.7945 51.9779 52.8019 51.9779 52.8984C51.9705 53.1357 51.963 52.9132 52.0521 53.0986C52.1782 53.3509 51.9853 53.0986 52.0966 53.4621C52.1707 53.6921 52.193 54.3523 52.1188 54.6045C52.0298 54.9161 52.104 55.1683 52.0891 55.2721C52.0595 55.465 52.0372 55.2944 51.9853 55.5243C51.9408 55.7395 52.0224 55.8656 51.9482 56.0288L51.8444 56.6667C51.8147 56.7557 51.8147 56.689 51.7702 56.8299L51.6589 57.3714C51.6292 57.5569 51.555 57.3788 51.5476 57.5791C51.5254 58.2022 51.4586 57.5643 51.4438 57.9797C51.4364 58.2097 51.4957 58.1874 51.0877 58.3506C50.7539 58.4841 50.6575 58.447 50.4498 58.447C50.3459 58.447 50.3014 58.4545 50.1753 58.4396C50.1085 58.4322 50.0269 58.4174 49.9602 58.3951L49.5967 58.1651C49.5893 58.1577 49.5819 58.1429 49.5744 58.1355C49.567 58.1281 49.5596 58.1132 49.5596 58.1058L49.5151 58.0094L49.5003 57.9945L49.2332 57.4679C49.1294 57.2379 49.1887 57.2676 48.981 57.134C48.8252 57.1786 48.7807 57.2231 48.7214 57.3492C48.6324 57.5495 48.6769 57.5272 48.5582 57.7127C48.3876 57.8388 48.5211 57.6978 48.4172 57.8907C48.3801 57.9574 48.4024 57.9278 48.3653 58.002C48.0612 58.5064 48.4024 58.091 47.9276 58.4099C47.7644 58.3654 47.579 58.18 47.4084 58.3135C47.2823 58.4099 47.3342 58.4174 47.171 58.5064C46.9262 58.6399 46.763 58.8624 46.444 58.8031C46.2883 58.7734 46.2808 58.7363 46.1325 58.6992C46.0212 58.6696 46.1176 58.6622 45.9693 58.6844C45.9545 58.6844 45.9025 58.7067 45.8951 58.7141C45.8209 58.7438 45.8358 58.7512 45.7913 58.7808C45.6132 58.8995 45.7022 58.907 45.5094 58.9737L45.3758 59.0182C45.2942 59.0331 45.2794 59.0256 45.2052 58.996H45.1533C45.0198 59.0553 45.1236 59.0553 44.9901 58.996H44.9382C44.8047 58.9366 44.9085 58.9366 44.775 58.996H44.7305C44.5376 59.0776 44.5895 58.907 44.545 59.085C44.5005 59.2482 44.634 58.996 44.4412 59.5152C44.1445 60.3386 43.7661 59.7155 43.1875 59.9529H43.1356C42.7647 59.9826 42.7944 60.0345 42.5347 60.1383C42.3864 60.1977 42.3345 60.309 42.2825 60.3238C41.7855 60.4721 41.9858 60.0493 41.9858 60.0493C42.0971 59.4559 41.971 60.1828 42.0971 59.671L42.2009 59.352C42.2158 59.3149 42.4309 59.0331 42.2974 58.7363C42.2009 58.5212 42.1935 58.7363 42.2009 58.4767C42.2084 58.3209 42.1935 58.3729 42.1787 58.1429L42.0748 58.0836C42.2529 57.6459 41.8375 57.9797 42.1861 56.9263C42.2454 56.7483 42.1638 56.8225 42.238 56.6148L42.3122 56.4145C42.3493 56.3032 42.379 56.14 42.4086 56.0362L42.4457 55.8952C42.4457 55.8878 42.4606 55.873 42.468 55.8656L42.6238 55.5763C42.8166 55.1609 42.9872 54.968 43.0614 54.382L43.2469 53.7737C43.3136 53.4844 43.2395 53.4325 43.4472 53.0764C43.5139 52.9651 43.4843 53.0393 43.4917 52.9429C43.5213 52.661 43.5065 52.9725 43.5955 52.7055C43.6326 52.5868 43.5436 52.5942 43.64 52.3272L43.6697 52.2456C43.6771 52.2307 43.7142 52.2011 43.6771 52.0824L43.64 51.1774C43.6474 51.17 43.6549 51.1551 43.6623 51.1477C43.6697 51.1403 43.6771 51.1255 43.6771 51.118L43.7142 51.0142C43.7142 51.0068 43.7216 50.9919 43.729 50.9845C43.9442 50.5914 43.781 50.9178 43.7068 50.5098L43.7365 50.2501C43.7958 50.1463 43.729 50.354 43.8032 50.1389L43.9293 49.7309C43.9293 49.7235 43.9368 49.7086 43.9442 49.7012L44.1074 49.0781C44.0851 48.8185 44.0258 49.2561 44.0258 48.3437L44.0332 47.2829C43.9961 47.0604 43.9813 47.2607 43.9368 47.0975C43.9293 47.0752 43.9368 46.8898 43.9293 46.8601C43.8922 46.6747 43.8329 46.7859 43.8106 46.6227C43.8032 46.5634 43.8255 46.5931 43.8106 46.5189C43.7958 46.4595 43.6252 46.2147 43.729 46.1035L44.0258 45.9848C44.2631 45.918 43.9738 46.0367 44.1741 45.9551C44.189 45.9477 44.2557 45.9106 44.2706 45.9032L44.3744 45.8438C44.4412 45.7993 44.4412 45.7919 44.4931 45.7548C44.8417 45.5174 44.7156 45.6732 44.953 45.4136C44.9604 45.4062 44.9679 45.3913 44.9753 45.3839C45.0495 45.3023 44.9827 45.3468 45.0865 45.2801L45.3833 45.0946C45.3907 45.0872 45.4129 45.0649 45.4129 45.0724C45.4129 45.0724 45.6651 44.9537 45.7467 44.8498C45.7616 44.8276 45.7987 44.7905 45.8135 44.7756L46.0806 44.5605L46.6147 44.249C46.6221 44.2415 46.6295 44.2267 46.6369 44.2193L46.8743 44.0264C47.0375 43.7816 47.1191 43.8187 47.2155 43.6184C47.2155 43.611 47.2229 43.5962 47.2229 43.5962L47.2971 43.4997C47.5938 43.2475 47.3268 43.4701 47.4974 43.2772C47.5642 43.1956 47.5938 43.2253 47.6458 43.0917L47.6828 42.9805C47.8164 42.6689 47.8386 42.8173 47.8609 42.6393C47.8683 42.5799 47.8386 42.617 47.8609 42.5354C47.9128 42.2832 47.9425 42.6096 47.9722 42.0384L47.987 40.9628C47.9128 40.6141 48.0389 40.2284 47.8831 39.7907L47.8609 39.3976C47.8683 39.0934 47.7644 39.316 47.7644 38.9228L47.757 38.2107C47.7719 38.0549 47.8312 38.0772 47.8609 37.9882C47.8683 37.9585 47.8535 37.8546 47.8535 37.8027C47.8609 37.7285 48.0537 37.2834 47.8757 36.8161C47.8238 36.6752 47.8757 36.5565 47.8535 36.5268C47.809 36.4675 47.8831 36.4971 47.7199 36.4823C47.8609 36.1856 47.5716 35.518 47.7199 35.1545V35.1026H47.7125ZM34.5159 38.1365H34.5678L34.5233 38.1959L34.5159 38.1365ZM34.998 39.4718H34.9387L34.9832 39.4124L34.998 39.4718ZM71.8656 39.4718V39.4198L71.9249 39.4643L71.8656 39.4718ZM33.6628 39.6275H33.7147L33.6702 39.6869L33.6628 39.6275ZM71.8656 39.4718C72.0139 39.7017 72.0065 39.5534 71.9991 39.7759C71.9991 39.902 71.9694 39.9836 72.0213 40.1097C71.9027 40.1616 71.9323 40.1245 71.7543 40.1616C71.8062 39.9094 71.7765 39.8575 71.784 39.672L71.8656 39.4718ZM33.559 39.7314H33.6109L33.5664 39.7907L33.559 39.7314ZM72.0288 40.1097H72.0807L72.0362 40.1691L72.0288 40.1097ZM27.2759 40.6957H27.3278L27.2833 40.7551L27.2759 40.6957ZM41.9636 41.3337H42.0155L41.971 41.393L41.9636 41.3337ZM26.2151 41.5414H26.267L26.2225 41.6007L26.2151 41.5414ZM72.8299 41.6007V41.5488L72.8892 41.5933L72.8299 41.6007ZM73.0376 41.8084C73.0673 41.8826 73.0599 41.8678 73.0673 41.9271C73.0747 41.9642 73.0821 42.0236 73.0895 42.1274C73.3937 42.3499 73.0079 42.0087 73.2305 42.5206C73.364 42.8321 73.1637 42.706 73.3566 42.9805L73.8091 44.5383C73.8165 44.7905 73.7497 44.8053 73.6385 44.8647L73.4604 44.9537C73.3269 45.013 73.4308 45.013 73.2972 44.9537H73.2453C73.1118 45.013 73.2156 45.013 73.0821 44.9537H73.0302C72.8967 45.013 73.0005 45.013 72.867 44.9537H72.8151L72.7112 45.013C72.5999 44.8424 72.5851 44.8647 72.4516 44.8795C72.2958 44.8943 72.2142 44.8869 72.1252 44.8498H72.0733L71.4502 44.6495C71.2573 44.5902 71.5243 44.605 71.2202 44.5828L71.3537 44.0413C71.376 43.9003 71.324 43.5665 71.3611 43.4849C71.4427 43.292 71.4576 43.4775 71.465 43.2475C71.4724 42.4167 71.5021 42.9137 71.5392 42.4093V42.3574C71.4947 42.2461 71.4947 42.0977 71.5392 41.9865V41.9197V41.7565L71.643 41.7046H71.695C71.7914 41.7417 71.7024 41.7343 71.784 41.7194C71.7914 41.7194 71.8285 41.7046 71.8359 41.6972L71.8878 41.6749C72.0658 41.623 72.3329 41.6601 72.4367 41.6378C72.6445 41.6081 72.5925 41.4969 72.8077 41.5859C73.1044 41.7936 72.778 41.623 73.0376 41.8084ZM41.3256 41.7565H41.3775L41.333 41.8159L41.3256 41.7565ZM73.0376 41.8084V41.7565L73.097 41.801L73.0376 41.8084ZM40.9028 41.9716H40.9547L40.9102 42.031L40.9028 41.9716ZM73.3566 42.9805V42.9286L73.4159 42.9731L73.3566 42.9805ZM46.0657 44.5754H46.0138L46.0583 44.516L46.0657 44.5754ZM73.4679 44.9463H73.5198L73.4753 45.0056L73.4679 44.9463ZM44.3596 45.8512H44.3077L44.3522 45.7919L44.3596 45.8512ZM73.3047 46.7043H73.2527L73.2972 46.645L73.3047 46.7043ZM29.8351 47.9802V47.9283L29.8945 47.9728L29.8351 47.9802ZM52.6084 48.5662H52.6603L52.6158 48.6256L52.6084 48.5662ZM64.7369 49.6864V49.6344L64.7962 49.6789L64.7369 49.6864ZM65.1671 54.738C64.9371 54.9012 65.1968 54.6416 65.0187 55.0644L64.9075 55.4353C64.8852 55.5392 64.9075 55.5095 64.8704 55.6208C64.8704 55.6282 64.8555 55.643 64.8555 55.6579C64.811 55.8062 64.8704 56.7335 64.9149 56.8077L65.5009 57.9426C65.5009 57.95 65.5083 57.9649 65.5083 57.9723C65.5083 57.9797 65.5157 57.9945 65.5157 58.002C65.5973 58.18 65.6567 58.1577 65.6196 58.269C65.5677 58.4396 65.6122 58.2838 65.4267 58.358H65.3748C65.0262 58.5286 64.0321 58.3877 63.8393 58.4248L63.6538 58.499C63.639 58.5064 63.6242 58.5064 63.6093 58.5064L63.2978 58.6176C63.2755 58.5731 63.2755 58.6028 63.2681 58.5509C63.2458 58.4174 63.3052 58.3877 63.231 58.2022C63.0901 57.8536 63.1865 57.5272 63.1197 57.2453C63.0678 57.0376 63.053 57.2379 63.053 57.0079C63.0455 56.4738 62.9788 54.2707 63.1271 53.9295L63.1717 53.8182C63.1717 53.8108 63.1791 53.7959 63.1791 53.7885L63.2978 53.5511C63.2978 53.5437 63.3126 53.5289 63.3126 53.5215C63.32 53.5141 63.3274 53.4992 63.3274 53.4844C63.5129 53.0393 63.32 52.5126 63.3423 52.3865C63.3868 52.1269 63.4016 52.3494 63.3052 52.1195C63.2087 51.8895 63.3423 51.9711 63.2236 51.7708C63.0901 51.5409 63.2013 51.5409 63.1494 51.3999C62.9714 50.8881 63.1123 51.1106 63.0233 50.9103C62.9862 50.851 62.9936 50.9103 62.9714 50.7991L62.9639 48.5143L63.498 48.9371C63.6167 49.0187 63.6538 49.0929 63.7577 49.1597L64.722 49.6864C64.8481 49.857 64.722 49.7012 64.8704 49.7754L65.1968 50.0276C65.4861 50.3095 65.2487 49.857 65.5528 50.5617L65.7086 51.2367C65.716 51.3703 65.6196 51.4222 65.5973 51.5631C65.5899 51.6225 65.5973 51.7782 65.5973 51.8524C65.5973 52.5349 65.5454 52.0082 65.4861 52.8019C65.4712 53.0171 65.3822 52.8539 65.3822 53.1061C65.3822 53.7143 65.3377 53.2248 65.2784 53.744C65.2635 53.8479 65.2487 54.3671 65.3006 54.4784C65.0484 54.5007 65.2487 54.5377 65.1671 54.738ZM56.6512 50.2205V50.1685L56.7106 50.213L56.6512 50.2205ZM56.7551 50.1611L56.7699 50.1759C56.7699 50.1759 56.7551 50.1685 56.7551 50.1611ZM56.8663 50.1611L56.8812 50.1759C56.8812 50.1759 56.8589 50.1685 56.8663 50.1611ZM56.9702 50.1611L56.985 50.1759C56.985 50.1759 56.9628 50.1685 56.9702 50.1611ZM57.074 50.1611L57.0889 50.1759C57.0889 50.1759 57.074 50.1685 57.074 50.1611ZM57.1853 50.1611L57.2002 50.1759C57.2002 50.1759 57.1779 50.1685 57.1853 50.1611ZM57.2892 50.1611L57.304 50.1759C57.304 50.1759 57.2818 50.1685 57.2892 50.1611ZM57.393 50.1611L57.4079 50.1759C57.4079 50.1759 57.393 50.1685 57.393 50.1611ZM57.5043 50.1611L57.5191 50.1759C57.5191 50.1759 57.4969 50.1685 57.5043 50.1611ZM57.6081 50.1611L57.623 50.1759C57.623 50.1759 57.6007 50.1685 57.6081 50.1611ZM57.712 50.1611L57.7268 50.1759C57.7268 50.1759 57.712 50.1685 57.712 50.1611ZM57.8233 50.1611L57.8381 50.1759C57.8381 50.1759 57.8158 50.1685 57.8233 50.1611ZM57.9271 50.1611L57.942 50.1759C57.942 50.1759 57.9197 50.1685 57.9271 50.1611ZM58.031 50.1611L58.0458 50.1759C58.0458 50.1759 58.031 50.1685 58.031 50.1611ZM58.1422 50.1611L58.1571 50.1759C58.1571 50.1759 58.1348 50.1685 58.1422 50.1611ZM58.2461 50.1611L58.2609 50.1759C58.2609 50.1759 58.2387 50.1685 58.2461 50.1611ZM58.3499 50.1611L58.3648 50.1759C58.3648 50.1759 58.3499 50.1685 58.3499 50.1611ZM58.4612 50.1611L58.4761 50.1759C58.4761 50.1759 58.4538 50.1685 58.4612 50.1611ZM58.5651 50.1611L58.5799 50.1759C58.5799 50.1759 58.5577 50.1685 58.5651 50.1611ZM58.6763 50.1611L58.6912 50.1759C58.6838 50.1759 58.6689 50.1685 58.6763 50.1611ZM58.7802 50.1611L58.795 50.1759C58.795 50.1759 58.7728 50.1685 58.7802 50.1611ZM58.884 50.1611L58.8989 50.1759C58.8989 50.1759 58.8766 50.1685 58.884 50.1611ZM58.9953 50.1611L59.0102 50.1759C59.0102 50.1759 58.9879 50.1685 58.9953 50.1611ZM59.0992 50.1611L59.114 50.1759C59.114 50.1759 59.0917 50.1685 59.0992 50.1611ZM59.203 50.1611L59.2179 50.1759C59.2179 50.1759 59.203 50.1685 59.203 50.1611ZM59.3143 50.1611L59.3291 50.1759C59.3291 50.1759 59.3069 50.1685 59.3143 50.1611ZM59.4181 50.1611L59.433 50.1759C59.433 50.1759 59.4107 50.1685 59.4181 50.1611ZM59.522 50.1611L59.5368 50.1759C59.5368 50.1759 59.522 50.1685 59.522 50.1611ZM59.6333 50.1611L59.6481 50.1759C59.6481 50.1759 59.6258 50.1685 59.6333 50.1611ZM59.7371 50.1611L59.7519 50.1759C59.7519 50.1759 59.7297 50.1685 59.7371 50.1611ZM59.841 50.1611L59.8558 50.1759C59.8558 50.1759 59.841 50.1685 59.841 50.1611ZM59.9522 50.1611L59.9671 50.1759C59.9671 50.1759 59.9448 50.1685 59.9522 50.1611ZM60.0561 50.1611L60.0709 50.1759C60.0709 50.1759 60.0487 50.1685 60.0561 50.1611ZM60.1599 50.1611L60.1748 50.1759C60.1748 50.1759 60.1599 50.1685 60.1599 50.1611ZM60.3751 50.1611L60.3899 50.1759C60.3899 50.1759 60.3676 50.1685 60.3751 50.1611ZM60.5902 50.1611L60.605 50.1759C60.605 50.1759 60.5828 50.1685 60.5902 50.1611ZM60.7979 50.1611L60.8127 50.1759C60.8127 50.1759 60.7979 50.1685 60.7979 50.1611ZM61.013 50.1611L61.0279 50.1759C61.0279 50.1759 61.0056 50.1685 61.013 50.1611ZM61.2281 50.1611L61.243 50.1759C61.243 50.1759 61.2207 50.1685 61.2281 50.1611ZM61.4433 50.1611L61.4581 50.1759C61.4507 50.1759 61.4358 50.1685 61.4433 50.1611ZM61.8661 50.1611L61.8809 50.1759C61.8809 50.1759 61.8587 50.1685 61.8661 50.1611ZM60.0561 50.3243V50.2724L60.1154 50.3169L60.0561 50.3243ZM40.1016 52.6684H40.0497L40.0942 52.6091L40.1016 52.6684ZM40.1536 52.6684V52.6165L40.2129 52.661L40.1536 52.6684ZM67.5038 55.7543L67.4148 55.4502C67.4148 55.4427 67.4073 55.4279 67.4073 55.4205C67.3851 55.3537 67.3777 55.4205 67.3332 55.2499C67.2293 54.8641 67.4296 55.1015 67.4296 54.5748C67.4296 54.2707 67.437 53.6253 67.7189 53.4176C67.7634 53.3138 67.7263 53.3805 67.7486 53.2989C67.7486 53.2915 67.756 53.2767 67.756 53.2693C67.756 53.2618 67.7634 53.247 67.7634 53.2396L67.7782 53.1877C67.8153 53.0616 67.7486 53.1061 67.9266 52.9874C68.0601 53.3064 67.845 52.98 67.845 53.7218C67.845 54.0407 67.9192 55.0644 67.7857 55.2944L67.5038 55.7543ZM38.4029 53.7292H38.351L38.3955 53.6698L38.4029 53.7292ZM55.0044 54.3671H54.9525L54.997 54.3078L55.0044 54.3671ZM65.1671 54.738H65.219L65.1745 54.7974L65.1671 54.738ZM38.4029 55.2202H38.351L38.3955 55.1609L38.4029 55.2202ZM54.7893 55.2202H54.7374L54.7819 55.1609L54.7893 55.2202ZM34.998 55.4353H34.9387L34.9832 55.376L34.998 55.4353ZM34.998 55.4353C35.1687 55.5614 35.0351 55.4353 35.0945 55.5763C35.1464 55.7098 35.1242 55.5837 35.1761 55.7766C35.3615 56.459 35.2948 55.8804 35.2948 56.8818C35.2948 57.1118 35.3022 57.3195 35.2948 57.5495C35.2948 57.7423 35.3244 57.5865 35.2503 57.7127L35.1909 57.8165C35.1019 58.0316 35.0945 58.1429 34.9461 58.3654C34.7607 58.6325 34.9313 58.8105 34.4565 58.8105C34.2637 58.8105 34.3749 58.8254 34.1376 58.7734C33.8705 58.7141 34.0782 58.7957 33.9892 58.5806C34.3304 58.5435 34.412 58.18 34.5233 58.0984C34.5604 58.0316 34.553 58.0465 34.6049 57.9649L34.8645 57.6014C34.9461 57.3863 34.7458 57.594 34.9313 57.3937C35.1242 57.186 35.1019 56.6667 35.0871 56.3552C35.0796 56.192 35.0796 56.1697 34.9535 56.0733C35.1538 55.7543 34.8645 55.7469 34.998 55.4353ZM67.5038 55.8062H67.5557L67.5112 55.8656L67.5038 55.8062ZM51.9705 56.0139H52.0224L51.9779 56.0733L51.9705 56.0139ZM40.0497 56.867H40.1016L40.0571 56.9263L40.0497 56.867ZM39.9459 57.186H39.9978L39.9533 57.2453L39.9459 57.186ZM70.5377 57.5049V57.5569L70.4784 57.5124L70.5377 57.5049ZM48.5656 57.7201H48.6175L48.573 57.7794L48.5656 57.7201ZM34.9387 58.358H34.9906L34.9461 58.4174L34.9387 58.358ZM45.7987 58.7808H45.8506L45.8061 58.8402L45.7987 58.7808ZM60.0561 60.7021H60.108L60.0635 60.7615L60.0561 60.7021ZM36.9119 61.8148H36.86L36.9045 61.7555L36.9119 61.8148ZM73.5198 62.4528H73.4679L73.5124 62.3934L73.5198 62.4528ZM50.6352 10.0964H50.6946C50.7316 10.1039 50.7984 10.1261 50.9245 10.1632C50.9987 10.1855 51.0803 10.178 51.1471 10.2448C51.1471 10.2448 51.1545 10.267 51.1619 10.267L51.1767 10.3116C51.5031 10.319 51.4141 10.4228 51.6589 10.4154C51.963 10.408 51.7702 10.2893 52.1856 10.2596L52.2894 10.319C52.7864 10.6009 52.69 10.8753 52.8755 11.0608L52.9571 11.1424C53.276 11.491 52.8161 11.5578 53.2018 11.5875C53.1425 11.7061 53.1499 11.6468 53.1648 11.81C53.2018 12.2477 53.2464 12.1661 53.3576 12.3367C54.2107 12.3367 54.1217 12.2625 54.1291 12.2551L54.7374 11.9584C54.8857 11.8545 54.9525 11.8768 55.1083 11.7952C55.2121 11.9435 55.2789 11.9658 55.3902 12.0993C55.5682 12.2996 55.5534 13.0488 55.4569 13.3233L55.4273 13.3974C55.3976 13.4939 55.4198 13.39 55.405 13.479C55.3753 13.7387 55.4421 13.5755 55.2715 13.8722C55.086 14.1912 55.1602 14.3766 54.9451 14.2876C54.9673 14.5398 54.997 14.4731 54.8783 14.525L54.5668 14.8069C54.4777 14.9552 54.6632 14.7995 54.4555 15.022C53.9659 15.5413 53.914 15.6377 53.3873 15.9492L53.5579 16.0976L54.092 16.4166C54.0994 16.424 54.1217 16.4314 54.1291 16.4388L54.27 16.5649C54.27 16.5649 54.2849 16.5798 54.2923 16.5798C54.3813 16.6836 54.2849 16.6836 54.5223 16.8394C54.5297 16.8468 54.5519 16.8542 54.5593 16.8617C54.5668 16.8691 54.5816 16.8765 54.589 16.8839C54.7374 17.0026 54.5148 16.8988 54.7374 17.0545L54.9525 17.24C55.0489 17.3587 54.9154 17.1732 54.9896 17.3067L55.2492 17.8186C55.3308 18.0708 55.227 18.0115 55.3753 18.1153C55.3753 18.4936 55.3531 18.5307 55.4643 18.6642C55.672 18.909 55.7314 18.8868 55.8575 18.9684L56.4435 19.1835C56.4509 19.1909 56.4732 19.1983 56.4732 19.2058C56.7922 19.3912 56.7699 19.4802 56.8886 19.5321L57.4449 19.6657C57.5711 19.6805 57.7343 19.6731 57.8529 19.636C57.8678 19.6286 57.9049 19.6063 57.9197 19.6063C57.9271 19.6063 57.942 19.5989 57.942 19.5915C57.9494 19.5915 57.9642 19.5841 57.9642 19.5841C58.4315 19.4505 58.5354 19.6286 58.6689 19.7176L58.8321 19.8214C58.9286 19.866 59.0027 19.8808 59.0992 19.9253H59.1511C59.4404 20.0662 59.4552 19.9698 59.6407 20.0069C59.8706 20.0514 59.8632 20.1182 60.0561 20.2443C60.2119 20.4668 60.2044 20.3481 60.3973 20.3852C60.6569 20.4371 60.5976 20.4817 60.7979 20.3481H60.8498C60.9833 20.4075 60.8795 20.4075 61.013 20.3481H61.0649C61.3468 20.4668 61.0204 20.1998 61.3023 20.4742C61.4284 20.6003 61.7845 20.7116 61.9106 20.719L61.8587 20.4001V20.3481C61.8438 20.1923 61.8512 20.2739 61.8142 20.1775C61.7251 19.9327 61.7771 19.1167 61.7771 18.7903C61.7771 17.6628 61.8661 18.7458 61.8809 17.8557C61.8809 17.8408 61.8809 17.7518 61.8809 17.7518C61.8735 17.7073 61.8735 17.7147 61.8512 17.6702C61.6732 17.329 61.7177 17.5812 61.5842 17.3661C61.4062 17.0842 61.8067 16.654 61.8809 16.4982C61.9032 16.4537 61.8587 16.4759 61.9551 16.4092L62.1999 15.9418L61.7177 14.9775C61.5916 14.8365 61.5026 14.7104 61.4655 14.5027C61.4581 14.4508 61.4729 14.3989 61.4581 14.3395L61.3246 13.9241V13.8722C61.2356 13.6868 61.243 13.4716 61.243 13.3826C61.243 13.1304 61.1836 13.301 61.191 13.0117L61.1762 12.4109C61.1762 12.0474 61.3097 11.9954 61.5694 12.0845L61.74 12.1735C61.7993 12.2699 61.7622 12.2402 61.8661 12.307L61.9699 12.3663C61.9774 12.3589 61.9922 12.3812 61.9996 12.3886C62.0664 12.4331 62.0886 12.4331 62.148 12.5073L62.2963 12.7224C62.3112 12.7447 62.2741 12.7447 62.3779 12.8114L62.4818 12.9153C62.4818 12.9153 62.5115 13.0117 62.734 12.9301C63.409 12.6853 63.461 13.0265 63.8022 12.9301L64.0396 12.8411C64.1879 12.8263 64.2102 12.8708 64.2176 12.8708C64.4698 12.9227 64.2992 12.8782 64.5069 13.0191H64.5588C64.6923 13.0785 64.5885 13.0785 64.722 13.0191H64.7739C64.9446 12.9079 64.811 12.9301 65.041 12.9153H65.0929C65.2561 12.8485 65.4045 12.9079 65.5603 12.982L65.627 13.0265L65.946 13.3455C66.4504 13.5829 66.2205 13.5903 66.4653 13.5829C66.673 13.5755 66.9697 13.5755 67.1922 13.4642C67.6744 13.2268 67.2219 13.4494 67.526 13.3604L68.023 13.1304H68.075L68.2678 13.0043C68.2752 12.9969 68.2901 12.9895 68.2975 12.982C68.3494 12.945 68.4681 12.8856 68.5052 12.8708C68.9725 12.6779 68.6981 12.8634 68.8984 12.4702C68.9132 12.4479 68.8909 12.4405 68.9354 12.396C69.0245 12.307 69.3286 12.3515 69.4028 12.3812L69.477 12.7224C69.5066 12.9004 69.4918 12.7002 69.4325 12.9227C69.3509 13.2194 69.4992 13.1081 69.2841 13.39L69.2099 13.5087C69.2099 13.5161 69.2025 13.531 69.2025 13.531C69.1432 13.6497 69.0096 13.8499 69.0022 13.9835C68.98 14.3766 68.928 13.9612 68.8984 14.5176C68.8909 14.6733 68.9206 14.5324 68.8316 14.6808C68.8242 14.6882 68.8093 14.7253 68.8019 14.7327C68.8019 14.7401 68.7945 14.7549 68.7871 14.7549L68.5423 15.0888L68.3272 15.3039C68.2085 15.3855 68.164 15.4003 68.1343 15.5932C68.1046 15.749 68.1343 15.6748 68.1343 15.7712C68.1343 15.7712 68.1195 15.9122 68.112 15.9418V15.9938C68.0898 16.246 68.0675 16.0828 68.1046 16.2682C68.112 16.3053 68.1269 16.3572 68.1269 16.3721C68.1491 16.4685 68.4755 17.0397 68.4607 17.2029C68.4607 17.2251 68.2307 17.9299 68.4013 18.3082C68.4533 18.4269 68.4681 18.3898 68.4607 18.4788L68.2011 19.1167C68.1046 19.2651 68.1269 19.1093 68.112 19.3467V19.3986C67.8673 19.7621 67.9489 19.3986 67.9266 19.9179C67.9118 20.1998 67.8079 20.044 67.8153 20.3926C67.8153 20.4075 67.8227 20.4965 67.8227 20.4965C67.8153 20.5707 67.8227 20.5262 67.7782 20.6003L67.6595 20.8674C67.6225 21.038 67.667 21.1196 67.6595 21.2902V22.0394C67.667 22.3065 67.6076 22.9889 67.6818 23.167C67.5928 23.2189 67.5928 23.167 67.6818 23.2189C67.7857 23.4711 67.6299 24.1758 67.7411 24.3909L67.8005 24.4651C67.8005 24.4725 67.8079 24.48 67.8153 24.4874C67.8598 24.5986 67.756 24.8731 67.8598 25.2514C67.8969 25.3775 67.8376 25.3553 67.8969 25.5036V25.5556C67.9563 25.6891 67.9192 25.8078 67.9266 25.9561L68.1046 26.5644V26.6163C68.164 26.7647 68.112 26.7128 68.1343 26.8389C68.164 26.9947 68.2085 26.9056 68.1566 27.0392C68.4607 27.2617 68.0082 27.0318 68.3198 27.2543L68.8464 27.6326C69.1951 27.8181 69.3212 28.1519 69.3509 28.1964L69.7885 28.8714C69.9146 29.0495 69.744 28.7898 69.8182 28.9233C69.8182 28.9308 69.8256 28.9456 69.8256 28.9456C69.8924 29.0717 69.7366 28.9308 69.9146 29.0569L70.0185 29.1607L70.1223 29.2646L70.2262 29.3684L70.33 29.4723L70.5674 29.7022C70.5897 29.7319 70.5452 29.7245 70.649 29.7987C70.7677 29.9767 70.8345 29.9693 70.9531 30.1918L71.1683 30.5553C71.2795 30.6963 71.2573 30.5776 71.3092 30.7853C71.3537 30.9633 71.2425 30.7779 71.3611 30.9559C71.4205 31.0375 71.4576 31.0597 71.5095 31.1784L71.643 31.5938C71.6727 31.7199 71.5911 31.6235 71.6875 31.9351C71.8359 32.4321 71.6727 32.484 71.6504 32.6027C71.6356 32.6769 71.6653 32.6694 71.643 32.7585C71.5837 32.9513 71.5985 32.6843 71.5688 32.9884C71.8211 33.1665 71.5021 32.9365 71.7172 33.4261L71.8359 33.9898C71.8359 33.9973 71.8433 34.0121 71.8433 34.0121C71.8433 34.0195 71.8507 34.0344 71.8507 34.0344C71.8507 34.0418 71.8581 34.0566 71.8581 34.0566L71.8804 34.1085C71.8804 34.116 71.8878 34.1308 71.8952 34.1382C71.9175 34.1901 71.9027 34.1085 71.9323 34.2569C71.962 34.383 71.9546 34.472 71.9694 34.5091C72.0362 34.6575 72.0436 34.4869 72.0658 34.6946L72.1178 34.9171C72.2142 35.1471 72.14 35.1619 72.2365 35.4364C72.3255 35.6663 72.3774 36.1856 72.3774 36.1856C72.4368 36.4081 72.4367 36.1114 72.4813 36.4749C72.4961 36.601 72.5777 36.6084 72.5925 36.8235C72.6296 37.5208 72.7261 36.7568 72.6964 37.4615C72.6815 37.7879 72.8522 37.4912 72.8002 38.2923L72.9115 39.2195C72.9263 39.4866 73.0302 39.2195 73.0228 39.6201C73.0154 39.9613 72.9857 39.9984 73.1044 40.2581L73.2601 40.4954C73.3269 40.6364 73.2602 40.4435 73.3195 40.6364L73.6978 41.5933C73.8313 41.8975 73.7349 41.8084 73.7646 41.9345C73.8091 42.0829 73.8313 41.9716 73.8684 42.12C73.9203 42.3054 73.7646 42.1497 73.95 42.4909C74.091 42.7505 74.0835 42.7876 74.0835 42.8915L74.1281 43.0769C74.2987 43.3588 74.1058 43.114 74.2987 43.6333C74.2987 43.6407 74.3061 43.6555 74.3061 43.6555C74.4396 43.9967 74.5138 44.3528 74.5138 44.7237C74.5138 45.332 74.4767 45.0501 74.4099 45.2281C74.3877 45.2875 74.4099 45.2578 74.4025 45.332C74.3951 45.421 74.4248 45.3468 74.3803 45.4358L74.1874 45.8067C74.1206 45.9625 73.772 46.2592 73.6459 46.3928C73.1711 46.8675 73.5494 46.5263 73.2601 46.645C73.2082 46.6821 73.2602 46.6524 73.1563 46.7043C73.134 46.7117 73.0747 46.734 73.045 46.7488H72.9931C72.8818 46.7043 72.7335 46.7043 72.6222 46.7488H72.5703L71.9843 46.645H71.9323C71.695 46.7414 71.9768 46.6672 71.7098 46.6079C71.6282 46.5931 71.2499 46.5931 70.9235 46.4373H70.8716C70.5971 46.6301 70.9902 46.3631 70.6564 46.8601C70.7751 47.0307 70.7825 47.0678 70.8048 47.2458L70.9977 48.9223C71.0199 49.0484 70.9977 48.9223 71.0199 49.0039L71.0496 49.2116C71.0496 49.3229 71.0273 49.3896 71.0718 49.5158V49.5677C71.0051 49.7309 71.0644 49.8421 71.0496 49.9831L70.8938 50.4356C70.8419 50.5839 70.9531 50.4282 70.8345 50.71C70.738 50.9252 70.8122 50.8955 70.7825 51.0142C70.7603 51.1032 70.7529 51.0661 70.7084 51.17C70.6342 51.3554 70.6861 51.4148 70.6787 51.6002C70.6638 51.8005 70.6193 51.6373 70.5971 51.9043C70.649 52.0898 70.6638 51.9859 70.6787 52.1343L70.6713 52.6684C70.7529 52.9651 70.7603 52.4088 70.7825 53.336C70.79 53.6624 70.7009 53.4621 70.6713 53.6847L70.4858 57.453L70.649 57.3492C70.738 57.4827 70.7751 57.4827 70.879 57.6014C71.0496 57.8017 70.879 57.7423 71.0793 57.8833C71.0867 57.8907 71.1015 57.8981 71.1089 57.9055L71.3389 58.0465L71.4205 57.8684C71.4353 57.8239 71.4131 57.8536 71.4502 57.7794C71.6208 57.4604 71.4502 57.6162 71.5392 57.3937C71.6653 57.0895 71.6356 56.4145 72.1252 56.7186L72.2736 57.3863C72.3255 57.542 72.4145 57.5495 72.3477 57.7201C72.5406 57.7349 72.5554 57.772 72.689 57.861L72.778 57.9278C72.8373 57.9649 72.8299 57.9574 72.8818 57.9871L72.9486 58.0316C73.2676 58.2171 73.1934 58.0539 73.4011 58.2171C73.8907 58.5954 74.2393 58.6547 73.9945 59.0776L73.9278 59.2037C73.9203 59.2111 73.9129 59.2259 73.9055 59.2333C73.7794 59.4485 73.95 59.5004 74.1132 59.582L74.5064 59.7749C74.8402 59.9381 74.7512 59.8713 75.0553 60.1828L75.4781 60.7911C75.4856 60.806 75.5004 60.8356 75.5004 60.8505C75.6191 61.1175 75.6191 61.0804 75.5449 61.392C75.2482 61.5552 74.8847 61.4068 74.766 61.4662C74.6325 61.5329 74.7141 61.5255 74.8031 61.659L74.5212 61.8148C74.4619 61.8371 74.5064 61.8222 74.4322 61.8742H74.3803C74.2171 61.9409 74.3061 61.8519 74.1206 61.9335C73.9426 62.0077 73.8239 62.2525 73.6756 62.3192L73.6236 62.3341C73.6162 62.3341 73.6014 62.3415 73.594 62.3415L73.4753 62.4083C73.4233 62.4453 73.4753 62.4157 73.3714 62.4676C73.3492 62.475 73.2898 62.4973 73.2601 62.5121H73.2082C73.0376 62.5937 73.1786 62.5492 72.9857 62.5492C72.7631 62.5492 71.7765 62.564 71.6653 62.5121H71.6579C71.5021 62.4379 71.0941 62.4008 70.9012 62.3786L70.1297 62.4157C69.8404 62.5195 69.4473 62.5269 69.3063 62.5789L69.0541 62.616H69.0022H68.9503H68.8984C68.7723 62.564 68.7723 62.6085 68.572 62.5195L68.0527 62.3934C68.0082 62.3786 67.9266 62.3712 67.9266 62.3637C67.9192 62.3637 67.9043 62.3563 67.8969 62.3563L67.7931 62.3192C67.615 62.2673 67.8376 62.3563 67.6744 62.2896H67.6225C67.4815 62.2228 67.4444 62.2525 67.2961 62.1931C67.2441 62.1709 67.259 62.1709 67.1551 62.1189C67.1255 62.1041 67.0809 62.0893 67.0439 62.0744H66.9919C66.7842 61.978 66.7694 62.0151 66.6878 61.9854L66.1018 61.7481C65.4935 61.5033 65.9682 61.748 65.5157 61.3623C65.2932 61.1694 65.5232 61.3475 65.3155 61.2881C65.219 61.2585 65.2264 61.251 65.2116 61.2288L65.1819 61.162C65.0781 61.162 65.0336 61.1472 64.9594 61.1398C64.8926 61.1324 64.8926 61.1324 64.8259 61.1324C64.455 61.1324 64.2547 61.1991 63.9654 61.3178C64.1212 61.6368 64.0841 62.1041 63.9357 62.3563C63.8912 62.4231 63.8764 62.4602 63.8244 62.5121L63.7354 62.5863L63.7206 62.6011L63.6167 62.705C63.6093 62.7124 63.6167 62.7198 63.55 62.7569L63.1642 62.8978C63.0826 62.9349 63.142 62.9201 63.0826 62.9349L62.6301 63.0165C62.4966 63.0536 62.6895 63.1055 62.4818 63.0165H62.4299C62.2963 63.0759 62.096 63.0462 61.9625 63.0462C61.8883 63.0462 61.7993 63.0536 61.7474 63.0462C61.4729 63.0091 61.7622 62.9201 61.5249 63.0165H61.4729C61.3097 62.9424 61.1317 62.9424 61.0353 62.9424C60.9017 62.9349 61.013 62.9498 60.8795 62.8978C60.7608 62.8533 60.8572 62.8978 60.7237 62.8237C60.4938 62.6901 60.6199 62.883 60.3528 62.6605C60.2564 62.5863 60.3602 62.6456 60.2712 62.5863C60.1303 62.4973 60.1748 62.5863 59.9819 62.3934C59.8113 62.2302 59.8039 62.2376 59.7371 62.0003C59.6852 61.8148 59.7074 61.7777 59.7149 61.6442C59.7297 61.3697 59.8113 61.0953 59.9522 60.8356C60.2564 60.6131 59.8039 60.8431 60.1154 60.6205C60.2415 60.4276 60.3083 60.4647 60.427 60.1828C60.4344 60.1754 60.4418 60.1606 60.4418 60.1532C60.5308 59.9232 60.4122 59.7155 60.3751 59.6191C60.3454 59.5375 60.3306 59.4781 60.286 59.3891C60.2638 59.352 60.2193 59.2704 60.1896 59.2185C60.0709 59.0256 60.0932 59.1369 60.0264 58.9292C60.0264 58.9218 60.019 58.907 60.019 58.8995L59.9671 58.7438C59.9003 58.5138 59.9522 58.447 59.9893 58.358L60.1525 57.8388C60.1599 57.7868 60.1377 57.7497 60.1451 57.683C60.1525 57.5198 60.1229 57.6756 60.2119 57.5198C60.3528 57.2898 60.1748 57.4753 60.2935 57.2231C60.427 56.9338 60.3231 56.637 60.3751 56.3255V55.6875L60.3973 55.6059C60.4047 55.4427 60.4047 55.3537 60.3306 55.2499C60.4567 55.1683 60.4492 55.2276 60.4715 55.0793C60.5012 54.8567 60.4344 54.7232 60.4047 54.5823L60.2564 53.8034C60.249 53.6105 60.0413 53.3286 60.0413 52.98C60.0413 52.572 59.9374 53.1061 59.9374 52.6016V52.1417C59.9374 52.023 59.9448 52.0675 59.9597 51.9043C60.1303 51.7782 60.0338 51.934 60.0413 51.7337L60.1748 51.1996C60.3528 50.8658 60.2712 50.7768 60.1674 50.4801C60.1006 50.2724 60.197 50.4504 60.1229 50.2576C60.0042 50.3391 60.0709 50.3243 60.019 50.4282C59.9671 50.532 60.019 50.4059 59.9671 50.5098C59.9671 50.5172 59.9597 50.532 59.9522 50.5394L59.8039 50.7916C59.6852 50.94 59.6333 51.1848 59.292 51.3109L59.0102 51.4296H58.9582C58.7357 51.5186 58.9656 51.3925 58.7431 51.4815C58.6244 51.7263 58.6912 51.8153 58.6541 51.8969L58.439 52.1862C58.439 52.1862 58.4315 52.2159 58.4315 52.2085C58.4315 52.2011 58.4241 52.2233 58.4241 52.2307C58.1942 52.2827 58.1942 52.253 58.0013 52.1269L57.8678 52.3123C57.7713 52.4459 57.8826 52.3791 57.7565 52.5126C57.7046 52.572 57.6749 52.572 57.6304 52.6091L57.2076 52.075H57.1556C57.0815 52.1121 57.037 52.1343 56.9331 52.1566C56.5919 52.2159 56.6512 51.7634 56.6512 51.615V50.9252C56.6512 50.5246 56.8663 50.4875 56.7328 50.1685L56.2358 50.6581C56.2358 50.6655 56.2284 50.6804 56.2284 50.6878L56.2136 50.7397C56.2136 50.7471 56.2061 50.762 56.2061 50.7694C56.0059 51.259 56.2432 51.0513 56.0652 51.3628C55.9984 51.4815 56.0281 51.5705 55.9539 51.8376L55.902 51.9934C55.8575 52.3865 55.813 52.1121 55.7982 52.342C55.7833 52.5794 55.8352 52.2827 55.672 52.6907C55.494 53.1357 55.7314 52.9725 55.4569 52.9948C55.5459 53.1728 55.4718 53.1506 55.4569 53.3657C55.2789 53.4918 55.4347 53.4547 55.3679 53.5882L55.3086 53.6402C55.2641 53.6847 55.1676 54.1965 55.0786 54.3226C55.0712 54.4265 55.0638 54.4858 55.0564 54.5229C55.0489 54.5823 55.0563 54.5674 55.0267 54.6416V54.6935C54.9228 54.8419 54.9451 54.7751 54.9451 54.9161C54.9451 55.0051 54.9302 55.0125 54.9748 55.1089L54.8709 55.1683C54.8116 55.3166 54.8932 55.4131 54.8412 55.6059L54.7448 56.6445C54.7225 56.7854 54.7225 56.7038 54.6558 56.8077L54.4555 57.2008C54.4184 57.2824 54.4407 57.2231 54.4258 57.2824C54.322 57.6978 54.3516 57.453 54.2107 57.6904L53.7582 58.4619C53.5653 58.6028 53.8027 58.3951 53.5431 58.7808C53.8101 58.8031 53.6395 58.7289 53.684 58.8773C53.8101 59.2779 53.7805 58.9737 53.7805 59.3298C53.773 59.9306 53.9659 59.7007 53.8621 59.9529C54.233 59.9232 54.2775 59.849 54.4481 60.0345L54.819 60.4351L54.9451 60.6057C54.9451 60.6131 54.9525 60.6279 54.9525 60.6279L54.9748 60.6724C54.9748 60.6799 54.9822 60.6873 54.9896 60.6947L55.0341 60.7466C55.0563 60.7763 55.1305 60.8505 55.1305 60.8653L55.1825 60.9988C55.1825 61.0062 55.1899 61.0211 55.1899 61.0285L55.316 61.4662C55.2789 61.8371 55.1973 61.7629 55.0415 61.8222C54.6187 62.0003 54.8783 61.7406 54.7151 61.9706C54.8783 61.9854 55.0786 62.0967 55.2566 62.1709C55.5311 62.2896 55.4643 62.1264 55.6201 62.3415L54.0327 62.3341C53.8769 62.297 53.9807 62.3267 53.8546 62.3192L53.2983 62.1412C53.2909 62.1412 53.276 62.1338 53.2686 62.1338C53.1425 62.0893 53.3131 62.1115 53.1351 62.0967C52.9941 62.0893 53.0016 62.1338 52.8532 62.0744H52.8013C52.6529 62.1338 52.6677 62.0819 52.512 62.1115C52.4081 62.1338 52.3859 62.1412 52.3414 62.1486C52.282 62.156 52.2894 62.1486 52.2227 62.1783H52.0743L50.8578 62.3563L50.6797 62.3118C50.613 62.3044 50.5907 62.3192 50.5462 62.3118L49.8267 62.1486C49.7599 62.1412 49.6635 62.1412 49.5744 62.1783H49.5225C49.2555 62.0522 49.07 62.0967 48.8697 62.0967C48.7214 62.0967 48.4395 62.1264 48.2985 62.067H48.2466C48.1131 62.1264 48.2169 62.1264 48.0834 62.067H48.0315C47.8831 62.1264 47.898 62.0744 47.7422 62.1041C47.6383 62.1264 47.6161 62.1338 47.5642 62.1412C47.5048 62.1486 47.5122 62.1412 47.4455 62.1709H47.3935L47.082 62.297C47.0746 62.297 47.0672 62.3044 47.0597 62.3044C47.0301 62.3118 46.8669 62.3044 46.8001 62.3044C46.3773 62.3044 46.4292 62.4008 45.7838 62.3563L44.6786 62.5937H44.6266C44.3299 62.7866 44.5376 62.5863 44.137 62.7124C43.9887 62.7569 43.959 62.7569 43.8255 62.6976H43.7736C43.6326 62.6308 43.64 62.6679 43.4768 62.616C43.0763 62.4899 43.3878 62.5269 42.9872 62.3415C42.8166 62.2599 42.9724 62.2451 42.6238 62.0819C42.4383 61.9928 42.3864 61.978 42.2232 62.0596H42.1713C42.0748 62.1041 42.0007 62.119 41.9042 62.1635H41.8523C41.7039 62.1041 41.6594 62.156 41.5185 62.1412C41.2588 62.1115 41.333 61.9854 41.1624 62.0596H41.1105C41.0141 62.1338 40.8509 62.4899 40.8212 62.653C40.747 63.061 40.925 62.8756 40.747 63.1723C40.6728 63.3058 40.7248 65.5609 40.6283 65.9912C40.5912 66.1618 40.6209 66.1247 40.6135 66.2805C40.5986 66.5846 40.2797 66.5549 40.1016 66.6365C39.8049 66.8368 39.2189 66.6291 38.8999 66.7033C38.8851 66.7033 38.848 66.7107 38.8332 66.7181L38.7516 66.7404C38.5958 66.7997 38.6329 66.8071 38.3881 66.7997C37.9801 66.7775 38.0469 66.6959 38.0394 66.5772C38.0098 65.5609 38.121 65.8873 38.2323 65.4274C38.2842 65.2123 38.2026 65.5016 38.2471 65.3235C38.2768 65.19 38.3065 65.2271 38.3436 65.1381C38.351 65.1307 38.3732 64.9897 38.3807 64.8859C38.5513 64.7672 38.4029 64.8859 38.4771 64.7375C38.529 64.6337 38.5587 64.6559 38.5735 64.5521C38.5958 64.4037 38.5364 64.5001 38.6329 64.3963C38.8406 64.1812 38.759 64.1515 38.8109 64.0328C38.8999 63.9735 38.9222 63.9215 38.9889 63.6842L39.1002 63.4097C39.2041 63.1723 39.2189 63.3133 39.2115 63.061C39.2115 63.0165 39.2041 62.7866 39.2189 62.7124C39.2634 62.5714 39.2634 62.7272 39.3153 62.5566C39.3153 62.5492 39.3153 62.4157 39.3153 62.4008C39.3079 62.0967 39.3005 62.2451 39.3673 62.0967C39.4859 61.8296 39.3747 61.9335 39.3153 61.5478C39.3005 61.4439 39.3376 61.5033 39.2337 61.4291C39.078 61.1101 39.2411 60.346 39.2486 60.3015C39.2634 60.0938 39.2634 60.5018 39.2337 60.2199L39.3227 59.8194C39.3227 59.7304 39.3227 59.671 39.3227 59.582V58.5954C39.3227 58.3209 39.3302 58.1726 39.4711 57.9871C39.7382 57.6236 39.5082 57.9649 39.7382 57.4827C39.7382 57.4753 39.7456 57.4604 39.7456 57.453L39.842 57.2676C39.8791 57.1934 39.8272 57.2008 39.9384 57.1192C40.0275 56.9041 39.9384 57.1044 39.9681 56.9709C39.9681 56.9634 39.9978 56.8818 39.9978 56.867L40.0423 56.8002C40.0126 56.3997 39.8717 56.5184 40.0349 56.1549C40.0868 56.0362 40.0645 56.1697 40.072 56.0139C40.1016 55.6059 40.1907 56.1771 40.1758 55.1386L40.2129 54.8938C40.3316 54.6268 40.25 54.5007 40.2797 54.0704C40.3019 53.7737 40.4206 53.8627 40.2945 53.3805C40.2648 53.2693 40.3168 53.2618 40.2648 53.1654C40.0571 52.7723 40.2723 52.8761 40.1536 52.5942H40.1016L39.7456 52.8316C39.7382 52.8316 39.7307 52.839 39.7233 52.839C39.6862 52.8687 39.7307 52.8168 39.6714 52.9058C39.5082 53.1432 39.5972 52.9948 39.4118 53.1283C39.345 53.1654 39.3376 53.158 39.256 53.1951C39.1521 53.2396 39.2337 53.2099 39.1299 53.2544C39.0112 53.2989 39.1076 53.2248 38.9296 53.3434H38.8777C38.8035 53.3954 38.7812 53.425 38.6996 53.4621C38.5587 53.5289 38.6848 53.3731 38.5587 53.5511L38.3955 53.655L38.3807 54.2781C38.3807 54.2855 38.3881 54.3004 38.3881 54.3004L38.4103 54.382C38.44 54.5971 38.6032 54.9828 38.3955 55.1386L38.1581 55.6579C38.1581 55.6653 38.1507 55.6801 38.1507 55.6875L37.9875 55.9101C37.7946 56.1697 38.0691 55.8581 37.854 56.2439C37.854 56.2513 37.8466 56.2661 37.8391 56.2661L37.5795 56.8818C37.4905 57.0821 37.4163 57.6459 37.4015 57.6978C37.357 57.8684 37.3644 57.7127 37.305 57.8536L37.2902 58.1874C37.2828 58.4396 37.1938 58.5583 37.1864 58.677C37.1419 59.3965 37.1196 59.0405 37.0899 59.3372C37.0454 59.7229 37.1864 59.5152 37.1864 60.0048C37.1864 60.2348 37.2457 60.0493 37.268 60.3386V60.3906L37.0825 61.0953C37.0677 61.481 37.0603 61.2214 36.9935 61.4291C36.9416 61.5923 37.0677 61.5923 36.9045 61.7184C36.8155 61.8593 36.8525 61.8593 36.6374 61.8816C36.6226 62.0893 36.5558 62.1635 36.5558 62.297C36.5484 62.5492 36.5781 62.616 36.4965 62.883C36.4965 62.8904 36.4891 62.9053 36.4891 62.9053C36.4149 63.1278 36.4594 63.9735 36.4594 64.2628C36.4594 64.5743 36.4371 64.4111 36.5262 64.5521C36.6226 64.7078 36.5929 65.3161 36.6226 65.4571C36.6448 65.5609 36.6078 65.4125 36.6523 65.5387C36.7635 65.8799 36.5929 66.3917 36.5929 66.7775C36.3481 66.7997 36.4446 66.822 36.2739 66.9407H36.222L35.7102 66.9258C35.5173 66.9926 35.7695 66.9703 35.5025 67H34.4417C34.3675 66.9852 34.3082 66.9703 34.2562 66.9481H34.1969H34.145L34.0411 66.8442C34.1598 66.6662 34.1227 66.7626 34.1227 66.4882C34.1227 65.7983 34.1672 66.2285 34.3453 65.6128L34.6568 64.2553C34.6642 64.2405 34.6717 64.2183 34.6717 64.2034C34.731 64.0254 34.7236 64.0031 34.7087 63.7732L34.7681 63.0091C34.7681 63.0017 34.7607 62.9869 34.7607 62.9794C34.6717 62.6679 34.731 62.8459 34.7087 62.4973L34.3898 61.6071C34.1376 61.1249 34.5752 61.7703 34.1969 61.214C34.056 61.0062 34.2043 60.9395 34.0485 60.6205C33.6999 60.6502 33.9521 60.7689 33.7296 60.6724H33.6776L33.1584 60.6873C32.8765 60.6057 32.8468 60.6428 32.6391 60.5389C32.3053 60.3757 32.6317 60.487 32.1347 60.2422H32.0828C31.8825 60.1087 32.016 60.0864 31.7119 60.079L31.6674 60.1606C31.6006 60.2051 31.6451 60.1754 31.5561 60.1828C31.6006 60.6724 31.5858 60.2051 31.4819 60.5389L31.2742 61.0508C31.0888 61.5403 31.2074 61.4736 31.1407 61.6887L31.1036 61.7926C31.0368 62.0893 31.0294 62.0893 30.7327 62.2376L30.2134 62.3415C29.9909 62.3563 29.5013 62.208 29.4345 62.208C28.9375 62.1635 28.8485 62.2821 28.5815 61.889C29.0859 61.1324 28.6927 61.6813 28.8188 61.3252C28.8782 61.162 28.9079 61.3401 28.9227 61.073C28.9375 60.895 28.9524 61.0359 29.0043 60.8134C29.0191 60.754 29.0265 60.6205 29.0265 60.6131L29.2639 59.8935C29.2639 59.8861 29.2713 59.8713 29.2788 59.8639L29.5161 59.4188C29.5236 59.4114 29.531 59.3965 29.531 59.3891L30.3099 58.2467C30.3099 58.2393 30.3247 58.2319 30.3247 58.2245C30.3247 58.2171 30.3395 58.2097 30.3395 58.2097L30.4731 58.0836C30.4805 58.0836 30.5027 58.0761 30.5027 58.0613C30.5102 58.0465 30.525 58.0465 30.5398 58.039L30.9033 57.7646C31.0591 57.6607 31.1333 57.6162 31.0962 57.1711C31.0813 56.9708 31.0813 56.7186 30.9923 56.5703C30.8588 56.3477 30.9701 56.4145 30.9404 56.1549C30.9256 56.0362 30.844 55.873 30.8365 55.7469L30.8217 55.1312C30.7401 54.8864 30.7179 55.0125 30.7253 54.79C30.7327 54.5081 30.7401 54.7677 30.6066 54.4191C30.5992 54.4042 30.5843 54.3745 30.5843 54.3597C30.347 53.8108 30.6956 54.2039 30.3766 53.8182L30.3024 53.5586C30.3099 53.3434 30.3024 53.2099 30.3024 53.0022C30.3024 52.6832 30.3321 52.5052 30.0057 52.164C29.9983 52.1566 29.9835 52.1417 29.9761 52.1343C29.8351 51.9859 29.8796 52.0675 29.8722 51.7486C29.8722 51.4815 29.7906 51.6744 29.7609 51.4593L29.709 51.0884C29.6126 50.6878 29.7238 50.94 29.5606 50.6285L29.3381 50.1834C29.3307 50.1166 29.3381 50.1759 29.3381 50.1018C29.3455 49.768 29.4716 50.0053 29.8129 49.4119C29.9315 49.2042 29.8499 48.9149 29.8648 48.6998C29.8796 48.4995 29.8945 48.544 29.9538 48.403L30.1096 48.0173C30.0651 47.9876 30.0354 47.9728 29.9761 47.9357L29.8425 47.8541H29.7906H29.7387C29.6274 47.906 29.5087 47.9431 29.3381 47.8838C28.9524 47.7503 29.0488 47.6612 29.0117 47.5945C28.9004 47.3645 28.945 47.5796 28.7669 47.4461C28.6927 47.3868 28.7076 47.3868 28.6186 47.32C28.6111 47.1865 28.6037 47.1791 28.5963 47.1123V46.7562C28.6037 46.2667 28.4702 46.4521 28.5666 46.1554C28.6853 45.7919 28.8559 45.6584 28.9301 45.4952C29.0488 45.2504 29.0043 45.3542 28.9895 45.1317C28.982 45.0204 28.9969 44.9908 28.9969 44.8943C29.0488 44.1896 28.9598 44.2341 28.7521 43.611C28.574 43.0917 28.6334 43.1585 28.4999 42.9805L28.4776 42.4909C28.4776 42.2684 28.4628 42.3054 28.396 42.209H28.3441H28.2922H28.2402L27.1795 42.2609C27.0756 42.2387 27.1053 42.2387 27.0608 42.2238C26.6899 42.0903 26.8753 42.2906 26.5934 42.1052H26.5341C26.3561 42.0236 26.4154 42.0903 26.2522 41.9568C26.0816 41.8084 26.2522 41.8604 26 41.8381V41.8233V41.8084C26 41.5266 26.0297 41.534 26.2151 41.4079L26.9569 40.6661H27.0088C27.1053 40.6216 27.1795 40.6067 27.2759 40.5622C27.4984 40.4064 27.4168 40.5548 27.6097 40.4213C27.6987 40.3619 27.6097 40.4138 27.6987 40.3471H27.7507C27.8322 40.31 27.7803 40.3322 27.8397 40.3174C27.8545 40.3174 27.9213 40.3026 27.9361 40.3026C28.0696 40.3026 28.0325 40.2952 28.1216 40.3397H28.1735L28.6408 40.4732C29.0785 40.5029 28.9969 40.3768 29.1304 40.1987L30.1022 39.0712C30.2134 38.9896 30.5992 38.9673 30.7401 38.9822C30.7772 38.9822 30.844 38.9896 30.9404 39.0118C31.1704 39.0712 30.9478 39.0267 31.1184 39.0786C31.1778 39.0934 31.289 39.086 31.3781 39.086C32.3424 39.086 31.786 39.0044 32.9062 39.0044L33.0545 39.3086C33.0545 39.316 33.0619 39.3308 33.0694 39.3382L33.1658 39.5237C33.2326 39.6572 33.1584 39.5014 33.2177 39.6053L33.2845 39.8056C33.4032 39.7462 33.3067 39.7907 33.4477 39.7536L33.4699 39.6869C33.4699 39.6795 33.4774 39.6646 33.4848 39.6646C33.5293 39.5979 33.4996 39.635 33.5515 39.5979L33.6554 39.494C33.9299 39.086 33.915 39.2566 34.2266 38.6039C34.2266 38.5964 34.234 38.5816 34.2414 38.5742L34.5085 38.003C34.5381 37.6247 34.5085 37.6395 34.5901 37.4466C34.6939 37.2093 34.5901 37.0164 34.642 36.8161L34.6717 36.5046C34.6123 36.2969 34.6346 36.2523 34.6346 36.0595C34.6346 35.8666 34.5678 35.8444 34.5381 35.6515C34.5307 35.5996 34.5455 35.5328 34.5307 35.4883L34.2785 34.8503C34.234 34.7094 34.3008 34.9097 34.2562 34.7687L34.1672 34.5165C34.1005 34.3682 34.1301 34.4423 34.0708 34.3385L33.6925 33.5967C33.6851 33.5893 33.6851 33.5522 33.6776 33.5448L33.4328 33.0626C33.1806 32.7065 33.3587 32.8771 33.24 32.6694C33.1955 32.5953 33.1732 32.6101 33.1065 32.484C33.0694 32.4172 33.0545 32.3653 33.0174 32.306C33.01 32.2985 33.0026 32.2763 32.9952 32.2763C32.9878 32.2689 32.9803 32.254 32.9729 32.2392L32.6836 31.6828C32.6465 31.6383 32.6094 31.6235 32.5724 31.579L32.4092 31.26C32.3201 31.0449 32.3647 31.1784 32.246 31.0078L32.0754 30.674C31.9789 30.4737 31.9789 30.6666 31.9567 30.3921C31.7786 30.2734 31.8157 30.2957 31.7638 30.1696C31.7638 30.1622 31.7564 30.1473 31.7564 30.1399L31.6896 30.036C31.6229 29.9099 31.7341 29.9693 31.5858 29.8654C31.4819 29.6206 31.6822 29.8803 31.4967 29.6355L31.3484 29.4204C31.3113 29.2423 31.1407 29.0272 31.0146 28.7898C30.9775 28.7231 30.9849 28.7231 30.9404 28.6489L30.5176 27.7958C30.5102 27.7884 30.5027 27.7736 30.5027 27.7587C30.3989 27.5362 30.436 27.6474 30.3247 27.5065C30.2283 27.373 30.3321 27.4768 30.2505 27.2617C30.1986 27.1208 30.2505 27.284 30.1912 27.1356L30.0947 26.9502C30.0502 26.876 30.0651 26.9056 30.0206 26.8092L29.9909 26.7425C29.9909 26.735 29.9835 26.7202 29.9835 26.7128L29.5606 25.652C29.5606 25.6446 29.5532 25.6298 29.5532 25.6223C29.5532 25.6149 29.5458 25.6001 29.5458 25.5927L29.3381 24.9844C29.3084 24.7767 29.2788 24.9547 29.2268 24.7693L29.1897 24.5541C29.1823 24.5319 29.1601 24.5245 29.1304 24.4132L29.0117 24.1091C28.9969 24.0497 29.0265 24.0126 28.9969 23.8568C28.9524 23.6195 28.9301 23.7307 28.9079 23.5824C28.9004 23.523 28.9227 23.4637 28.9153 23.3969L28.8114 22.8999C28.7743 22.6329 28.6853 21.0009 28.7521 20.7116L29.0859 19.4951C29.0859 19.4876 29.1007 19.4728 29.1007 19.4654L29.3455 18.7162C29.3826 18.5901 29.4197 18.553 29.442 18.4565C29.4642 18.3601 29.4494 18.3453 29.5236 18.2266L29.9093 17.2845C30.2134 16.8691 29.9686 17.1213 30.1689 16.8023L31.2223 15.1852C31.3187 15.1184 31.2149 15.2297 31.3187 15.1258C31.3781 15.0665 31.3706 15.0294 31.3706 15.022L31.4893 14.8959C31.4967 14.8885 31.5042 14.8811 31.5116 14.8736L31.6006 14.8143C31.6822 14.7624 31.6822 14.7475 31.749 14.6956C31.8231 14.6437 31.8528 14.6363 31.9196 14.5992C32.0383 14.525 32.0679 14.4656 32.1866 14.384L32.6688 14.1689H32.832H32.8839C33.0026 14.117 32.9581 14.1541 33.1065 14.117C33.2697 14.0799 33.1658 14.0873 33.2993 14.0799C33.4254 14.0725 33.507 14.0799 33.6851 14.1615H33.737C33.8705 14.2208 33.7667 14.2208 33.9002 14.1615H33.9521C34.3304 14.3395 34.2414 14.2357 34.7087 14.4731C34.8052 14.525 34.8719 14.5472 34.9684 14.5917L35.0722 14.6956H35.1242L35.7176 15.1629C35.9698 15.4003 36.5262 15.7267 37.0454 16.3943L37.0973 16.4759C37.1641 16.5872 37.0232 16.4908 37.1938 16.6169L37.6389 17.0323L37.6537 17.0471L37.7946 17.24C37.9133 17.4032 38.0617 17.4328 38.2397 17.7518C38.3584 17.9595 38.4474 17.9595 38.5661 18.1227C38.6774 18.2785 38.529 18.0634 38.6032 18.2043C38.618 18.234 38.5587 18.1672 38.6477 18.2637L38.759 18.3675C38.759 18.3675 38.7738 18.3824 38.7812 18.3824L38.7961 18.3972L38.8628 18.5159C38.8999 18.5678 38.9741 18.6271 39.0186 18.6791L39.9681 19.7769C40.072 19.9105 39.9014 19.7473 40.0571 19.9253C40.1461 20.0366 40.2723 20.1404 40.3835 20.2443C40.6432 20.5039 40.5393 20.4742 40.6728 20.6448L41.3404 21.3125C41.4517 21.4608 41.2811 21.4312 41.563 21.6166L41.7781 21.8317C41.9858 22.1136 41.741 21.7501 42.0081 21.9727C42.0526 22.0098 42.0897 22.0617 42.1193 22.1136L42.149 22.1878C42.149 22.1804 42.1564 22.2026 42.1564 22.21C42.5273 22.2026 42.327 22.0691 42.5273 22.1581H42.5793C42.6386 22.1285 42.6386 22.121 42.7128 22.0765C42.9872 21.8837 42.9798 22.0543 43.0837 21.854C43.1282 21.765 43.0169 21.9282 43.1134 21.7724C43.1653 21.6908 43.2098 21.6685 43.2765 21.624C43.2988 21.3718 43.3433 21.5202 43.2765 21.357C43.5288 21.3347 43.6549 21.1493 43.781 21.0083L43.9442 20.541C43.959 20.4965 43.9368 20.5336 43.9813 20.4594C44.3522 19.8882 43.9516 20.3555 44.3225 19.7918L44.3744 19.6583C44.3744 19.6508 44.3818 19.636 44.3818 19.6286C44.3892 19.6137 44.4189 19.5396 44.4263 19.5247C44.5524 19.2651 44.5302 19.4209 44.6786 19.1761L44.8121 19.0277C44.9975 18.8497 44.7527 18.998 44.9753 18.8423L45.4574 18.4194C45.4723 18.412 45.6058 18.3601 45.6058 18.3601C45.769 18.2488 45.5687 18.3156 45.858 18.1301C45.9545 18.0708 46.0806 17.9669 46.088 17.8557C46.088 17.8483 46.0954 17.8408 46.0954 17.8334C46.1992 17.8037 46.177 17.826 46.2586 17.7815C46.3254 17.6257 46.2141 17.7518 46.3328 17.5886C46.3402 17.5812 46.3699 17.5441 46.3847 17.5293C46.5479 17.3364 46.4589 17.2919 46.6443 17.151C46.9781 16.9062 46.6888 17.1732 46.8817 16.8617L47.1117 16.6094C47.2526 16.424 47.4529 16.3647 47.6977 16.2385C47.8906 16.1421 47.8386 16.1347 48.0092 16.1199C47.846 15.8751 47.5567 15.8157 47.3861 15.5709C47.3416 15.5116 47.3565 15.5042 47.3416 15.4671C47.2897 15.3261 47.2229 15.3261 47.0968 15.1629L46.941 14.9033C46.941 14.8959 46.9336 14.8811 46.9262 14.8736C46.9262 14.8662 46.9188 14.8514 46.9188 14.844C46.9188 14.8365 46.9114 14.8217 46.9114 14.8143C46.9114 14.8069 46.904 14.792 46.904 14.7846C46.8001 14.5769 46.8224 14.7624 46.8149 14.5472L46.7111 14.117C46.7111 14.0428 46.7556 14.0651 46.7259 13.9612L46.7927 12.6853C46.7927 12.6779 46.8001 12.6631 46.8001 12.6556C46.8001 12.6408 46.8075 12.6111 46.8075 12.6037C46.8224 12.4331 46.8075 12.6556 46.8075 12.4999C46.8075 12.3812 46.8298 12.3886 46.7853 12.2773L46.8891 12.218L47.1265 11.8026C47.1784 11.6765 47.1413 11.6987 47.3194 11.58C47.4455 11.3872 47.8164 11.1646 48.0686 11.1053L48.981 11.0459C49.0774 11.083 49.1664 11.135 49.3371 11.0534L49.4409 10.9495C49.6041 10.7047 49.9082 10.5267 50.0566 10.2819C50.1753 10.0816 49.9824 10.23 50.1976 10.0964C50.2124 10.089 50.2569 10.0668 50.2717 10.0593L50.3904 10.0074C50.472 9.99258 50.4572 10.0223 50.5462 10C50.613 10.1409 50.613 10.1113 50.6352 10.0964ZM40.1016 66.7107H40.0497L40.0942 66.6514L40.1016 66.7107Z" fill="white" fill-opacity="0.85"/>
</svg>
