<svg width="100" height="80" viewBox="0 0 100 80" fill="none" xmlns="http://www.w3.org/2000/svg">
<path fill-rule="evenodd" clip-rule="evenodd" d="M32.741 10.5623H32.7824C32.9422 10.4854 32.9836 10.5149 33.0842 10.4735H33.1257H33.1671H33.2085C33.3683 10.3966 33.4097 10.4262 33.5103 10.3848H33.5517C33.7056 10.4498 33.605 10.3729 33.7825 10.3611C33.8595 10.3552 33.9423 10.3492 34.0311 10.3848H34.0725C34.1968 10.4439 34.25 10.4084 34.3743 10.4735H34.4157H34.4571H34.4986L34.7471 10.5504C34.7589 10.5564 34.8004 10.5682 34.8122 10.5682C34.8477 10.5741 35.1081 10.6096 35.1614 10.6274C35.2915 10.6688 35.2146 10.7043 35.4809 10.7931L35.7117 10.9055H35.7531H35.7946L35.9721 11.0298C35.978 11.0357 35.9898 11.0416 36.0017 11.0475C36.0076 11.0535 36.0253 11.0594 36.0313 11.0653C36.0372 11.0712 36.049 11.0771 36.0609 11.083C36.3508 11.2192 36.3804 11.1718 36.5875 11.2961L36.6704 11.3434C36.7414 11.3908 36.7414 11.4026 36.8242 11.4499L37.2207 11.7044C37.2681 11.734 37.2681 11.7458 37.3213 11.7754H37.3628L37.5935 11.9352C37.5995 11.9411 37.6113 11.947 37.6231 11.953L37.7533 12.0417L38.0137 12.2133L38.1439 12.3021C38.2149 12.3376 38.2563 12.3376 38.3214 12.3849L38.5463 12.5566C38.5522 12.5625 38.5581 12.5684 38.5641 12.5684C38.57 12.5684 38.5759 12.5802 38.5818 12.5802C38.5877 12.5862 38.5936 12.5921 38.5996 12.5921L38.7949 12.7282L38.8836 12.8169C38.8955 12.8229 38.9073 12.8169 38.9132 12.8347L39.0197 12.8998C39.144 13.0063 39.0256 12.9767 39.1913 13.0714C39.215 13.0832 39.2742 13.1128 39.2801 13.1187L39.363 13.1661C39.6825 13.32 39.6233 13.2904 39.8482 13.5981L40.1027 13.8644L40.7122 14.2964L40.9312 14.7284L41.0613 14.8171L41.1501 14.9059L41.7478 15.4385C41.8425 15.5332 41.9313 15.6338 42.0319 15.7226L42.1976 15.8409C42.2271 15.8764 42.2271 15.9178 42.1976 15.9948L42.4224 16.0895C42.5408 16.267 42.6532 16.3084 42.7657 16.4741C42.8308 16.5215 42.8012 16.4978 42.8544 16.557L42.9609 16.7167C43.026 16.7996 42.9905 16.7641 43.0675 16.8233L43.1503 16.8706C43.1977 16.9002 43.1917 16.8824 43.2568 16.9416C43.3752 17.0481 43.3278 17.0481 43.3574 17.0955C43.3989 17.1724 43.5231 17.1842 43.677 17.2553L43.8959 17.5156L44.0261 17.6044L44.1563 17.6932C44.2924 17.7878 44.6297 18.1607 45.0026 18.4625L45.0617 18.5216C45.0677 18.5276 45.0736 18.5335 45.0795 18.5394C45.0854 18.5453 45.0913 18.5512 45.0913 18.5572L45.2866 18.7406C45.5766 18.8826 45.2511 18.7347 45.6358 19.001C45.8074 19.1134 45.9257 19.291 46.0618 19.4034C46.1033 19.4389 46.0796 19.4211 46.1388 19.4567C46.1447 19.4626 46.1565 19.4685 46.1684 19.4744C46.1743 19.4803 46.1861 19.4862 46.1979 19.4922L46.2512 19.5217C46.3932 19.6164 46.772 19.8295 46.8607 19.9537L46.9909 20.0425L47.0797 20.1313L47.1685 20.22L47.4288 20.3917L47.559 20.4804L47.6892 20.5692L47.9496 20.7408L48.0798 20.8296L48.21 20.9183L48.7307 21.2675L48.8195 21.3562H48.8609C48.9556 21.4213 48.9438 21.4332 49.0266 21.4983C49.1568 21.6048 49.1154 21.5515 49.2574 21.6166H49.2988L49.429 21.7054H49.4705L49.6006 21.7942C49.6066 21.8001 49.6243 21.7942 49.6302 21.8119L49.8847 21.9894C49.8906 21.9954 49.9025 22.0013 49.9084 22.0072L49.9912 22.0545L50.3463 22.2617C50.4528 22.3149 50.4646 22.3208 50.5771 22.38C50.6777 22.4274 50.7309 22.4451 50.8138 22.4865H50.8552C50.9144 22.528 50.9262 22.5398 50.9795 22.5812L51.0327 22.6167C51.0387 22.6226 51.0505 22.6286 51.0623 22.6345C51.0682 22.6404 51.086 22.6463 51.0919 22.6522C51.0978 22.6582 51.1097 22.6641 51.1215 22.67C51.228 22.741 51.1984 22.741 51.3286 22.8061C51.3641 22.8238 51.3878 22.8357 51.447 22.8653C51.4588 22.8712 51.4943 22.8889 51.5002 22.8949C51.5062 22.9008 51.5239 22.9067 51.5298 22.9126C51.5358 22.9185 51.5476 22.9244 51.5594 22.9304L51.6896 23.0191H51.731C51.8257 23.0842 51.8435 23.1079 51.9618 23.1789C52.092 23.2618 52.0979 23.2914 52.2104 23.3683C52.2814 23.4689 52.4234 23.5636 52.3642 23.7352C52.3346 23.8239 52.1453 23.9719 52.0802 24.0192L51.731 24.1908H51.6896C51.6127 24.2264 51.5476 24.2382 51.4707 24.2796H51.4292C51.1274 24.4039 50.5357 24.2145 50.2989 24.3684H50.2575H50.2161L49.7723 24.4808C49.7545 24.4867 49.5888 24.5104 49.5178 24.5163C49.4172 24.5282 49.4054 24.5045 49.3048 24.5459H49.2574C49.1509 24.5933 49.2337 24.5933 49.1272 24.5459H48.6065H48.565C48.4112 24.6169 48.2751 24.5933 48.1745 24.6347H48.133C47.9792 24.7057 47.8431 24.682 47.7425 24.7234H47.7011C47.5945 24.7708 47.6774 24.7708 47.5709 24.7234H47.5294H47.488H47.4466H47.4052H47.3637C47.2572 24.6761 47.3401 24.6761 47.2336 24.7234H47.1921C47.0856 24.6761 47.1685 24.6761 47.0619 24.7234H47.0205C46.914 24.7708 46.9968 24.7708 46.8903 24.7234H46.8489C46.8134 24.7353 46.2926 24.8477 46.1861 24.5814C46.121 24.4276 46.263 24.5045 46.1092 24.037C46.0678 23.9009 46.1092 23.9778 46.0559 23.818C45.9376 23.4866 46.0559 23.6346 45.9849 23.4097C45.8902 23.1138 45.8606 23.3328 45.837 23.0546C45.8192 22.8416 45.7896 22.954 45.6653 22.7351L45.4641 22.2913L45.3399 21.9954C45.3399 21.9894 45.334 21.9776 45.328 21.9776L45.2038 21.8593L45.115 21.7705L44.9552 21.587L44.9434 21.5752L44.8724 21.5042L44.8605 21.4924L44.7422 21.3326C44.6889 21.2793 44.6948 21.2852 44.6475 21.2556C44.2273 20.9657 44.6179 21.0426 44.109 20.7526C44.1031 20.7467 44.0912 20.7408 44.0794 20.7349L43.7776 20.5633L43.6474 20.4745L43.5586 20.3857C43.4995 20.3443 43.4876 20.3266 43.4344 20.2911C43.3633 20.2496 43.3219 20.2437 43.2568 20.2082L42.5171 19.8591C42.4106 19.788 42.4343 19.794 42.2804 19.7407C42.1088 19.6874 42.1443 19.7289 42.0378 19.6815H41.9963C41.8898 19.6342 41.9727 19.6342 41.8662 19.6815H41.8247C41.6709 19.6105 41.5348 19.6342 41.4342 19.5928H41.3927C41.3158 19.5573 41.2507 19.5454 41.1738 19.504H41.1324C41.0377 19.4626 40.7122 19.4803 40.5702 19.4152H40.5287C40.2684 19.3087 40.0257 19.4093 39.9311 19.433C39.7831 19.4626 39.3038 19.4152 39.0967 19.504H39.0552C38.8718 19.6223 38.9901 19.5277 38.8363 19.5928H38.7949C38.6647 19.646 38.5936 19.5987 38.499 19.6164L38.3629 19.6756C38.2504 19.7289 37.9072 19.7525 37.7119 19.8472H37.6705C37.5344 19.936 37.5995 19.8886 37.5048 19.9242C37.4397 19.9478 37.3391 19.9892 37.274 20.0188H37.2326H37.1911C37.1852 20.0248 37.1675 20.0248 37.1616 20.0366C37.1556 20.0484 37.1379 20.0484 37.132 20.0543L36.9012 20.1668C36.8538 20.1727 36.8538 20.1905 36.771 20.149L36.3627 19.7644L35.9307 19.3738C36.1259 19.0779 35.9603 19.214 36.1023 19.1134C36.1259 19.0602 36.1437 18.9536 36.1319 18.8471C36.12 18.7288 36.1023 18.7229 35.9721 18.6341H35.9307C35.6999 18.4684 36.0609 18.2139 35.6407 18.1488C35.4868 18.1252 35.5223 18.1843 35.4513 18.0009L35.4099 17.8825C35.3626 17.8115 35.3448 17.8115 35.2797 17.7642H35.1732C34.9542 17.6577 35.0785 17.7997 34.9779 17.6103C34.8714 17.415 35.0371 17.492 34.8832 17.4387C34.8122 17.415 34.5755 17.4328 34.4394 17.5038H34.398H34.3565L34.3151 17.415L33.966 16.8943L33.6168 16.5451L33.2854 16.1013C33.2854 16.0954 33.2736 16.0895 33.2736 16.0835C33.2677 16.0776 33.2499 16.0539 33.244 16.0421L32.6641 15.1249C32.6641 15.1189 32.6522 15.1071 32.6522 15.1012C32.522 14.9059 32.5694 15.0657 32.4096 14.7698C32.309 14.5923 32.2498 14.6929 32.2262 14.4562C32.0841 14.3496 32.1966 14.4621 32.1374 14.2727C32.1078 14.1721 32.1315 14.2313 32.096 14.1603C32.096 14.1544 32.09 14.1425 32.0841 14.1366L31.664 13.3791C31.664 13.3732 31.6581 13.3614 31.6521 13.3555L31.5042 12.9649C31.4391 12.8761 31.4273 12.9116 31.374 12.7341L31.2083 11.8524C31.2083 11.8464 31.2024 11.8346 31.2024 11.8287L31.1906 11.5328C31.1906 11.3079 31.1787 11.3257 31.2556 11.2606C31.2616 11.2547 31.2734 11.2487 31.2793 11.2428C31.2852 11.2369 31.2971 11.231 31.303 11.2251C31.3089 11.2192 31.3207 11.2132 31.3326 11.2073L31.3858 11.1718L31.516 11.083H31.5575C31.8829 10.8641 31.7646 10.9055 31.8415 10.8404C32.0368 10.6866 32.0072 10.9055 32.2084 10.6037C32.4629 10.6096 32.6463 10.6037 32.741 10.5623ZM73.9403 15.8232L73.9522 15.835C73.9522 15.835 73.9344 15.8232 73.9403 15.8232ZM33.2618 18.6045C33.0073 18.7761 33.0369 18.8353 32.9304 19.0483C32.9185 19.0779 32.9304 19.0602 32.8949 19.1134C32.8712 19.1548 32.8534 19.1608 32.8238 19.2081C32.6049 19.3679 32.9067 19.1904 32.6108 19.4448C32.6049 19.4507 32.5871 19.4685 32.5812 19.4744L32.4806 19.5513C32.0131 19.865 32.1019 19.6697 31.7409 19.6401H31.6995C31.6403 19.6105 31.6817 19.6046 31.6048 19.6105C31.516 19.6164 31.5752 19.6105 31.5219 19.6401C31.4095 19.5868 31.2497 19.5928 31.1728 19.6401C31.0663 19.5928 31.1491 19.5928 31.0426 19.6401H31.0012C30.8828 19.5868 30.9538 19.5987 30.7822 19.5987C30.9361 19.0247 30.9598 19.3442 30.9302 18.5867C30.9243 18.4447 30.9183 18.4447 31.0189 18.3974C31.0249 18.3915 31.0367 18.3915 31.0426 18.3855C31.1846 18.3382 31.1255 18.421 31.2912 18.3619C31.6876 18.2317 31.4746 18.4151 31.7942 18.2198C31.8001 18.2139 31.8119 18.208 31.8237 18.2021C31.9125 18.1607 31.9658 18.1488 32.0664 18.0956C32.2202 18.0186 32.1729 18.0719 32.2617 17.9417L32.3919 17.8529L32.4806 17.7642C32.7351 17.5866 32.6996 17.3795 32.6996 16.8943L32.8298 17.0481C32.8298 17.054 32.8416 17.06 32.8416 17.0659L33.3446 17.847C33.4097 18.0601 33.3979 18.3974 33.2618 18.6045ZM35.694 18.2554L35.7058 18.2672C35.7058 18.2672 35.694 18.2613 35.694 18.2554ZM30.8296 19.646L30.8414 19.6579C30.8414 19.6579 30.8237 19.6519 30.8296 19.646ZM35.5223 20.2082L35.6111 20.297L35.6999 20.3857C35.7709 20.4863 35.7531 20.4331 35.7886 20.5574C35.6111 20.5574 35.4158 20.5751 35.3626 20.581L34.5755 20.5574C34.7589 20.4331 34.9306 20.3266 35.0963 20.078V20.0366L35.185 19.9478H35.2264C35.3566 19.8768 35.2738 19.9242 35.3271 19.9478C35.4454 20.0188 35.2797 20.0484 35.5223 20.2082ZM41.085 20.1668L41.0969 20.1786C41.0969 20.1786 41.0791 20.1727 41.085 20.1668ZM41.1738 20.2555L41.1856 20.2674C41.1856 20.2674 41.1679 20.2555 41.1738 20.2555ZM43.9078 21.6876L44.038 21.7764L44.2096 21.948C44.2392 22.0072 44.2333 21.9835 44.2747 22.0545L44.5883 22.5635C44.5942 22.5694 44.6002 22.5753 44.6002 22.5812C44.6357 22.6167 44.612 22.5871 44.6593 22.6286C44.7422 22.6937 44.6948 22.6286 44.7718 22.7351C44.9552 22.8653 44.7185 22.8653 44.902 22.9955L45.1683 23.5754C45.4109 24.0429 45.1801 23.9896 45.2925 24.3743L45.3044 24.4216C45.334 24.5222 45.3695 24.611 45.334 24.6939C45.2334 24.7353 44.7008 24.7353 44.5942 24.6939H44.5528C44.4463 24.7412 44.5291 24.7412 44.4226 24.6939H44.3812C44.2747 24.7412 44.3575 24.7412 44.251 24.6939H44.2096C44.1031 24.7412 44.1859 24.7412 44.0794 24.6939H44.038H43.9965H43.9551H43.9137C43.9078 24.5933 43.8959 24.5696 43.8959 24.5341C43.89 24.4631 43.9019 24.4512 43.8841 24.398C43.8368 24.2204 43.8131 24.2914 43.8072 24.1198L43.7007 23.4807C43.4521 23.3032 43.819 23.4866 43.5705 23.3091C43.5054 23.1493 43.606 23.2795 43.4817 22.9304L43.3338 22.5398C43.1503 22.1788 43.2272 22.3859 43.0911 22.1788C43.0083 22.1196 42.884 21.8474 42.8308 21.7468C42.5822 21.5693 42.9491 21.7527 42.7006 21.5752L42.0023 20.8828L41.9135 20.7941C41.9076 20.7881 41.8898 20.7704 41.8898 20.7763L41.3927 20.4449C41.3809 20.439 41.3691 20.4212 41.3632 20.4272C41.3572 20.439 41.3395 20.4153 41.3158 20.3976C41.2389 20.3147 41.2803 20.439 41.304 20.3561C41.375 20.3206 41.2744 20.3325 41.375 20.3502L41.9076 20.5337C41.9194 20.5396 41.9313 20.5396 41.9431 20.5455C41.9549 20.5514 41.9668 20.5514 41.9786 20.5574C41.9904 20.5633 42.0319 20.5751 42.0437 20.581L42.8958 20.8828C42.9018 20.8887 42.9077 20.8947 42.9136 20.9006C42.9195 20.9065 42.9254 20.9124 42.9314 20.9183C43.0852 21.084 42.9432 20.9953 43.1917 21.084L43.9078 21.6876ZM37.4752 20.729C37.6468 20.658 37.5344 20.7645 37.7652 20.6284C37.9013 20.5514 37.7652 20.6106 37.8954 20.5574C38.1321 20.4745 38.351 20.5041 38.5049 20.4686C38.6587 20.439 38.4694 20.3857 38.6469 20.4627H38.6883C38.8659 20.3857 39.1499 20.4627 39.3334 20.4923C39.4044 20.5041 39.4872 20.5218 39.5227 20.5337L40.1204 20.6402H40.1618C40.3216 20.7171 40.3926 20.652 40.5524 20.729H40.5938L40.8306 20.8828C40.9903 21.0189 40.8187 20.9657 40.9963 21.084C41.0969 21.155 41.0081 21.013 41.1146 21.161L41.2448 21.2497H41.2862C41.5111 21.3977 41.3632 21.3681 41.6827 21.6285C41.8366 21.7527 41.9904 21.9362 42.1443 22.0841C42.3277 22.2617 42.2982 22.2321 42.3928 22.4569L42.5881 22.8357C42.6887 23.0073 42.6651 22.9067 42.6769 23.0724C42.813 23.173 42.6946 23.0665 42.7538 23.1907L42.8071 23.2913V23.3328L42.9787 23.7944C42.9787 23.8003 42.9846 23.8121 42.9905 23.818L43.026 23.9364C43.0497 23.9719 43.0438 23.9541 43.0734 24.0192L43.1681 24.3388C43.2154 24.4631 43.1503 24.4157 43.2036 24.5459C43.0675 24.5577 42.7597 24.5814 42.6414 24.5045C42.5349 24.5518 42.6177 24.5518 42.5112 24.5045H42.4698C42.3869 24.469 42.2449 24.469 42.0023 24.3684L41.7241 24.2619C41.7182 24.2619 41.7064 24.2559 41.7005 24.2559L41.5584 24.1613L41.2803 24.0015C41.2744 23.9956 41.2626 23.9896 41.2507 23.9837L40.9489 23.8121C40.943 23.8062 40.9252 23.7884 40.9252 23.7944C40.9252 23.8003 40.9075 23.7825 40.9016 23.7766L40.8542 23.7352C40.8483 23.7293 40.8424 23.7233 40.8365 23.7174L40.7359 23.6405L40.3453 23.3801H40.3039L40.2151 23.2913C40.15 23.244 40.1382 23.2322 40.0612 23.1848L39.8837 23.0606C39.7535 22.954 39.6943 22.8594 39.5642 22.7706C39.5287 22.7173 39.5405 22.7292 39.4813 22.6818C39.4754 22.6759 39.4636 22.67 39.4576 22.6641L39.3452 22.599C39.2742 22.5516 39.2683 22.5339 39.1913 22.4925C38.9487 22.3504 38.9369 22.4274 38.854 22.2853C38.7889 22.1788 38.9132 22.2972 38.7712 22.1315C38.6528 22.0013 38.2978 21.6403 38.1735 21.5575H38.1321C38.0492 21.4983 38.0019 21.4509 37.9249 21.374C37.7001 21.1491 37.9486 21.2912 37.5995 20.9598C37.4693 20.8414 37.4279 20.8473 37.4752 20.729ZM36.7414 22.0782H36.7H36.6526C36.4751 21.9894 36.4396 21.9894 36.2621 22.0782C36.2561 22.0841 36.2384 22.0841 36.2384 22.096L36.1733 22.1433C36.1674 22.1492 36.1615 22.1551 36.1555 22.1611C36.0135 22.2913 36.0964 22.3623 35.8656 22.3859C35.9484 22.1906 35.9662 22.1906 36.12 22.0368L36.7355 21.5219L36.8657 21.6107L36.9544 21.6995L37.2148 21.9599H37.2562V22.0013H37.2148H37.1734C37.0373 21.9362 37.0136 21.9599 36.8242 21.9599L36.7414 22.0782ZM37.3923 22.0368C37.4634 22.0841 37.4456 22.0605 37.5048 22.1374L37.5817 22.2498C37.5817 22.2498 37.5935 22.2617 37.5935 22.2676L37.7415 22.4747H37.5699L37.4279 22.2084C37.4101 22.1847 37.3746 22.1256 37.3509 22.0841L37.2622 21.9954C37.4693 21.9894 37.345 21.9894 37.3923 22.0368ZM32.1729 24.7708C32.09 24.5696 32.2143 23.9305 32.1315 23.7293V23.6878L32.096 23.5695C32.096 23.5636 32.09 23.5517 32.09 23.5458C32.0427 23.386 32.096 23.4215 32.0427 23.2973L32.0013 23.2558V23.2144C31.9599 23.1079 31.9776 23.0191 31.9776 22.9185C31.9717 22.7647 31.9599 22.7647 32.1315 22.6463H32.1729L32.4333 22.4747C32.6108 22.3563 32.4984 22.451 32.6522 22.3859C32.7173 22.5516 32.67 22.4037 32.599 22.5694C32.5635 22.6582 32.6049 22.7232 32.5694 22.8061C32.4984 22.9777 32.5339 22.6937 32.4925 23.0901L32.6226 23.9245C32.741 24.2027 32.6937 24.1849 32.6108 24.2559C32.528 24.321 32.5516 24.2737 32.4392 24.3506C32.1729 24.5459 32.5043 24.5518 32.1729 24.7708ZM35.8715 22.4274L35.8833 22.4392C35.8833 22.4392 35.8656 22.4274 35.8715 22.4274ZM38.3451 22.9067L38.5167 23.0783L38.6114 23.1552L38.3451 23.2203C38.3273 23.2263 38.351 23.2381 38.2504 23.244C38.0315 23.2558 38.0788 23.1257 38.0374 23.031L37.9427 22.954C38.0847 22.8534 38.0492 22.8179 38.2149 22.7706L38.3451 22.9067ZM39.3452 23.6878H39.3866C39.5997 23.8299 39.6825 24.037 40.0376 24.2086H40.079C40.1796 24.2737 40.1974 24.327 40.292 24.3861C40.3571 24.4335 40.3631 24.4216 40.4281 24.4631C40.4814 24.4986 40.4992 24.5163 40.5524 24.5518L40.6412 24.6406H40.6826L40.943 24.8122L41.0732 24.901H41.1146L41.375 25.0726L41.9372 25.4217H41.9786L42.2331 25.4987C42.239 25.4987 42.2508 25.5046 42.2567 25.5105L42.8071 25.6821H42.8485C43.1148 25.7058 43.0852 25.7235 43.103 25.8005L43.1148 25.8656C43.1148 25.9307 43.0852 26.1555 43.0201 26.2443C43.0024 26.4278 43.0142 26.3094 42.9609 26.4514L42.8958 26.629C42.7361 26.984 42.884 26.7473 42.8012 26.9426C42.5526 27.1201 42.9195 26.9367 42.671 27.1142L42.5289 27.3687C42.4639 27.4574 42.4994 27.4101 42.4639 27.4752L42.3988 27.6054C42.3988 27.6113 42.3928 27.6231 42.3928 27.6291L42.3514 27.8007C42.3514 27.8066 42.3396 27.8184 42.3396 27.8243C42.2508 28.0019 42.3573 27.8954 42.2331 27.9841C42.162 28.0906 42.0792 28.1202 42.0141 28.1794C41.9963 28.1972 41.9845 28.2031 41.9549 28.2267L41.8129 28.3806L41.8011 28.3924L41.5407 28.5877H41.4993C41.3158 28.7238 41.5703 28.6706 41.3513 28.8304C41.3454 28.8363 41.3336 28.8422 41.3276 28.8481L41.0673 29.0256L40.6826 29.2032C40.6116 29.2446 40.5702 29.2564 40.5051 29.286H40.4637C40.3394 29.3689 40.3867 29.363 40.2269 29.4399L40.1737 29.4636C39.9133 29.5701 39.8778 29.5997 39.6233 29.6174C39.5819 29.6233 39.5582 29.6293 39.4636 29.6352H39.434C39.3274 29.6825 39.4103 29.6825 39.3038 29.6352H39.2624H39.1322H39.0907C38.8067 29.6115 38.7948 29.6943 38.9191 29.4517C38.9191 29.4458 38.925 29.434 38.931 29.4281L38.9724 29.3334C38.9783 29.3215 38.9961 29.2801 39.0079 29.2446C39.0256 29.1973 39.0611 29.1144 39.0848 29.0611C39.2446 28.6765 38.9369 28.6883 39.0197 28.2978C39.0434 28.1912 39.0256 28.2504 39.1026 28.1617C39.1203 28.138 39.144 28.1202 39.1618 28.0966L39.2209 27.9664C39.3215 27.635 39.2328 27.635 39.3511 27.4515V27.4101C39.3689 27.1911 39.3689 27.3273 39.3511 27.1083V27.0669C39.3511 27.061 39.3097 26.9959 39.3097 26.9899L39.1262 26.7059C39.0375 26.5757 39.144 26.6763 38.9605 26.5875L38.8304 26.3627C38.8067 26.3212 38.8067 26.3212 38.7712 26.268C38.5877 25.9839 38.5759 26.0253 38.4871 25.8952C38.3924 25.8241 38.4279 25.7768 38.4161 25.7354L38.351 25.5815C38.351 25.5756 38.3392 25.5638 38.3392 25.5638L38.2267 25.4632C38.0906 25.3626 38.1735 25.4632 38.1617 25.3271C38.1557 25.2146 38.1498 25.2383 38.1853 25.1614C38.2978 25.114 38.2031 25.114 38.3155 25.1614H38.3569H38.3984H38.4398L38.8659 25.2738C38.925 25.2797 39.0256 25.3034 39.0789 25.3152L39.1499 25.333C39.1558 25.333 39.1677 25.3389 39.1736 25.3389C39.2446 25.3507 39.1085 25.3981 39.2683 25.333H39.3097L39.4754 25.3211C39.7713 25.2146 39.5642 25.1022 39.6233 24.6169C39.6707 24.2323 39.2328 24.2914 39.1322 24.25H39.0907C38.9132 24.179 39.0434 24.3388 38.9191 24.1613C39.3215 24.1258 39.2091 23.9956 39.1795 23.6405C39.3097 23.6523 39.2564 23.6405 39.3452 23.6878ZM39.5227 24.8596L39.5346 24.8714C39.5346 24.8714 39.5168 24.8655 39.5227 24.8596ZM43.8664 25.8596H43.9078C44.109 25.7768 43.9255 25.9425 44.1267 25.8596H44.1682C44.3102 25.9188 45.1091 25.8892 45.257 25.9484C45.3399 26.1496 45.1978 26.2384 45.1209 26.3922L45.0026 26.629C44.8724 26.8834 44.9848 26.7651 44.9079 26.9426C44.8132 27.0077 44.902 26.9959 44.6357 27.2799L44.5232 27.416C44.5173 27.4219 44.5114 27.4338 44.5114 27.4338L44.4581 27.5403C44.4285 27.5876 44.4226 27.5876 44.3871 27.6409C44.2451 27.7474 44.3753 27.6409 44.3161 27.7356C44.3161 27.7415 44.3102 27.7533 44.3043 27.7592L44.1622 27.9604C44.1149 28.0255 44.1741 27.9723 44.0557 28.0551L43.7125 28.3274C43.7066 28.3274 43.7007 28.3392 43.6947 28.3392L43.6178 28.4043C43.6119 28.4043 43.6001 28.4161 43.5941 28.422L43.5054 28.5108L43.3338 28.6824C43.097 28.8422 43.316 28.7416 42.8663 28.9961L42.813 29.0316C42.7538 29.0611 42.6532 29.1026 42.5881 29.1262L42.3869 29.2032C42.239 29.2624 42.2804 29.2268 42.1561 29.3215C42.0733 29.3866 42.168 29.3334 42.0555 29.3985C42.0141 29.4221 41.9431 29.4458 41.9017 29.4636H41.8602C41.6472 29.4813 41.5111 29.505 41.7715 29.3334L42.1384 29.0434C42.4047 28.7949 42.3988 28.7653 42.5704 28.5167C42.6177 28.4457 42.6355 28.4516 42.6887 28.3747C42.7657 28.3214 42.7657 28.3333 42.8189 28.2563L43.2627 27.5403L43.606 26.6053C43.6119 26.5816 43.6237 26.5579 43.6237 26.5402L43.7776 25.8123L43.8664 25.8596ZM79.0237 39.4172C79.2071 39.5533 78.9112 39.5415 79.2485 39.5711L79.4616 39.5474C79.5267 39.5237 79.5089 39.5237 79.5444 39.5H79.5859H79.6273H79.6687H79.7101C79.9764 39.6953 79.8285 40.0267 79.8048 40.293C79.793 40.4055 79.8048 40.5179 79.793 40.6244C79.7693 40.8138 79.7042 40.9499 79.6687 41.3641L79.6036 41.5949C79.6036 41.6719 79.6095 41.7251 79.6095 41.808C79.6095 41.9559 79.5267 42.1216 79.3669 42.234C79.2604 42.3938 79.2663 42.2755 79.3255 42.4057V42.4471C79.29 42.5418 79.29 42.6601 79.3255 42.7489V42.7903C79.29 42.885 79.29 43.0033 79.3255 43.0921V43.1335C79.2249 43.3821 79.3136 43.6602 79.1953 43.9147C79.0769 43.8378 79.1065 43.82 79.071 43.7786L79 43.7194C78.9941 43.7135 78.9882 43.7076 78.9822 43.7016L78.4496 42.5654C78.3135 42.3702 78.5562 42.6305 78.2484 42.2104C78.2011 42.1453 78.2307 42.1867 78.2129 42.1453C78.2129 42.1453 78.1952 42.0743 78.1893 42.0388C78.1419 41.8967 78.1715 42.0151 78.136 41.9027C78.1005 41.7784 78.1656 41.7725 78.0946 41.5713L77.9111 41.1807C77.9111 41.1748 77.8993 41.1629 77.8993 41.157C77.8934 41.1452 77.8815 41.1215 77.8756 41.1156C77.8164 40.9913 77.9052 41.1688 77.846 41.0505L77.7514 40.8197L77.5797 40.4706L77.7573 40.3404C77.7632 40.3344 77.775 40.3285 77.7809 40.3226L77.9762 40.1214C78.207 39.8196 78.0591 39.8729 78.2721 39.7308C78.3668 39.5888 78.4852 39.4941 78.6094 39.3699C78.7159 39.2633 78.7041 39.3107 78.7219 39.1982C78.7515 39.0385 78.6153 39.1627 78.787 39.0385C78.8402 38.9083 78.7692 38.7544 78.9171 38.6479C78.9822 38.784 78.9822 38.9675 78.9822 39.0325C79.0059 39.216 79.0059 39.1864 79.0237 39.4172ZM79.3314 39.1095L79.3432 39.1213C79.3432 39.1213 79.3255 39.1154 79.3314 39.1095ZM43.7362 40.1983C43.9078 40.3108 43.89 40.3759 44.1149 40.512L44.1682 40.5416L44.3102 40.6126C44.5291 40.7132 44.6002 40.9381 44.6889 41.0683C44.6179 41.0978 44.2865 41.1215 44.0794 41.0268L43.8959 40.7132C43.7598 40.3995 43.677 40.3463 43.7362 40.1983ZM72.2893 42.3702H72.3307L73.242 42.9797C73.248 42.9856 73.2657 42.9856 73.2716 42.9974L73.3841 43.0625C73.4196 43.0803 73.4965 43.1158 73.5261 43.1335C73.8693 43.3466 73.7924 43.3525 73.7865 43.7312L73.7687 44.033C73.7687 44.039 73.7628 44.0508 73.7628 44.0567C73.6622 44.471 73.7155 44.3053 73.6799 44.7609V44.8023C73.6267 44.9385 73.674 44.968 73.6267 45.1633C73.6148 45.2166 73.6148 45.2343 73.5675 45.3468L73.3841 45.8971C73.2894 46.1516 73.2657 46.0806 73.1592 46.2759C73.1296 46.335 73.1355 46.3232 73.1118 46.3587L73.0467 46.4889C73.0408 46.4948 73.0349 46.5067 73.029 46.5126L72.816 47.1221C72.7509 47.4239 72.7035 47.4357 72.7568 47.6665C72.7568 47.6725 72.7627 47.6843 72.7627 47.6902C72.7627 47.6961 72.7686 47.708 72.7686 47.7139L72.8692 48.0808C73.1769 48.643 73.0704 48.6075 73.0823 49.4655C73.0823 49.572 73.0941 49.7022 72.9343 49.8088L72.5792 50.0632L72.4491 50.152L72.3603 50.2408C72.2834 50.2763 72.2183 50.2881 72.1413 50.3295H72.0999L71.9697 50.4183H71.9283C71.8277 50.4656 71.7508 50.4715 71.6028 50.4775L71.3188 50.4183C71.2418 50.3828 71.1767 50.3709 71.0998 50.3295H71.0584C70.9815 50.294 70.9164 50.2822 70.8394 50.2408H70.798C70.6915 50.1875 70.514 50.1757 70.4607 50.1638L70.1471 50.0691L70.2003 49.5365C70.2536 49.3235 70.1352 49.4123 70.2772 49.1992V49.1578C70.2891 48.9803 70.2891 48.9862 70.3364 48.8264C70.3956 48.6252 70.366 48.6666 70.4252 48.4773C70.437 48.4358 70.4607 48.3767 70.4666 48.3234C70.4785 48.2701 70.4607 48.2465 70.4844 48.1932C70.4844 48.1873 70.4903 48.1755 70.4962 48.1755C70.5968 47.9447 70.5376 48.0098 70.6323 47.9447L70.7625 47.5896C70.8158 47.4476 70.8453 47.489 70.8572 47.3884C70.8572 47.3766 70.8572 47.3529 70.8513 47.347C70.8513 47.3411 70.8513 47.3292 70.8513 47.3233L70.8453 47.1517C70.8453 47.1458 70.8453 47.1339 70.8453 47.128V46.7789C70.8453 46.773 70.8513 46.7434 70.8513 46.7374L70.8453 46.4652L70.8749 46.3528C70.8749 46.3469 70.8809 46.3291 70.8809 46.3232L70.8572 46.1812C70.8513 46.1753 70.8453 46.1634 70.8394 46.1575C70.7152 45.9918 70.8039 46.2877 70.727 45.9741L70.656 45.761L70.8394 44.5183C70.8394 44.5124 70.8453 44.5005 70.8453 44.4946C70.869 44.3763 70.9223 44.5538 70.8453 44.3763L70.9104 44.2165C70.9459 43.9502 70.9223 44.1514 71.159 43.7135C71.159 43.7076 71.1649 43.6957 71.1708 43.6957C71.2655 43.53 71.2596 43.607 71.3661 43.388L71.5732 42.9738C71.7212 42.6779 71.6857 42.8554 71.7744 42.5832C71.8336 42.3997 71.9165 42.4116 72.0289 42.2459C72.1532 42.3228 72.1591 42.3051 72.2893 42.3702ZM68.5493 43.4531V43.4945L68.7978 45.5894C68.8984 45.7906 68.7445 45.6545 68.8984 45.8853V45.9267C68.9635 46.0806 68.8511 46.0392 69.07 46.1871C69.147 46.3705 69.0108 46.554 69.0049 46.6783L68.9458 47.0037C68.8866 47.199 68.9872 47.0748 69.0049 47.2819C69.0286 47.5245 69.1529 47.9743 69.07 48.1459C68.9694 48.0749 68.9753 47.8855 68.9043 47.7671C68.7919 47.5659 68.786 47.7375 68.6795 47.4062C68.6262 47.2345 68.6321 47.2405 68.5433 47.1044C68.4546 47.0393 68.5138 47.0866 68.4427 46.9446C68.4427 46.9387 68.4309 46.9268 68.4309 46.9209L68.3895 46.8321C68.2948 46.6428 68.3007 46.7374 68.3066 46.5954C68.3185 46.0806 68.3717 46.2344 68.1054 45.8971C67.9457 45.6959 68.1114 45.9149 68.0285 45.7137C67.8865 45.6131 67.9989 45.6604 67.9516 45.5066C67.922 45.4119 67.9457 45.4947 67.8983 45.3941C67.8391 45.2817 67.9575 45.3764 67.8155 45.2758H67.774C67.6143 45.2107 67.6143 45.329 67.5137 45.187C67.4012 45.1101 67.4249 45.0923 67.4841 44.9799L67.6024 44.7491V44.7077C67.7622 44.3112 67.6557 44.4887 67.8687 44.0449L68.0226 43.6543C68.1173 43.4768 68.0167 43.4294 68.0699 43.2874L68.2475 42.9383C68.2475 42.9323 68.2534 42.9205 68.2593 42.9146C68.3954 42.5714 68.2356 42.7371 68.3895 42.6246C68.4013 42.7785 68.4132 42.7548 68.4132 42.8554C68.4191 43.2815 68.4605 43.0093 68.496 43.2401C68.5078 43.4058 68.4191 43.2637 68.5493 43.4531ZM77.0708 44.0212L77.2424 44.1928L77.3312 44.2816L77.42 44.3704C77.5916 44.7846 77.5324 44.7195 77.5265 45.3586C77.5265 45.4355 77.5206 45.4711 77.5206 45.5302C77.5265 45.6545 77.5028 45.5894 77.5916 45.7137V45.7551C77.7987 46.0628 77.5146 45.8794 77.7218 46.1871C77.8638 46.2818 77.7809 46.2877 78.0354 46.3469L78.0827 46.3587C78.2011 46.3765 78.0236 46.4297 78.2011 46.3587H78.2425L78.6035 46.2759C78.6094 46.2759 78.6213 46.2699 78.6272 46.2699L78.8047 46.2463C78.9112 46.2344 78.9941 46.2285 79.1184 46.2285C78.9645 46.4534 78.8165 46.5007 78.7574 46.5718L78.6509 46.7138C78.5621 46.8085 78.5325 46.8203 78.4615 46.9209L78.3727 47.0097C77.9762 47.276 78.3727 47.1399 77.9407 47.4417C77.7514 47.5659 77.7573 47.6902 77.5087 47.7435C77.4081 47.5068 77.6212 47.0393 77.6212 47.0393C77.6389 46.9623 77.6093 46.9091 77.5975 46.7434C77.5087 46.7848 77.4022 46.7789 77.1182 46.915L76.988 47.0037C76.7157 47.1872 76.5678 47.4121 76.408 47.6014C76.4021 47.6074 76.3962 47.6133 76.3962 47.6192L76.3193 47.6784C76.2364 47.7435 76.2778 47.6843 76.2127 47.7849L76.124 47.8737L76.047 47.9683C76.047 47.9743 76.0352 47.9802 76.0352 47.9861L75.9228 48.0985C75.9228 48.0985 75.9109 48.1104 75.9109 48.1163L75.692 48.4891C75.4257 48.6666 75.5381 48.6311 75.4789 48.8442C75.3961 49.1223 75.5085 48.8382 75.3192 49.0276C75.1416 49.2111 75.4553 49.0099 75.2126 49.1874V49.3176C75.0884 49.3057 75.1357 49.3353 75.118 49.2762C75.0884 49.1933 75.1653 49.1519 75.1712 49.146C75.1771 49.0395 75.1949 48.9093 75.1949 48.8974L75.3902 48.4832C75.3902 48.4773 75.402 48.4654 75.402 48.4595C75.4967 48.2642 75.4079 48.353 75.5144 48.2761L75.6446 48.1044C75.763 48.0157 75.7038 48.0334 75.7216 48.0098C75.7216 48.0038 75.7334 47.9979 75.7334 47.992L76.047 47.6725C76.1476 47.5541 76.1713 47.4831 76.1181 47.3588C76.0115 47.3115 76.0944 47.3115 75.9879 47.3588H75.9464C75.8044 47.418 75.7867 47.3351 75.5559 47.4476H75.5144C75.4612 47.4831 75.4612 47.489 75.4138 47.5245C75.3369 47.5778 75.3428 47.56 75.2777 47.6014C75.1594 47.6784 75.1475 47.7257 75.0351 47.7967C74.9049 47.9861 74.899 47.8855 74.7037 48.205C74.6978 48.211 74.6919 48.2228 74.686 48.2346L74.4019 48.8501C74.3842 48.8797 74.4078 48.8619 74.3605 48.9152C74.325 48.9566 74.3368 48.9448 74.2895 48.9744C74.2717 48.7909 74.2066 48.7376 74.2244 48.6134C74.2362 48.4891 74.3191 48.3707 74.3368 48.1932C74.467 48.1044 74.5203 47.921 74.5913 47.7257C74.7037 47.4002 74.609 47.4121 74.7392 47.1576C74.9463 46.7493 74.7688 46.8499 74.8753 46.5303L74.9404 46.3646C74.9404 46.3587 74.9523 46.3528 74.9523 46.3469L75.473 45.6723L75.6979 45.2698C75.7334 45.1929 75.6979 45.2284 75.7807 45.1041V45.0627L76.3074 43.8792C76.3607 43.7727 76.2897 43.9206 76.337 43.8141C76.5027 43.4294 76.3133 43.7135 76.4731 43.3821L76.6033 42.7607C76.8814 42.8377 76.6625 42.9974 76.8164 43.5004L76.84 43.5774C76.84 43.5833 76.8459 43.5951 76.8459 43.601L76.8637 43.6425C76.8933 43.7016 76.8637 43.6425 76.911 43.7253C76.9288 43.7727 76.9761 43.9561 77.0708 44.0212ZM79.1539 43.9798L79.1657 43.9916C79.1716 43.9916 79.1539 43.9798 79.1539 43.9798ZM69.0759 47.4535C69.0819 47.4476 69.0878 47.4594 69.0878 47.4653L69.0759 47.4535ZM69.0759 48.1459C69.2061 48.1932 69.141 48.0512 69.1647 48.2761C69.0108 48.2287 69.1292 48.282 69.0759 48.1459ZM37.6054 53.4482C37.5462 53.4067 37.5995 53.4541 37.558 53.389L37.4811 53.241C37.4811 53.2351 37.4752 53.2233 37.4693 53.2174L37.2562 52.8386L37.0846 52.667C36.9248 52.5487 37.0373 52.6138 37.0077 52.5487L36.7769 52.1759C36.7177 52.0575 36.8065 52.1936 36.7296 52.0693L36.3508 51.7143C36.2857 51.5782 36.339 51.6078 36.2325 51.4835C36.1555 51.3888 36.12 51.3829 36.049 51.2764C35.9721 51.2231 35.9603 51.1521 35.9188 51.0692L35.9011 51.0219C35.8952 51.016 35.8892 50.9627 35.8774 50.9272C35.7531 50.8384 35.8537 50.8503 35.688 50.7142L35.6466 50.6846C35.6407 50.6787 35.6289 50.6727 35.6229 50.6668L35.0608 50.2348C34.9957 50.1402 34.9838 50.152 34.9187 50.0691C34.759 49.8739 34.9306 50.0869 34.8418 49.8857L35.0726 49.8443C35.0785 49.8443 35.0903 49.8383 35.0963 49.8324C35.2146 49.7969 35.3626 49.7969 35.4336 49.7792L35.9662 49.5839H36.0076L36.1378 49.4951H36.1792C36.191 49.4892 36.2206 49.4714 36.2265 49.4655L36.7828 49.2762C36.9426 49.5188 36.7651 49.3176 36.8893 49.6431L37.1438 50.6136C37.1438 50.6195 37.1556 50.6313 37.1556 50.6372C37.1911 50.7083 37.1734 50.655 37.1852 50.7023C37.1911 50.7319 37.1911 50.7852 37.1911 50.8148L37.3154 51.0988C37.3213 51.1047 37.3272 51.1107 37.3332 51.1166C37.3391 51.1225 37.345 51.1343 37.3509 51.1343C37.6291 51.4716 37.2917 52.2291 37.4101 52.7262L37.5107 53.0813C37.5107 53.0872 37.5166 53.099 37.5225 53.1049L37.5403 53.1523C37.6291 53.3357 37.6764 53.2825 37.6054 53.4482ZM42.9964 51.6255L43.0083 51.6373C43.0083 51.6373 42.9905 51.6314 42.9964 51.6255ZM40.7359 53.7559L40.7773 53.8447C40.8365 53.8861 40.7832 53.8387 40.8246 53.8979C40.8246 53.9038 40.8365 53.9157 40.8365 53.9157C40.8365 53.9216 40.8424 53.9334 40.8483 53.9334C41.0081 54.2116 41.0199 54.2116 41.0199 54.5429C41.0199 54.9158 40.9844 54.9394 41.0732 55.1939C41.1679 55.4543 41.0199 55.4839 41.1619 55.6673C41.2507 55.7798 41.2389 55.7324 41.3099 55.8744L41.3632 56.0046C41.3632 56.0106 41.3691 56.0224 41.375 56.0283C41.4815 56.265 41.4993 56.4544 41.6058 56.5372L41.8366 56.697C42.0141 56.916 41.7241 56.7207 41.9549 56.8805L42.1265 57.0521C42.1857 57.1349 42.1857 57.1172 42.2449 57.1941C42.2982 57.2533 42.2626 57.2119 42.2982 57.2592C42.5289 57.6143 42.381 57.419 42.6059 57.5728L42.7361 57.6616H42.7775L43.1681 57.922L43.2272 57.9516C43.3042 57.9989 43.2391 57.9397 43.3042 57.9989C43.4639 58.1409 43.2509 58.0522 43.4225 58.4723C43.4225 58.4783 43.4284 58.4901 43.4344 58.496L43.5527 58.7327C43.5586 58.7446 43.5705 58.7682 43.5764 58.7741C43.5823 58.786 43.6001 58.8215 43.6119 58.8392C43.6711 58.9517 43.5527 58.857 43.6947 58.9576L43.9019 59.4014C43.9965 59.5908 43.967 59.5967 44.0439 59.6559C44.0676 59.7151 44.0498 59.6973 44.0616 59.7328L44.1445 59.9044C44.1445 59.9103 44.1504 59.9222 44.1563 59.9281L44.2865 60.2832C44.3161 60.3778 44.322 60.3897 44.3575 60.4785L44.4581 60.6856C44.5765 60.9164 44.399 60.7566 44.5647 60.8749C44.5765 60.9933 44.5706 60.9696 44.6061 61.0466L44.3871 61.1767C44.2865 61.2241 44.1504 61.2359 44.0735 61.2418C43.9906 61.2478 43.9433 61.2537 43.748 61.2714C43.529 61.2892 43.2154 61.2596 43.0438 61.1767H43.0024C42.9728 61.159 42.9373 61.1353 42.9077 61.1235C42.7361 61.0525 42.7361 61.0821 42.6118 60.94C42.452 60.7566 42.5289 60.7684 42.4816 60.656V60.6146L42.1798 60.3128C42.1443 60.2891 42.162 60.295 42.097 60.2713L41.9253 60.2122C41.9017 60.2003 41.8721 60.1648 41.8307 60.1411L41.7182 60.076C41.6354 60.0109 41.665 60.0524 41.6117 59.9636C41.4815 59.8689 41.5703 59.9636 41.5348 59.8393C41.4282 59.4488 41.7774 59.6914 41.8129 59.3659C41.8425 59.1114 41.6354 59.2061 41.6117 58.9221C41.5584 58.8807 41.6058 58.9162 41.5584 58.8629C41.5584 58.857 41.5466 58.8511 41.5466 58.8451C41.4282 58.6972 41.4933 58.7268 41.3927 58.6558C41.3868 58.6499 41.3691 58.6321 41.3691 58.638C41.3691 58.638 41.0791 58.3717 41.0377 58.2534C40.9726 58.0758 41.1028 58.0107 40.9726 57.774C40.8601 57.561 41.0081 57.7089 40.8957 57.4131L40.7418 56.6556V56.6142C40.5761 56.3656 40.7595 56.4662 40.6412 56.2354L40.6057 56.1703C40.6057 56.1644 40.5998 56.1526 40.5998 56.1467L40.5643 55.9514C40.4163 55.5075 40.4932 55.9218 40.4222 55.4543C40.4045 55.3241 40.3749 55.4069 40.3394 55.2176C40.3157 55.1111 40.3631 55.1229 40.3098 55.0045V54.9631C40.2624 54.8448 40.3039 54.8211 40.2565 54.6021L40.2447 54.3003C40.2506 54.2175 40.2447 54.2767 40.2684 54.1938L40.3275 53.892C40.3335 53.7085 40.4222 53.7381 40.4163 53.389L40.44 53.1819C40.582 53.2292 40.5761 53.4659 40.653 53.6079L40.6826 53.673C40.7004 53.7145 40.6234 53.673 40.7359 53.7559ZM49.9498 55.8389C50.0977 56.0638 50.1037 55.9336 50.3404 56.0993L50.5475 56.2473C50.867 56.3775 50.6599 56.1999 50.7783 56.6082L50.7901 56.6556C50.8848 56.9929 50.796 57.129 50.802 57.3716C50.802 57.4426 50.796 57.3539 50.8197 57.49C50.8375 57.5847 50.8315 57.5432 50.8375 57.6143L50.8552 57.7208C50.8789 57.8451 50.9321 57.6616 50.8552 57.8391V57.8806C50.8966 57.9752 50.8789 57.9693 50.8789 58.064C50.8789 58.1705 50.8848 58.1409 50.9026 58.3185V58.3599C50.9499 58.4723 50.9203 58.9517 50.944 59.2298C51.0032 59.8985 51.0978 58.8096 51.0978 60.2832L51.1274 60.8986C51.1274 60.9045 51.1215 60.9164 51.1156 60.9282C51.0327 60.8039 51.0091 60.8217 50.8848 60.8039L50.6718 60.7743C50.6658 60.7743 50.654 60.7684 50.6481 60.7684L50.5652 60.7388C50.435 60.7033 50.0208 60.6086 50.1214 60.8453V60.8868C50.0681 61.017 50.1983 61.1531 50.2398 61.2004L50.3167 61.3069C50.4114 61.4253 50.3995 61.3247 50.512 61.4963C50.6718 61.6087 50.4942 61.4312 50.6303 61.7093C50.6303 61.7153 50.6363 61.7271 50.6422 61.733L50.8138 61.9342C50.9262 62.0999 50.9854 62.0526 51.0091 62.2715C51.0268 62.4727 51.0091 62.5142 50.9026 62.668C50.7664 62.7213 50.9026 62.7094 50.6954 62.6325L50.654 62.6148C50.5416 62.5792 50.4232 62.5674 50.4055 62.6976C50.3581 63.0823 50.4942 63.0586 50.5652 63.1947C50.5652 63.2006 50.5712 63.2124 50.5771 63.2184L50.6895 63.4018C50.802 63.4847 50.725 63.4373 50.7487 63.4787L50.8079 63.5853C50.8434 63.6504 50.8375 63.6149 50.8434 63.674C50.8493 63.7391 50.8552 63.7095 50.8197 63.7924C50.5475 63.6622 50.4528 63.7983 50.4114 63.822C50.0918 64.0113 50.2516 63.7865 50.1214 63.964C49.938 64.0883 49.9794 64.0764 49.648 63.8101C49.5296 63.7155 49.7249 63.8693 49.6006 63.7687L49.5178 63.7036L49.429 63.6149L49.2574 63.4432C49.2042 63.4077 49.2042 63.4018 49.1568 63.3722C49.0799 63.3249 49.1095 63.3486 49.0444 63.3071L48.5236 63.0053C48.5118 62.9994 48.4763 62.9817 48.4644 62.9757L48.4112 62.9461C48.4053 62.9402 48.3934 62.9343 48.3816 62.9284L48.21 62.7568L48.0739 62.4372C48.0324 62.3189 48.1153 62.4313 48.0206 62.3307L47.8668 62.2301C47.6655 62.1473 47.8904 62.2834 47.6951 62.1768L47.5472 62.0703C47.5413 62.0644 47.5294 62.0585 47.5235 62.0526L47.198 61.8099C47.1921 61.804 47.1803 61.7981 47.1744 61.7922C47.0679 61.6916 47.1093 61.7448 47.1093 61.4549C47.1093 61.2063 47.1152 60.9992 47.1093 60.7625C47.1034 60.4489 47.1448 60.6737 47.2276 60.3719C47.2572 60.2654 47.3519 59.3659 47.4111 59.2476C47.4111 59.2416 47.4229 59.2298 47.4229 59.2239L47.4407 59.1765C47.4407 59.1706 47.4466 59.1588 47.4525 59.1529C47.5058 59.0464 47.3756 59.1588 47.5235 59.0523L47.5649 58.9635C47.7129 58.857 47.5649 58.9635 47.707 58.7978C47.7129 58.7919 47.7188 58.7801 47.7247 58.7741C47.7306 58.7682 47.7366 58.7623 47.7425 58.7564L48.1271 58.3185C48.133 58.3126 48.139 58.3007 48.139 58.2948C48.139 58.2889 48.1449 58.277 48.1508 58.2711C48.1508 58.2652 48.1567 58.2534 48.1567 58.2475C48.2573 57.993 48.1035 58.1232 48.2692 57.8391C48.3106 57.7681 48.3106 57.78 48.3224 57.7267C48.3461 57.6024 48.2751 57.6794 48.423 57.5077C48.565 57.348 48.4704 57.5018 48.5 57.2888C48.5059 57.2355 48.4881 57.2829 48.5177 57.2119C48.5414 57.1468 48.5355 57.1645 48.565 57.129C48.6065 57.0343 48.5769 57.0994 48.6005 57.0107C48.6361 56.8686 48.6775 57.0402 48.6065 56.8686L48.6242 56.8154C48.7012 56.4366 48.6538 56.1999 48.6775 56.0756C48.6775 56.0697 48.6834 56.0579 48.6834 56.052C48.6834 56.0461 48.6893 56.0342 48.6893 56.0283L48.713 55.8981C48.713 55.8922 48.7189 55.8626 48.7189 55.8567L48.7544 55.7265C48.7603 55.6673 48.7544 55.62 48.7544 55.5549C48.7544 55.4365 48.7367 55.478 48.8195 55.3478V55.3063C48.8668 55.188 48.8077 55.2768 48.855 55.188C48.8846 55.1229 48.9083 55.1111 48.9497 55.046C49.0799 55.1406 48.9615 55.0874 49.1391 55.2886C49.1923 55.3478 49.1509 55.3123 49.2042 55.3596L49.6539 55.6496C49.6835 55.6614 49.7663 55.7028 49.7959 55.7206C49.8788 55.7738 49.8847 55.7916 49.9498 55.8389ZM53.8614 57.9693L53.8733 57.9812C53.8733 57.9812 53.8555 57.9693 53.8614 57.9693ZM39.3452 59.8334C39.4162 60.005 39.286 59.8512 39.4399 60.0465C39.5701 60.2121 39.4931 60.1056 39.6411 60.4489C39.7654 60.7388 39.7299 61.4371 39.6884 61.5318C39.6825 61.5318 39.6115 61.4904 39.6115 61.4904C39.6056 61.4904 39.5937 61.4845 39.5878 61.4785C39.576 61.4726 39.5523 61.4667 39.5405 61.4608L39.3866 61.3484C39.2683 61.23 39.2801 61.2004 39.2564 61.1472C39.2446 61.1235 39.215 61.0702 39.2032 61.0525V60.7033V60.6619C39.2683 60.508 39.2032 60.6146 39.1854 60.4785C39.1677 60.3483 39.2091 60.3423 39.144 60.2832C38.9724 60.1293 39.0434 60.2122 38.9073 59.9399L38.4635 59.2771C38.2149 59.0996 38.5818 59.2831 38.3333 59.1055C38.2859 58.999 38.3273 59.0819 38.2978 58.9872C38.209 58.715 38.1794 58.1705 38.2445 58.0167C38.3333 58.0758 38.3747 58.1232 38.4516 58.2001L38.5581 58.3303C38.5581 58.3362 38.5641 58.3481 38.57 58.354L38.5936 58.425C38.6292 58.5138 38.6706 58.638 38.7179 58.7209C38.7238 58.7268 38.7298 58.7386 38.7357 58.7505C38.7416 58.7564 38.7475 58.7682 38.7534 58.7741L38.8836 58.9872C38.8895 58.999 38.9014 59.0227 38.9073 59.0345L39.0434 59.3127C39.0434 59.3186 39.0552 59.3304 39.0552 59.3363L39.0789 59.3777C39.0789 59.3837 39.0848 59.3955 39.0907 59.4014L39.215 59.6322C39.363 59.8808 39.1973 59.7269 39.3452 59.8334ZM53.9502 58.0995C53.962 58.2356 53.962 58.2356 53.9679 58.3066C53.9798 58.4368 53.9443 58.354 54.033 58.4901V58.5315C54.0863 58.6558 54.039 58.5611 54.0685 58.6854L54.1691 59.1292C54.181 59.2061 54.2342 59.0641 54.1691 59.2239C54.3171 59.3304 54.1869 59.3127 54.2579 59.5612L54.3289 59.9103C54.3644 60.005 54.3703 59.8985 54.4414 60.1352C54.4946 60.3246 54.6011 60.8868 54.5597 61.0525L54.4769 61.3602C54.3171 61.5969 54.5124 61.52 54.3408 61.8514C54.3408 61.8573 54.3348 61.8691 54.3289 61.875C54.3289 61.881 54.323 61.8928 54.3171 61.8987L54.1514 62.739C54.1159 62.8337 54.1218 62.7686 53.9502 62.887L53.8969 62.6739C53.8555 62.3248 53.9443 62.4254 53.891 61.881C53.8614 61.5969 53.6839 61.1827 53.6425 61.0288C53.5951 60.8335 53.678 61.0051 53.5715 60.6856C53.5655 60.6737 53.5537 60.6264 53.5537 60.6205C53.4886 60.3364 53.4176 60.3305 53.459 60.0346L53.5123 59.863C53.6366 59.4843 53.5715 59.8748 53.6425 59.4369C53.7016 59.07 53.8141 59.3008 53.8082 58.4072L53.82 58.2534C53.82 58.2475 53.8259 58.2356 53.8259 58.2297C53.8496 58.1054 53.9029 58.283 53.8259 58.1114C53.9265 58.0522 53.8437 58.0522 53.9502 58.0995ZM33.6109 58.2297L33.6227 58.2415C33.6227 58.2415 33.605 58.2356 33.6109 58.2297ZM56.7315 59.792C56.7256 59.7979 56.7197 59.8038 56.7138 59.8216L56.6013 60.0879C56.6013 60.0938 56.5954 60.1056 56.5895 60.1115C56.5303 60.2417 56.6487 60.1293 56.5126 60.2299H56.4711C56.2049 60.0879 56.3646 60.1589 56.2759 59.5849L56.2344 59.4369C56.2285 59.4073 56.2226 59.36 56.2108 59.2712L56.1812 59.218C56.1753 59.2061 56.1516 59.141 56.1516 59.141C56.1398 59.0878 56.1516 59.07 56.1457 59.0049C56.1161 58.7564 56.1042 58.9813 56.1279 58.6735L56.2818 58.7031C56.2877 58.7031 56.2995 58.7031 56.3055 58.709C56.3114 58.709 56.3232 58.709 56.3291 58.715C56.5481 58.7445 57.1754 58.6972 57.1754 58.7801C57.1872 58.9753 57.0511 59.218 56.9682 59.3837C56.9682 59.3896 56.9564 59.4014 56.9564 59.4073C56.9564 59.4133 56.9505 59.4251 56.9446 59.431L56.9268 59.4724C56.9268 59.4784 56.9209 59.4902 56.915 59.4961L56.7315 59.792ZM50.6481 63.7924L50.6599 63.8042C50.6599 63.8042 50.6422 63.7924 50.6481 63.7924ZM33.0487 9H33.3091C33.4156 9.01184 33.5103 9.03551 33.6109 9.04142H33.6523C33.7589 9.08877 33.676 9.08877 33.7825 9.04142H33.8239C33.9305 9.08285 34.3802 9.09468 34.5755 9.10652C34.682 9.11244 34.6939 9.09468 34.83 9.12427C34.9246 9.14794 35.0963 9.17753 35.1732 9.21304H35.2146C35.3152 9.25446 35.4513 9.22487 35.6052 9.3018H35.6466C35.8064 9.3669 35.6644 9.29589 35.7709 9.33139L35.8774 9.37282C35.8833 9.3669 35.8952 9.38465 35.907 9.39057C35.9839 9.42608 36.049 9.43791 36.1259 9.47934H36.1674C36.2443 9.51484 36.3094 9.52668 36.3863 9.5681L36.4396 9.59769C36.4514 9.60361 36.481 9.61545 36.4928 9.62136C36.9781 9.79298 36.6763 9.72788 36.984 9.86399L37.0787 9.91725H37.1201C37.1911 9.95276 37.2326 9.95867 37.2977 10.0001C37.3509 10.0297 37.3628 10.0534 37.4219 10.0948L37.8125 10.2664C37.99 10.3492 37.9309 10.2782 38.0847 10.4262C38.1735 10.5149 38.1853 10.5445 38.2918 10.6096H38.3333C38.4398 10.5623 38.3569 10.5623 38.4635 10.6096H38.5049C38.5759 10.6451 38.6173 10.6511 38.6824 10.6925C38.7357 10.7221 38.7475 10.7457 38.8067 10.7872L38.9783 10.9588L39.0671 11.0475H39.1085C39.1854 11.083 39.2505 11.0949 39.3274 11.1363C39.3334 11.1422 39.3511 11.1481 39.357 11.1541L39.4103 11.1836C39.428 11.1955 39.4636 11.2132 39.4931 11.231L39.6293 11.3079L40.1914 11.8287L40.4163 11.953C40.5465 12.024 40.5169 12.018 40.6234 12.0891L40.7536 12.1778C41.014 12.3494 40.8246 12.3258 40.9667 12.4441C41.0554 12.5151 41.0318 12.456 41.156 12.5566C41.2211 12.6098 41.2389 12.6394 41.2744 12.6986L41.5999 12.9353C41.8307 13.1069 41.9076 13.2608 42.097 13.391L42.2094 13.4561C42.3337 13.5448 42.239 13.5981 42.5763 13.9117C42.7361 13.9887 42.6887 13.9236 42.8308 14.0538C42.8544 14.0774 42.9136 14.1366 42.9373 14.1662L43.1266 14.397C43.1266 14.4029 43.1385 14.4088 43.1385 14.4147C43.2509 14.5449 43.0675 14.4088 43.2272 14.5213L43.316 14.61C43.4344 14.7876 43.5172 14.8231 43.677 14.9532L43.8841 15.1545C43.8841 15.1604 43.8959 15.1663 43.8959 15.1722L44.0971 15.3734L44.109 15.3852C44.1149 15.3912 44.1327 15.4089 44.1386 15.4148L44.3102 15.5687C44.4522 15.6693 44.3339 15.5746 44.393 15.687C44.6002 16.0954 44.7954 15.8172 45.2689 16.5215C45.5174 16.699 45.1505 16.5155 45.3991 16.6931L45.5707 16.8647H45.6121C45.8192 17.0008 45.9494 17.0481 46.1802 17.2789L46.192 17.2908C46.1979 17.2967 46.2157 17.3144 46.2216 17.3203L46.263 17.3677C46.3222 17.4446 46.2808 17.4565 46.4406 17.563H46.482C46.5885 17.634 46.6063 17.6813 46.7246 17.7583C46.7897 17.7997 46.7838 17.7878 46.8607 17.8352C46.9081 17.8648 46.9081 17.8766 46.9613 17.9062L47.0442 17.9535C47.4466 18.208 47.3637 18.3796 47.5709 18.5157H47.6123C47.6892 18.5512 47.7543 18.5631 47.8312 18.6045L47.9614 18.6933L48.9615 19.4744H49.003L49.2633 19.646C49.2988 19.6579 49.358 19.6697 49.358 19.6697C49.3994 19.6874 49.3639 19.6697 49.4231 19.7052L49.9143 19.9952L50.0445 20.0839L50.4351 20.3443L50.5238 20.4331H50.5652C50.9381 20.6816 50.9321 20.6224 51.305 20.8651C51.3109 20.871 51.3286 20.8769 51.3345 20.8828L51.6541 21.0426L51.7429 21.1314L52.0861 21.3562C52.2104 21.4391 52.3761 21.4924 52.524 21.5634C52.5359 21.5693 52.5477 21.5752 52.5536 21.5811L52.7548 21.6758C52.7607 21.6758 52.7726 21.6817 52.7785 21.6876L53.0329 21.877C53.2046 22.0605 53.1986 21.9894 53.3939 22.09C53.4531 22.1729 53.4176 22.1374 53.5004 22.2025L53.6129 22.2676L53.7845 22.4392C53.9798 22.5694 54.0094 22.6641 54.1336 22.8061L54.1455 22.8179C54.2697 22.96 54.2402 23.0369 54.2993 23.1612C54.3467 23.2736 54.3703 23.2203 54.3763 23.3742C54.3822 24.0074 54.4295 23.9305 54.1573 24.3151C54.0804 24.4216 54.1396 24.4394 53.962 24.5577L53.8733 24.6465L53.6661 24.7885C53.4531 24.9838 53.5774 24.8655 53.3288 25.0134C53.3229 25.0193 53.3111 25.0252 53.2992 25.0312L53.0862 25.1732H53.0448C53.0034 25.1969 52.9146 25.2324 52.8672 25.2501C52.7666 25.2915 52.8613 25.262 52.743 25.2915C52.595 25.3271 52.5595 25.3152 52.4767 25.3507H52.4352C52.2814 25.4158 51.9618 25.404 51.8376 25.4277L51.6955 25.4336H51.6541C51.5831 25.4632 51.299 25.4928 51.1629 25.4987C51.0505 25.5046 50.9558 25.4691 50.8315 25.5223H50.7901C50.5712 25.6289 50.2694 25.5046 50.0504 25.6111H50.009C49.8669 25.6821 49.8906 25.6466 49.7013 25.6525C49.3166 25.6703 49.5829 25.765 48.8668 25.7295C48.2869 25.6999 48.3816 25.765 48.1212 25.7946C48.0502 25.8005 48.139 25.8241 48.0502 25.7886H48.0088C47.9141 25.8301 47.8076 25.8123 47.6833 25.8182C47.5413 25.8241 47.3874 25.8301 47.2513 25.8419L46.9377 25.8537C46.8311 25.8715 46.8962 25.9307 46.7542 25.8715H46.7128C46.6063 25.9188 46.6891 25.9188 46.5826 25.8715H46.5412C46.4347 25.9188 46.5175 25.9188 46.411 25.8715H46.3696C46.263 25.9188 46.3459 25.9188 46.2394 25.8715H46.1979C46.0441 25.9366 46.1269 25.7886 46.0263 25.9898C45.8961 26.2443 45.9908 26.1437 45.9316 26.2739C45.8902 26.3567 45.9316 26.2561 45.8902 26.339L45.6594 27.0136C45.5707 27.2917 45.3695 27.4989 45.2748 27.6705C45.2215 27.7652 45.2866 27.6586 45.2393 27.7829C45.1091 27.8776 45.2156 27.8303 45.1328 27.9427L44.9611 28.1676C44.9552 28.1735 44.9434 28.1912 44.9375 28.1972L44.9256 28.209L44.8901 28.2386C44.8191 28.2918 44.6771 28.3155 44.7599 28.5226C44.6416 28.5345 44.6653 28.5286 44.5883 28.5641L44.3694 28.8244L44.2806 28.9132L44.1918 29.002L44.0616 29.0907C44.0557 29.0967 44.038 29.1026 44.0321 29.1085L43.8368 29.215C43.7066 29.286 43.7362 29.2801 43.6296 29.3511C43.5882 29.4103 43.5764 29.4399 43.5113 29.4931L43.0201 29.7831L42.9314 29.8719H42.8899C42.8248 29.9133 42.813 29.937 42.7479 29.9725L42.3277 30.1382H42.2863C42.1502 30.2033 41.9963 30.1914 41.8602 30.2151C41.7123 30.2447 41.8957 30.298 41.7182 30.221H41.6768L41.1442 30.3275C40.4518 30.5228 40.3867 30.4814 39.6233 30.4163C39.5701 30.4104 39.6174 30.4222 39.5582 30.4104C39.434 30.3867 39.5168 30.3335 39.3748 30.3926H39.3334C39.2268 30.3453 39.3097 30.3453 39.2032 30.3926H39.1618C39.0552 30.3453 39.1381 30.3453 39.0316 30.3926H38.9901L38.9014 30.3512C38.9014 30.5702 38.9014 30.4222 38.8599 30.4814C38.931 30.653 38.8895 30.4814 38.854 30.6234C38.8304 30.7122 38.854 30.6471 38.8185 30.7418C38.712 30.8187 38.7534 30.8424 38.7534 31.0554C38.7534 32.0614 38.6765 31.8188 38.9073 31.9135H38.9487L39.3097 32.02C39.5523 32.0851 39.6115 32.1502 39.7772 32.2626L39.866 32.3514L39.9192 32.381C39.937 32.3869 39.9547 32.3988 39.9725 32.4047C40.0731 32.4402 39.9725 32.3988 40.0731 32.4283L40.2565 32.523C40.4814 32.671 40.4637 32.7242 40.5583 32.9018C40.5583 32.9077 40.5643 32.9195 40.5702 32.9254L40.5879 32.9669C40.7595 33.3042 40.5879 33.1266 40.7063 33.2923L41.0258 33.5764C41.3572 33.7953 41.3276 33.8664 41.517 33.9965C41.588 34.0971 41.6294 34.1563 41.7123 34.2806L41.8721 34.5706C41.9253 34.683 41.8425 34.5291 41.9017 34.6357C41.9963 34.8073 42.0614 34.7481 42.1561 34.9611L42.1857 35.0262C42.1857 35.0262 42.2153 35.0795 42.2212 35.0913C42.3514 35.334 42.3041 35.1623 42.4283 35.328C42.4343 35.334 42.452 35.3576 42.4579 35.3695C42.4994 35.4227 42.5408 35.476 42.5585 35.5056L42.8189 35.8192C42.9905 36.1447 42.9314 35.979 43.0793 36.2039C43.0852 36.2098 43.0911 36.2216 43.0911 36.2275L43.1503 36.3104C43.3397 36.553 43.2036 36.5234 43.3811 36.695C43.5231 36.8016 43.4107 36.6891 43.4699 36.8785L43.5586 37.1034C43.5586 37.1093 43.5705 37.1211 43.5705 37.127C43.5705 37.1329 43.5823 37.1448 43.5823 37.1507C43.677 37.3342 43.6888 37.4229 43.8249 37.559C44.0321 37.7721 43.8959 37.6951 44.0025 37.9082L44.0735 38.0916C44.1622 38.1567 44.1563 38.21 44.1741 38.2573C44.2037 38.3402 44.2333 38.4585 44.2392 38.4704C44.2924 38.5828 44.3161 38.5355 44.3694 38.6597L44.4818 38.9438C44.6179 39.2337 44.9079 39.3639 45.0736 39.4764L45.2925 39.648C45.4227 39.7368 45.3991 39.7486 45.4464 39.8078C45.476 39.8492 45.3872 39.7782 45.5115 39.8729C45.5174 39.8788 45.5292 39.8847 45.5352 39.8906L45.9494 40.1688L46.2098 40.4291C46.2157 40.4351 46.2275 40.441 46.2335 40.4469C46.2394 40.4528 46.2512 40.4587 46.2571 40.4646L46.9495 41.0387C47.0442 41.1038 47.0146 41.0682 47.0797 41.1629C47.1448 41.2517 47.0383 41.2044 47.1685 41.2635C47.2809 41.3168 47.2927 41.2458 47.4348 41.299H47.4762C47.5531 41.3345 47.6182 41.3464 47.6951 41.3878H47.7366C47.8431 41.4352 47.849 41.4056 47.9437 41.4056C48.068 41.4056 48.0029 41.3878 48.1271 41.4707H48.1686L48.2573 41.5594C48.3343 41.6127 48.3993 41.66 48.4585 41.7429C48.494 41.7961 48.4822 41.7843 48.5 41.8316L48.5295 41.9145C48.6124 42.2104 48.5355 42.163 48.3875 42.382C48.2987 42.4471 48.1567 42.7903 47.8786 42.9205L47.7366 42.9915L47.6478 43.0803C47.6419 43.0862 47.63 43.0921 47.6241 43.098L47.5472 43.1631C47.5413 43.169 47.5354 43.175 47.5294 43.1809C47.417 43.2815 47.2631 43.3111 47.1093 43.3584C47.0087 43.388 47.1448 43.3525 47.0383 43.3762C46.4228 43.5241 46.7187 43.5478 46.5116 43.6957L46.34 43.9028C46.3341 43.9088 46.3281 43.9206 46.3281 43.9265L46.1447 44.1159C46.1447 44.11 46.1269 44.1277 46.121 44.1336C45.9967 44.2165 46.05 44.181 45.9612 44.2106C45.8488 44.252 45.9435 44.2342 45.7778 44.2638C45.6062 44.2993 45.6003 44.252 45.4701 44.3053H45.4286C45.257 44.2342 45.4346 44.2757 45.2866 44.3112C44.6416 44.471 44.8842 44.2757 44.5469 44.2816C44.4463 44.2816 44.4049 44.2875 44.251 44.2165H44.2096C43.6178 44.1691 43.7539 43.9443 43.6888 43.7845L43.3752 43.9679C43.3101 43.9975 42.6 44.0804 42.3396 43.9561H42.2982C42.0614 43.7963 42.1325 43.749 42.02 43.53L41.8839 42.9442C41.8721 42.2636 41.8129 42.7193 41.6531 42.3406C41.5762 42.1571 41.6886 42.2459 41.5584 41.9855C41.5525 41.9796 41.5407 41.95 41.5348 41.9441C41.3099 41.5062 41.6058 41.589 41.3868 41.4352C41.3454 41.376 41.3395 41.3523 41.304 41.299C41.2448 41.1984 41.2093 41.0623 41.1264 41.0032L41.085 40.9144V40.873L41.0436 40.8315V40.873V40.9144L41.0022 40.9972L41.085 41.0446C41.1028 41.2221 41.0969 41.1925 41.1383 41.3168L41.2803 41.8376C41.2981 42.021 41.2685 41.8731 41.3395 42.0506C41.4105 42.234 41.3572 42.5181 41.3691 42.7252C41.3868 43.1335 41.6235 43.1868 41.5525 43.9147L41.6117 45.0391C41.6413 45.406 41.6413 45.6723 41.7951 46.051L41.8129 46.0983C41.9313 46.3883 41.8662 46.2818 41.8957 46.4238C41.9076 46.4712 41.8957 46.4475 41.9313 46.5067C41.9904 46.6191 41.9135 46.4475 41.9668 46.5718L42.0555 46.8321C42.1798 47.2523 42.0674 46.9564 42.2804 47.3766C42.2863 47.3884 42.2982 47.4121 42.3159 47.4417C42.3159 47.4476 42.3218 47.4594 42.3277 47.4653L42.4224 47.6606C42.4224 47.6665 42.4283 47.6784 42.4343 47.6843L42.6828 48.205C42.7183 48.4299 42.813 48.4003 42.8367 48.6489V48.6903C42.8603 48.9684 42.9077 48.9389 42.8781 49.2052C42.8603 49.3649 42.9254 49.4537 42.9373 49.6371C42.9491 49.7969 42.9373 49.7851 42.9195 49.9508V49.9922C42.884 50.3946 42.8722 50.1046 42.9314 50.4715L42.9846 50.9568C42.9846 51.0692 42.9787 51.087 42.9669 51.2172C42.9491 51.4125 42.955 51.3829 43.032 51.5249C43.1207 51.6847 43.1148 51.7557 43.1148 51.9155C43.1148 52.0338 43.0911 52.312 43.1385 52.4244V52.4658C43.2272 52.6552 43.1562 52.6611 43.2805 53.0754C43.3101 53.1878 43.2627 53.0872 43.3278 53.1937C43.3752 53.2766 43.4284 53.3002 43.458 53.4245L43.6119 54.105C43.6652 54.2175 43.6119 54.2116 43.7894 54.3358L44.1386 54.685L44.2273 54.7737L44.5291 55.3833C44.5646 55.4661 44.541 55.4188 44.5765 55.4661C44.6416 55.6259 44.5587 55.5371 44.6416 55.7502L44.7836 56.2295C44.8191 56.3419 44.825 56.3301 44.8428 56.3893C44.8842 56.5313 44.7954 56.4544 44.9197 56.6378V56.6793C45.0026 56.8805 44.9197 56.6497 44.9434 56.8213C44.9789 57.0935 45.1328 57.419 45.3044 57.6024C45.4346 57.7444 45.3399 57.6971 45.4464 57.851V57.8924C45.3991 57.9989 45.3991 57.9161 45.4464 58.0226V58.064L45.547 58.2652C45.6121 58.3362 45.5647 58.2889 45.618 58.3244C45.6713 58.1942 45.618 58.2238 45.6535 58.0285L45.6653 57.922C45.618 57.5196 45.6417 57.3539 45.6417 56.9219C45.6417 56.4958 45.7186 56.626 45.6653 56.4958V56.4544C45.766 56.3005 45.7304 56.413 45.831 56.2058L45.9257 56.0106C45.9257 56.0046 45.9316 55.9928 45.9376 55.9869C45.9612 55.9277 45.9908 55.8153 45.9967 55.7975C46.0737 55.5904 46.1329 55.7561 46.1684 55.4957C46.1861 55.3537 46.1624 55.4898 46.2216 55.3241C46.2808 55.1584 46.263 53.8506 46.2512 53.7796L46.1861 52.6256C46.2039 52.4895 46.2335 52.5723 46.1979 52.3889C46.192 52.3711 46.1861 52.3534 46.1861 52.3238L46.1743 52.1285C46.1269 51.8445 46.121 51.9155 46.1565 51.732C46.1565 51.732 46.1624 51.6728 46.1624 51.6669C46.1802 51.4716 46.1565 51.4657 46.0973 51.371V51.3296C46.1565 51.1935 46.1033 51.0752 46.1269 50.945L46.192 50.6491C46.1506 50.0928 46.2453 50.726 46.2512 50.1934L46.2867 49.7851C46.2867 49.7792 46.2985 49.7673 46.2985 49.7555C46.2985 49.7377 46.3045 49.7318 46.3104 49.7259C46.3281 49.501 46.3341 49.5247 46.3341 49.3649C46.3281 48.6075 46.4169 49.1637 46.4879 48.7199C46.5234 48.5128 46.4938 48.4713 46.5057 48.3648C46.5234 48.1991 46.5057 48.3826 46.5826 48.1932C46.5826 48.1873 46.5885 48.1755 46.5885 48.1695C46.5885 48.1577 46.5944 48.134 46.5944 48.1281L46.6063 48.0394C46.7542 47.5423 46.6299 47.9447 46.6832 47.6488C46.6891 47.6251 46.695 47.6074 46.7069 47.5778C46.8548 47.1754 46.7246 47.3884 46.8016 47.0748L46.9436 46.4238C46.9613 46.3469 46.9377 46.3705 46.9613 46.2936C47.1625 45.6427 46.8903 45.9386 47.1389 45.6723C47.346 45.4533 47.0619 45.4119 47.2986 45.0036L47.4348 44.755C47.4999 44.6307 47.5235 44.4946 47.6241 44.4177C47.6892 44.323 47.7011 44.2579 47.7721 44.1691C47.849 44.0685 47.8786 44.0981 47.9082 43.9679C47.9733 43.6543 47.849 44.033 48.1153 43.7312L48.3106 43.4472C48.6834 43.0389 48.5295 43.3762 48.9319 43.1099L48.9852 43.0744C49.1805 42.9619 49.1154 43.0389 49.2752 42.9323H49.3166C49.3758 42.9028 49.435 42.885 49.5 42.8554C49.5415 42.8377 49.6302 42.7903 49.6717 42.7666L50.0149 42.5832C50.0741 42.5418 50.0977 42.524 50.1628 42.4708L50.2694 42.3583C50.3936 42.2518 50.3759 42.3346 50.4173 42.2636L50.4291 42.2281C50.4469 42.1334 50.3818 42.1394 50.4587 41.9855L50.6185 41.8021L50.867 41.4884C50.9736 41.376 51.0623 41.2754 51.1866 41.1925L51.3523 41.0978C51.4174 41.0623 51.4707 41.0505 51.5358 41.0209L51.6008 40.9972C51.6068 40.9972 51.6245 40.9913 51.6304 40.9854L51.7547 40.9617C51.8612 40.944 52.1216 40.8434 52.3169 40.9381H52.3583C52.5299 41.0091 52.6483 40.8907 52.9205 41.0268H52.9619C53.0152 41.0505 53.0448 41.0623 53.1158 41.0919C53.2223 41.1393 53.1454 41.1156 53.2341 41.1452C53.3998 41.2103 53.3111 41.1393 53.4413 41.1984C53.4768 41.2221 53.4649 41.2162 53.5241 41.2399L53.962 41.3701H54.0035C54.0804 41.4056 54.1455 41.4174 54.2224 41.4588H54.2638C54.4236 41.5239 54.2816 41.4529 54.3881 41.4884L54.5242 41.5476L54.7313 41.6068C55.1101 41.7429 55.0568 41.6719 55.1752 41.7192H55.2166H55.258H55.2994H55.3409C55.3527 41.7251 55.3645 41.731 55.3704 41.731L55.6012 41.808H55.6427L56.8144 42.24H56.8558H56.8972C56.9091 42.2459 56.9209 42.2518 56.9268 42.2518L57.1576 42.3287H57.199C57.347 42.3938 57.2345 42.2932 57.418 42.4175H57.4594C57.5127 42.453 57.5127 42.4589 57.56 42.4944L57.779 42.6246C57.8441 42.672 57.7731 42.6305 57.8559 42.6838H57.8973C57.9092 42.6897 57.9861 42.7193 57.992 42.7193C58.0867 42.7666 58.0275 42.7371 58.0749 42.7666L58.2938 42.9383C58.2997 42.9442 58.3175 42.9501 58.3234 42.956L58.5246 43.104C58.5779 43.1513 58.5779 43.1631 58.637 43.2046L59.2525 43.5478H59.2939C59.3708 43.5833 59.4359 43.5951 59.5129 43.6366H59.5543C59.6786 43.6957 59.8206 43.749 59.9449 43.8082H59.9863L60.1165 43.8969H60.1579C60.2348 43.9324 60.2999 43.9443 60.3769 43.9857L60.4656 44.0745H60.507C60.5662 44.1041 60.6254 44.1218 60.6905 44.1514C60.7438 44.1751 60.7556 44.1869 60.8325 44.2224L61.0692 44.3289H61.1107C61.1698 44.3703 61.1817 44.3881 61.2349 44.4177C61.3059 44.4591 61.3059 44.4532 61.371 44.4946C61.4657 44.5597 61.4835 44.6071 61.5841 44.6722L61.9332 44.8438L62.1048 45.0154L63.0221 45.619C63.0753 45.6545 63.0872 45.6723 63.1464 45.7078C63.1523 45.7137 63.17 45.7196 63.176 45.7255L63.2588 45.7788C63.2647 45.7847 63.2766 45.7906 63.2825 45.7965C63.4718 45.9326 63.3535 45.8971 63.6198 45.9326C63.679 45.9386 63.7441 45.9504 63.7677 45.9563L64.105 46.0628H64.1465C64.3358 46.193 64.105 46.1043 64.5785 46.1043C64.5311 45.9918 64.537 45.7433 64.5844 45.6308C64.5903 45.6249 64.5903 45.6131 64.5962 45.6012L64.6909 45.477C64.8152 45.3764 64.8566 45.548 64.9039 45.0272L64.9276 44.7432C64.9335 44.6899 64.898 44.6189 64.969 44.4473V44.4059C65.04 44.2402 64.9513 44.3348 65.0223 44.1336C65.0578 44.0271 65.0105 44.1751 65.046 44.0685C65.0519 44.0567 65.0637 44.0094 65.0696 44.0035C65.1288 43.7786 65.0045 43.8378 65.1347 43.4886L65.2294 43.1986C65.2412 43.1572 65.2472 43.1276 65.2531 43.1158L65.4129 42.8081C65.7265 42.4648 65.6022 42.4767 65.8389 42.3169L65.9277 42.2281L66.0993 42.0565H66.1407C66.2177 42.0269 66.4603 41.9796 66.6201 42.0565C66.626 42.0624 66.6438 42.0684 66.6497 42.0743L66.9692 42.234C66.987 42.0033 66.9988 42.0624 67.0462 41.9204C67.1053 41.7606 67.058 41.7784 67.0817 41.7014C67.0817 41.6955 67.0876 41.6837 67.0876 41.6778L67.3361 41.0268C67.3361 41.0209 67.342 41.0091 67.342 41.0032C67.342 40.9972 67.348 40.9854 67.348 40.9795L67.4367 40.8079C67.4367 40.802 67.4426 40.7901 67.4486 40.7842L67.5255 40.5948C67.5847 40.3463 67.5551 40.4291 67.2178 40.4173C67.1645 40.4173 67.1527 40.4114 67.0521 40.3995C67.2592 40.9026 66.7148 40.9381 66.6615 40.9617H66.6201H66.5964H66.555C66.4485 41.0091 66.5313 41.0091 66.4248 40.9617H66.3834C66.2295 41.0268 65.8389 41.0032 65.7324 41.0505H65.691C65.3182 40.8966 65.6081 41.0623 65.5016 40.8907C65.4957 40.8789 65.472 40.8552 65.4661 40.8434C65.4602 40.8315 65.3951 40.7546 65.3951 40.7546C65.2235 40.5001 65.1821 40.0031 65.1821 40.0031L65.1347 39.9439C65.0282 39.8374 65.1406 39.9143 64.9217 39.8492C64.756 39.7959 64.7027 39.7308 64.608 39.6657H64.5666L64.4364 39.577H64.395C64.3832 39.5711 64.3062 39.5415 64.3003 39.5356C64.2056 39.4882 64.2648 39.5178 64.2175 39.4882C64.1228 39.4172 64.1465 39.3994 64.1524 39.3048C64.1583 39.0148 64.105 38.8313 64.2175 38.7485C64.3122 38.6124 64.3713 38.6183 64.4364 38.5769C65.0164 38.5295 65.4602 38.6538 65.6022 38.3106L65.691 38.1094C65.691 38.1035 65.7028 38.0916 65.7028 38.0916L65.7383 38.0324C65.7383 38.0265 65.7502 38.0147 65.7502 38.0147L65.8744 37.7484C65.9632 37.5649 65.9869 37.5354 66.2295 37.4466C66.6023 37.3105 66.2828 37.127 66.4781 36.7187V36.6773C66.4899 36.5057 66.5076 36.3814 66.5846 36.2571L66.6082 36.2216C66.6082 36.2157 66.6201 36.2098 66.6201 36.2039C66.7148 36.0855 66.6142 35.9553 66.8213 35.8074C66.839 35.766 66.8982 35.6417 66.91 35.6062L66.9278 35.5588C66.9278 35.5529 66.9337 35.5411 66.9337 35.5352C66.9337 35.5233 66.9337 35.5174 66.9574 35.4582C67.0343 35.2215 67.0166 35.3695 67.0166 35.0972C67.0166 34.5765 67.0462 34.7659 67.0994 34.6297C67.1468 34.5114 67.1113 34.2451 67.2119 34.0439L67.4663 33.5468C67.5788 33.316 67.5137 33.3693 67.6143 33.2983C67.6557 33.2391 67.6616 33.2154 67.6971 33.1621L67.7977 32.9846C67.7977 32.9787 67.8036 32.9669 67.8095 32.9609L67.8273 32.9195C67.9693 32.6355 67.8332 32.7834 67.9575 32.6C68.0995 32.3928 67.9812 32.4934 68.1232 32.2922L68.2475 31.9845C68.2652 31.9313 68.2948 31.7892 68.3244 31.6886C68.3717 31.5111 68.3244 31.6531 68.4427 31.4756C68.6913 31.2981 68.3244 31.4815 68.5729 31.304C68.6144 31.2093 68.6617 31.0318 68.7564 30.9252C69.1174 30.5287 68.9517 30.5879 69.0641 30.3571C69.147 30.1855 69.2831 30.1914 69.579 29.8068L69.7032 29.6766C69.7032 29.6707 69.7151 29.6648 69.7151 29.6588C69.8334 29.4991 69.8157 29.4931 69.8157 29.3807C69.8097 29.1973 69.8097 29.2328 69.8748 29.1499C70.295 28.6114 69.8808 28.8126 70.1826 28.6114L70.3128 28.5226L70.4844 28.351L70.656 28.1794C70.7329 28.067 70.7684 28.067 70.8276 27.919C70.9815 27.5403 71.017 27.5876 70.6915 27.3213C70.4489 27.126 70.366 26.9781 70.2181 26.8065L70.2062 26.7947C70.2003 26.7887 70.1826 26.771 70.1766 26.7651L70.1648 26.7532L70.005 26.5698L69.6559 26.049L69.4783 25.5815C69.431 25.4454 69.4902 25.4987 69.4192 25.3626C69.2771 25.0785 69.4606 25.3448 69.3127 25.0489C69.2298 24.8832 69.3304 24.9128 69.2594 24.7412V24.6998C69.147 24.5282 69.2121 24.5933 69.1825 24.4157L69.1174 23.7293C69.1529 23.4097 69.1647 23.386 69.2594 23.1612L69.6914 22.3504L69.7683 22.2084C69.8985 22.0013 69.6736 21.806 69.8689 21.4273C69.8689 21.4213 69.8748 21.4095 69.8808 21.4036L69.9577 21.2556C69.9754 21.2024 69.9695 21.1432 70.0287 21.0426C70.076 20.9716 70.1115 20.9538 70.1648 20.871C70.3187 20.7586 70.1293 20.7763 70.3423 20.6224C70.4311 20.5574 70.4844 20.5988 70.6382 20.5218C70.8335 20.2319 70.7566 20.2792 70.9164 20.1905C71.0939 20.0958 71.1708 20.1076 71.3306 20.0011C71.6028 19.8117 71.3128 20.078 71.4253 19.936C71.4608 19.8946 71.449 19.9005 71.4371 19.865C71.4135 19.8117 71.4253 19.8531 71.3839 19.8058C71.3779 19.7999 71.372 19.794 71.3661 19.788C71.2004 19.6046 71.2892 19.5809 71.2892 19.3028C71.0466 19.3028 71.011 19.2614 70.9282 19.2554C70.8572 19.2495 70.9459 19.2259 70.8572 19.2614L70.6678 19.2022C70.5435 19.1785 70.6382 19.2259 70.514 19.1726H70.4725H70.4311H70.3897C70.2713 19.1253 70.2477 19.1844 70.0997 19.0779C70.0583 19.0483 69.9163 18.9063 69.8748 18.859C69.7269 18.6992 69.8393 18.7643 69.792 18.6223L69.6973 18.3915V18.35C69.6973 18.1429 69.6973 18.2672 69.6559 18.2198C69.7032 18.1133 69.7032 18.1962 69.6559 18.0897V18.0482C69.6559 18.0423 69.6973 17.9772 69.6973 17.9713L69.7387 17.8825C69.7446 17.8707 69.7565 17.847 69.7624 17.8411C69.9222 17.5393 69.6677 17.6577 69.9281 17.4032C70.005 17.3263 70.0524 17.2789 70.1411 17.2197C70.2417 17.0777 70.1944 17.1665 70.3601 17.0955C70.514 17.0304 70.4489 17.0422 70.5731 16.9594H70.6146C70.6915 16.9239 70.7566 16.912 70.8335 16.8706H70.8749C71.0347 16.7937 71.0939 16.8647 71.23 16.7937C71.3424 16.7345 71.3424 16.6339 71.3957 16.5215C71.6442 16.3439 71.2773 16.5274 71.5259 16.3498C71.5791 16.267 71.6028 16.2552 71.6561 16.1723C71.6916 16.1131 71.7153 16.0599 71.7448 16.0007C71.9579 15.8587 72.3189 15.8468 72.5733 15.8291L72.8337 15.7817C72.9343 15.7817 73.0408 15.7877 73.1414 15.7877C73.39 15.7877 73.8989 15.7581 74.106 15.8232L74.6682 15.8764C74.6682 15.8823 74.6741 15.8942 74.6741 15.8942L74.7096 16.1782C74.8753 16.2966 74.8043 16.5925 74.8457 16.8114C74.8753 16.9534 74.8872 16.9653 75.0114 17.0481H75.0529C75.1594 17.0008 75.0765 17.0008 75.1831 17.0481H75.2245H75.2659H75.3073H75.3488H75.3902C75.55 17.1132 75.8103 17.1073 76.0115 17.0955C76.1891 17.0836 76.2719 17.1014 76.4139 17.1547C76.6684 17.2553 76.4909 17.1724 76.5619 17.3499V17.3914C76.5974 17.4801 76.5915 17.563 76.5856 17.6399C76.5796 17.7701 76.5796 17.7701 76.4317 17.8707H76.3903C76.2187 17.9535 76.1654 17.8885 75.9583 17.924L75.6861 18.0009C75.3843 18.066 75.4967 17.9772 75.2067 18.0541C75.2008 18.0541 75.189 18.0601 75.1831 18.0601L75.0765 18.0837C74.899 18.1488 74.8635 18.2376 74.8635 18.4921V18.6459C74.8694 18.7643 74.8931 18.7229 74.8221 18.8294C75.2008 18.8294 75.1535 18.8649 75.2126 18.9596C75.4434 19.072 75.4612 18.9892 75.6032 19.0483H75.6446C75.7689 19.1016 75.7985 19.0542 75.9169 19.072L76.2187 19.1785C76.2246 19.1785 76.2364 19.1844 76.2423 19.1844C76.2482 19.1844 76.2601 19.1904 76.266 19.1904C76.2719 19.1904 76.2838 19.1963 76.2897 19.1963C76.3429 19.214 76.3133 19.2022 76.3607 19.2199C76.5086 19.2791 76.7276 19.4507 76.8696 19.4389C76.9584 19.433 77.3785 18.9181 77.562 19.3738C77.562 19.3797 77.5679 19.3916 77.5738 19.4034L77.6152 19.4862C77.6922 19.6697 77.7218 19.9833 77.8756 20.0958H77.917L78.0354 20.2319C78.2899 20.5514 77.9407 20.3384 78.4852 20.7053C78.497 20.7112 78.5088 20.7171 78.5147 20.7231C78.5207 20.729 78.5325 20.7349 78.5443 20.7408C78.5562 20.7467 78.5858 20.7645 78.5976 20.7704C78.6449 20.7941 78.6213 20.7822 78.6745 20.8C78.8047 20.8532 78.6686 20.7467 78.8284 20.8828C79.0059 21.0367 78.9645 21.0308 79.0533 21.2201C79.3018 21.3977 78.9349 21.2142 79.1834 21.3918L79.3551 21.5634L79.6746 22.2913C79.716 22.4274 79.651 22.2676 79.7042 22.3859V22.4274C79.6569 22.5339 79.6569 22.451 79.7042 22.5576V22.599C79.716 22.7114 79.7101 22.6522 79.7338 22.6996C79.7871 22.8002 79.8699 22.812 79.9232 22.8594L80.0948 23.0842C80.2191 23.2795 80.2486 23.386 80.2427 23.5872C80.2368 24.0547 80.3137 23.8062 80.3315 24.108C80.3374 24.2145 80.3256 24.2323 80.2782 24.398C80.1954 24.682 80.2901 24.5577 80.1717 24.6406L80.0415 24.8122C79.9468 24.8832 80.0179 24.824 79.9409 24.9779C79.8285 25.2028 79.4024 25.4928 79.1716 25.5874C78.9408 25.688 79.0769 25.5578 78.858 25.7176C78.7041 25.8301 78.8521 25.836 78.6923 25.7709H78.6509C78.5443 25.8182 78.6272 25.8182 78.5207 25.7709H78.4792L78.349 25.6821L78.2603 25.5934C78.2248 25.5697 78.2425 25.5756 78.1774 25.546C78.0413 25.4928 77.9526 25.5046 77.8283 25.5934L77.7691 25.7591C77.6685 25.9484 77.7573 25.8419 77.6863 26.0253C77.5738 26.3212 77.6626 26.2206 77.6034 26.4514L77.6093 26.9426C77.633 27.2148 77.6389 27.7415 77.7218 27.996L77.7395 28.0374C77.8401 28.2386 77.7987 28.0966 77.7987 28.4279C77.7987 28.5108 77.775 28.5226 77.8697 28.5877C78.1656 28.7949 77.7809 28.7889 78.1301 29.0197L78.3017 29.1913L78.4141 29.3807C78.4141 29.3866 78.4201 29.3985 78.4201 29.4044L78.6449 29.8719C78.6982 29.9488 78.6745 29.9666 78.8225 30.0672C78.858 30.0908 78.8402 30.0849 78.9053 30.1086C78.9171 30.1145 78.9467 30.1204 78.9586 30.1263C79.0651 30.1559 78.9231 30.0849 79.0828 30.1559H79.1243C79.2485 30.2388 79.2426 30.2329 79.29 30.3631L79.3077 30.4104C79.3669 30.582 79.3314 30.6944 79.6865 30.9371C79.6983 30.943 79.7101 30.9489 79.716 30.9548L79.9054 31.1146L79.9942 31.2034C80.1421 31.3099 80.006 31.2152 80.0593 31.2803L80.2131 31.4697C80.2901 31.5821 80.2723 31.5348 80.3137 31.6886C80.4084 32.0437 80.438 31.8839 80.6096 32.2153C80.7339 32.4579 80.7043 32.5585 80.7694 32.7183C80.7694 32.7242 80.7753 32.7361 80.7812 32.742C80.8818 32.9432 80.8759 33.3811 80.8227 33.5882L80.7517 33.9196C80.5386 34.8073 80.7635 34.5528 80.7576 34.8487C80.7576 35.0854 80.8227 35.0085 80.8404 35.2156C80.8523 35.3813 80.799 35.2334 80.8937 35.3931C81.0771 35.7068 80.9529 35.6298 81.0771 36.0382C81.2132 36.4998 80.9469 36.4051 81.083 36.6595L81.1718 36.7542C81.4026 36.9673 81.1777 36.8548 81.3316 37.0442C81.4381 37.1744 81.5505 37.2336 81.6512 37.3815C81.7873 37.4821 81.6867 37.3815 81.7281 37.4999L81.8464 37.8786C81.9234 38.0798 81.953 38.3165 81.953 38.5414V38.5532L81.6512 38.7248C81.5683 38.8432 81.5742 38.8077 81.5505 39.003C81.515 39.2574 81.5979 39.2574 81.5032 39.435L81.4381 39.5947C81.2961 39.6953 81.4144 39.6007 81.3553 39.7131C81.302 39.8078 81.3316 39.7368 81.2961 39.8196C81.2843 39.8492 81.2724 39.9794 81.2606 40.1155V40.1569C81.2251 40.6126 81.1896 40.1983 81.1955 41.0564C81.1955 41.1452 81.2014 41.1984 81.1896 41.2813L81.1363 41.4943C81.1363 41.5002 81.1304 41.5121 81.1304 41.518C81.1126 41.5949 81.1245 41.5121 81.1186 41.589V41.7902C81.1186 42.0683 81.1186 42.0151 81.0594 42.1275C80.9469 42.3406 81.1008 42.3287 80.9884 42.5418C80.8759 42.7489 80.8582 43.2401 80.8167 43.3466C80.7812 43.4531 80.8286 43.3052 80.7931 43.4117C80.7931 43.4176 80.7872 43.4294 80.7872 43.4353C80.728 43.6247 80.8049 43.6247 80.7398 43.7727L80.8167 44.1277C80.8759 44.2993 80.8108 44.3999 80.9114 44.6426V44.684L80.9292 45.3113C80.9292 45.406 80.9233 45.3764 80.9114 45.5066V45.548C80.8463 45.6841 80.8463 45.7551 80.8286 45.8616C80.7931 46.0687 80.7812 46.0332 80.7161 46.1279L80.6511 46.2226C80.6511 46.2285 80.6392 46.2344 80.6392 46.2404L80.4794 46.4001C80.3788 46.4771 80.2191 46.5185 80.0948 46.5185C80.0829 46.5185 80.0711 46.5185 80.0652 46.5185C79.8107 46.5185 79.8758 46.4948 79.7811 46.696C79.7811 46.7019 79.7693 46.7138 79.7693 46.7197C79.7575 46.7374 79.7516 46.7374 79.7338 46.7848L79.3255 47.7849C79.1539 48.1163 79.2485 47.9447 79.1953 48.134L79.1124 48.3707C79.1065 48.3944 79.1065 48.4063 79.0888 48.4358C79.0533 48.5187 79.0888 48.4181 79.0533 48.5009C79.0414 48.5246 79.0296 48.5542 79.0296 48.5719C79.0237 48.5838 79.0178 48.6134 79.0178 48.6252L78.8343 49.1696C78.6864 49.3827 78.8402 49.649 78.7219 50.004C78.6864 50.1106 78.2662 50.513 78.1538 50.6195L78.1064 50.6609C77.7454 50.9923 77.9289 50.7142 77.7869 50.9095L77.4081 51.1402C77.4022 51.1462 77.3845 51.1639 77.3785 51.158C77.3726 51.1521 77.3608 51.1698 77.3489 51.1758L77.2602 51.2645C77.1833 51.3 77.1182 51.3119 77.0412 51.3533H76.9998L76.7808 51.5249L76.5205 51.6965H76.479H76.4199L76.0411 51.8622C75.7275 51.9687 75.6091 51.9806 75.3783 52.1285H75.3369C75.2659 52.164 75.2245 52.1699 75.1594 52.2114C75.1061 52.241 75.0943 52.2646 75.0351 52.306H74.9937C74.9227 52.3415 74.8812 52.3416 74.8162 52.3889C74.5499 52.5605 74.5321 52.6256 74.1474 52.7025C73.9699 52.738 74.0764 52.7144 73.9048 52.8268H73.8634C73.7391 52.886 73.6859 52.8505 73.5616 52.9156H73.5202H73.461C73.4196 52.9452 73.461 52.9215 73.3781 52.9629C73.3604 52.9688 73.313 52.9866 73.2835 52.9984H73.242H73.2006C73.1592 53.028 73.2006 53.0043 73.1178 53.0458C73.1 53.0517 73.0527 53.0694 73.0231 53.0872H72.9876C72.7331 53.2055 72.6266 53.1464 72.4135 53.0813L72.1591 52.9688H72.1177C72.0881 52.9511 71.9224 52.8801 71.8928 52.8682L70.9459 52.6729C70.9282 52.667 70.8986 52.6611 70.8631 52.6552L70.508 52.6197C70.4666 52.5901 70.508 52.6138 70.4252 52.5723C70.4074 52.5664 70.3601 52.5487 70.3305 52.5309H70.2891H70.2477H70.2062C70.0938 52.4836 69.8808 52.5191 69.7269 52.4422H69.6855H69.644H69.6026C69.4902 52.3948 69.2771 52.4303 69.1233 52.3534H69.0819C68.9753 52.4303 69.0168 52.4777 69.0168 52.7321C69.0168 53.3061 69.0404 52.9748 69.3955 53.4245C69.4902 53.5488 69.4014 53.4955 69.502 53.6198L69.7742 53.8683C69.8334 53.9571 69.9991 54.1405 70.076 54.2175L70.2062 54.3062H70.2477C70.3305 54.3477 70.4489 54.4187 70.4903 54.4956C70.4962 54.5134 70.4903 54.5193 70.508 54.5666C70.6737 54.6376 70.6678 54.5134 70.6619 54.7501C70.6619 54.8448 70.6796 54.9394 70.6382 55.046C70.4193 55.1939 70.4725 55.3774 69.8216 55.2412L69.289 55.046H69.2476C69.1647 55.0105 69.0286 54.9868 68.9517 55.0815C68.9458 55.0874 68.9398 55.0992 68.9398 55.1051L68.9043 55.2235V55.2649C68.7682 55.472 68.8807 55.3833 68.8274 55.6022L68.7386 55.7975C68.5789 56.0165 68.7386 55.8804 68.6203 56.1112C68.5729 56.2058 68.5966 56.1289 68.5789 56.2118C68.5433 56.3834 68.212 56.7384 68.1232 56.8745C68.1173 56.8805 68.1114 56.8982 68.1054 56.9041L68.0758 56.9574C67.6853 57.5788 67.5077 57.2355 67.342 57.4841C67.1586 57.5728 66.7444 57.5373 66.4958 57.5137C66.3242 57.5018 66.3656 57.5314 66.2709 57.4663L65.9987 57.3065C65.9395 57.1645 66.0401 57.0994 65.91 57.0343C65.904 57.0343 65.5608 56.9633 65.478 56.9574L65.3951 56.91C65.3892 56.91 65.3359 56.8805 65.3063 56.8627C65.1051 56.7503 65.3478 56.8509 64.9986 56.6082C64.8743 56.5491 64.7323 56.4958 64.608 56.4366L64.5666 56.3479C64.2411 56.1289 64.3713 56.1644 64.3122 55.8863C64.2589 55.62 64.2471 55.4188 64.1701 55.3833C63.8802 55.2412 63.6612 55.3123 63.3831 55.2886C63.247 55.2768 63.318 55.2708 63.176 55.1762C63.0931 55.1998 63.1109 55.1821 63.0458 55.2176L62.9097 55.1762C62.7913 55.1584 62.6434 55.1821 62.525 55.1288H62.4836H62.4422H62.4007C62.3001 55.0815 62.2883 55.0992 62.164 55.0578L61.9806 55.0045C61.732 54.9631 61.7616 55.0045 61.6137 54.9099C61.5663 54.9809 61.5486 54.9868 61.5012 55.0578C61.4361 55.1702 61.4716 55.0341 61.4598 55.2057C61.4302 55.7561 61.3533 55.3004 61.371 55.7028L61.0278 56.9396C61.0278 56.9456 61.0219 56.9574 61.016 56.9633C60.8858 57.2592 60.9568 57.2237 60.9331 57.3125C60.8917 57.4545 60.8621 57.3657 60.7438 57.5669L60.6313 57.8391C60.5307 58.0344 60.6964 57.9634 60.3769 58.3777L59.8679 59.0345C59.7082 59.141 59.7969 59.0937 59.7141 59.2298C59.649 59.3304 59.6371 59.3127 59.578 59.3955L59.2051 60.0465C59.2051 60.0524 59.1992 60.0642 59.1933 60.0701L59.0335 60.3423C59.0099 60.4015 59.0276 60.3838 59.0158 60.4193C59.0158 60.4252 59.0099 60.437 59.0099 60.4429L58.9862 60.4903C58.9448 60.5731 58.9862 60.4785 58.9507 60.5554C58.9329 60.5909 58.9329 60.5968 58.927 60.6205L58.8501 60.8631C58.8087 60.9696 58.8738 60.9933 58.8205 61.1294C58.7376 61.3188 58.7081 61.2182 58.7021 61.443C58.6962 61.6561 58.7495 61.7448 58.7021 61.9165C58.7021 61.9224 58.6962 61.9342 58.6962 61.9401L58.6666 62.0111C58.4832 62.4491 58.6666 62.3899 58.5187 62.6088C58.5897 62.7805 58.5424 62.597 58.5128 62.7509C58.4003 63.3426 58.4358 62.887 58.2346 63.4018C58.2346 63.4077 58.2287 63.4196 58.2287 63.4255L57.9802 64.1001C57.8559 64.3664 57.779 64.1711 57.8204 64.5084C57.85 64.7096 57.7908 64.5972 57.85 64.7629C57.9447 65.0469 57.8381 64.9996 57.9624 65.1771C57.9861 65.473 57.9861 65.6269 58.1104 65.8636C58.1399 65.9287 58.1459 65.9228 58.1577 65.9701C58.2583 66.4613 58.3885 66.2364 58.6252 66.6151C58.6311 66.6211 58.637 66.6329 58.637 66.6388L58.7909 66.7808C58.8146 66.7986 58.8382 66.8163 58.8442 66.8223L58.8797 66.8519C58.8974 66.8637 58.9803 66.9051 59.0099 66.917H59.0513C59.0927 66.9347 59.1578 66.9584 59.1992 66.988C59.2466 67.0176 59.2821 67.059 59.3117 67.0886L59.507 67.2247C59.5129 67.2306 59.5188 67.2365 59.5247 67.2424L59.6963 67.414C59.8265 67.5383 59.6016 67.3845 59.791 67.5206L59.9212 67.6093C60.0277 67.6803 60.0455 67.7277 60.1638 67.8046C60.2289 67.846 60.223 67.8342 60.2999 67.8815C60.3473 67.9111 60.3473 67.923 60.4005 67.9585C60.4656 68.0532 60.5366 68.0532 60.513 68.3195C60.4834 68.6449 59.7377 68.5384 59.4004 68.6982H59.359H59.3176H59.2762H59.2347C59.1933 68.7278 59.2347 68.7041 59.1519 68.7455C59.1341 68.7515 59.0868 68.7692 59.0572 68.781H59.0158C58.9329 68.8165 58.927 68.7988 58.7791 68.8343C58.7021 68.8521 58.7376 68.8461 58.6785 68.858C58.5719 68.8876 58.6607 68.8698 58.5956 68.8876C58.4773 68.9171 58.1459 68.8935 58.0157 68.9586C57.9447 68.9112 57.779 68.9053 57.6665 68.9586C57.5955 68.9112 57.4298 68.9053 57.3174 68.9586H57.276C57.1162 68.8935 57.2523 68.9467 57.1813 68.9527C57.1754 68.9527 57.1635 68.9586 57.1576 68.9586C57.0807 68.9763 56.9919 68.9882 56.8972 69H56.5954C56.5422 68.9941 56.4889 68.9763 56.4475 68.9586L56.3883 68.9349C56.2344 68.8935 56.0569 68.8994 55.9267 68.9586C55.9149 68.9527 55.903 68.9467 55.8971 68.9467L55.0568 68.6982H55.0154C54.9029 68.6509 54.8911 68.6923 54.6899 68.5917C54.6189 68.5562 54.5716 68.5325 54.5183 68.5029C54.4532 68.4733 54.4236 68.4674 54.3644 68.4378L54.2342 68.349L54.1041 68.2603H54.0626C53.9857 68.2248 53.9206 68.2129 53.8437 68.1715C53.7431 67.9762 53.6661 67.9881 53.3111 67.8697C53.0389 67.7809 52.9738 67.704 52.7666 67.6271C52.7548 67.6212 52.7311 67.6152 52.7252 67.6152C52.7193 67.6152 52.7075 67.6093 52.7015 67.6093L52.4352 67.4969C52.3346 67.4496 52.2814 67.4259 52.1926 67.3845H52.1512C52.0269 67.3253 51.8849 67.272 51.7606 67.2128L51.4115 67.0412H51.3701L51.2399 66.9525H51.1984H51.157H51.1156C50.9085 66.8163 50.9026 66.7039 50.6481 66.5501L50.5948 66.5205L50.2753 66.3133C50.2102 66.266 50.2812 66.3074 50.1983 66.2542H50.1569L50.0267 66.1654H49.9853L49.7486 65.9879C49.5474 65.8636 49.6125 65.6683 49.5415 65.5677C49.4468 65.4316 48.9615 65.0469 48.8136 64.9463C48.7248 64.8102 48.7662 64.8872 48.6005 64.7688L48.3402 64.5084L48.139 64.5972C48.133 64.5972 48.1212 64.6031 48.1153 64.6031C48.1094 64.6031 48.0975 64.609 48.0916 64.609L47.4288 64.8517L47.346 64.9049C47.3342 64.9108 47.3046 64.9286 47.2927 64.9345C47.1862 64.9878 47.2927 64.9463 47.1685 64.9759C47.0028 65.0174 47.0028 64.9996 46.914 65.0114L46.3814 65.2067L46.0855 65.4375C45.908 65.6151 45.9316 65.5618 45.8133 65.6446L45.6831 65.7334L45.4997 65.8281C45.405 65.8636 45.476 65.8103 45.334 65.905H45.2925C45.0854 65.9938 45.1505 65.763 45.1209 65.3843C44.902 65.5322 45.0203 65.5145 44.9434 65.6151C44.6948 65.9583 44.3457 65.3902 44.251 65.2126C44.0971 65.1002 44.251 65.2245 44.1741 65.0943L44.038 64.9168C43.9965 64.8517 44.0321 64.9227 44.0025 64.828C43.9965 64.8043 43.9906 64.7866 43.9847 64.7629C43.9847 64.757 43.9788 64.7451 43.9788 64.7392L43.9729 63.9818C43.9729 63.8811 43.9965 63.964 43.9551 63.8989C44.0794 63.6385 43.9196 63.7805 44.1327 63.5143L44.3457 62.9343C44.3753 62.7627 44.3694 62.7745 44.4463 62.6917C44.8487 62.2656 44.4759 62.5319 44.6889 62.2774C44.7954 62.1532 44.8428 62.2064 44.7836 62.0703L44.4818 62.3307H44.4404L44.3516 62.4195L44.0912 62.6798L44.0025 62.7686L43.5231 63.1178H43.4817L43.1799 63.2302L43.097 63.2539C42.9669 63.313 43.0615 63.3071 42.742 63.461C42.7065 63.4847 42.7242 63.4787 42.6591 63.5083C42.523 63.5616 42.452 63.4906 42.31 63.5498H42.2153C42.1325 63.5912 42.0733 63.5971 42.0082 63.6149L41.9194 63.6385C41.6176 63.7273 40.7181 63.7332 40.5169 63.6326C40.3986 63.5616 39.8719 63.6089 39.8245 63.6326H39.7831H39.7417H39.7003C39.5109 63.7095 39.3274 63.5853 39.0493 63.7214H39.0079L37.919 63.9818H37.8776C37.7948 63.9462 37.4574 63.9699 37.203 63.8752L36.9426 63.7865C36.8657 63.751 36.8479 63.751 36.7887 63.7214C36.6053 63.5971 36.5994 63.6563 36.4396 63.5498H36.3982C36.3272 63.5024 36.3212 63.4847 36.2443 63.4432C36.197 63.4196 36.1378 63.4018 36.0904 63.3781L35.9839 63.313C35.978 63.3071 35.9662 63.3012 35.9603 63.2953C35.9011 63.2598 35.8952 63.242 35.836 63.2065H35.7946L35.6644 63.1178H35.6229C35.6111 63.1118 35.5342 63.0823 35.5283 63.0823C35.4336 63.0349 35.4928 63.0645 35.4454 63.0349L35.3566 62.9461C35.2383 62.8692 35.256 62.8278 35.1081 62.7804C35.1022 62.7804 35.0903 62.7745 35.0844 62.7745C35.0785 62.7745 35.0667 62.7686 35.0608 62.7686L34.9957 62.7509C34.9306 62.7213 35.0252 62.7923 34.9069 62.6976L34.6583 62.4254C34.5873 62.378 34.5814 62.3603 34.5045 62.3189C34.4571 62.2952 34.398 62.2774 34.3506 62.2538H34.3092C34.2974 62.2479 34.2027 62.2064 34.1968 62.2005C34.1198 62.1473 34.179 62.1828 34.1553 62.1473L33.9541 61.9342C33.8535 61.8218 33.9364 61.9105 33.8358 61.8336L33.5813 61.6265C33.5517 61.5969 33.4985 61.52 33.4807 61.4904C33.4156 61.3839 33.5399 61.4785 33.3979 61.3779L33.2854 61.3129C33.2026 61.2596 33.2558 61.2951 33.1848 61.2359C33.1257 61.1827 33.0724 61.1294 33.0369 61.0584L32.5871 60.2299C32.5102 60.076 32.4155 60.076 32.2557 59.6618L32.2025 59.5553C31.9303 59.1943 32.1256 59.5139 32.0486 59.2535C32.0486 59.2476 32.0427 59.2357 32.0427 59.2298C31.9066 58.857 32.0841 59.1115 31.9303 58.928C31.7231 58.6735 31.8356 58.9221 31.6995 58.5907L31.3503 58.0699C31.2497 57.993 31.1669 57.8095 31.2201 57.6794C31.2793 57.6379 31.2912 57.6202 31.3444 57.5847C31.3562 57.5788 31.4805 57.5077 31.4805 57.5077C31.5752 57.4663 31.587 57.4604 31.6936 57.5018H31.735C31.8415 57.4545 31.7587 57.4545 31.8652 57.5018H31.9066C32.0131 57.5492 31.9303 57.5492 32.0368 57.5018H32.0782C32.1847 57.5492 32.1019 57.5492 32.2084 57.5018C32.2202 57.5077 32.2321 57.5137 32.238 57.5137L32.3978 57.5669C32.4925 57.6143 32.4569 57.5965 32.5102 57.6734C32.6226 57.7267 32.6286 57.6971 32.7469 57.7385L33.0961 57.9101C33.173 57.9575 33.1789 57.9752 33.2499 58.0167C33.3032 58.0522 33.2203 58.0107 33.3328 58.0581L33.7707 58.1883H33.8121C34.2204 58.4605 34.1139 58.212 34.3329 58.5374L34.682 58.8866C34.6998 58.8984 34.8951 59.0404 34.8951 59.0404L35.0252 59.2357C35.262 59.3955 35.0844 59.1529 35.3744 59.5849L35.4632 59.6736L35.5519 59.7624C35.7058 59.863 35.6762 59.8808 35.7295 59.9577L35.8537 60.1115L35.9425 60.2003C36.0076 60.2417 35.8419 60.2417 36.0727 60.2417L36.3508 59.863C36.4928 59.6736 36.3153 59.4192 36.2502 59.3718L36.2088 59.2831C36.0727 59.1884 36.1437 59.1943 36.1378 59.1884C36.1378 59.1825 36.1319 59.1706 36.1259 59.1706L35.978 58.9931C35.5756 58.5493 35.9662 58.6676 35.7354 58.496C35.8064 58.3244 35.765 58.496 35.7295 58.354C35.7058 58.2652 35.7295 58.3303 35.694 58.2356C35.546 58.1291 35.6821 58.0818 35.6111 57.9161C35.5283 57.7267 35.5638 57.9693 35.5401 57.7504C35.5342 57.6971 35.5283 57.6616 35.5223 57.5432V57.5018C35.475 57.3835 35.5164 57.3184 35.4868 57.1763C35.3981 56.7029 35.5283 56.8864 35.3981 56.5136C35.333 56.336 35.3921 56.3952 35.3507 56.2354C35.333 56.1644 35.3034 56.0816 35.2738 56.0046C35.256 55.9632 35.2324 55.8981 35.2264 55.8863L35.0963 55.6673C34.9306 55.478 35.0844 55.5726 34.9897 55.3774L34.8536 55.0578C34.8536 55.0519 34.8477 55.04 34.8477 55.0341L34.824 54.9394C34.5163 54.7323 34.8063 54.6968 34.5222 54.5074L34.3506 54.3358L34.2619 54.2471H34.2204C34.2086 54.2411 34.1317 54.2116 34.1258 54.2056C34.0311 54.1583 34.0902 54.1879 34.0429 54.1583C34.037 54.1465 34.0311 54.1346 34.0252 54.1287L33.9956 54.0695C33.8476 53.8387 33.966 54.0695 33.5754 53.8447L33.5221 53.8092C33.3446 53.6908 33.457 53.7855 33.3032 53.7204H33.2618H33.2203H33.1789C32.9895 53.5961 32.8238 53.3594 32.67 53.2292C32.5102 53.0931 32.5339 53.1878 32.5161 53.1227C32.5102 53.1109 32.4984 53.1109 32.4865 53.1049L32.3978 53.0162L32.2676 52.9274L32.1374 52.8386C32.025 52.7617 31.9421 52.6729 31.8415 52.5664C31.8119 52.5309 31.7646 52.4658 31.7409 52.4303C31.6758 52.3238 31.8001 52.4185 31.6581 52.3179L31.5693 52.2291L31.3503 51.9687L31.2616 51.88C31.1491 51.7971 31.2438 51.8918 31.1432 51.6965L31.1136 51.6314C30.9953 51.3651 31.0426 51.3415 30.942 51.1047L30.8296 50.9213C30.7526 50.8858 30.6875 50.874 30.6106 50.8325H30.5692H30.5278L30.1372 50.5721C30.1313 50.5721 30.0662 50.5307 30.0662 50.5307C30.0603 50.5307 30.0484 50.5248 30.0425 50.5189C30.0366 50.5189 30.0248 50.513 30.0188 50.5071L29.6815 50.3473C29.6756 50.3414 29.6697 50.3354 29.6638 50.3354L29.6164 50.294C29.6105 50.2881 29.6046 50.2822 29.5987 50.2822C29.5573 50.2526 29.5691 50.2644 29.504 50.2171C29.362 50.1046 29.2614 49.9449 29.1193 49.862C28.7939 49.6608 28.5927 49.8265 28.4033 49.5365L28.3145 49.4478V49.4063C28.2554 49.3176 28.1962 49.2466 28.1015 49.1815C28.0364 49.1401 28.0305 49.146 27.9595 49.1045C27.9062 49.069 27.8885 49.0513 27.8352 49.0158L27.0481 48.2761C27.0422 48.2701 27.0363 48.2583 27.0304 48.2524L26.9179 48.1222C26.8528 48.063 26.8233 48.0926 26.7582 47.9388C26.7522 47.921 26.7049 47.8086 26.699 47.8026L26.3558 47.3588C26.338 47.1694 26.2907 47.1872 26.1664 47.0629C25.9889 46.8854 26.119 47.0037 26.048 46.8381V46.7966C25.8883 46.5599 25.9297 46.4889 25.6989 46.1457V46.1043L25.6042 45.9208C25.5332 45.7788 25.545 45.909 25.5391 45.7492C25.5332 45.406 25.5036 45.6367 25.4622 45.406L25.3557 45.0746C25.332 45.0213 25.3379 45.0391 25.3201 45.0095L25.2787 44.8438C25.2787 44.755 25.2965 44.7787 25.2551 44.6781C25.113 44.5775 25.2373 44.5775 25.1663 44.4177V44.3763L25.1249 44.2993C25.0716 44.1869 25.2255 44.2816 25.0657 44.1869C25.0124 44.1514 24.9651 44.1691 24.9059 44.2461C24.8822 44.2816 24.8882 44.2638 24.8586 44.3289C24.8053 44.471 24.8704 44.4236 24.8231 44.542L24.6633 45.1041C24.6633 45.2107 24.6751 45.2698 24.5982 45.3764C24.6692 45.548 24.61 45.3882 24.6041 45.4711L24.4857 46.1043V46.1457C24.2786 46.4534 24.1958 46.412 24.178 46.7552C24.1248 48.0453 24.3201 47.4417 24.249 47.85C24.2017 48.1281 24.3319 47.8145 24.1603 48.3471L24.0715 48.5483C24.0597 48.5719 24.0715 48.566 24.0478 48.6193V48.6607C23.9354 48.8323 24.0538 48.7791 23.9176 48.8797L23.746 49.0513C23.5567 49.3353 23.5389 49.217 23.2253 49.3235C23.1602 49.3472 23.1365 49.359 23.03 49.3708C22.8347 49.4004 22.5921 49.3353 22.4382 49.4004H22.3968C22.2429 49.3353 21.9944 49.4241 21.6216 49.3235L21.4855 49.2821C21.3553 49.2525 20.6215 49.1519 20.5978 49.069C20.5919 49.0572 20.58 49.0572 20.5682 49.0513H20.5268H20.4854C20.3729 48.998 20.367 49.0276 20.2486 48.9862C20.2309 48.9803 20.1362 48.9329 20.1303 48.9329C20.0593 48.8915 20.0889 48.9093 20.0474 48.8797L19.6983 48.7081C19.4438 48.5838 19.0355 48.2938 19 47.9683V47.8796C19.0059 47.85 19.0118 47.8145 19.0237 47.7849C19.0651 47.6725 19.1361 47.6843 19.1894 47.5718C19.2071 47.5304 19.2012 47.4298 19.1953 47.3766C19.1953 47.27 19.2545 47.0037 19.3551 46.9327L19.7042 46.5836H19.7456L19.8936 46.4238C20.0534 46.0865 20.148 46.2877 20.2546 45.8794L20.296 45.5539C20.3078 44.9207 20.3078 44.1396 20.4439 43.5064C20.4735 43.3821 20.4913 43.2282 20.438 43.1099V43.0684C20.5149 42.8791 20.438 43.098 20.438 42.9264C20.438 42.9205 20.438 42.9087 20.438 42.9028C20.438 42.6246 20.4262 42.5181 20.4854 42.2932C20.5564 42.0328 20.4143 41.9737 20.6037 41.299C20.6274 41.2221 20.6392 41.2044 20.6451 41.1866C20.7635 40.8848 20.7221 40.2516 20.8286 39.8729L20.8641 39.6776C20.8641 39.6717 20.87 39.6598 20.87 39.6539L21.2251 38.5769C21.2547 38.4999 21.2961 38.4053 21.3079 38.3816C21.3079 38.3757 21.3198 38.3698 21.3198 38.3638L21.6452 37.6715C21.7162 37.4703 21.6452 37.4939 21.7044 37.3105C21.7222 37.2513 21.6689 37.2927 21.8228 37.1862C21.8819 37.1448 21.8938 37.133 21.947 37.0915L22.0831 37.0087C22.2193 36.9199 22.2311 36.914 22.2429 36.8016C22.2429 36.7838 22.2311 36.695 22.2311 36.695C22.2133 36.6536 22.2666 36.6891 22.1719 36.6181C22.2252 36.5412 22.2488 36.4938 22.2903 36.3932C22.3494 36.2453 22.2962 36.2867 22.3849 36.2275H22.4264C22.5625 36.1329 22.45 36.2216 22.4974 36.1329L22.598 35.8251C22.7282 35.4641 22.6217 35.6358 22.6749 35.4701C22.7104 35.3576 22.6986 35.405 22.7282 35.3635L22.8229 34.8724C22.8288 34.6653 22.8406 34.7777 22.888 34.612C22.8998 34.5528 22.8998 34.5587 22.9057 34.4996C22.9471 34.1978 22.8643 34.2924 22.9886 34.109V34.0676C23.0477 33.9196 22.9945 33.5054 23.0181 33.3693L23.1128 33.1681C23.1424 33.1148 23.1247 33.1444 23.1483 33.103C23.2075 32.9964 23.1424 33.1148 23.172 33.0615C23.172 33.0556 23.1838 33.0438 23.1838 33.0438L23.2963 32.8899C23.4087 32.7124 23.32 32.7834 23.3791 32.6236L23.5152 32.1916C23.5685 32.0555 23.4679 32.1325 23.5922 31.9431V31.9017C23.6395 31.7833 23.5863 31.8543 23.6454 31.6886L23.8111 31.3691C23.8348 31.2626 23.7815 31.3276 23.8348 31.2034V31.1619C23.8703 31.0673 23.8703 30.9489 23.8348 30.8601V30.8187C23.9058 30.6471 23.8466 30.8069 23.8348 30.724L23.7934 30.0849C23.7993 29.7772 23.8585 29.647 23.9827 29.3985L24.2254 28.9487C24.249 28.7475 24.178 28.712 24.1662 28.5286C24.1425 28.1794 24.1839 28.1025 24.0597 27.8658L23.7579 27.4338L23.7756 27.1911C23.7993 27.1142 23.817 27.0018 23.823 26.9722C23.8348 26.8006 23.8644 26.6171 23.7815 26.4633C23.6987 26.3035 23.6869 25.5046 23.6158 25.404C23.6158 25.3981 23.604 25.3921 23.604 25.3862C23.604 25.3803 23.5922 25.3744 23.5922 25.3685C23.5922 25.3626 23.5803 25.3566 23.5803 25.3507C23.5389 25.2738 23.6158 24.7294 23.5448 24.5637V24.5222C23.3732 24.2619 23.5863 24.1198 23.4028 23.6582C23.2134 23.1907 23.4206 23.031 23.1069 22.5694C23.0122 22.5043 23.0359 22.4925 23.0359 22.4096L23.0537 22.0605C23.0832 21.9894 23.1483 21.9835 23.1306 21.8237L23.0714 21.4924C23.1661 21.1669 23.0655 21.3207 23.1957 21.2261L23.0477 20.6994C23.0477 20.6935 23.0537 20.6816 23.0537 20.6757C23.0537 20.6698 23.0596 20.658 23.0596 20.652L23.0714 20.6047C23.0773 20.5929 23.0832 20.5692 23.0892 20.5633C23.0892 20.5574 23.0951 20.5455 23.0951 20.5396L23.4087 19.6579L23.6277 19.3975C23.675 19.3265 23.6869 19.3265 23.746 19.2495C23.7519 19.2436 23.7934 19.1844 23.7934 19.1844L24.0182 18.9655L24.4088 18.6163H24.4502C24.5568 18.5453 24.6159 18.4447 24.7106 18.356C24.8112 18.2849 24.7402 18.3264 24.8526 18.1843C24.8526 18.1784 24.8645 18.1725 24.8645 18.1666L24.9296 18.0897C25.0065 17.9772 25.0716 17.9595 25.0894 17.9476C25.0953 17.9417 25.113 17.9476 25.1189 17.9299C25.1249 17.918 25.1367 17.918 25.1485 17.9121C25.2195 17.8766 25.261 17.8707 25.3261 17.8293C25.3793 17.7997 25.3912 17.776 25.4503 17.7346L25.6811 17.5748C25.7521 17.5038 25.7936 17.4624 25.8409 17.3854C25.5569 17.3854 25.6989 17.3677 25.5214 17.3085C25.2018 17.2079 24.9473 17.4091 24.6219 17.2553L24.5804 17.344C24.4917 17.3795 24.4502 17.3795 24.3615 17.344H24.3201C24.2135 17.3914 24.2964 17.3914 24.1899 17.344H24.1484H24.107H24.0478H24.0064H23.965C23.8585 17.3914 23.9413 17.3914 23.8348 17.344H23.7934L23.6987 17.2908C23.6158 17.2553 23.5922 17.2967 23.4501 17.0777L23.4028 16.9949C23.5093 16.77 23.4679 16.7345 23.7875 16.5925C24.0123 16.4919 23.9117 16.5747 24.0538 16.5155C24.1484 16.4504 24.2372 16.4623 24.3615 16.3913C24.4384 16.3498 24.4029 16.3676 24.4443 16.338C24.539 16.2966 24.5213 16.3262 24.687 16.2788C24.829 16.2374 24.8526 16.2315 24.9473 16.2196C25.19 16.1901 25.3675 16.196 25.4444 16.1664H25.4858H25.5273H25.5687H25.6101H25.6515C25.7166 16.1427 25.7758 16.1368 25.9119 16.125L26.0184 15.3616C26.0303 15.3261 26.0362 15.3734 26.0421 15.2551V15.2136C26.0421 15.0065 26.0421 15.1308 26.0007 15.0834C26.048 14.9769 26.048 15.0598 26.0007 14.9532C26.1841 14.8171 25.906 14.9296 26.2315 14.3496C26.2374 14.3437 26.2492 14.3201 26.2552 14.3082L26.3143 14.2017C26.3735 14.0893 26.2847 14.2431 26.3439 14.1366C26.3972 14.0419 26.2492 14.2668 26.3676 14.0952C26.48 13.9354 26.5037 14.0064 26.6516 13.9058H26.6931C26.7878 13.8644 26.8884 13.8762 27.1014 13.8525C27.2197 13.8348 27.1546 13.8585 27.2671 13.8111C27.3795 13.7638 27.2848 13.8644 27.3854 13.7283C27.4624 13.6987 27.8115 13.6513 27.9476 13.6395H27.9891C28.1015 13.5922 28.5276 13.6158 28.6873 13.6099C28.8885 13.604 29.4093 13.5981 29.5099 13.6395H29.5513C29.6815 13.6987 29.6756 13.6809 29.8531 13.6809C29.8591 13.6869 29.8591 13.6987 29.8591 13.6987L30.1135 13.8999H30.1549C30.2319 13.9532 30.297 14.0005 30.3561 14.0833C30.4508 14.2194 30.3147 14.0242 30.3976 14.1721C30.4272 14.2313 30.3266 14.1544 30.4568 14.249L30.5455 14.9H31.2852L31.161 14.6041C31.161 14.5982 31.155 14.5863 31.1491 14.5804C31.1491 14.5745 31.1373 14.5627 31.1373 14.5568L31.0426 14.3201C30.9834 14.1662 30.8769 14.0893 30.8473 14.0478C30.7881 13.9591 30.8592 14.0774 30.8059 13.9413C30.658 13.8348 30.8177 13.9827 30.6639 13.6869C30.658 13.6809 30.6461 13.6573 30.6402 13.6454C30.6402 13.6395 30.6343 13.6277 30.6284 13.6218C30.5988 13.5567 30.6224 13.6158 30.5929 13.5389L30.2792 12.7163C30.1549 12.5329 30.1254 12.308 30.1254 12.095C30.1254 11.5861 30.1017 11.1008 30.149 10.586C30.2555 10.509 30.1786 10.5741 30.2319 10.4676L30.3443 10.2901C30.3502 10.2842 30.3798 10.2664 30.3857 10.2605L31.1787 9.65095H31.2201C31.3385 9.5681 31.2971 9.57994 31.4568 9.49709L32.0427 9.21304H32.0841C32.1788 9.17161 32.38 9.1657 32.4747 9.12427H32.5161C32.6286 9.07693 32.599 9.11835 32.7706 9.07693C32.9777 9.02959 32.8298 9.02367 33.0487 9Z" fill="white" fill-opacity="0.85"/>
</svg>
