<svg width="100" height="80" viewBox="0 0 100 80" fill="none" xmlns="http://www.w3.org/2000/svg">
<path fill-rule="evenodd" clip-rule="evenodd" d="M20.3966 16.598H20.4402L20.4028 16.6478L20.3966 16.598ZM19.5432 16.9406H19.5868L19.5494 16.9904L19.5432 16.9406ZM41.1026 18.6474V18.691L41.0527 18.6537L41.1026 18.6474ZM26.5885 18.8592H26.5448L26.5822 18.8094L26.5885 18.8592ZM37.8571 18.99V19.0336L37.8073 18.9963L37.8571 18.99ZM40.2056 18.99H40.2492L40.2118 19.0399L40.2056 18.99ZM24.8816 19.2018H24.838L24.8754 19.152L24.8816 19.2018ZM24.7072 19.289H24.6636L24.701 19.2392L24.7072 19.289ZM17.6682 19.3264H17.7118L17.6744 19.3762L17.6682 19.3264ZM38.3679 19.3264V19.37L38.3181 19.3326L38.3679 19.3264ZM39.9502 19.669H39.9938L39.9564 19.7189L39.9502 19.669ZM43.451 19.669H43.4946L43.4572 19.7189L43.451 19.669ZM29.7467 20.0116V20.0552L29.6968 20.0179L29.7467 20.0116ZM39.3522 20.0552V20.0116L39.402 20.049L39.3522 20.0552ZM42.934 20.0116H42.9776L42.9402 20.0615L42.934 20.0116ZM29.5349 20.3106V20.267L29.5847 20.3044L29.5349 20.3106ZM29.3605 21.1204L29.2733 21.2076L29.0677 21.3945C28.9493 21.4942 29.049 21.4132 28.9867 21.4444L28.6752 21.6375C28.5693 21.706 28.6005 21.706 28.4697 21.7745C28.4261 21.7932 28.4136 21.8056 28.3576 21.8306C28.0648 21.9801 28.2018 21.8742 28.0149 21.9551L27.7658 22.0486C27.7595 22.0486 27.7471 22.0548 27.7346 22.061C27.6599 22.0984 27.5976 22.1109 27.5228 22.1483H27.4792C27.3671 22.1981 27.3173 22.1732 27.2238 22.2355L26.7317 22.2666C26.6321 22.2542 26.6694 22.2728 26.5822 22.2355C26.576 22.2292 26.5573 22.2105 26.5573 22.2168L26.2396 22.061H26.196L25.9718 21.9925C25.7288 21.9302 25.7787 21.8929 25.6416 21.8056L25.4796 21.7122C25.0872 21.5129 24.9315 21.6686 24.8505 21.3696L24.7384 21.0021C24.7072 20.8526 24.7259 20.9834 24.7446 20.7778V20.7342C24.782 20.6346 24.7446 20.5847 24.8194 20.4726C24.9003 20.348 24.9689 20.3667 25.0872 20.3106H25.1308H25.1744H25.218C25.2928 20.2733 25.3551 20.2608 25.4298 20.2234H25.4734L25.6541 20.1611C25.6603 20.1611 25.6728 20.1611 25.679 20.1549L25.8534 20.1051C25.9655 20.0801 25.9468 20.0864 26.0341 20.0428H26.0777H26.1213H26.1649C26.3144 19.968 26.4514 19.9992 26.5511 19.9556H26.5947L27.0993 19.8933C27.2488 19.8933 27.1802 19.8559 27.311 19.8434L28.0399 19.887C28.1333 19.8933 28.5071 19.912 28.6067 19.9556H28.6503H28.6939H28.7375C28.8247 19.9992 28.8746 20.0054 28.9431 20.0179L28.9867 20.0303C29.3044 20.1238 29.2733 20.1113 29.5536 20.2982L29.6532 20.3729C29.728 20.4788 29.7342 20.6034 29.6906 20.7342C29.6346 20.8899 29.6034 20.8401 29.5224 20.9522C29.4726 21.0208 29.5162 21.0145 29.4352 21.0768L29.3605 21.1204ZM42.4232 20.3542H42.4668L42.4294 20.4041L42.4232 20.3542ZM18.559 20.9086H18.5154L18.5527 20.8588L18.559 20.9086ZM29.3605 21.1204H29.4041L29.3667 21.1703L29.3605 21.1204ZM29.2795 21.2076H29.3231L29.2857 21.2575L29.2795 21.2076ZM29.4913 21.4194H29.4477L29.485 21.3696L29.4913 21.4194ZM28.6815 21.6375H28.7251L28.6877 21.6873L28.6815 21.6375ZM25.6478 21.8056V21.8493L25.598 21.8119L25.6478 21.8056ZM27.7409 22.061H27.7845L27.7471 22.1109L27.7409 22.061ZM17.6682 22.2292H17.7118L17.6744 22.2791L17.6682 22.2292ZM26.5885 22.2292V22.2728L26.5386 22.2355L26.5885 22.2292ZM27.2301 22.2292H27.2737L27.2363 22.2791L27.2301 22.2292ZM28.1208 22.2728H28.0772L28.1146 22.223L28.1208 22.2728ZM31.8397 22.7899V22.7463L31.8895 22.7836L31.8397 22.7899ZM17.1512 22.9145H17.1948L17.1574 22.9643L17.1512 22.9145ZM34.4435 22.9145V22.9581L34.3937 22.9207L34.4435 22.9145ZM32.8177 24.8767H32.7741L32.3443 25.1321C32.282 25.1694 32.2757 25.1944 32.2259 25.2255C32.1574 25.2691 32.1138 25.2691 32.0453 25.3065L31.9144 25.3937L31.8272 25.4809C31.6092 25.6242 31.5095 25.7737 31.4223 25.9792C31.2479 26.4028 31.3912 26.3094 31.3164 26.5025C31.385 26.4963 31.3974 26.4963 31.4535 26.49L31.522 26.4776C31.5282 26.4776 31.5407 26.4713 31.5407 26.4713L32.0515 26.2969C32.1262 26.2658 32.039 26.2782 32.1948 26.2409L33.1105 26.1287H33.1541H33.1977H33.2413C33.3285 26.0914 33.6026 26.0851 33.7085 26.1287H33.7521C33.8517 26.1786 33.858 26.135 33.9327 26.2471C34.0573 26.434 33.9452 26.571 33.9016 26.8389C33.8891 26.9261 33.858 26.9074 33.8144 27.0071L33.7022 27.1877C33.6399 27.2251 33.6337 27.25 33.5839 27.2811C33.5216 27.3248 33.4718 27.3247 33.4032 27.3621H33.3596C33.2849 27.3995 33.1229 27.4244 33.0233 27.4493C32.9111 27.4805 32.8738 27.4556 32.718 27.5303H32.6744C32.5187 27.6051 32.5623 27.5365 32.4252 27.6674C32.3318 27.7546 32.3131 27.7982 32.201 27.8729H32.1574C32.0702 27.9352 32.0764 27.9414 31.9954 28.01C31.9269 28.0723 31.8771 28.0972 31.7961 28.1532C31.6279 28.2654 31.5781 28.3713 31.4286 28.4709C31.3912 28.527 31.36 28.5519 31.3414 28.5893C31.2666 28.7263 31.3787 28.5395 31.304 28.7263V28.7699C31.1545 29.125 31.4286 29.0689 31.4348 29.0689C31.1794 29.4489 31.4037 29.1998 31.4161 29.9099C31.4161 29.9597 31.4223 30.0033 31.4099 30.0407C31.385 30.1528 31.3787 30.0968 31.3476 30.2213C31.1607 30.0968 31.2168 30.1964 31.005 30.0905H30.9614C30.8181 29.9971 30.8991 30.0532 30.8056 30.0158C30.7184 29.9846 30.787 30.0033 30.6997 29.9722C30.6375 29.9473 30.6312 29.9473 30.5752 29.9223H30.5316C30.4444 29.8787 30.3634 29.86 30.245 29.8227C30.2014 29.8102 30.1453 29.7915 30.0955 29.7791C30.0021 29.7604 30.0893 29.7978 29.9772 29.7542H29.9585C29.8837 29.7168 29.8214 29.7043 29.7467 29.6669H29.7031C29.429 29.5361 29.3169 29.6483 29.1487 29.5797H29.1051C29.049 29.5548 29.0552 29.561 29.0116 29.5548C28.9805 29.5486 28.9369 29.5424 28.8497 29.5361C28.887 29.4427 28.887 29.2434 28.8497 29.1499V29.1063C28.6752 28.8447 28.8933 28.9257 28.7313 28.8011L28.5943 28.7201L28.3264 28.6142C28.2205 28.5893 28.1894 28.5893 28.1022 28.4585L27.9277 28.1159C27.8904 27.9913 27.9651 28.1782 27.9091 28.0411C27.772 27.9414 27.8592 28.0037 27.8468 27.8792C27.8405 27.8169 27.8468 27.8605 27.8094 27.7919L27.7222 27.6238C27.7159 27.6175 27.7097 27.6051 27.7035 27.6051C27.7035 27.5988 27.691 27.5864 27.691 27.5864L27.3422 27.0756C27.3048 27.0382 27.2924 27.0257 27.255 26.9884L27.1615 26.8576C27.0058 26.5399 25.9406 25.6989 25.6852 25.3127C25.8036 25.2317 25.7849 25.213 26.0901 25.2816C26.196 25.3065 26.4514 25.3189 26.5386 25.3563H26.5822C26.7504 25.4373 26.8314 25.375 26.9996 25.4311C27.2238 25.4996 27.473 25.4622 27.8218 25.4809L28.588 25.4435H28.6316C28.7375 25.3999 28.6566 25.3999 28.7625 25.4435H28.8061C29.0864 25.3065 29.2919 25.4248 29.4477 25.3563H29.4913H29.5349H29.5785L31.2105 25.213C31.304 25.2068 31.3102 25.2317 31.4161 25.1881H31.4597C31.5594 25.1445 31.8272 25.1445 31.9269 25.1009H31.9705L32.2135 25.0262C32.2384 25.0199 32.2695 25.0012 32.2882 24.995C32.363 24.9639 32.3816 24.9576 32.4377 24.9327H32.4813L32.6806 24.8393C32.6869 24.8393 32.6993 24.8331 32.7056 24.8331C32.7118 24.8331 32.7242 24.8331 32.7305 24.8331C32.7367 24.8331 32.7679 24.8393 32.7803 24.8455C32.8239 24.8144 32.7803 24.8206 32.8675 24.8081C32.9049 24.8019 32.9547 24.8019 32.9921 24.8019C32.8675 24.9639 32.9921 24.8081 32.8177 24.8767ZM33.0357 24.7957L33.0482 24.8081C33.0419 24.8081 33.0295 24.7957 33.0357 24.7957ZM33.2039 24.7957L33.2164 24.8081C33.2164 24.8081 33.1977 24.7957 33.2039 24.7957ZM32.3505 25.1321H32.3941L32.3567 25.1819L32.3505 25.1321ZM31.9207 25.3937H31.9643L31.9269 25.4435L31.9207 25.3937ZM31.8397 25.4747H31.8833L31.8459 25.5245L31.8397 25.4747ZM33.7147 27.1815H33.7583L33.7209 27.2313L33.7147 27.1815ZM45.3696 28.5519V28.5955L45.3198 28.5581L45.3696 28.5519ZM24.6636 29.9597L24.8318 30.1279L24.919 30.2151C24.9252 30.2213 24.9439 30.2213 24.9439 30.2338L25.0062 30.2836L25.0187 30.2961L25.9157 31.137C25.9219 31.1433 25.9344 31.1495 25.9406 31.1557L26.2832 31.4111L26.5573 31.6042C26.5635 31.6105 26.576 31.6167 26.5822 31.6167L26.6383 31.6478C26.6445 31.6541 26.657 31.6603 26.6632 31.6665C26.7442 31.7226 26.738 31.7413 26.8002 31.7849L27.2612 32.0963C27.4045 32.196 27.3235 32.1337 27.4232 32.1711C27.4605 32.1836 27.4605 32.1836 27.4979 32.2022L27.6038 32.2645C27.6474 32.2832 27.6599 32.2895 27.6973 32.3019C27.772 32.3331 27.7658 32.3393 27.8094 32.3517C27.8468 32.3704 27.8405 32.3642 27.8717 32.3767L28.0212 32.4265C28.0274 32.4265 28.0399 32.4327 28.0399 32.4327L29.0116 32.6071H29.0552L29.1487 32.6819L28.8061 32.7566C28.6441 32.7816 28.5257 32.7878 28.4572 32.8189H28.4136C28.3077 32.8625 28.3887 32.8625 28.2828 32.8189H28.2392C27.9651 32.9498 27.853 32.8376 27.6848 32.9061H27.6537C27.5478 32.9497 27.5415 32.9186 27.4232 32.9373C27.3733 32.9435 27.2986 32.956 27.2488 32.9622C27.1304 32.9809 27.2051 32.9497 27.0993 32.9934H27.0556C26.9809 33.0245 26.7878 33.037 26.657 33.0556C26.6258 33.0619 26.5012 33.093 26.4701 33.093C26.3829 33.1055 26.3455 33.1117 26.2458 33.1615H26.2022C26.0652 33.2176 26.1649 33.1678 26.0777 33.1865C26.0029 33.2051 25.9842 33.2176 25.9344 33.2363L25.8223 33.2674C25.8098 33.2674 25.7787 33.2737 25.7662 33.2799C25.7039 33.3048 25.7164 33.3048 25.6852 33.3297L25.461 33.4294C25.4547 33.4294 25.4423 33.4356 25.4423 33.4356C25.4111 33.4481 25.4111 33.4419 25.3613 33.473L25.1993 33.5664C25.1682 33.5789 25.1433 33.5914 25.1121 33.6101L25.0062 33.6723C24.6636 33.9028 24.4394 34.3015 24.3646 34.3576L24.3335 34.4759C24.3335 34.4821 24.3272 34.4946 24.321 34.4946L24.1902 34.7375C24.0594 34.7251 24.1092 34.7375 24.022 34.6939H23.9784L23.424 34.4385H23.3804C23.206 34.3202 23.3181 34.4136 23.1686 34.3513H23.125L22.7326 34.2018C22.6703 34.1831 22.7512 34.2205 22.6578 34.1831C22.5083 34.0772 22.4585 34.1084 22.3152 34.0149L22.1906 33.9028C22.0785 33.7409 21.9788 33.4855 22.066 33.2924L22.3713 32.4576C22.4273 32.3144 22.3339 32.5137 22.3899 32.3953L22.4647 32.277C22.4709 32.2708 22.4772 32.2583 22.4834 32.2521L22.5332 32.1711L23.2558 31.0062C23.3056 30.9128 23.2558 31.0374 23.3119 30.919L23.4738 30.5453L23.6856 30.1154L23.8164 29.7791C23.8414 29.6919 23.8538 29.4115 24.1217 29.586C24.1902 29.6296 24.1404 29.5984 24.2027 29.6358L24.6636 29.9597ZM24.6636 29.9597V29.9161L24.7135 29.9535L24.6636 29.9597ZM23.6856 30.1279H23.642L23.6794 30.0781L23.6856 30.1279ZM24.838 30.1279V30.0843L24.8879 30.1217L24.838 30.1279ZM24.9252 30.2151V30.1715L24.9751 30.2089L24.9252 30.2151ZM14.7654 30.7695H14.809L14.7716 30.8194L14.7654 30.7695ZM26.2894 31.4111V31.3675L26.3393 31.4049L26.2894 31.4111ZM44.6844 32.1773H44.6408L44.6782 32.1275L44.6844 32.1773ZM14.0801 32.6881V32.6445L14.13 32.6819L14.0801 32.6881ZM25.6914 33.3297H25.735L25.6977 33.3796L25.6914 33.3297ZM63.9389 33.3297H63.9826L63.9452 33.3796L63.9389 33.3297ZM25.0062 33.6723H25.0498L25.0125 33.7222L25.0062 33.6723ZM22.3152 34.0149V34.0586L22.2654 34.0212L22.3152 34.0149ZM12.7159 34.1831H12.7596L12.7222 34.233L12.7159 34.1831ZM22.6578 34.1831V34.2267L22.608 34.1894L22.6578 34.1831ZM12.1179 34.4385H12.1615L12.1242 34.4884L12.1179 34.4385ZM11.7753 34.613H11.8189L11.7816 34.6628L11.7753 34.613ZM11.6881 34.6939H11.7317L11.6944 34.7438L11.6881 34.6939ZM61.5905 35.0365V35.0801L61.5407 35.0428L61.5905 35.0365ZM61.9331 35.3792V35.4228L61.8833 35.3854L61.9331 35.3792ZM61.1233 35.6346H61.1669L61.1296 35.6844L61.1233 35.6346ZM64.3252 35.7654H64.2816L64.3189 35.7155L64.3252 35.7654ZM83.4053 35.7218H83.4489L83.4115 35.7716L83.4053 35.7218ZM78.7957 35.8899H78.8393L78.8019 35.9398L78.7957 35.8899ZM90.7932 36.6188H90.7496L90.787 36.5689L90.7932 36.6188ZM10.1495 37.4722V37.4286L10.1993 37.4659L10.1495 37.4722ZM89.9398 37.4722H89.8962L89.9335 37.4223L89.9398 37.4722ZM48.615 38.1138V38.1574L48.5652 38.12L48.615 38.1138ZM69.7446 38.1138H69.7882L69.7508 38.1636L69.7446 38.1138ZM47.9298 39.4344H47.9734H48.017L48.3472 39.5341C48.3659 39.5403 48.4157 39.5465 48.478 39.5652C48.5777 39.5963 48.4718 39.5714 48.6088 39.6088C48.7147 39.6337 48.6586 39.615 48.7396 39.6275C48.7521 39.6275 48.8642 39.6586 48.8767 39.6586C48.9701 39.6773 48.8891 39.6399 49.0012 39.6836H49.0448H49.0885H49.1321L49.9419 39.8517H49.9855C50.2159 39.9639 50.2284 39.8767 50.3717 39.939H50.4153C50.5399 39.995 50.7641 39.9888 50.8326 40.0137L51.8231 40.1944H51.8667C51.985 40.2442 51.8916 40.2068 52.0162 40.2255C52.0162 40.2255 52.1096 40.238 52.1159 40.2442C52.1968 40.2691 52.1657 40.2566 52.2093 40.2878C52.365 40.2255 52.2529 40.2878 52.3899 40.3127C52.4834 40.3252 52.3526 40.3065 52.4522 40.3127C52.7388 40.3252 52.8821 40.3812 53.0129 40.4061C53.1935 40.4373 53.2807 40.4311 53.3617 40.4622H53.4053H53.4489H53.4925C53.5984 40.512 53.7791 40.512 53.8663 40.5245L54.6761 40.6242C54.8193 40.6615 54.6449 40.7051 54.8131 40.6366H54.8567C55.137 40.7737 55.3426 40.6553 55.4983 40.7238H55.5419H55.5855H55.6291C55.7288 40.7674 55.9219 40.7425 56.0527 40.7737C56.1399 40.7924 56.0963 40.7799 56.1462 40.811C56.2645 40.7612 56.495 40.8422 56.7816 40.8547L57.3484 40.892C57.3733 40.8983 57.3983 40.9232 57.4668 40.892H57.5104L58.1395 40.9543C58.233 40.9543 58.2267 40.9356 58.3202 40.973H58.3638H58.4074H58.451C58.5631 41.0166 58.7126 40.9917 58.8247 40.9979C59.4913 41.0353 60.4443 40.973 60.9801 41.0664C61.1171 41.0914 61.8958 41.1038 62.0453 41.0602L62.2321 41.0415C62.363 41.0353 62.5 41.0166 62.8052 41.0166C62.6557 41.2346 62.7305 41.2159 62.6931 41.3094L62.3692 41.8389C62.3692 41.8451 62.363 41.8576 62.363 41.8576L62.338 41.9198C62.2944 42.0008 62.338 41.9012 62.2944 41.9821L62.2259 42.1316C62.1948 42.1877 62.2072 42.1628 62.1948 42.1939C62.1138 42.387 62.1076 42.2998 62.1013 42.4057C62.0951 42.5365 62.1262 42.3808 62.0951 42.5241C62.0639 42.6549 62.0203 42.7047 62.0141 42.8169C62.0079 42.9041 62.0266 42.929 62.0079 43.0349C61.9518 43.2841 61.9892 43.3214 61.9643 43.4772L61.9456 43.7139C61.9082 43.9568 61.9643 46.2429 61.9331 46.4859C61.9269 46.5295 61.9207 46.5357 61.902 46.6292L61.7649 48.2363C61.7649 48.2861 61.7712 48.2924 61.7649 48.3422C61.7587 48.4169 61.7525 48.4045 61.74 48.5291V48.5727L61.6777 49.4136C61.7089 49.6316 61.6341 49.233 61.6964 49.4759C61.7587 49.7189 61.659 49.3825 61.7027 49.669L61.5843 50.0988C61.3787 50.5287 61.2666 50.4414 61.061 50.7467C60.8991 50.8526 60.787 51.0021 60.6437 51.1391C60.4817 51.3011 60.4381 51.2886 60.5066 51.5939C60.5129 51.625 60.5253 51.6935 60.5316 51.6997C60.5938 51.9302 60.6001 52.5407 60.5316 52.7463C60.5316 52.7525 60.5253 52.7649 60.5253 52.7649C60.4381 53.0203 60.5378 52.8895 60.4506 53.039C60.3509 53.201 60.4319 53.1636 60.3821 53.4377C60.2948 53.9298 60.3073 53.5561 60.3135 54.1541C60.3135 54.2787 60.3073 54.2413 60.2948 54.4219V54.4655V54.5963V54.6399C60.3198 54.9763 60.3821 55.2255 60.3571 55.4996C60.3509 55.5993 60.3135 55.7737 60.3135 55.8422C60.3135 55.9356 60.3385 55.9605 60.2762 56.1101C60.2139 56.2533 60.2326 56.0914 60.2326 56.3779C60.2326 56.4776 60.245 56.5149 60.2263 56.6208C60.1516 56.9759 60.1204 57.1877 59.946 57.4867C59.8277 57.686 59.9336 57.5054 59.8775 57.6736L59.8152 57.8293C59.7467 58.01 59.7467 57.8729 59.7218 58.0224C59.6782 58.3401 59.7093 58.0536 59.647 58.2903C59.566 58.5955 59.7654 58.7201 59.4165 58.7139C59.3106 58.7139 59.2608 58.7388 59.1487 58.6952H59.1051C58.9992 58.6516 59.0801 58.6516 58.9742 58.6952H58.9306C58.831 58.6516 58.8497 58.6765 58.75 58.6703L58.5008 58.608C58.3949 58.6516 58.4759 58.6516 58.37 58.608H58.3264C58.2517 58.5706 58.1894 58.5581 58.1146 58.5208H58.071L57.6412 58.2654L57.2114 58.2155C57.0993 58.2716 57.1865 58.228 57.1304 58.2654C57.0743 58.2903 57.0806 58.2841 57.037 58.2903C57.0245 58.2903 56.9934 58.2965 56.9809 58.2965C56.875 58.309 56.7629 58.3152 56.6944 58.2591L56.4452 57.9228L56.3642 57.8792L56.277 57.9228L56.1898 58.01C55.9842 58.1595 56.196 58.0037 56.1088 58.147C56.0714 58.2093 56.0091 58.2342 55.9718 58.2965C55.8721 58.4647 56.0777 58.2404 55.9032 58.446C55.8347 58.527 55.8223 58.5145 55.76 58.608L55.6229 58.446C55.6167 58.4398 55.6229 58.4024 55.3301 58.3152C55.1806 58.2716 55.2305 58.3152 55.1246 58.2716H55.0623C54.9502 58.1968 54.9938 58.2031 54.8816 58.2031C54.7944 58.2031 54.7757 58.2218 54.6761 58.1844H54.6325C54.4892 58.2404 54.4767 58.1595 54.2463 58.2716H54.2027C54.1092 58.309 53.8289 58.309 53.7355 58.2716H53.6919C53.4614 58.1595 53.4489 58.2467 53.3056 58.1844H53.262C53.1125 58.2467 53.2247 58.1532 53.0502 58.2716C53.044 58.3277 53.0253 58.4522 53.0253 58.4522L52.9942 58.5145C52.9693 58.5893 52.9693 58.5332 52.963 58.6516L52.8758 58.608H52.8322C52.7326 58.5644 52.7263 58.6017 52.5581 58.5395C52.365 58.4709 52.4211 58.446 52.2778 58.3526H52.2342C52.1719 58.3152 52.1906 58.3339 52.1034 58.309C52.0473 58.3463 52.0349 58.3463 51.9788 58.4024L51.7857 58.745C51.7857 58.7512 51.7733 58.7512 51.767 58.7512L51.3123 58.6204C51.3061 58.6142 51.2936 58.608 51.2874 58.6017L50.9884 58.4336H50.9448L50.8638 58.3899C50.8264 58.4834 50.8513 58.4336 50.7953 58.5021L50.6582 58.7014C50.6084 58.7637 50.6084 58.7512 50.5586 58.8198L50.4713 58.7762H50.4527C50.1599 58.5831 50.1412 58.5332 49.7488 58.5332C49.1757 58.5332 49.4248 58.4336 49.0448 58.1782H49.0012C48.9514 58.2031 48.9327 58.2031 48.8829 58.228L48.1416 58.5581C47.9298 58.6453 48.0669 58.6578 47.936 58.608C47.8924 58.6391 47.936 58.6329 47.8488 58.6453C47.8177 58.6516 47.7118 58.6516 47.6806 58.6516C47.5125 58.6516 47.5374 58.6578 47.4252 58.608H47.3816L47.1076 58.5395C47.0266 58.5145 47.0017 58.5083 46.9456 58.4834C46.8335 58.4398 46.8895 58.446 46.8148 58.4211C46.7463 58.3962 46.7899 58.4211 46.6902 58.3962L46.2728 58.3027C46.1856 58.284 46.2292 58.2965 46.1856 58.2654H46.0548H46.0112H45.9676H45.924L45.7122 58.4336C45.6437 58.5395 45.6811 58.5145 45.4942 58.6017C45.488 58.608 45.4755 58.6142 45.463 58.6142C45.3073 58.6765 45.2139 58.6017 44.9834 58.9444C44.8713 58.8883 44.8401 58.9194 44.7155 58.8696C44.6096 58.826 44.7654 58.8696 44.6034 58.8135L44.0864 58.6889H44.0428C43.9306 58.6391 43.8808 58.664 43.7874 58.6017C43.6815 58.6453 43.7625 58.6453 43.6566 58.6017H43.613C43.5071 58.6453 43.588 58.6453 43.4821 58.6017H43.4385C43.3326 58.6453 43.4136 58.6453 43.3077 58.6017H43.2641C43.1894 58.6391 43.1271 58.6516 43.0523 58.6889H43.0087C42.8779 58.7762 42.9464 58.7326 42.8468 58.7637C42.772 58.7886 42.8156 58.7886 42.7595 58.7886C42.7533 58.7886 42.6474 58.7762 42.6225 58.7699H42.5789L42.0681 58.4273L41.9435 58.3339C41.9311 58.3463 41.9186 58.3463 41.9124 58.3588L41.6383 58.5145L41.5075 58.6017C41.4639 58.6329 41.5262 58.6017 41.4265 58.6516C41.4265 58.6516 41.3517 58.6827 41.3331 58.6889H41.2894C41.1649 58.7762 41.0154 58.8447 40.8223 58.8571H40.7787C40.6914 58.8945 40.6541 58.8945 40.5669 58.8571L40.6728 58.5395C40.7039 58.446 40.6914 58.446 40.6914 58.3463C40.6167 58.309 40.5544 58.2965 40.4796 58.2591L40.137 58.9007L39.7944 58.6889H39.7508L39.6636 58.6017L39.3646 58.4336C39.2899 58.5395 39.2961 58.5021 39.2276 58.6391L39.1528 58.8135C38.9722 58.8135 38.9784 58.8322 38.8538 58.7699L38.723 58.6827L38.6358 58.5955L38.5486 58.5083C38.3804 58.3837 38.5797 58.5394 38.4178 58.2093C38.2122 58.3463 38.3742 58.3214 38.2683 58.5706C38.1873 58.7637 38.2558 58.7512 38.2247 58.9194C38.2184 58.9568 38.2184 58.9381 38.206 58.9755C37.9568 58.9755 37.745 58.9693 37.6516 58.9319H37.608C37.5581 58.907 37.5394 58.907 37.4896 58.8821L37.0536 58.6765H37.01L36.9228 58.5893C36.8169 58.6329 36.8978 58.6329 36.7919 58.5893H36.7483C36.5926 58.5145 36.6362 58.5831 36.4992 58.4522C36.4057 58.365 36.387 58.3214 36.2749 58.2467L36.1877 58.1595L36.0569 58.0723L35.8887 57.9041C35.814 57.8542 35.7953 57.8418 35.7018 57.7919C35.5897 57.7234 35.5959 57.711 35.5025 57.6487H35.4589C35.2159 57.4867 35.4402 57.5801 35.1287 57.4929C35.1225 57.4929 35.0976 57.4805 35.0851 57.4743L34.5245 57.3061C34.4684 57.2874 34.4061 57.2625 34.3376 57.2313L34.1321 57.1379H34.0885C34.0137 57.1005 33.9514 57.088 33.8767 57.0507C33.8704 57.0444 33.8517 57.0257 33.8517 57.032L33.7147 56.9572C33.4032 56.8015 33.4157 56.7454 33.26 56.5149C33.1914 56.4153 33.1977 56.4838 33.1728 56.3779C33.1478 56.2969 33.2164 56.3156 33.1416 56.1038L33.1105 56.0228C33.0731 55.8983 33.0918 55.8235 33.1167 55.7238L33.1665 55.4248C33.1728 55.2753 33.2849 54.9763 33.3285 54.8517C33.3783 54.696 33.2787 54.8144 33.3783 54.6399C33.4406 54.5403 33.4095 54.5963 33.4219 54.5465L33.4718 54.3908C33.5527 54.2039 33.4904 54.3472 33.5029 54.2226C33.5216 54.0544 33.5154 54.26 33.5963 54.0108C33.5963 54.0046 33.6026 53.9921 33.6026 53.9859L33.7645 53.581C33.7645 53.5747 33.7708 53.5623 33.7708 53.5623C33.7708 53.5561 33.777 53.5436 33.7832 53.5436C33.9327 53.2695 33.7894 53.4502 33.858 53.3131C33.858 53.3069 33.8704 53.3007 33.8704 53.2944L34.0822 52.9643C34.0822 52.9581 34.0885 52.9456 34.0947 52.9456L34.3127 52.3289C34.3937 52.1919 34.3563 52.3414 34.3625 52.1794C34.3688 52.0735 34.3501 52.1358 34.4248 52.0174V51.9738C34.4809 51.8368 34.4061 52.0237 34.4435 51.8991C34.4996 51.6997 34.512 51.9178 34.5307 51.6624L34.593 51.4506C34.6117 51.3945 34.6117 51.4132 34.6179 51.3634L34.6491 51.2076C34.7425 51.0021 34.6927 51.0519 34.7051 50.9522C34.7114 50.9024 34.7114 50.9211 34.7301 50.8713C34.8173 50.6034 34.9481 49.5943 34.8546 49.3638C34.9232 49.3576 35.0042 49.3513 35.0166 49.3451C35.1412 49.3202 35.1537 49.2267 35.3468 49.0835L35.5399 48.9153L35.5523 48.9028L35.6395 48.7845C35.7143 48.691 36.0631 48.3609 36.0818 48.1802C36.0818 48.174 36.0818 48.1615 36.0818 48.1553C36.0818 47.9311 35.8576 47.9934 35.9946 47.7629L36.2126 47.6134C36.2811 47.5822 36.331 47.5635 36.3933 47.5386H36.4369C36.5116 47.5012 36.5739 47.4888 36.6487 47.4514H36.6923C36.7234 47.439 36.7608 47.4265 36.7857 47.414C36.9601 47.3331 37.1221 47.2209 37.4211 47.3642C37.4273 47.3704 37.446 47.3704 37.446 47.3829L37.4896 47.414C37.4958 47.414 37.5021 47.4265 37.5083 47.4265L37.608 47.5137C37.8509 47.713 37.5394 47.5448 37.7637 47.7006L38.0066 48.0058C38.1312 48.1429 38.3617 48.3858 38.5797 48.5042L39.1279 48.8966L39.2151 48.9838C39.2213 48.99 39.24 48.99 39.24 49.0025C39.2463 49.0149 39.2587 49.0149 39.2649 49.0212L39.5889 49.2953C39.7072 49.4198 39.8505 49.7749 39.919 49.9369C39.919 49.9431 39.9252 49.9556 39.9252 49.9556L40.162 50.4041C40.2554 50.6096 40.081 50.4539 40.3738 50.5972L40.5357 50.6906L40.6665 50.7778L40.7537 50.865H40.7973C40.8845 50.9211 40.8596 50.9149 40.9344 50.9834C41.0652 51.108 40.9967 51.027 41.115 51.0955C41.196 51.1453 41.1898 51.164 41.2583 51.2076L42.0307 51.7994L42.4605 52.3538V52.3974L42.6474 52.7276C42.691 52.8272 42.5789 52.7213 42.7159 52.821L43.2392 53.5561C43.2392 53.5623 43.2454 53.5747 43.2454 53.5747C43.2454 53.581 43.2517 53.5872 43.2579 53.5934L43.5071 53.936C43.5071 53.9423 43.5133 53.9547 43.5133 53.9547C43.5133 53.961 43.5195 53.9734 43.5257 53.9734L43.588 54.0793C43.588 54.0855 43.5943 54.098 43.5943 54.098C43.5943 54.1042 43.6005 54.1167 43.6005 54.1167C43.6503 54.2226 43.6503 54.1478 43.7625 54.3285C43.7998 54.3908 43.6441 54.2911 43.8434 54.4032C43.9618 54.4655 43.887 54.4531 44.0428 54.4655C43.9992 54.5714 44.0116 54.6213 44.0615 54.7458C44.1487 54.9639 44.0552 54.8517 44.1674 54.9389L44.4228 55.1944C44.4414 55.238 44.4414 55.2878 44.4477 55.2878C44.4477 55.294 44.4539 55.3065 44.4539 55.3127C44.4539 55.3189 44.4601 55.3314 44.4664 55.3314C44.5162 55.4186 44.4664 55.3065 44.5162 55.3937C44.5723 55.4934 44.5785 55.9481 44.5972 56.0042V56.0478C44.6408 56.5336 44.6408 56.3032 44.6968 56.4402C44.7467 56.571 44.6159 56.3779 44.7716 56.6769C44.8588 56.8451 44.6595 56.571 44.9211 57.0444C44.9273 57.0507 44.9336 57.0631 44.9398 57.0694C44.9647 57.1254 44.946 57.1067 44.9585 57.1441C44.9772 57.1877 44.9585 57.169 45.0021 57.2251C45.2699 57.5801 45.027 57.3434 45.2014 57.5303C45.2637 57.5926 45.3011 57.6238 45.3634 57.6674H45.407C45.8119 57.8605 46.4722 57.8605 46.7276 57.7546H46.7712C46.8958 57.6923 46.9456 57.7297 47.0702 57.6674H47.1138L47.5187 57.5552C47.7492 57.4805 47.6433 57.549 47.9298 57.412H47.9734L48.4593 57.1752C48.4655 57.169 48.478 57.1628 48.4842 57.1566C48.6213 57.0631 48.5465 57.0444 48.7396 57.0257C48.6586 56.8264 48.8891 57.0631 48.4282 56.6084C48.2787 56.4589 48.1229 56.3405 48.0108 56.1723L47.8426 56.0042L47.7554 55.9169L47.3256 55.4871L47.2384 55.3999C47.0017 55.238 47.0577 55.1632 46.7525 54.9888C46.7463 54.9888 46.7338 54.9763 46.7276 54.9701L46.4722 54.8019L46.0735 54.5652C46.0673 54.559 46.0548 54.5527 46.0486 54.5465L45.762 54.3659C45.7184 54.3347 45.7184 54.3285 45.6686 54.2911L45.5814 54.2039L45.4942 54.1167L45.2388 53.6557C45.2388 53.6495 45.2326 53.637 45.2263 53.637L45.1827 53.5311C45.164 53.5 45.1391 53.4813 45.108 53.4315C45.027 53.3754 45.0644 53.3941 45.0457 53.3567C45.0457 53.3505 45.0394 53.338 45.0394 53.338L44.5972 52.5781C44.5473 52.5469 44.5723 52.5843 44.5411 52.522L44.4228 52.2355C44.2546 52.1171 44.3978 52.2417 44.3418 52.061C44.3044 51.9365 44.2795 51.9489 44.1923 51.8617L43.831 51.2886C43.831 51.2824 43.8247 51.2762 43.8185 51.2762L43.7438 51.1827C43.613 50.9086 43.5444 50.9086 43.5818 50.6034C43.6005 50.4539 43.7562 50.5224 43.6254 50.1362L43.2205 49.3389L42.8779 48.8281L42.7658 48.691C42.6848 48.5976 42.8094 48.6412 42.5664 48.4979C42.5602 48.4917 42.5478 48.4855 42.5415 48.4792C42.4792 48.4356 42.5104 48.4543 42.4668 48.4294L42.1678 48.3297C42.1553 48.3297 42.1179 48.3173 42.0993 48.311L41.794 48.1117C41.7878 48.1055 41.7753 48.0993 41.7691 48.093C41.6009 47.9311 41.6196 47.9311 41.6134 47.8501C41.5947 47.4639 41.6943 47.3517 41.5511 46.9967L41.4514 46.7849C41.4514 46.7787 41.4452 46.7662 41.4452 46.7662L41.3393 46.6042C41.2272 46.5233 41.2832 46.5357 41.2645 46.5108C41.2645 46.5108 41.2583 46.4983 41.2521 46.4921L41.2396 46.4796L41.0029 46.2056C40.8036 46 41.0403 46.1806 40.8783 45.9938C40.7911 45.8879 40.735 45.8692 40.6541 45.7508L40.9967 45.539C41.1462 45.3148 41.0403 45.564 41.3704 45.2276C41.495 45.0968 41.6258 44.9971 41.7255 44.8538L41.8563 44.941L42.1553 45.1092C42.2737 45.1653 42.3796 45.1466 42.5042 45.2276C42.6101 45.2961 42.5104 45.2961 42.61 45.3708L43.1333 45.7072H43.1769L43.3513 45.8256C43.4385 45.8754 43.37 45.8256 43.4635 45.8879C43.5071 45.919 43.5071 45.9252 43.5569 45.9626H43.6005C43.6939 46.0249 43.6815 46.0311 43.7625 46.0997L43.9431 46.218L44.0739 46.3052L44.6283 46.735L44.9273 46.9904L45.0145 47.0777L45.0706 47.1088C45.1267 47.1399 45.0893 47.115 45.1516 47.1524L46.0424 47.9248C46.1483 48.0681 46.0361 47.9435 46.1358 47.9934L46.7463 48.5104C46.7463 48.5104 46.7525 48.5228 46.7587 48.5228C46.7587 48.5228 46.7649 48.5353 46.7712 48.5353C46.7774 48.5353 46.7836 48.5478 46.7899 48.5478C46.7961 48.554 46.8086 48.5602 46.8086 48.5664L46.8584 48.5976L47.201 48.9402C47.3007 49.0025 47.4128 49.1084 47.4875 49.2081L47.9921 49.8123C48.0793 49.9306 47.9859 49.9182 48.179 50.049L48.2662 50.1362L48.3534 50.2234L48.5216 50.3916C48.559 50.4477 48.5901 50.4726 48.6088 50.51L48.7209 50.7031C48.7583 50.7591 48.7396 50.728 48.7521 50.7654L48.7708 50.8277C48.7708 50.8339 48.777 50.8463 48.777 50.8463C48.8268 51.0145 48.9203 51.1204 49.0199 51.2512L49.1321 51.3945C49.1383 51.4007 49.1507 51.407 49.157 51.4132C49.2068 51.4506 49.1757 51.4132 49.213 51.4693L49.294 51.6125C49.3688 51.7745 49.456 51.762 49.6366 51.9053L49.7924 52.061L49.8048 52.0735L49.8173 52.086L49.8297 52.0984L49.8422 52.1109C49.8671 52.1358 49.8609 52.1296 49.8858 52.1545L50.0166 52.304C50.0228 52.3102 50.0291 52.3164 50.0353 52.3227C50.0789 52.3725 50.0976 52.385 50.0976 52.385L50.1412 52.4286C50.1474 52.441 50.1723 52.4659 50.1786 52.4784C50.4651 52.8148 50.9198 53.1574 51.1067 53.4626C51.1254 53.4938 51.1005 53.4813 51.169 53.5374C51.3372 53.6557 51.25 53.6806 51.4244 53.7928L51.7359 54.2039C51.7919 54.2911 51.7919 54.2787 51.8418 54.397L51.8667 54.4655C51.9539 54.696 51.9414 54.4904 51.9539 54.696C51.9664 54.858 51.9726 54.6836 52.0411 54.9763L52.4647 56.1723C52.5457 56.3717 52.5519 56.272 52.6578 56.4402L52.826 56.6084C53.0129 56.733 52.9506 56.7392 52.9942 56.8015L53.0752 56.8825C53.0814 56.8887 53.0876 56.8949 53.0939 56.8949L53.1686 56.9448C53.2558 56.9821 53.343 56.9759 53.5424 56.9946C53.7728 57.0195 54.3023 57.0195 54.4892 56.9448H54.5328C54.5577 56.9323 54.6076 56.9136 54.6262 56.9074C54.7072 56.87 54.6636 56.8887 54.7072 56.8576C54.8505 56.789 55.0187 56.8015 55.081 56.7953C55.1246 56.7953 55.4547 56.7205 55.517 56.6894H55.5606L55.76 56.6333C55.7662 56.6333 55.7849 56.6208 55.7911 56.6208C55.7973 56.6208 55.8098 56.6146 55.816 56.6084C55.8721 56.5772 55.9282 56.5648 55.9967 56.5336C56.0777 56.4963 55.9904 56.5336 56.0839 56.49C56.1337 56.4651 56.1524 56.4651 56.2022 56.4402H56.2458C56.3829 56.3468 56.3081 56.3281 56.5012 56.3094C56.4576 56.1973 56.4826 56.0104 56.4826 55.9356C56.4826 55.8546 56.495 55.8484 56.4389 55.7301L56.3953 55.6366C56.3393 55.456 56.3331 55.537 56.1462 55.4747C55.8721 55.3937 56.3206 55.4622 55.7724 55.1196C55.7226 55.0885 55.7101 55.0698 55.6478 55.0262H55.6042L55.3675 54.8767C55.3177 54.8517 55.2865 54.8393 55.2554 54.8206L55.0374 54.7022C54.8754 54.6337 54.9003 54.559 54.7072 54.4282C54.6325 54.3223 54.6387 54.3409 54.5203 54.2724C54.5141 54.2662 54.5017 54.26 54.4954 54.2537L54.0656 53.9983L53.9784 53.9111L53.8102 53.7429C53.5361 53.5561 53.1811 53.0889 52.9755 52.9518L52.7201 52.6466C52.7076 52.6217 52.7139 52.6092 52.6827 52.5656L51.9975 51.5378C51.9664 51.4942 51.9477 51.4942 51.9103 51.4506C51.7296 51.2388 51.9664 51.4755 51.8293 51.2824C51.7733 51.2076 51.7359 51.1952 51.6674 51.1017C51.4431 50.9398 51.7296 51.1329 51.549 50.9211L50.9697 50.1736C50.9136 50.1113 50.9198 50.13 50.87 50.0615L50.4651 49.5694L50.3779 49.4821C50.3281 49.4448 50.353 49.4884 50.3218 49.4261C50.3218 49.4198 50.3156 49.4074 50.3156 49.4074C50.1412 49.0461 50.3094 49.1582 50.0353 48.9713L49.7674 48.554C49.7488 48.5228 49.7238 48.5042 49.6927 48.4543C49.5556 48.3546 49.6615 48.4169 49.6055 48.3235L49.4684 48.1429C49.4124 48.0245 49.5183 48.1615 49.4311 48.037C49.3252 47.8875 49.1321 47.7691 49.0137 47.6009L48.8455 47.4327C48.7147 47.3393 48.5901 47.115 48.4904 46.9282C48.3659 46.7039 48.3845 46.8285 48.3409 46.6852L48.0108 45.838C47.9983 45.782 48.017 45.7384 48.0046 45.6885C47.9547 45.539 47.9672 45.7757 47.9236 45.3646C47.9049 45.2089 47.7492 44.6358 47.7554 44.3368L47.5 43.4211C47.4875 43.3775 47.5 43.4086 47.4751 43.365C47.3318 43.1283 47.5125 43.5021 47.4252 43.2965C47.3194 43.0473 47.5623 43.3401 47.2695 42.7795L47.2135 42.6487C47.2072 42.6424 47.201 42.6362 47.1948 42.63L47.1387 42.468L47.0764 42.331C47.0764 42.3248 47.0764 42.3123 47.0764 42.3061L46.6964 41.5399C46.6902 41.5336 46.684 41.5212 46.6777 41.5212L46.4722 41.2159C46.2542 40.8422 46.2853 41.0228 46.1109 40.7674C45.7932 40.5993 45.8617 40.5307 45.8306 40.375L45.7994 40.1196C45.7994 39.9078 45.8119 39.5839 45.7434 39.3846L45.6437 38.8052L46.5905 38.9921C46.6902 39.017 46.5656 38.9796 46.659 39.0046L46.7213 39.0295C46.7525 39.0419 46.9705 39.0793 47.0017 39.0918C47.1262 39.1354 46.9767 39.098 47.1325 39.1541L47.2571 39.179C47.2633 39.179 47.2757 39.1852 47.2757 39.1852L47.7056 39.2973C47.7492 39.3036 47.718 39.2849 47.7803 39.316C47.9111 39.4095 47.8987 39.4095 47.9298 39.4344ZM10.3239 39.179V39.1354L10.3738 39.1728L10.3239 39.179ZM89.5972 39.5216H89.5536L89.5909 39.4718L89.5972 39.5216ZM10.9219 40.1196V40.076L10.9718 40.1134L10.9219 40.1196ZM11.0029 40.2006V40.157L11.0527 40.1944L11.0029 40.2006ZM85.8409 42.9352H85.7973L85.8347 42.8854L85.8409 42.9352ZM89.0801 43.1034H89.0365L89.0739 43.0536L89.0801 43.1034ZM84.9875 43.7886H84.9439L84.9813 43.7388L84.9875 43.7886ZM41.9124 44.9846V44.941L41.9622 44.9784L41.9124 44.9846ZM44.13 46.3488V46.3052L44.1798 46.3426L44.13 46.3488ZM15.787 46.6914V46.6478L15.8368 46.6852L15.787 46.6914ZM44.9834 47.0341V46.9904L45.0332 47.0278L44.9834 47.0341ZM45.0706 47.115V47.0714L45.1204 47.1088L45.0706 47.115ZM37.4709 47.3767V47.3331L37.5208 47.3704L37.4709 47.3767ZM37.8135 47.713V47.6694L37.8634 47.7068L37.8135 47.713ZM46.0984 47.9684V47.9248L46.1483 47.9622L46.0984 47.9684ZM83.2745 48.2301H83.2309L83.2683 48.1802L83.2745 48.2301ZM79.3065 49.0835C79.3812 49.2641 79.4124 49.3202 79.4124 49.5444C79.4186 49.8497 79.3376 49.7438 79.3252 49.9306C79.3189 50.0365 79.3563 49.9493 79.3065 50.0677C79.2006 50.2234 79.2878 50.1736 79.2068 50.3106L78.914 50.9086C78.8704 51.0457 78.9327 50.946 78.8642 51.1142L78.7832 51.2948C78.7832 51.2948 78.7708 51.3073 78.7645 51.3073L78.6649 51.4257L78.4967 51.5939L78.3659 51.6811L77.936 51.9365C77.8426 51.9988 77.8862 51.9801 77.7679 52.0299C77.7554 52.0361 77.6869 52.0548 77.6744 52.061C77.5498 52.1171 77.6619 52.061 77.5934 52.1109C77.5374 52.1358 77.5311 52.1358 77.4688 52.1607C77.3816 52.1981 77.4564 52.1794 77.3692 52.2105C77.3193 52.2292 77.2384 52.2292 77.1262 52.2853H77.0826C76.9767 52.3351 76.7961 52.3476 76.7525 52.3601L76.4036 52.4161C76.4036 52.3227 76.4036 52.2604 76.4099 52.1669L76.4036 51.5191L76.5718 51.3883L76.659 51.3011C76.6653 51.2948 76.684 51.2762 76.684 51.2824L76.8584 51.1952C76.8646 51.1952 76.9207 51.189 76.9581 51.1765C77.039 51.1516 77.0203 51.1578 77.0826 51.1267H77.1262C77.1823 51.1017 77.2134 51.0955 77.2757 51.0644C77.5872 50.9149 77.4315 51.0394 77.6433 50.9211L77.7243 50.8713H77.7679C77.7741 50.865 77.7928 50.8463 77.7928 50.8526L78.2413 50.5785C78.397 50.4975 78.4032 50.5224 78.4718 50.348L78.5527 50.211C78.7209 49.9057 78.5527 49.6815 78.5527 49.1956C78.5527 49.1022 78.5527 49.0461 78.5527 48.9402L78.5901 48.691L78.9888 48.6723C79.1258 48.691 79.0511 48.7097 79.1445 48.853L79.2504 49.0025C79.2566 49.0087 79.2629 49.0212 79.2629 49.0274C79.2691 49.0336 79.2753 49.0461 79.2816 49.0523C79.294 49.0586 79.3002 49.071 79.3065 49.0835ZM16.983 48.909V48.8654L17.0328 48.9028L16.983 48.909ZM39.1777 48.909V48.8654L39.2276 48.9028L39.1777 48.909ZM39.2649 48.9963V48.9527L39.3148 48.99L39.2649 48.9963ZM79.3065 49.0835V49.0399L79.3563 49.0772L79.3065 49.0835ZM71.5822 49.6815H71.5386L71.576 49.6316L71.5822 49.6815ZM71.2396 49.8497H71.196L71.2334 49.7998L71.2396 49.8497ZM48.2288 50.1051V50.0615L48.2787 50.0988L48.2288 50.1051ZM79.3065 50.0615H79.3501L79.3127 50.1113L79.3065 50.0615ZM48.316 50.1923V50.1487L48.3659 50.186L48.316 50.1923ZM48.4032 50.2733V50.2296L48.4531 50.267L48.4032 50.2733ZM70.4734 50.2733H70.4298L70.4672 50.2234L70.4734 50.2733ZM48.5714 50.4477V50.4041L48.6213 50.4414L48.5714 50.4477ZM72.5602 50.7031V50.6595L72.61 50.6968L72.5602 50.7031ZM40.7164 50.7903V50.7467L40.7662 50.7841L40.7164 50.7903ZM61.0361 50.7467H61.0797L61.0424 50.7965L61.0361 50.7467ZM77.7305 50.8713H77.6869L77.7243 50.8214L77.7305 50.8713ZM68.3368 51.5565H68.2932L68.3306 51.5066L68.3368 51.5565ZM78.3659 51.6873H78.4095L78.3721 51.7371L78.3659 51.6873ZM21.9788 51.8119H21.9352L21.9726 51.762L21.9788 51.8119ZM29.8339 51.8991L30.0021 52.0673C30.1204 52.1545 30.0332 52.1046 30.0893 52.2043L30.2263 52.522C30.2699 52.6466 30.245 53.4564 30.2076 53.6308L30.1204 54.0669C30.0519 54.1852 30.0831 54.0606 30.0644 54.1728C30.0581 54.2039 30.0768 54.235 30.0644 54.2849C30.0083 54.5963 30.0394 54.1354 29.9709 54.7708C29.9522 54.9203 29.9398 55.0448 29.9398 55.0947C29.9273 55.4747 29.8837 55.4684 29.8214 55.674C29.7903 55.7674 29.8526 55.7363 29.7965 55.8733C29.6221 55.9979 29.809 55.7612 29.6657 56.2969L29.6408 56.5648C29.6283 56.6956 29.5598 56.571 29.6283 56.7267V56.7703C29.5847 56.8762 29.5847 56.7953 29.6283 56.9012V56.9448L29.6906 57.3061C29.7903 57.5428 29.647 57.3808 29.9273 57.711C29.9336 57.7172 29.9398 57.7296 29.946 57.7359L30.0519 57.8418C30.0581 57.848 30.0706 57.8542 30.0768 57.8605C30.1267 57.8978 30.1267 57.9103 30.164 57.9414C30.3571 58.1034 30.4132 57.9726 30.5627 58.1844C30.407 58.2591 30.4257 58.1719 30.3509 58.3152V58.907C30.1952 58.8945 30.2263 58.8821 30.1267 58.8821C30.0394 58.8821 30.0208 58.9007 29.9273 58.8634H29.8837C29.7529 58.9257 29.5847 58.9194 29.4477 58.8696C29.3355 58.826 29.485 58.8696 29.3605 58.8322C29.1985 58.7824 29.049 58.8073 28.9244 58.8883C28.8559 58.9381 28.9057 58.9007 28.8808 58.9381C28.8808 58.9444 28.8746 58.9506 28.8746 58.9568C28.8746 58.963 28.8684 58.9755 28.8684 58.9755C28.8061 59.0876 28.7749 59.0689 28.6877 59.1997C28.6254 59.2371 28.6441 59.2184 28.5569 59.2434L28.532 59.1935L28.5195 59.1811C28.5133 59.1748 28.4946 59.1624 28.4884 59.1561C28.4012 59.0565 28.4946 59.0752 28.3077 58.9506H28.2641L28.1707 58.8945C28.1644 58.8945 28.152 58.8883 28.152 58.8883C28.1458 58.8883 28.1333 58.8821 28.1333 58.8821L27.9277 58.8198C28.0149 58.608 27.8343 58.4958 27.5851 58.4772L27.4481 58.745C27.3235 59.0004 27.3546 59.0689 27.1802 59.0689C27.174 59.0689 27.1615 59.0689 27.1553 59.0689C27.1491 59.0689 27.1366 59.0627 27.1304 59.0627C27.0307 59.044 27.1304 59.0627 27.0681 59.044C26.7629 58.9381 26.4888 59.0502 26.3642 59.0129C25.9842 58.9007 26.059 59.1125 25.6478 59.0752C25.4796 59.0565 25.461 59.0316 25.3613 59.1188C25.2803 59.1935 25.2928 59.1997 25.1993 59.262L25.0311 58.963C24.9252 58.9194 25.0062 58.9194 24.9003 58.963H24.8567H24.8131H24.7695H24.7259H24.6636L24.0096 59.2309C23.86 59.2807 23.5984 59.2683 23.4302 59.2122L22.8198 58.9568H22.7762H22.7326H22.689H22.6453H22.6017C22.4958 58.9132 22.5768 58.9132 22.4709 58.9568H22.4273L22.2467 59.0752C22.1782 59.125 22.2218 59.0814 22.1968 59.1188L22.0224 59.3742C22.0224 59.3804 22.0162 59.3929 22.0162 59.3929C21.9788 59.4863 21.8667 59.7479 21.7857 59.8102C21.7421 59.8787 21.7857 59.8787 21.7421 59.8102L21.6051 59.804C21.5988 59.804 21.5739 59.7978 21.5615 59.7915C21.2189 59.6545 21.2438 59.1935 21.1939 58.8696L21.169 58.1159L21.3123 57.549C21.3497 57.4867 21.387 57.3933 21.4182 57.3247L21.5054 57.1815C21.6923 56.9635 21.549 57.1254 21.6175 56.951C21.6362 56.9198 21.6424 56.9261 21.6674 56.87C21.6736 56.8576 21.6985 56.789 21.6985 56.7766C21.7982 56.5274 21.8231 56.135 21.711 55.8796L21.5988 55.5556C21.5988 55.5556 21.6051 55.5432 21.5864 55.4871L21.5054 55.2566C21.5054 55.2504 21.4992 55.238 21.4992 55.2317C21.4618 55.1383 21.5054 55.2691 21.4618 55.1507L21.4182 54.9763C21.3808 54.8891 21.4244 55.0137 21.3808 54.8953C21.3372 54.7832 21.3372 54.5216 21.3621 54.4157C21.3933 54.2911 21.3933 54.3347 21.4244 54.2226C21.468 54.0731 21.4182 53.9547 21.4618 53.799L21.5241 53.4564C21.5179 53.0764 21.5739 53.4689 21.6113 52.8584L21.6923 52.2791C21.7047 52.1233 21.9228 51.8929 21.9726 51.8243L22.2716 51.5689L22.8696 51.1391C22.8758 51.1329 22.8945 51.1142 22.8945 51.1204C22.9007 51.1267 22.9132 51.108 22.9194 51.1017C22.9257 51.0955 22.9381 51.0893 22.9444 51.0893C22.9506 51.0831 22.963 51.0768 22.9755 51.0768L23.2932 50.8837H23.3368C23.5673 50.7716 23.561 50.8588 23.7542 50.6595C23.8663 50.5411 23.9784 50.4539 24.0656 50.3293C24.2213 50.4352 24.103 50.429 24.2338 50.3729H24.2774C24.4082 50.4352 24.4269 50.4041 24.6013 50.429L25.4298 50.6283H25.4734H25.517H25.5606C25.5855 50.6408 25.6354 50.6595 25.6541 50.6657C25.735 50.7031 25.6914 50.6844 25.735 50.7155H25.7787H25.8223C25.897 50.7529 26.059 50.7778 26.1586 50.8027C26.2708 50.8277 26.3081 50.809 26.4639 50.8837H26.5075C26.5822 50.9211 26.5511 50.9149 26.657 50.9398C26.6632 50.9398 26.6757 50.9398 26.6819 50.946C26.6881 50.946 26.7006 50.946 26.7068 50.9522C26.713 50.9522 26.7255 50.9585 26.7317 50.9585L26.7753 50.9709C26.7816 50.9709 26.8065 50.9834 26.8189 50.9896L27.0681 51.0644H27.1117L27.4855 51.1516C27.4917 51.1516 27.5042 51.1578 27.5042 51.1578L27.7409 51.2326C27.7595 51.2388 27.7845 51.2512 27.8032 51.2512C27.9464 51.2824 28.2392 51.3198 28.4323 51.3945H28.4759L29.2234 51.5876C29.2982 51.6188 29.3169 51.625 29.3729 51.6499H29.4165L29.5972 51.7247C29.6034 51.7309 29.6159 51.7371 29.6283 51.7371L29.7716 51.8493C29.7778 51.8555 29.7903 51.8617 29.7903 51.8679L29.8339 51.8991ZM42.0806 51.8119V51.7683L42.1304 51.8056L42.0806 51.8119ZM81.7421 51.8119H81.6985L81.7359 51.762L81.7421 51.8119ZM77.9423 51.9427H77.9859L77.9485 51.9925L77.9423 51.9427ZM74.186 52.1545V52.1109L74.2359 52.1483L74.186 52.1545ZM77.5997 52.1109H77.6433L77.6059 52.1607L77.5997 52.1109ZM62.4439 58.6017H62.4003C62.338 58.6453 62.3692 58.6267 62.3256 58.6516L62.282 58.664C62.1449 58.7139 61.902 58.8322 61.7587 58.7699H61.7151L61.3725 58.6017V58.0037C61.4348 57.6113 61.3164 57.6923 61.4535 57.4867V57.4431C61.522 57.2749 61.4535 57.4369 61.4784 57.3185C61.4784 57.3061 61.4909 57.2749 61.4909 57.2625C61.5158 57.2002 61.5158 57.2126 61.5407 57.1815L61.5843 56.9261C61.7712 56.7953 61.5594 57.0008 61.7027 56.6644C61.7276 56.6022 61.7836 56.3468 61.8833 56.2035V56.1599C61.9456 56.0104 61.8522 56.1225 61.9705 55.9481V55.9045C62.0266 55.7674 61.9518 55.9543 61.9892 55.8297C61.9954 55.8048 61.9954 55.7924 62.0141 55.7674C62.0515 55.6927 62.0639 55.7737 62.0826 55.6366L62.4875 54.7521V54.7085C62.6495 54.4655 62.5561 54.5465 62.6433 54.4406L63.0606 53.7492C63.1167 53.6184 63.1042 53.6557 63.1665 53.5561V53.5125L63.2973 52.8272C63.3908 52.6964 63.3098 52.7525 63.4531 52.4784C63.4718 52.441 63.4344 52.4722 63.4904 52.4223L63.6399 52.3164L63.9826 52.1856L63.9639 56.3779C63.9639 56.9635 63.8829 57.2126 63.8767 57.5303V58.3837C63.8767 58.4024 63.9078 58.5457 63.8206 58.5581L63.5652 58.5332C63.4032 58.4958 63.3783 58.4647 63.1354 58.446C62.8675 58.4398 62.6993 58.4772 62.4439 58.6017ZM63.6399 52.3227H63.5963L63.6337 52.2728L63.6399 52.3227ZM66.7172 52.4971H66.6736L66.711 52.4473L66.7172 52.4971ZM42.7658 52.8397V52.7961L42.8156 52.8335L42.7658 52.8397ZM63.2973 52.8397H63.2537L63.2911 52.7899L63.2973 52.8397ZM78.6649 53.1761H78.6213L78.6586 53.1262L78.6649 53.1761ZM51.2188 53.6059V53.5623L51.2687 53.5997L51.2188 53.6059ZM51.4743 53.8613V53.8177L51.5241 53.8551L51.4743 53.8613ZM77.4688 54.0295H77.4252L77.4626 53.9796L77.4688 54.0295ZM45.5378 54.1603V54.2039L45.488 54.1665L45.5378 54.1603ZM76.9581 54.2039H76.9145L76.9518 54.1541L76.9581 54.2039ZM45.625 54.2475V54.2911L45.5752 54.2537L45.625 54.2475ZM45.7122 54.3285V54.3721L45.6624 54.3347L45.7122 54.3285ZM54.7633 54.5029V54.5465L54.7135 54.5091L54.7633 54.5029ZM44.2172 54.9701V54.9265L44.267 54.9639L44.2172 54.9701ZM44.4726 55.2255V55.1819L44.5224 55.2193L44.4726 55.2255ZM29.7903 55.8671H29.8339L29.7965 55.9169L29.7903 55.8671ZM55.8721 56.6769H55.8285L55.8659 56.6271L55.8721 56.6769ZM21.6362 56.9323H21.5926L21.63 56.8825L21.6362 56.9323ZM54.7633 56.9323H54.7197L54.7571 56.8825L54.7633 56.9323ZM61.5905 56.9323H61.5469L61.5843 56.8825L61.5905 56.9323ZM33.9265 57.0631V57.1067L33.8767 57.0694L33.9265 57.0631ZM44.9834 57.1067V57.0631L45.0332 57.1005L44.9834 57.1067ZM48.5278 57.1939H48.4842L48.5216 57.1441L48.5278 57.1939ZM56.2583 57.9165H56.3019L56.2645 57.9664L56.2583 57.9165ZM56.1711 58.0037H56.2147L56.1773 58.0536L56.1711 58.0037ZM36.2375 58.1719V58.2155L36.1877 58.1782L36.2375 58.1719ZM19.2006 58.2591H19.2442L19.2068 58.309L19.2006 58.2591ZM36.3185 58.2591V58.3027L36.2687 58.2654L36.3185 58.2591ZM57.1117 58.2591H57.1553L57.1179 58.309L57.1117 58.2591ZM30.6437 58.2155H30.6873C30.9925 58.0909 31.5905 58.228 31.9269 58.3837C32.0702 58.4834 32.2944 58.5768 32.2944 58.7762C32.2944 58.8571 32.2882 58.8945 32.2944 58.988C32.2944 59.125 32.3256 59.0876 32.2321 59.2309L32.1449 59.1873L32.0141 59.1001L31.8459 58.9319C31.659 58.8073 31.8148 58.8945 31.5843 58.8758L31.3725 58.7824C31.3663 58.7824 31.36 58.7699 31.36 58.7699L31.3227 58.7263L31.3102 58.7139L31.2978 58.7014L31.2853 58.6889L30.9614 58.4273C30.9178 58.4585 30.9801 58.4273 30.8804 58.4772C30.8804 58.4772 30.8056 58.5083 30.787 58.5145H30.7434C30.6063 58.4149 30.7122 58.5145 30.6686 58.3962C30.6624 58.3775 30.6375 58.3339 30.6375 58.3214C30.5876 58.1221 30.5939 58.2778 30.6437 58.2155ZM31.9207 58.3837V58.3401L31.9705 58.3775L31.9207 58.3837ZM41.657 58.5145H41.7006L41.6632 58.5644L41.657 58.5145ZM55.7413 58.6017H55.7849L55.7475 58.6516L55.7413 58.6017ZM38.8787 58.7699V58.8135L38.8289 58.7762L38.8787 58.7699ZM66.4992 58.7699L66.5116 58.7824C66.5116 58.7824 66.4992 58.7762 66.4992 58.7699ZM28.6815 59.1997H28.7251L28.6877 59.2496L28.6815 59.1997ZM32.1387 59.1997V59.2434L32.0889 59.206L32.1387 59.1997ZM22.1283 16H22.4647C22.5831 16.0125 22.6952 16.0436 22.7886 16.0872H22.8322C22.963 16.1495 22.9381 16.0997 23.0565 16.2056C23.1375 16.2741 23.1188 16.2803 23.2122 16.3426C23.2184 16.3488 23.2309 16.3551 23.2371 16.3613L23.4302 16.4672C23.7105 16.6042 23.6109 16.6852 23.6607 16.8098C23.6919 16.8783 23.7292 16.8783 23.7853 16.9655C23.9597 17.2583 23.8974 17.0901 24.0033 17.3206C24.0407 17.4078 24.0843 17.4016 24.1341 17.4701C24.24 17.6134 24.0843 17.7193 24.5266 17.6757C24.6948 17.657 24.7446 17.6632 24.8256 17.6321H24.8692C24.9439 17.5947 25.0062 17.5822 25.081 17.5449H25.1246L25.4298 17.4452C25.5046 17.4203 25.436 17.4452 25.5233 17.4265L25.76 17.3704H25.8036C25.897 17.3331 26.1773 17.3331 26.2708 17.3704H26.3144C26.4701 17.4327 26.3268 17.3704 26.4639 17.4016C26.5448 17.4203 26.5635 17.4265 26.6196 17.4514C26.8002 17.5199 26.9934 17.6071 27.1304 17.8314C27.2986 18.1179 27.1927 18.2363 27.1553 18.3235C27.1179 18.4294 27.1865 18.3547 27.0494 18.4917C26.8314 18.7222 26.875 18.7222 26.5698 18.8654C26.3704 19.0025 26.0216 19.0586 25.8846 19.1208H25.8409L24.9066 19.2205C24.9003 19.2205 24.8692 19.2143 24.8567 19.2081C24.8131 19.2392 24.8567 19.2143 24.7757 19.2579C24.7571 19.2641 24.7072 19.2828 24.6823 19.2953C24.6387 19.3825 24.6449 19.451 24.6574 19.5195L24.7384 19.7313C24.7384 19.7375 24.7446 19.75 24.7446 19.75C24.7446 19.7625 24.7508 19.7874 24.7508 19.7936C24.7571 19.8185 24.7757 19.8746 24.7882 19.912L24.8443 20.0428C24.8443 20.0365 24.8505 20.0552 24.8505 20.0615C24.9315 20.0365 24.919 20.0552 24.9813 20.0179H25.0249C25.1433 19.9618 25.218 19.9618 25.2679 19.9431C25.3551 19.912 25.2803 19.9369 25.3675 19.8933C25.4236 19.8684 25.436 19.8684 25.4921 19.8434H25.5357L25.8409 19.7438C25.8845 19.7313 26.0714 19.7189 26.1711 19.669H26.2147C26.3891 19.6566 26.7068 19.6067 26.7691 19.5818H26.8127C26.9186 19.5382 27.0058 19.5631 27.1055 19.5569L28.3077 19.5818H28.3513C28.4261 19.613 28.6192 19.6254 28.75 19.6441C28.7874 19.6503 29.1051 19.7251 29.1674 19.75H29.211L29.7218 20.0054C29.8588 20.0988 29.8837 20.1362 29.9522 20.3355C29.9522 20.3418 29.9585 20.3542 29.9585 20.3542C29.9585 20.3605 29.9647 20.3729 29.9647 20.3729L29.9834 20.6283C29.9834 20.6346 29.9709 20.6595 29.9709 20.6719C29.9709 20.6782 29.9647 20.6906 29.9647 20.6906C29.9647 20.6968 29.9585 20.7093 29.9585 20.7093C29.9585 20.7155 29.9522 20.7404 29.9522 20.7529C29.946 20.8588 29.9896 20.8027 29.8588 20.9834C29.8588 20.9896 29.8526 20.9958 29.8463 21.0021L29.6408 21.245C29.5598 21.326 29.5473 21.3447 29.4601 21.407C29.4103 21.4817 29.4414 21.4568 29.3542 21.5191L29.13 21.6811C29.0739 21.7247 29.0864 21.7184 29.0303 21.7558H28.9867C28.8684 21.8368 28.8621 21.8679 28.6752 21.9365L28.4074 22.0735C28.3513 22.0984 28.3326 22.1109 28.2953 22.1296C28.1644 22.1981 28.1956 22.1919 28.0897 22.2666L28.0461 22.3538C28.1644 22.3663 28.1395 22.36 28.2143 22.3974H28.2579L29.4975 22.6528H29.5411C29.6159 22.6902 29.6782 22.7027 29.7529 22.74H29.7965H29.8401H29.8837C29.9772 22.7774 29.946 22.7525 30.0644 22.7774C30.1827 22.8023 30.1516 22.7961 30.2201 22.8086C30.3011 22.8272 30.5565 22.8833 30.6125 22.9082H30.6561C30.7558 22.9518 30.8929 22.9207 31.0424 22.9954H31.086L31.3974 23.0951C31.4037 23.0951 31.4161 23.1013 31.4161 23.1013L31.7151 23.1948C31.8646 23.2197 31.8646 23.201 31.983 23.2508H32.0266C32.1138 23.2944 32.0639 23.282 32.1948 23.2944L32.0017 23.0266C31.9892 23.0079 32.0203 23.0079 31.9394 22.9518L31.8086 22.7836C31.7276 22.7213 31.7649 22.7463 31.7463 22.7089L31.7276 22.6466C31.6528 22.5096 31.6217 22.6279 31.5843 22.1981C31.5718 22.061 31.5781 22.1607 31.5968 21.9738C31.7525 22.0361 31.9331 21.9551 32.1512 22.061H32.1948L32.7803 22.304C32.7865 22.304 32.799 22.3102 32.8052 22.3102C32.8426 22.3289 32.8426 22.3289 32.9174 22.36C32.9547 22.3725 32.9672 22.3787 33.0108 22.3974H33.0544C33.1354 22.4286 33.0918 22.4037 33.1478 22.4223C33.1541 22.4223 33.1665 22.4286 33.1728 22.4286L33.2973 22.4722C33.3036 22.4722 33.3596 22.4971 33.3596 22.4971L33.7396 22.6092C34.0075 22.684 34.1943 22.7587 34.4124 22.9145C34.7674 23.1512 34.4747 23.064 34.8796 23.2571H34.9232L35.272 23.3816C35.3468 23.4003 35.3405 23.4003 35.3966 23.4315H35.4402C35.5149 23.4689 35.5772 23.4813 35.652 23.5187H35.6956L36.5054 23.4315H36.549C36.7483 23.2944 36.7047 23.2944 36.8044 23.0889C37.0224 22.9269 36.767 23.1138 36.8978 22.9269C37.0224 22.7525 37.2467 22.5968 37.4024 22.4909L37.5706 22.36C37.4086 22.0486 37.5519 22.441 37.3962 21.8555L37.3214 21.5814C37.3214 21.5752 37.309 21.5502 37.3027 21.5378C37.284 21.4693 37.3027 21.5378 37.2965 21.4506C37.284 21.2637 37.2467 21.4007 37.2093 21.2575L37.1221 20.7903C37.1221 20.6906 37.1159 20.7218 37.1034 20.566V20.5224C37.0536 20.3916 37.1096 20.485 37.066 20.2982L37.0847 20.1051C37.0909 20.0054 37.0536 19.9992 37.1034 19.8808V19.8372C37.1221 19.6316 37.1532 19.4884 37.2529 19.2579C37.4211 18.8592 37.3588 19.1146 37.5332 18.853L37.8322 18.9838C37.8883 19.0212 37.9132 19.0523 37.9506 19.071C38.1125 19.1582 37.8883 19.0274 38.0378 19.0959C38.1063 19.1271 38.1437 19.1831 38.2184 19.2392L38.3493 19.3264C38.4614 19.4012 38.5361 19.4884 38.6358 19.5943L39.321 20.2483C39.3584 20.2608 39.4082 20.2483 39.4705 20.2172L39.3335 20.0552C39.1902 19.9867 39.2027 20.0428 39.0843 19.9182L38.9909 19.613C38.9971 19.5507 38.9286 19.5818 39.0532 19.5507C39.0968 19.5382 39.2338 19.5694 39.2649 19.5818H39.3086C39.4144 19.6254 39.3397 19.5943 39.4581 19.613C39.5079 19.6192 39.5826 19.6316 39.6325 19.6379C39.7571 19.6566 39.7571 19.6192 39.863 19.669H39.9066H39.9502L39.9938 19.5818C39.8007 19.451 39.9003 19.4012 39.7384 19.2828C39.6761 19.1894 39.6698 19.2018 39.5951 19.1208C39.483 18.99 39.5826 19.1022 39.5328 18.9963C39.4892 18.9028 39.4892 18.9713 39.4581 18.8717C39.4581 18.8717 39.4394 18.7222 39.4331 18.6848L39.8318 18.7222C40 18.7907 40.0125 18.8281 40.1184 18.8966C40.1557 18.8094 40.1557 18.772 40.1184 18.6848L40.1931 18.6537L40.2865 18.7284H40.3301L40.6728 18.9402L40.7226 18.8343C40.76 18.7471 40.7226 18.6474 40.7101 18.5104L40.9842 18.5851C41.0963 18.6163 41.0527 18.61 41.0901 18.6412C41.1586 18.6723 41.2022 18.6786 41.2708 18.7222C41.3206 18.7533 41.3331 18.772 41.3891 18.8156L41.4389 18.8468C41.4452 18.853 41.4576 18.8592 41.4576 18.8654L41.5698 18.9776C41.576 18.9838 41.5885 19.0025 41.5947 19.0087L41.6258 19.0399C41.8189 19.2454 41.7504 19.071 41.9747 19.1645L42.093 19.2205C42.0993 19.2267 42.1117 19.233 42.1179 19.2392C42.5478 19.5257 42.4232 19.6752 42.3733 19.8497C42.311 20.0615 42.392 20.1611 42.3297 20.3106L42.4107 20.3542L42.9215 20.0116L43.4323 19.669L43.8933 19.3576C43.968 19.2953 43.9493 19.2953 44.0303 19.2392H44.0739L44.3729 19.071H44.4165C44.5162 19.0274 44.6532 19.0586 44.8027 18.9838C44.809 18.99 44.8277 18.9963 44.8277 19.0025L44.8899 19.0523C44.9273 19.0897 44.8214 19.0523 44.9709 19.1582C44.9896 19.3762 45.0145 19.4074 44.946 19.5943C44.8526 19.8621 44.9522 19.7251 44.8837 19.8808V19.9244C44.7529 20.1175 44.8837 19.9306 44.7529 20.2546L44.7404 20.2982C44.7404 20.3044 44.7342 20.3169 44.7342 20.3169L44.7218 20.3605C44.7218 20.3667 44.7155 20.3792 44.7093 20.3854L44.4539 20.9024C44.4041 20.9896 44.4414 20.9149 44.4103 20.9647L44.2857 21.1578C44.1923 21.2201 44.2047 21.2263 44.1238 21.2949C43.9556 21.4381 43.9867 21.3385 43.8559 21.5502L43.8247 21.5939C43.7749 21.6624 43.8185 21.5939 43.7687 21.6686C43.6254 21.7745 43.75 21.6748 43.6939 21.787C43.6566 21.8617 43.6441 21.8555 43.6005 21.9365L43.5569 22.0237C43.5257 22.086 43.5444 22.0486 43.532 22.0922C43.4385 22.4037 43.3326 22.5656 43.5943 22.74L43.6815 22.8272L43.8123 22.9331L43.8247 22.9456L43.9929 23.1138L44.0054 23.1262L44.2608 23.3816L44.2733 23.3941L44.3605 23.5L44.4477 23.5872C44.6159 23.8364 44.5349 23.799 44.6595 23.8862C44.6034 24.0046 44.6034 24.0731 44.5847 24.1354C44.4664 24.5465 44.4788 24.3223 44.4477 24.7396V24.7832C44.2919 25.0199 44.4601 24.9327 44.3355 25.3937L44.3169 25.5183C44.3169 25.5245 44.3293 25.5494 44.3293 25.5619L44.2795 25.8484C44.3729 25.9107 44.6345 26.135 44.647 26.2409C44.6782 26.4776 44.7841 26.6458 44.809 27.1379C44.8152 27.2313 44.809 27.1815 44.8277 27.2251C45.0021 27.6549 44.7778 27.4244 44.9585 27.686C44.9772 27.7297 45.0208 28.1221 45.1267 28.1968C45.2076 28.3899 45.0457 28.2031 45.2014 28.3775C45.2762 28.4585 45.2824 28.446 45.3447 28.5395L45.6935 28.7886C45.9115 28.9319 45.8929 29.0814 45.8991 29.0939V29.1375C45.9489 29.262 45.924 29.7728 45.8866 29.9286L45.8306 30.1279C45.8056 30.3522 45.7309 30.5453 45.6437 30.6823L45.488 30.8754C45.488 30.8816 45.4817 30.8879 45.4817 30.8941C45.4817 30.9003 45.4755 30.9066 45.4693 30.9066L45.4568 30.919L45.4007 31C45.2948 31.1806 45.2139 31.1433 45.108 31.3738L45.0332 31.5544C44.9086 31.76 44.8214 32.0465 44.6595 32.1649C44.5723 32.2209 44.5473 32.1898 44.4103 32.1836C43.7749 32.1773 43.7811 32.1337 43.7811 32.3455C43.7811 32.6757 43.8434 32.439 43.8684 32.6445L43.9369 32.8812C43.9618 32.956 43.9493 32.9061 43.9556 32.9622L44.0428 34.289C44.0677 34.4136 44.0864 34.4012 44.1113 34.4572C44.13 34.5008 44.1238 34.4448 44.13 34.5444C44.1549 35.049 44.1985 34.5943 44.2172 34.887C44.2359 35.2421 44.3605 35.4788 44.3854 35.6096L44.7716 36.326C44.8152 36.3821 44.7903 36.3509 44.809 36.3821L44.9149 36.6997C45.0083 36.8617 45.0457 36.706 45.1453 37.0424C45.1827 37.1607 45.1703 37.1545 45.3073 37.2479L45.4007 37.2853C45.4132 37.2915 45.4568 37.2978 45.4693 37.304C45.5876 37.3414 45.4568 37.3102 45.5752 37.3476C45.625 37.3663 45.706 37.3663 45.8181 37.4223H45.8617C46.0548 37.5158 46.061 37.4659 46.1669 37.4846C46.2542 37.5033 46.1296 37.4722 46.2355 37.5096L46.5033 37.5843H46.5469C46.7089 37.6528 46.5532 37.5843 46.6964 37.6154C46.7774 37.6341 46.7961 37.6466 46.8522 37.6653C46.9767 37.7027 47.0889 37.7089 47.1885 37.7587H47.2321C47.3443 37.8086 47.2633 37.7649 47.3816 37.7899C47.4564 37.8023 47.4938 37.8148 47.5187 37.821L47.7803 37.8895C47.8239 37.8958 47.8551 37.902 47.8613 37.9082C47.8675 37.9082 47.88 37.9144 47.8862 37.9144L48.179 37.9892C48.2724 38.0079 48.1914 37.9705 48.3036 38.0141H48.3472C48.5154 38.0826 48.3596 38.0141 48.4718 38.039L48.6088 38.1013C48.777 38.0328 48.6026 38.0702 48.7458 38.1138C48.8019 38.1325 48.7895 38.1262 48.8767 38.1387C49.0386 38.1636 49.0885 38.1574 49.1632 38.1885H49.2068C49.3065 38.2321 49.4435 38.201 49.593 38.2757H49.6366C49.7176 38.3069 49.7425 38.3007 49.892 38.3194C50.0478 38.3443 49.9979 38.3318 50.1412 38.363C50.2471 38.3879 50.5274 38.4066 50.6208 38.4439H50.6645C50.7703 38.4875 50.6956 38.4564 50.8139 38.4751C50.8638 38.4813 50.9385 38.4938 50.9884 38.5C51.113 38.5187 51.113 38.4813 51.2188 38.5311H51.2625C51.3684 38.5748 51.2936 38.5436 51.412 38.5623C51.4618 38.5685 51.5365 38.581 51.5864 38.5872C51.711 38.6059 51.711 38.5685 51.8169 38.6184H51.8605C51.9664 38.662 51.8916 38.6308 52.01 38.6495C52.0598 38.6557 52.1345 38.6682 52.1844 38.6744C52.309 38.6931 52.309 38.6557 52.4149 38.7056H52.4585C52.5581 38.7492 52.6952 38.718 52.8447 38.7928H52.8883C52.9942 38.7492 52.9132 38.7492 53.0191 38.7928H53.0627C53.1873 38.8426 53.505 38.8488 53.6233 38.8738L54.2151 38.961H54.2587H54.3023H54.3459H54.3895H54.4331C54.539 39.0046 54.4643 38.9734 54.5826 38.9921C54.6325 38.9983 54.7072 39.0108 54.7571 39.017C54.8816 39.0357 54.8816 38.9983 54.9875 39.0482H55.0311C55.1246 39.0855 55.2118 39.0793 55.4174 39.0918C55.6105 39.1042 55.5606 39.1167 55.76 39.1354H55.8036C55.8659 39.1603 56.1399 39.1977 56.2209 39.2039C56.333 39.2101 56.414 39.179 56.5262 39.2226H56.5698C56.6881 39.2724 56.7629 39.235 56.8875 39.2537C57.093 39.2787 57.2114 39.2724 57.2986 39.3098H57.3422L58.4074 39.397H58.451C58.5569 39.4406 58.4759 39.4406 58.5818 39.397H58.6254L59.5224 39.4842H59.566C59.6719 39.4406 59.5909 39.4406 59.6968 39.4842H59.7404H59.784H59.8277H59.8713H59.9149C60.0208 39.5278 59.9398 39.5278 60.0457 39.4842H60.0893C60.1952 39.5278 60.2824 39.5029 60.3821 39.5091L60.7745 39.5278C61.0797 39.5341 62.7741 39.5216 62.8675 39.5714C62.9111 39.0419 62.8488 39.1914 62.8426 38.7118L62.8115 37.4846C62.8115 37.005 62.8675 36.7807 62.6682 36.5752L62.1948 36.3509C62.1138 36.3322 62.0702 36.3322 61.9705 36.2824H61.9269H61.8833H61.8397C61.7276 36.2388 61.5282 36.2575 61.3289 36.1952C61.2541 36.1703 61.1669 36.1267 61.0984 36.1017C61.005 36.0644 61.0797 36.1204 60.9427 36.027L60.8866 35.9958C60.8804 35.9896 60.8679 35.9834 60.8617 35.9834L60.8119 35.8588C61.0237 35.8401 60.9925 35.7529 61.1545 35.647C61.2105 35.5037 61.1919 35.5473 61.0797 35.3169C61.0174 35.1923 61.1109 35.3729 61.0361 35.2546C60.9551 35.1113 61.005 34.6752 61.0237 34.6254C61.0984 34.6628 61.1607 34.6752 61.2355 34.7126L61.3227 34.7998L61.4659 34.9182C61.5781 34.9992 61.5282 34.912 61.6217 35.0552L61.9643 35.3978L62.1325 35.5287C62.201 35.3605 62.1636 35.5349 62.12 35.3916L62.0017 35.0179V34.9743C61.8708 34.7811 61.8646 34.2641 61.9581 34.0336L62.0764 33.9589L62.4689 34.3326C62.6121 34.1146 62.4813 34.2267 62.5498 34.0274L62.9111 33.4481C63.2973 33.012 63.2973 33.255 63.3036 33.554C63.3223 34.1894 63.2911 33.7159 63.3783 34.0523C63.3845 34.071 63.3659 34.3389 63.534 34.4572C63.5963 34.3015 63.5091 34.2081 63.6088 33.8717L63.6649 33.691L63.8642 33.4232C63.9078 33.3733 63.9265 33.3733 63.9639 33.3484C64.0075 33.3173 63.9639 33.3422 64.0448 33.2986C64.0635 33.2924 64.1134 33.2737 64.1321 33.2612C64.2068 33.4356 64.0448 33.311 64.2193 33.4294C64.2442 33.473 64.2753 33.554 64.3002 33.6101L64.4186 33.9963C64.4186 34.0212 64.4124 34.1022 64.4186 34.1208C64.456 34.2703 64.5058 34.1769 64.5058 34.4884C64.4996 34.9431 64.5307 34.9992 64.4871 35.5224C64.4622 35.5536 64.4622 35.5411 64.4373 35.6034C64.375 35.7716 64.4684 35.5162 64.4248 35.6844C64.3999 35.7778 64.4809 35.6906 64.3563 35.7778L64.2442 36.0457C64.213 36.1142 64.0573 36.3447 64.1383 36.5502V36.5939C64.2068 36.762 64.1009 36.6001 64.1943 36.8617L64.238 36.9863C64.2566 37.061 64.238 37.0112 64.2629 37.1109C64.294 37.223 64.294 37.1732 64.3252 37.304C64.3563 37.441 64.3189 37.4722 64.3937 37.6653V37.7089C64.4435 37.8272 64.4124 38.0515 64.4124 38.1698C64.4124 38.662 64.3688 38.6557 64.6491 38.6121C64.7986 38.5872 64.8235 38.5997 64.9045 38.5685H64.9481C65.0228 38.5311 65.0851 38.5187 65.1599 38.4813H65.2035C65.3218 38.4252 65.4028 38.4252 65.4464 38.4066C65.571 38.363 65.4215 38.4003 65.5772 38.3443L65.8887 38.2695C65.9697 38.2508 65.9634 38.2508 66.0008 38.2446C66.0444 38.2384 66.0382 38.2446 66.0943 38.2197H66.1379C66.3497 38.1325 67.5457 38.1823 67.9755 38.2197H68.0191C68.125 38.2633 68.044 38.2633 68.1499 38.2197H68.1935L69.2712 38.1574C69.3148 38.1512 69.3335 38.1449 69.4331 38.1387H69.4767C69.5702 38.1013 69.6823 38.1013 69.7757 38.1387C69.9377 38.039 70.1993 38.1262 70.3737 38.0515H70.4174C70.5669 37.9892 70.4547 38.0826 70.6292 37.9643H70.6728L71.3144 37.6217H71.358C71.4016 37.5905 71.4203 37.5656 71.4514 37.5469L71.5822 37.4971C71.6258 37.4784 71.5947 37.4909 71.657 37.4473H71.7006C71.8563 37.3725 72.0307 37.304 72.2051 37.2978C72.311 37.2915 72.2238 37.3289 72.3422 37.2791H72.3858H72.4294H72.473H72.5166H72.5602C72.6661 37.3227 72.5851 37.3227 72.691 37.2791H72.7346C72.8405 37.3227 73.3389 37.3164 73.5133 37.304C73.5943 37.2978 73.6254 37.3164 73.7188 37.2791H73.7625C73.8933 37.2168 73.9306 37.223 74.0116 37.2105L74.2733 37.1046C74.4228 37.0424 74.3106 37.1358 74.485 37.0174H74.5286L75.3384 36.5876H75.382C75.5565 36.4693 75.4444 36.488 75.6686 36.4381L75.924 36.326C75.9489 36.3198 75.9676 36.3073 75.9863 36.3073L77.4128 36.108C77.5187 36.0955 77.5498 36.1204 77.6433 36.0768H77.6869H77.7305H77.7741H77.8177H77.8613L78.4468 35.9709C78.4468 35.9709 78.5278 35.9585 78.5527 35.9522C78.7022 35.9273 78.7085 35.9149 78.8455 35.9024L78.9514 35.8401C79.0012 35.8027 78.9826 35.8152 79.0137 35.7778V35.7342C78.9078 35.5723 78.9763 35.6968 78.9452 35.5723C78.8953 35.348 78.8767 35.5037 78.8642 35.2795C78.858 35.2047 78.8517 35.2172 78.8455 35.0926V35.049V34.9182C78.9639 34.8372 78.9389 34.7998 79.1134 34.7625C79.3688 34.7064 79.8609 34.75 80.1225 34.8746H80.1661C80.2097 34.9057 80.2159 34.912 80.2658 34.9306C80.409 34.9867 80.2035 34.8933 80.3281 34.9493C80.3841 34.9743 80.409 35.0054 80.4651 35.049L80.7205 35.2172L80.8264 35.2795C80.8887 35.3106 80.9012 35.3169 80.9385 35.3355C81.2188 35.4788 80.9074 35.4103 81.4929 35.6221C81.4992 35.6221 81.5116 35.6283 81.5116 35.6283L82.3339 35.809H82.3775C82.4834 35.8526 82.4024 35.8526 82.5083 35.809H82.5519C82.6578 35.8526 82.5768 35.8526 82.6827 35.809H82.7263C82.8322 35.8526 82.7512 35.8526 82.8571 35.809H82.9007C83.0066 35.7654 82.9257 35.7654 83.0316 35.809H83.0752C83.2184 35.7529 83.2309 35.8339 83.4614 35.7218L83.5797 35.5224C83.5797 35.5224 83.6358 35.4601 83.6483 35.4414C83.8725 35.2047 84.0594 35.0677 84.2276 34.7438C84.2276 34.7375 84.2338 34.7251 84.24 34.7251C84.24 34.7189 84.2463 34.7064 84.2463 34.7064L84.3148 34.5756C84.3148 34.5694 84.321 34.5569 84.3272 34.5569L84.3459 34.5195C84.3459 34.5133 84.3522 34.5071 84.3584 34.5071C84.4207 34.4448 84.4269 34.5195 84.5328 34.3576C84.6636 34.2953 84.6387 34.3451 84.757 34.2392C84.838 34.1707 84.8193 34.1645 84.9128 34.1022H84.9564C85.3675 33.8281 85.1059 33.6599 85.8534 34.0149H85.897C86.1275 34.1271 86.1399 34.0399 86.2832 34.1022H86.3268C86.4327 34.1458 86.3517 34.1458 86.4576 34.1022H86.5012C86.6071 34.1458 86.5262 34.1458 86.6321 34.1022H86.6757C86.8189 34.0399 87.3422 34.0399 87.4855 34.1022H87.5291L88.0835 34.3576H88.1271C88.4697 34.5195 88.3825 34.4448 88.6316 34.5133L88.7126 34.5444C88.7188 34.5444 88.7313 34.5507 88.7313 34.5507L88.9867 34.6316C89.0303 34.6441 88.9929 34.6316 89.0552 34.6628C89.0615 34.669 89.0926 34.6877 89.1051 34.7002C89.1113 34.7064 89.1237 34.7126 89.13 34.7189C89.1362 34.7251 89.1487 34.7313 89.1549 34.7375C89.4477 34.9057 89.1736 34.7874 89.348 34.9244C89.3542 34.9306 89.4352 34.9369 89.4601 35.0552C89.4913 35.2172 89.4041 35.2546 89.3854 35.3106L89.2919 35.7093C89.2732 35.865 89.3231 35.8401 89.4414 35.8962H89.485C89.5598 35.9273 89.9024 35.9709 90.0394 35.9834H90.083C90.2014 36.0332 90.5191 36.0208 90.6375 36.0706H90.6811C90.7496 36.1017 90.7932 36.108 90.8617 36.1516C90.9115 36.1827 90.924 36.2014 90.9801 36.245L91.0673 36.2886C91.0174 36.4693 91.061 36.3385 90.9614 36.4817C90.9551 36.488 90.9489 36.4942 90.9489 36.5004L90.8617 36.6312L90.7309 36.7994C90.5253 36.9489 90.8119 36.787 90.5253 37.0673C90.2388 37.3538 90.407 37.1794 90.2139 37.3102L90.0021 37.4784L89.8027 37.7463C89.8027 37.7525 89.7965 37.7649 89.7965 37.7712C89.7529 37.9082 89.7342 38.1262 89.784 38.2508V38.2944L89.7965 38.6557C89.7965 38.7865 89.809 38.8675 89.7965 38.9672C89.7965 38.9983 89.7654 39.1292 89.7591 39.1354C89.7404 39.2101 89.7591 39.1541 89.7404 39.1977C89.6781 39.3908 89.7591 39.3098 89.6844 39.4718L89.647 39.5278C89.566 39.7209 89.5598 39.8829 89.6096 40.076C89.6657 40.294 89.7031 40.3065 89.7778 40.456C89.8401 40.5743 89.7467 40.5432 89.946 40.6802H89.9896C90.3509 40.8547 90.2076 40.7425 90.3758 41.054L90.4817 41.3281C90.4879 41.3592 90.4879 41.9946 90.4817 42.0133L90.3883 42.2064C90.3883 42.2126 90.3821 42.2251 90.3758 42.2251L90.2201 42.5179C90.2201 42.5241 90.2139 42.5303 90.2076 42.5365L90.1952 42.549C90.0893 42.6674 90.0145 42.7421 89.8526 42.7919C89.8463 42.7919 89.8339 42.7982 89.8339 42.7982L89.485 42.9352H89.4414C89.3729 42.9788 89.3605 43.0037 89.2919 43.0411C89.2483 43.066 89.186 43.0847 89.1424 43.1034C88.8933 43.2778 88.7313 43.228 88.6005 43.2591C88.4759 43.2903 88.5693 43.3152 88.4634 43.2716H88.4198C88.3139 43.3152 88.3949 43.3152 88.289 43.2716H88.2454C88.1395 43.3152 88.2205 43.3152 88.1146 43.2716H88.071C87.9215 43.3339 88.0274 43.2841 87.909 43.2529L87.8592 43.2467C87.6848 43.2031 87.6973 43.1906 87.5851 43.066C87.3982 42.8792 87.5789 42.8854 87.255 42.6736C87.2114 42.6424 87.255 42.6674 87.174 42.6238C87.1553 42.6175 87.1055 42.5988 87.0806 42.5864H87.037C86.7317 42.4431 86.3331 42.5801 86.1399 42.4992C86.1213 42.7047 86.1275 42.5739 86.034 42.7359C85.9531 42.8729 86.0403 42.8231 85.8845 42.929C85.7662 43.1096 85.8098 43.0162 85.6291 43.0972H85.5855C85.4547 43.1595 85.4796 43.1096 85.3613 43.2155C85.0436 43.4896 85.1495 43.6142 85.0311 43.7824L84.9066 45.0656C84.8754 45.1777 84.8754 45.1279 84.8443 45.2525L84.7508 45.5577C84.7508 45.564 84.7446 45.5764 84.7446 45.5764L84.7321 45.62C84.7321 45.6262 84.7259 45.6387 84.7197 45.6449C84.7134 45.6512 84.7072 45.6636 84.7072 45.6698L84.5017 46.1308C84.4643 46.2118 84.5203 46.137 84.4705 46.2492C84.4643 46.2554 84.4581 46.2679 84.4518 46.2741L84.4207 46.3301C84.2587 46.6292 84.3584 46.3115 84.321 46.5793C84.3085 46.679 84.2525 46.679 84.1777 46.8534L83.941 47.2645C83.9286 47.2832 83.9223 47.2832 83.9036 47.3268C83.8414 47.4701 83.9473 47.2645 83.885 47.3891L83.6296 47.7317C83.5922 47.8002 83.5735 47.8002 83.5299 47.8688C83.4614 47.9809 83.3929 48.1553 83.3119 48.2114C83.2309 48.4045 83.2558 48.4481 83.1312 48.6973C83.0876 48.7782 83.1499 48.7969 83.0938 48.9277C83.0502 49.0274 82.9942 49.0461 82.9257 49.1458C82.8073 49.2267 82.8011 49.3887 82.745 49.5133C82.7014 49.6067 82.7014 49.588 82.6578 49.6441L82.4585 50.0054C82.3962 50.1985 82.4585 50.2608 82.4335 50.348C82.3962 50.4851 82.4024 50.3605 82.3526 50.4788C82.3339 50.5224 82.3526 50.5411 82.3463 50.5847C82.3401 50.6906 82.309 50.6844 82.2654 50.8214L82.1844 50.9958C82.147 51.0768 82.2031 51.0021 82.1532 51.1142V51.1578L81.8854 51.6561C81.7919 51.8119 81.9165 51.6935 81.7733 51.7994L81.4742 52.142L81.1877 52.4473C81.1067 52.522 81.169 52.6404 80.8139 52.7649C80.6333 52.8272 80.7766 52.7463 80.6458 52.8584C80.5772 52.9145 80.6395 52.8958 80.5399 52.9331H79.6179C79.294 52.9145 79.5868 52.8272 79.375 52.9144H79.3314L79.2566 52.902C79.1071 52.9145 78.9265 53.0577 78.6898 53.1698C78.6836 53.1761 78.6649 53.1823 78.6649 53.1885L78.5652 53.282C78.4032 53.4128 78.2537 53.4689 78.2537 53.4689L77.4938 54.0295C77.2384 54.2039 77.1512 54.1292 76.983 54.1977C76.9394 54.2226 76.9705 54.2164 76.8895 54.2413C76.7899 54.2662 76.5594 54.2849 76.385 54.3721H76.3414C76.2168 54.4219 76.2043 54.3721 75.9925 54.4468C75.9801 54.4531 75.9551 54.4655 75.9489 54.4655C75.9427 54.4655 75.9302 54.4718 75.9302 54.4718L75.5378 54.5403H75.4942L74.5972 54.7085H74.5536C74.4414 54.7521 74.5286 54.7147 74.429 54.7334L73.7375 54.8268C73.3264 54.8704 73.2828 54.9701 73.2703 54.2787C73.2579 53.7554 73.3887 53.662 73.5382 53.3256L73.6441 53.1574C73.8061 52.9892 73.8372 52.9331 74.0552 52.8584L74.1175 52.8397C74.1674 52.821 74.1674 52.8148 74.211 52.7836H74.2546L74.7778 52.6777C74.8463 52.6715 74.8962 52.684 74.9709 52.6777C75.083 52.6653 75.1516 52.659 75.2824 52.659V52.6154C75.1827 52.6154 75.1703 52.603 75.1142 52.5718C75.0706 52.5407 75.1142 52.5656 75.0332 52.522C75.0145 52.5158 74.9647 52.4971 74.9398 52.4846H74.8962C74.7965 52.441 74.7591 52.4784 74.5972 52.3974L74.5411 52.3663C74.5349 52.36 74.5224 52.3538 74.5162 52.3538L74.211 52.142L74.0801 52.0548L73.8808 51.9115C73.588 51.6686 72.8904 50.8713 72.6661 50.7342L72.5851 50.6844L72.4979 50.6408C72.5851 50.4352 72.4356 50.6595 72.554 50.4788C72.853 50.0241 72.7222 50.211 72.9277 50.1238H72.9713C73.0772 50.1674 72.9963 50.1674 73.1022 50.1238H73.1458C73.2517 50.1674 73.1707 50.1674 73.2766 50.1238H73.3202C73.4261 50.1674 73.3451 50.1674 73.451 50.1238H73.4946C73.6005 50.1674 73.5195 50.1674 73.6254 50.1238H73.669C73.7749 50.1674 73.6939 50.1674 73.7998 50.1238H73.8434C73.9431 50.1674 73.8621 50.1362 73.9618 50.1549C74.0365 50.1674 74.0365 50.1736 74.13 50.1611C74.2483 50.1424 74.3106 50.0988 74.3978 50.0365H74.4414C74.5162 49.9992 74.5785 49.9867 74.6532 49.9493H74.6968C74.7903 49.912 74.9024 49.912 74.9958 49.9493H75.0394C75.1889 50.0116 75.0768 49.9182 75.2512 50.0365H75.2948C75.6125 50.1674 75.8056 49.9244 75.6188 49.4074C75.5814 49.3015 75.4443 49.1208 75.2824 49.1208C75.2076 49.1208 75.2076 49.1084 75.1204 49.1458H75.0768H75.0332H74.9896C74.8775 49.1956 74.8027 49.1644 74.6719 49.1769C74.6221 49.1831 74.51 49.2018 74.4726 49.2081C74.3729 49.2205 74.4601 49.1894 74.3542 49.233H74.3106H74.267H74.2234C74.0988 49.2828 73.6939 49.289 73.6379 49.3077C73.4074 49.37 72.934 49.3576 72.8156 49.4074H72.772H72.7284H72.6848C72.5727 49.451 72.3671 49.4198 72.2176 49.4946H72.174C72.0619 49.5382 72.0556 49.4946 71.8875 49.5444C71.8002 49.5694 71.8252 49.5756 71.738 49.613C71.6881 49.6379 71.6632 49.6379 71.6196 49.6628L71.4389 49.7625C71.3393 49.7998 71.4265 49.7375 71.277 49.8372L70.679 50.1798H70.6354L70.5046 50.267C70.4983 50.2733 70.4859 50.2795 70.4796 50.2857L70.2056 50.4414L69.8193 50.6968H69.7757C69.7259 50.7342 69.7259 50.7404 69.6823 50.7716L69.3958 50.9522H69.3522L68.9161 51.2326C68.9099 51.2326 68.8974 51.2388 68.8974 51.2388C68.8912 51.2388 68.8787 51.245 68.8787 51.2512L68.3742 51.5502L68.2683 51.6125C68.2309 51.6312 68.2371 51.625 68.1935 51.6437C68.0814 51.6873 68.1811 51.5814 68.0752 51.7184C68.0129 51.7496 67.963 51.762 67.8945 51.7932C67.8883 51.7994 67.8198 51.8368 67.8135 51.8368L67.7326 51.8866L67.4647 52.0486C67.365 52.1233 67.4398 52.0673 67.3277 52.1233C66.8231 52.3725 67.2654 52.2355 66.7483 52.4846C66.6362 52.6528 66.686 52.5096 66.5428 52.7649L66.4556 52.9144C66.387 53.0826 66.3808 53.2259 66.3684 53.4252V53.4689C66.1939 53.7243 66.3995 53.5561 66.25 53.9423L66.2002 54.2787V54.3223C66.1192 54.4406 66.1379 54.3783 66.1379 54.4842C66.1192 54.7708 66.0693 54.4344 66.0569 54.7583V56.2346C66.0631 56.2596 66.2002 56.4527 66.113 56.6707L66.1939 56.7143C66.2002 56.7828 66.2002 56.7953 66.2064 56.8513C66.2064 56.8638 66.2126 56.8887 66.2126 56.8949C66.2562 57.0507 66.25 56.8638 66.2811 57.1815C66.2874 57.2251 66.2936 57.2998 66.2936 57.2998L66.412 57.6424C66.6362 57.9788 66.4805 57.7608 66.5615 57.9414L66.6549 58.1657C66.6798 58.2342 66.6798 58.2093 66.7047 58.2467C66.7296 58.5083 66.767 58.4834 66.6923 58.6204C66.6923 58.6267 66.6175 58.7139 66.6798 58.7201L66.8729 58.7575L67.0411 58.9257L67.1719 59.0565L67.2591 58.9257C67.309 58.9007 67.3277 58.9007 67.3837 58.8758C67.4896 58.826 67.3899 58.8571 67.4647 58.8385L67.6453 58.8447H67.6889C67.7637 58.8821 67.826 58.8945 67.9007 58.9319C67.907 58.9381 67.9194 58.9444 67.9257 58.9506L67.9817 58.9817C68.4489 59.2434 68.1811 59.1188 68.4178 59.2745C68.4801 59.3181 68.3181 59.3181 68.5486 59.3181C68.4738 59.4302 68.424 59.4365 68.2994 59.4988L67.8945 59.6545C67.8883 59.6545 67.7886 59.7105 67.7575 59.723C67.5208 59.8414 67.5893 59.7542 67.4335 59.8289C67.3899 59.86 67.4335 59.8351 67.3526 59.8787C67.3339 59.885 67.284 59.9037 67.2591 59.9161H67.2155C67.0972 59.9722 67.0224 59.9722 66.9726 59.9909C66.8854 60.022 66.9601 59.9971 66.8729 60.0407C66.8169 60.0656 66.8044 60.0656 66.7483 60.0905H66.7047C66.63 60.1279 66.5677 60.1404 66.4929 60.1777H66.4493C66.3621 60.2213 66.25 60.2525 66.1316 60.2899C65.9635 60.3397 65.9946 60.3023 65.8949 60.3459H65.8513C65.7517 60.3895 65.7143 60.3522 65.5523 60.4331H65.5087C65.3468 60.5017 64.4061 60.5017 64.1757 60.5017L57.6599 60.5079C57.6537 60.5079 57.6287 60.5203 57.6163 60.5203L57.3173 60.5079C57.2861 60.5079 57.255 60.5453 57.1117 60.5328L56.9934 60.5079C56.8999 60.5017 56.8439 60.5951 56.6632 60.5203H56.6196C56.5262 60.5577 56.414 60.5577 56.3206 60.5203H56.277C56.1836 60.5577 56.0714 60.5577 55.978 60.5203H55.9344C55.8409 60.5577 55.7288 60.5577 55.6354 60.5203H55.5918C55.4983 60.5577 55.3862 60.5577 55.2928 60.5203H55.2492L53.1997 60.564C52.907 60.564 50.9572 60.5639 50.8513 60.6076H50.8077C50.7018 60.5639 50.7828 60.5639 50.6769 60.6076H50.6333H50.5772H50.5336H50.49H50.4527H50.409H50.3654C50.2595 60.6512 50.3405 60.6512 50.2346 60.6076H50.191C50.0291 60.6761 44.429 60.6512 43.7438 60.6512L43.0586 60.6948H43.0149C42.8468 60.6262 43.0087 60.6698 42.8966 60.6948L39.0345 60.8007C38.7417 60.8007 38.8538 60.7695 38.7292 60.7633L34.7425 60.7944C34.7363 60.7944 34.7051 60.7882 34.6927 60.782H34.6491C34.5307 60.8318 34.4622 60.7944 34.3625 60.8069C34.2193 60.8256 34.0573 60.8256 33.9016 60.838C33.6898 60.8505 33.4531 60.8131 33.3285 60.8692H33.2849C33.179 60.8256 33.26 60.8256 33.1541 60.8692H33.1105H33.0731H33.0295C32.9236 60.9128 33.0046 60.9128 32.8987 60.8692H32.8551C32.7492 60.9128 32.8301 60.9128 32.7242 60.8692H32.6806L31.6528 60.9003C31.6154 60.9003 31.5781 60.9003 31.5656 60.9003H31.3102C31.1981 60.9003 31.2292 60.9003 31.142 60.9003H30.3447C30.0893 60.8941 28.071 60.9252 27.9464 60.8754H27.9028C27.7969 60.919 27.8779 60.919 27.772 60.8754H27.7284C27.6225 60.919 27.7035 60.919 27.5976 60.8754H27.554C27.4481 60.919 27.5291 60.919 27.4232 60.8754H27.3796C27.2737 60.919 27.3546 60.919 27.2488 60.8754H27.2051C27.0992 60.919 27.1802 60.919 27.0743 60.8754H27.0307C26.9248 60.919 27.0058 60.919 26.8999 60.8754H26.8563C26.7504 60.919 26.8314 60.919 26.7255 60.8754H26.6819H26.6383H26.5947H26.5511H26.5075C26.4016 60.919 26.4826 60.919 26.3767 60.8754H26.3331H26.2894H26.2458H26.2022H26.1586C26.0527 60.919 26.1337 60.919 26.0278 60.8754H26.0341H25.9904H25.9468H25.9032H25.8596C25.7537 60.919 25.8347 60.919 25.7288 60.8754H25.6852H25.6416H25.598H25.5544H25.5108H25.4672H25.4236H25.38H25.3488H25.3052H25.2616H25.218H25.1744H25.1308H25.0872H25.0436H25H24.9564H24.9128C24.8069 60.8318 24.8879 60.8318 24.782 60.8754H24.7384H24.6948H24.6636H24.62H24.5764C24.4705 60.8318 24.5515 60.8318 24.4456 60.8754H24.402H24.3584H24.3148H24.2712H24.2276H24.184H24.1404H24.0968H24.0532H24.0096H23.9659H23.9223H23.8787H23.8538H23.8102C23.7043 60.919 23.7853 60.919 23.6794 60.8754H23.6358C23.5299 60.919 23.6109 60.919 23.505 60.8754H23.4614C23.2496 60.9626 22.1657 60.863 21.9664 60.9626H21.9228C21.8169 60.919 21.8978 60.919 21.7919 60.9626H21.7483C21.6424 60.919 21.7234 60.919 21.6175 60.9626H21.5739C21.468 60.919 21.549 60.919 21.4431 60.9626H21.4244C21.3185 60.919 21.3995 60.919 21.2936 60.9626H21.25C21.113 60.9066 21.2126 60.9502 21.1503 60.9564L20.2471 60.9875C20.1038 60.9875 19.8173 60.9938 19.4809 61H18.0606C17.8738 60.9938 17.7243 60.9813 17.6557 60.9564C17.6495 60.9564 17.6184 60.9439 17.6121 60.9439C17.5436 60.9315 17.6184 60.9252 17.5374 60.9564C17.4564 60.9066 17.6308 60.9377 17.4128 60.9128L16.005 60.6138H15.9614L15.8306 60.5266H15.787C15.7184 60.4954 15.6748 60.4892 15.6063 60.4456C15.5565 60.4145 15.544 60.3958 15.488 60.3522H15.4444C15.3945 60.3148 15.3945 60.3086 15.3509 60.2774L15.0644 60.0968C15.0208 59.9846 15.0457 59.7915 15.0395 59.6794C15.0395 59.4365 15.1204 59.4115 15.3073 59.2309C15.407 59.1312 15.6188 58.8945 15.7247 58.8322L16.1732 58.6017C16.2915 58.6516 16.1856 58.6142 16.3912 58.5581C16.6902 58.4834 16.9394 58.5706 17.1449 58.7824C17.4128 59.0565 17.5125 59.2247 17.7616 59.2994L17.8301 59.3119C17.8862 59.3181 17.8987 59.3243 17.9672 59.3243C17.9298 59.2371 17.9298 59.2683 17.9734 59.1624C18.0046 59.0752 18.017 59.1125 18.0295 59.0378L18.1105 58.8073C18.1292 58.7637 18.1105 58.6391 18.1229 58.5706L18.1852 58.309V58.2654C18.1914 58.1595 18.2039 58.1532 18.2039 58.1034C18.2039 58.0972 18.1914 57.9975 18.1914 57.9664L18.2724 58.01C18.2787 58.0162 18.2973 58.0224 18.2973 58.0287C18.3036 58.0349 18.316 58.0411 18.3223 58.0473L18.7209 58.6267C18.7209 58.6329 18.7272 58.6453 18.7272 58.6453L18.7957 58.7762C18.8393 58.8758 18.7272 58.7762 18.8642 58.8696C18.9888 58.5706 18.7209 58.4834 19.0324 58.2716H19.076C19.1819 58.228 19.1009 58.228 19.2068 58.2716C19.4622 57.8854 19.238 57.5801 19.2317 57.4929C19.2255 57.4244 19.2504 57.4805 19.213 57.4057L19.157 57.3185C19.157 57.3123 19.1507 57.2998 19.1507 57.2998L18.9327 56.7392C18.8891 56.6084 18.8829 56.5399 18.8829 56.4776L18.8331 56.1786C18.8331 56.1723 18.8268 56.1599 18.8268 56.1599C18.8268 56.1537 18.8144 56.1287 18.8081 56.1163C18.777 55.9979 18.8268 55.6117 18.858 55.4809L18.8829 54.559C18.8767 54.5091 18.8455 54.3659 18.8331 54.3223C18.8331 54.316 18.8268 54.3036 18.8268 54.3036C18.8268 54.2973 18.8206 54.2849 18.8206 54.2849L18.7957 54.2226C18.7583 54.0295 18.6898 53.6931 18.5777 53.5125L18.4531 53.0328C18.4406 52.9145 18.3783 52.9207 18.3659 52.7774C18.3472 52.5718 18.4157 52.7463 18.316 52.5843L18.1914 51.4194C18.1914 51.3322 18.1914 51.3198 18.1914 51.2762C18.1914 51.2762 18.179 51.164 18.1728 51.1391V51.0955C18.1292 51.0021 18.1105 50.9522 18.1105 50.8713C18.098 50.6408 18.0357 50.6221 17.9485 50.4041L17.7679 50.0241C17.7118 49.8933 17.6682 49.9244 17.6184 49.831C17.5311 49.6877 17.7429 49.8434 17.5374 49.6939L16.983 48.9277C16.8833 48.8592 16.7961 48.5789 16.684 48.4979L16.3289 47.9311C16.3289 47.9248 16.3227 47.9124 16.3227 47.9124L16.2666 47.8065C16.0361 47.5012 16.1981 47.6881 16.061 47.4514L15.9551 47.2209V47.1773C15.924 47.1337 15.924 47.1399 15.9115 47.1026C15.8679 47.0029 15.9489 47.0527 15.8306 46.9655L15.787 46.7101C15.6561 46.6167 15.7745 46.679 15.6748 46.3987C15.5876 46.1495 15.6624 46.2928 15.6125 46.0311C15.5876 45.9003 15.5689 45.863 15.5689 45.6823L15.6125 45.2525C15.6686 45.0096 15.6188 45.0345 15.6375 44.9535C15.6686 44.8289 15.7184 44.9099 15.7247 44.6732C15.7309 44.4614 15.7683 44.6109 15.8119 44.4614C15.8306 44.4053 15.7932 44.3056 15.8181 44.2496C15.8742 44.1125 15.8368 44.2745 15.8929 44.1437C15.9115 44.1001 15.8929 44.0814 15.8991 44.0378C15.8991 44.0378 16.0673 43.5021 16.0735 43.2031C16.0735 43.1221 16.0797 43.0847 16.0673 42.9788C16.0424 42.7795 16.0486 42.8231 15.9676 42.6985L16.0361 42.5988C16.1794 42.3808 16.2666 42.3497 16.4348 42.1877C16.5594 42.0631 16.6217 41.6271 16.6902 41.4963L16.7961 41.2284C16.8023 41.2159 16.821 41.1848 16.821 41.1786L16.902 41.0104C16.9394 40.9356 16.983 40.6989 17.0577 40.6055L17.2508 40.3065C17.338 40.1196 17.419 40.076 17.5374 39.8455L17.6246 39.7583L18.0233 39.1914C18.0233 39.1852 18.0295 39.1728 18.0295 39.1728L18.0669 39.1292C18.0669 39.1292 18.0793 39.1167 18.0855 39.1167L18.8144 38.0889C18.8517 38.0328 18.8642 38.0328 18.9078 37.9705C18.7396 37.9581 18.8331 37.9705 18.5652 37.8397H18.5216C18.4468 37.8023 18.3846 37.7899 18.3098 37.7525H18.2662C18.179 37.7089 18.0669 37.6777 17.9485 37.6404C17.7803 37.5905 17.8115 37.6279 17.7118 37.5843C17.6682 37.5532 17.7118 37.5781 17.6308 37.5345C17.6121 37.5282 17.5623 37.5096 17.5374 37.4971H17.4938C17.4003 37.4535 17.3256 37.4223 17.1948 37.4099L16.7213 37.1607C16.6715 37.1296 16.6591 37.1109 16.603 37.0673H16.5594L16.3476 36.8991L15.706 36.3011C15.6312 36.3385 15.5689 36.3509 15.4942 36.3883H15.4444C15.3945 36.4257 15.3945 36.4319 15.3509 36.463L15.1329 36.5876C15.0644 36.6375 15.1329 36.5939 15.0581 36.6437H15.0145C14.9024 36.7184 14.8962 36.7434 14.7529 36.8056C14.6906 36.8306 14.728 36.8181 14.6844 36.8306L14.4913 36.8929C14.0864 37.061 14.4477 36.843 14.1175 37.0673H14.0739L13.6939 37.2479C13.6752 37.2604 13.5133 37.3351 13.5071 37.3414C13.0025 37.5033 13.233 37.4722 13.1208 37.821C13.015 38.1449 13.0959 38.1948 13.0586 38.3194C12.8966 38.7928 13.0523 38.4252 12.9651 38.8115L12.9402 38.936C12.9402 38.9423 12.934 38.9547 12.934 38.9547L12.9091 39.098C12.9028 39.1728 12.8966 39.1603 12.8904 39.2849V39.3285C12.7284 39.6711 12.9402 39.6524 12.7533 40.0262C12.7284 40.076 12.7533 40.0386 12.7409 40.1071C12.7409 40.1134 12.7409 40.1383 12.7346 40.1445C12.7346 40.1507 12.7284 40.157 12.7284 40.1632L12.7035 40.2068C12.4045 40.6491 12.7222 40.2255 12.4855 40.6304L12.3796 40.8235C12.2986 40.8547 12.1989 40.8547 12.1117 40.8484C11.9871 40.8422 12.1055 40.8609 11.9747 40.8048C11.9061 40.7737 11.8812 40.7674 11.8252 40.7425H11.7816L11.6507 40.6553H11.6071C11.5573 40.6179 11.5573 40.6117 11.5137 40.5806C11.4327 40.5245 11.5075 40.5743 11.4327 40.5307L11.0154 40.2255L10.9282 40.1383C10.7849 40.0324 10.9095 40.1321 10.8534 40.0199L10.5731 39.6711C10.4983 39.5901 10.5357 39.6773 10.5233 39.5714C10.5046 39.3908 10.4423 39.4531 10.3675 39.3098C10.3177 39.2226 10.3862 39.3223 10.3364 39.1977L10.2492 39.1541C10.2803 39.0731 10.299 37.9767 10.2243 37.7276C10.1682 37.5594 10.2056 37.5905 10.1682 37.4909C10.081 37.3663 10.1308 37.3912 10.081 37.2479L10.0623 37.1856C10.0249 37.0797 10.0062 37.0361 10 37.005V36.9489C10.0062 36.9115 10.0125 36.8493 10.0062 36.6811C10 36.5814 10 36.5502 10.0187 36.463C10.0748 36.1017 10.2367 36.164 10.3364 36.1204C10.3426 36.1204 10.3613 36.1142 10.3613 36.1017C10.3675 36.0893 10.38 36.0893 10.3862 36.0831H10.4298H10.4734L10.6852 35.9149H10.7101C10.9406 35.8027 10.9531 35.8899 11.0963 35.8277H11.14C11.2458 35.7841 11.1649 35.7841 11.2708 35.8277H11.3144C11.414 35.7841 11.3829 35.809 11.4701 35.809C11.5449 35.8027 11.5324 35.7965 11.657 35.7903C11.5885 35.6221 11.6819 35.5598 11.6071 35.211C11.5822 35.0864 11.6196 35.1487 11.5324 35.0179C11.794 34.831 11.495 34.8684 11.7006 34.7189L11.7878 34.6316L11.9186 34.5444C11.9934 34.5071 12.0556 34.4946 12.1304 34.4572C12.174 34.4261 12.1304 34.451 12.2114 34.4074C12.2301 34.4012 12.2799 34.3825 12.3048 34.37H12.3297L12.4605 34.2828H12.5042C12.5789 34.2454 12.6412 34.233 12.7159 34.1956L13.2579 34.0025C13.5071 33.934 13.5133 34.0336 13.7811 33.853C13.9929 33.7097 13.8497 33.7658 13.9929 33.6163C14.049 33.5602 14.2919 33.473 14.1674 33.1179C14.0801 32.8625 14.1238 33.174 14.0926 32.8376C14.0926 32.8189 14.0801 32.7442 14.0739 32.7006C14.049 32.6632 14.049 32.7006 14.0179 32.5947C13.9929 32.5199 14.0116 32.5635 14.0116 32.5199C14.0054 32.3642 13.9992 32.1836 14.0801 32.0216V31.978L14.1487 31.7039C14.2234 31.5233 14.1549 31.5918 14.2172 31.4298L14.2857 31.2616C14.3542 31.081 14.3916 31.0685 14.4664 30.9502C14.5349 30.919 14.5785 30.9128 14.647 30.8692C14.6968 30.838 14.7093 30.8194 14.7654 30.7757C14.8277 30.7321 14.6657 30.7321 14.8962 30.7321C14.809 30.5203 14.9398 30.5203 14.9585 30.0781L14.9647 28.8883C14.9896 28.6765 14.946 28.689 15.0208 28.5083V28.4647L15.1267 27.9414C15.1391 27.7359 15.0893 27.9041 15.1516 27.6238C15.1516 27.6175 15.1578 27.6051 15.1578 27.5988C15.1578 27.5926 15.1578 27.5801 15.1578 27.5739C15.1578 27.5677 15.1516 27.5365 15.1453 27.5241V27.4805C15.2637 27.2313 15.1703 27.2002 15.2139 27.032C15.2637 26.8389 15.2824 26.9572 15.2948 26.8077C15.3011 26.6707 15.3945 26.4838 15.4444 26.3841L15.4755 26.2658C15.5004 26.1786 15.5129 26.1723 15.5191 26.1474L15.6312 25.8484C15.6312 25.836 15.6375 25.811 15.6375 25.8048L15.7247 25.6366C15.7247 25.6304 15.7247 25.6179 15.7309 25.6117L15.7932 25.5058C15.7932 25.4996 15.7994 25.4934 15.8056 25.4871L15.8866 25.2504C15.8866 25.2442 15.8929 25.2317 15.8929 25.2317C15.8929 25.2255 15.8991 25.213 15.8991 25.213C15.8991 25.2068 15.9053 25.1944 15.9053 25.1944L16.1109 24.7334C16.1171 24.7272 16.1233 24.7147 16.1233 24.7085L16.2417 24.4468C16.3351 24.1416 16.4535 24.1416 16.3912 23.9859C16.5282 23.9734 16.5905 23.9423 16.6715 23.7616C16.6715 23.7554 16.6777 23.7429 16.6777 23.7429L16.983 23.1761C17.2384 22.8584 16.9705 23.0577 17.1574 22.9207L17.6682 22.2355L18.1292 21.6998C18.1728 21.6437 18.26 21.6063 18.316 21.5627C18.3721 21.5191 18.7085 21.1267 19.1196 21.3011H19.1632C19.3314 21.2326 19.456 21.3447 19.4809 21.2076C19.4934 21.1516 19.4809 21.2014 19.4809 21.1453L19.4186 20.7093C19.2442 20.7093 19.2816 20.6968 19.1632 20.7529H19.1196C19.0448 20.7903 18.9826 20.8027 18.9078 20.8401H18.8642C18.7396 20.9024 18.6898 20.865 18.5652 20.9273C18.5216 20.9585 18.5652 20.9336 18.4842 20.9772C18.4655 20.9834 18.4157 21.0021 18.3908 21.0145H18.3472C18.2226 21.0768 18.1292 21.0457 17.9983 21.0955L17.9111 21.1329C16.9082 21.4257 16.9269 20.51 16.8086 20.3355C16.8522 20.3044 16.821 20.348 16.8833 20.2795L16.9207 20.1923C16.9207 20.186 16.9269 20.1736 16.9269 20.1736L17.0017 20.0428C17.0764 19.8621 17.5311 19.4385 17.6682 19.3513L18.098 19.0959H18.1416L18.2288 19.0087C18.3472 18.9527 18.4219 18.9527 18.4718 18.934C18.559 18.9028 18.4842 18.9277 18.5714 18.8841C18.6275 18.8592 18.6399 18.8592 18.696 18.8343H18.7396L18.995 18.7907C18.939 18.6537 19.0012 18.6225 18.9639 18.5042L18.8642 18.0245V17.9809C18.8953 17.5822 18.8331 17.657 19.0448 17.439C19.1944 17.2832 19.3812 17.0714 19.5494 16.9593L19.6802 16.8721C19.892 16.7288 19.6989 16.8036 20.0291 16.7288L20.4091 16.6167L20.5523 16.5482C20.6271 16.5233 20.6582 16.517 20.7143 16.4983C20.8451 16.4485 20.7392 16.4859 20.8576 16.4298C20.9198 16.3987 20.951 16.3924 21.0071 16.3675H21.0507C21.1067 16.3364 21.1628 16.3239 21.2313 16.2928C21.2998 16.2554 21.3123 16.2492 21.412 16.2118C21.549 16.162 21.6736 16.162 21.7795 16.1121H21.8231C21.8978 16.0436 22.01 16.0125 22.1283 16ZM67.3962 59.8351H67.3526L67.3899 59.7853L67.3962 59.8351Z" fill="white" fill-opacity="0.85"/>
</svg>
