<svg width="100" height="80" viewBox="0 0 100 80" fill="none" xmlns="http://www.w3.org/2000/svg">
<path fill-rule="evenodd" clip-rule="evenodd" d="M90.6736 21.0425V21.0852C90.637 21.1768 90.637 21.2928 90.6736 21.3844V21.4272C90.637 21.5188 90.637 21.6348 90.6736 21.7264V21.7691C90.637 21.8607 90.637 21.9768 90.6736 22.0684V22.1111C90.6309 22.2149 90.6309 22.1355 90.6736 22.2393V22.2821V22.4042V22.4469V22.5752V22.6179V22.7462V22.7889C90.7652 23.8942 90.6247 29.3778 90.7163 29.5976C90.5881 29.6098 90.527 29.6159 90.4599 29.6403H90.4171L89.6111 29.8113H89.5683C89.4889 29.848 89.5134 29.8419 89.3973 29.8541C89.4523 29.7197 89.4157 29.5243 89.3973 29.2984V29.2556C89.4401 29.1518 89.4401 29.2312 89.3973 29.1274V29.0847C89.379 28.8648 89.379 29.0053 89.3973 28.7854V28.7427L89.3485 27.1794C89.3485 27.1733 89.3485 27.1611 89.3485 27.1611L89.3546 26.9047C89.3546 26.8986 89.3485 26.8863 89.3485 26.8802C89.3363 26.7642 89.379 26.7886 89.3607 26.6115L89.3546 26.5627C89.3363 26.4039 89.3851 26.4711 89.3607 26.2452L89.3546 25.7505C89.3546 25.7444 89.3546 25.7322 89.3546 25.7322L89.3485 25.3292C89.3485 25.3231 89.3485 25.3109 89.3485 25.3109L89.3546 25.2254C89.3546 25.2193 89.3546 25.1887 89.3546 25.1826C89.3546 25.1765 89.3546 25.1643 89.3546 25.1643L89.3302 21.3539C89.3241 21.0119 89.4584 21.2501 89.6966 21.0852H89.7393H89.7821L90.3561 20.9692C90.4904 20.9448 90.5209 20.9387 90.6308 20.9142L90.6736 21.0425ZM88.3776 24.1934V24.2361C88.3593 24.456 88.3593 24.3155 88.3776 24.5354V24.5781V24.7063V24.7491C88.4386 24.8895 88.3837 29.1946 88.402 29.848C88.4142 30.2937 88.17 29.9945 87.657 30.2388H87.6143C87.5043 30.2876 87.5471 30.2449 87.4311 30.2632C87.37 30.2754 87.4433 30.2571 87.3456 30.2876C87.254 30.3182 87.3334 30.2754 87.2296 30.3243H87.1868C87.083 30.367 87.0464 30.3792 86.9731 30.2815C87.0158 30.2082 87.028 30.0495 86.9731 29.9396C87.0036 29.8846 86.9853 29.9396 86.9975 29.8602C87.0036 29.8358 86.9975 29.7686 86.9975 29.7625C86.9914 29.6831 87.0036 29.6831 86.9731 29.6037V29.561C87.0158 29.4572 87.0158 29.5365 86.9731 29.4327V29.39C87.0525 29.2007 86.9731 29.4083 86.9731 29.2495V29.1213C86.9731 29.1152 86.9731 29.103 86.9731 29.103V28.6938C86.9731 28.6877 86.9731 28.6755 86.9731 28.6755C86.9731 28.6694 86.9731 28.6572 86.9731 28.6572V21.6898L87.7791 21.5188H87.8219C87.9807 21.4455 88.0173 21.476 88.1211 21.4333H88.1638C88.4936 21.2989 88.3226 21.7569 88.3531 22.6363C88.3715 23.0881 88.3409 23.7415 88.3776 24.1934ZM59.7078 25.8116L59.72 25.8238C59.72 25.8238 59.7017 25.8116 59.7078 25.8116ZM59.7078 26.1536L59.72 26.1658C59.72 26.1597 59.7017 26.1536 59.7078 26.1536ZM63.1946 26.3612H63.2373C63.3595 26.3001 63.4144 26.3368 63.5365 26.2757H63.5793H63.622H63.6648L64.019 26.1719C64.08 26.1597 64.2449 26.178 64.3915 26.1047C64.3915 26.697 64.4098 27.4664 64.4037 27.9122C64.3976 30.0495 64.3731 32.4921 64.4098 34.5866C64.4098 34.7026 64.4525 34.7575 64.3487 34.8308H64.306C64.1716 34.8858 63.4999 34.9224 63.158 35.0873C63.1152 34.9774 63.103 30.4098 63.0969 30.1411L63.0541 26.7337C63.0541 26.6482 63.048 26.581 63.048 26.4955C63.048 26.3368 63.0664 26.4161 63.1946 26.3612ZM59.7078 26.4894L59.72 26.5016C59.72 26.5016 59.7017 26.4955 59.7078 26.4894ZM59.7078 26.8314L59.72 26.8436C59.72 26.8436 59.7017 26.8375 59.7078 26.8314ZM61.7901 35.3438H61.7474C61.6008 35.417 61.4665 35.3865 61.3627 35.4293H61.3199C61.1978 35.4903 61.1428 35.4537 61.0207 35.5147H60.9779H60.9352H60.8925C60.8131 35.5514 60.8375 35.5453 60.7215 35.5575L60.6787 32.9195C60.6787 31.7532 60.7215 30.5014 60.6787 29.3411L60.6604 26.9474C60.7032 26.8131 60.8497 26.868 61.155 26.7825L61.9489 26.6238C61.955 26.6238 62.0283 26.5261 62.071 26.6665C62.0893 26.7215 62.0832 26.8497 62.0832 26.9108C62.0832 27.1917 62.071 27.4787 62.0893 27.7596C62.0954 27.9061 62.0954 27.8023 62.0954 27.9183C62.0649 28.9198 62.1076 30.6357 62.1076 31.5639L62.1321 35.0323C62.1626 35.4048 62.0771 35.2277 61.7901 35.3438ZM59.7078 27.1733L59.72 27.1856C59.72 27.1856 59.7017 27.1794 59.7078 27.1733ZM90.7591 34.7514V34.7942C90.7408 35.014 90.7408 34.8736 90.7591 35.0934V35.1361C90.7408 35.356 90.7408 35.2155 90.7591 35.4354V35.4781C90.7285 35.8506 90.7957 35.6002 90.753 35.8995C90.7285 36.0826 90.7713 35.9605 90.7652 36.1865L90.7713 36.5528C90.7774 36.8276 90.814 38.0856 90.7469 38.1527C90.6797 38.2199 90.5759 38.1527 90.3744 38.2504H90.3316C90.2461 38.2871 90.0752 38.281 89.9408 38.3176C89.9347 38.3176 89.9225 38.3237 89.9164 38.3237L89.5256 38.4153C89.4889 38.3359 89.4951 38.3603 89.4828 38.2443V38.2016V38.0733V38.0306V37.9024V37.8596C89.4401 37.7558 89.4401 37.8352 89.4828 37.7314V37.6886C89.4401 37.5848 89.4401 37.6642 89.4828 37.5604V37.5177C89.4462 37.4261 89.4462 37.31 89.4828 37.2184V37.1757C89.4462 37.0841 89.4462 36.9681 89.4828 36.8765L89.4157 31.0754C89.434 30.825 89.605 30.9777 89.8248 30.8738H89.8675L90.2095 30.7884C90.2217 30.7823 90.6614 30.6357 90.7041 30.7884L90.7591 34.7514ZM88.4631 32.4493V32.4921C88.4203 32.5959 88.4203 32.5165 88.4631 32.6203V32.663C88.4203 32.7668 88.4203 32.6875 88.4631 32.7913V32.834C88.4203 32.9378 88.4203 32.8584 88.4631 32.9623V33.005C88.4203 33.1088 88.4203 33.0294 88.4631 33.1332V33.176C88.4203 33.2798 88.4203 33.2004 88.4631 33.3042V33.347V33.4752V33.5179C88.4203 33.6217 88.4203 33.5424 88.4631 33.6462V33.6889V33.8172V33.8599L88.5058 38.629C88.3776 38.6412 88.3165 38.6474 88.2493 38.6718H88.2066C88.06 38.7451 87.9257 38.7145 87.8219 38.7573H87.7791C87.712 38.7878 87.5166 38.8305 87.4189 38.855C87.3395 38.8733 87.1746 38.8733 87.0586 38.9282C86.9914 38.7573 87.0647 33.8416 87.0341 33.2126L87.0097 32.6203C87.0219 32.5165 87.028 32.5531 87.0219 32.4798C87.0219 32.4676 87.0158 32.4371 87.0097 32.4249L86.9975 31.7715C86.9975 31.6738 86.9975 31.7165 86.9975 31.6249C87.0036 31.4234 86.9487 31.4906 87.4189 31.3868L88.1089 31.2463C88.2188 31.2158 88.3104 31.1608 88.4203 31.2219C88.4203 31.6494 88.4081 32.315 88.4631 32.4493ZM86.0388 36.2414V36.2842C86.0877 36.4002 86.0388 37.7619 86.0815 38.2443V38.2871C86.0388 38.3909 86.0388 38.3115 86.0815 38.4153V38.4581V38.5863V38.629C86.0388 38.7328 86.0388 38.6535 86.0815 38.7573V38.8V38.9282V38.971C86.0999 39.1908 86.0999 39.0504 86.0815 39.2702V39.313C86.0999 39.5328 86.0999 39.3923 86.0815 39.6122V39.6549L86.106 41.5418C86.1121 41.7067 86.0999 41.67 86.0693 41.6945L85.9961 41.7433L85.9106 41.8288C85.6541 41.9509 85.5808 41.7189 85.2327 41.957L85.2572 41.554C85.2816 41.3464 85.3182 41.5479 85.3366 41.1388C85.3366 41.0655 85.3732 40.919 85.3915 40.8579C85.4282 40.7358 85.4037 40.864 85.4221 40.7541C85.4282 40.7052 85.4221 40.6869 85.4221 40.6258L85.4404 40.1129C85.4404 40.1068 85.4465 40.0946 85.4465 40.0885C85.5014 39.8381 85.4098 40.0396 85.4831 39.8686V39.8259V39.6854V39.6427C85.5381 39.5084 85.5014 38.8061 85.5075 38.6107L85.4526 38.0184C85.4037 37.652 85.4465 37.4444 85.3915 37.2856C85.3854 37.2795 85.3793 37.249 85.3732 37.2429L85.3488 37.1818C85.3427 37.1696 85.3366 37.1268 85.3366 37.1207C85.3305 37.0719 85.3366 37.0536 85.3366 36.9925C85.3427 36.6994 85.0801 35.6552 85.0801 35.588C85.0801 35.527 85.0923 35.5819 85.0801 35.527L84.8908 35.1728C84.7137 35.0568 84.8236 35.1484 84.6771 35.0873H84.6343C84.561 35.1239 84.4939 35.1361 84.4206 35.1728C84.3046 35.3499 84.1153 35.356 83.8649 35.4048L83.7916 35.4231C83.7855 35.4231 83.7733 35.4293 83.7733 35.4293C83.5718 35.4842 83.6084 35.417 83.4008 35.5147H83.3581L82.8085 35.6247C82.668 35.6491 82.6619 35.6308 82.5459 35.6857H82.5032C82.3566 35.759 82.2223 35.7285 82.1185 35.7712H82.0757C81.9902 35.8079 81.9536 35.8079 81.862 35.7712C81.7215 35.6735 81.6849 35.643 81.5689 35.6491C81.2391 35.6613 81.3246 35.9056 81.1292 35.9788C80.9827 36.0277 80.9521 35.9849 80.8422 36.0338H80.7995C80.6529 36.1071 80.5186 36.0765 80.4148 36.1193H80.372C80.2804 36.1559 80.0789 36.1681 79.9873 36.2048H79.9446C79.8591 36.2414 79.8774 36.2231 79.7675 36.2475L79.45 36.3086C79.2973 36.3452 79.2668 36.3147 79.1385 36.3758H79.0958C79.053 36.3941 78.9859 36.4063 78.9431 36.4124C78.882 36.4185 78.9126 36.4185 78.8515 36.4063C78.7538 36.388 78.8149 36.4063 78.7599 36.3758C78.6317 36.2903 78.6317 36.2414 78.4729 36.2658C78.3691 36.2842 78.479 36.2536 78.363 36.2964C78.2531 36.3391 78.3447 36.2414 78.247 36.3758C78.1615 36.4368 78.1737 36.4612 78.1737 36.4674L78.076 36.5467C77.9661 36.6017 77.9966 36.5773 77.8439 36.6017C77.734 36.62 77.7768 36.6078 77.6302 36.6383C77.5264 36.6628 77.2577 36.6811 77.1784 36.7116H77.1356H77.0929H77.0501C76.9036 36.7849 76.7692 36.7544 76.6654 36.7971H76.6227C76.4822 36.8521 76.4822 36.7788 76.2624 36.8582L76.2013 36.8826C76.0487 36.8215 76.183 36.8704 76.0425 36.9009C76.0303 36.9009 75.9815 36.9131 75.9693 36.9131L75.8899 36.8948C75.8838 36.8948 75.8716 36.8887 75.8655 36.8826C75.7617 36.8398 75.841 36.8398 75.7372 36.8826H75.6945C75.5418 36.9437 75.7494 36.8582 75.6212 36.9009C75.5968 36.907 75.5846 36.9131 75.554 36.9253C75.493 36.962 75.4685 37.0047 75.3953 37.0536L75.2609 37.1146C75.1571 37.1452 75.2976 37.078 75.1388 37.1391H75.096C74.9922 37.1879 74.8701 37.1879 74.7846 37.2062L74.5037 37.2673C74.3511 37.2978 74.2839 37.3223 74.174 37.3406C74.0091 37.365 73.9358 37.365 73.8625 37.3955H73.8198C73.6916 37.4566 73.6183 37.4444 73.5328 37.4566C73.4351 37.4749 73.5267 37.4566 73.4656 37.4749C73.4595 37.4749 73.4473 37.481 73.4473 37.481C73.4412 37.481 73.429 37.4871 73.429 37.4871L73.142 37.5604C72.8916 37.5787 73.0687 37.6337 72.8977 37.5116C72.739 37.4016 72.6962 37.4322 72.6352 37.3894C72.6168 37.4016 72.568 37.4261 72.5375 37.4383C72.397 37.4993 72.5497 37.4016 72.4275 37.4871L72.2932 37.6459C72.2871 37.652 72.281 37.6642 72.2749 37.6703C72.2688 37.6764 72.2627 37.6947 72.2565 37.6947C72.2504 37.7009 72.2443 37.7131 72.2443 37.7192H72.2016H72.1588H72.1161L71.5299 37.8535C71.5177 37.8535 71.5055 37.8596 71.4994 37.8657L71.4383 37.8902C71.249 37.9085 71.1513 37.9268 70.9376 37.9756C70.8338 38.0001 70.5529 38.0245 70.4613 38.0611H70.4185L70.0643 38.1466C69.9727 38.171 70.0765 38.1527 70.0033 38.1649C69.93 38.1772 69.9422 38.1772 69.8628 38.1466L69.7346 38.0611C69.6003 37.994 69.5697 37.994 69.4354 38.0611H69.3926C69.0507 38.2932 69.4293 38.2504 68.8736 38.3542L68.666 38.4031H68.6415H68.5988H68.556C68.4095 38.4764 68.2752 38.4458 68.1713 38.4886H68.1286C68.037 38.5252 67.8294 38.5252 67.6523 38.568C67.1516 38.6901 67.0661 38.5863 66.9501 38.7512C66.9256 38.7878 66.9745 38.7451 66.9134 38.7939C66.6569 38.9893 66.8462 38.7878 66.7608 39.0015V39.0443L66.5043 40.4488V40.4915C66.376 40.7541 66.5043 40.7174 66.376 41.2426C66.376 41.2487 66.3699 41.2609 66.3699 41.267C66.3699 41.2731 66.3699 41.2853 66.3699 41.2914L66.3883 44.2714C66.486 44.6439 66.4005 44.6927 66.4554 44.8393C66.4799 44.9004 66.4738 44.8881 66.4982 44.9187C66.5165 45.108 66.547 45.0958 66.4982 45.2179L66.3272 45.3889C66.2661 45.4194 66.1745 45.4499 66.1013 45.4805C66.0097 45.5171 66.089 45.4744 66.0158 45.5171L65.8692 45.6148C65.8631 45.6148 65.8509 45.6209 65.8509 45.6209C65.8448 45.6209 65.8326 45.627 65.8326 45.627C65.625 45.743 65.7349 45.8285 65.4845 45.8469C65.4967 45.6698 65.5028 45.743 65.4967 45.5965V45.1446C65.4967 44.9736 65.4967 45.053 65.4845 44.8698V44.8271V44.6988V44.6561V44.5279V44.4851C65.4418 44.3813 65.4418 44.4607 65.4845 44.3569V44.3263C65.4418 44.2225 65.4418 44.3019 65.4845 44.1981V44.1554C65.4418 44.0516 65.4418 44.1309 65.4845 44.0271V43.9844C65.4418 43.8806 65.4418 43.96 65.4845 43.8562V43.8134C65.4479 43.7218 65.4479 43.6058 65.4845 43.5142V43.4714C65.4173 43.3127 65.4967 42.1097 65.4418 41.8044L65.4112 38.8183C65.4234 38.6779 65.5456 38.6962 65.6799 38.684C65.7349 38.6779 65.857 38.6535 65.912 38.6351C65.9181 38.6351 65.9303 38.629 65.9364 38.629L66.3638 38.5435C66.3699 38.5435 66.3822 38.5374 66.3822 38.5374L66.5226 38.5008C66.6692 38.4703 66.6753 38.4825 66.7546 38.4519H66.7974C66.9317 38.3909 66.8401 38.4397 66.9684 38.4092L67.0416 38.397C67.0539 38.397 67.0661 38.3909 67.0722 38.3909C67.0844 38.3909 67.0966 38.3848 67.1027 38.3787C67.1088 38.3787 67.121 38.3726 67.1332 38.3665C67.2187 38.4031 67.1332 38.3787 67.2065 38.3726L67.292 38.3542C67.3409 38.342 67.4447 38.3298 67.5363 38.3054L68.0248 38.1955H68.0675C68.2263 38.1222 68.2629 38.1527 68.3667 38.11H68.4095C68.5072 38.0672 68.6415 38.0978 68.7942 38.0245H68.8369L69.6125 37.8535C69.7285 37.8291 69.5575 37.7802 69.7285 37.8535H69.7712C69.985 37.7497 70.2048 37.7558 70.4185 37.7009C70.4246 37.7009 70.4368 37.6947 70.4429 37.6947L71.1391 37.5421C71.2612 37.5299 71.0902 37.5543 71.2307 37.536L71.2917 37.5238C71.2978 37.5238 71.3101 37.5177 71.3162 37.5177L71.6032 37.4322H71.6459L72.9649 37.1757H73.0076L74.0824 36.9375C74.0885 36.9375 74.1007 36.9314 74.1068 36.9314L74.4854 36.8582C74.4915 36.8582 74.5037 36.8521 74.5098 36.8521L74.6991 36.8093C74.7419 36.8032 74.7419 36.8032 74.8029 36.7849C74.8945 36.7544 74.8152 36.791 74.919 36.7482H74.9617L75.8838 36.5589C76.0548 36.5101 76.1097 36.5284 76.1952 36.4918H76.238C76.3967 36.4185 76.4334 36.449 76.5372 36.4063H76.5799L77.3127 36.2536C77.3188 36.2536 77.331 36.2475 77.331 36.2475L78.2653 36.0521C78.2775 36.0521 78.3019 36.046 78.3141 36.0399L79.4255 35.814H79.4683L79.7553 35.7468C79.7614 35.7468 79.7797 35.7407 79.7797 35.7407C79.7858 35.7407 79.798 35.7346 79.8041 35.7346C79.9201 35.6857 80.4209 35.6552 80.6102 35.5636H80.6529C80.7445 35.527 80.946 35.5147 81.0376 35.4781H81.0804L81.7338 35.3377C81.8498 35.3193 81.9231 35.2949 82.1001 35.2583C82.2162 35.24 82.2039 35.2461 82.265 35.2277L83.9321 34.8797H83.9748C84.1336 34.8064 84.1702 34.8369 84.274 34.7942H84.3168L85.2083 34.6232L85.5503 34.5377H85.593C85.6785 34.5011 85.6724 34.5194 85.8007 34.495C85.9167 34.4705 85.9106 34.4889 86.0205 34.4095C85.99 34.7637 85.9838 34.5682 86.0205 34.7637C86.0449 34.9102 86.0022 34.8491 85.9961 34.9774C85.9961 35.0445 86.0022 35.0323 86.0144 35.0812C86.0144 35.0873 86.0205 35.0995 86.0205 35.0995L86.0449 35.6979C86.051 35.7529 86.0571 35.7468 86.0449 35.8017C86.0449 35.8079 86.0388 35.8201 86.0388 35.8201V36.0094C86.0693 36.101 86.0754 36.1559 86.0388 36.2414ZM64.4708 37.7314V37.7741C64.422 37.8963 64.4525 37.884 64.4708 38.0733V38.1161C64.4525 38.3359 64.4525 38.1955 64.4708 38.4153V38.4581V38.5863V38.629V38.7573V38.8C64.5197 39.4107 64.5075 43.2638 64.4708 43.3554L63.3717 43.6058C63.2312 43.6363 63.4083 43.6852 63.2373 43.6119C63.1763 43.4653 63.2557 43.4165 63.1946 43.2699V43.2272C63.2434 43.1051 63.2129 43.1173 63.1946 42.928V42.8852C63.2373 42.7814 63.2373 42.8608 63.1946 42.757V42.7142V42.586V42.5433V42.415V42.3723C63.1763 42.1525 63.1763 42.2929 63.1946 42.0731V42.0303L63.158 41.0838C63.158 41.0777 63.1641 41.0655 63.1641 41.0655C63.2007 40.8701 63.1274 41.0167 63.158 40.7174C63.158 40.7113 63.1641 40.6197 63.1641 40.6075C63.1641 40.6014 63.1641 40.5892 63.158 40.5831L63.1457 40.1068C63.1457 40.1007 63.1457 40.0702 63.1457 40.064C63.1457 40.0579 63.1457 40.0457 63.1457 40.0457L63.1396 39.661C63.1091 39.3801 63.1702 39.4778 63.1335 39.3007C63.1152 39.2275 63.1213 39.313 63.1213 39.2153V36.8704C63.1213 36.7238 63.0663 36.2414 63.1824 36.1559H63.2251H63.2679H63.3106L63.5549 36.0765C63.561 36.0765 63.5732 36.0704 63.5793 36.0704L64.2571 35.9422C64.4098 35.9178 64.2815 35.8872 64.422 35.9422C64.4953 36.1254 64.4159 35.9239 64.4159 36.0826C64.4159 36.0888 64.4159 36.101 64.4159 36.101C64.4159 36.1254 64.4281 36.1498 64.4281 36.162C64.4464 36.2475 64.4403 36.2719 64.4403 36.3758C64.4464 36.6261 64.4281 37.6215 64.4708 37.7314ZM62.1748 37.8169V37.8596C62.1565 38.0795 62.1565 37.939 62.1748 38.1588V38.2016V38.3298V38.3726C62.2237 38.4947 62.1931 38.4825 62.1748 38.6718V38.7145C62.2786 38.971 62.0893 43.276 62.2603 43.6974V43.7401L62.1321 43.8684H62.0893C61.9428 43.9416 61.8084 43.9111 61.7046 43.9539H61.6619C61.5153 44.0271 61.381 43.9966 61.2772 44.0393H61.2344L60.8802 44.1248C60.7642 44.1493 60.9413 44.1981 60.7642 44.1248C60.7215 44.0149 60.7459 40.3205 60.7459 40.0518L60.7398 37.7375C60.7276 37.4322 60.6604 36.7116 60.8375 36.6567C60.8497 36.6505 60.9291 36.6444 60.9841 36.6383L61.7413 36.4857C61.8512 36.4551 61.8329 36.4674 61.9183 36.4246H61.9611H62.0038H62.0466C62.1565 36.3635 62.1137 36.3574 62.1565 36.449L62.1626 37.6031C62.1565 37.707 62.1626 37.652 62.1748 37.8169ZM85.2327 36.7055L85.245 36.7177C85.245 36.7177 85.2266 36.7116 85.2327 36.7055ZM89.6966 40.7968H89.6538C89.379 40.6625 89.5439 40.9128 89.3973 40.7113C89.1897 40.5709 89.2935 40.5159 88.9699 40.4793C88.8111 40.461 88.7134 40.4915 88.5913 40.6686L88.4203 40.5404H88.3776C88.1394 40.4426 88.06 40.6625 87.9929 40.7113L87.8402 40.7358C87.6143 40.693 87.6387 40.577 87.3151 40.7968L87.1135 41.0167C86.9181 40.7297 87.1441 40.3327 87.0158 40.0274L87.199 40.003C87.2051 40.003 87.2174 39.9969 87.2235 39.9969L88.1577 39.8015C88.17 39.8015 88.1944 39.7954 88.2066 39.7893L88.8478 39.6488H88.8905H88.9333C89.0615 39.5877 89.1287 39.6183 89.2874 39.5816C89.3851 39.5572 89.5928 39.5084 89.6538 39.4839H89.6966H89.7393H89.7821C89.9408 39.4107 89.9775 39.4412 90.0813 39.3984H90.124H90.1668H90.2095C90.3194 39.3496 90.2706 39.3801 90.3744 39.3496L90.8018 39.2702C90.7347 39.4351 90.8018 40.0824 90.8018 40.6747C90.7713 40.6991 90.6919 40.7358 90.6736 40.7541L90.6064 40.809C90.6003 40.809 90.5942 40.8212 90.5881 40.8212L90.4354 40.9312C90.3744 40.9617 90.3744 40.9678 90.3011 40.9495C90.1179 40.9128 90.1545 40.8457 89.9652 40.8212C89.8492 40.7968 89.8187 40.8457 89.6966 40.7968ZM64.4708 45.5599C64.2876 45.4377 64.1044 45.3583 63.8968 45.4499L63.7075 45.5599L63.5793 45.4744H63.5365C63.4327 45.4316 63.4205 45.4316 63.2984 45.4927C63.1213 45.5782 63.1579 45.5965 63.0236 45.6881C62.8343 45.6392 62.6328 45.4683 62.4374 45.7614C62.3641 45.8713 62.4007 45.8285 62.303 45.9018L62.2176 45.9873L62.1687 46.0178C62.0771 46.0972 62.0466 46.2193 61.9183 46.4148C61.7779 46.4697 61.7229 46.4148 61.5336 46.4514L61.1795 46.6529C61.1734 46.659 61.1611 46.6651 61.155 46.6712C60.9718 46.7934 61.1062 46.7995 60.8131 46.7995C60.8009 46.6651 60.8131 46.7201 60.7703 46.6285C60.8009 46.5735 60.7825 46.6285 60.7948 46.5491C60.8009 46.5247 60.7948 46.4575 60.7948 46.4514C60.7886 46.372 60.8009 46.372 60.7703 46.2926V46.2499C60.8131 46.1461 60.8131 46.2255 60.7703 46.1216V46.0789C60.8497 45.8896 60.7703 46.1033 60.7703 45.9384V45.853C60.7703 45.8469 60.7703 45.8346 60.7703 45.8346V45.6453C60.7703 45.6392 60.7703 45.6087 60.7703 45.6026L60.7764 45.5171C60.7764 45.511 60.7764 45.4988 60.7764 45.4988C60.7764 45.4927 60.7764 45.4683 60.7764 45.456C60.7764 45.2179 60.8619 45.4805 60.7764 45.2728C60.868 45.2301 61.0146 45.224 61.0818 45.2057L61.1306 45.1874C61.2283 45.1568 61.094 45.1935 61.2161 45.1568L61.9244 45.0164H61.9672C62.126 44.9431 62.1626 44.9736 62.2664 44.9309H62.3092C62.4007 44.8942 62.4496 44.9126 62.6328 44.8698C62.7061 44.8515 62.7794 44.8332 62.8099 44.8271L63.5427 44.6744H63.5854C63.7442 44.6072 63.6037 44.6805 63.7075 44.65C63.7197 44.65 63.7503 44.6378 63.7625 44.6317C63.8236 44.6072 63.8113 44.6134 63.8419 44.5889C64.0434 44.6744 63.7442 44.6072 64.1411 44.5462L64.3426 44.5095C64.4342 44.4912 64.3548 44.4485 64.4769 44.5034C64.5563 44.6988 64.4586 45.1324 64.5136 45.3889C64.538 45.5171 64.5991 45.3706 64.4708 45.5599ZM91.1194 17H91.2049C91.3453 17.0183 91.4674 17.116 91.5407 17.2626C91.5407 17.2687 91.5468 17.2809 91.5468 17.287C91.5468 17.2931 91.5529 17.3053 91.5529 17.3114C91.5529 17.3175 91.559 17.3297 91.559 17.3359L91.6018 17.4397C91.6628 17.6168 91.6323 18.9846 91.6323 19.2289C91.6323 20.2853 91.5896 22.3798 91.6384 23.3873L91.6567 24.1262C91.6567 24.1934 91.6567 24.114 91.6445 24.2117C91.6323 24.2972 91.6384 24.1812 91.6323 24.2911L91.6628 26.5077C91.6689 26.6543 91.6384 27.0207 91.6873 27.1428V27.1856C91.6506 27.2771 91.6506 27.3932 91.6873 27.4848V27.5275C91.6506 27.6191 91.6506 27.7351 91.6873 27.8267V27.8695C91.6445 27.9733 91.6445 27.8939 91.6873 27.9977V28.0405C91.6445 28.1443 91.6445 28.0649 91.6873 28.1687V28.2114C91.6445 28.3152 91.6445 28.2359 91.6873 28.3397V28.3824C91.6445 28.4862 91.6445 28.4068 91.6873 28.5107V28.5534C91.6445 28.6572 91.6445 28.5778 91.6873 28.6816V28.7244V28.8526V28.8954V29.0236V29.0663C91.7544 29.8419 91.7117 33.4752 91.7056 34.1835C91.7056 34.8858 91.6812 36.2964 91.7178 37.1696C91.7239 37.249 91.7117 37.3467 91.7117 37.4139L91.7666 40.174C91.8766 40.1312 91.9559 40.1434 92.1086 40.2167H92.1514C92.2185 40.2472 92.2613 40.2533 92.3284 40.2961C92.3773 40.3266 92.3956 40.3449 92.4506 40.3877H92.4933C92.5971 40.4304 92.5177 40.4304 92.6216 40.3877H92.6643C92.7681 40.3449 92.6887 40.3449 92.7925 40.3877H92.8353C92.9696 40.4549 92.933 40.3999 93.0612 40.5037C93.1406 40.5709 93.1284 40.5831 93.22 40.6442C93.2261 40.6503 93.2383 40.6564 93.2444 40.6625C93.2505 40.6625 93.2627 40.6747 93.2688 40.6808C93.2749 40.6869 93.2811 40.693 93.2872 40.6991C93.3543 40.7602 93.281 40.7419 93.391 40.8212C93.4459 40.9312 93.4276 41.1021 93.4032 41.1571L93.2383 41.3769C92.707 41.8166 93.1956 41.5174 92.9269 41.7128L92.3834 41.9815C92.0292 42.0792 92.2368 42.1158 92.0781 42.0548H92.0353C91.846 41.9632 91.8705 41.9632 91.7361 42.0548H91.6934L91.5651 42.1402H91.5224C91.4186 42.0975 91.498 42.0975 91.3941 42.1402C91.3514 42.1097 91.3942 42.1341 91.3148 42.0914C91.2965 42.0853 91.2476 42.067 91.2232 42.0548L91.0888 42.1341C91.0339 42.1769 91.0278 42.1891 90.9789 42.2379C90.9179 42.299 90.9362 42.2868 90.8629 42.3356L90.753 42.3967L90.6675 42.4822H90.6247H90.582C90.4843 42.5249 90.4171 42.5311 90.3561 42.5494C90.3133 42.5616 90.3438 42.5433 90.2706 42.5982C90.2034 42.641 90.2828 42.5982 90.1973 42.6532H90.1545C90.124 42.6715 89.9652 42.7387 89.9347 42.7509C89.8981 42.7631 89.8126 42.7814 89.6905 42.7814C89.379 42.7875 89.4035 42.7142 89.1775 42.8242H89.1348C89.0432 42.8608 89.0126 42.8486 88.8844 42.8364L88.7623 42.8181C88.5852 42.8058 88.6035 42.9219 88.3654 42.9646C88.2615 42.9829 88.2738 42.9402 88.1577 42.989H88.115C87.9257 42.9097 88.1333 43.0135 87.9684 42.9524C87.7975 42.8913 87.773 42.7509 87.4372 42.989C87.37 43.0196 87.3273 43.0257 87.2601 43.0684C87.2112 43.099 87.1929 43.1173 87.138 43.16H87.0952C86.8693 43.2516 86.8082 43.0867 86.3502 43.3066L86.0449 43.4165C85.935 43.4592 85.7335 43.447 85.5991 43.4043L85.477 43.3676C85.3305 43.3371 85.3854 43.331 85.2694 43.4104L84.4206 43.6669H84.3778H84.3351H84.2924H84.2496H84.2069H84.1641H84.1214C84.0176 43.7096 84.097 43.7096 83.9931 43.6669H83.9504C83.8161 43.734 83.7855 43.734 83.6512 43.6669H83.6084C83.5046 43.6241 83.584 43.6241 83.4802 43.6669H83.4375L83.3092 43.7523H83.2665C83.0833 43.8256 82.9856 43.7401 82.8818 43.7096C82.8146 43.7523 82.8207 43.7646 82.7657 43.8073L82.381 44.0577C81.862 44.3813 82.1429 44.1309 81.862 44.2653C81.6361 44.4241 81.575 44.3691 81.4345 44.4363H81.3918C81.288 44.3935 81.3674 44.3935 81.2636 44.4363H81.2208C81.1353 44.3996 81.0743 44.3935 80.9643 44.4241C80.4453 44.5767 80.6285 44.3386 80.0728 44.6011H80.0301H79.9873H79.9446C79.853 44.6378 79.7736 44.6317 79.7003 44.6134C79.6942 44.6134 79.6515 44.595 79.6392 44.595L79.4805 44.5156H79.4377C79.2484 44.534 79.2607 44.5218 79.1385 44.6011C79.1324 44.6072 79.1141 44.6133 79.1141 44.6195C79.108 44.6256 79.0958 44.6317 79.0897 44.6378C79.0836 44.6439 79.0713 44.65 79.0652 44.6561C79.0591 44.6622 79.0469 44.6683 79.0408 44.6744L78.8943 44.7782H78.8515C78.6439 44.8759 78.595 44.8332 78.3813 44.8454C78.2958 44.8515 78.2225 44.8698 78.1126 44.9248C78.0271 44.9614 77.9539 44.9981 77.8806 45.0347H77.8378C77.7401 45.0774 77.4531 45.1019 77.2944 45.0652C76.928 44.9858 77.215 44.9553 76.6898 45.2057H76.6471C76.4883 45.279 76.4517 45.2484 76.3479 45.2912H76.3051H76.2624H76.2196C76.0975 45.34 75.9693 45.3156 75.7922 45.3217C75.6578 45.3278 75.4014 45.3461 75.3281 45.3767H75.2854C75.1754 45.4316 75.0961 45.4438 75.0167 45.4438C74.9068 45.4438 74.9312 45.456 74.8152 45.3767H74.7724C74.0946 45.7003 74.2961 45.3461 74.0091 45.5476L73.8809 45.6331C73.8748 45.6392 73.8625 45.6453 73.8564 45.6514L73.5389 45.8896H73.4962C73.4229 45.9262 73.3557 45.9385 73.2824 45.9751H73.2397L72.7634 46.1583C72.739 46.1644 72.684 46.1766 72.6291 46.1827C72.3237 46.2071 72.281 46.0972 72.0062 46.2316H71.9634C71.8718 46.1949 71.7558 46.1949 71.6642 46.2316H71.6215L71.4016 46.3293C71.3955 46.3293 71.3833 46.3354 71.3772 46.3354C71.3039 46.3537 71.249 46.3598 71.1574 46.4025H71.1146C70.962 46.3415 71.0963 46.4209 70.9376 46.3598C70.559 46.2255 70.62 46.1827 70.3086 46.4025C69.8018 46.7567 69.7407 46.4636 69.2949 46.6895C69.1117 46.7811 68.8064 46.8544 68.6171 46.8239L68.5499 46.8056C68.5072 46.7934 68.5377 46.8056 68.4706 46.7872C68.3545 46.7445 68.3973 46.7628 68.3057 46.7018C68.2507 46.7872 68.2568 46.7995 68.1469 46.8483C68.1408 46.8483 68.1286 46.8544 68.1225 46.8544L68.0065 46.9155C67.9698 46.9399 67.9881 46.9338 67.9271 46.9582C67.9149 46.9643 67.8843 46.9704 67.8721 46.9765C67.7683 47.0071 67.9088 46.9338 67.75 47.001H67.7073C67.5973 47.0498 67.3897 47.0132 67.2371 47.0865H67.1943C67.0905 47.0437 67.1699 47.0437 67.0661 47.0865H67.0233C66.9195 47.0437 66.9989 47.0437 66.8951 47.0865H66.8523C66.7485 47.0437 66.8279 47.0437 66.7241 47.0865H66.6814C66.1745 46.8727 66.0768 47.3368 66.028 47.2391C66.0219 47.233 66.0097 47.2513 66.0036 47.2513L65.8753 47.3368C65.8692 47.3429 65.857 47.349 65.8509 47.3551L65.686 47.4467C65.5028 47.5261 65.625 47.4345 65.3196 47.5872C65.2402 47.6238 65.1853 47.6421 65.112 47.6788H65.0693C64.941 47.7399 64.8372 47.7276 64.6479 47.7154C64.4892 47.7032 64.5136 47.6849 64.3426 47.7643H64.2999C64.1411 47.6971 64.2815 47.7521 64.2083 47.7643C64.2022 47.7643 64.1899 47.7704 64.1838 47.7704C63.7808 47.8253 64.0556 47.6666 63.6648 47.8559C63.6159 47.8925 63.6648 47.8742 63.5549 47.9108C63.5243 47.923 63.4999 47.923 63.4816 47.923C63.3717 47.9353 63.4388 47.8925 63.3228 47.9414H63.2801C63.1518 47.8864 63.2434 47.9536 63.0786 47.8864C62.6267 47.7093 62.7488 47.8864 62.3641 48.0452L62.187 48.1001C62.1809 48.1001 62.1687 48.1062 62.1687 48.1062C61.9672 48.1673 61.7535 48.1307 61.6252 48.1917L61.4237 48.2955C61.3504 48.3139 61.3016 48.3139 61.1978 48.3627H61.155C60.9474 48.2772 61.1489 48.4665 60.7398 48.3444L60.581 48.3016C60.349 48.2772 60.4223 48.3994 60.178 48.4726C60.1353 48.4848 60.1169 48.4909 60.0681 48.5093C59.7628 48.6253 59.6895 48.5703 59.5796 48.6131H59.5368C59.433 48.5703 59.5124 48.5703 59.4086 48.6131H59.3658C59.262 48.5703 59.3414 48.5703 59.2376 48.6131H59.1949H59.1521H59.1094C59.0056 48.6558 59.0849 48.6558 58.9811 48.6131H58.9384C58.859 48.5764 58.7918 48.5886 58.7308 48.5825C58.7247 48.5825 58.6148 48.5642 58.6025 48.5642C58.517 48.5398 58.5537 48.5581 58.5109 48.5276H58.4682H58.4255H58.3827H58.34H58.2972H58.2606C58.1079 48.4665 58.1507 48.5703 58.0041 48.3566C57.9003 48.2833 57.9369 48.265 57.9369 48.1551C57.9369 48.0574 57.9125 48.0452 58.0041 47.9719L58.3461 47.6299L58.5171 47.459L58.7735 47.288H58.8163H58.859L59.0361 47.1231C59.1399 47.0376 59.5002 47.0742 59.836 47.0742C59.7872 46.9643 59.8116 44.3813 59.8055 43.9722C59.8055 43.8317 59.8238 42.2563 59.7506 42.1341C59.8055 42.0242 59.7933 41.8654 59.7506 41.7922C59.8055 41.6823 59.7933 41.5235 59.7506 41.4502C59.8055 41.3403 59.7933 41.1815 59.7506 41.1083C59.8055 40.9983 59.7933 40.8396 59.7506 40.7663C59.7872 40.6808 59.775 40.6869 59.775 40.6075C59.775 40.6014 59.775 40.5281 59.775 40.5098C59.7628 40.4243 59.7811 40.4793 59.7506 40.4304C59.7933 40.3266 59.775 40.2778 59.7567 40.1862L59.7506 40.0579C59.7506 40.0518 59.7567 40.0396 59.7567 40.0396C59.7567 40.0335 59.7628 40.0213 59.7628 40.0213C59.7628 40.0091 59.775 39.9419 59.775 39.9358C59.775 39.8625 59.7689 39.9053 59.7567 39.8503C59.7139 39.6549 59.7811 39.7648 59.7567 39.5389L59.7017 28.2603V28.2175C59.6651 28.1259 59.6651 28.0099 59.7017 27.9183V27.8756C59.6651 27.784 59.6651 27.668 59.7017 27.5764V27.5336C59.6345 27.3932 59.659 25.9154 59.659 25.488C59.659 24.9689 59.5857 23.7782 59.7444 23.4423C59.9887 23.2652 59.6284 23.4484 59.8727 23.2713C60.3246 22.9599 60.5444 23.2957 60.6421 23.6438L60.636 25.7811L61.0818 25.7078C61.1978 25.6773 61.1428 25.6956 61.2283 25.6528H61.2711C61.3688 25.6101 61.5031 25.6406 61.6558 25.5673H61.6985L62.5046 25.3964H62.5473C62.645 25.3536 62.7794 25.3842 62.932 25.3109H62.9748L63.7808 25.1399H63.8236C63.9701 25.0666 64.1045 25.0971 64.2083 25.0544H64.251L64.3792 25.0117L64.3365 23.2225C64.4464 22.9965 64.2693 22.679 64.5197 22.3737C64.5258 22.3676 64.538 22.3492 64.5441 22.3431L64.5746 22.3126C64.5808 22.3065 64.5869 22.3004 64.593 22.3004L64.8555 22.2027C64.8983 22.2027 64.9777 22.2088 64.9838 22.2149C65.0448 22.2332 65.1364 22.3187 65.1975 22.392C65.3502 22.5813 65.338 22.795 65.3318 22.9049L65.3563 28.4618C65.3563 28.4679 65.3563 28.4801 65.3563 28.4801V28.9076C65.3624 29.0663 65.4357 28.8587 65.3563 29.048V29.0908C65.399 29.1946 65.399 29.1152 65.3563 29.219V29.2617C65.3868 29.3289 65.3807 29.2801 65.3868 29.3533C65.3929 29.4449 65.3868 29.3839 65.3563 29.4327C65.399 29.5365 65.399 29.4572 65.3563 29.561V29.6037C65.3868 29.6709 65.3807 29.622 65.3868 29.6953C65.3929 29.7869 65.3868 29.7258 65.3563 29.7747C65.3868 29.8419 65.3807 29.793 65.3868 29.8663C65.3929 29.9579 65.3868 29.8968 65.3563 29.9457C65.3868 30.0128 65.3807 29.964 65.3868 30.0373C65.3929 30.1289 65.3868 30.0678 65.3563 30.1166C65.4112 30.2266 65.399 30.3853 65.3563 30.4586C65.4112 30.5685 65.3807 30.4769 65.3868 30.6052C65.3868 30.6052 65.3868 30.709 65.3868 30.7456C65.3685 32.089 65.4234 33.2187 65.4234 34.5072C65.4234 34.8553 65.3929 37.5299 65.4418 37.6459L66.2478 37.4749H66.2906C66.3883 37.4322 66.5226 37.4627 66.6753 37.3894H66.718L67.5241 37.2184H67.5668C67.75 37.1268 67.7866 37.1696 67.8965 37.1452L68.208 37.0475H68.2507H68.2935H68.3362C68.4583 36.9925 68.6171 36.9925 68.6965 36.9742C68.7942 36.9559 68.9896 36.9131 69.0568 36.8765H69.0995C69.1972 36.8337 69.3316 36.8643 69.4842 36.791H69.527C69.6247 36.7482 69.759 36.7788 69.9117 36.7055H69.9544L70.7605 36.5345H70.8032L71.481 36.3635C71.6703 36.4429 71.4016 36.3758 71.7925 36.3086L72.3176 36.2048C72.3237 36.2048 72.3359 36.1987 72.3359 36.1987L72.397 36.1803C72.4825 36.162 72.6046 36.162 72.7084 36.1132H72.7512C72.8489 36.0704 72.9832 36.101 73.1359 36.0277H73.1786L73.9847 35.8567H74.0274L74.6136 35.7224C74.6869 35.704 74.6503 35.759 74.6747 35.6979C74.6808 35.6857 74.6991 35.6918 74.7052 35.6857C74.8579 35.6735 75.1144 35.6186 75.1815 35.6002C75.3403 35.5636 75.5357 35.5392 75.5968 35.5147H75.6395C75.7617 35.4537 75.8166 35.4903 75.9387 35.4293H75.9815C76.0792 35.3865 76.2135 35.417 76.3662 35.3438H76.4089C76.4883 35.3132 76.5005 35.3193 76.6288 35.301L76.8059 35.2705C76.812 35.2705 76.8242 35.2644 76.8303 35.2644C76.8364 35.2644 76.8486 35.2583 76.8486 35.2583L77.044 35.2094C77.16 35.185 77.1295 35.2094 77.2211 35.1728H77.2638C77.3677 35.13 77.3249 35.1606 77.447 35.1361C77.618 35.1056 77.5569 35.1056 77.6546 35.0751L78.8332 34.8308H78.8759L80.0789 34.5805C80.2682 34.5255 80.3171 34.556 80.4514 34.495H80.4941L81.3002 34.324H81.3429C81.5689 34.2141 81.5872 34.2996 81.7277 34.2385H81.7704L82.0696 34.153H82.1124L83.2482 33.921C83.352 33.8965 83.2482 33.921 83.3153 33.9026C83.5046 33.8477 83.5535 33.8782 83.6878 33.8172H83.7306C83.8344 33.7744 83.7977 33.811 83.9504 33.7744L84.5427 33.6462H84.5855L85.5686 33.4386C85.7762 33.4019 85.7945 33.3531 86.0327 33.3531C85.9838 33.237 86.0083 31.6494 86.0083 31.3868C86.0083 30.1411 86.0632 28.0343 85.9961 26.8375C85.99 26.7642 85.99 26.7031 85.99 26.6299C85.9838 25.6834 86.0449 24.7002 85.9594 23.7598C85.9594 23.7415 85.9533 23.7415 85.9472 23.7293C86.0022 23.6194 85.99 23.4606 85.9472 23.3873C86.0205 23.2347 85.9411 23.2164 85.9472 22.9904V22.6301C85.9472 22.624 85.9472 22.6118 85.9472 22.6118C85.9472 22.6057 85.9472 22.5752 85.9472 22.5691V18.435C86.0327 18.1419 85.9838 18.2152 86.0754 18.148L86.2464 17.977C86.3014 17.9404 86.454 17.8549 86.6311 17.977C86.7044 18.0259 86.7777 18.0747 86.8326 18.1541C86.9975 18.3923 86.9303 20.1998 86.9303 20.5723C87.1074 20.499 86.9242 20.6028 87.1013 20.5295H87.1441C87.2906 20.4562 87.425 20.4868 87.5288 20.444H87.5715C87.6631 20.4074 87.8646 20.3952 87.9562 20.3585H87.999C88.06 20.328 88.3898 20.2486 88.4753 20.2303C88.6768 20.1876 88.6951 20.2303 88.8111 20.1876L89.1653 20.0899C89.2752 20.0654 89.3057 20.1021 89.495 20.0166H89.5378L90.4416 19.8395C90.6675 19.7784 90.6736 19.8029 90.6675 19.6441C90.6614 19.235 90.637 17.6229 90.6858 17.5068V17.4641C90.7347 17.3481 90.6797 17.4336 90.7163 17.342C90.7652 17.2015 90.7347 17.2992 90.7713 17.232C90.8202 17.1404 90.7896 17.1343 90.9423 17.0366H90.985C91.0217 17.0183 91.0705 17.0061 91.1194 17Z" fill="white" fill-opacity="0.85"/>
<path fill-rule="evenodd" clip-rule="evenodd" d="M49.9196 59.8684H49.8035C49.6875 59.8623 49.5043 59.8501 49.199 59.8256C49.1868 59.8195 49.1746 59.8134 49.1685 59.8134C49.1624 59.8134 49.144 59.8012 49.1379 59.8012C49.1318 59.8012 49.1135 59.7951 49.1074 59.789C48.9486 59.7401 48.8631 59.7768 48.7654 59.7585L48.3197 59.5997C48.051 59.447 48.0327 59.4959 47.8434 59.4043H47.8006C47.6785 59.4898 47.7151 59.5203 47.5442 59.5508C47.3426 59.5875 47.1289 59.4409 46.964 59.502L46.8236 59.5753L46.7625 59.5997C46.7503 59.5997 46.7381 59.6058 46.732 59.6119C46.5793 59.6424 46.4267 59.6302 46.3168 59.5753H46.274C46.1336 59.6363 46.2252 59.5814 46.1091 59.5692L45.8038 59.4898C45.7244 59.3738 45.6206 59.2394 45.468 59.1906C45.2665 59.1234 45.4619 59.2516 45.297 59.1356C45.2298 59.0929 45.1993 59.0379 45.1626 58.9768V58.9341C45.126 58.8303 45.1871 58.8791 45.0771 58.8486C45.1199 58.7814 45.1321 58.7814 45.1687 58.7082C45.2176 58.6105 45.1199 58.6898 45.242 58.586C45.3458 58.4944 45.3947 58.5127 45.5351 58.3662C45.6695 58.2257 45.6573 58.238 45.8099 58.2074C45.9687 58.1769 45.9992 58.2074 46.103 58.1647H46.1458C46.3534 58.0792 46.1275 58.2257 46.3045 58.1097C46.3656 58.067 46.3656 58.0487 46.445 57.9937L46.7015 57.8655C46.7015 57.7128 46.7137 57.4747 46.7137 57.4014L46.7076 54.0978C46.7076 54.0978 46.6221 53.9818 46.6099 53.9573L46.5488 53.6642C46.5732 53.5726 46.4877 53.6581 46.616 53.5726C46.7076 53.4322 46.6954 53.536 46.732 53.365L46.787 52.0827V52.0399C46.7686 51.8201 46.7686 51.9605 46.787 51.7407V51.698L46.8053 49.7744C46.8053 49.2859 46.8663 49.4874 46.7442 49.3958C46.2252 48.9928 46.7747 48.7913 46.8053 48.6264L46.8358 45.1702C46.8358 45.0725 46.8419 45.0541 46.848 44.9564C46.8541 44.7977 46.848 44.8587 46.8663 44.6816V44.6389C46.7259 44.4252 46.6587 44.4923 46.6282 44.3336C46.5549 43.9672 46.8969 43.8695 47.0923 43.8084L47.4587 43.7107H47.5014C47.5747 43.6741 47.6419 43.6619 47.7151 43.6252H47.7579C47.8556 43.5825 47.9899 43.613 48.1426 43.5397H48.1853C48.3319 43.4726 48.5761 43.442 48.6677 43.4298L48.9975 43.3688H49.0402C49.1135 43.3382 49.1868 43.3382 49.3517 43.3138C49.431 43.3016 49.541 43.2772 49.6203 43.265C49.718 43.2527 50.0783 43.2405 50.1882 43.1978H50.231L51.8797 43.1367C52.5698 43.1367 53.0827 43.1978 53.5895 43.1978H53.6323C53.7727 43.265 53.9987 43.2527 54.133 43.2588C54.1391 43.2588 54.188 43.265 54.1941 43.265C54.2002 43.265 54.2124 43.2711 54.2124 43.2711L54.2979 43.3016C54.4017 43.326 54.6032 43.3016 54.7742 43.3688H54.8169L56.4779 43.7107H56.5206C56.5939 43.7413 56.9908 43.8023 57.1557 43.8817L57.2656 43.9428C57.3145 43.9794 57.3084 43.9672 57.3389 44.016C57.3389 44.0222 57.345 44.0344 57.3511 44.0344C57.3511 44.0405 57.3572 44.0527 57.3572 44.0527C57.4488 44.2603 57.3938 44.4679 57.1984 44.6023C57.1496 44.7183 57.1801 46.9777 57.1801 47.2952C57.1801 48.7913 57.0763 48.5592 57.3389 48.7608C57.6015 48.9623 57.516 49.2309 57.3633 49.3653C57.1435 49.5546 57.1801 49.3531 57.1801 49.9759V54.0001C57.174 54.2627 57.2412 54.1283 57.3816 54.3482C57.5648 54.6229 57.2168 54.8855 57.1984 54.9588L57.2046 55.4595V55.5023C57.2351 55.5694 57.229 55.5206 57.2351 55.5939C57.2412 55.6855 57.2351 55.6244 57.2046 55.6733C57.2595 55.7832 57.229 55.6916 57.2351 55.8198C57.2351 55.8259 57.2351 55.9053 57.2351 55.9297C57.2351 56.0824 57.2351 56.003 57.2473 56.1801V56.2228C57.2962 56.345 57.2717 56.9922 57.2717 57.1693L57.3145 57.9143C57.3267 58.0242 57.29 58.0242 57.3328 58.1403V58.183C57.2656 58.3418 57.4183 58.3601 57.6076 58.4578L57.687 58.5066C57.6931 58.5005 57.7053 58.5189 57.7114 58.525L58.0839 58.6959C58.09 58.6959 58.1022 58.7021 58.1083 58.7021C58.1144 58.7021 58.1266 58.7082 58.1327 58.7082L58.3709 58.8547C58.377 58.8608 58.3831 58.8669 58.3831 58.873L58.4075 58.9097C58.5663 59.1661 58.3281 59.331 58.1266 59.3799C58.0411 59.4043 58.0411 59.386 57.9679 59.386C57.7297 59.3799 57.8702 59.4776 57.6686 59.5203C57.632 59.5264 57.5648 59.5142 57.5221 59.5142C57.3267 59.5264 57.3633 59.5997 57.1068 59.6363C56.9664 59.6547 56.9114 59.6119 56.7832 59.6608H56.7405C56.5573 59.734 55.855 59.734 55.6779 59.6608H55.6352C55.5863 59.6363 55.5741 59.6363 55.5192 59.6058C55.2383 59.4715 55.281 59.5325 55.1833 59.5814C54.9207 59.7218 54.4994 59.8501 54.2368 59.7463H54.1941C54.0964 59.7035 54.0536 59.7401 53.8949 59.6608H53.8521C53.7483 59.7035 53.3331 59.7279 53.2659 59.7279C52.7529 59.6913 52.3805 59.3982 52.0935 59.6058C51.611 59.9539 51.3851 59.7035 51.0431 59.7096C51.0065 59.7096 50.9027 59.7279 50.8966 59.7279C50.7745 59.7585 50.7806 59.7829 50.5241 59.7829C50.3287 59.7829 50.3348 59.7463 50.231 59.7707C49.9745 59.8134 50.06 59.8562 49.9196 59.8684Z" fill="white" fill-opacity="0.85"/>
<path fill-rule="evenodd" clip-rule="evenodd" d="M41.5414 25.6402H41.4987C41.23 25.7684 41.1445 25.7623 40.9003 26.0004L40.8392 26.0737C40.8392 26.0798 40.827 26.0859 40.827 26.092C40.8209 26.0981 40.8148 26.1042 40.8148 26.1104C40.8087 26.1165 40.8026 26.1287 40.8026 26.1287C40.711 26.2508 40.6438 26.2874 40.5705 26.4035H40.5278L40.2408 26.2142C40.2347 26.2142 40.2225 26.2081 40.2225 26.2081L40.1614 26.1897C40.1553 26.1897 40.1431 26.1836 40.137 26.1836C40.1309 26.1836 40.1186 26.1775 40.1125 26.1775L40.0148 26.1531H39.9721C39.9049 26.1226 39.911 26.1104 39.8011 26.1104C39.7523 26.1104 39.7706 26.1103 39.7278 26.1165C39.6301 26.1348 39.6851 26.1226 39.6301 26.1531H39.5324C39.5263 26.1531 39.4408 26.1897 39.4225 26.2019C39.1416 26.3607 38.989 26.6905 38.9035 26.7515C38.7813 27.0019 38.7325 27.1179 38.8668 27.3561L38.9279 27.4599C39.0378 27.6125 39.2637 27.7774 39.3065 27.8934L39.2882 28.1988V28.2415C39.2149 28.4186 39.2698 28.2293 39.2943 28.3819C39.3187 28.5102 39.2882 28.4919 39.3614 28.6751L39.3798 28.7239C39.3798 28.73 39.3859 28.7422 39.392 28.7483L39.8011 29.3956C39.7278 29.4323 39.5263 29.475 39.4164 29.4811H39.3737C39.3004 29.5177 39.2332 29.53 39.1599 29.5666H39.1172C39.0439 29.6032 38.9767 29.6154 38.9035 29.6521H38.8607C38.8485 29.6582 38.818 29.6765 38.8119 29.6826L38.2623 29.9086C38.1279 29.9757 38.1585 29.9208 38.0363 30.0246L37.6822 30.4337C37.6822 30.4398 37.6761 30.452 37.67 30.452L37.5784 30.5925C37.4257 30.6963 37.4135 30.7757 37.4074 30.7879L37.3219 30.849C37.212 30.9283 37.2853 30.8856 37.2608 30.9222C37.1448 31.1115 37.1814 31.0749 37.1692 31.1787C37.1631 31.2337 37.1387 31.3436 37.1326 31.3863C37.1143 31.4779 37.1143 31.5146 37.0654 31.6123C37.0593 31.6184 37.0532 31.6245 37.0471 31.6367L36.9799 31.8626V31.9054L36.9372 32.0641C36.8883 32.2412 36.9494 32.1557 36.8944 32.2901L36.6624 32.7236L36.699 33.4137C36.699 33.4869 36.6868 33.5602 36.7296 33.6457V33.6884C36.7418 33.8655 36.754 33.835 36.754 33.9571C36.754 34.006 36.7479 34.0121 36.754 34.0609C36.7601 34.1586 36.754 34.1098 36.7784 34.1892C36.9311 34.7021 36.7235 34.3785 36.9494 34.7143C36.8089 34.812 36.6807 34.8487 36.5219 34.9281H36.4792C36.4059 34.9647 36.3388 34.9769 36.2655 35.0135H36.2227C36.1495 35.0502 36.0823 35.0624 36.009 35.099H35.9663C35.893 35.1357 35.8258 35.1479 35.7525 35.1845H35.7098C35.6182 35.2212 35.6426 35.2028 35.5327 35.2212C35.5022 35.2273 35.4716 35.2334 35.4533 35.2395L35.3861 35.2578C35.38 35.2578 35.3678 35.2639 35.3678 35.2639C35.3617 35.2639 35.3495 35.27 35.3495 35.27C35.3434 35.27 35.3312 35.2761 35.3312 35.2761L34.916 35.3494L34.8244 35.386C34.8182 35.386 34.7999 35.3921 34.7938 35.3983C34.7205 35.4227 34.7572 35.3921 34.6656 35.441H34.6228C34.5007 35.5021 34.4458 35.4654 34.3236 35.5265H34.2809C34.1954 35.5692 34.1404 35.5753 34.0794 35.5876C34.0366 35.5998 34.0427 35.5998 33.9878 35.6181C33.9817 35.6181 33.9145 35.6486 33.8717 35.6669C33.6763 35.7402 33.5481 35.7891 33.3832 35.8623H33.3405C33.3344 35.8623 33.2672 35.9051 33.2672 35.9051L32.6993 36.2043C32.6932 36.2104 32.681 36.2104 32.6749 36.2226L32.1192 37.1569C32.1131 37.163 32.107 37.1752 32.107 37.1813L31.594 37.8836C31.5208 37.9996 31.4841 38.079 31.2826 38.2316C31.2765 38.2378 31.2643 38.2439 31.2582 38.25C31.2521 38.2561 31.2399 38.2622 31.2338 38.2683C30.788 38.6041 30.6353 38.1889 30.1529 38.4209H30.1102C29.9453 38.5431 30.1102 38.4881 29.9392 38.5492C29.9697 38.5919 30.0003 38.653 30.0186 38.6835C30.0796 38.7873 29.9942 38.7202 30.1102 38.8057L30.4705 38.9644C30.6414 39.0133 30.446 39.0499 30.6231 38.9766H30.6659C30.8246 39.0499 30.8613 39.0194 30.9651 39.0621H31.0078H31.0506H31.0933L31.1361 39.1049H31.0933H31.0506H31.0078H30.9651C30.8674 39.1476 30.5132 39.1354 30.2751 39.1354C30.1285 39.1354 29.8049 39.1232 29.6644 39.2392L29.6339 39.2697C29.524 39.3919 29.7316 39.2392 29.5606 39.3613L29.4751 39.4468L29.2553 39.8743C29.0477 40.4239 29.4324 40.2956 28.9744 40.7353C28.724 40.9734 28.9011 40.7414 28.4492 40.9795L28.3271 41.0956C28.1866 41.3154 28.3088 41.3154 28.2355 41.4864C28.1012 41.578 27.9851 41.7856 27.9302 41.9383C27.8813 42.0726 27.9851 41.9871 27.8508 42.0848H27.808L27.7226 42.1703C27.631 42.213 27.4661 42.2558 27.46 42.4329C27.4478 42.6955 27.7653 42.8298 27.8935 42.8909C27.8386 43.0191 27.918 43.0741 27.7653 43.1901C27.7226 43.2206 27.7592 43.2023 27.6859 43.2389C27.6798 43.2389 27.5882 43.2817 27.5882 43.2817C27.4966 43.3183 27.5638 43.2634 27.4294 43.355H27.3867C27.3562 43.3733 27.3256 43.3916 27.2951 43.4038L27.1791 43.4466C26.9287 43.5504 26.8554 43.6297 26.9165 43.874C26.9165 43.8801 26.9226 43.8923 26.9226 43.8984L26.9715 44.045C27.1424 44.5579 27.5149 44.2892 27.5516 44.2831C27.7103 44.2404 27.7958 44.393 27.6493 44.6007C27.6432 44.6129 27.6187 44.6373 27.6126 44.6434L27.2096 45.3945C26.9654 45.5716 27.3256 45.3884 27.0814 45.5655C27.057 45.6265 27.0753 45.6021 27.0631 45.6388L26.5257 46.5853L26.3303 46.9394C26.2143 47.1532 26.2265 47.1043 26.0799 47.2875L25.9028 47.5379C25.7929 47.6661 25.6891 47.7272 25.5914 47.8676L24.6144 48.9729L24.5106 49.0401C24.5045 49.0462 24.4373 49.1072 24.419 49.1194C24.4129 49.1255 24.4006 49.1316 24.3945 49.1378L23.845 49.6507C23.7778 49.7484 23.6984 49.7728 23.5335 49.9438C23.3748 50.1087 23.3992 49.9988 23.2893 50.1636C23.0694 50.3102 22.6237 50.8048 22.4038 51.0247C22.2451 51.1834 22.1168 51.3117 21.9581 51.4704L21.4573 51.8612L21.268 52.0139C21.2619 52.0139 21.2497 52.0261 21.2436 52.0322C21.1032 52.1299 21.1154 52.1788 20.8711 52.3436C20.865 52.3498 20.8528 52.3559 20.8467 52.362L20.6147 52.4963C20.5902 52.5024 20.578 52.5085 20.5536 52.5146C20.4498 52.5452 20.5841 52.5024 20.4925 52.539L20.0529 52.7222C19.546 53.0581 19.8391 52.997 19.6193 53.1131C19.1308 53.3695 19.4117 53.5283 19.0636 53.7237C19.0575 53.7298 19.0453 53.7298 19.0331 53.7359L18.9476 53.8214C18.8682 53.8764 18.856 53.9008 18.7827 53.9557C18.7094 54.0046 18.6423 54.029 18.5629 54.0779C18.5568 54.0962 18.4957 54.2366 18.4896 54.2672C18.4774 54.3343 18.4774 54.2977 18.4835 54.371C18.4957 54.4687 18.4835 54.4076 18.514 54.4626L18.5568 54.5481C19.0697 54.8961 18.7522 54.658 19.1125 54.8045H19.1552C19.259 54.7618 19.1796 54.7618 19.2834 54.8045H19.3262C19.4727 54.7435 19.4789 54.8045 19.5277 54.8534C19.772 55.116 19.8575 54.9633 20.12 55.0305C20.2727 55.0671 20.1445 55.0793 20.3215 55.116C20.3948 55.1282 20.4131 55.116 20.5414 55.0977C20.9505 55.0305 20.5292 55.232 21.3291 54.9938L21.4024 54.9694C21.4451 54.9572 21.4268 54.9511 21.5123 54.9511C21.781 54.9511 21.9581 55.3236 22.3 54.8106L22.471 54.6397C22.7336 54.5298 23.0389 54.7068 23.4419 54.5053C23.674 54.3893 23.6557 54.4504 23.79 54.3832H23.8327C23.8511 54.3771 23.9182 54.3466 23.9243 54.3466C24.0465 54.2855 23.9488 54.3343 24.0343 54.2855C24.0404 54.2794 24.0526 54.2733 24.0587 54.2733L24.7304 53.7237C24.7731 53.6565 24.7426 53.5832 24.6877 53.5161C24.6815 53.51 24.6754 53.5039 24.6754 53.4978C24.6388 53.4611 24.6815 53.4855 24.5961 53.4489L24.5045 53.4184C24.4984 53.4184 24.48 53.4123 24.4739 53.4062C24.4373 53.394 23.8022 53.3024 23.6679 53.2352C23.6618 53.2291 23.6435 53.2108 23.6435 53.2169C23.6373 53.223 23.619 53.2047 23.619 53.2047L23.5152 53.168C23.5091 53.168 23.4969 53.1619 23.4908 53.1619L23.4053 53.1375C23.3992 53.1375 23.387 53.1314 23.3809 53.1314C23.3809 53.1314 23.3137 53.1192 23.3015 53.1192L23.1122 53.0642V53.0215L23.1549 52.936L23.2404 52.8505C23.2954 52.8138 23.2465 52.8505 23.2893 52.7955L23.4969 52.594L23.6679 52.423L23.8389 52.252C23.9854 52.1543 23.9366 52.1727 24.0037 52.0566L24.1747 51.7452L24.2602 51.6048C24.3884 51.3849 24.4129 51.4032 24.5411 51.3055C24.6327 51.2384 24.6388 51.2078 24.7304 51.1468C24.7792 51.2689 24.7487 51.6414 24.7487 51.7941C24.7487 52.3192 24.7731 52.0566 24.8281 52.2398C24.877 52.4108 24.7731 52.2765 24.9014 52.4658V52.5085L24.993 52.6306C25.1762 52.6429 25.2128 52.6123 25.2983 52.594C25.4082 52.5696 25.2433 52.5207 25.4143 52.594H25.4571C25.5792 52.5329 25.6342 52.5696 25.7563 52.5085H25.799L26.0616 52.3925C26.312 52.2826 26.2936 52.3192 26.3547 52.3436H26.3975C26.5257 52.2826 26.5074 52.3131 26.6845 52.2948L27.3745 52.0811C27.5333 52.0139 27.7409 51.8734 27.8813 51.8612C28.0828 51.8429 28.1866 51.8857 28.3149 51.8368H28.3576H28.4004H28.4431L28.7484 51.7452C28.8034 51.7269 28.9744 51.7208 29.0782 51.6719C29.0843 51.6658 29.1026 51.6475 29.1026 51.6536L29.4995 51.4155C29.5056 51.4094 29.524 51.391 29.524 51.3971L29.8171 51.1895C29.8232 51.1834 29.8293 51.1773 29.8354 51.1773L29.9392 51.0857C29.9453 51.0796 29.9575 51.0735 29.9636 51.0674L30.0919 50.9819C30.098 50.9758 30.1163 50.9575 30.1163 50.9636L30.2201 50.9208C30.3239 50.8903 30.1835 50.9575 30.3422 50.8964H30.385C30.4827 50.8476 30.5376 50.8476 30.6109 50.8292L30.8124 50.7254L31.1238 50.5728C31.13 50.5667 31.1422 50.5606 31.1483 50.5545L31.2765 50.469H31.3193L31.7956 50.0476C31.8505 50.0049 31.7223 50.072 31.8505 50.011L31.936 49.9804C32.1497 49.9133 31.9604 49.8889 32.1253 49.956C32.3573 49.7973 33.1023 49.6324 33.1451 49.6141H33.1878C33.2123 49.6018 33.2611 49.5835 33.2794 49.5774C33.3588 49.5347 33.3161 49.5591 33.3588 49.5286C33.4199 49.5041 33.4809 49.498 33.6153 49.4858C33.487 49.7973 33.7679 49.4614 33.4504 50.1148C33.4504 50.1209 33.4443 50.1331 33.4382 50.1331C33.3649 50.2919 33.1573 50.4934 32.9985 50.6094L32.9191 50.6644C32.913 50.6644 32.9069 50.6766 32.9008 50.6766L32.8275 50.7376C32.8214 50.7438 32.8092 50.7499 32.8031 50.756L31.82 51.6903L31.7589 51.7757H31.7162L31.6307 51.8612L31.246 52.1177H31.2032L30.8307 52.3436C30.8246 52.3498 30.8124 52.3559 30.8063 52.362C30.8002 52.3681 30.788 52.3742 30.7819 52.3803C30.6842 52.4475 30.6659 52.5024 30.5743 52.4902C30.4521 52.478 30.4705 52.3925 30.446 52.3131L30.3544 52.0689C30.2934 51.9589 30.2506 51.9284 30.1407 51.8673H30.098C29.9636 51.8002 29.8537 51.8002 29.7133 51.8673H29.6705C29.6461 51.8796 29.5972 51.8979 29.5789 51.904C29.4995 51.9467 29.5423 51.9223 29.4995 51.9528L29.414 52.0383L29.2431 52.2093C29.1698 52.2581 29.1637 52.2826 29.1026 52.3253C28.9255 52.4474 29.1515 52.2948 28.9438 52.3803H28.9011C28.7668 52.4475 28.7301 52.3925 28.4981 52.5329C28.3088 52.649 28.4065 52.6184 28.2111 52.6123L27.7042 52.71C27.6615 52.7283 27.5394 52.7833 27.4966 52.8016H27.4539C27.3806 52.8383 27.3134 52.8505 27.2401 52.8871H27.1974L26.9898 53.0642L27.0447 53.284C27.0814 53.3695 27.0936 53.3756 27.1913 53.4428L27.5333 53.7848L27.7042 53.9557L27.8752 54.1267L28.034 54.3832C28.0828 54.4931 28.0401 54.3954 28.0767 54.4931C28.205 54.8595 28.5103 54.9938 28.8584 55.0305C28.9866 55.0427 29.1087 54.9999 29.237 55.0549H29.2797H29.3224H29.3652C29.4507 55.0915 29.4934 55.0793 29.5728 55.0793C29.7255 55.0854 29.701 55.0793 29.8354 55.0915C30.0735 55.1038 30.4338 55.1343 30.5987 55.0549H30.6414L31.3803 54.7313C31.3864 54.7252 31.3986 54.719 31.4047 54.7129L31.7223 54.5175C31.7345 54.5114 31.765 54.4931 31.7772 54.487L31.8322 54.4565L31.9604 54.371H32.0032L32.1619 54.2672C32.2902 54.2244 32.5344 54.3221 32.6627 54.3954L32.7421 54.4443C32.7482 54.4504 32.7604 54.4565 32.7665 54.4626H32.8092L32.8947 54.5481H32.9375C33.1634 54.7007 32.9375 54.603 33.2367 54.6763L33.3649 54.7191C33.5237 54.7984 33.7679 54.8106 33.884 54.7679C34.3358 54.603 34.3725 54.255 34.6167 54.3221C34.8244 54.3771 34.6412 54.3221 34.7267 54.3832C34.8793 54.487 34.8549 54.5297 35.1114 54.5908C35.319 54.6397 35.3923 54.6152 35.6182 54.7252H35.6609C35.722 54.7618 35.7281 54.7801 35.7831 54.8168L35.9174 54.8961L36.0456 54.9816C36.0518 54.9877 36.0701 54.9877 36.0701 54.9999C36.0762 55.0244 36.3143 55.1954 36.638 55.061C36.699 55.0366 36.7723 54.9999 36.8456 54.9816C36.9799 54.945 37.2975 54.9633 37.4379 54.9633C38.3295 54.9633 38.3722 54.8839 38.6104 54.8717C38.6775 54.8717 38.6958 54.8656 38.7691 54.8961H38.8119C39.0805 55.0244 39.1966 54.9145 39.5446 54.9938C39.6973 55.0244 40.0087 55.0366 40.2957 54.8961H40.3385C40.4301 54.8534 40.3507 54.8778 40.4606 54.8656L40.772 54.8717C40.8514 54.8839 40.8026 54.8656 40.8514 54.8961C40.9735 54.8473 41.1079 54.9145 41.3216 54.8106H41.3644L41.4926 54.7252L41.5414 54.6946C41.5476 54.6946 41.5598 54.6824 41.5598 54.6763L41.6208 54.5481C41.688 54.3527 41.6758 54.4809 41.6575 54.255V54.2122C41.6514 54.2 41.633 54.1695 41.6269 54.1634C41.6269 54.1573 41.6147 54.145 41.6147 54.1389L41.5964 54.0962C41.5598 54.0168 41.6269 54.0962 41.5414 53.9924C41.456 53.8886 41.3949 53.8641 41.3155 53.7481C41.2117 53.6748 41.1934 53.626 41.0774 53.5527C41.0774 53.5527 40.9491 53.4917 40.943 53.4855L40.8026 53.4428C40.656 53.1314 40.8819 53.1436 40.5033 52.8871C40.4484 52.8077 40.4911 52.881 40.4484 52.8138L40.2896 52.5452C40.0515 52.3864 40.0759 52.478 39.9354 52.4352C39.8316 52.4047 39.8866 52.4108 39.7889 52.3253C39.6607 52.2154 39.7095 52.2765 39.563 52.2032H39.5202C39.3981 52.1543 39.2088 52.1727 39.0805 52.1238C39.0744 52.1238 39.0134 52.0872 39.0073 52.0872L38.9279 52.0383C38.4699 51.8185 37.9509 52.1238 37.56 52.3253C37.4318 52.3925 37.4623 52.3925 37.3585 52.4597H37.3158C37.212 52.5024 37.2914 52.5024 37.1875 52.4597H37.1448L36.8273 52.5635C36.7662 52.5818 36.6807 52.5696 36.6685 52.5696C36.5952 52.5452 36.5952 52.5207 36.5097 52.4597H36.467C36.3082 52.5268 36.4487 52.4536 36.3449 52.4841C36.3326 52.4841 36.3021 52.4963 36.2899 52.5024C36.2288 52.5268 36.241 52.5207 36.2105 52.5452L36.0579 52.6551C36.0517 52.6612 36.0395 52.6673 36.0334 52.6734C35.6548 52.9238 35.6365 52.6795 35.3434 52.8016C35.3312 52.8077 35.2762 52.8322 35.2701 52.8383C35.264 52.8444 35.2518 52.8505 35.2457 52.8566L35.1907 52.8932L35.1052 52.9787C34.9892 53.0581 35.0014 53.052 34.8854 53.0459C34.8244 53.0398 34.6656 53.0092 34.5557 53.0642H34.5129C34.4946 53.0764 34.3236 53.2718 34.171 53.0642C33.9206 52.9604 33.597 53.0764 33.8534 52.6673C33.8779 52.6306 33.829 52.6734 33.8901 52.6245L34.1588 52.4536C34.1649 52.4474 34.1771 52.4413 34.1832 52.4352C34.1893 52.4291 34.2015 52.423 34.2076 52.4169L34.3358 52.3314H34.3786C34.4335 52.2948 34.4458 52.2765 34.5007 52.2398L34.6351 52.1604L35.1052 51.904C35.1114 51.8979 35.1297 51.8796 35.1297 51.8857L35.2396 51.8246C35.2884 51.8002 35.3556 51.7635 35.4045 51.7452L35.8624 51.5559C36.0762 51.4704 36.0151 51.5376 36.2227 51.4155C36.2288 51.4094 36.241 51.4032 36.2472 51.3971L36.8883 51.2262H36.9311L37.5173 51.0613C37.5234 51.0613 37.5356 51.0552 37.5417 51.0552C37.5478 51.0552 37.56 51.0491 37.5661 51.0491C37.5723 51.0491 37.5845 51.043 37.5967 51.0369L38.0302 50.8964C38.0302 50.8964 38.1279 50.8537 38.134 50.8537C38.3172 50.7621 38.4027 50.6766 38.5981 50.6766L38.6226 50.7315C38.6409 50.756 38.6103 50.7499 38.6836 50.8048L39.1538 51.1468C39.2821 51.2078 39.4653 51.214 39.5141 51.1162C39.563 51.0185 39.5569 50.8903 39.5569 50.7926C39.5569 50.6705 39.5874 50.6155 39.5141 50.4445C39.4225 50.2247 39.4653 50.3041 39.6607 50.1698C39.74 50.2858 39.7523 50.3896 39.8744 50.469H39.9171C40.0698 50.5422 40.2286 50.4934 40.3385 50.359C40.3446 50.3529 40.3507 50.3468 40.3507 50.3407L40.424 50.2552C40.3446 50.1392 40.3568 50.127 40.2957 49.9988C40.1125 49.8644 40.3629 50.0659 40.1003 49.6446C40.0637 49.5896 40.082 49.6141 40.0637 49.5835L40.027 49.4919C40.0087 49.437 40.0026 49.4248 39.9843 49.3576L39.9538 49.266C39.9354 49.2294 39.9049 49.1988 39.8683 49.15L39.9538 49.1072L39.9965 49.0217C40.1492 49.1255 40.1675 49.1988 40.2286 49.3515L40.4667 49.9011C40.4667 49.9072 40.4728 49.9194 40.4728 49.9194C40.4728 49.9255 40.4789 49.9377 40.4789 49.9377C40.5095 50.0171 40.485 49.9866 40.5461 50.0782V50.1209L40.8148 50.7132C40.8209 50.7315 40.827 50.7621 40.8453 50.8048C40.9919 50.9086 40.827 50.8476 41.0041 51.0308L41.7002 51.6597L41.8284 51.7452H41.8712C41.9262 51.7818 41.9445 51.8063 41.9933 51.8368C42.0605 51.8796 42.1032 51.8857 42.1704 51.9162H42.2132C42.2376 51.9284 42.2864 51.9467 42.3048 51.9528C42.3841 51.9956 42.3414 51.9711 42.3841 52.0017C42.5429 52.075 42.5795 52.0444 42.6834 52.0872H42.7261L42.8543 52.1727H42.8971H42.9398H42.9826H43.0253H43.0681C43.178 52.1238 43.2268 52.1482 43.3062 52.0933C43.3367 52.075 43.3001 52.1055 43.3428 52.0627C43.6115 51.7941 43.4833 51.3361 43.6237 51.0124L43.7214 50.7804C43.7642 50.5117 43.8069 50.6155 43.8069 50.2064C43.8069 50.1575 43.8008 50.0049 43.8069 49.9743C43.8314 49.8644 43.8558 49.9011 43.8863 49.8034C43.9107 49.724 43.8619 49.7667 43.9291 49.6324C43.9779 49.5408 43.9718 49.5774 43.9779 49.5041C44.039 49.0462 44.0573 49.437 44.0634 48.7164L43.9596 48.2951C43.9169 48.179 43.9352 48.2218 43.8741 48.1302L43.7886 48.0447C43.6604 47.9531 43.8069 48.0142 43.636 47.8615L43.5627 47.7943C43.5566 47.7882 43.5871 47.776 43.4894 47.7027L43.4039 47.6173C43.3428 47.5257 43.3306 47.5379 43.2635 47.4585C43.1108 47.2692 43.2696 47.4768 43.1902 47.2753C43.0742 47.1898 43.1291 47.1532 43.1291 46.7318C43.1291 46.512 43.1291 46.3776 43.1352 46.1456C43.1413 45.9685 43.1291 45.9624 43.1352 45.8342C43.1474 45.6143 43.1535 45.5105 43.0925 45.3395L43.0253 45.1808C42.9642 45.0831 42.8238 44.9609 42.7261 44.8938L42.6711 44.8632C42.2254 44.619 42.4086 44.7533 42.3658 44.2282L42.2193 43.6297C42.1887 43.5381 42.1948 43.5626 42.2498 43.4588L42.2803 43.3977C42.2803 43.3916 42.2864 43.3794 42.2925 43.3733L42.5124 42.9825L42.5734 42.8298C42.6101 42.7687 42.6467 42.7016 42.6711 42.6405C42.7139 42.5306 42.7627 42.3169 42.72 42.2192C42.7872 42.1092 42.7688 41.981 42.72 41.8772C42.7811 41.7734 42.7078 41.6207 42.6956 41.4803L42.6772 41.1505C42.6711 41.1383 42.665 41.1139 42.665 41.12C42.665 41.1261 42.6528 41.0956 42.6528 41.0895L42.6345 41.0284C42.6162 40.9551 42.6223 40.9429 42.6162 40.9124C42.5979 40.5948 42.5246 40.8147 42.5246 40.5704L42.3719 39.8437C42.3719 39.8376 42.3658 39.8254 42.3658 39.8193C42.3353 39.6483 42.317 39.1965 42.3963 39.1049L42.4086 39.0927L42.6589 38.8057C42.8971 38.5492 42.9154 38.5919 43.1413 38.2866L43.1535 38.2744L43.2635 38.1401L43.349 38.0546L43.5199 37.8836L43.8985 37.4317C43.9046 37.4256 43.9107 37.4195 43.9107 37.4134C44.1062 37.1447 44.2405 37.1142 44.5153 36.7417L44.6008 36.6195C44.6618 36.5463 44.6435 36.5707 44.7107 36.5218L44.7534 36.4363L45.0343 36.1677C45.1259 36.0455 45.0221 36.1738 45.0954 36.0761L45.1076 36.0639L45.132 36.0333L45.1442 36.0211L45.2603 35.8868C45.2664 35.8807 45.2725 35.8685 45.2786 35.8623C45.2847 35.8562 45.2908 35.844 45.2969 35.8379C45.3397 35.7891 45.3519 35.7769 45.3946 35.7219C45.6511 35.4532 45.6572 35.5021 45.8892 35.1784C45.9442 35.1051 45.9137 35.0868 46.0602 34.9891C46.164 34.8304 46.3045 34.7571 46.4144 34.5922C46.5854 34.3357 46.9579 33.9999 47.2632 33.6274C47.2815 33.603 47.2265 33.6213 47.3426 33.5358L47.4281 33.4503L47.6418 33.1938C47.7761 33.1022 47.7578 33.09 47.8006 33.0167L48.2402 32.5588C48.2463 32.5527 48.2585 32.5465 48.2646 32.5404C48.2707 32.5343 48.2891 32.5282 48.2891 32.5221C48.2952 32.516 48.3074 32.5099 48.3135 32.5099C48.4784 32.4427 48.3196 32.5343 48.4906 32.4733C48.631 32.4244 48.5822 32.4183 48.6982 32.3389C48.7043 32.3328 48.7226 32.3145 48.7226 32.3206C48.7471 32.3756 48.9241 32.0031 49.028 31.8993C49.1989 31.7222 49.1562 31.826 49.1195 31.4413V31.3985C49.0768 31.2947 49.1134 31.3558 49.0768 31.2398L49.0524 31.1787C49.0341 31.1421 49.089 31.1726 48.9913 31.1054C48.9302 30.9772 48.9425 30.9711 48.8631 30.849C48.7348 30.7574 48.8875 30.2627 48.4478 30.4154C47.9227 30.5925 47.9593 30.4093 47.7151 30.5131H47.6723L47.5441 30.5986L47.3487 30.7757C47.3487 30.7757 47.3426 30.7879 47.3365 30.794C47.3365 30.794 47.3304 30.8062 47.3304 30.8123C47.2571 30.794 47.1166 30.6658 46.7869 30.7451C46.2129 30.8917 46.7747 30.7696 46.3289 30.739C45.877 30.7024 45.9381 30.9711 45.1626 30.5986H45.1198H45.0771H45.071C45.0099 30.6291 45.0527 30.6352 44.9794 30.6291C44.8939 30.623 44.9488 30.6291 44.9 30.5986C44.4725 30.3116 44.7107 30.5375 44.4848 30.4154L44.2161 30.0856L44.1306 30.0002C43.9535 29.8719 44.1978 30.0368 44.0451 29.8963C44.039 29.8902 44.0329 29.8841 44.0268 29.878L43.636 29.7254C43.6298 29.7254 43.6176 29.7193 43.6054 29.7132L43.2329 29.5666L43.1535 29.2552C43.1902 29.133 43.2574 29.0781 43.3612 29.0109L43.4467 28.9254L43.5321 28.8399C43.5871 28.7544 43.5871 28.7728 43.6482 28.6995L43.9046 28.2965C43.984 28.1255 44.0268 28.1011 44.0634 27.9362L44.2222 27.5087C44.2466 27.4354 44.271 26.9714 44.2161 26.8675C44.1367 26.7271 44.0451 26.7271 43.9169 26.666H43.8741C43.7337 26.7271 43.7214 26.6416 43.4894 26.7515H43.4467C43.3734 26.7882 43.3062 26.8004 43.2329 26.837C43.1902 26.7393 43.2085 26.7088 43.2146 26.6111C43.2146 26.489 43.2085 26.5134 43.1902 26.3241L43.1474 26.2813V26.2386L43.0558 26.0126C43.0009 25.9027 42.952 25.7928 42.7749 25.7317C42.6772 25.7012 42.7505 25.7195 42.665 25.7012C42.5734 25.6768 42.4391 25.6646 42.378 25.6402H42.3353C42.2193 25.5852 41.633 25.6035 41.5414 25.6402ZM44.8145 32.8335H44.8572C45.0038 32.8946 44.8939 32.803 45.071 32.919H45.1137L45.4862 32.9862C45.6755 33.0045 45.8221 33.0717 46.0785 33.0045C46.2251 32.9618 46.4816 32.974 46.5976 32.9251H46.6403L46.9273 32.8335C46.9945 32.8274 46.8663 32.7725 47.0189 32.8397L46.7625 33.1389C46.6464 33.2244 46.7014 33.206 46.6892 33.2305L46.0846 33.9938L45.9137 34.1648L45.5045 34.6472C45.4862 34.6655 45.4618 34.7021 45.4557 34.7143C45.2175 35.0929 45.2175 34.9525 45.0649 35.1845L44.7656 35.5265L44.1123 36.2654C43.9535 36.4852 43.6909 36.6562 43.5383 36.8821L43.3673 37.0531L43.2818 37.1386L43.1108 37.3279C43.0986 37.3462 43.0864 37.3584 43.0742 37.3706C43.0009 37.4622 43.123 37.3767 42.9887 37.4744L42.9032 37.5599L42.7322 37.7309L42.3902 38.0729L42.2193 38.2439L42.1154 37.9752C41.9994 37.2485 41.975 37.8103 42.1277 37.4012C42.207 37.1874 42.0849 37.2974 42.2803 36.8455L42.8299 35.4837C42.8299 35.4776 42.8421 35.4654 42.8421 35.4654L43.3734 34.1464C43.3734 34.1403 43.3795 34.1281 43.3795 34.122C43.3917 34.0854 43.3856 34.0671 43.3917 34.0426L43.41 34.0121L43.4222 33.9999C43.4283 33.9938 43.4406 33.9755 43.4467 33.9693L43.5932 33.7068C43.5932 33.7007 43.6054 33.6884 43.6054 33.6884L43.9291 33.0656C43.9352 33.0473 43.9535 33.0106 43.9657 32.9862C43.9657 32.9801 43.9718 32.9679 43.9718 32.9618C43.9718 32.9557 43.9779 32.9435 43.9779 32.9374L43.9962 32.8946C44.0878 32.7053 44.1123 32.8824 44.0451 32.7175C44.1733 32.7297 44.1855 32.7297 44.2527 32.7358L44.8145 32.8335ZM31.2032 39.0927L31.2154 39.1049C31.2154 39.1049 31.1971 39.0927 31.2032 39.0927ZM31.2887 39.0927L31.3009 39.1049C31.3009 39.1049 31.2826 39.0927 31.2887 39.0927ZM27.5455 49.9866C27.4417 49.9438 27.521 49.9438 27.4172 49.9866H27.3745C26.5807 50.0537 26.6051 50.0293 25.8296 50.2369L25.5426 50.3224C25.5059 50.2247 25.5181 50.2491 25.6464 50.1636C25.8967 49.9866 25.8662 49.9438 26.0311 49.8339L26.086 49.8034C26.0921 49.7973 26.1043 49.7911 26.1105 49.785C26.1166 49.7789 26.1288 49.7728 26.1349 49.7667L26.6478 49.382C26.66 49.3759 26.6845 49.3515 26.6967 49.3454L27.0325 48.9179C27.057 48.8569 27.0386 48.8813 27.0508 48.8446C27.057 48.8324 27.0692 48.7958 27.0753 48.7775L27.118 48.692C27.234 48.4477 27.289 48.5027 27.4111 48.3195L27.5821 48.1485L27.7531 47.9775L27.8813 47.892L28.6691 47.3608C28.7118 47.3364 28.779 47.318 28.8156 47.2936H28.8584L28.9866 47.2081C29.0782 47.4341 28.8889 47.8249 28.8706 47.8554C28.84 47.9165 28.8461 47.892 28.84 47.9409C28.8278 47.9959 28.8461 47.9775 28.8278 48.0447C28.8278 48.0508 28.8156 48.0813 28.8156 48.0875L28.7973 48.1302C28.6874 48.4355 28.7973 48.5943 28.7179 49.1255L28.6813 49.3698C28.6507 49.6568 28.7973 49.5774 28.1928 49.8034L27.6065 49.9499C27.5943 49.9499 27.5821 49.9621 27.576 49.9621C27.5699 49.9804 27.5577 49.9804 27.5455 49.9866Z" fill="white" fill-opacity="0.85"/>
<path fill-rule="evenodd" clip-rule="evenodd" d="M21.2495 46.2451L21.2617 46.2573C21.2617 46.2573 21.2434 46.2512 21.2495 46.2451ZM9 46.7825V46.6787C9.01221 46.5749 9.06717 46.4833 9.17098 46.4161C9.25037 46.3611 9.29922 46.3672 9.38471 46.2451C9.45188 46.2024 9.45798 46.1779 9.53126 46.1413C9.58011 46.1169 9.63507 46.0986 9.67781 46.0741L9.76941 46.0375C9.77552 46.0375 9.86101 46.0192 9.86101 46.0192C9.93429 46.007 9.92207 46.0131 9.98314 46.0131C10.2457 46.0192 10.0625 46.007 10.3434 45.8543C10.3862 45.8299 10.4411 45.8055 10.4839 45.7871C10.5938 45.7322 10.6732 45.7016 10.777 45.6528H10.8197C10.9296 45.5978 11.3266 45.61 11.4304 45.6467L11.5586 45.72C11.5647 45.7139 11.5769 45.7322 11.583 45.7383C11.7601 45.8543 11.6563 45.8482 11.8456 45.8482C11.9433 45.8482 11.9861 45.8421 12.1326 45.9093H12.1754C12.3891 46.0131 12.6455 46.1535 12.8226 46.1474C13.0058 46.1413 12.9631 46.1108 13.1218 46.0314L13.4089 45.9093H13.4516C13.6287 45.836 13.9401 45.836 14.0989 45.7078C14.1722 45.6467 14.1661 45.6284 14.2577 45.5673L14.3431 45.4818L14.624 45.3597C14.8622 45.3291 14.85 45.3475 14.9843 45.4391C15.0332 45.3169 15.0026 44.633 15.0271 44.3338V44.2911V44.1628V44.1201V43.9918V43.9491C15.0148 43.7781 15.0087 43.8453 15.0087 43.6987C15.0087 43.5888 15.0087 43.6377 15.0271 43.4789V43.4362V43.3079V43.2652V43.1369V43.0942V42.966V42.9232C15.0454 42.7339 15.0515 42.7522 15.0515 42.6362C15.0454 41.8057 15.0454 35.6382 15.0942 35.4001L15.1126 35.3451V35.0031V34.6612C15.0759 34.5757 15.0881 34.5818 15.0881 34.5024C15.0881 34.4963 15.0881 34.423 15.0881 34.4047C15.1003 34.3192 15.082 34.3742 15.1126 34.3253C15.0759 34.2337 15.0759 34.1177 15.1126 34.0261V33.9834C15.0759 33.8918 15.0759 33.7758 15.1126 33.6842V33.6414C15.0698 33.5376 15.0698 33.617 15.1126 33.5132V33.4704C15.0698 33.3666 15.0698 33.446 15.1126 33.3422V33.2994C15.0698 33.1956 15.0698 33.275 15.1126 33.1712V33.1285C15.0698 33.0247 15.0698 33.104 15.1126 33.0002V32.9575L15.1248 32.4262C15.1248 32.2369 15.137 32.1026 15.1309 31.9866L15.2164 18.4486C15.2164 18.2898 15.1919 18.2532 15.2652 18.0517L15.2957 17.9784C15.3385 17.8746 15.4545 17.7402 15.5583 17.6914C15.7415 17.612 15.9003 17.6425 16.0468 17.7158L16.114 17.7647C16.1201 17.7708 16.1262 17.7769 16.1323 17.7769C16.1384 17.783 16.1445 17.7891 16.1507 17.7891L16.3033 17.9967C16.3461 18.0944 16.3277 18.1127 16.3277 18.1677L16.2728 27.0281C16.2728 27.0281 16.2606 27.1503 16.2606 27.1564C16.1995 27.6998 16.2484 31.0645 16.2422 31.895L16.1568 39.1128C16.1568 39.8944 16.1934 43.1003 16.1323 43.8086V43.8514V43.9796V44.0224C16.0896 44.1262 16.0896 44.0468 16.1323 44.1506V44.1933C16.0896 44.2972 16.0896 44.2178 16.1323 44.3216V44.3643C16.0896 44.4681 16.0896 44.3888 16.1323 44.4926V44.5353C16.0957 44.6269 16.0957 44.7429 16.1323 44.8345V44.8773C16.0957 44.9628 16.1079 44.9567 16.1079 45.036C16.1079 45.0421 16.1079 45.1154 16.1079 45.1337C16.1201 45.2192 16.1018 45.1643 16.1323 45.2131C16.0896 45.3047 16.1018 45.2498 16.0957 45.3902L16.2178 45.2986H16.2606C16.4377 45.2253 16.5292 45.2925 16.6331 45.3475L16.688 45.3841C16.7552 45.4269 16.7613 45.4513 16.8346 45.4879C16.8834 45.5123 16.9384 45.5307 16.9811 45.5551L17.0666 45.6406L17.1521 45.7016C17.2987 45.8604 17.0605 45.5673 17.1887 45.7566C17.262 45.8604 17.2254 45.8299 17.3231 45.8909L17.4086 45.9764H17.4513C17.549 45.9337 17.6834 45.9642 17.836 45.8909H17.8788C17.9887 45.9459 18.0681 45.9459 18.123 45.9642C18.1597 45.9764 18.3062 46.0436 18.3429 46.0619C18.4161 46.1108 18.2757 46.0619 18.4589 46.123C18.5749 46.1596 18.4589 46.1291 18.5505 46.1352C18.5688 46.1352 18.7154 46.123 18.7215 46.123L18.9535 46.0558C19.0207 46.0497 18.9413 46.0253 19.0268 46.0619H19.0695C19.1733 46.0192 19.094 46.0192 19.1978 46.0619H19.2405C19.3077 46.0925 19.3504 46.0986 19.4176 46.1413C19.4664 46.1718 19.4848 46.1902 19.5397 46.2329H19.5825C19.7168 46.3001 19.7473 46.3001 19.8817 46.2329H19.9244C20.0099 46.1902 20.0588 46.1841 20.1259 46.1718C20.1443 46.1657 20.2603 46.1474 20.3152 46.1413C20.4007 46.1352 20.6145 46.1291 20.7366 46.068H20.7793C20.8709 46.0314 20.987 46.0314 21.0786 46.068C21.1885 46.2329 21.2068 46.1596 21.3533 46.1902C21.5487 46.2268 21.3778 46.1902 21.5243 46.2634C21.5915 46.294 21.622 46.3062 21.6709 46.3306H21.7136C21.7808 46.3611 21.8235 46.3672 21.8907 46.41C21.9396 46.4405 21.9579 46.4588 22.0128 46.5016C22.0556 46.5321 22.0128 46.5077 22.0922 46.5504C22.1105 46.5565 22.1594 46.5749 22.1838 46.5871H22.2266C22.3243 46.6542 22.3975 46.7092 22.4464 46.8313C22.5136 47.0145 22.4464 47.1672 22.3548 47.2466C22.3487 47.2527 22.251 47.3076 22.2449 47.3076L21.9701 47.3931H21.9273C21.7686 47.326 21.8541 47.4114 21.7075 47.4908C21.6587 47.5153 21.5549 47.5275 21.4633 47.4786L21.3106 47.5641C21.1335 47.6374 20.9808 47.6007 20.8709 47.6496H20.8282H20.7854H20.7427C20.5961 47.7107 20.2053 47.6923 20.1015 47.7351H20.0588L19.5092 47.6252C19.3993 47.5946 19.4176 47.6069 19.3321 47.5641H19.2894H19.2466H19.2039L18.6543 47.7656L18.0498 47.7351H18.0192C17.8482 47.6496 17.5979 47.6313 17.378 47.7351H17.3353C17.1704 47.6679 17.1216 47.7717 16.8651 47.6496H16.8224H16.7796C16.7308 47.613 16.804 47.6496 16.7002 47.6069C16.6392 47.5824 16.6392 47.5885 16.627 47.5824L16.5537 47.5641C16.4377 47.5275 16.285 47.5214 16.1873 47.5641H16.1445C16.1323 47.5702 16.0529 47.6007 16.0529 47.6007C15.9552 47.6496 16.0163 47.6191 15.9736 47.6496C15.8881 47.7107 15.8881 47.729 15.8148 47.7534C15.8087 47.7534 15.656 47.7778 15.5889 47.7778C15.3873 47.7839 15.2347 47.7656 15.1614 47.7351H15.1187C14.8866 47.6252 14.966 47.7351 14.7156 47.7656C14.4836 47.7962 14.1294 47.7534 13.9706 47.8206H13.9279C13.7813 47.8878 13.3111 47.9122 13.2806 47.8328C13.2745 47.8206 13.2623 47.8267 13.2501 47.8206C13.1096 47.8816 13.2012 47.8206 13.0425 47.7962C12.6455 47.729 12.731 47.8328 12.3585 47.6496H12.3158L12.1876 47.5641H12.1448C11.9922 47.4664 12.0471 47.5275 11.8883 47.442C11.8151 47.4053 11.8456 47.4237 11.809 47.3931C11.6929 47.4664 11.7418 47.4725 11.6013 47.5275C11.4304 47.5885 11.5891 47.4969 11.4243 47.5641H11.3815C11.2838 47.5214 11.2411 47.558 11.0823 47.4786H11.0396C10.8564 47.4969 10.9602 47.4725 10.8258 47.5641H9.97703H9.93429C9.39692 47.3076 9.70835 47.503 9.58011 47.3199C9.40913 47.0817 9.39081 47.2771 9.17709 47.0878C9.07328 46.9962 9.01221 46.8863 9 46.7825Z" fill="white" fill-opacity="0.85"/>
</svg>
