<svg width="100" height="80" viewBox="0 0 100 80" fill="none" xmlns="http://www.w3.org/2000/svg">
<path fill-rule="evenodd" clip-rule="evenodd" d="M75.0127 13.0245C74.7676 13.19 74.6266 13.4106 74.4918 13.7048L74.2037 14.5874C74.1486 14.7529 73.4437 15.8254 73.3089 16.0338C73.1066 16.3403 73.2231 16.2422 72.8676 16.3587C72.7757 16.3893 72.6899 16.4383 72.555 16.3893C72.4754 16.3587 72.3895 16.2361 72.3895 16.2238C72.3773 16.1564 71.0841 16.3587 70.7409 16.6529C70.4896 16.8674 70.7225 16.8 70.2996 16.9041C69.5764 17.0758 68.8777 17.3148 68.1606 17.5109L63.9071 18.7183C63.5393 18.8164 63.2452 18.9941 62.9081 19.0983L60.3768 20.0115C60.2174 20.0728 60.0642 20.1586 59.8987 20.2138C58.4768 20.7286 54.8914 22.1812 53.5614 22.077C52.6543 22.0034 52.0966 22.3712 51.3427 22.6163C51.1221 22.6899 50.4847 22.8737 50.3253 22.9718C49.9024 23.2354 49.4795 23.3579 48.9157 23.6215C47.8186 24.1302 47.2976 23.8973 46.5989 24.0137C45.5141 24.1976 46.0596 24.1915 44.7909 24.0137C44.5764 23.9831 44.3864 23.9831 44.1351 23.9831C43.847 23.9831 43.7735 23.9341 43.5283 23.9157C42.1125 23.8053 41.3709 23.646 40.0164 23.2966C39.2748 23.1066 39.4464 23.0883 38.9868 22.9412C38.7048 22.8492 38.429 22.8431 38.1593 22.7573C38.0123 22.7083 38.0429 22.7083 37.9387 22.6531C37.7181 22.5489 37.1419 22.4386 36.86 22.3589C36.4923 22.2486 36.1307 22.1873 35.7568 22.077C34.4023 21.6786 32.4472 21.3722 30.9823 21.366C30.7617 21.366 30.5717 21.3905 30.3572 21.4212C29.8056 21.4947 29.1682 21.507 28.5553 21.6418C28.3653 21.6847 28.1937 21.746 28.0159 21.7889C27.5317 21.9176 26.784 22.316 26.3918 22.5918C26.3305 22.6347 26.2753 22.6592 26.1834 22.7083C26.0179 22.7941 25.926 22.8554 25.7543 22.9718C25.3437 23.2476 25.4785 23.2231 24.9392 23.5357L23.2415 24.5899C23.1863 24.645 23.1128 24.7124 23.0453 24.7553C22.9534 24.8166 22.935 24.7982 22.8431 24.8718C22.696 24.9882 22.5979 25.0434 22.4325 25.1537C22.2731 25.264 22.2363 25.3866 22.0586 25.4724C21.8563 25.5705 21.8379 25.595 21.7031 25.7666C21.6173 25.8708 21.4825 26.024 21.3783 26.1282C21.0902 26.4101 21.225 26.3243 21.078 26.5143C20.9615 26.6614 20.9063 26.7534 20.7838 26.9066C20.6244 27.115 20.5938 27.0292 20.4834 27.2927C20.416 27.4643 20.3241 27.6114 20.2444 27.7463C20.1096 27.973 19.7418 29.015 19.7051 29.2601C19.6254 29.7259 19.6009 29.4746 19.5089 29.7566L19.1902 31.5094C19.0922 32.6065 18.798 34.1081 18.7919 35.1991C18.7919 35.4197 18.749 35.5975 18.6754 35.7629C18.5283 36.0939 18.6202 36.0449 18.6264 36.3268C18.6264 36.5168 18.559 36.6823 18.559 36.9336C18.559 37.8529 18.5896 37.4055 18.4609 38.2268L18.2893 40.09C18.2709 40.329 18.2464 40.5435 18.2219 40.7335C18.1606 41.3587 18.1728 42.1003 18.1544 42.7254C18.1483 43.0441 18.0748 43.1606 18.0564 43.3261C18.038 43.5099 18.0932 43.7857 18.0257 43.9267C17.9828 44.0248 18.0012 44.8522 18.0257 44.9257C18.0748 45.0177 18.0748 45.226 18.1606 45.3793C18.228 45.2751 18.2157 45.2628 18.2586 45.1464C18.3383 44.938 18.4915 44.6254 18.6202 44.4599C18.6202 45.6244 17.9583 46.1515 18.228 48.1373C18.3015 48.6582 18.0993 48.9095 18.1606 49.3386C18.4915 49.2405 18.7796 48.9095 18.8838 48.6031C18.9941 48.266 19.0922 47.7879 19.2209 47.4999C19.2944 47.5673 19.2883 47.4202 19.2944 47.696V48.3273C19.5335 48.3518 19.7112 48.1495 19.7909 47.9718C19.8522 47.8308 19.8338 47.4263 20.0299 47.3834C20.0299 47.8799 20.3854 48.8176 20.796 48.8912C20.8144 48.4683 20.698 48.0576 20.698 47.6592C20.698 47.1934 20.7654 46.8441 20.7654 46.3538C20.888 46.4212 20.796 46.3231 20.888 46.4886C21.0351 46.7399 21.1638 47.0463 21.4825 47.1076C21.6173 47.1321 21.5499 46.9667 21.5254 46.8257C21.4763 46.5438 21.4579 45.7286 21.5254 45.4222C21.556 45.2812 21.5621 45.1893 21.7031 45.1525C21.7031 45.4835 21.746 45.8083 21.8686 46.078C21.8808 46.1025 21.9483 46.2618 21.9544 46.2741C22.0218 46.3844 22.2731 46.556 22.4079 46.6296C22.4631 45.9309 22.6225 45.7776 22.5795 44.7909C22.5734 44.5948 22.5183 44.4048 22.4999 44.2148C22.7266 44.227 22.6225 44.2393 22.8124 44.2944C23.3947 44.466 23.0944 43.9022 23.0208 43.5283C22.9657 43.2525 22.935 43.0503 22.8492 42.8051C22.4754 41.757 22.1199 40.9787 22.4325 39.7958C22.6654 38.9071 22.5489 38.9684 22.6286 38.2206C22.8676 38.4352 23.4805 39.6242 23.5357 40.0471L23.787 41.6651C23.934 42.4251 23.7502 43.3874 23.5663 44.1044C23.3947 44.7725 23.2537 45.6183 22.8921 46.2189C22.8308 46.3231 22.7757 46.4089 22.7083 46.5192C22.5183 46.8196 22.3344 47.0402 22.1996 47.3834C22.0341 47.8125 22.3466 48.9892 22.3466 49.8902C22.3466 50.4663 22.4692 51.0853 22.4815 51.6308C22.506 52.495 22.4018 54.5666 22.4876 55.2653C22.555 55.8353 22.5734 57.2143 22.4631 57.8088C22.4202 58.0233 22.3957 57.9988 22.316 58.152C22.1996 58.3788 22.2731 59.0713 22.3896 59.2797C22.5244 59.5249 22.6531 59.5923 22.9105 59.6965C23.2476 59.8375 23.5479 60.4075 23.7624 60.7016C24.2221 61.3329 23.7195 61.4065 23.6215 61.9458C23.6337 62.1848 24.6266 62.6016 24.8411 62.6507C25.0863 62.7058 26.4469 62.6874 26.6553 62.6445C26.784 62.62 27.0782 62.5648 27.1824 62.5342C27.3601 62.479 27.3356 62.2461 27.3479 62.0807C27.5624 62.0194 27.8443 62.2155 28.163 62.2829C28.4633 62.3442 28.6717 62.4055 28.9291 62.4545C29.2478 62.5158 29.444 62.5403 29.7382 62.4178C30.2591 62.2032 30.4982 62.1665 30.1733 61.6149C30.0201 61.3574 29.7566 60.7078 29.5482 60.5362C29.4133 60.4258 29.3459 60.4442 29.1927 60.291C29.0824 60.1807 29.0211 60.101 28.9291 59.9846C28.825 59.8558 28.7637 59.8252 28.6595 59.6842C28.0772 58.8752 28.1263 58.5749 27.8321 57.6433L27.4705 56.2582C27.354 55.8659 27.2682 55.1549 27.2437 54.7443C27.2192 54.4133 27.1334 54.1191 27.0659 53.7943C26.9372 53.1937 26.8759 52.3847 26.8453 51.7105C26.8269 51.3672 26.9005 50.9627 26.9679 50.644C27.0414 50.2763 27.1517 50.1169 27.2314 49.786C27.544 48.505 27.6666 48.2905 28.0404 47.1138C28.163 46.7215 28.5491 45.9247 28.782 45.5447C29.0027 45.1831 28.9291 45.4406 29.0701 44.7112C29.1375 44.3619 29.1927 44.0677 29.2662 43.7306C29.2969 43.5773 29.3337 43.3935 29.3643 43.2525L29.6524 41.8122C29.7198 41.4383 29.7504 41.1625 29.824 40.8438C29.8914 40.5496 30.1917 40.4148 30.4001 40.2432C30.9149 39.8203 30.8169 39.9368 31.3256 39.428C31.583 39.1706 31.5401 39.0971 31.9017 38.8703C32.0304 38.7906 32.1714 38.7539 32.3552 38.7416C33.1397 38.6987 33.2317 39.4342 33.8507 39.5568C34.2 39.6242 34.5494 39.4771 34.7026 39.281C34.8252 39.1277 34.8129 39.0419 34.8436 38.8458C34.8681 38.6926 34.9171 38.5761 34.9784 38.4352C35.8732 38.4352 36.5474 38.5332 37.4361 38.6803C37.7794 38.7355 38.0613 38.9561 38.4229 39.0726C38.76 39.1829 39.0909 39.2748 39.4648 39.3729L41.567 39.9797C41.9103 40.09 42.3209 40.1267 42.7009 40.2187C43.8102 40.4822 44.8338 40.8193 45.9738 40.9971C46.985 41.1564 48.0024 41.1564 49.0015 41.3709C49.4121 41.4567 49.7798 41.4751 50.2089 41.5425C50.8708 41.6529 51.3243 41.61 51.9127 41.8551C52.0782 41.9225 52.6604 42.2106 52.783 42.3209C53.0221 42.5293 52.8872 44.4109 52.8872 44.8644L52.8566 47.5734C52.8566 48.076 52.9546 48.7747 52.7953 49.2405C52.7646 49.3324 52.7463 49.3999 52.7279 49.4918C52.6727 49.7676 52.6175 49.7247 52.6175 50.0434C52.6175 50.595 52.6727 50.7973 52.7892 51.2569C52.9056 51.7166 52.685 53.2182 52.6237 53.7269C52.5746 54.1375 52.5746 54.542 52.5011 54.9404C52.3663 55.6882 52.2559 56.5217 52.1395 57.2817C52.0843 57.6678 51.9679 58.1152 52.1211 58.5259C52.3111 59.0407 52.8566 59.1142 53.0282 60.3216C53.065 60.5729 53.1324 60.6587 52.9792 60.8794C52.8872 61.0081 52.8014 61.1245 52.6543 61.2042C52.6482 61.5352 52.6359 61.6823 52.7708 61.9213C52.8566 62.0745 52.9914 62.24 53.1385 62.3626C53.4143 62.5894 54.7198 62.7242 55.1733 62.6997C55.3633 62.6874 55.6391 62.62 55.8414 62.6507C56.0007 62.669 56.0375 62.6629 56.1785 62.7242C56.4849 62.8468 56.7975 62.8958 57.1162 62.9694C57.1591 62.9877 57.2326 62.9939 57.3185 63H57.9007C57.9497 63 57.9988 62.9939 58.0355 62.9939C58.1397 62.9877 58.0723 62.9877 58.1704 62.9877L58.4646 62.9632C58.5381 62.9265 59.0284 62.8897 59.292 62.5648C59.2552 62.4116 59.2429 62.3932 59.1571 62.2523C59.0836 62.1419 59.0775 62.0561 58.9917 61.9703C58.7588 61.762 58.912 62.0684 58.6301 61.6455L58.0784 61.0265C57.8946 60.8181 57.9068 60.622 57.6923 60.481C57.5943 60.4197 57.5207 60.4013 57.4472 60.2849L56.9875 59.3655C56.7117 58.8691 56.6198 58.5504 56.6075 57.8639C56.6075 57.6923 56.5707 57.6433 56.5707 57.4656C56.5585 56.2765 56.491 53.4327 56.7178 52.5379C56.9139 51.7472 57.1346 51.0363 57.2143 50.2702C57.2939 49.4918 57.5759 49.4857 57.5084 48.7257C57.4472 48.0086 57.582 48.0208 57.6984 47.6163C57.7414 47.4754 57.7475 47.4141 57.7965 47.2731C58.103 46.4518 58.722 44.5457 59.0897 43.9512C59.2184 43.7428 59.3165 43.5957 59.4452 43.369C59.7394 42.8603 60.0397 42.3761 60.1439 41.7632C60.1745 41.5793 60.1439 41.4445 60.1623 41.2851C60.2052 40.9358 61.4555 40.0961 61.8723 39.3239C62.0745 38.9439 62.3565 38.5026 62.4116 38C62.5281 37.001 62.9693 36.1307 63.0245 35.8671C63.1839 35.0642 63.5332 34.6965 63.8519 33.9426C63.95 33.7036 64.0419 33.5014 64.1155 33.2684C64.3238 32.631 64.5935 31.8649 65.0225 31.3869C65.2003 31.1907 65.2983 31.0804 65.4761 30.9088C65.7703 30.6146 66.0277 30.2407 66.1012 30.1611L66.5977 29.7688C66.6345 29.7443 67.2167 29.0395 67.7683 28.5982L68.9635 27.5256C69.5641 27.1579 69.7357 26.6247 71.0228 25.9076C71.2557 25.7789 71.5744 25.2886 71.9054 25.4602C73.1312 26.0853 73.8237 25.8463 75.1476 25.8463C75.3437 25.595 75.3192 25.3927 76.0424 25.5398C76.2201 25.5766 76.3918 25.6563 76.6124 25.5827C77.4888 25.3131 77.354 25.5521 78.1569 25.8892C78.5001 26.0302 78.8801 26.024 79.2601 26.2018C79.4133 26.9495 79.493 26.9434 80.0262 27.3847C80.4614 27.7463 80.9946 27.8321 81.5156 27.5808C81.8772 27.403 81.8833 27.1947 82.0243 26.7595C82.2939 26.7472 82.3736 26.7411 82.5881 26.6308C82.9191 26.4592 82.7597 26.5818 82.9436 26.306C83.0294 26.1772 83.1459 26.0363 83.2255 25.8953C83.293 25.7605 83.3359 25.5276 83.4033 25.3989C83.44 25.3069 83.4278 25.2395 83.4339 25.166C83.44 25.074 83.4462 24.9944 83.4462 24.9024V24.8963V24.3999C83.4401 24.3263 83.4278 24.265 83.4094 24.216C83.1275 23.7318 82.8701 23.6521 82.6984 23.505C82.392 23.2415 82.5514 23.4192 82.4226 23.2108C82.2756 22.9841 81.9017 22.6654 81.773 22.5244C81.3746 22.0831 81.5585 22.4325 81.2398 21.9667C81.0252 21.6602 80.7494 21.4028 80.4675 21.0412C80.1549 20.6428 80.0936 20.6122 79.7995 20.0851C79.6278 19.7786 79.6217 19.6438 79.5666 19.227C79.4991 18.7367 79.4624 18.7857 79.1437 18.5222C78.9537 18.3628 78.782 18.1974 78.5491 18.0257C78.1263 17.7193 78.2979 17.8664 78.0098 17.468C77.8321 17.2228 77.6972 17.0696 77.5563 16.8306C77.3724 16.5241 77.1211 16.3893 77.1334 16.1258C77.1395 16.0277 77.8198 13.2329 76.9679 13.4106C76.7779 13.4474 76.3795 14.428 76.2569 14.6426C76.1282 14.8632 75.5092 15.5742 75.2885 15.5742C75.2273 15.2922 75.3376 15.2064 75.4295 14.998C75.595 14.618 75.3131 14.6609 75.3131 13.6558C75.3131 13.3677 75.356 13.2513 75.1905 13.049C75.1598 13.0061 75.215 13 75.1231 13C75.0618 13 75.0863 13 75.0127 13.0245Z" fill="white" fill-opacity="0.85"/>
</svg>
