<svg width="100" height="80" viewBox="0 0 100 80" fill="none" xmlns="http://www.w3.org/2000/svg">
<path fill-rule="evenodd" clip-rule="evenodd" d="M44.5875 13.2606H44.6226L44.5925 13.3057L44.5875 13.2606ZM44.1365 13.4109H44.1716L44.1415 13.456L44.1365 13.4109ZM48.1854 14.4582H48.2205L48.1904 14.5033L48.1854 14.4582ZM50.4704 14.9092V14.9443L50.4253 14.9142L50.4704 14.9092ZM43.6153 15.0595H43.6504L43.6204 15.1046L43.6153 15.0595ZM43.0892 15.2099H43.1243L43.0942 15.255L43.0892 15.2099ZM42.0419 15.5105H42.077L42.0469 15.5556L42.0419 15.5105ZM41.2902 16.1068H41.3253L41.2952 16.1519L41.2902 16.1068ZM48.2606 16.4827H48.2255L48.2556 16.4376L48.2606 16.4827ZM43.6855 18.0561H43.7206L43.6905 18.1012L43.6855 18.0561ZM43.1644 18.5773H43.1994L43.1694 18.6224L43.1644 18.5773ZM43.0892 18.6524H43.1243L43.0942 18.6975L43.0892 18.6524ZM42.7134 18.8779H42.7484L42.7184 18.923L42.7134 18.8779ZM42.112 19.3289H42.1471L42.1171 19.374L42.112 19.3289ZM41.6661 19.6296H41.7011L41.6711 19.6747L41.6661 19.6296ZM47.0228 20.4514V20.4865L46.9777 20.4564L47.0228 20.4514ZM40.0926 21.3484H40.1277L40.0976 21.3935L40.0926 21.3484ZM49.5684 25.5426V25.5777L49.5233 25.5476L49.5684 25.5426ZM54.364 26.1439V26.179L54.3189 26.1489L54.364 26.1439ZM52.0038 27.3065H52.0389C52.3446 27.4518 52.6803 27.4267 53.1864 27.7976L53.2215 27.8326C53.3568 28.008 53.3668 27.998 53.4219 28.1684C53.452 28.2786 53.457 28.3037 53.4269 28.3889C53.3468 28.4289 53.1213 28.469 53.0611 28.4841C53.0561 28.4841 53.0461 28.4891 53.0411 28.4891C53.0361 28.4891 53.0261 28.4941 53.021 28.4941L52.986 28.5091C52.981 28.5091 52.9709 28.5141 52.9659 28.5141L52.8707 28.5542C52.8406 28.5743 52.8256 28.5893 52.7855 28.6194L52.6753 28.6945C52.5099 28.8048 52.5701 28.8098 52.525 28.8649C52.4297 28.9802 52.4648 28.7947 52.4698 29.0403V29.827C52.4748 30.0074 52.4748 29.8571 52.4047 30.0124C52.3646 30.1076 52.5751 29.9924 52.2493 30.1778C52.2443 30.1828 52.2343 30.1878 52.2243 30.1928L52.074 30.3432C51.8134 30.5185 51.9286 30.6388 51.653 30.5586C51.5678 30.5336 51.653 30.5686 51.5678 30.5436C51.4726 30.5135 51.5127 30.5236 51.4726 30.4935L50.9866 30.268H50.9515C50.8663 30.2329 50.8964 30.258 50.7961 30.2329C50.726 30.2179 50.736 30.2179 50.7009 30.2129C50.6609 30.2028 50.6659 30.2129 50.6158 30.1928H50.5807C50.4905 30.1477 50.4704 30.1577 50.3502 30.1427L49.8591 30.0625C49.8541 30.0625 49.8441 30.0575 49.839 30.0575C49.834 30.0575 49.824 30.0525 49.819 30.0475C49.7238 30.0224 49.8591 29.9874 49.7138 30.0475L49.5985 29.9924C49.4983 29.9673 49.6386 30.0325 49.4933 29.9723H49.4582C49.3931 29.9423 49.3379 29.9272 49.2728 29.8972H49.2377L48.7617 29.6617C48.7316 29.6416 48.7166 29.6216 48.6765 29.5965L48.456 29.4412C48.3508 29.371 48.3959 29.4512 48.2355 29.2908C48.1654 29.2207 48.1152 29.1756 48.0501 29.1054C47.9499 29.0052 47.9549 28.9701 47.8898 28.8499C47.8246 28.7547 47.8296 28.6695 47.7945 28.459C47.7695 28.3337 47.8046 28.1634 47.8146 28.0231V27.988V27.8777L49.0974 27.7825C49.1024 27.7825 49.1124 27.7775 49.1175 27.7775L49.1926 27.7575C49.1976 27.7575 49.2277 27.7625 49.2377 27.7675H49.2728L49.824 27.6723C49.8741 27.6673 49.9543 27.6572 50.0194 27.6522C50.0946 27.6472 50.1347 27.6372 50.1648 27.6322L50.8162 27.527C50.8914 27.527 50.9465 27.532 51.0216 27.527C51.162 27.5119 51.2872 27.5119 51.4426 27.5119L51.5428 27.3566C51.5428 27.3516 51.5528 27.3466 51.5578 27.3466L51.5779 27.3165C51.658 27.1561 51.8334 27.2213 52.0038 27.3065ZM78.001 27.4919H78.0361L78.006 27.537L78.001 27.4919ZM75.4554 27.6422H75.4905L75.4604 27.6873L75.4554 27.6422ZM77.4799 27.7174H77.5149L77.4849 27.7625L77.4799 27.7174ZM77.4047 27.7925H77.4398L77.4097 27.8376L77.4047 27.7925ZM54.4392 28.1283H54.4041L54.4342 28.0832L54.4392 28.1283ZM56.3133 28.0932V28.1283L56.2682 28.0982L56.3133 28.0932ZM54.4392 28.1283C54.5694 28.0732 54.5795 28.1183 54.6346 28.1383C54.8601 28.2135 55.1357 28.459 55.261 28.6544C55.4013 28.7547 55.2309 28.6494 55.3712 28.8048L55.4113 28.8398C55.6318 29.0754 55.5366 29.0754 55.6769 29.1756L55.712 29.2508C55.8473 29.346 55.7019 29.2407 55.8022 29.386L55.8873 29.4863C55.9775 29.5815 56.0527 29.6316 56.1229 29.7368C56.0327 29.7769 56.1028 29.7769 56.0126 29.7368C55.8623 29.6316 55.6368 29.6166 55.5616 29.5865H55.5266C55.3712 29.5213 55.4263 29.6516 55.1257 29.3209L54.9703 29.0553C54.9453 29.0152 54.9553 29.0353 54.9252 28.9852C54.7098 28.8298 55.0254 28.9902 54.815 28.8348L54.5694 28.4089C54.5243 28.3438 54.5093 28.2936 54.4793 28.2335L54.4041 28.1934L54.4392 28.1283ZM77.8908 28.2786H77.8557L77.8857 28.2335L77.8908 28.2786ZM74.4833 28.3137H74.5183L74.4883 28.3588L74.4833 28.3137ZM53.4269 28.3889H53.462L53.4319 28.434L53.4269 28.3889ZM74.4081 28.3889H74.4432L74.4131 28.434L74.4081 28.3889ZM52.6803 28.6895H52.7154L52.6853 28.7346L52.6803 28.6895ZM54.815 28.8398V28.8749L54.7699 28.8449L54.815 28.8398ZM55.6769 29.1756V29.1405L55.722 29.1706L55.6769 29.1756ZM57.5109 29.1405V29.1756L57.4658 29.1455L57.5109 29.1405ZM77.2894 29.1756H77.2544L77.2844 29.1305L77.2894 29.1756ZM64.1405 29.2157H64.1756L64.1455 29.2608L64.1405 29.2157ZM57.6613 29.2908V29.3259L57.6162 29.2959L57.6613 29.2908ZM48.6715 29.5865V29.6216L48.6264 29.5915L48.6715 29.5865ZM58.0371 29.5865V29.6216L57.992 29.5915L58.0371 29.5865ZM56.0126 29.7368V29.7719L55.9675 29.7418L56.0126 29.7368ZM56.1229 29.7368H56.1579L56.1279 29.7819L56.1229 29.7368ZM49.7188 30.0375V30.0726L49.6737 30.0425L49.7188 30.0375ZM52.2293 30.1878H52.2644L52.2343 30.2329L52.2293 30.1878ZM59.7208 30.1878H59.7559L59.7258 30.2329L59.7208 30.1878ZM52.079 30.3381H52.114L52.084 30.3832L52.079 30.3381ZM40.9896 31.2752V31.2401L41.0347 31.2702L40.9896 31.2752ZM41.2902 32.1371H41.3253L41.2952 32.1822L41.2902 32.1371ZM41.5157 33.445V33.4099L41.5608 33.44L41.5157 33.445ZM40.9896 34.5324H41.0247L40.9946 34.5775L40.9896 34.5324ZM39.7168 35.6548H39.7519L39.7218 35.6999L39.7168 35.6548ZM69.6476 36.0657H69.6125L69.6426 36.0206L69.6476 36.0657ZM69.5725 36.1409H69.5374L69.5674 36.0958L69.5725 36.1409ZM70.9605 36.3664C70.9755 36.4015 70.9755 36.4315 70.9806 36.4466L71.0457 36.5368C71.0858 36.5819 71.0958 36.5869 71.1158 36.637C71.171 36.7623 71.0407 36.5769 71.1509 36.7322L71.4416 37.0429L71.8926 37.3436C72.0329 37.4388 72.1381 37.5991 72.2183 37.7294C72.3235 37.8898 72.118 37.7394 72.3035 37.8697L72.7645 38.4209C72.9349 38.5963 72.7595 38.5161 72.9048 38.6164L73.0902 38.8419L73.2706 39.0673C73.3207 39.1325 73.3758 39.1726 73.4159 39.2227C73.5312 39.3881 73.3057 39.2227 73.5011 39.363L73.5813 39.6586C73.6063 39.7639 73.5913 39.7238 73.5963 39.804C73.6013 39.9242 73.6163 39.9142 73.6564 39.9643C73.7266 40.1347 73.5863 39.9643 73.7216 40.1247C73.7767 40.1898 73.8218 40.2249 73.8819 40.265H73.917L74.0924 40.3151C74.0974 40.3201 74.1124 40.3251 74.1174 40.3251C74.1225 40.3251 74.1325 40.3351 74.1425 40.3401H74.1776H74.2127C74.2978 40.3752 74.343 40.3001 74.348 40.4203C74.353 40.4955 74.3079 40.5105 74.2828 40.5556L74.2678 40.5907C74.2678 40.5957 74.2628 40.6057 74.2628 40.6107C74.2477 40.6408 74.2678 40.6208 74.2377 40.6659C74.2177 40.6959 74.1976 40.711 74.1726 40.7511C74.0473 40.8412 74.1525 40.7561 74.1074 40.8513C74.0724 40.9264 74.0373 40.9365 73.9822 40.9715H73.9471H73.912H73.8769H73.8418H73.8068C73.6564 40.9014 73.471 40.9014 73.3558 40.8212C73.2405 40.7711 73.3157 40.8362 73.1754 40.7811C73.0902 40.746 73.1754 40.7761 73.0752 40.731C73.02 40.706 72.99 40.6959 72.9449 40.6759H72.9098C72.7595 40.5757 72.7895 40.6508 72.6091 40.5256C72.4588 40.4253 72.4889 40.5005 72.3085 40.3752C72.2533 40.3502 72.2082 40.3351 72.1531 40.3101L72.0329 40.2399C72.0279 40.2349 72.0178 40.2299 72.0078 40.2249C71.9577 40.1998 71.9377 40.1948 71.8725 40.1698L71.5167 39.9994H71.4817L71.3714 39.9242H71.3363L71.2261 39.8491H71.191L70.8152 39.6236C70.7601 39.5885 70.745 39.5584 70.6949 39.5384C70.5847 39.4883 70.7651 39.5735 70.6398 39.5234C70.5997 39.5083 70.5947 39.4983 70.5546 39.4732L70.4394 39.4031C70.3892 39.373 70.3842 39.358 70.3341 39.3229L70.0736 39.1726C70.0234 39.1375 70.0084 39.1175 69.9683 39.0924C69.9132 39.0573 69.8731 39.0523 69.813 39.0222L69.7378 38.9471H69.7027L69.6276 38.8719C69.5223 38.8168 69.4622 38.7867 69.367 38.7216L69.2568 38.6464C69.1916 38.6063 69.2517 38.6414 69.1916 38.5963C69.1215 38.5462 69.1565 38.5713 69.1014 38.5362C69.0212 38.4911 69.0864 38.5362 69.0062 38.4811C68.9661 38.456 68.9661 38.446 68.921 38.4159L68.8108 38.3407L68.7356 38.2656L68.3798 38.02C68.3748 38.015 68.3648 38.01 68.3548 38.005L68.2846 37.9649C68.1443 37.8697 68.1694 37.7945 67.984 37.7795L68.019 37.7043L68.1293 37.6292L68.2044 37.554C68.2145 37.549 68.2245 37.534 68.2295 37.539C68.2596 37.6142 68.4149 37.1732 68.5703 37.0579C68.5753 37.0529 68.5903 37.0479 68.5903 37.0429C68.5953 37.0379 68.6053 37.0329 68.6153 37.0279C68.8408 36.8775 69.2016 36.4215 69.4572 36.2211L69.5875 36.1309L69.6627 36.0557L69.7729 35.9806C69.7829 35.9755 69.7929 35.9605 69.798 35.9655C69.803 35.9705 69.818 35.9555 69.823 35.9505L70.1487 35.7551H70.1838C70.3041 35.6949 70.3893 35.72 70.5596 35.72C70.6097 35.7951 70.6448 35.8102 70.6899 35.8853L70.9605 36.3664ZM39.1906 36.3263H39.2257L39.1956 36.3714L39.1906 36.3263ZM70.9605 36.3664V36.3313L71.0056 36.3614L70.9605 36.3664ZM68.6003 37.0379H68.5652L68.5953 36.9928L68.6003 37.0379ZM67.999 37.7144H67.9639L67.994 37.6693L67.999 37.7144ZM72.3085 37.8647V37.8296L72.3536 37.8597L72.3085 37.8647ZM67.4378 38.015H67.4728L67.6532 38.0952C67.7785 38.1503 67.7885 38.1754 67.8837 38.2405L67.9288 38.2706C68.0341 38.3608 67.8737 38.2806 68.0341 38.3909C68.0441 38.3959 68.0541 38.3959 68.0591 38.4059L68.3247 38.5863C68.3297 38.5913 68.3448 38.5963 68.3498 38.6013C68.3548 38.6063 68.3648 38.6113 68.3748 38.6164L68.8258 38.917L68.901 38.9922L69.0112 39.0673H69.0463C69.1666 39.1475 69.1215 39.1575 69.2768 39.2528L69.3269 39.2778C69.3319 39.2828 69.3419 39.2878 69.352 39.2928L69.4622 39.368C69.4672 39.373 69.4823 39.373 69.4873 39.383L69.7779 39.5785C69.7829 39.5835 69.7929 39.5885 69.803 39.5935L69.9132 39.6687C69.9232 39.6737 69.9333 39.6737 69.9383 39.6837L70.5496 40.0445L70.6598 40.1197H70.6949C70.745 40.1547 70.7601 40.1748 70.8002 40.1998C70.8553 40.2349 70.8954 40.2399 70.9555 40.27C70.9605 40.275 70.9755 40.275 70.9806 40.285C70.9956 40.3251 71.0006 40.3001 71.0257 40.3151L71.4817 40.5707C71.5217 40.5957 71.4666 40.5707 71.5518 40.6107C71.5518 40.6107 71.617 40.6358 71.632 40.6458C71.637 40.6508 71.652 40.6508 71.657 40.6609L71.8976 40.7962C71.9377 40.8212 71.9377 40.8262 71.9828 40.8463C72.103 40.8914 71.9727 40.8062 72.073 40.8813L72.3085 41.0216H72.3436C72.3987 41.0567 72.4137 41.0868 72.4638 41.1068C72.5741 41.1569 72.3937 41.0718 72.5189 41.1219C72.559 41.1369 72.564 41.1469 72.6041 41.172H72.6392L72.6743 41.2071H72.6392C72.5991 41.2321 72.6392 41.2321 72.559 41.2421L72.2634 41.2071H72.2283C72.1431 41.172 72.1732 41.197 72.073 41.172C72.0028 41.1569 72.0128 41.1569 71.9777 41.1519C71.9377 41.1419 71.9427 41.1519 71.8926 41.1319H71.8575C71.8124 41.1068 71.8024 41.1118 71.7522 41.0868C71.6771 41.0517 71.7422 41.0718 71.662 41.0467C71.6169 41.0317 71.5468 41.0317 71.4466 40.9816H71.4115C71.3464 40.9515 71.2912 40.9365 71.2261 40.9064H71.191C71.1259 40.8763 71.0707 40.8613 71.0056 40.8312H70.9705C70.8553 40.7511 70.8703 40.7761 70.74 40.726C70.6248 40.6809 70.715 40.711 70.6147 40.6659C70.5596 40.6408 70.5296 40.6358 70.4845 40.6107H70.4494L69.9633 40.3852H69.9282C69.7779 40.285 69.808 40.3602 69.6276 40.2349L69.2066 40.0595C69.0914 39.9693 69.1866 40.0245 69.0463 39.9543L68.45 39.6486C68.445 39.6436 68.435 39.6386 68.4249 39.6336C68.2746 39.5334 68.3748 39.6236 68.2195 39.5434L68.1243 39.4883L67.7484 39.2628C67.3876 39.0222 67.4227 39.1525 67.4227 38.7466L67.4127 38.3558C67.4127 38.3458 67.4027 38.3257 67.4027 38.3207C67.3977 38.1804 67.5029 38.3357 67.3726 38.1453L67.4478 38.0702V38.015H67.4378ZM67.8887 38.2405V38.2055L67.9338 38.2355L67.8887 38.2405ZM68.0391 38.3858V38.3508L68.0842 38.3808L68.0391 38.3858ZM68.901 38.4259V38.461L68.8559 38.4309L68.901 38.4259ZM37.7675 38.5011H37.8026L37.7725 38.5462L37.7675 38.5011ZM37.6923 38.5763H37.7274L37.6973 38.6214L37.6923 38.5763ZM72.9098 38.6113V38.5763L72.9549 38.6063L72.9098 38.6113ZM69.347 38.7266V38.7617L69.3019 38.7316L69.347 38.7266ZM78.6374 38.8769V38.912L78.5923 38.8819L78.6374 38.8769ZM69.798 39.0273V39.0623L69.7528 39.0323L69.798 39.0273ZM69.4622 39.363V39.3279L69.5073 39.358L69.4622 39.363ZM70.3241 39.3229V39.358L70.279 39.3279L70.3241 39.3229ZM73.5061 39.363V39.3279L73.5512 39.358L73.5061 39.363ZM70.5496 39.4732V39.5083L70.5045 39.4783L70.5496 39.4732ZM78.9381 39.4732V39.5083L78.893 39.4783L78.9381 39.4732ZM69.9132 39.6637V39.6286L69.9583 39.6586L69.9132 39.6637ZM73.6564 39.9593V39.9242L73.7015 39.9543L73.6564 39.9593ZM67.4027 40.1096H67.3676L67.3977 40.0645L67.4027 40.1096ZM36.1189 40.1497H36.1539L36.1239 40.1948L36.1189 40.1497ZM70.9605 40.26V40.2249L71.0056 40.255L70.9605 40.26ZM71.4867 40.5606V40.5256L71.5318 40.5556L71.4867 40.5606ZM71.632 40.6358V40.6007L71.6771 40.6308L71.632 40.6358ZM35.748 40.6709H35.7831L35.7531 40.716L35.748 40.6709ZM74.1826 40.746H74.2177L74.1876 40.7911L74.1826 40.746ZM35.4474 41.1219H35.4825L35.4524 41.167L35.4474 41.1219ZM72.6843 41.197H72.7194L72.6893 41.2421L72.6843 41.197ZM72.7595 42.0188C72.7645 42.0138 72.7695 42.0238 72.7695 42.0289L72.7595 42.0188ZM73.2054 42.2093V42.1742L73.2505 42.2042L73.2054 42.2093ZM73.2806 42.2844V42.2493L73.3257 42.2794L73.2806 42.2844ZM77.5901 42.3596H77.555L77.5851 42.3145L77.5901 42.3596ZM34.6957 42.6202H34.7308L34.7007 42.6653L34.6957 42.6202ZM34.2497 43.8178H34.2848L34.2548 43.8629L34.2497 43.8178ZM66.9517 46.6641V46.6991L66.9066 46.6691L66.9517 46.6641ZM32.8216 47.7865H32.8567L32.8266 47.8316L32.8216 47.7865ZM53.016 48.3478H52.981L53.011 48.3027L53.016 48.3478ZM53.6524 48.2726H53.6875C53.8629 48.3428 53.7025 48.2024 53.8729 48.2726H53.908C54.0082 48.2325 53.9381 48.2576 54.0283 48.2526C54.0984 48.2475 54.0884 48.2425 54.2036 48.2325C54.4091 48.2225 54.5344 48.2275 54.6196 48.1924H54.6546C54.805 48.2526 54.6797 48.1774 54.8501 48.1724L56.2732 47.987C56.3584 47.982 56.3885 48.012 56.4887 47.9719H56.5237C56.6139 48.012 56.5438 48.012 56.634 47.9719H56.6691C56.7492 48.007 56.8495 47.9769 57.0549 48.0421L57.4859 48.1824C57.526 48.1974 57.561 48.2375 57.6061 48.2676H57.6412L57.8016 48.3377C57.8366 48.3578 57.8416 48.3778 57.8767 48.4029L57.987 48.448C57.992 48.448 58.002 48.453 58.007 48.453C58.2075 48.5131 58.022 48.4781 58.3528 48.6384H58.3879C58.5532 48.7486 58.4029 48.6935 58.5833 48.7486C58.5883 48.7486 58.5983 48.7537 58.6033 48.7537C58.6083 48.7537 58.6184 48.7587 58.6234 48.7587C58.8338 48.8238 58.6234 48.8138 58.924 48.909L59.1144 48.9992C59.1195 49.0042 59.1295 49.0092 59.1395 49.0142L59.7408 49.3149L60.9785 49.9162H61.0136L61.1239 49.9914H61.1589L62.0659 50.3121C62.0709 50.3121 62.081 50.3171 62.086 50.3171C62.091 50.3171 62.101 50.3221 62.106 50.3221L62.1812 50.3472C62.1862 50.3472 62.1962 50.3522 62.2012 50.3522C62.2062 50.3522 62.2163 50.3572 62.2213 50.3622L62.6222 50.5125H62.6572C62.6773 50.5225 62.7224 50.5376 62.7374 50.5476C62.8076 50.5827 62.7725 50.5626 62.8076 50.5877L62.9178 50.6629H62.9529C63.013 50.7029 63.1233 50.7831 63.1533 50.8583C63.2085 50.9936 63.0631 50.8733 63.2485 51.0738C63.0631 51.4646 63.2285 51.4496 62.7976 51.7102C62.6973 51.7703 62.6723 51.8304 62.5721 51.8956L62.4217 52.0459C62.3866 52.096 62.3666 52.106 62.3415 52.1511L62.1211 52.4919C61.9707 52.7124 61.9156 52.6923 61.8204 52.8276C61.6651 52.7224 61.7001 52.7875 61.5849 52.6873C61.5097 52.6222 61.4546 52.567 61.4095 52.4869L61.2491 52.2714C61.2441 52.2664 61.2391 52.2564 61.2341 52.2514L60.9735 51.9106C60.9685 51.9006 60.9485 51.8755 60.9435 51.8705L60.9034 51.8054C60.9034 51.8004 60.8934 51.7953 60.8934 51.7903L60.8032 51.7052C60.7981 51.7001 60.7881 51.6951 60.7831 51.6901L60.4825 51.4646C60.4774 51.4596 60.4624 51.4546 60.4574 51.4496C60.4524 51.4446 60.4424 51.4396 60.4323 51.4346C60.282 51.3343 60.3822 51.4245 60.2269 51.3444C60.2169 51.3393 60.1868 51.3193 60.1768 51.3193C60.1718 51.3143 60.1567 51.3093 60.1517 51.3043C60.1467 51.2993 60.1367 51.2942 60.1267 51.2892C60.0615 51.2592 60.0064 51.2441 59.9413 51.2141H59.9062C59.841 51.184 59.7859 51.169 59.7208 51.1389C59.6757 51.1138 59.6657 51.1189 59.6156 51.0938C59.5404 51.0587 59.6055 51.0788 59.5254 51.0537C59.4803 51.0387 59.4101 51.0387 59.3099 50.9886H59.2698C59.1946 50.9535 58.8589 50.9134 58.7086 50.8382H58.6735H58.6384H58.6033L57.8166 50.6879H57.7815C57.7164 50.6578 57.7164 50.6528 57.6262 50.6328C57.5911 50.6278 57.541 50.6178 57.4458 50.6127H57.4107C57.3005 50.5626 57.2554 50.5877 57.1501 50.5376H57.1151H57.08H57.0449C56.9798 50.5075 56.9246 50.4925 56.8595 50.4624H56.8244L56.2732 50.3321C56.2682 50.3321 56.2582 50.3271 56.2532 50.3271L56.193 50.3021C56.1229 50.277 56.0928 50.277 56.0176 50.252L55.7671 50.1668C55.6318 50.1066 55.6719 50.1718 55.5466 50.0866C55.4815 50.0565 55.4263 50.0415 55.3612 50.0114H55.3261L54.2187 49.3299C54.2036 49.3099 54.2487 49.3249 54.1636 49.2648C53.9781 49.1345 54.1235 49.1896 53.9481 49.0694L53.903 49.0393C53.7978 48.9691 53.7777 48.919 53.6875 48.8388C53.6174 48.7787 53.6023 48.7887 53.5622 48.7537L53.0411 48.3628V48.3277C53.1163 48.2977 53.2165 48.2977 53.4019 48.2776C53.4871 48.2876 53.5522 48.3177 53.6524 48.2726ZM53.016 48.3879V48.4229L52.9709 48.3929L53.016 48.3879ZM31.5488 48.909H31.5839L31.5538 48.9541L31.5488 48.909ZM54.1385 49.2848V49.3199L54.0934 49.2898L54.1385 49.2848ZM29.0032 50.4073H29.0383L29.0082 50.4524L29.0032 50.4073ZM66.0898 51.1189V51.0838L66.1349 51.1138L66.0898 51.1189ZM27.8056 51.3093H27.8406L27.8106 51.3544L27.8056 51.3093ZM65.3031 52.2413H65.268L65.298 52.1962L65.3031 52.2413ZM67.4378 52.4668V52.4318L67.4829 52.4618L67.4378 52.4668ZM67.5881 52.6172V52.5821L67.6332 52.6121L67.5881 52.6172ZM67.7384 52.7675V52.7324L67.7835 52.7625L67.7384 52.7675ZM67.8136 52.8427V52.8076L67.8587 52.8376L67.8136 52.8427ZM64.7017 53.1433H64.6667L64.6967 53.0982L64.7017 53.1433ZM24.358 53.5542H24.3931L24.363 53.5993L24.358 53.5542ZM23.907 53.8549H23.9421L23.912 53.9L23.907 53.8549ZM69.0112 54.0403V54.0052L69.0563 54.0353L69.0112 54.0403ZM69.7629 54.9373V54.9022L69.808 54.9322L69.7629 54.9373ZM70.284 55.6137V55.5787L70.3291 55.6087L70.284 55.6137ZM73.2455 55.6488V55.6839L73.2004 55.6538L73.2455 55.6488ZM73.5462 56.0998V56.1349L73.5011 56.1048L73.5462 56.0998ZM72.0078 57.9339V57.8988L72.0529 57.9288L72.0078 57.9339ZM24.2077 58.2345V58.1994L24.2528 58.2295L24.2077 58.2345ZM65.7541 58.3448V58.3798L65.709 58.3498L65.7541 58.3448ZM24.5083 58.5352V58.5001L24.5534 58.5302L24.5083 58.5352ZM72.4588 58.5352V58.5001L72.5039 58.5302L72.4588 58.5352ZM24.809 58.8358V58.8008L24.8541 58.8308L24.809 58.8358ZM72.6091 58.8358V58.8008L72.6542 58.8308L72.6091 58.8358ZM24.8841 58.911V58.8759L24.9292 58.906L24.8841 58.911ZM25.4805 59.5073V59.4722L25.5256 59.5023L25.4805 59.5073ZM25.5556 59.5825V59.5474L25.6007 59.5775L25.5556 59.5825ZM25.706 59.7328V59.6977L25.7511 59.7278L25.706 59.7328ZM25.7811 59.808V59.7729L25.8262 59.803L25.7811 59.808ZM43.7256 62.1281H43.6855L43.7156 62.083L43.7256 62.1281ZM41.626 62.4287H41.5909L41.621 62.3836L41.626 62.4287ZM46.9828 62.4287V62.3937L47.0279 62.4237L46.9828 62.4287ZM46.4566 13H47.0178C47.2534 13.02 47.4738 13.0651 47.5891 13.1654L47.8296 13.6665C47.8346 13.6865 47.8497 13.7366 47.8597 13.7667L47.8998 13.8669C47.8998 13.8769 47.9048 13.912 47.9248 13.9621C47.995 14.1475 47.985 14.3229 48.1804 14.4532C48.3207 14.363 48.5512 14.4432 48.7066 14.378H48.7416H48.8519H48.8869H48.9972H49.0323C49.1124 14.343 49.2127 14.343 49.2928 14.378H49.3279H49.4382H49.4732C49.6186 14.4382 49.7238 14.3379 49.9593 14.4532H49.9944L50.2249 14.5033C50.3351 14.5284 50.4203 14.7338 50.4253 14.7438C50.4404 14.809 50.4003 14.7939 50.4454 14.9042C50.5606 14.9894 50.4754 14.9092 50.5005 14.9693L50.5757 15.2349C50.5807 15.5005 50.6358 15.9114 50.4805 16.1419C50.2299 16.2622 50.2449 16.2421 50.0044 16.2722L49.5484 16.3674H49.5133H49.4782H49.4432C49.348 16.4075 49.2427 16.3875 49.0673 16.4025L48.7316 16.4426H48.6965C48.5211 16.3724 48.6815 16.5127 48.5111 16.4426H48.476C48.3508 16.4927 48.3758 16.4275 48.2505 16.4777L48.1754 16.5528C48.2054 16.5979 48.2355 16.623 48.2556 16.658L48.3357 16.8234C48.456 17.094 48.456 16.9337 48.5412 17.1291C48.6013 17.2694 48.5161 17.2493 48.6715 17.2744L48.5913 17.3395H48.5562L48.4811 17.4147C48.3658 17.4949 48.446 17.4598 48.4109 17.5099L48.3858 17.545C48.3808 17.55 48.3758 17.56 48.3708 17.565C48.1854 17.8156 48.2956 17.8457 48.3107 17.9459C48.3107 17.9609 48.3157 18.006 48.3107 18.021C48.3107 18.0311 48.3057 18.0511 48.3057 18.0561L48.2656 18.2616C48.2505 18.3017 48.1654 18.3718 48.1303 18.4169C47.9198 18.6524 48.1704 18.5723 47.9499 18.7226C48.0551 18.8779 47.9699 18.7777 48.0251 18.908V18.9481C48.0601 19.0333 48.0451 19.0884 48.0451 19.1636C48.0451 19.2788 48.0401 19.2738 47.9098 19.359H47.8747C47.7595 19.4091 47.3385 19.3941 47.1982 19.3941C47.1281 19.5594 47.1481 19.7799 47.1431 19.7949C47.1281 19.8902 47.1231 19.83 47.093 19.9252C47.0228 20.1557 47.103 20.2109 47.0078 20.4414L47.1832 20.5616L47.5239 21.2932C47.5239 21.2983 47.529 21.3083 47.534 21.3133L47.5991 21.5187C47.7394 21.9296 47.5941 21.7142 47.7244 21.9046V21.9397C47.7695 22.0549 47.7394 22.7164 47.7444 22.8667C47.7494 23.1323 47.6743 23.0471 47.6643 23.2024C47.6592 23.3077 47.6893 23.3177 47.6492 23.443C47.6492 23.448 47.6392 23.458 47.6392 23.463C47.6141 23.5632 47.6693 23.5432 47.6643 23.7286C47.6592 23.899 47.7294 23.9391 47.7394 24.0443C47.7745 24.355 47.7996 24.2848 47.8146 24.4201L47.9499 25.0816C47.9649 25.1317 47.9549 25.5777 48.1203 25.5927C48.1353 25.5927 48.6514 25.5877 48.7667 25.5326H48.8018C48.8669 25.5025 48.922 25.4875 48.9872 25.4574H49.0222C49.1024 25.4223 49.2026 25.4223 49.2828 25.4574H49.3179L49.5434 25.5326L50.4053 25.6829H50.4404H50.4754H50.5105H50.5456H50.5807C50.6709 25.723 50.6007 25.723 50.6909 25.6829H50.726C50.8162 25.723 50.746 25.723 50.8362 25.6829H50.8713C50.9615 25.723 50.8914 25.723 50.9816 25.6829H51.0166C51.1118 25.723 51.0417 25.6929 51.1469 25.708C51.187 25.713 51.2572 25.728 51.2973 25.733C51.4025 25.748 51.4075 25.718 51.5027 25.7581H51.5378C51.618 25.7931 51.7182 25.7931 51.7984 25.7581H51.8334C51.9286 25.718 51.8485 25.748 51.9387 25.733C51.9737 25.728 52.0389 25.718 52.084 25.713C52.2243 25.6979 52.2042 25.738 52.3195 25.6829H52.3546C52.4448 25.723 52.3746 25.723 52.4648 25.6829H52.4999C52.6001 25.6428 52.7655 25.6629 52.8657 25.6629C52.9709 25.6629 53.1112 25.6428 53.2115 25.6829H53.2465C53.3367 25.723 53.2666 25.723 53.3568 25.6829H53.3919C53.4921 25.733 53.7877 25.7531 53.898 25.8082C53.9531 25.8382 53.9731 25.8683 54.0283 25.9034H54.0633L54.2888 26.1289C54.374 26.194 54.3039 26.1289 54.4392 26.3544C54.4742 26.4095 54.4843 26.4446 54.5193 26.5047C54.6095 26.645 54.7348 26.8505 55.0004 27.0309C55.0054 27.0359 55.0204 27.0409 55.0254 27.0459L55.0956 27.086C55.5115 27.3115 55.296 27.2363 55.4113 27.3516L55.5666 27.4768C55.5717 27.4819 55.5817 27.4919 55.5867 27.4969L56.0527 27.9278L56.1279 28.003L56.2381 28.0782C56.4185 28.1984 56.4636 28.3287 56.6941 28.4841L57.1 28.8248L57.2503 28.9751L57.3255 29.0503L57.4358 29.1255L57.5861 29.2758L57.8918 29.5314C57.8968 29.5364 57.9118 29.5414 57.9118 29.5464L57.9569 29.5765L58.2926 29.8771L58.3678 29.9523C58.3778 29.9573 58.3878 29.9623 58.3929 29.9673L58.8439 30.3732C58.9491 30.4634 58.929 30.4183 59.0443 30.4734H59.0794C59.1746 30.5135 59.0944 30.5135 59.2097 30.4584L59.5053 30.263C59.5103 30.253 59.5203 30.253 59.5304 30.2479L59.6406 30.1728C59.6456 30.1678 59.6556 30.1577 59.6606 30.1577L59.8461 30.0876C59.9162 30.0726 59.9413 30.0726 60.0114 30.1026C60.0365 30.1527 60.0415 30.1728 60.0665 30.2379L60.1617 30.5185C60.3121 30.5185 60.282 30.5336 60.3872 30.4835H60.4223C60.5626 30.4233 60.4273 30.4885 60.5526 30.4584C60.6629 30.4334 60.6228 30.4334 60.718 30.4033C60.8182 30.3782 60.8433 30.4033 60.9836 30.3331H61.0186C61.0687 30.3131 61.0637 30.3181 61.1038 30.3131C61.1389 30.3081 61.1289 30.3081 61.199 30.293C61.2993 30.273 61.2742 30.293 61.3544 30.258H61.3895C61.5197 30.2028 61.4195 30.288 61.5749 30.1828H61.6099L62.547 29.9573H62.5821C62.6472 29.9272 62.7023 29.9122 62.7675 29.8821H62.8026L62.9429 29.8421C62.9479 29.8421 62.9579 29.837 62.9629 29.837C62.9679 29.837 62.9779 29.832 62.983 29.832C62.988 29.832 62.998 29.827 63.003 29.827C63.008 29.827 63.018 29.822 63.023 29.822L63.6845 29.4512C63.6895 29.4412 63.6995 29.4412 63.7096 29.4362L64.0453 29.2107L64.1405 29.1555C64.1455 29.1505 64.1555 29.1455 64.1656 29.1405L64.3359 29.0353C64.381 29.0202 64.381 29.0102 64.4211 28.9852H64.4562C64.5865 28.92 64.5314 28.9501 64.6867 28.9601C64.7368 28.9601 64.7969 28.9501 64.8671 28.9852H64.9022C64.9924 29.0202 65.1076 28.9952 65.2379 29.0603H65.273C65.4634 29.1405 66.1199 29.1255 66.2852 29.0603H66.3203C66.4105 29.0253 66.4406 29.0503 66.5809 28.9852H66.616C66.7162 28.9351 66.661 28.9701 66.7663 28.9451C66.9116 28.905 66.7763 28.9351 66.8916 28.9C66.9367 28.8849 67.0068 28.8849 67.107 28.8348H67.1421C67.3375 28.7547 67.1872 28.905 67.548 28.7496C67.7384 28.6695 67.8988 28.7296 68.004 28.6845H68.0391L68.7957 28.6294C68.8659 28.6294 68.891 28.6444 68.9761 28.6093H69.0112H69.1215H69.1565C69.3169 28.5442 69.6727 28.6645 69.9433 28.5342L70.0184 28.5743L70.0936 28.5342H70.1287C70.2189 28.5743 70.1487 28.5743 70.2389 28.5342H70.274C70.3742 28.4941 71.4516 28.5141 71.6871 28.5141C72.4287 28.5141 72.4337 28.3939 72.6041 28.3588C72.6091 28.3588 72.6843 28.3538 72.6993 28.3538C72.7695 28.3638 72.7194 28.3538 72.7795 28.3838H72.8146C72.8847 28.4139 73.1002 28.4289 73.1854 28.444C73.2806 28.464 73.2906 28.4791 73.3758 28.5041C73.4911 28.5342 73.4259 28.4941 73.5312 28.5392L73.6063 28.6144C73.6414 28.6394 73.6063 28.6344 73.7015 28.6645C73.7316 28.6745 73.7416 28.6745 73.7667 28.6745C73.8318 28.6745 73.8268 28.6645 73.907 28.6144H73.9421L74.1225 28.4941C74.1776 28.464 74.1475 28.4841 74.2127 28.434C74.2728 28.3939 74.2127 28.4289 74.2778 28.3838L74.353 28.3087L74.4632 28.2335L75.0645 27.7825C75.1247 27.7424 75.1347 27.7224 75.1948 27.6873C75.2299 27.6673 75.29 27.6522 75.3251 27.6322L75.3602 27.557C75.4704 27.6021 75.4554 27.527 75.5406 27.6372C75.6007 27.7174 75.5456 27.7124 75.5656 27.7875C75.5757 27.8276 75.6508 27.8878 75.6709 28.1634C75.6709 28.1634 75.6408 28.6544 75.5506 28.7897L75.6258 28.8298H75.6609C75.716 28.8048 75.7611 28.7897 75.8162 28.7647C75.8212 28.7597 75.8813 28.7296 75.8914 28.7246L75.9615 28.6795C76.0617 28.6093 76.1219 28.5342 76.2121 28.444C76.3474 28.3087 76.3624 28.3738 76.4927 28.2385L76.6831 28.0832C76.8435 27.9379 76.8034 28.0381 76.9687 27.9278H77.0038C77.0639 27.8978 77.104 27.8928 77.1591 27.8577C77.2042 27.8326 77.2143 27.8126 77.2644 27.7775L77.3395 27.7023L77.4498 27.6272C77.4949 27.6071 77.5149 27.6021 77.555 27.5821C77.6252 27.552 77.5801 27.567 77.6552 27.532C77.7354 27.4919 77.7705 27.4869 77.8607 27.4768C77.9008 27.4518 77.8657 27.4568 77.9409 27.4418C77.9509 27.4418 77.996 27.4368 78.011 27.4368C78.0962 27.4368 78.1112 27.4518 78.1614 27.4768C78.2515 27.6973 77.9759 27.9579 77.8557 28.1132L77.8256 28.1533C77.7655 28.2435 77.8657 28.1834 77.7454 28.2686C77.7053 28.3688 77.7655 28.3087 77.6552 28.439L77.3395 28.91C77.1992 29.0603 77.3095 29.0503 77.1441 29.1656C77.109 29.2207 77.079 29.2357 77.0589 29.2858C76.9387 29.5464 76.9587 29.3961 76.7883 29.6316C76.7833 29.6366 76.7783 29.6466 76.7733 29.6516L76.5328 29.9623C76.4776 30.0776 76.5729 29.8972 76.5177 30.0174C76.4526 30.1527 76.5779 29.9122 76.4827 30.0726C76.3724 30.258 76.5979 30.5436 76.6079 30.6538C76.628 30.9896 76.5628 30.6939 76.6681 31.0297L76.6781 31.0647C76.7432 31.4055 76.7182 31.2151 76.8284 31.5157C76.8735 31.646 76.8785 31.5859 76.9336 31.6661L77.0589 32.0369C77.0539 32.4478 76.8885 32.4378 77.0389 32.7585V32.7935L77.1291 33.3097C77.1341 33.3347 77.1341 33.3397 77.1441 33.3648C77.2844 33.7106 77.1391 33.4299 77.2443 33.8158C77.2594 33.8709 77.2293 33.8008 77.2594 33.8809V33.916L77.3546 34.5825C77.3997 34.9733 77.3796 34.7729 77.4999 35.0134L77.565 35.2289V35.264C77.55 35.4293 77.5199 35.4193 77.565 35.5246V35.5596C77.57 35.6047 77.5851 35.715 77.5851 35.72C77.5951 35.7601 77.5851 35.72 77.6101 35.7801C77.6152 35.7851 77.6202 35.7951 77.6252 35.8052C77.6953 35.9655 77.6452 35.9405 77.6703 36.0657L77.7254 36.2612C77.7254 36.2662 77.7304 36.2762 77.7304 36.2812L77.7404 36.5268C77.7354 36.7923 77.8256 36.8324 77.8908 37.0479L77.9409 37.1782C78.006 37.3436 77.9258 37.3085 77.991 37.4638L78.021 37.5089C78.0411 37.7745 78.0511 37.6492 78.1012 37.8046C78.1112 37.8396 78.1162 37.8898 78.1162 37.8948L78.5071 38.8569C78.6123 38.932 78.5372 38.8769 78.5773 38.9772L78.8028 39.4532C78.908 39.5284 78.8328 39.4532 78.8679 39.5534L79.0032 39.799C79.0132 39.824 79.0233 39.8491 79.0283 39.8741V40.0996C79.0032 40.2499 78.9381 40.3702 78.9331 40.4003C78.908 40.5857 78.9932 40.4604 78.8829 40.731C78.8579 40.7861 78.8629 40.8012 78.8579 40.8262C78.8479 40.9114 78.8779 40.8863 78.8378 40.9866C78.4921 41.1519 78.7627 40.9715 78.5522 41.2171C78.5522 41.2221 78.5422 41.2271 78.5422 41.2321L78.447 41.3023C78.4119 41.3323 78.3919 41.3574 78.3919 41.3574C78.3868 41.3624 78.3768 41.3724 78.3718 41.3774C78.2415 41.4927 78.1162 41.5779 78.0361 41.7432C78.0361 41.7482 78.0311 41.7583 78.0311 41.7633C78.001 41.8234 77.996 41.8084 77.9509 41.8585C77.9008 41.9136 77.9308 41.8735 77.9008 41.9186C77.8958 41.9236 77.8958 41.9337 77.8908 41.9387C77.7454 42.1742 77.6853 42.2293 77.4548 42.3395C77.4498 42.3446 77.4348 42.3496 77.4297 42.3546C77.4247 42.3596 77.4147 42.3646 77.4047 42.3696L77.3596 42.3997C77.1692 42.5049 76.8234 42.5099 76.628 42.4197H76.5929L76.0617 42.1742C76.0567 42.1742 76.0467 42.1692 76.0417 42.1692C76.0367 42.1692 76.0267 42.1642 76.0216 42.1591C75.9816 42.1441 76.0116 42.1541 75.9565 42.1191L75.8162 42.0389C75.7561 42.0088 75.711 41.9988 75.6609 41.9737L75.5857 41.8986H75.5506L75.4404 41.8234H75.4053C75.0044 41.628 75.3051 41.7382 74.7488 41.6981C74.6586 41.6931 74.2578 41.648 74.2277 41.7583C74.1475 42.0339 74.2528 41.8084 74.1124 42.104L74.0724 42.2042C74.0373 42.2944 73.9521 42.3646 73.8669 42.4197H73.8318C73.5813 42.54 73.436 42.4748 73.2906 42.3646C73.2856 42.3596 73.2756 42.3546 73.2706 42.3496L73.1603 42.2744L73.0852 42.1992C73.02 42.1692 72.9649 42.1541 72.8998 42.1241H72.8647L72.3886 42.0289C71.9928 42.0339 72.0679 41.9136 71.9276 41.9737H71.8926L71.1509 41.8384C71.1459 41.8384 71.1209 41.8234 71.1158 41.8234L70.5797 41.6781C70.5446 41.653 70.5797 41.6731 70.5095 41.638C70.4945 41.633 70.4494 41.6129 70.4293 41.6029H70.3943C70.3291 41.5729 70.274 41.5578 70.2089 41.5278H70.1738C70.1287 41.5027 70.0936 41.4977 70.0435 41.4726C69.9232 41.4125 70.0535 41.4526 69.9182 41.4125L69.3971 41.2071C69.357 41.192 69.352 41.182 69.3119 41.1569H69.2768C69.2317 41.1369 69.2167 41.1319 69.1716 41.1118C69.1114 41.0818 69.1415 41.0968 69.0714 41.0617C68.9761 41.0166 68.9561 41.0066 68.8709 40.9615L68.4901 40.7811L68.2646 40.6308H68.3397L68.2295 40.5556H68.1894C68.1443 40.5256 68.1193 40.4955 68.0842 40.4754L67.5781 40.1898C67.4027 40.0495 67.558 40.1698 67.3977 40.1046C67.3826 40.1397 67.3776 40.1848 67.3776 40.1898C67.3626 40.2249 67.3826 40.1948 67.3476 40.2449C67.2373 40.4303 67.3576 40.265 67.2574 40.6208C67.2173 40.7561 67.2373 40.7861 67.2323 40.9715L67.2373 41.1419C67.2624 41.2772 67.3125 41.1068 67.2473 41.2622V41.2973C67.3425 41.4977 67.3325 42.8958 67.2574 43.1614L67.102 43.928C67.082 43.9882 67.092 43.9331 67.082 43.9832C67.0218 44.3089 67.0519 44.0182 67.0068 44.2087C66.9818 44.2989 67.0619 44.2387 66.9367 44.4342C66.8765 44.5294 66.8966 44.4241 66.7062 44.6446C66.6961 44.6546 66.6059 44.7799 66.4556 44.84C66.4506 44.84 66.4406 44.8451 66.4356 44.8451L66.0497 45.0455C66.2351 45.3211 65.9745 45.1758 66.1599 45.3061C66.3504 45.7671 66.3754 45.6568 66.4807 45.9124C66.4957 45.9425 66.4756 45.9174 66.5057 45.9675C66.5057 45.9675 66.5458 46.0176 66.5558 46.0277C66.6811 46.2181 66.6861 46.2983 66.7613 46.3484L66.8966 46.5839C66.9367 46.644 66.9016 46.5839 66.9467 46.649C67.1622 46.8044 66.8465 46.644 67.0569 46.7994C67.1171 46.9397 67.0118 46.8545 67.1772 47.0148C67.4578 47.2854 67.1622 47.095 67.3826 47.4057C67.3826 47.4107 67.3927 47.4157 67.3927 47.4207L67.4177 47.4458C67.4879 47.526 67.3776 47.4608 67.5029 47.551L67.7384 47.8968C67.7384 47.9018 67.7434 47.9118 67.7434 47.9168C67.7434 47.9218 67.7484 47.9319 67.7484 47.9369L68.0742 48.5933C68.0792 48.5983 68.0842 48.6083 68.0892 48.6133C68.1142 48.6534 68.1142 48.6635 68.1243 48.6885C68.1243 48.6935 68.1293 48.7035 68.1293 48.7086L68.2195 48.899C68.2245 48.904 68.2295 48.914 68.2295 48.924L68.8859 49.9763C68.8859 49.9814 68.896 49.9864 68.901 49.9864C68.901 49.9914 68.911 49.9964 68.916 49.9964L69.0012 50.1016L69.3269 50.5576C69.3269 50.5626 69.3369 50.5676 69.3369 50.5727C69.3369 50.5777 69.347 50.5827 69.352 50.5827L69.4522 50.7029C69.5073 50.7881 69.5123 50.7731 69.5775 50.8433C69.7278 51.0186 69.5524 50.8282 69.6376 50.9735C69.6677 51.0287 69.7228 51.0487 69.7579 51.1038C69.833 51.2291 69.6476 51.0938 69.828 51.2241L69.9032 51.2993L69.9783 51.3744L70.0986 51.4446C70.1437 51.4746 70.1537 51.5047 70.1938 51.5298C70.284 51.5799 70.2339 51.4947 70.3842 51.645C70.4945 51.7603 70.5696 51.9858 70.6548 52.0509C70.6749 52.081 70.6899 52.106 70.71 52.1461C70.735 52.1912 70.72 52.1812 70.745 52.2213C70.7901 52.3015 70.7751 52.2514 70.8052 52.3065C70.8052 52.3115 70.8102 52.3215 70.8152 52.3265C70.9004 52.5169 71.2461 52.9078 71.3313 53.008C71.3965 53.0882 71.2812 53.013 71.4065 53.1032L71.5869 53.3738C71.622 53.4239 71.6671 53.444 71.6971 53.4891C71.7723 53.5893 71.6971 53.5442 71.8274 53.6945L71.9076 53.8348C71.9226 53.8599 71.9577 53.895 71.9627 53.895C71.9878 53.925 71.9878 53.925 72.0078 53.9551L72.083 54.0553C72.083 54.0603 72.093 54.0653 72.093 54.0704L72.2233 54.2357C72.2834 54.3209 72.2032 54.2758 72.2985 54.386L72.4588 54.5815C72.4588 54.5865 72.4688 54.5915 72.4688 54.5965L72.5039 54.6667C72.544 54.7218 72.564 54.7218 72.6091 54.7519C72.6843 54.8621 72.7344 54.8721 72.8096 55.0024L72.99 55.253C72.99 55.258 72.995 55.268 72.995 55.268L73.2455 55.6488C73.461 55.8042 73.1453 55.6438 73.3558 55.7992C73.3808 55.8392 73.4059 55.8543 73.4209 55.8843L73.4911 56.0347C73.5312 56.0948 73.4961 56.0347 73.5412 56.0998C73.7416 56.2451 73.4811 56.0748 73.6414 56.2602C73.6665 56.2902 73.6965 56.3053 73.7166 56.3353C73.7466 56.3804 73.7366 56.3804 73.7466 56.4105C73.7917 56.5207 73.8168 56.4907 73.8669 56.5608C73.9872 56.7262 73.7567 56.5608 73.9521 56.7011L74.2528 57.1521C74.3079 57.2323 74.3179 57.2273 74.378 57.3275L74.5735 57.6132C74.5735 57.6182 74.5785 57.6282 74.5835 57.6332C74.5835 57.6382 74.5885 57.6482 74.5935 57.6532L74.6536 57.7885C74.6586 57.8086 74.6687 57.8637 74.6837 57.8888C74.8641 58.2295 74.8491 58.1143 75.0144 58.2345C75.0746 58.2746 75.0144 58.2395 75.0796 58.2846H75.1146C75.1597 58.3147 75.1848 58.3448 75.2199 58.3648C75.3602 58.445 75.1648 58.3247 75.295 58.3899C75.3552 58.4199 75.3852 58.47 75.4554 58.5151C75.5406 58.6404 75.6709 58.7156 75.736 58.8308L75.8563 59.0112C76.0066 59.1716 75.8713 59.0513 75.9365 59.1616C75.9816 59.2367 76.0968 59.2968 76.1369 59.387L76.2321 59.5875C76.2321 59.5925 76.2371 59.6025 76.2421 59.6025L76.5077 59.9884C76.5077 59.9934 76.5127 60.0034 76.5127 60.0034L76.7432 60.4694C76.7432 60.4744 76.7482 60.4845 76.7482 60.4895L76.8936 60.8453C76.9036 60.9254 76.8685 60.8904 76.9086 60.9856C76.7182 60.9856 76.8485 60.9856 76.7984 61.0206C76.7533 61.0407 76.7382 61.0457 76.6931 61.0657C76.6129 61.1008 76.6881 61.0708 76.618 61.1058C76.5628 61.1359 76.5127 61.1509 76.4626 61.176H76.4275C76.3474 61.2111 76.3073 61.2161 76.2471 61.2311C76.2421 61.2311 76.2321 61.2361 76.2271 61.2361C76.2221 61.2361 76.2121 61.2411 76.2071 61.2411L75.7861 61.3263H75.7511C75.5907 61.2612 75.7661 61.3263 75.6308 61.3363C75.6258 61.3363 75.6157 61.3363 75.6107 61.3363L75.5005 61.3313C75.4554 61.3363 75.5255 61.3714 75.4153 61.3263H75.3802C75.2048 61.3965 75.3652 61.2562 75.1948 61.3263H75.1597C75.0695 61.2862 75.1397 61.2862 75.0495 61.3263C75.0094 61.3013 75.0445 61.3113 74.9693 61.2912C74.9192 61.2812 74.9543 61.2912 74.8992 61.2862C74.7739 61.2662 74.8541 61.3013 74.7488 61.2512H74.7138H74.6787H74.6436C74.5534 61.2161 74.5233 61.2411 74.383 61.176H74.348L73.4109 60.8753C73.4059 60.8703 73.3909 60.8653 73.3858 60.8603L73.2906 60.8052C72.9549 60.6298 73.1453 60.6999 72.9599 60.5747C72.8948 60.4744 72.7895 60.4293 72.7244 60.1788C72.6442 59.8831 72.7043 59.6677 72.6693 59.4021L72.6442 59.0663C72.6442 59.0212 72.6442 59.0212 72.6392 58.9711C72.6392 58.9511 72.6292 58.891 72.6242 58.8509C72.4889 58.7557 72.6192 58.8709 72.544 58.6755C72.544 58.6705 72.529 58.6655 72.529 58.6504C72.529 58.6354 72.5189 58.6354 72.5139 58.6254L72.4788 58.5502C72.2834 58.4099 72.5139 58.5753 72.3937 58.4099C72.3686 58.3748 72.2884 58.2946 72.2483 58.2546L72.0279 57.9539C71.9026 57.8637 72.0078 57.9489 71.9627 57.8537C71.9076 57.7434 71.8775 57.8086 71.7372 57.553C71.7021 57.4829 71.6871 57.4929 71.637 57.4428C71.5468 57.3375 71.622 57.4378 71.5919 57.3476C71.5518 57.2524 71.4917 57.2323 71.3915 57.097L71.1459 56.7663C71.0808 56.6009 71.0357 56.641 70.9405 56.4957C70.9405 56.4907 70.9355 56.4807 70.9304 56.4807C70.9004 56.4255 70.9755 56.4656 70.8603 56.3854L70.7651 56.2251C70.7551 56.195 70.7801 56.2201 70.725 56.1499L70.4143 55.7841L70.3041 55.6338C70.1187 55.5035 70.3642 55.6438 70.1838 55.4534L69.9383 55.1577C69.9383 55.1527 69.9333 55.1427 69.9282 55.1377C69.8831 55.0676 69.833 55.0425 69.7779 54.9573C69.5975 54.827 69.833 54.9673 69.6576 54.7769L69.2167 54.2808L69.0313 54.0553C68.8759 53.9501 68.9511 53.9701 68.8709 53.8749L68.7456 53.7096C68.6905 53.6544 68.6655 53.6294 68.6153 53.5793C68.465 53.4289 68.2646 53.1934 68.0992 53.0832L68.0341 53.0381C68.0291 53.0331 68.024 53.0281 68.019 53.0231C67.8537 52.8677 67.9288 52.993 67.8336 52.8527L67.7585 52.7775C67.6482 52.6973 67.6983 52.7023 67.6983 52.6973L67.6081 52.6272C67.4979 52.547 67.548 52.552 67.548 52.547L67.4578 52.4768L67.2674 52.2514C67.0569 52.0659 67.2574 52.2614 67.1471 52.111L66.4756 51.4346C66.4406 51.4045 66.4305 51.3945 66.3955 51.3644C66.3203 51.2892 66.3003 51.2592 66.2201 51.2041L66.1098 51.1289L65.8493 50.9034C65.7841 50.9986 65.7791 50.9635 65.729 51.0838C65.6689 51.2291 65.6789 51.2892 65.6789 51.4346C65.6789 51.5248 65.6939 51.4847 65.6488 51.5999L65.5336 51.8655C65.5336 51.8705 65.5286 51.8805 65.5286 51.8855C65.5286 51.8906 65.5235 51.9006 65.5235 51.9056L65.3281 52.2514C65.263 52.4167 65.4133 52.2012 65.1928 52.4919L64.9773 52.8427C64.9423 52.8877 64.8972 52.9078 64.8721 52.9529C64.817 53.0481 64.9172 53.023 64.7268 53.1483L64.4762 53.474C64.4412 53.5342 64.4662 53.4991 64.4211 53.5492C64.376 53.5993 64.3359 53.6294 64.2858 53.6795C63.8348 54.1305 63.5041 54.3209 63.5091 54.7118L63.8048 55.3031C63.8398 55.4484 63.7296 55.3331 63.8699 55.4333L63.92 55.5737C63.9952 55.6989 63.9601 55.6889 64.0353 55.9044C64.1054 56.1098 64.1205 56.0196 64.1154 56.19C64.1154 56.2 64.1154 56.2602 64.1154 56.2652C64.1555 56.4105 64.1706 56.195 64.1906 56.4506C64.1956 56.5558 64.1355 56.4706 64.2507 56.5508C64.3059 56.6861 64.1906 56.6911 64.4011 56.8865L64.8471 57.3025C64.8521 57.3075 64.8671 57.3125 64.8721 57.3175L65.1327 57.5079C65.1377 57.5129 65.1778 57.5029 65.2479 57.6081C65.3031 57.6983 65.1928 57.553 65.273 57.6633L65.4083 57.7935C65.5887 57.984 65.3431 57.8386 65.5286 57.9739C65.5787 58.0541 65.6588 58.1042 65.6889 58.1694C65.734 58.2696 65.6538 58.1493 65.724 58.2646C65.739 58.2896 65.7641 58.3097 65.7891 58.3498L65.9044 58.4801C65.9044 58.4851 65.9144 58.4901 65.9144 58.4951C65.9144 58.5001 65.9194 58.5101 65.9244 58.5101L66.2301 59.1265C66.4055 59.6426 66.3303 59.7027 66.0497 59.8781C66.0046 59.9082 65.9946 59.9232 65.9445 59.9583H65.9094C65.8593 59.9834 65.8543 59.9784 65.8042 60.0034L65.6939 60.0485C65.6889 60.0485 65.6789 60.0535 65.6739 60.0535C65.6689 60.0535 65.6588 60.0585 65.6538 60.0585L65.5035 60.1137C65.4534 60.1337 65.3933 60.1587 65.3482 60.1838H65.3131L65.2028 60.259H65.1678C65.1026 60.289 65.0475 60.3041 64.9824 60.3341H64.9473C64.6266 60.4895 64.3009 60.5346 64.2357 60.5596H64.2006C64.1104 60.5947 64.0804 60.5697 63.9401 60.6348H63.905C63.8398 60.6649 63.7847 60.6799 63.7196 60.71H63.6845L63.3588 60.8352C63.3538 60.8352 63.3438 60.8402 63.3387 60.8402L63.1233 60.9304H63.0882L62.6673 61.0657C62.6623 61.0657 62.6522 61.0708 62.6472 61.0708C62.6422 61.0708 62.6322 61.0758 62.6272 61.0758L62.5921 61.0908C62.5871 61.0908 62.5771 61.0958 62.5721 61.0958L62.1812 61.2061C62.096 61.2211 62.1712 61.191 62.076 61.2311H62.0409C61.9507 61.2662 61.9206 61.2411 61.7803 61.3063H61.7452H61.7102H61.6751L60.4374 61.6069H60.3221H60.287H60.2519C60.1517 61.647 59.9964 61.627 59.7709 61.652L58.7637 61.7472C58.6534 61.7773 58.7336 61.7973 58.6434 61.7573H58.6083L58.002 61.8525C57.9068 61.8675 57.8667 61.8124 57.6763 61.9076H57.6412C57.4909 61.8424 57.6462 61.8825 57.5209 61.9176L57.0699 61.9677C56.9948 61.9828 57.105 61.9577 57.0148 61.9878L55.8723 62.113C55.7971 62.113 55.747 62.093 55.6568 62.1331H55.6218C55.5316 62.093 55.6017 62.093 55.5115 62.1331H55.4764H55.4113H55.3762C55.286 62.1732 55.3562 62.1732 55.266 62.1331H55.2309C55.1307 62.1732 55.2058 62.1381 55.1257 62.1581C55.1207 62.1581 55.0004 62.1882 55.0004 62.1882C54.9102 62.2032 54.9202 62.1682 54.82 62.2083H54.7849C54.6997 62.2433 54.6596 62.2233 54.5193 62.2433L54.3239 62.2784C54.1636 62.3335 54.2187 62.2934 54.0283 62.3135L53.4921 62.3486C53.462 62.3536 53.3317 62.3736 53.3167 62.3736C53.2315 62.3786 52.8056 62.3586 52.6502 62.4338H52.6051H52.57H52.535C52.4849 62.4538 52.4899 62.4488 52.4498 62.4538C52.1842 62.5089 52.079 62.4638 51.9737 62.5089H51.9387C51.8485 62.4688 51.9186 62.4688 51.8284 62.5089H51.7933H51.7583H51.7031C51.6129 62.549 51.6831 62.549 51.5929 62.5089H51.5528C51.3824 62.5791 51.1118 62.4538 50.8412 62.5841H50.8062C50.7059 62.6242 50.4805 62.5791 50.3201 62.6592H50.285C50.1998 62.6242 50.2499 62.6342 50.0996 62.6592L49.3029 62.7545C49.1976 62.7745 49.0373 62.7845 48.9721 62.8096H48.9371H48.897H48.8619C48.7867 62.8396 48.6414 62.8346 48.5061 62.8346C48.3808 62.8346 48.2255 62.8396 48.1503 62.8096H48.1153H48.0802H48.0451C47.9298 62.7645 48.005 62.8196 47.8647 62.7645C47.7545 62.7244 47.8797 62.7595 47.7745 62.7194L47.529 62.6693C47.524 62.6693 47.5139 62.6643 47.5089 62.6592L47.3335 62.5791H47.2985C47.2433 62.554 47.1982 62.539 47.1431 62.5139L47.0228 62.4438C47.0178 62.4338 47.0078 62.4338 46.9978 62.4287L46.7823 62.3385C46.5618 62.2784 46.196 62.1181 45.9856 62.098C45.735 62.073 44.1716 62.0429 43.9661 62.1331H43.931H43.896H43.8358C43.7456 62.1732 43.8158 62.1732 43.7256 62.1331C43.6905 62.1581 43.7306 62.1531 43.6304 62.1832C43.5352 62.2133 43.6053 62.1882 43.5652 62.1882C43.4851 62.1932 43.5201 62.1682 43.4249 62.2032H43.3899H43.3548H43.3197C43.2195 62.2433 43.0391 62.2133 42.9088 62.2784H42.8687C42.8587 62.2734 42.8336 62.2684 42.8236 62.2684C42.8186 62.2684 42.8086 62.2684 42.8036 62.2684L42.7635 62.2834C42.7585 62.2834 42.7484 62.2884 42.7434 62.2934C42.7434 62.2934 41.8515 62.3686 41.7062 62.4338H41.6711H41.636C41.6009 62.4588 41.626 62.4488 41.5558 62.4688C41.5508 62.4688 41.4656 62.4839 41.4656 62.4839C41.3554 62.4989 41.4356 62.4638 41.3353 62.5089H41.3003H41.2652H41.2301C41.1299 62.549 41.205 62.5139 41.1249 62.534C41.1199 62.534 41.0447 62.554 41.0247 62.559C40.8793 62.5891 40.5536 62.6091 40.4434 62.6592H40.4083L39.2457 62.8096H39.2107H39.1756H39.1405C38.9802 62.8747 38.4039 62.8346 38.2786 62.8847H38.2435H38.2085H38.1734C38.0631 62.9298 37.9479 62.8697 37.7625 62.9599H37.7274C37.7174 62.9549 37.6923 62.9499 37.6823 62.9499L37.3616 63H37.0259C36.9657 62.995 36.9106 62.985 36.8655 62.9649H36.8304C36.7302 62.9148 36.5899 62.9098 36.5398 62.9098L36.4696 62.8998C36.3494 62.8647 36.4897 62.8296 36.3494 62.8898H36.2692C36.184 62.8547 36.0888 62.8697 35.9886 62.8647H35.8132C35.6979 62.8647 35.7631 62.8697 35.6629 62.8597C35.4925 62.8447 34.9563 62.8847 34.811 62.8146H34.7759H34.7408H34.7058L34.4201 62.7244C34.4201 62.7244 34.345 62.7094 34.3299 62.7094C34.1245 62.6893 33.924 62.7094 33.8489 62.7394H33.8138C33.6584 62.8447 33.7587 62.7595 33.6284 62.8146H33.5933C33.5382 62.8396 33.5682 62.8246 33.5282 62.8346C33.5181 62.8346 33.473 62.8447 33.463 62.8447C33.3678 62.8447 33.3979 62.8497 33.3277 62.8146H33.2926L33.2175 62.7394C33.1624 62.6643 33.1924 62.6592 33.2325 62.559C33.2325 62.554 33.2375 62.544 33.2375 62.539L33.3027 62.4287C33.3678 62.3035 33.2626 62.4738 33.3227 62.3786L33.5532 62.1381C33.6735 62.0279 33.7286 61.9226 33.7436 61.7673C33.4781 61.657 32.3255 61.7122 32.07 61.7723L31.9848 61.7673H31.9497C31.8495 61.8074 31.3233 61.7673 31.1179 61.8374L30.3211 61.8675C30.256 61.8625 30.1958 61.8775 30.1157 61.8424H30.0806L29.7098 61.7272C29.5845 61.6921 29.6797 61.7172 29.6045 61.6921L29.369 61.622H29.3039C29.2387 61.5919 29.1836 61.5769 29.1185 61.5468H29.0834L28.8278 61.4666C28.6574 61.3915 28.6975 61.4466 28.447 61.3263H28.4019L28.2916 61.2512H28.2516C28.2065 61.2311 28.1012 61.186 28.0511 61.166L27.6101 60.9505C27.5751 60.9254 27.6101 60.9455 27.54 60.9104C27.525 60.9054 27.4799 60.8853 27.4598 60.8753H27.4247L27.0138 60.6498C26.9788 60.6248 27.0138 60.6448 26.9437 60.6097C26.9286 60.6047 26.8835 60.5847 26.8635 60.5747H26.8284L26.5027 60.3993C26.4977 60.3993 26.4877 60.3943 26.4827 60.3893L26.2772 60.2289L26.2672 60.2189C26.2672 60.2189 26.2572 60.2089 26.2572 60.2038L26.2321 60.1788C26.2271 60.1738 26.2221 60.1688 26.2171 60.1688C25.9565 59.9834 26.1068 60.0686 25.9415 59.9282L25.7811 59.828L25.706 59.7529L25.5556 59.6025L25.4805 59.5274C25.3802 59.4572 25.4303 59.4672 25.4153 59.4472C25.4153 59.4422 25.4053 59.4372 25.4053 59.4321L24.8791 58.926L24.804 58.8509L24.5033 58.5502C24.363 58.4851 24.4532 58.5602 24.353 58.455C24.1826 58.2746 24.2728 58.4149 24.2026 58.2495C24.0824 58.1644 24.1826 58.2546 24.1425 58.1644C24.1275 58.1343 24.1475 58.1543 24.1175 58.1092C23.9471 57.8487 24.0423 58.0792 23.8268 57.6783L23.6665 57.3576C23.6615 57.3526 23.6564 57.3426 23.6514 57.3375C23.6464 57.3325 23.6414 57.3225 23.6414 57.3175L23.456 56.8966V56.8615C23.4309 56.8264 23.4259 56.8164 23.3909 56.7713L23.3207 56.4456C23.3157 56.2752 23.2055 56.0798 23.1754 56.0096C23.1654 55.9896 23.1654 55.9745 23.1403 55.9345C23.1153 55.8944 23.1403 55.9545 23.1052 55.8793C23.0601 55.7791 23.1654 55.8693 23.0401 55.7791C23.0952 55.6388 23.0401 55.744 23.02 55.6188C23.02 55.6087 23.02 55.5887 23.02 55.5837C23.015 55.5035 23.005 55.3983 23 55.288V55.0726C23.005 54.9874 23.015 54.9072 23.0401 54.842C23.0752 54.7418 23.0451 54.8721 23.0752 54.7268C23.2355 54.7919 23.2606 54.6917 23.2606 54.6917C23.5763 54.4813 23.6013 54.3259 23.6314 54.2708C23.7266 54.1104 23.6314 54.381 23.7667 54.0253C23.7667 54.0202 23.7717 54.0102 23.7717 54.0102C23.7717 54.0052 23.7817 54.0002 23.7817 53.9952L23.897 53.8649L23.9721 53.7897H24.0072L24.2828 53.6143C24.343 53.5743 24.2828 53.6093 24.348 53.5642L24.4582 53.4891L24.5334 53.4139L24.7539 53.2435C25.0345 53.023 24.7789 53.2034 24.9894 52.9729C25.1898 52.7525 25.0345 52.9379 25.1547 52.7274C25.1598 52.7224 25.1648 52.7124 25.1698 52.7074C25.2399 52.5721 25.255 52.2514 25.29 52.2213C25.4153 52.096 25.29 52.2213 25.3852 52.1862C25.4303 52.1712 25.4303 52.1662 25.4704 52.1361H25.5055C25.5707 52.106 25.6258 52.091 25.6909 52.0609H25.746L26.4576 51.9106H26.4927C26.5729 51.8805 26.5077 51.9056 26.5578 51.8956L26.6731 51.8605C26.8635 51.8254 26.9086 51.8204 27.084 51.7252L27.1792 51.6901C27.3345 51.63 27.3345 51.5999 27.4348 51.5348H27.4698C27.5149 51.5047 27.5149 51.4947 27.555 51.4696L27.8056 51.3093C27.8106 51.3043 27.8256 51.2993 27.8306 51.2943C27.8356 51.2892 27.8507 51.2842 27.8557 51.2792L28.2967 50.8583L28.7076 50.5576H28.7426L29.0032 50.4073L29.0984 50.3522C29.1285 50.3371 29.1285 50.3371 29.1636 50.3221C29.2487 50.292 29.1786 50.3422 29.3039 50.257H29.3389L29.6396 50.1066C29.7047 50.0766 29.7599 50.0615 29.825 50.0315H29.8601L29.9703 49.9563H30.0054L30.1157 49.8811H30.1507L30.2259 49.806C30.281 49.7809 30.3261 49.7659 30.3812 49.7408L30.5215 49.6607C30.5767 49.6256 30.5917 49.5955 30.6418 49.5755C30.9024 49.4602 30.6769 49.5354 30.9224 49.3901L30.9675 49.36L31.1179 49.2097C31.2732 49.1345 31.2231 49.2046 31.3534 49.0694C31.4285 48.9942 31.4486 48.9641 31.5288 48.909C31.5388 48.904 31.5488 48.899 31.5538 48.894C31.7893 48.7537 32.0148 48.4831 32.1652 48.2876L32.2804 48.1774C32.4307 48.0271 32.3656 48.1624 32.4658 48.007L32.8016 47.7815C32.8366 47.7565 32.8016 47.7765 32.8717 47.7414C32.8867 47.7364 32.9318 47.7164 32.9519 47.7064H32.987L33.3628 47.556C33.433 47.526 33.5131 47.531 33.6685 47.5059C33.8088 47.4859 33.7937 47.4708 33.7937 47.3405L33.7737 46.8445V46.8094C33.7186 46.6741 33.6885 46.3684 33.7436 46.203C33.8539 45.8924 33.7436 45.9324 33.8038 45.717C33.8038 45.712 33.8088 45.7019 33.8138 45.6969L33.8489 45.4263V45.3913C33.914 45.2409 33.8188 45.1658 33.894 44.9854C34.0593 44.5695 33.8388 44.9904 33.9942 44.5995C34.0493 44.4642 33.9942 44.4592 34.0243 44.3891C34.0894 44.2387 34.0994 44.3891 34.0944 44.2036L34.2247 43.8178L34.4101 43.2165L34.4452 43.1814V43.1463C34.4602 43.1112 34.4652 43.0712 34.4652 43.0611C34.4803 43.0261 34.4652 43.0561 34.4953 43.006C34.6807 42.6903 34.5304 42.7204 34.6707 42.6202C34.7108 42.5199 34.6657 42.5901 34.6957 42.5149C34.7458 42.4047 34.7007 42.535 34.7559 42.4247C34.826 42.2794 34.7859 42.2343 34.9162 42.0439L35.0766 41.6981C35.2169 41.4526 35.0515 41.653 35.1818 41.4877L35.4173 41.1219L35.6027 40.8212C35.8182 40.6659 35.5025 40.8262 35.713 40.6709L36.0888 40.1447C36.204 39.9743 36.1489 40.1347 36.2642 39.8942C36.3043 39.814 36.4145 39.7488 36.4646 39.6687L36.5097 39.5885C36.5097 39.5835 36.5197 39.5785 36.5248 39.5785L36.645 39.4532C36.7553 39.368 36.7102 39.4482 36.8004 39.3229L36.9507 39.1726L37.101 39.0222L37.2514 38.8719L37.6623 38.5713L37.7374 38.4961C37.7474 38.4911 37.7575 38.4861 37.7625 38.4811L38.2686 37.8697C38.3087 37.7895 38.2736 37.7895 38.2836 37.7394L38.3588 37.6091C38.3638 37.5991 38.3688 37.534 38.3939 37.4638L38.4289 37.3786C38.4289 37.3736 38.434 37.3636 38.434 37.3586L38.6645 36.8675C38.6945 36.8124 38.7045 36.8074 38.7045 36.8074L39.1606 36.3213L39.4211 36.1309C39.797 35.8102 39.5163 35.8904 39.6867 35.6448C39.827 35.4344 39.837 35.5496 40.0174 35.2489C40.0174 35.2489 40.0675 35.1938 40.0776 35.1788C40.0876 35.1688 40.2129 35.0134 40.3482 34.9232L40.6989 34.6727C40.739 34.6476 40.7541 34.6276 40.7841 34.6075L40.8944 34.5624C40.9345 34.5474 40.9044 34.5574 40.9595 34.5223L41.1199 34.4372C41.205 34.4071 41.1349 34.4572 41.2602 34.372H41.2952C41.3454 34.347 41.3654 34.3419 41.4305 34.3169C41.4356 34.3119 41.4456 34.3069 41.4556 34.3069C41.4606 34.3019 41.4706 34.2969 41.4756 34.2969C41.5608 34.2618 41.5608 34.2969 41.7112 34.2267H41.7462C41.9066 34.1515 42.0319 34.2016 42.1221 34.0764C41.8515 34.0513 42.097 34.0864 41.9818 33.9962C41.9767 33.9912 41.9667 33.9862 41.9617 33.9812C41.9567 33.9761 41.9467 33.9711 41.9417 33.9661L41.7663 33.8008C41.7613 33.7958 41.7513 33.7857 41.7462 33.7807L41.4857 33.445L41.3303 33.1543C41.3303 33.1493 41.3253 33.1393 41.3253 33.1343L41.2602 32.9188V32.8837C41.18 32.7685 41.2 32.8086 41.205 32.6883C41.2101 32.4478 41.17 32.2674 41.2602 32.1371C41.2201 32.0469 41.2201 32.1171 41.2602 32.0269V31.9918L41.0647 31.6109C41.0647 31.6059 41.0597 31.5959 41.0597 31.5909L40.9645 31.2802C40.8843 31.165 40.9094 31.16 40.9094 31.0096C40.9094 30.9244 40.9294 30.8493 40.8894 30.7591V30.724L40.739 30.5737C40.7591 30.5286 40.7591 30.5185 40.7841 30.4684C40.8342 30.3582 40.8342 30.4083 40.8342 30.268C40.8292 29.8771 40.8894 29.7869 40.6689 29.7468L40.3281 29.6416C40.293 29.6166 40.3281 29.6366 40.258 29.6015C40.2429 29.5965 40.1978 29.5765 40.1778 29.5664H40.1427C40.0575 29.5314 40.0876 29.5564 39.9874 29.5314L39.8521 29.5013C39.6065 29.4261 39.5664 29.5314 39.5614 29.371L39.5063 27.9178C39.5815 27.7324 39.4913 27.9679 39.4963 27.7775L39.4913 23.6785C39.4913 23.4229 39.6216 23.5181 39.5063 23.4229C39.5765 23.2726 39.5614 23.2275 39.5614 23.1323L39.5815 22.8717C39.5815 22.8667 39.5865 22.8567 39.5865 22.8517L39.7969 21.9146C39.7969 21.9096 39.802 21.8996 39.802 21.8946L39.8621 21.7092C39.9122 21.6039 39.9824 21.4185 40.0625 21.3634L40.2479 21.0176C40.4384 20.6919 40.4334 20.7821 40.5486 20.6117L40.6238 20.5366L40.6839 20.4564C40.6839 20.4514 40.6939 20.4464 40.6939 20.4414C40.6989 20.4364 40.7039 20.4313 40.709 20.4313C40.7891 20.3712 40.7591 20.4414 40.8443 20.3111L40.9946 20.1608L41.195 20.0255C41.2 20.0154 41.2101 20.0154 41.2201 20.0104C41.3303 19.9353 41.3604 19.8701 41.4556 19.7949L41.631 19.6346C41.6961 19.5394 41.7362 19.5344 41.8515 19.4793C41.8765 19.4642 41.9517 19.4342 41.9767 19.4141C42.0218 19.384 42.0319 19.369 42.082 19.3339L42.1922 19.2588C42.2924 19.1936 42.3726 19.0734 42.4428 19.0283C42.6031 18.9381 42.3877 19.1034 42.553 18.9832C42.6081 18.9431 42.6081 18.928 42.6733 18.8779C42.6783 18.8729 42.6933 18.8679 42.6983 18.8629L43.0491 18.6524L43.1243 18.5773L43.2345 18.5021L43.3848 18.3518L43.5352 18.2014C43.7507 18.0461 43.435 18.2065 43.6454 18.0511L43.8308 17.6402C43.906 17.6202 43.891 17.6352 43.9411 17.6051H43.9761C44.0062 17.565 44.0363 17.6753 43.9962 17.5099L43.8008 17.109C43.7657 16.9988 43.8358 17.1642 43.7857 17.0439V17.0088C43.7106 16.8936 43.7206 16.9086 43.7256 16.6831L43.7557 16.5528C43.7557 16.5478 43.7557 16.5378 43.7557 16.5328C43.7557 16.4827 43.7356 16.4225 43.6705 16.3724H43.6855C43.5953 16.3373 43.5652 16.3624 43.4249 16.2973H43.3899C43.2997 16.3373 43.3698 16.3373 43.2796 16.2973H43.2445H43.2095H43.1744C43.024 16.2371 41.3754 16.3223 41.2251 16.2622C41.2301 16.2522 41.2552 16.187 41.2602 16.182C41.3003 16.0968 41.2752 16.1519 41.3003 16.1118C41.3403 16.0517 41.3403 16.0517 41.3704 15.9916C41.5057 15.721 41.5859 15.8212 41.7563 15.6809C41.8615 15.5957 41.6861 15.731 41.7863 15.6408L42.0519 15.5105C42.082 15.4905 42.0669 15.4905 42.1221 15.4704C42.1321 15.4654 42.1622 15.4604 42.1672 15.4604C42.2674 15.4354 42.1221 15.5005 42.2724 15.4404C42.3075 15.5005 42.2724 15.5005 42.3075 15.4404L42.4829 15.3953C42.4879 15.3953 42.5029 15.3903 42.5079 15.3802C42.5129 15.3702 42.5229 15.3702 42.533 15.3652C42.6582 15.28 42.6683 15.275 42.8637 15.2449L42.994 15.2149C43.0892 15.1898 42.9539 15.1547 43.0942 15.2149C43.2746 15.0996 43.2395 15.2499 43.6204 15.0645C43.6254 15.0595 43.6354 15.0495 43.6404 15.0445C43.7807 14.8942 43.7005 14.358 43.7156 13.9822C43.7256 13.7316 43.6805 13.927 43.7707 13.7617C43.901 13.5211 43.8809 13.5412 44.1465 13.4159C44.2067 13.3758 44.1064 13.4259 44.2167 13.3758C44.2267 13.3708 44.2618 13.3608 44.2718 13.3558C44.2969 13.3458 44.367 13.3257 44.387 13.3157C44.5324 13.2706 44.5073 13.3007 44.5975 13.2656L44.6476 13.2405C44.823 13.1804 44.7879 13.2455 44.9633 13.1854L44.9984 13.1754C45.0585 13.1604 45.1938 13.1904 45.3442 13.1153H45.3792H45.4143H45.4494L46.3263 13.015C46.3614 13.005 46.4065 13.005 46.4566 13ZM33.1974 62.7294V62.6943L33.2425 62.7244L33.1974 62.7294Z" fill="white" fill-opacity="0.85"/>
</svg>
