<svg width="100" height="80" viewBox="0 0 100 80" fill="none" xmlns="http://www.w3.org/2000/svg">
<path fill-rule="evenodd" clip-rule="evenodd" d="M56.5452 13.1851H56.5822L56.5513 13.2283L56.5452 13.1851ZM56.465 13.2591H56.502L56.4711 13.3023L56.465 13.2591ZM59.519 13.2591V13.2962L59.4758 13.2653L59.519 13.2591ZM55.4469 15.3692V15.4062L55.4038 15.3754L55.4469 15.3692ZM60.1236 15.3692V15.4062L60.0805 15.3754L60.1236 15.3692ZM61.6291 16.6093H61.5921L61.6229 16.5661L61.6291 16.6093ZM59.8213 19.4351V19.4721L59.7781 19.4413L59.8213 19.4351ZM51.6402 20.3421H51.6772L51.6464 20.3852L51.6402 20.3421ZM51.5661 20.4161H51.6032L51.5723 20.4593L51.5661 20.4161ZM61.3268 20.4901V20.5271L61.2836 20.4963L61.3268 20.4901ZM48.1357 23.8835V23.9205L48.0926 23.8897L48.1357 23.8835ZM48.6293 24.5622H48.6663L48.6355 24.6054L48.6293 24.5622ZM48.5553 24.6362H48.5923L48.5615 24.6794L48.5553 24.6362ZM60.3087 26.8635V26.8265L60.3519 26.8574L60.3087 26.8635ZM60.3087 26.8635C60.3643 26.9499 60.4013 26.9561 60.4506 27.0239C60.5679 27.1905 60.3396 27.0239 60.537 27.1658L60.6357 27.3263C60.6481 27.3571 60.6357 27.3324 60.6666 27.3818L60.7653 27.6224C60.7962 27.6779 60.7838 27.6409 60.79 27.6841C60.79 27.6903 60.79 27.789 60.79 27.8013C60.79 27.8939 60.79 27.9432 60.79 28.0296L60.7468 28.2394C60.7468 28.2456 60.7406 28.2517 60.7406 28.2579L60.7098 28.3504C60.7098 28.3566 60.7036 28.3628 60.7036 28.369L60.4938 28.844C60.4445 28.9427 60.5555 28.8564 60.426 28.9489C60.1545 29.6091 60.6481 28.696 60.2841 29.1834C60.2656 29.208 60.1915 29.4919 59.9386 29.5104V29.3993C59.9324 29.3931 59.9262 29.3685 59.92 29.3746C59.92 29.3808 59.9077 29.3561 59.9077 29.35C59.8213 29.1463 59.9632 29.1895 59.8275 28.9798V28.9366C59.8954 28.7762 59.8398 28.9427 59.8213 28.8317V28.6836C59.8028 28.4923 59.8954 28.696 59.8275 28.5232V28.4862C59.846 28.4368 59.8398 28.443 59.846 28.3998C59.8522 28.369 59.8583 28.3319 59.8645 28.2579V28.2209C59.9262 28.0666 59.8398 27.8013 59.9015 27.5422L60.0311 27.0795C60.0434 27.0486 60.0249 27.0671 60.0743 27.0054C60.1483 26.9252 60.173 26.9191 60.2347 26.8265L60.3087 26.8635ZM60.537 27.1597V27.1227L60.5802 27.1535L60.537 27.1597ZM45.7604 28.1777H45.7974L45.7665 28.2209L45.7604 28.1777ZM59.9324 29.535L59.9447 29.5474C59.9447 29.5474 59.9324 29.5412 59.9324 29.535ZM62.536 30.1767H62.499L62.5299 30.1335L62.536 30.1767ZM61.9314 31.0837H61.8944L61.9252 31.0405L61.9314 31.0837ZM65.2137 31.0466H65.2507L65.2199 31.0898L65.2137 31.0466ZM44.329 31.2688H44.366L44.3351 31.3119L44.329 31.2688ZM65.2137 31.3428H65.2507L65.2199 31.386L65.2137 31.3428ZM65.2137 31.6451H65.2507L65.2199 31.6883L65.2137 31.6451ZM65.2137 31.9474H65.2507L65.2199 31.9906L65.2137 31.9474ZM62.6101 32.0215V32.0585L62.5669 32.0276L62.6101 32.0215ZM62.9124 32.2498V32.2868L62.8692 32.2559L62.9124 32.2498ZM65.2137 32.2498H65.2507L65.2199 32.2929L65.2137 32.2498ZM65.2137 32.5521H65.2507L65.2199 32.5953L65.2137 32.5521ZM65.2137 32.8544H65.2507L65.2199 32.8976L65.2137 32.8544ZM65.2137 33.1567H65.2507L65.2199 33.1999L65.2137 33.1567ZM65.2137 33.4529H65.2507L65.2199 33.4961L65.2137 33.4529ZM65.2137 33.7552H65.2507L65.2199 33.7984L65.2137 33.7552ZM65.2137 34.0575H65.2507L65.2199 34.1007L65.2137 34.0575ZM65.2137 34.3598H65.2507L65.2199 34.403L65.2137 34.3598ZM65.1335 34.4339H65.1705L65.1397 34.477L65.1335 34.4339ZM41.0898 38.728H41.1269L41.096 38.7712L41.0898 38.728ZM67.2066 40.2767H67.1696L67.2004 40.2335L67.2066 40.2767ZM66.9043 41.7821H66.8672L66.8981 41.7389L66.9043 41.7821ZM69.2056 42.2757H69.2426L69.2118 42.3189L69.2056 42.2757ZM69.619 42.3867H69.5819L69.6128 42.3435L69.619 42.3867ZM38.3751 44.6078H38.4121L38.3813 44.651L38.3751 44.6078ZM69.9953 44.8731H69.9583L69.9891 44.83L69.9953 44.8731ZM69.7732 44.9472H69.7362L69.767 44.904L69.7732 44.9472ZM69.3166 45.1014H69.2796L69.3105 45.0582L69.3166 45.1014ZM58.6552 45.6259V45.5888L58.6984 45.6197L58.6552 45.6259ZM69.0205 45.6629V45.6999L68.9773 45.6691L69.0205 45.6629ZM58.3529 46.4958V46.5328L58.2912 46.7488C58.2789 46.9277 58.2542 47.2547 58.3529 47.3966V47.4336C58.3961 47.5447 58.3529 47.5323 58.3776 47.6125C58.4084 47.7113 58.3838 47.6125 58.4208 47.7051C58.4516 47.7791 58.501 47.8778 58.4948 47.958L58.3529 48.3036C58.285 48.3529 58.3159 48.3344 58.2974 48.3714C58.2665 48.4393 58.3159 48.3714 58.248 48.464C58.1925 48.5503 58.1617 48.6244 58.0876 48.6799C58.0383 48.7169 58.1678 48.7169 57.9766 48.7169C58.0259 48.8403 57.9827 48.9946 57.9889 49.0686C58.0012 49.1673 57.9272 49.118 58.0876 49.1303C58.0876 49.2105 58.0876 49.2537 58.0753 49.3277C58.0629 49.3894 58.0876 49.3771 58.0136 49.4326L57.7483 50.1113L57.52 50.4877L57.446 50.5617L57.2979 50.7283C57.1745 50.8455 57.2855 50.8208 57.1066 50.9381L56.9585 51.0861L56.8105 51.2342L56.6624 51.3823L56.539 51.4872L56.5267 51.4995L56.4033 51.6044L56.3292 51.6784L56.1811 51.8265L55.8356 52.1597C55.7616 52.2275 55.7616 52.209 55.7061 52.2522L55.2433 52.6594L54.978 52.8877C54.8361 52.9803 54.8361 53.042 54.6942 53.1345L54.6264 53.1839C54.6202 53.19 54.614 53.2024 54.6079 53.2085L53.8613 54.0476C53.7934 54.1957 53.7934 54.0415 53.7749 54.2451C53.6824 54.3129 53.6515 54.5597 53.6515 54.6893C53.6515 55.0842 53.6454 54.6955 53.7256 54.9484C53.7749 55.115 53.6145 55.0656 53.5898 55.0718H53.5528C53.4788 55.1027 53.3986 55.0965 53.269 55.0965C53.1641 55.0965 52.9667 55.1212 52.9112 55.1459H52.8741C52.7754 55.189 52.8433 55.1644 52.7507 55.1644L51.8314 55.2692C51.7759 55.2754 51.7266 55.2693 51.6957 55.2816C51.6464 55.2939 51.6278 55.3309 51.5538 55.3001H51.5168C51.27 55.4173 51.0047 55.3248 50.8751 55.3741H50.8381C50.7456 55.4112 50.8196 55.4112 50.7271 55.3741H50.69C50.5851 55.4173 50.6592 55.3865 50.5666 55.3926C50.4988 55.3926 50.5234 55.3988 50.4247 55.405C50.2273 55.4235 50.1348 55.4112 50.0484 55.4482H50.0114H49.9743H49.9373H49.9003H49.8633C49.7707 55.4852 49.8448 55.4852 49.7522 55.4482H49.7152C49.6227 55.4852 49.6165 55.4605 49.5363 55.4729L48.7712 55.5284H48.7342C48.6293 55.5346 48.6355 55.5469 48.5738 55.5469L47.4941 55.6024H47.4571C47.3645 55.6394 47.4386 55.6394 47.346 55.6024H47.309C47.0992 55.6888 45.6 55.6456 45.3161 55.6518C45.2359 55.6518 45.2298 55.6579 45.1496 55.6579C45.1064 55.6579 45.0508 55.6518 45.02 55.6579C44.8287 55.6888 45.0323 55.7505 44.8596 55.6765H44.8226C44.6868 55.732 44.6868 55.6518 44.4709 55.7382C44.4647 55.7382 44.4524 55.7443 44.4462 55.7505C44.3537 55.7135 44.4277 55.7135 44.3351 55.7505H44.2981L43.5331 55.8986C43.4405 55.9294 43.5639 55.8986 43.459 55.9294L43.1259 56.0528H43.0888C42.9593 56.1145 42.8359 56.0898 42.7495 56.1269H42.7125C42.6138 56.17 41.9536 56.133 41.4415 56.2194L40.7875 56.2749H40.7505C40.6148 56.3305 39.6646 56.3305 39.4363 56.3058L39.2821 56.2749H39.208C39.0476 56.2626 38.9551 56.2317 38.8008 56.2194C38.696 56.2132 38.807 56.2317 38.7268 56.2194L38.2764 56.1454C38.1839 56.1392 38.2147 56.1515 38.1098 56.1269C37.8569 56.0713 37.8013 56.1145 37.6656 56.0466C37.6903 56.0096 37.6779 56.022 37.7211 55.9911C37.8877 55.8677 37.5792 56.0837 37.7705 55.9603L37.8198 55.9356L38.0111 55.7875H38.0481L38.3813 55.516C38.3875 55.5099 38.3998 55.5037 38.406 55.5037C38.4121 55.5037 38.4245 55.4975 38.4307 55.4914L38.696 55.2631L39.1834 54.7325C39.3438 54.6153 39.2512 54.4795 39.6091 54.3438C39.6893 54.3129 39.6153 54.3561 39.7016 54.3068C39.8806 54.2019 39.7325 54.3129 39.9669 54.2019C40.0225 54.171 40.0718 54.1587 40.1273 54.134H40.1644L40.6518 53.9057H40.6888L40.7999 53.8317H40.8369L40.9233 53.7823C40.9294 53.7823 40.9356 53.7762 40.9418 53.7762L41.022 53.7515C41.022 53.7515 41.0775 53.7268 41.096 53.7145L41.9968 53.2579C42.003 53.2517 42.0153 53.2456 42.0215 53.2456C42.0276 53.2456 42.04 53.2332 42.0462 53.2332C42.151 53.1839 42.1449 53.2085 42.2498 53.1345C42.2929 53.1037 42.3238 53.0728 42.33 53.0666C42.3608 53.0481 42.4287 53.0234 42.4595 53.0049L42.5089 52.9741C42.5521 52.9494 42.5336 52.9618 42.5829 52.9371L42.805 52.7828C42.8544 52.752 42.8606 52.7396 42.9099 52.7026L42.984 52.6594C43.0333 52.6286 42.9901 52.6656 43.0518 52.6162C43.1012 52.5792 43.1197 52.5422 43.1629 52.5052L43.3973 52.3263L43.5084 52.2522H43.5454C43.6009 52.2152 43.6071 52.1967 43.6503 52.172C43.7058 52.135 43.749 52.135 43.8045 52.1041C43.9033 51.9684 43.7799 52.1103 43.9711 52.0116L44.0452 51.9684C44.0513 51.9684 44.0637 51.9561 44.0698 51.9561L44.1439 51.882L44.4277 51.7093C44.4339 51.7031 44.4462 51.7031 44.4524 51.6969C44.4585 51.6908 44.4647 51.6908 44.4709 51.6846C44.4771 51.6846 44.4832 51.6784 44.4832 51.6723L44.7053 51.5057L45.0447 51.1293L45.31 50.901C45.3161 50.8949 45.3285 50.8825 45.3347 50.8887L45.8776 50.4506L45.9516 50.3766L46.0627 50.3026L46.1367 50.2285L46.2478 50.1545L46.5069 49.92C46.5131 49.9139 46.5254 49.9077 46.5316 49.9077C46.5378 49.9015 46.5501 49.9015 46.5563 49.8954L46.6303 49.8522L46.9203 49.6547C47.0745 49.5067 46.9943 49.5375 47.2103 49.4141C47.2164 49.4141 47.2288 49.4079 47.2349 49.4018L47.3028 49.3216C47.3028 49.3216 47.309 49.3092 47.3152 49.3092L47.7532 48.8712C47.9198 48.7169 47.9321 48.8712 48.1357 48.5689L48.1728 48.5318C48.1728 48.5318 48.1851 48.5257 48.1851 48.5195L48.3702 48.2727H48.4072H48.4442H48.4812H48.5183L48.5923 48.3159L48.401 48.5812C48.401 48.5874 48.3887 48.5935 48.3887 48.5997C48.3825 48.6059 48.3579 48.6306 48.3517 48.6367L48.1542 49.1303C48.1542 49.155 48.2591 49.4079 48.4504 49.3339L48.7095 49.2537H48.7465H48.7836H48.8206C48.8391 49.2414 48.8885 49.229 48.9008 49.2229C48.9687 49.1858 48.9378 49.2043 48.9748 49.1797C49.0612 49.1426 49.0982 49.1735 49.2401 49.1056C49.2463 49.0995 49.2586 49.0809 49.2648 49.0933C49.271 49.1056 49.2895 49.0748 49.3142 49.0624C49.5363 48.939 49.4869 49.0193 49.5856 48.8773C50.0607 48.6491 49.5856 48.8156 50.0299 48.6614L50.3013 48.575H50.3384C50.4309 48.612 50.3569 48.612 50.4494 48.575H50.4864H50.5234H50.5605C50.653 48.538 50.579 48.538 50.6715 48.575H50.7085C50.7949 48.538 50.8196 48.5565 50.906 48.5565C51.1466 48.5565 51.5291 48.4701 51.6895 48.538L51.4489 49.0563C51.4489 49.0563 51.4427 49.118 51.4242 49.1735L51.3564 49.445C51.2206 49.5437 51.3317 49.4265 51.2885 49.5745L51.1466 49.9817C51.1219 50.0373 51.2083 49.9632 51.0911 50.0434C51.0787 50.2162 51.0541 50.1545 51.0047 50.2902C50.9924 50.3211 50.9924 50.3519 50.9924 50.3519C50.9615 50.4506 50.8751 50.4445 50.9368 50.6049L51.0479 50.6789C51.0972 50.7159 50.9677 50.7159 51.1589 50.7159C51.1219 50.7715 51.1219 50.7715 51.0787 50.8208C50.9245 51.0121 51.0602 50.9566 50.8628 51.0923C50.8566 51.0985 50.8443 51.0985 50.8381 51.1046C50.8258 51.1417 50.8196 51.117 50.7949 51.1355L50.7271 51.1848C50.4618 51.3885 50.7517 51.2774 50.5234 51.5427C50.5173 51.5489 50.5111 51.555 50.5049 51.5612L50.289 51.7648C50.2458 51.808 50.2767 51.7771 50.2335 51.8265C50.2273 51.8327 50.2211 51.8388 50.215 51.845L50.0299 51.9993H49.9928C49.7461 52.1658 49.7337 52.2337 49.6844 52.388L49.635 52.7828C49.6412 52.9062 49.6535 52.8877 49.6967 52.9432L49.7707 53.0728C49.7707 53.0728 49.7769 53.0851 49.7831 53.0851L49.962 53.2456L50.3384 53.4738C50.4803 53.5417 50.5111 53.5109 50.6037 53.5479H50.6407C50.7209 53.5787 50.8258 53.5787 50.906 53.5479H50.943H50.98H51.017C51.0849 53.517 51.1404 53.5047 51.2083 53.4738H51.2453L51.5847 53.1345V53.0975C51.6155 53.042 51.6032 53.0605 51.6217 52.9864L52.1893 53.2085C52.3435 53.2332 52.7816 53.2517 52.942 53.1715H52.979C53.158 53.0975 52.9605 53.2209 53.1209 53.1222C53.1888 53.079 53.1394 53.0975 53.2135 53.0605C53.2382 53.0481 53.2937 53.0296 53.3245 53.0173L53.3986 52.9432L53.5158 52.8692C53.522 52.863 53.5281 52.8569 53.5343 52.8507L53.7009 52.6409C53.8428 52.425 54.0279 52.2892 54.1081 52.0856C54.2623 51.6908 54.1266 51.4501 54.1883 51.3082C54.1883 51.3082 54.2377 51.1848 54.3117 51.1355L54.3857 51.0615L54.4228 50.9874L54.5708 50.8393L54.7621 50.6357C54.7621 50.6357 54.7683 50.6234 54.7744 50.6234L54.7929 50.5925C54.9102 50.3889 54.8732 50.3951 54.9904 50.3149L55.0212 50.2162C55.0212 50.21 55.0336 50.2039 55.0336 50.2039C55.0397 50.1977 55.0459 50.1915 55.0521 50.1915C55.0582 50.1853 55.0706 50.1792 55.0768 50.1792C55.0829 50.1792 55.0953 50.173 55.1014 50.1668L55.1755 50.0928L55.2495 50.0496C55.2187 49.9632 55.231 49.9385 55.231 49.8522C55.231 49.7288 55.2618 49.7596 55.1755 49.6362V49.5992L55.0089 49.1797C55.0027 49.1488 54.9965 49.0871 54.9904 48.9946L55.0644 48.9576H55.1014L55.2927 48.8095L55.4901 48.0444C55.4901 48.0383 55.4963 48.0321 55.4963 48.0259C55.4963 48.0197 55.5025 48.0136 55.5025 48.0074C55.5025 48.0012 55.5086 47.9951 55.5086 47.9889C55.5086 47.9827 55.5148 47.9766 55.5148 47.9704L55.6197 47.6742C55.6197 47.6742 55.6259 47.6619 55.632 47.6619L55.6444 47.6496L55.7863 47.5323L55.8973 47.4583H55.9344L56.4218 47.156H56.4588L56.5328 47.0819L57.0141 46.8475C57.3966 46.576 57.156 46.8166 57.5015 46.5081L57.6619 46.4033L57.8532 46.2552L57.9272 46.1811C57.9334 46.175 57.9457 46.1626 57.9519 46.1688L58.0012 46.1441C58.1493 46.0578 58.1185 46.0331 58.2048 45.9714L58.6861 45.6629L58.5072 46.0824C58.501 46.0948 58.4887 46.1133 58.4887 46.1256L58.4023 46.4094C58.3653 46.465 58.3961 46.3847 58.3529 46.4958ZM64.1155 46.0763H64.0785L64.1093 46.0331L64.1155 46.0763ZM64.3438 46.3786C64.4302 46.502 64.387 46.5328 64.3993 46.5945C64.424 46.7673 64.461 46.5513 64.4734 46.7981C64.4795 46.8907 64.461 46.8351 64.5289 46.94V46.9771C64.5721 47.0758 64.5227 47.0079 64.5536 47.0819L65.0163 48.0814C65.0533 48.1555 65.0163 48.0629 65.0533 48.137L65.1273 48.3406C65.1273 48.3467 65.1335 48.3529 65.1335 48.3591C65.1335 48.3653 65.1459 48.4084 65.1459 48.4146L65.2014 48.5565C65.2446 49.0809 65.2261 52.7828 65.2199 53.5047L65.2693 54.1278C65.2569 54.2142 65.2137 54.2636 65.2014 54.3993V54.4363C65.1644 54.5289 65.1644 54.4548 65.2014 54.5474V54.5844C65.1705 54.6646 65.1705 54.7695 65.2014 54.8497V54.8867V54.9978V55.0348V55.1459V55.1829C65.1027 55.3124 65.0286 55.2569 64.7942 55.3741C64.788 55.3803 64.7757 55.3803 64.7695 55.3865C64.6646 55.4482 64.5844 55.5531 64.5474 55.6888C64.5165 55.806 64.6029 55.8122 64.4857 55.8924H64.4487C64.3438 55.8862 64.35 55.8739 64.2883 55.8739C64.2451 55.8739 64.2327 55.8801 64.1772 55.8739C64.097 55.8739 63.9427 55.8245 63.807 55.8184H63.77C63.6404 55.7567 63.517 55.7813 63.4307 55.7443H63.3936C63.3319 55.7196 63.2394 55.7196 63.1345 55.7196C62.8877 55.7196 62.4558 55.7505 62.2584 55.6394L62.1844 55.5962C62.1042 55.5407 62.1412 55.5531 62.0363 55.516C62.0239 55.5099 61.9684 55.4914 61.9499 55.4852C61.8388 55.4358 61.9376 55.4852 61.8759 55.442L61.3576 55.3001C61.3514 55.3001 61.3268 55.2878 61.3206 55.2878L60.9257 55.2199C60.8085 55.189 60.6542 55.1952 60.574 55.1582H60.537C60.4445 55.1212 60.5185 55.1212 60.426 55.1582H60.3889C60.2594 55.0965 60.136 55.1212 60.0496 55.0842H60.0126C59.8769 55.0286 58.8588 55.0595 58.5689 55.0656C58.464 55.0656 58.501 55.0842 58.3899 55.0101L58.3467 54.9361C58.4887 54.8867 58.5504 54.714 58.5874 54.5721C58.5997 54.5165 58.5935 54.4919 58.5935 54.4302C58.5874 54.1525 58.6306 54.2574 58.5565 54.0846C58.5133 53.9859 58.5257 53.9551 58.5133 53.9242C58.4701 53.8194 58.5257 53.9551 58.4763 53.8687L58.4393 53.7762C58.4393 53.77 58.4331 53.7638 58.427 53.7577C58.2172 53.3628 58.1 53.3751 57.8347 53.153L57.6742 53.0481L57.5508 52.9926C57.3719 52.9247 57.4953 52.8013 57.6372 52.6162L57.7853 52.4682C57.7915 52.4682 57.7976 52.462 57.8038 52.4558C57.81 52.4497 57.8408 52.4373 57.847 52.4311L58.1987 52.172C58.2357 52.1473 58.2357 52.135 58.285 52.1041L58.5874 51.8018L58.6614 51.7278C58.6676 51.7216 58.6799 51.7093 58.6861 51.7155L59.556 50.9319C59.5622 50.9257 59.5745 50.9195 59.5807 50.9195C59.5869 50.9195 59.5992 50.9072 59.6054 50.9072L59.6794 50.8332L59.8275 50.6851L60.0928 50.4568L60.1668 50.3828L60.7715 49.8152V49.7781C60.827 49.6486 60.7406 49.7473 60.8455 49.5869V49.5437C60.8579 49.3586 60.864 49.2167 60.9751 49.0748L61.0306 49.0192L61.1417 48.9452L61.2897 48.7971L61.3638 48.7231L61.4748 48.6306L61.4872 48.6182L61.4995 48.6059L62.9001 47.2485C62.9309 47.2115 62.9124 47.23 62.9556 47.193L63.2579 46.9277C63.2641 46.9277 63.2764 46.9154 63.2826 46.9154L63.4738 46.7673C63.48 46.7611 63.4924 46.7488 63.4985 46.7549L63.6281 46.6192L63.7021 46.5452L63.7391 46.4711C63.9119 46.3539 63.9736 46.2552 64.023 46.1811L64.1217 46.0948L64.2636 45.9775C64.3438 46.0948 64.3191 46.0331 64.3314 46.1256C64.3438 46.2058 64.3438 46.2737 64.3438 46.3786ZM69.9953 46.1935V46.2305L69.9521 46.1997L69.9953 46.1935ZM57.6372 46.3786H57.6002L57.6311 46.3354L57.6372 46.3786ZM63.7391 46.4526H63.7021L63.733 46.4094L63.7391 46.4526ZM70.674 46.7179V46.7549L70.6308 46.7241L70.674 46.7179ZM63.2887 46.9092H63.2517L63.2826 46.866L63.2887 46.9092ZM70.9023 46.8722V46.9092L70.8591 46.8783L70.9023 46.8722ZM56.502 47.0573H56.465L56.4958 47.0141L56.502 47.0573ZM55.7493 47.5077H55.7122L55.7431 47.4645L55.7493 47.5077ZM69.9213 47.6619H69.8843L69.9151 47.6187L69.9213 47.6619ZM70.0323 47.6619V47.6249L70.0755 47.6557L70.0323 47.6619ZM70.711 47.9642V47.9272L70.7542 47.958L70.711 47.9642ZM41.7685 48.0383H41.8055L41.9166 48.1123H41.9536L42.0955 48.1802C42.3361 48.2727 42.3732 48.2233 42.3793 48.3591L42.367 48.6059V48.6429L42.33 48.7663C42.3115 48.8342 42.3053 48.7725 42.3053 48.8773C42.3053 49.118 42.2929 48.9822 42.2374 49.1056C42.1881 49.2167 42.2744 49.1241 42.0708 49.3339C41.9783 49.4203 41.9042 49.4882 41.8364 49.5869C41.7623 49.6362 41.7932 49.6362 41.7809 49.6547C41.7809 49.6547 41.7747 49.6671 41.7747 49.6732L41.6143 49.8152L41.5402 49.8892L41.3922 50.0373L41.0405 50.3334C41.0405 50.3334 41.0343 50.3458 41.0281 50.3458L40.8986 50.4506C40.7073 50.6049 40.5777 50.8085 40.3741 50.9442L40.1088 51.1725C39.825 51.3638 39.7448 51.5982 39.3808 51.8388L39.2944 51.9067C39.2327 51.9561 39.2266 51.9684 39.1649 52.0054L39.023 52.0856C38.9613 52.1165 38.9181 52.1288 38.8625 52.1535H38.8255C38.7577 52.1905 38.7762 52.1844 38.6774 52.1905C38.6836 52.1844 38.696 52.1658 38.696 52.172L38.8564 51.9931C39.0291 51.808 38.8008 51.9437 38.9736 51.8142C39.0415 51.6908 39.0291 51.6661 39.134 51.5612C39.171 51.518 39.1834 51.5242 39.208 51.4687C39.2512 51.3699 39.1464 51.4563 39.2697 51.3638L39.461 51.1355L39.6091 50.9874L39.8744 50.7591L40.1027 50.5308L40.1767 50.4568L40.3248 50.3087L40.3988 50.2347C40.516 50.1545 40.5963 50.1422 40.7382 49.9324C40.806 49.883 40.7752 49.9015 40.7937 49.8645L40.9726 49.482C41.1083 49.1673 40.9294 49.3524 41.0775 49.1365V49.0995L41.2502 48.3653C41.3181 48.211 41.2564 48.3221 41.3551 48.1987C41.3613 48.1925 41.3675 48.1863 41.3736 48.1802L41.46 48.0568C41.4785 48.0444 41.4724 47.8963 41.7685 48.0383ZM48.364 48.2665H48.327L48.3579 48.2233L48.364 48.2665ZM58.3529 48.3036H58.3899L58.3591 48.3467L58.3529 48.3036ZM70.8282 48.3776V48.4146L70.785 48.3838L70.8282 48.3776ZM65.2137 48.5627V48.5257L65.2569 48.5565L65.2137 48.5627ZM70.0755 48.6429H69.9645V48.6059C70.1619 48.6059 70.0138 48.6059 70.0755 48.6429ZM49.5671 48.865H49.5301L49.561 48.8218L49.5671 48.865ZM70.637 48.865V48.828L70.6802 48.8588L70.637 48.865ZM61.0244 49.0192H60.9874L61.0183 48.9761L61.0244 49.0192ZM48.9687 49.1673H48.9316L48.9625 49.1241L48.9687 49.1673ZM47.2349 49.3956H47.1979L47.2288 49.3524L47.2349 49.3956ZM51.344 49.4326H51.3811L51.3502 49.4758L51.344 49.4326ZM70.9023 49.5067V49.5437L70.8591 49.5128L70.9023 49.5067ZM41.8426 49.5807H41.8796L41.8487 49.6239L41.8426 49.5807ZM70.9763 49.5807V49.6177L70.9331 49.5869L70.9763 49.5807ZM41.6204 49.809H41.6575L41.6266 49.8522L41.6204 49.809ZM46.6303 49.846H46.5933L46.6241 49.8028L46.6303 49.846ZM40.7505 49.92H40.7135L40.7443 49.8769L40.7505 49.92ZM41.5402 49.883H41.5772L41.5464 49.9262L41.5402 49.883ZM41.3922 50.0373H41.4292L41.3983 50.0805L41.3922 50.0373ZM55.1508 50.0743H55.1138L55.1446 50.0311L55.1508 50.0743ZM46.254 50.1483H46.2169L46.2478 50.1051L46.254 50.1483ZM55.0706 50.1483H55.0336L55.0644 50.1051L55.0706 50.1483ZM57.7483 50.1113H57.7853L57.7544 50.1545L57.7483 50.1113ZM45.9516 50.3766H45.9146L45.9455 50.3334L45.9516 50.3766ZM67.6261 50.3766V50.3396L67.6693 50.3704L67.6261 50.3766ZM45.8776 50.4506H45.8406L45.8714 50.4075L45.8776 50.4506ZM57.52 50.4877H57.557L57.5262 50.5308L57.52 50.4877ZM57.446 50.5617H57.483L57.4521 50.6049L57.446 50.5617ZM51.0417 50.6789V50.6419L51.0849 50.6728L51.0417 50.6789ZM59.8213 50.6789H59.7843L59.8152 50.6357L59.8213 50.6789ZM54.5462 50.827H54.5091L54.54 50.7838L54.5462 50.827ZM59.6733 50.827H59.6301L59.6609 50.7838L59.6733 50.827ZM59.593 50.901H59.556L59.5869 50.8578L59.593 50.901ZM36.8697 50.9381H36.9067L36.8759 50.9812L36.8697 50.9381ZM39.6214 50.9751H39.5844L39.6153 50.9319L39.6214 50.9751ZM54.3919 50.9751H54.3549L54.3857 50.9319L54.3919 50.9751ZM39.4672 51.1293H39.4302L39.461 51.0861L39.4672 51.1293ZM45.0447 51.1293H45.0077L45.0385 51.0861L45.0447 51.1293ZM40.1088 51.1663H40.1459L40.115 51.2095L40.1088 51.1663ZM72.9383 51.3946V51.4316L72.8951 51.4008L72.9383 51.3946ZM73.0864 51.5427V51.5797L73.0432 51.5489L73.0864 51.5427ZM56.3909 51.6167H56.4279L56.3971 51.6599L56.3909 51.6167ZM56.3169 51.6908H56.3539L56.3231 51.734L56.3169 51.6908ZM44.1439 51.882H44.1069L44.1377 51.8388L44.1439 51.882ZM56.1626 51.845H56.1997L56.1688 51.8882L56.1626 51.845ZM73.3517 51.845L73.364 51.8574C73.364 51.8574 73.3455 51.845 73.3517 51.845ZM44.0698 51.9561H44.0328L44.0637 51.9129L44.0698 51.9561ZM43.3912 52.3324H43.3542L43.385 52.2892L43.3912 52.3324ZM49.6844 52.9371V52.9001L49.7275 52.9309L49.6844 52.9371ZM54.9595 52.9001H54.9966L54.9657 52.9432L54.9595 52.9001ZM42.0338 53.2394H41.9968L42.0276 53.1962L42.0338 53.2394ZM53.7564 54.2574H53.7934L53.7626 54.3006L53.7564 54.2574ZM34.9817 54.4795H35.0188L34.9879 54.5227L34.9817 54.4795ZM39.1649 54.7448H39.1278L39.1587 54.7016L39.1649 54.7448ZM58.3899 55.0101V55.0471L58.3467 55.0163L58.3899 55.0101ZM34.4573 55.1582H34.4943L34.4635 55.2014L34.4573 55.1582ZM34.3031 55.3124H34.3401L34.3092 55.3556L34.3031 55.3124ZM34.229 55.3865H34.266L34.2352 55.4297L34.229 55.3865ZM34.155 55.4605H34.192L34.1612 55.5037L34.155 55.4605ZM38.4121 55.4975H38.3751L38.406 55.4543L38.4121 55.4975ZM44.4092 55.7628H44.4462L44.4154 55.806L44.4092 55.7628ZM37.8137 55.9541H37.7767L37.8075 55.9109L37.8137 55.9541ZM33.7046 56.0652H33.7416L33.7108 56.1083L33.7046 56.0652ZM37.6594 56.0652V56.1022L37.6162 56.0713L37.6594 56.0652ZM23.6046 58.4775H23.6417L23.6108 58.5207L23.6046 58.4775ZM23.6046 58.8169V58.7799L23.6478 58.8107L23.6046 58.8169ZM23.6787 58.8909V58.8539L23.7219 58.8848L23.6787 58.8909ZM77.6088 59.076V59.113L77.5657 59.0822L77.6088 59.076ZM78.0654 59.3783V59.4154L78.0222 59.3845L78.0654 59.3783ZM78.5158 59.6807V59.7177L78.4726 59.6868L78.5158 59.6807ZM76.708 61.3033H76.671L76.7019 61.2601L76.708 61.3033ZM59.5437 63H59.0563H59.0316H59.0131H58.791C58.7725 63 58.7478 63 58.7293 63C58.6799 62.9938 58.6367 62.9877 58.6244 62.9877L58.1678 62.8889H58.1308H58.0876C58.0506 62.8643 58.0876 62.8828 58.0197 62.8458C58.0074 62.8396 57.9642 62.8211 57.9395 62.8149H57.9025C57.8408 62.7841 57.8038 62.7841 57.7483 62.747C57.7051 62.7224 57.6927 62.6977 57.6434 62.6668H57.6064L57.5323 62.4447C57.5508 62.4015 57.5138 62.346 57.7298 62.3028C57.773 62.2966 57.7298 62.3028 57.8038 62.2966C57.8902 62.2843 57.773 62.2905 57.8717 62.2905V62.2535C57.6989 62.2535 57.6187 62.2349 57.4953 62.2905H57.4583H57.4089H57.3719C57.2547 62.3398 56.9215 62.3152 56.8043 62.3645H56.7673L55.9837 62.383C55.6937 62.3892 55.9344 62.2905 55.7493 62.3645H55.7122C55.6197 62.3275 55.6937 62.3275 55.6012 62.3645C55.5025 62.3028 55.0521 62.309 54.9287 62.309C54.8361 62.309 54.7868 62.309 54.7004 62.309C54.4104 62.3152 54.651 62.2164 54.4659 62.2905H54.4289C54.3364 62.2535 54.324 62.2781 54.2315 62.272C54.1883 62.272 54.0772 62.2596 53.9477 62.2411C53.8243 62.2288 53.6454 62.2473 53.5652 62.2103H53.5281H53.4911H53.4541H53.4171H53.3801H53.3369H53.2999C53.2073 62.1732 53.2813 62.1732 53.1888 62.2103H53.1518C53.0592 62.1732 53.1333 62.1732 53.0407 62.2103H53.0037C52.9112 62.1732 52.9852 62.1732 52.8926 62.2103H52.8556C52.7631 62.1732 52.8371 62.1732 52.7446 62.2103H52.7076C52.615 62.1732 52.689 62.1732 52.5965 62.2103H52.5595H52.5225H52.4731C52.3806 62.2473 52.4546 62.2473 52.362 62.2103H52.325C52.2325 62.2473 52.3065 62.2473 52.214 62.2103H52.177C52.0844 62.2473 52.1584 62.2473 52.0659 62.2103H52.0289C51.9302 62.2535 51.7574 62.2288 51.6587 62.2288C51.5476 62.2288 51.4119 62.2535 51.3132 62.2103H51.2762C51.1836 62.2473 51.2577 62.2473 51.1651 62.2103H51.1157H51.0787H51.0417C50.9492 62.1732 51.0232 62.1732 50.9307 62.2103H50.8936C50.8134 62.1794 50.5481 62.1856 50.4124 62.1856C50.1286 62.1856 48.9193 62.1732 48.8206 62.2103H48.7836C48.691 62.1732 48.7651 62.1732 48.6725 62.2103H48.6355H48.5985H48.5615C48.4689 62.2473 48.5429 62.2473 48.4504 62.2103H48.401C48.3085 62.2473 48.3825 62.2473 48.29 62.2103H48.253C48.1604 62.2473 48.2345 62.2473 48.1419 62.2103H48.1049L47.1177 62.2349C46.8956 62.2349 44.9213 62.2473 44.8226 62.2843H44.7855C44.693 62.2473 44.767 62.2473 44.6745 62.2843H44.6375C44.5449 62.2473 44.619 62.2473 44.5264 62.2843H44.4894H44.4524H44.4154C44.3228 62.3213 44.3968 62.3213 44.3043 62.2843H44.2673C44.1439 62.3337 44.1069 62.2781 43.9835 62.309C43.8107 62.3522 43.9341 62.346 43.7305 62.4694L43.6565 62.5126C43.3541 62.7162 43.3295 62.7285 43.0271 62.6545C43.021 62.6545 43.0086 62.6483 43.0086 62.6483C43.0025 62.6483 42.9901 62.6483 42.9901 62.6483C42.984 62.6483 42.9593 62.6545 42.9469 62.6607C42.9099 62.636 42.9469 62.6545 42.8729 62.6175C42.8606 62.6113 42.8174 62.5928 42.7927 62.5866H42.7557C42.6755 62.5496 42.7187 62.5619 42.6076 62.5496C42.6446 62.4571 42.6446 62.5311 42.6076 62.4385L42.4163 62.2905H42.3793C42.1017 62.1547 41.5464 62.2905 41.3613 62.2164H41.3243C41.2317 62.2535 41.3058 62.2535 41.2132 62.2164H41.1762H41.1392H41.1022C40.9973 62.1733 40.2261 62.1856 40.0842 62.1794C40.0533 62.1794 40.0101 62.1732 39.9916 62.1671C39.9361 62.1609 39.9299 62.1671 39.9176 62.1671C39.8127 62.1609 39.8682 62.1794 39.788 62.1424H39.751C39.6584 62.1794 39.7325 62.1794 39.6399 62.1424H39.6029C39.4548 62.2041 39.5967 62.1671 39.498 62.1424L39.1217 62.0869C39.0168 62.0807 39.0723 62.0992 38.9304 62.0622C38.8379 62.0375 38.8255 62.0313 38.7391 62.0684C38.6651 62.0252 38.8194 62.0499 38.6281 62.0313C38.3196 61.9943 38.2517 62.019 37.9864 62.1486H37.9494C37.8013 62.2103 37.6162 62.2041 37.4682 62.2041C37.4126 62.2041 37.0856 62.2226 36.9314 62.1486H36.8944C36.6908 62.0622 36.7771 62.1979 36.481 62.0005H36.444C36.2404 61.9018 36.228 61.9758 36.1046 61.9265H36.0676C35.9751 61.9635 36.0491 61.9635 35.9566 61.9265H35.9195C35.827 61.9635 35.901 61.9635 35.8085 61.9265H35.7715H35.7345H35.6974H35.6604H35.6234C35.5308 61.9635 35.6049 61.9635 35.5123 61.9265H35.4753C35.3828 61.9635 35.4568 61.9635 35.3643 61.9265H35.3272C35.2347 61.9635 35.3087 61.9635 35.2162 61.9265H35.136H35.099H35.0619H35.0249H34.9879H34.9509H34.9139C34.6918 61.8339 33.754 61.9265 33.5935 61.8524H33.5565C33.464 61.8894 33.538 61.8894 33.4455 61.8524H33.4084C33.2727 61.9079 33.4701 61.8648 33.1 61.8339L32.0141 61.7043H31.977C31.8845 61.6673 31.9585 61.6673 31.866 61.7043H31.829C31.6809 61.6426 31.2182 61.7537 30.959 61.6303H30.922H30.8788H30.8418C30.7061 61.5748 30.5271 61.6735 30.2742 61.5563H30.2372C30.1446 61.5933 30.2187 61.5933 30.1261 61.5563H30.0891H30.0521H30.0151C29.9225 61.5193 29.9965 61.5193 29.904 61.5563H29.867C29.7744 61.5193 29.7621 61.5439 29.6695 61.5378L29.2192 61.4946C29.176 61.4884 29.0464 61.4761 28.9415 61.4884L28.2752 61.5316C28.2011 61.5316 28.1826 61.5131 28.0962 61.5501H28.0592C27.9667 61.5131 28.0407 61.5131 27.9482 61.5501H27.9112C27.7878 61.5007 27.8803 61.5378 27.8248 61.5439C27.6335 61.5686 27.9112 61.5624 27.7692 61.5563C27.6088 61.5501 27.8309 61.4699 27.6459 61.5501H27.6088L26.3996 61.3897C26.27 61.3527 26.4304 61.3156 26.2762 61.3773H26.2391C26.0972 61.3095 26.0664 61.3403 25.9738 61.3033H25.9368H25.8998H25.8628C25.7517 61.2539 25.7085 61.2786 25.5975 61.2293H25.5605C25.4679 61.2663 25.542 61.2663 25.4494 61.2293H25.4124C25.3198 61.2663 25.3939 61.2663 25.3013 61.2293H25.2643C25.1718 61.2663 25.2458 61.2663 25.1533 61.2293H25.1162C25.0114 61.2725 25.0916 61.2354 24.9867 61.2601C24.8818 61.2848 24.9188 61.2848 24.8448 61.291C24.5486 61.3095 24.8139 61.3835 24.6288 61.3095H24.5918C24.5116 61.3465 24.2586 61.3465 24.1784 61.3095H24.1414H24.0921H24.055C23.9687 61.2725 23.9316 61.3033 23.7897 61.2354H23.7527H23.7157H23.6787C23.5923 61.1984 23.4689 61.2231 23.3393 61.1614C23.3332 61.1552 23.3208 61.1491 23.3147 61.1491C23.074 61.0072 23.1542 61.0072 23 60.9023V60.8899V60.8776V60.8653C23 60.6061 23.0123 60.6123 23.0617 60.5197L23.1666 60.31C23.2345 60.1496 23.5183 59.9645 23.6231 59.7053L23.6725 59.5758C23.7589 59.3475 23.6046 59.5696 23.7527 59.292C23.8021 59.1994 23.7219 59.2241 23.8638 59.0205L23.7465 58.9526C23.7404 58.9464 23.728 58.9403 23.7219 58.9403C23.7157 58.9403 23.7034 58.9341 23.6972 58.9279C23.691 58.9156 23.6787 58.9156 23.6725 58.9156L23.5985 58.8416C23.4689 58.749 23.58 58.8354 23.5368 58.7367C23.5121 58.6811 23.4874 58.6688 23.4566 58.6194L23.5985 58.5022C23.7034 58.4282 23.6848 58.4652 23.7774 58.4405L23.8699 58.4035C23.8823 58.4035 23.8885 58.3973 23.9008 58.3973C23.9131 58.3973 23.9255 58.3912 23.9316 58.3912C24.0365 58.3665 23.9563 58.3973 24.0489 58.3541H24.0921C24.2957 58.2554 24.308 58.3295 24.4314 58.2801H24.4684C24.598 58.2246 24.8633 58.3233 25.1101 58.2061H25.1471H25.1841H25.2211H25.2581H25.2952C25.363 58.1752 25.4186 58.1629 25.4864 58.132H25.5234V58.095L25.215 57.4595C25.2088 57.441 25.1594 57.3485 25.1533 57.3361C25.1101 57.2498 25.1409 57.3485 25.1101 57.2312C25.2273 57.0585 25.4617 57.0462 25.5605 57.003H25.5975C25.69 56.9659 25.616 56.9659 25.7085 57.003H25.7456C25.8258 56.9721 25.9307 56.9721 26.0109 57.003H26.0479C26.1404 56.9659 26.0664 56.9659 26.1589 57.003H26.196H26.233H26.27H26.3132H26.3502H26.3872H26.4242H26.4613H26.4983C26.5908 57.04 26.5168 57.04 26.6093 57.003H26.6463C26.7142 57.0338 26.8685 57.0276 26.9795 57.0276C27.0474 57.0276 27.0782 57.0276 27.1831 57.0276C27.2325 57.0276 27.2942 57.0338 27.3682 57.003H27.4052C27.6459 56.9042 27.5965 56.9042 27.7816 56.8919C27.6952 56.7685 27.7816 56.8611 27.6829 56.824C27.578 56.7808 27.6829 56.8055 27.5225 56.7747C27.3744 56.7438 27.3682 56.787 27.2572 56.7438H27.2201C27.2078 56.75 27.1831 56.7562 27.1769 56.7562L26.8808 56.6698H26.8438C26.8129 56.6513 26.7142 56.5772 26.6895 56.5526C26.6278 56.4909 26.6093 56.4785 26.6525 56.4045C26.8253 56.3243 26.8376 56.3058 26.9795 56.3119C27.7631 56.3243 27.5718 56.0466 27.8926 56.1824H27.9297L28.2073 56.2688C28.2135 56.2688 28.2196 56.2749 28.2258 56.2749C28.232 56.2749 28.2382 56.2811 28.2443 56.2811C28.2505 56.2811 28.2567 56.2873 28.2628 56.2873L28.3184 56.3058C28.3245 56.3058 28.3307 56.3119 28.3369 56.3119L28.4294 56.3428C28.522 56.3736 28.4479 56.3243 28.5713 56.4107C28.5775 56.4168 28.5898 56.423 28.596 56.423L29.0279 56.7068C29.1143 56.8302 29.2315 56.8919 29.4042 56.8981C29.4413 56.8055 29.4104 56.8549 29.4968 56.7994C29.6634 56.6945 29.6819 56.75 29.7806 56.7068H29.8176C30.0212 56.6081 30.0336 56.6821 30.157 56.6328H30.194L31.1997 56.5032C31.3231 56.4847 31.2243 56.4662 31.3662 56.46L31.7364 56.4045H31.7734C31.8413 56.3736 31.8968 56.3613 31.9647 56.3305H32.0017C32.0696 56.2996 32.1251 56.2873 32.193 56.2564H32.23C32.3102 56.2194 32.4398 56.2009 32.5077 56.2009C32.5508 56.2009 32.5508 56.2009 32.6002 56.2009C32.6187 56.2009 32.6804 56.1885 32.7236 56.1824H32.7606C32.8593 56.1392 33.1308 56.1639 33.2419 56.1639C33.3344 56.1639 33.3838 56.1639 33.4701 56.1639C33.6059 56.1639 33.575 56.1947 33.7046 56.1083C33.7601 56.022 33.791 56.022 33.8465 55.9479L34.0686 55.5716C34.1056 55.5284 34.1241 55.5284 34.155 55.5037L34.229 55.4297L34.3031 55.3556L34.4511 55.2076L34.5869 55.041C34.593 55.0348 34.5992 55.0286 34.5992 55.0225L34.7103 54.862C34.772 54.7942 34.8275 54.7572 34.883 54.6893C35.0434 54.5042 34.7843 54.6708 34.9817 54.5289C35.0743 54.387 35.1607 54.3623 35.2224 54.2574L35.2655 54.171C35.2717 54.1649 35.2779 54.1587 35.2841 54.1525C35.3149 54.1155 35.3519 54.0785 35.3643 54.0476C35.4506 53.8934 35.3087 54.1032 35.3951 53.9551C35.4506 53.8625 35.463 53.9304 35.5308 53.7638L35.9257 53.0481C35.9257 53.042 35.9381 53.0358 35.9381 53.0296L36.2651 52.4188C36.3144 52.2954 36.2465 52.4003 36.3021 52.3201L36.3453 52.2831C36.3453 52.2831 36.3514 52.2707 36.3576 52.2707L36.3823 52.2214C36.3885 52.2152 36.4008 52.1905 36.407 52.1844L36.444 52.0918C36.444 52.0918 36.7525 51.6969 36.6846 51.518V51.481C36.6723 51.3268 36.6846 51.4131 36.6476 51.3699L36.7525 51.191C36.7525 51.1848 36.7586 51.1787 36.7586 51.1725C36.8574 50.9812 36.7833 51.0553 36.8697 50.9936L37.0424 50.6851C37.0424 50.6789 37.0486 50.6728 37.0486 50.6666L37.209 50.3458C37.2337 50.2841 37.2399 50.3087 37.2646 50.1977C37.2831 50.1113 37.2461 50.2224 37.2769 50.136C37.2769 50.1298 37.2954 50.1051 37.2954 50.0928C37.3263 50.0188 37.3324 49.9941 37.3448 49.9447C37.3571 49.9015 37.3509 49.92 37.3571 49.8892L37.4126 49.7226C37.4743 49.3894 37.4188 49.6732 37.4867 49.5128C37.499 49.482 37.4928 49.4573 37.4928 49.4203C37.499 49.266 37.5545 49.2846 37.5731 49.1735L37.6224 48.9514C37.6841 48.7663 37.6162 48.4886 37.6594 48.2357C37.6841 48.1123 37.6594 48.2357 37.6471 48.0506C37.6224 47.5138 37.5607 47.8161 37.5669 47.5755C37.5731 47.4645 37.5731 47.4336 37.5114 47.3411C37.536 47.2794 37.536 47.1436 37.5114 47.0758V47.0387C37.5484 46.9647 37.536 46.9092 37.536 46.8598C37.536 46.8166 37.5484 46.6871 37.5545 46.6315C37.5854 46.3477 37.5299 46.3477 37.5977 46.1441C37.5977 46.138 37.6039 46.1318 37.6039 46.1256L37.6162 46.0886C37.6347 46.0392 37.6348 46.0578 37.6409 46.0146C37.6471 45.9405 37.6162 45.959 37.6964 45.8356V45.7986L37.9617 45.268C38.1654 45.1199 37.9062 45.2927 38.0666 45.1076L38.3073 44.7621C38.3073 44.7621 38.3134 44.7498 38.3196 44.7498L38.3875 44.6695C38.4307 44.5708 38.3813 44.6387 38.4121 44.5647C38.4615 44.4536 38.4183 44.5832 38.4738 44.4721L38.6466 44.0958C38.6466 44.0896 38.6528 44.0772 38.6589 44.0711C38.6589 44.0649 38.6713 44.0526 38.6713 44.0464C38.6713 44.0402 38.6774 44.0279 38.6836 44.0217L38.7823 43.7194C38.8008 43.633 38.7638 43.7441 38.7947 43.6577L38.8564 43.5158C38.8687 43.4788 38.8687 43.4541 38.8687 43.4541L39.171 42.362C39.171 42.0782 39.2019 42.2695 39.2451 42.1153C39.2636 42.0474 39.2204 42.0536 39.2697 41.924C39.3068 41.8253 39.2759 41.9302 39.3068 41.85C39.4178 41.5785 39.3006 41.7389 39.4919 41.4242C39.5165 41.381 39.5227 41.3625 39.5412 41.3008C39.5721 41.2268 39.5227 41.3008 39.5906 41.2268C39.6584 41.1528 39.6214 41.1589 39.6831 41.0479C39.7201 40.98 39.7078 41.017 39.7448 40.9553L39.8682 40.69C39.9114 40.6098 39.8682 40.7147 39.9176 40.616L40.189 40.0792C40.2261 40.0299 40.2507 40.0114 40.2754 39.9743L40.7443 39.2771C40.8307 39.1661 40.7628 39.2648 40.8184 39.1599L41.1145 38.7774C41.3428 38.4442 41.5402 38.4381 41.8796 37.926L41.9042 37.8766L41.9783 37.8396C41.9166 37.6853 41.9845 37.5743 41.9906 37.5681C42.0153 37.4694 41.9721 37.4262 42.0153 37.3152V37.2781C41.9783 37.1856 41.9783 37.2596 42.0153 37.1671V37.1301V36.9573V36.9203C42.0276 36.8031 42.0276 36.8339 42.0276 36.7475C42.0276 36.5316 42.0091 36.1491 42.0893 35.9763V35.9393C42.1387 35.8282 42.0893 35.8344 42.1202 35.711L42.2066 35.31C42.2066 35.3038 42.2004 35.2976 42.2004 35.2915C42.2004 35.2853 42.1942 35.2791 42.1942 35.273L42.2559 34.7485C42.2559 34.6992 42.2621 34.6807 42.2929 34.6066C42.3423 34.4956 42.3238 34.6066 42.3361 34.5017C42.3485 34.4092 42.2991 34.4524 42.3546 34.2981L42.3978 34.1686C42.3978 34.1624 42.404 34.1562 42.404 34.15L42.8544 33.021C42.8544 33.0148 42.8606 33.0086 42.8606 33.0025L43.1197 32.4657C43.1505 32.3978 43.1505 32.3855 43.1752 32.33C43.2924 32.2436 43.1937 32.33 43.2431 32.2251C43.3295 32.0338 43.4714 31.8425 43.6626 31.7192L43.9156 31.5526C43.9218 31.5464 43.9341 31.5464 43.9403 31.5402C43.9464 31.5341 43.9526 31.5341 43.9588 31.5279C43.965 31.5279 43.9711 31.5217 43.9711 31.5155L44.3475 31.2688C44.3537 31.2626 44.366 31.2564 44.3722 31.2564L44.7424 31.059C44.7485 31.0466 44.7609 31.0466 44.767 31.0466C44.8287 31.0158 44.8781 30.9973 44.9521 30.9664C44.9768 30.9541 45.02 30.9356 45.0508 30.9171C45.057 30.9109 45.1249 30.8801 45.1249 30.8739C45.2236 30.8307 45.2421 30.843 45.2853 30.8307C45.421 30.7875 45.2298 30.7999 45.4457 30.7813C45.4087 30.6826 45.421 30.6148 45.4827 30.479V30.442C45.5012 30.2261 45.5259 30.0348 45.5074 29.8312C45.5012 29.7818 45.5074 29.7818 45.5074 29.7386C45.5012 29.6584 45.4704 29.6029 45.4519 29.5042L45.5938 29.3068C45.7172 29.1217 45.637 29.3623 45.6431 29.2389C45.7048 29.0908 45.6863 29.2451 45.6061 29.097L45.5136 28.8379C45.5136 28.7638 45.5012 28.8008 45.5074 28.696C45.5136 28.5602 45.7172 28.2456 45.7974 28.19C45.9455 27.9679 46.1861 27.8445 46.2478 27.6964C46.3033 27.5545 46.2169 27.6718 46.3157 27.5052L46.3465 27.3941C46.3527 27.2029 46.3835 27.2522 46.4144 27.1658C46.439 27.0856 46.3897 27.0918 46.4452 26.9561L46.5686 26.6229C46.5871 26.5304 46.5501 26.6291 46.5871 26.5365C46.6612 26.481 46.6241 26.4995 46.6426 26.4687C46.9203 25.9134 47.019 26.2034 46.9141 25.7345L46.7969 25.1853C46.7969 25.0805 46.8031 25.1545 46.7722 25.0311C46.7105 24.7658 46.6858 24.0378 46.7537 23.8342L46.8648 23.248L47.1733 22.7606C47.2966 22.6496 47.5249 22.6187 47.6792 22.6927H47.7162C47.8149 22.7298 47.7285 22.7359 47.8272 22.6927C47.8643 23.1061 47.9198 23.174 47.9198 23.2665L47.9692 23.4516C47.9692 23.4578 47.9753 23.4701 47.9815 23.4763L48.1666 23.902C48.253 23.9637 48.327 24.1735 48.3764 24.2907L48.4689 24.482C48.5059 24.556 48.4689 24.4635 48.5059 24.5375C48.5059 24.5437 48.5121 24.5499 48.5121 24.556C48.5615 24.6609 48.4566 24.5745 48.58 24.6609L48.654 24.5869C48.7095 24.5005 48.7589 24.4758 48.8082 24.4079C48.8761 24.3092 48.8699 24.2846 49.0365 24.155L49.0612 24.1303C49.1661 24.0378 49.4314 23.8897 49.4376 23.7354C49.4499 23.4701 49.4746 23.5812 49.6041 23.3838L49.7522 23.2357C49.8818 23.1493 49.8818 23.1061 49.888 22.9827C49.888 22.8963 49.9003 22.8347 49.8694 22.7544L49.9435 22.7113H49.9805C50.326 22.5447 50.2828 22.4953 50.3754 22.3534C50.4494 22.2424 50.4988 22.1868 50.5111 22.0326C50.6715 21.9154 50.4618 21.8043 50.9245 21.5822H50.9615C51.0355 21.5513 51.1096 21.5884 51.1219 21.502C51.1343 21.4464 51.0911 21.4588 51.1219 21.3477C51.1404 21.2737 51.1219 21.2799 51.1404 21.1873C51.1898 20.9405 51.3379 20.7616 51.5044 20.5703L51.5476 20.5148C51.56 20.4963 51.5353 20.5025 51.6032 20.4469L51.6772 20.3729L52.3929 19.6202C52.5286 19.5276 52.5533 19.4474 52.6767 19.3734C52.6829 19.3672 52.6952 19.3611 52.7014 19.3611L52.7754 19.3179C52.868 19.2562 52.942 19.2315 53.0407 19.1698H53.0777L53.3122 19.0649C53.343 19.0464 53.3492 19.0772 53.3616 19.0341C53.3677 19.0217 53.3801 19.0217 53.3862 19.0217C53.4479 18.9909 53.4849 18.9909 53.5405 18.9539C53.5837 18.9292 53.596 18.9045 53.6454 18.8736H53.6824C53.7688 18.8305 53.8119 18.8305 53.8798 18.8119C53.886 18.8119 53.8922 18.8058 53.8983 18.8058C54.1883 18.7194 54.3055 18.7564 54.3981 18.7194H54.4351H54.4721H54.5091H54.5462H54.5832C54.9349 18.5713 55.3729 18.8798 55.6937 18.5528L56.0146 18.0716C56.0146 18.0654 56.0269 18.0592 56.0269 18.0531L56.0763 17.9605C56.0763 17.9543 56.0824 17.9482 56.0824 17.942C56.1256 17.8063 55.9961 17.1091 55.9961 17.035C55.9961 16.9672 55.9961 16.9425 55.9961 16.887C55.9961 16.8685 55.9961 16.8314 55.9961 16.8129C55.9775 16.6957 55.8171 16.634 55.6937 16.6032L55.4099 16.5044H55.3729L55.1878 16.4242C55.1878 16.4242 55.1014 16.381 55.0829 16.3749C54.978 16.3255 54.7929 16.3008 54.651 16.2083H54.614C54.4598 16.1343 54.4968 16.196 54.2809 16.0911L53.6083 15.5975C53.5158 15.4432 53.4973 14.9805 53.9292 14.9188C54.0217 14.9065 54.3672 14.8818 54.54 14.9682C54.6942 15.0792 54.6387 14.9682 54.7744 15.0669C54.8361 15.1101 54.7744 15.0731 54.8423 15.1162H54.8793C54.9842 15.1718 55.0459 15.2026 55.1446 15.2643H55.1816C55.3112 15.3507 55.2372 15.2952 55.3235 15.326L55.4593 15.4C55.4655 15.3939 55.4778 15.4124 55.484 15.4124C55.5333 15.4371 55.5518 15.4432 55.6197 15.4679L55.6629 15.4926C55.6691 15.4926 55.6752 15.4988 55.6814 15.4988C55.7431 15.5173 55.7554 15.4926 55.8973 15.5605C55.9529 15.4247 55.8973 14.962 55.9158 14.7769L56.0146 14.0982C56.0824 13.7959 56.0763 13.9008 56.138 13.7589L56.1873 13.6663C56.2428 13.5676 56.2182 13.4874 56.502 13.2962L56.576 13.2221C56.613 13.1974 56.576 13.2159 56.6501 13.1789C56.6624 13.1728 56.7056 13.1542 56.7303 13.1481H56.7673C56.9524 13.0617 57.0696 13.1172 57.1807 13.074H57.2177L57.4891 13.0617C57.557 13.0555 57.594 13.0555 57.6619 13.0555C57.8964 13.0555 58.2789 13 58.6244 13C58.8157 13 59.0007 13.0185 59.1365 13.074H59.1735C59.2352 13.1049 59.2722 13.1049 59.3277 13.1419C59.3709 13.1666 59.3833 13.1913 59.4326 13.2221L59.5437 13.2962C59.6486 13.364 59.6486 13.3887 59.7411 13.5183L59.809 13.5985C59.9509 13.8144 59.8769 13.7712 59.9077 13.8514C59.9571 13.9687 59.92 13.8268 59.9694 13.944C59.9879 13.9872 59.9694 13.9995 59.9756 14.0365C59.9879 14.1476 60.0434 14.1229 60.0558 14.2833L60.1236 14.7954C60.1298 14.9126 60.1298 14.962 60.1298 15.0175C60.1298 15.1286 60.1051 15.3013 60.1483 15.4062L60.5617 15.2581H60.5987C60.7036 15.2088 60.7715 15.2088 60.8147 15.1964C60.8949 15.1718 60.827 15.1903 60.9072 15.1533C60.9566 15.1286 60.9689 15.1286 61.0183 15.1101H61.0553C61.1478 15.0731 61.08 15.0977 61.1849 15.0854C61.228 15.0792 61.2959 15.0669 61.3391 15.0607C61.444 15.0484 61.4502 15.0731 61.5427 15.036H61.5797C61.6723 14.999 61.5982 14.999 61.6908 15.036H61.7278L61.8018 14.999L61.9314 15.252C62.0054 15.4247 62.0486 15.579 61.9993 15.8073C61.9931 15.8196 61.9808 15.869 61.9808 15.8875L61.8388 16.2515C61.8018 16.3255 61.8389 16.233 61.8018 16.307L61.7833 16.3625C61.7833 16.3687 61.7772 16.3749 61.7772 16.381L61.6723 16.6278C61.6723 16.6217 61.6599 16.6463 61.6538 16.6525C61.5797 16.8253 61.7216 16.6463 61.5921 16.8129L61.3268 17.0782C61.2712 17.1276 61.2774 17.1153 61.2342 17.1399L61.1602 17.1831C61.1478 17.1893 61.0615 17.2263 61.0553 17.2263L60.8208 17.4052H60.7838L60.6728 17.4793H60.6357L60.4013 17.5533C60.2409 17.6027 60.1977 17.5842 59.9571 17.5903C59.6979 17.5965 59.8522 17.5471 59.7596 18.0531C59.7473 18.1209 59.772 18.0839 59.7288 18.195L59.5745 18.6083C59.4758 18.7749 59.3463 18.9107 59.5128 19.0341C59.6054 19.2623 59.3894 19.1636 59.8522 19.4845L60.1175 19.6325L60.4938 19.8608H60.5309C60.574 19.8917 60.574 19.8978 60.6172 19.9287L60.8085 20.0397C60.864 20.0829 60.8085 20.0459 60.8702 20.0891C61.0183 20.305 61.1972 20.4284 61.3576 20.5395L61.6044 20.7493C61.7833 20.9529 61.8203 20.9529 61.9499 21.1503C61.9499 21.1503 61.9561 21.1626 61.9622 21.1626L61.9746 21.175C61.9808 21.1811 61.9993 21.1935 61.9993 21.1997L62.0116 21.212L62.0239 21.2243L62.1227 21.3231L62.135 21.3354L62.1473 21.3477L62.2954 21.5205L62.3695 21.5945C62.5052 21.7981 62.499 21.6562 62.6224 21.9215C62.6718 22.0264 62.6039 21.8845 62.6594 21.977C62.6903 22.0264 62.6718 22.0017 62.6903 22.0326C62.789 22.267 62.7582 22.0696 62.7705 22.2177C62.789 22.4706 62.8445 22.5879 62.8445 22.6742C62.8445 22.7976 62.8137 22.9087 62.8754 23.0136C62.8754 23.0136 62.9062 23.0444 62.9124 23.0691L62.9741 23.6614V23.6984C62.9803 23.791 62.9926 23.7971 62.9864 23.8403C62.9864 23.8465 62.9741 23.9329 62.9741 23.9576V23.9946C62.9803 24.0871 62.9926 24.0933 62.9864 24.1365C62.9864 24.1426 62.9741 24.229 62.9741 24.2537V24.2907C62.9803 24.3833 62.9926 24.3894 62.9864 24.4326C62.9864 24.4388 62.9741 24.5252 62.9741 24.5499V24.5869C62.9988 24.883 62.9803 25.4568 63.0111 25.6357C63.0296 25.7221 63.0605 25.7962 63.0666 25.8578L63.1407 26.407C63.1468 26.4995 63.1345 26.5921 63.1407 26.6846C63.1592 27.0795 63.1715 26.8203 63.2147 27.0424C63.2271 27.098 63.2085 27.1288 63.2147 27.1967C63.2209 27.3263 63.2085 27.2029 63.2702 27.3448C63.3196 27.4743 63.2826 27.5114 63.2949 27.5916C63.3628 28.0913 63.3073 27.6656 63.2949 27.9864C63.2888 28.1283 63.2702 28.0851 63.2209 28.2332L63.1962 28.3134C63.1345 28.4245 63.153 28.3073 63.1468 28.4553L63.0666 29.0476C63.0481 29.1217 63.0296 29.134 63.0234 29.1525L62.9309 29.35C62.8877 29.4425 62.9556 29.4116 62.8939 29.5104L62.7273 29.7942C62.7273 29.8003 62.7211 29.8065 62.7211 29.8127L62.6718 29.9731V30.0101C62.5545 30.1829 62.6841 30.1088 62.5607 30.2014C62.5422 30.2507 62.5545 30.2384 62.5422 30.2631L62.0178 31.022C61.9808 31.1083 62.0795 31.0158 61.9561 31.1083L61.808 31.3675C61.808 31.3736 61.8018 31.3798 61.7957 31.386L61.7586 31.4785C61.7586 31.4847 61.734 31.5155 61.7278 31.5217L61.8697 31.5896C61.8759 31.5896 61.882 31.5958 61.8882 31.5958C61.8944 31.5958 61.9006 31.6019 61.9067 31.6019L62.0671 31.676C62.0733 31.6821 62.0856 31.6883 62.0918 31.6883L62.5237 31.9721L62.6348 32.0462L62.9371 32.2744L63.2764 32.5768L64.0661 33.348C64.0908 33.3727 64.0847 33.3603 64.1032 33.385L64.4795 33.7614C64.5474 33.8416 64.4302 33.7675 64.5536 33.8539L64.8559 34.1377C65.0348 34.3105 64.8929 34.2549 65.0842 34.3845L65.1582 34.4585L65.2322 34.3845V34.0575L65.2076 33.8231C65.2199 33.749 65.2076 33.7922 65.2322 33.7552C65.1829 33.6503 65.2014 33.7305 65.2076 33.5948C65.2076 33.5886 65.2076 33.5763 65.2076 33.5701L65.2384 33.4529C65.1952 33.3603 65.1952 33.2184 65.2384 33.1505V32.8482V32.5459C65.2014 32.4595 65.2199 32.4842 65.2199 32.404C65.2199 32.3978 65.2137 32.3176 65.2137 32.3176C65.2199 32.2436 65.2137 32.2868 65.2384 32.2436C65.2014 32.1572 65.2199 32.1819 65.2199 32.1017C65.2199 32.0955 65.2137 32.0153 65.2137 32.0153C65.2199 31.9413 65.2137 31.9845 65.2384 31.9413C65.2014 31.8549 65.2199 31.8796 65.2199 31.7994C65.2199 31.7932 65.2137 31.713 65.2137 31.713C65.2199 31.6389 65.2137 31.6821 65.2384 31.6389C65.2014 31.5526 65.2199 31.5772 65.2199 31.497C65.2199 31.4909 65.2137 31.4107 65.2137 31.4107C65.2199 31.3366 65.2137 31.3798 65.2384 31.3366C65.2014 31.2502 65.2199 31.2749 65.2199 31.1947C65.2199 31.1885 65.2137 31.1083 65.2137 31.1083C65.2199 31.0343 65.2137 31.0775 65.2384 31.0343C65.2076 30.9541 65.2076 30.8492 65.2384 30.769V30.732C65.2076 30.6518 65.2076 30.5469 65.2384 30.4667V30.4297C65.2076 30.3495 65.2076 30.2446 65.2384 30.1644V30.1273C65.2076 30.0471 65.2076 29.9423 65.2384 29.862V29.825C65.2076 29.7448 65.2076 29.6399 65.2384 29.5597V29.5227C65.2076 29.4425 65.2076 29.3376 65.2384 29.2574V29.2204C65.2076 29.1402 65.2076 29.0353 65.2384 28.9551V28.9366C65.2076 28.8564 65.2076 28.7515 65.2384 28.6713V28.6343C65.2076 28.554 65.2076 28.4492 65.2384 28.369V28.3319C65.2076 28.2517 65.2076 28.1468 65.2384 28.0666V28.0296C65.2076 27.9494 65.2076 27.8445 65.2384 27.7643V27.7273C65.2076 27.6471 65.2076 27.5422 65.2384 27.462V27.425C65.2076 27.3448 65.2076 27.2399 65.2384 27.1597V27.1227C65.2076 27.0424 65.2076 26.9376 65.2384 26.8574V26.8203C65.2076 26.7401 65.2076 26.6352 65.2384 26.555V26.518C65.2076 26.4378 65.2076 26.3329 65.2384 26.2527V26.2219C65.2076 26.1417 65.2076 26.0368 65.2384 25.9566V25.9195C65.2076 25.8393 65.2076 25.7345 65.2384 25.6542V25.6172C65.2076 25.537 65.2076 25.4321 65.2384 25.3519V25.3149C65.2076 25.2347 65.2076 25.1298 65.2384 25.0496V25.0126C65.2076 24.9324 65.2076 24.8275 65.2384 24.7473V24.7103C65.2076 24.6301 65.2076 24.5252 65.2384 24.445V24.4079C65.2076 24.3277 65.2076 24.2229 65.2384 24.1426V24.1056C65.2076 24.0254 65.2076 23.9205 65.2384 23.8403V23.8033C65.2076 23.7231 65.2076 23.6182 65.2384 23.538V23.5072C65.2076 23.427 65.2076 23.3221 65.2384 23.2419V23.2048C65.2076 23.1246 65.2076 23.0197 65.2384 22.9395V22.9025C65.2076 22.8223 65.2076 22.7174 65.2384 22.6372V22.6002C65.2076 22.52 65.2076 22.4151 65.2384 22.3349V22.2979C65.2076 22.2177 65.2076 22.1128 65.2384 22.0326V21.9956C65.2076 21.9154 65.2076 21.8105 65.2384 21.7303V21.6932C65.2076 21.613 65.2076 21.5081 65.2384 21.4279V21.3909C65.2014 21.2984 65.2014 21.3724 65.2384 21.2799V21.2428C65.2014 21.1503 65.2014 21.2243 65.2384 21.1318V21.0948C65.2014 21.0022 65.2014 21.0763 65.2384 20.9837V20.9467C65.2014 20.8541 65.2014 20.9282 65.2384 20.8356V20.7924C65.2014 20.6999 65.2014 20.7739 65.2384 20.6814V20.6444C65.2014 20.5518 65.2014 20.6259 65.2384 20.5333V20.4963C65.2014 20.4038 65.2014 20.4778 65.2384 20.3852V20.3482C65.2014 20.2557 65.2014 20.3297 65.2384 20.2372V20.2001C65.2014 20.1076 65.2014 20.1816 65.2384 20.0891V20.0521C65.2014 19.9595 65.2014 20.0336 65.2384 19.941V19.904C65.2014 19.8115 65.2014 19.8855 65.2384 19.7929V19.7559C65.2014 19.6634 65.2014 19.7374 65.2384 19.6449V19.6078C65.2014 19.5153 65.2014 19.5893 65.2384 19.4968V19.4351C65.2014 19.3425 65.2014 19.4166 65.2384 19.324V19.287C65.2014 19.1945 65.2014 19.2685 65.2384 19.176V19.1389C65.2014 19.0464 65.2014 19.1204 65.2384 19.0279V18.9909C65.2014 18.8983 65.2014 18.9724 65.2384 18.8798V18.8428C65.2014 18.7502 65.2014 18.8243 65.2384 18.7317V18.6947C65.2014 18.6022 65.2014 18.6762 65.2384 18.5837V18.5466C65.2014 18.4541 65.2014 18.5281 65.2384 18.4356V18.3986C65.2014 18.306 65.2014 18.3801 65.2384 18.2875V18.2505C65.2014 18.1579 65.2014 18.232 65.2384 18.1394V18.1024C65.2014 18.0099 65.2014 18.0839 65.2384 17.9914V17.9543C65.2014 17.8618 65.2014 17.9358 65.2384 17.8433V17.8063C65.2014 17.7137 65.2014 17.7878 65.2384 17.6952V17.6582C65.2014 17.5656 65.2014 17.6397 65.2384 17.5471V17.5101C65.2014 17.4176 65.2014 17.4916 65.2384 17.3991V17.362C65.2014 17.2695 65.2014 17.3435 65.2384 17.251V17.214C65.2014 17.1214 65.2014 17.1955 65.2384 17.1029V17.0289C65.2014 16.9363 65.2014 17.0104 65.2384 16.9178V16.8808C65.2014 16.7883 65.2014 16.8623 65.2384 16.7697V16.7327C65.2014 16.6402 65.2014 16.7142 65.2384 16.6217V16.5846C65.2014 16.4921 65.2014 16.5661 65.2384 16.4736V16.4366C65.2014 16.344 65.2014 16.4181 65.2384 16.3255V16.2885C65.2014 16.196 65.2014 16.27 65.2384 16.1774V16.1404C65.2014 16.0479 65.2014 16.1219 65.2384 16.0294V15.9923V15.8566V15.8196C65.2014 15.727 65.2014 15.8011 65.2384 15.7085V15.6715V15.5605V15.5234C65.2014 15.4309 65.2014 15.5049 65.2384 15.4124V15.3754V15.2643V15.2273C65.2014 15.1347 65.2014 15.2088 65.2384 15.1162V15.0792V14.9682V14.9311V14.8201V14.7831V14.672V14.635V14.4993V14.4622C65.2446 14.3574 65.2446 14.382 65.2754 14.3142C65.331 14.2895 65.3741 14.2771 65.4358 14.2463L66.2194 14.0859H66.2564C66.3243 14.1167 66.3798 14.1291 66.4477 14.1599H66.4847L66.7747 14.2525C66.8981 14.2895 66.7438 14.2278 66.8611 14.2771V14.7707C66.8611 14.8324 66.8672 14.8633 66.8734 14.9003C66.8796 14.9682 66.8734 14.9311 66.8672 15.0052C66.8611 15.0792 66.8734 15.1718 66.8734 15.2273C66.8734 15.2705 66.8611 15.3569 66.8672 15.4741L66.8734 17.9914C66.8734 18.0346 66.8611 18.0654 66.8611 18.1209L66.7994 23.7478C66.8055 23.8403 66.7994 23.6984 66.7994 23.8218C66.7994 24.0069 66.7994 24.2907 66.8117 24.5067C66.8611 25.1915 66.824 26.0121 66.824 26.7155L66.8117 28.1037C66.7809 29.0538 66.8117 30.4358 66.8117 31.4168C66.8117 32.5336 66.8426 33.9218 66.8117 35.0077C66.8117 35.0385 66.824 35.131 66.824 35.2236C66.8364 35.8282 66.713 37.1732 67.0091 37.7224C67.0893 37.8704 67.114 38.0679 67.151 38.2591C67.2313 38.6417 67.2189 38.8823 67.2189 38.8885C67.2189 38.8946 67.2251 38.9008 67.2251 38.907L67.2313 39.018C67.2251 39.0489 67.2251 39.0365 67.2313 39.0735L67.2929 39.6967C67.2929 39.8077 67.2929 39.8633 67.2929 39.9805C67.2929 40.0299 67.2991 40.0669 67.2929 40.1101L67.2313 40.2705L67.0585 41.2823C67.0523 41.6463 66.9906 41.381 66.9845 41.597C66.9845 41.7574 66.9721 41.7142 66.9289 41.7759C66.8179 42.0474 66.787 42.8495 66.7994 43.1148L66.8179 43.2196C66.8549 43.306 66.9413 43.3245 66.9536 43.3245C67.0215 43.3492 67.04 43.3492 67.114 43.3184H67.151C67.2991 43.3801 67.1449 43.343 67.2744 43.3122L68.132 42.942L68.4344 42.7939L68.8848 42.4916C68.9341 42.4608 68.9526 42.4299 68.9896 42.4114C69.1315 42.3312 68.9341 42.4484 69.0637 42.3867C69.1254 42.3559 69.1562 42.3065 69.2241 42.2633L69.7115 41.924C69.7424 41.9733 69.8041 42.0412 69.767 42.1584L69.6375 42.3744L69.4462 42.6027C69.3166 42.6952 69.4339 42.6273 69.3537 42.7384C69.3475 42.7446 69.329 42.7692 69.3228 42.7754C69.2549 42.8618 69.2056 42.8926 69.1377 42.9667L68.8477 43.3554L68.7737 43.4294C68.7675 43.4356 68.7614 43.4479 68.7614 43.4541L68.2493 44.1081L68.1752 44.1821V44.2192C68.1135 44.3117 68.132 44.2562 68.1012 44.3672H68.1752H68.2122H68.3233H68.3603H68.4714H68.5084H68.6195H68.6565H68.7675H68.8045C69.1007 44.4906 69.9336 44.2685 70.1989 44.4413L70.273 44.5153H70.31L70.384 44.5523C70.3223 44.7066 70.4395 44.5832 70.3532 44.6695C70.2359 44.7806 70.4272 44.5893 70.2483 44.7127L70.1372 44.7929C70.1311 44.7929 70.1064 44.7991 70.1002 44.7991L70.0138 44.8485C69.9768 44.8732 70.0138 44.8546 69.9398 44.8917C69.9274 44.8978 69.8843 44.9163 69.8596 44.9225H69.8102H69.7732C69.7362 44.9472 69.7732 44.9287 69.6992 44.9657C69.6868 44.9719 69.6436 44.9904 69.619 44.9965H69.5819C69.44 45.0644 69.4092 45.0336 69.3166 45.0706L68.8539 45.2557C68.7367 45.3235 68.8539 45.3174 68.675 45.3359C68.7614 45.5518 68.5763 45.3852 68.965 45.6074C68.9711 45.6074 68.9835 45.6259 68.9896 45.6197C68.9958 45.6135 69.0081 45.632 69.0143 45.632C69.1686 45.7061 69.1809 45.6752 69.2303 45.6937C69.2364 45.6937 69.2426 45.6999 69.2488 45.7061L69.4277 45.7801L69.5017 45.8541H69.5387L69.8781 46.0824L69.9891 46.1565C70.1187 46.2428 70.1804 46.3045 70.3285 46.3848L70.4766 46.5328C70.5753 46.6007 70.5814 46.5637 70.6678 46.6809L70.8961 46.829L71.2354 47.1313L71.3095 47.2053L71.8401 47.5817L72.1424 47.884C72.2103 47.9827 72.3398 48.0753 72.383 48.1555C72.383 48.1616 72.3892 48.1678 72.3892 48.174L72.5249 48.4084C72.5743 48.5318 72.5126 48.5072 72.562 48.6367C72.4571 48.6429 72.4817 48.6429 72.4139 48.6737H72.3769C72.2905 48.6367 72.2535 48.6676 72.1116 48.5997H72.0745C71.6797 48.4084 71.2663 48.2419 70.9084 47.9951H70.8714C70.8591 47.9889 70.7912 47.9642 70.7912 47.9642C70.7048 47.921 70.7604 47.9519 70.7172 47.921C70.6555 47.8902 70.6061 47.8717 70.5321 47.8408C70.5074 47.8285 70.4642 47.81 70.4334 47.7915C70.2853 47.7113 70.0755 47.6804 70.0632 47.6372C70.057 47.6249 70.0447 47.6249 70.0385 47.6249L69.9645 47.6619L70.1125 47.81L70.1557 47.8408C70.1619 47.8408 70.1681 47.8532 70.1742 47.8532L70.637 48.1863L70.711 48.2604L70.8221 48.3344L70.9948 48.4516C71.001 48.4516 71.0072 48.4578 71.0072 48.464L71.1861 48.6059C71.254 48.6676 71.2354 48.6614 71.3095 48.7108C71.3157 48.7169 71.328 48.7231 71.3342 48.7231L71.3835 48.7478C71.439 48.7786 71.3897 48.7416 71.4514 48.791L71.8401 49.0809L71.9141 49.155L71.9882 49.229V49.3401C71.8771 49.3833 71.7784 49.3401 71.5624 49.2845L71.3465 49.192H71.3095L70.8961 48.9637H70.8591L70.748 48.8897H70.711L70.637 48.8156H70.6L70.2544 48.6306C70.0817 48.5442 70.1619 48.5503 70.0755 48.5874L70.0385 48.6614C70.1064 48.6676 70.0508 48.6552 70.1002 48.6737L70.2174 48.8033C70.2483 48.8527 70.2236 48.8218 70.2668 48.8527L70.3408 48.9267L70.4149 49.0007L70.5691 49.1303L70.5814 49.1426L70.5938 49.155L70.6555 49.2167L70.6678 49.229L70.9084 49.4511L70.9825 49.5252C71.1182 49.6177 71.1984 49.7411 71.3342 49.8522C71.3403 49.8583 71.365 49.8769 71.3774 49.8892L71.6982 50.1298L72.3028 50.7345L72.4509 50.8825L72.599 51.0306L72.673 51.1046L72.9383 51.3329L73.0864 51.481C73.1728 51.5365 73.1913 51.5674 73.2653 51.6414C73.3085 51.6846 73.3147 51.6908 73.364 51.7278L73.6478 51.9746C73.654 51.9808 73.6663 51.9808 73.6725 51.9869L74.1167 52.4126C74.3265 52.6224 74.3944 52.6286 74.4067 52.8013L74.3327 52.8754H74.2957H74.2586C74.1291 52.9309 74.2216 52.8877 74.1167 52.8569C74.1106 52.8569 74.0859 52.8507 74.0735 52.8507C74.0612 52.8507 73.9625 52.8384 73.9563 52.8384C73.8206 52.8075 73.9378 52.8384 73.8453 52.7952L73.5738 52.6964C73.5244 52.6718 73.5121 52.6718 73.4627 52.6533H73.4257H73.3887C73.3085 52.5422 73.3702 52.6162 73.29 52.5854L72.7902 52.3509C72.7532 52.3263 72.7902 52.3448 72.7224 52.3078C72.71 52.3016 72.6668 52.2831 72.6422 52.2769H72.6051H72.5681H72.5249L71.8833 52.0486C71.8463 52.0239 71.8833 52.0424 71.8092 52.0054C71.7969 51.9993 71.7537 51.9808 71.729 51.9746H71.692C71.6241 51.9437 71.5686 51.9314 71.5007 51.9005H71.4637C71.4144 51.8759 71.3959 51.8697 71.328 51.845L71.1552 51.7957C71.0874 51.7771 71.0997 51.7771 71.0442 51.7525H71.0072H70.9701C70.964 51.7463 70.9516 51.7401 70.9455 51.7401C70.9393 51.734 70.927 51.7278 70.9208 51.7278L69.9891 51.3823C69.9521 51.3576 69.9891 51.3761 69.9151 51.3391C69.9028 51.3329 69.8596 51.3144 69.8349 51.3082H69.8102L69.2426 51.08C69.2056 51.0553 69.2426 51.0738 69.1686 51.0368C69.1562 51.0306 69.113 51.0121 69.0884 51.0059H69.0513C69.0082 50.9874 68.9896 50.9812 68.9465 50.9627C68.8662 50.9257 68.9465 50.9627 68.8724 50.9257C68.8169 50.8949 68.7675 50.8825 68.712 50.8578L68.5146 50.7591C68.1691 50.6481 68.4035 50.6666 68.1691 50.6049C68.021 50.5679 68.0642 50.5494 67.9593 50.4815H67.9223C67.8667 50.4568 67.8235 50.4445 67.7619 50.4136C67.7557 50.4075 67.694 50.3766 67.6878 50.3766C67.657 50.3581 67.6508 50.3889 67.6385 50.3458C67.6323 50.3334 67.6199 50.3334 67.6138 50.3334C67.2868 50.1792 67.4904 50.2347 67.2868 50.1545C67.2436 50.136 67.2374 50.1298 67.2004 50.1051L67.003 50.0002C66.8672 49.9324 66.9043 49.9262 66.7809 49.92C66.7809 50.4445 66.7623 50.7283 66.7562 50.9812L66.8117 55.9973C66.8117 55.9973 66.8672 56.1145 66.8734 56.1207C66.9721 56.2934 67.0585 56.2749 67.1572 56.3243H67.1942C67.2436 56.3428 67.2374 56.3366 67.2806 56.3428C67.3176 56.349 67.3053 56.349 67.3793 56.3613C67.4842 56.386 67.4534 56.3613 67.5336 56.3983H67.5706C67.6755 56.4415 67.8297 56.4045 68.0518 56.4785L68.965 56.6266H69.002C69.0884 56.6636 69.2118 56.6389 69.3413 56.7006H69.3783C69.4832 56.7438 69.6745 56.7253 69.8041 56.7623C70.1187 56.8425 70.1372 56.7994 70.31 56.8611C70.458 56.9104 70.4704 56.8611 70.6185 56.9351H70.6555H70.6925H70.7295H70.7665H70.8036C70.9887 57.0215 70.9763 56.9721 71.075 56.9906L71.4699 57.0708C71.4761 57.0708 71.5007 57.0832 71.5069 57.0832L71.7352 57.1325C71.7414 57.1325 71.7537 57.1387 71.7537 57.1387L72.0437 57.2312H72.0807H72.1177C72.1547 57.2559 72.1177 57.2498 72.2164 57.2806L72.6175 57.4102C72.7224 57.441 72.6915 57.404 72.7964 57.4595H72.8334C72.9013 57.4904 72.9568 57.5027 73.0247 57.5336H73.0617C73.1728 57.5829 73.0247 57.5212 73.1481 57.5582L73.3579 57.6138C73.4998 57.6508 73.6293 57.657 73.7095 57.6816C73.8576 57.7187 73.9625 57.7433 74.055 57.7433C74.3697 57.7433 74.1291 57.8359 74.308 57.7618H74.345C74.4808 57.8174 75.0854 57.8174 75.1471 57.8174C75.2705 57.8174 75.6345 57.7927 75.7394 57.8359H75.7764H75.8134H75.8505H75.8875H75.9245C76.017 57.8729 75.943 57.8729 76.0355 57.8359C76.0417 57.8421 76.0541 57.8482 76.0602 57.8482L76.2638 57.9099H76.3008C76.3687 57.9408 76.4242 57.9531 76.4921 57.984L76.5415 58.0148C76.6834 58.095 76.6895 58.0703 76.6464 58.1752L77.2942 58.1876C77.5657 58.1814 78.6824 58.1505 78.8366 58.2122H78.8736C79.0217 58.2739 79.1266 58.1752 79.3611 58.2863H79.3981C79.5276 58.3418 79.4289 58.2554 79.5893 58.3603L79.6634 58.4344L79.7374 58.5454C79.7066 58.6565 79.7251 58.6071 79.6634 58.6935L79.5893 58.7675L79.5153 58.8416L77.9235 58.9711C77.8741 58.9773 77.9112 58.9711 77.8495 58.9773C77.7939 58.9773 77.7199 59.002 77.6335 58.9588L77.5903 59.0328L78.0222 59.3166C78.0284 59.3105 78.0407 59.329 78.0469 59.329C78.0963 59.3598 78.1148 59.3907 78.1518 59.4092C78.2937 59.4894 78.0963 59.3722 78.2258 59.4339C78.2875 59.4647 78.3184 59.5141 78.3862 59.5573L78.4973 59.6313C78.5466 59.6621 78.5405 59.6683 78.5837 59.6992C78.6207 59.7238 78.6639 59.7485 78.67 59.7547L78.6947 59.7794C78.7934 59.8657 78.8428 59.8596 78.9168 59.9891L79.0032 60.2483C78.997 60.6246 79.0526 60.4395 78.9107 60.6555C78.8551 60.6925 78.849 60.7048 78.8058 60.7357C78.6639 60.8282 78.5713 60.8529 78.3986 60.8961C78.3924 60.8961 78.3677 60.9023 78.3554 60.9023L78.0469 60.9516H78.0099C77.9173 60.9146 77.9914 60.9146 77.8988 60.9516H77.8618H77.8248H77.7878C77.652 61.0072 77.7754 60.9393 77.6335 60.9825C77.4299 61.0504 77.6644 61.0442 77.251 61.0442C76.7759 61.0442 76.9178 61.0997 76.6957 61.2539L76.5847 61.328C76.5291 61.365 76.5168 61.3897 76.4551 61.4267C76.4181 61.4452 76.3625 61.4637 76.3194 61.4822H76.2823C76.1404 61.5501 76.1096 61.5193 76.017 61.5563H75.98C75.8813 61.5995 75.7024 61.5686 75.5666 61.6303H75.5296C75.3877 61.5748 75.4988 61.6303 75.3692 61.6488C75.2828 61.6612 74.7707 61.618 74.5856 61.7043L74.4869 61.6797C74.4746 61.6797 74.4314 61.6858 74.4191 61.6858C74.3389 61.692 74.3635 61.6673 74.2772 61.7043H74.2401C74.1599 61.6735 74.055 61.6735 73.9748 61.7043L73.1913 61.6488C73.0185 61.6426 73.1419 61.5686 72.9938 61.6303H72.9568C72.8643 61.5933 72.9383 61.5933 72.8458 61.6303H72.8087C72.7285 61.5933 72.4756 61.5933 72.3954 61.6303H72.3583C72.2103 61.5686 72.3522 61.6056 72.2535 61.6303L71.5686 61.7043H71.5316C71.4514 61.6735 71.4637 61.6858 71.3157 61.7105L70.8776 61.729C70.5136 61.7722 70.2421 61.7352 70.1372 61.7784H70.1002H70.0632H70.0262C69.9336 61.8154 70.0077 61.8154 69.9151 61.7784H69.8781C69.8164 61.8031 69.5758 61.8277 69.4524 61.8339C69.3537 61.8401 69.2735 61.8092 69.1624 61.8524H69.1315H69.0945H69.0575C68.965 61.8894 69.039 61.8894 68.9465 61.8524H68.9094C68.7922 61.9018 68.1629 61.8771 68.0395 61.9265H68.0025C67.9099 61.8894 67.984 61.8894 67.8914 61.9265H67.8544C67.6816 61.8524 67.8421 62.0005 67.6631 61.9265H67.6261C67.441 62.0005 66.4415 61.8648 66.1577 62.0005H66.1207C65.985 61.945 66.0898 62.0005 65.9788 62.0128L65.331 62.0745H65.2939H65.2569H65.2199C65.1212 62.1177 65.1952 62.0807 65.115 62.0992C65.1088 62.0992 64.9916 62.1301 64.9916 62.1301C64.9052 62.1424 64.9114 62.1116 64.8065 62.1547H64.7695H64.7325H64.6955C64.5906 62.1979 64.2327 62.2041 64.1772 62.2164C64.0415 62.2535 64.2142 62.2411 64.0661 62.2473C63.9736 62.2535 63.9427 62.2226 63.77 62.2781C63.7638 62.2781 63.7453 62.2966 63.7453 62.2905C63.7391 62.2843 63.7268 62.2966 63.7206 62.3028C63.6281 62.2658 63.7021 62.2658 63.6096 62.3028H63.5726L62.6594 62.5188C62.5237 62.5743 62.5669 62.5249 62.4003 62.599H62.3448L61.808 62.6977C61.7525 62.71 61.7093 62.7162 61.6291 62.7532H61.5921C61.4625 62.8149 61.3391 62.7902 61.2527 62.8272H61.2157C61.1417 62.8581 61.0923 62.8458 61.0121 62.8519L60.7653 62.8643C60.5555 62.8766 60.2717 62.8334 60.1236 62.9013H60.0866C59.9941 62.8643 60.0681 62.8643 59.9756 62.9013H59.9386L59.7041 62.9198C59.6424 62.926 59.6979 62.926 59.5992 62.9321L59.5437 63ZM42.5953 62.4324V62.3954L42.6385 62.4262L42.5953 62.4324Z" fill="white" fill-opacity="0.85"/>
</svg>
