<svg width="100" height="80" viewBox="0 0 100 80" fill="none" xmlns="http://www.w3.org/2000/svg">
<path fill-rule="evenodd" clip-rule="evenodd" d="M31.4609 15.9688H31.5078L31.4667 16.0215L31.4609 15.9688ZM33.9531 16.0157H33.9062L33.9472 15.9629L33.9531 16.0157ZM31.3671 16.0626H31.414L31.3729 16.1154L31.3671 16.0626ZM30.5168 16.7194H30.5637L30.5226 16.7721L30.5168 16.7194ZM30.4229 16.8132H30.4699L30.4288 16.866L30.4229 16.8132ZM83.1526 17.0008V17.0477L83.0998 17.0067L83.1526 17.0008ZM28.7751 17.5696V17.6166L28.7224 17.5755L28.7751 17.5696ZM79.3409 17.5696H79.3878L79.3468 17.6224L79.3409 17.5696ZM32.446 17.7104H32.3991L32.4402 17.6576L32.446 17.7104ZM31.6954 18.2733H31.6485L31.6896 18.2206L31.6954 18.2733ZM83.4809 18.5079H83.434L83.4751 18.4551L83.4809 18.5079ZM80.0974 19.0239V18.977L80.1502 19.0181L80.0974 19.0239ZM30.6575 20.2026V20.2495L30.6047 20.2085L30.6575 20.2026ZM17.6276 20.7656H17.6745L17.6334 20.8183L17.6276 20.7656ZM83.7155 20.9532V21.0001L83.6627 20.9591L83.7155 20.9532ZM29.6254 22.085V22.1319L29.5727 22.0908L29.6254 22.085ZM81.0356 22.085H81.0826L81.0415 22.1377L81.0356 22.085ZM21.2046 22.8356L21.2164 22.8473C21.2164 22.8473 21.1988 22.8414 21.2046 22.8356ZM80.6603 23.2109H80.7072L80.6662 23.2636L80.6603 23.2109ZM17.4399 23.9673H17.4868L17.4458 24.0201L17.4399 23.9673ZM80.6603 23.9673H80.7072L80.6662 24.0201L80.6603 23.9673ZM84.4661 24.0142H84.4192L84.4602 23.9615L84.4661 24.0142ZM84.4661 24.3895H84.4192L84.4602 24.3368L84.4661 24.3895ZM80.4727 24.5303H80.5196L80.4785 24.5831L80.4727 24.5303ZM78.4027 25.4685H78.4496L78.4085 25.5213L78.4027 25.4685ZM32.6806 25.662H32.7275L32.6865 25.7148L32.6806 25.662ZM30.6575 25.8497V25.8966L30.6047 25.8556L30.6575 25.8497ZM30.7982 26.0373H30.8452L30.8041 26.0901L30.7982 26.0373ZM74.7318 26.1312H74.7787L74.7376 26.1839L74.7318 26.1312ZM74.6379 26.225H74.6849L74.6438 26.2778L74.6379 26.225ZM34.8913 29.6086C34.8444 29.6437 34.9089 29.6086 34.8034 29.6613C34.8034 29.6613 34.7213 29.6965 34.7037 29.7024H34.6568L34.5161 29.7962C34.5043 29.8021 34.4926 29.8021 34.4867 29.8138C34.4809 29.8255 34.4633 29.8255 34.4574 29.8314L34.2346 29.9839C34.0059 29.5147 34.2111 29.6613 34.0587 29.4092C34 29.3095 34.0235 29.374 34.0176 29.2919C34.0176 29.2802 34.0235 29.2567 34.0235 29.245C34.0176 29.2157 34.0176 29.2039 34.0059 29.1746L33.7479 28.4182C33.7303 28.3595 33.7537 28.3302 33.742 28.2774C33.7009 28.1132 33.654 28.2774 33.6482 28.0429C33.6423 27.8845 33.6364 27.8845 33.5309 27.7262C33.7537 27.6324 33.5192 27.8142 33.7303 27.6441L33.9531 27.4916C34.0059 27.4506 33.9766 27.4916 34.0117 27.433L34.2111 27.1046C34.217 27.087 34.2053 27.0284 34.2053 27.0108C34.2287 26.8994 34.2404 26.917 34.3695 26.8818C34.5278 27.1632 34.475 26.9111 34.5806 27.4095C34.5806 27.4154 34.5864 27.4271 34.5864 27.433C34.6157 27.5151 34.6451 27.4916 34.6744 27.6441C34.6861 27.7086 34.6627 27.7555 34.6861 27.8142C34.7389 27.9432 34.733 27.8024 34.7741 27.9549L34.9559 28.9635C34.9852 29.0867 35.2373 29.3799 34.8913 29.6086ZM76.8956 27.779L77.0833 27.9666C77.1243 28.0722 77.1067 27.9783 77.1184 28.1015C77.1302 28.2364 77.1302 28.2012 77.0833 28.295C76.9836 28.3595 76.9894 28.3712 76.9073 28.3712C76.8721 28.3712 76.8604 28.3712 76.8252 28.3595C76.708 28.3243 76.749 28.3243 76.708 28.295L76.1919 28.1074L76.0512 28.0135L75.9222 27.9432C75.6817 27.8611 75.6524 27.8552 75.5351 27.6793C75.7052 27.3626 75.7404 27.3685 75.7697 27.3274C75.9104 27.1515 75.67 27.4858 75.799 27.2688C75.8635 27.1632 75.8635 27.175 75.9574 27.1163L76.0512 27.0225L76.2388 26.9756C76.2857 27.175 76.2682 27.0518 76.3385 27.1808C76.5379 27.5327 76.4324 27.5561 76.8956 27.779ZM31.7893 27.3978H31.7424L31.7834 27.345L31.7893 27.3978ZM78.8718 27.304H78.9187C79.1181 27.3861 78.907 27.3216 79.0712 27.2923L79.4465 27.2805C79.4523 27.2805 79.4641 27.2864 79.4699 27.2864L79.6224 27.2981H79.6693C79.8394 27.3685 80.3085 27.3157 80.4844 27.3685C80.6779 27.4271 80.5782 27.5444 80.6134 27.7672L80.8128 28.5002C80.8363 28.6117 80.848 29.2098 80.7483 29.415C80.6134 29.3505 80.4961 29.3623 80.2557 29.3095C80.1384 29.286 79.857 29.2684 79.7631 29.2274C79.681 29.0339 79.7983 29.2333 79.7162 29.0397C79.552 28.9166 79.6986 29.0397 79.6165 28.811C79.5696 28.682 79.6165 28.8286 79.5638 28.6938C79.4523 28.4006 79.2647 28.2598 79.1533 28.0956C79.0125 28.0018 78.9656 27.9608 78.7311 27.9549L78.5434 28.0956C78.473 28.2012 78.4672 28.1836 78.3851 28.2716C78.215 28.4651 78.3909 28.2598 78.303 28.4709L78.3968 28.5178C78.561 28.7583 78.5375 28.5589 78.6783 28.7524C78.561 28.7993 78.6548 28.7993 78.5375 28.7524H78.4906C78.2092 28.6351 78.0801 28.8462 77.6638 28.6351C77.6521 28.6293 77.6403 28.6234 77.6286 28.6175C77.5524 28.5765 77.4586 28.5589 77.4703 28.3595C77.4761 28.254 77.4644 28.3067 77.5465 28.1836V28.1367C77.5993 28.0135 77.57 27.8787 77.57 27.7496C77.57 27.5972 77.5348 27.5327 77.4527 27.3392C77.8866 27.3509 78.6724 27.3861 78.8718 27.304ZM33.9531 27.4916H33.9062L33.9472 27.4389L33.9531 27.4916ZM31.6016 27.5855H31.5547L31.5958 27.5327L31.6016 27.5855ZM33.0559 28.295V28.3419C33.1145 28.4885 33.1556 28.7817 33.2436 28.9049L33.4781 30.0366L33.1966 29.8021L33.1028 29.7082C33.0911 29.7024 33.0735 29.6789 33.0735 29.6907C33.0676 29.6965 33.05 29.6789 33.0442 29.6731L32.9562 29.5675C32.6923 29.2098 32.8858 29.2567 32.7803 28.9518C32.7216 28.7817 32.7627 28.9401 32.7158 28.8052C32.6806 28.7055 32.7334 28.7993 32.6806 28.6762C32.5868 28.5413 32.6396 28.5765 32.6102 28.4768C32.5926 28.424 32.6161 28.4709 32.575 28.4064C32.5516 28.3712 32.5281 28.3536 32.493 28.3009C32.3757 28.2188 32.4812 28.2715 32.3698 28.1484L32.2408 28.037C32.2349 28.0311 32.2232 28.0253 32.2115 28.0194C32.0356 27.949 31.9652 28.0135 31.8362 28.207L31.7424 28.3595C31.3905 29.0339 31.713 28.4944 31.5195 29.0397C31.4198 29.3271 31.5312 29.2333 31.4609 29.5675H31.3201C31.2908 29.4385 31.2908 29.4795 31.238 29.3623C31.2322 29.3447 31.2087 29.2802 31.2087 29.2743L30.9918 28.858C30.5989 28.6703 30.8393 28.7876 30.6165 28.5296L30.851 28.1543L30.9918 28.0604H31.0387C31.1208 28.0077 31.0445 28.0546 31.1208 28.0018C31.2087 27.9373 31.1618 27.9666 31.238 27.9314C31.3964 27.8493 31.3201 27.9314 31.4198 27.7848L31.5606 27.691L31.6075 27.5972L31.7951 27.4095C31.9065 27.3626 32.7158 27.3861 32.7275 27.3919L33.0559 28.295ZM37.149 27.6324V27.6793L37.0962 27.6382L37.149 27.6324ZM65.8888 27.6324H65.9357L65.8946 27.6851L65.8888 27.6324ZM31.414 27.779H31.3671L31.4081 27.7262L31.414 27.779ZM37.2428 27.7321V27.779L37.1901 27.7379L37.2428 27.7321ZM76.8956 27.779V27.7321L76.9484 27.7731L76.8956 27.779ZM80.6603 27.7321L80.6721 27.7438C80.6721 27.7438 80.6545 27.7321 80.6603 27.7321ZM84.4661 27.779H84.4192L84.4602 27.7262L84.4661 27.779ZM77.0833 27.9666V27.9197L77.136 27.9608L77.0833 27.9666ZM30.8452 28.1543H30.7982L30.8393 28.1015L30.8452 28.1543ZM76.1919 28.1074V28.1543L76.1391 28.1132L76.1919 28.1074ZM31.8362 28.2012H31.8831L31.842 28.254L31.8362 28.2012ZM36.07 28.3419V28.295L36.1228 28.3361L36.07 28.3419ZM77.0833 28.295H77.1302L77.0891 28.3478L77.0833 28.295ZM78.4027 28.5296V28.4827L78.4554 28.5237L78.4027 28.5296ZM25.5323 28.7172V28.6703L25.5851 28.7114L25.5323 28.7172ZM78.6841 28.7641H78.7311L78.69 28.8169L78.6841 28.7641ZM16.314 28.858H16.3609L16.3199 28.9107L16.314 28.858ZM33.2436 28.9049V28.858L33.2963 28.899L33.2436 28.9049ZM79.7631 29.2333V29.2802L79.7104 29.2391L79.7631 29.2333ZM64.8567 29.4209H64.9036L64.8626 29.4737L64.8567 29.4209ZM64.7629 29.5147H64.8098L64.7687 29.5675L64.7629 29.5147ZM16.1264 29.6086H16.1733L16.1322 29.6613L16.1264 29.6086ZM31.3671 29.6086L31.3788 29.6203C31.3788 29.6261 31.3612 29.6144 31.3671 29.6086ZM64.669 29.6086H64.716L64.6749 29.6613L64.669 29.6086ZM33.1028 29.7024V29.7493L33.05 29.7082L33.1028 29.7024ZM24.8286 29.7962V29.8431L24.7759 29.8021L24.8286 29.7962ZM33.1966 29.7962V29.8431L33.1439 29.8021L33.1966 29.7962ZM64.1941 29.8959H64.241L64.1999 29.9487L64.1941 29.8959ZM88.5592 30.365H88.6061L88.5651 30.4178L88.5592 30.365ZM25.157 30.9749L25.2508 31.0687L25.3447 31.1625C25.4092 31.2094 25.245 31.2094 25.4854 31.2094C25.4033 31.403 25.5206 31.2036 25.4385 31.3971V31.444L25.2978 31.5847H25.2508L24.8345 31.7841C24.7641 31.8193 24.7055 31.8369 24.6351 31.8721H24.5941C24.512 31.9131 24.4416 31.9249 24.3595 31.9659H24.3126L24.0604 32.0421C24.0546 32.0421 24.037 32.0539 24.0311 32.0597C23.9138 32.0128 24.0077 32.0128 23.8904 32.0597H23.8435C23.7262 32.0128 23.82 32.0128 23.7027 32.0597H23.6558C23.5385 32.0128 23.6324 32.0128 23.5151 32.0597C23.4623 31.9542 23.4858 31.6317 23.6206 31.6141C23.7496 31.5965 24.0077 31.5906 24.2188 31.4499L24.4064 31.2622L24.5941 31.0746V30.9338V30.8869L24.641 30.6054C24.6938 30.6348 24.7055 30.6348 24.7583 30.6758L25.157 30.9749ZM63.9126 30.7403H63.9595L63.9184 30.7931L63.9126 30.7403ZM92.3709 30.7403V30.7872L92.3181 30.7462L92.3709 30.7403ZM25.157 30.9749V30.928L25.2098 30.969L25.157 30.9749ZM25.2508 31.0687V31.0218L25.3036 31.0628L25.2508 31.0687ZM25.3447 31.1625V31.1156L25.3974 31.1567L25.3447 31.1625ZM22.1898 31.2564H22.2367H22.2836L22.7997 31.3502C22.7821 31.5847 22.7234 31.5906 22.6648 31.7372C22.5886 31.919 22.6765 31.8955 22.612 32.0597C22.5416 32.0128 22.5299 31.9952 22.4478 31.9425C22.395 31.9073 22.4126 31.9307 22.3775 31.8955C22.3716 31.8897 22.3657 31.8838 22.3657 31.8779C22.3599 31.8779 22.354 31.8662 22.354 31.8604C22.3481 31.8545 22.3423 31.8486 22.3423 31.8428L22.2719 31.7958C22.266 31.79 22.2484 31.7841 22.2426 31.7783C22.1429 31.7313 22.0549 31.7196 21.9201 31.7724H21.8731L21.7324 31.8662H21.6855C21.5154 31.9776 21.3102 32.265 21.2457 32.394C21.2457 32.3998 21.2398 32.4116 21.2398 32.4174C21.0229 32.9393 21.0815 32.652 20.7942 32.998C20.7648 33.0332 20.7531 33.0683 20.7062 33.0977C20.6006 33.1622 20.5479 33.1153 20.413 33.1798H20.3661C20.284 33.2208 20.2136 33.2325 20.1315 33.2736C20.0787 33.1446 20.1081 32.9335 20.1081 32.7927C20.1081 32.6872 20.1081 32.6755 20.1139 32.5289L20.1198 32.4409C20.1198 32.435 20.1257 32.4233 20.1257 32.4174C20.1257 32.4116 20.1315 32.3998 20.1315 32.394C20.1315 32.3881 20.1374 32.3764 20.1374 32.3705L20.3309 31.3619C20.413 31.2212 20.4306 31.3795 20.3602 31.2094L21.6444 31.186C21.7265 31.186 21.7793 31.1801 21.8556 31.1919C21.8731 31.1919 21.9846 31.2036 22.008 31.2036C22.0139 31.2036 22.0901 31.2094 22.096 31.2153C22.1898 31.2329 22.1429 31.227 22.1898 31.2564ZM70.1695 31.5378H70.1226L70.1637 31.4851L70.1695 31.5378ZM70.4979 31.5378V31.4909L70.5507 31.532L70.4979 31.5378ZM70.4979 32.2474C70.3044 32.3764 70.3572 32.394 70.322 32.4409L70.2751 32.4878C70.1871 32.5875 70.3279 32.5054 70.1637 32.6227L69.8705 32.9687C69.6945 33.2853 69.7121 33.127 69.5479 33.3733L68.9264 34.0946C68.8443 34.2529 68.9264 34.2881 68.4514 34.2881L67.3137 34.3936C67.3137 34.3995 67.302 34.4112 67.302 34.4112L67.2961 34.4288C67.2961 34.4288 67.2903 34.4405 67.2903 34.4464C66.4107 34.4464 66.827 34.3409 66.3989 34.3057L66.352 33.7427C66.182 33.6196 66.3168 33.7662 66.2699 33.5785C66.2406 33.4554 66.2172 33.4436 66.1644 33.3616L66.352 33.2208C66.5397 33.0918 66.5925 33.1153 66.657 33.0918C66.7801 33.0566 66.7273 33.0625 66.7742 33.0332C66.9619 32.9569 66.786 33.039 66.9091 33.0038C66.9208 33.0038 66.956 32.9921 66.9678 32.9863C67.0381 32.9569 67.0205 32.9569 67.0557 32.9335C67.2434 32.8103 67.2082 32.8983 67.431 32.7458L67.5718 32.652H67.6187C67.7946 32.5699 67.8356 32.6051 67.9471 32.5582H67.994H68.0409H68.0878C68.2051 32.5113 68.1112 32.5113 68.2285 32.5582H68.2754C68.4044 32.5054 68.3927 32.5464 68.5041 32.5289C68.5041 32.5289 68.6507 32.4937 68.6625 32.4937C68.768 32.4702 68.6742 32.5171 68.7973 32.4644H68.8443C69.0319 32.3881 68.856 32.4702 68.9791 32.435C68.9909 32.435 69.026 32.4233 69.0378 32.4233C69.1081 32.394 69.0905 32.394 69.1257 32.3705H69.1726H69.2196L69.5362 32.1711C69.5831 32.136 69.5831 32.1301 69.6418 32.0891H69.6887C69.7415 32.0539 69.7942 32.0245 69.8353 31.96C69.9291 31.8017 69.6945 31.9718 69.9232 31.8076L70.1578 31.5261C70.3455 31.6023 70.2399 31.4264 70.4862 31.5261L70.6504 31.8428C70.6856 31.96 70.5859 32.0773 70.4979 32.2474ZM23.5092 32.0539V32.1008L23.4564 32.0597L23.5092 32.0539ZM24.0253 32.0539H24.0722L24.0311 32.1066L24.0253 32.0539ZM16.314 32.2474H16.3609L16.3199 32.3002L16.314 32.2474ZM70.4979 32.2474H70.5448L70.5038 32.3002L70.4979 32.2474ZM51.0234 32.3412H51.0703L51.0292 32.394L51.0234 32.3412ZM69.1375 32.3881H69.0905L69.1316 32.3353L69.1375 32.3881ZM50.9296 32.435H50.9765L50.9354 32.4878L50.9296 32.435ZM71.3013 33.7486L71.2075 33.8424L71.1254 33.8952C70.8498 34.1415 70.9788 33.9949 70.7794 34.0711C70.709 34.1004 70.7266 34.1004 70.6914 34.1239C70.5742 34.077 70.668 34.077 70.5507 34.1239H70.5038H70.4569H70.41H70.363H70.3161C70.1989 34.1708 70.2927 34.1708 70.1754 34.1239H70.1285H70.0816L69.9819 33.989L70.1285 33.8893L70.1754 33.7955H70.2223L70.3279 33.643C70.3279 33.6372 70.3337 33.6254 70.3396 33.6196L70.5859 33.3146C70.7383 33.1094 70.4451 33.3146 70.6914 33.1387C70.7618 33.0332 70.7677 33.0508 70.8498 32.9628C70.9612 32.8338 70.8674 32.9452 70.9025 32.869C70.9143 32.8397 70.9084 32.8338 70.9495 32.781C71.0726 32.611 71.1254 32.6403 71.1957 32.4702L71.2075 32.4292C71.4538 32.4937 71.272 32.5113 71.4479 32.6989C71.5593 32.8103 71.747 32.9569 71.6355 33.2853L71.3013 33.7486ZM67.4427 32.7634H67.3958L67.4369 32.7106L67.4427 32.7634ZM16.1264 32.8103H16.1733L16.1322 32.8631L16.1264 32.8103ZM67.0675 32.9511H67.0205L67.0616 32.8983L67.0675 32.9511ZM66.786 33.0449H66.7391L66.7801 32.9921L66.786 33.0449ZM95.1915 33.1856V33.2325L95.1387 33.1915L95.1915 33.1856ZM59.6318 33.3733V33.4202L59.579 33.3791L59.6318 33.3733ZM69.5597 33.3733H69.6066L69.5655 33.4261L69.5597 33.3733ZM95.3791 33.3733V33.4202L95.3263 33.3791L95.3791 33.3733ZM52.9057 33.4202H52.9527C53.0582 33.4612 53.498 33.4378 53.6974 33.5023L54.4187 33.6313C54.448 33.6372 54.7295 33.6782 54.8057 33.6841C55.1751 33.7017 55.2279 33.7779 55.5094 33.7779C55.5446 33.7779 55.6091 33.772 55.6501 33.7779L55.826 33.7955H55.873C56.0489 33.8776 56.0899 33.8424 56.2013 33.8893H56.2483H56.2952H56.3421C56.5121 33.9714 56.735 33.9304 56.8581 33.9831H56.905C57.1103 34.0711 57.21 33.9714 57.3742 34.077C57.4914 34.0301 57.3976 34.0301 57.5149 34.077H57.5618H57.6087H57.6556C57.8902 34.1767 57.5853 33.9714 58.0075 34.2001C58.072 34.2353 58.1365 34.2412 58.1599 34.247C58.1658 34.247 58.1775 34.2529 58.1834 34.2529L58.3476 34.2705C58.4355 34.247 58.5118 34.2177 58.6408 34.2705H58.6877C58.8108 34.2177 58.6936 34.2529 59.0278 34.3467L59.0982 34.376C59.2155 34.4171 59.1451 34.3995 59.2976 34.4171C59.4911 34.4405 59.4735 34.4347 59.5908 34.4347C59.6494 34.4347 59.6494 34.4288 59.708 34.4464C59.8664 34.4933 59.6729 34.5402 59.8605 34.4581H59.9074C60.1127 34.5578 60.3883 34.4992 60.5173 34.552H60.5642C60.6815 34.5989 60.5877 34.5989 60.7049 34.552H60.7519C61.004 34.6751 61.0157 34.5813 61.1741 34.6458H61.221C61.35 34.6986 61.2562 34.6634 61.3734 34.6692L62.0243 34.7396H62.0713C62.2061 34.8041 62.1006 34.7631 62.2589 34.7865C62.3293 34.7982 62.2824 34.7807 62.3469 34.7924C62.4407 34.81 62.3938 34.8041 62.4466 34.8334L63.4904 34.9624C63.8598 34.9683 64.1002 34.8217 64.4228 35.3026C64.5752 35.414 64.4345 35.3201 64.5166 35.4198L64.6573 35.5606C64.6984 35.6016 64.9329 35.8245 65.0092 36.0356C65.1264 36.364 65.0326 37.654 65.0326 38.0293L64.974 38.0528C64.9212 38.0704 64.9916 38.0352 64.8919 38.0763H64.845H64.7981H64.7511H64.7042H64.6573C64.54 38.0293 64.6339 38.0293 64.5166 38.0763H64.4697C64.3289 38.0176 64.3348 38.0938 63.9654 37.9766L63.4611 37.8534C63.033 37.7948 62.9626 37.8124 62.5287 37.8124C62.1885 37.8124 62.4524 37.8182 62.0771 37.7361C61.9481 37.7068 61.9833 37.7361 61.8836 37.6951H61.8367L61.696 37.6013H61.6491L61.5552 37.5485C61.6373 37.355 61.52 36.9973 61.6021 36.7979C61.0275 36.751 61.2855 36.9152 61.0392 36.751H60.9923C60.6698 36.5985 60.6991 36.8272 60.5114 36.9093C60.4528 36.9386 60.3179 36.9034 60.1948 36.8448C60.1596 36.8976 60.1361 36.9152 60.1127 36.9504C60.0364 37.0735 60.0892 37.1321 59.9602 37.4078C59.7315 37.2553 59.8488 37.1732 59.4911 37.1732C59.5321 37.267 59.5321 37.2436 59.4676 37.3843C59.3855 37.5778 59.4031 37.6482 59.063 37.8769H59.0161C58.8284 37.9531 58.6936 37.871 58.6056 37.8417L58.3124 37.6892L58.1717 37.5954L58.0778 37.5016L57.468 37.0325L57.3448 36.9328C57.339 36.9269 57.3331 36.921 57.3331 36.9152L57.2334 36.8448C57.0927 36.7451 57.1572 36.7451 57.1572 36.7451C57.1572 36.7393 57.1513 36.7275 57.1455 36.7275C57.1396 36.7217 57.1337 36.7158 57.1279 36.7099C57.122 36.7041 57.1103 36.6982 57.1044 36.6923C57.0985 36.6865 57.081 36.6806 57.0751 36.6747C57.0692 36.6689 57.0516 36.663 57.0458 36.6572C56.8698 36.534 57.0458 36.6337 56.9226 36.5047C56.9168 36.4988 56.9109 36.493 56.905 36.4871C56.6587 36.2408 56.8992 36.405 56.7174 36.276L56.6236 36.1822L56.0137 35.6192L55.7791 35.4316L55.656 35.3671C55.5856 35.3201 55.6091 35.3436 55.5563 35.2791C55.5035 35.2029 55.4566 35.0973 55.398 35.0152C55.2162 35.0152 54.9406 35.0269 54.8409 35.0387C54.448 35.0739 54.4128 35.1208 54.2662 35.3847C54.1606 35.5782 54.1724 35.4667 53.9378 35.6309C53.8205 35.713 53.7267 35.7424 53.6094 35.8186L53.41 35.9476C53.2165 36.0707 53.457 35.9124 53.2341 36.0062H53.1872C53.1403 36.0414 53.1344 36.0473 53.0817 36.0707C53.0758 36.0707 53.0641 36.0766 53.0582 36.0766L52.9878 36.1001C52.982 36.1001 52.9702 36.1059 52.9644 36.1118L52.6712 36.1998H52.6243C52.5422 36.2408 52.4718 36.2525 52.3897 36.2936H52.3428C52.2607 36.3346 52.1903 36.3464 52.1082 36.3874H52.0613C51.9675 36.4285 51.9909 36.4226 51.8619 36.4519C51.7271 36.4812 51.8502 36.4167 51.6802 36.5281L51.6919 34.81C51.6274 34.3995 51.6919 34.5226 51.6156 34.2588C51.6156 34.2529 51.6098 34.2412 51.6098 34.2353C51.6098 34.2236 51.6039 34.1767 51.6039 34.1649C51.5922 33.6254 51.4749 33.0156 52.419 33.3322L52.4659 33.3498C52.4777 33.3498 52.5363 33.3616 52.548 33.3616C52.7415 33.3909 52.8236 33.385 52.9057 33.4202ZM70.1695 33.7955H70.1226L70.1637 33.7427L70.1695 33.7955ZM63.6311 33.8893V33.8424L63.6839 33.8835L63.6311 33.8893ZM63.6311 33.9362H63.678L63.637 33.989L63.6311 33.9362ZM65.4666 33.9831H65.4196L65.4607 33.9304L65.4666 33.9831ZM65.4666 33.9831L65.5604 34.0359C65.4783 34.2294 65.5956 34.5871 65.5135 34.7865C65.3551 34.7103 65.2965 34.7513 65.1734 34.5344C65.0971 34.3995 65.2203 34.6106 65.1499 34.4699C65.1147 34.3995 65.0854 34.3878 65.0443 34.3174C65.1089 34.2763 65.0854 34.2881 65.1499 34.2353C65.1616 34.2294 65.1909 34.2001 65.2027 34.1884C65.2906 34.118 65.2261 34.1767 65.2906 34.1356C65.2965 34.1297 65.3082 34.1239 65.3141 34.118L65.3493 34.0887C65.3551 34.0887 65.361 34.077 65.361 34.0711L65.4666 33.9831ZM11.8456 34.1239V34.1708L11.7928 34.1297L11.8456 34.1239ZM41.6643 34.1239V34.1708L41.6116 34.1297L41.6643 34.1239ZM70.0757 34.1239V34.1708L70.0229 34.1297L70.0757 34.1239ZM70.6856 34.1239H70.7325L70.6914 34.1767L70.6856 34.1239ZM37.5243 34.4581H37.4774L37.5185 34.4054L37.5243 34.4581ZM8.78457 34.505H8.83148L8.79043 34.5578L8.78457 34.505ZM37.4305 34.552H37.3836L37.4246 34.4992L37.4305 34.552ZM37.4305 34.552L37.5243 34.4581C37.6944 34.3878 37.6826 34.4464 37.7706 34.4757C37.9231 34.5226 38.0638 34.4288 38.1752 34.5168C38.4332 34.722 38.0873 34.5695 38.3218 34.7396L38.3746 34.8862C38.5153 35.1266 38.3277 34.7455 38.4274 34.9566C38.445 34.9976 38.4391 34.9976 38.445 35.0328L38.3629 35.326C38.357 35.326 38.3453 35.3319 38.3394 35.3319L37.8058 35.4433H37.7589L37.4657 35.2615C37.2252 35.109 37.2663 34.9038 37.3191 34.7924L37.4305 34.552ZM8.40927 34.6927H8.45618L8.41513 34.7455L8.40927 34.6927ZM38.3277 34.7396V34.6927L38.3805 34.7337L38.3277 34.7396ZM8.03397 34.8803H8.08088L8.03983 34.9331L8.03397 34.8803ZM72.9902 35.2087C73.0781 35.2732 73.0429 35.2498 73.0605 35.2908L73.1778 35.584C73.2951 35.672 73.2071 35.5899 73.254 35.6896C73.3596 35.9183 73.342 35.7424 73.3479 35.9241C73.3479 36.2232 73.3009 36.1177 73.4182 36.2877V36.3346L73.5355 36.7979C73.5472 36.8507 73.5296 36.88 73.5414 36.9679C73.5707 37.1439 73.6 37.1204 73.6235 37.2377C73.6352 37.3022 73.6117 37.3491 73.6352 37.4019C73.6938 37.5426 73.6411 37.3784 73.6997 37.4957L73.7818 37.7479C73.8815 37.9414 73.6704 37.7831 73.8815 37.9355L73.9284 38.088C73.9343 38.0938 73.9401 38.1056 73.946 38.1114L74.1043 38.4398C74.1043 38.4457 74.116 38.4574 74.116 38.4633C74.1219 38.4691 74.1278 38.4809 74.1336 38.4867C74.2275 38.6568 74.1688 38.6216 74.2626 38.6861L74.4972 39.1552C74.72 39.3136 74.4327 39.1435 74.6497 39.3781C74.7024 39.4367 74.7142 39.425 74.7494 39.4954C74.808 39.6126 74.6673 39.5071 74.8315 39.6244L74.6907 39.7651L74.4972 39.8589C74.3741 39.8941 74.3916 39.8883 74.3037 39.8883C74.075 39.8883 73.3948 39.8589 73.1895 39.9586H73.1426C73.0019 40.0173 72.1399 40.0524 71.8525 40.0876C71.5945 40.1169 71.4186 40.1052 71.3072 40.1521C71.1664 40.246 71.1547 40.2225 70.9905 40.2225C70.9377 40.2225 70.8849 40.2284 70.8439 40.2225C70.6211 40.1815 70.7208 40.158 70.709 40.1463C70.7032 40.1404 70.6973 40.1345 70.6973 40.1287L70.3924 39.7065C70.363 39.6537 70.3455 39.6302 70.322 39.5892C70.1637 39.4719 70.2575 39.6126 70.2516 39.4367C70.2458 39.3194 70.2692 39.3898 70.1813 39.2608V39.2139C70.1578 38.9559 70.1637 38.9676 70.0698 38.9031L69.9467 38.8327L69.8529 38.8855C69.759 38.7037 69.7825 38.7565 69.6124 38.6451L69.5245 38.5923C69.5186 38.5864 69.4424 38.5454 69.4307 38.5454C69.3544 38.5102 69.3017 38.4926 69.2313 38.4633H69.1844C69.0905 38.4164 69.1199 38.4164 68.985 38.4281C68.768 38.4457 68.856 38.5806 68.7504 38.6861C68.6507 38.7799 68.7387 38.7037 68.5217 38.6978C68.3869 38.692 68.3575 38.7154 68.293 38.7154C68.0878 38.7096 67.7008 38.6627 67.5307 38.7448C67.4017 38.5512 67.4134 38.692 67.4134 38.3812L67.4193 36.3112C67.4603 36.1704 67.431 36.3229 67.4545 36.2174L67.4838 35.8303C67.56 35.8245 67.5718 35.8245 67.6363 35.8127L68.4455 35.5195C68.4514 35.5137 68.4631 35.5078 68.4748 35.5019C68.8032 35.3671 69.4658 35.4843 69.6535 35.4081H69.7004H69.7473H69.7942C69.8763 35.3671 69.8411 35.3788 69.9643 35.3495C69.9702 35.3495 70.0405 35.3377 70.0405 35.3377C70.4334 35.2263 70.8146 34.9918 71.055 34.9624C71.1312 34.9566 71.1195 34.9742 71.1957 34.9566C71.3189 34.9214 71.1664 34.9155 71.4538 34.9214L71.7704 34.8979C72.1105 34.8803 72.5093 34.8979 72.8553 34.8979L72.8905 34.98C72.8905 34.9859 72.9022 34.9976 72.9022 35.0035L72.9902 35.2087ZM7.28337 35.2556H7.33028L7.28923 35.3084L7.28337 35.2556ZM41.5705 35.3026H41.5236L41.5647 35.2498L41.5705 35.3026ZM55.7791 35.4433V35.4902L55.7264 35.4492L55.7791 35.4433ZM68.4748 35.4902H68.4279L68.4689 35.4374L68.4748 35.4902ZM53.9437 35.6309H53.9906L53.9495 35.6837L53.9437 35.6309ZM39.2659 35.8655V35.8186L39.3187 35.8596L39.2659 35.8655ZM39.6412 36.0532V36.0062L39.694 36.0473L39.6412 36.0532ZM97.6368 36.0062V36.0532L97.584 36.0121L97.6368 36.0062ZM97.7306 36.1001V36.147L97.6778 36.1059L97.7306 36.1001ZM56.6236 36.1939V36.2408L56.5708 36.1998L56.6236 36.1939ZM97.8303 36.1939V36.2408L97.7775 36.1998L97.8303 36.1939ZM56.7174 36.2877V36.3346L56.6646 36.2936L56.7174 36.2877ZM96.3701 36.8565H96.3232L96.3643 36.8038L96.3701 36.8565ZM98.2056 36.9504V36.9973L98.1528 36.9562L98.2056 36.9504ZM96.3701 36.8565L96.6575 37.5954C96.8686 38.0938 96.6809 38.0235 96.8393 38.2639V38.3108C96.9038 38.4691 96.851 38.7975 96.8627 38.9324C96.8686 39.0262 96.851 38.909 96.8745 39.0028L96.8686 39.8941C96.8686 40.1345 96.7982 39.9586 96.7689 40.1521L96.6985 40.4571C96.6985 40.4629 96.6927 40.4747 96.6927 40.4864C96.6927 40.4922 96.6927 40.5098 96.6868 40.5157C96.6868 40.5274 96.6868 40.5978 96.6868 40.6095C96.6751 41.1725 96.6516 41.1197 96.5109 41.5478C96.4522 41.7237 96.5226 41.5771 96.4816 41.7178L96.2939 42.2456C96.288 42.2632 96.2529 42.3277 96.2529 42.3277C96.2177 42.4098 96.2177 42.4567 96.2118 42.4802C96.206 42.5036 96.206 42.5153 96.1884 42.5505C96.1356 42.6444 96.1884 42.5212 96.1356 42.6209C96.0945 42.6971 96.1238 42.6502 96.118 42.7382C96.1121 42.8731 96.1884 42.7675 96.0476 42.8672C96.0242 42.9141 96.0242 42.9317 96.0066 42.9669C95.9714 43.0431 95.9655 43.049 95.9479 43.09L95.9245 43.1604C95.9245 43.1663 95.9186 43.178 95.9186 43.1838C95.86 43.3129 95.9128 43.178 95.86 43.2777L95.8365 43.348C95.8365 43.3539 95.8307 43.3656 95.8307 43.3715L95.7016 43.6002C95.555 43.8054 95.2794 44.0928 95.0566 44.2277L94.9686 44.2804L94.781 44.4681C94.7165 44.515 94.7517 44.4974 94.6989 44.5209C94.6813 44.5267 94.6403 44.5384 94.6285 44.5443C94.6227 44.5443 94.6109 44.5502 94.6051 44.5502C94.5992 44.5502 94.5875 44.556 94.5816 44.556C94.5757 44.556 94.564 44.5619 94.5582 44.5619C94.4233 44.5854 94.523 44.3977 94.4702 44.2042L94.4526 44.0517C94.4526 44.0459 94.4585 44.0341 94.4585 44.0283L94.435 42.5623C94.4467 42.1166 94.5347 42.445 94.523 42.0755C94.5112 41.7765 94.6227 41.9289 94.6168 41.6299C94.6168 41.495 94.6051 41.6885 94.6109 41.536L94.7048 41.2311C94.7399 41.0376 94.6051 41.1608 94.781 41.0317C94.7986 40.9848 94.8631 40.7327 94.9686 40.6564L95.2032 40.375L95.3908 40.1873L95.5316 40.0935L95.7661 39.812C95.9421 39.683 95.7192 39.7886 95.9069 39.6244L96.1884 39.296V39.2491C96.2705 39.0556 96.1414 39.2197 96.2587 38.9441C96.2939 38.862 96.2998 38.821 96.3056 38.7917C96.376 38.346 96.3995 38.9148 96.3995 37.8945C96.3995 37.8006 96.3995 37.7772 96.3995 37.6834C96.3995 37.5719 96.3936 37.6013 96.376 37.4136V37.3667C96.3526 37.1849 96.3056 36.9914 96.3701 36.8565ZM57.468 37.0442V37.0911L57.4152 37.05L57.468 37.0442ZM49.4284 37.138H49.4753L49.4342 37.1908L49.4284 37.138ZM58.3183 37.701V37.7479L58.2655 37.7068L58.3183 37.701ZM4.6504 37.8886H4.69732L4.65627 37.9414L4.6504 37.8886ZM47.9213 37.8886H47.9682L47.9272 37.9414L47.9213 37.8886ZM73.8873 37.9355V37.8886L73.9401 37.9297L73.8873 37.9355ZM4.55658 37.9824H4.60349L4.56244 38.0352L4.55658 37.9824ZM39.2659 38.4516H39.3129L39.2718 38.5043L39.2659 38.4516ZM69.6066 38.6451V38.692L69.5538 38.6509L69.6066 38.6451ZM74.2626 38.692V38.6451L74.3154 38.6861L74.2626 38.692ZM38.7968 38.7389H38.8437L38.8027 38.7917L38.7968 38.7389ZM3.70629 39.208H3.7532L3.71215 39.2608L3.70629 39.208ZM37.4774 39.4895H37.5243L37.4833 39.5423L37.4774 39.4895ZM74.8256 39.6302V39.5833L74.8784 39.6244L74.8256 39.6302ZM37.149 39.6771V39.7241L37.0962 39.683L37.149 39.6771ZM95.7603 39.8179H95.7134L95.7544 39.7651L95.7603 39.8179ZM86.5361 40.1932H86.4892L86.5303 40.1404L86.5361 40.1932ZM95.3791 40.1932H95.3322L95.3733 40.1404L95.3791 40.1932ZM87.621 41.3249C87.8379 41.6533 87.6562 41.4715 87.8203 41.6416L88.0256 41.9876C88.0256 41.9934 88.0315 42.0052 88.0373 42.011C88.1663 42.2339 88.1839 42.0404 88.2132 42.3042C88.225 42.4274 88.2015 42.3277 88.2836 42.4274L88.3774 42.5916V42.6385C88.4419 42.791 88.354 42.5799 88.395 42.7206C88.4771 42.9962 88.4771 42.7265 88.4947 42.9552C88.5064 43.178 88.4771 42.9141 88.6003 43.2366C88.6003 43.2425 88.6061 43.2542 88.612 43.2601C88.6296 43.2953 88.6824 43.4008 88.7058 43.4477C88.7703 43.5709 88.7117 43.4243 88.7527 43.5416L88.8114 43.7233C88.8231 43.7468 88.8172 43.6999 88.8583 43.7937C88.9169 43.9227 88.7879 43.8406 88.9463 43.952L88.999 44.0459C88.7997 44.128 89.0049 44.0165 88.8055 44.0928H88.7586C88.7 44.1221 88.6882 44.1221 88.6237 44.1514C88.5299 44.1925 88.6061 44.169 88.5123 44.2042C88.4595 44.2218 88.3716 44.2218 88.2426 44.2863H88.1956C88.049 44.3449 87.7207 44.2804 87.4861 44.3039L85.9849 44.4739H85.938C85.8207 44.5209 85.9145 44.5209 85.7972 44.4739H85.7503C85.4513 44.6147 85.3223 44.4915 85.1405 44.5678H85.0936C84.9763 44.6147 84.9704 44.5795 84.8355 44.5971C84.7828 44.603 84.6948 44.6205 84.642 44.6264C84.513 44.644 84.5951 44.6088 84.4778 44.6616H84.4309H84.384H84.3371H84.2902H84.2433C83.9383 44.8082 83.6041 44.6909 83.4458 44.7554H83.3988C83.2816 44.8023 83.3754 44.8023 83.2581 44.7554H83.2112C83.0529 44.8199 83.0411 44.7261 82.789 44.8492H82.7421C82.6248 44.8962 82.6248 44.8668 82.5192 44.8786C82.4078 44.8903 82.2729 44.9196 82.2143 44.9255C82.0794 44.9313 81.8977 44.8903 81.7569 44.9489H81.71C81.5751 44.8903 81.5869 44.9313 81.3816 44.9489H81.3347H81.194H81.147H81.0063H80.9594L80.4785 44.9137C80.3495 44.902 80.2147 44.8962 80.0974 44.8844C79.9977 44.8727 79.986 44.902 79.8745 44.8551H79.8276H79.7807H79.7338C79.6517 44.8141 79.5814 44.8023 79.4993 44.7613H79.4523C79.3702 44.7202 79.2999 44.7085 79.2178 44.6675H79.1709L78.7017 44.4329L78.7956 44.2452C78.8425 44.128 78.8014 44.2159 78.8307 44.1162C78.8777 43.9638 78.9187 44.1456 78.8425 43.9638C79.036 43.6882 78.7897 43.4477 78.9832 43.1663V43.1193C79.0536 42.9552 78.948 43.0783 79.077 42.8848V42.8379C79.1181 42.7323 79.1005 42.7089 79.1005 42.615C79.1005 42.6092 79.1005 42.5212 79.1005 42.5153C79.1005 42.5036 79.1122 42.4684 79.1181 42.4567C79.1474 42.3863 79.1474 42.4039 79.1709 42.3687C79.0888 42.1752 79.1415 42.3805 79.1826 42.2163C79.2119 42.1049 79.165 42.1225 79.2295 42.0462L79.6048 41.3484C79.6283 41.3132 79.6517 41.2898 79.6869 41.2428C79.7749 41.2077 79.7455 41.2077 79.8159 41.2135L80.0505 41.2663C80.1795 41.2722 80.027 41.2546 80.1971 41.2956C80.3495 41.3308 80.3202 41.3015 80.4492 41.3132C80.7131 41.3308 80.461 41.4657 80.719 41.2898C80.8363 41.454 80.8069 41.3132 80.8773 41.4657C80.9301 41.5712 80.8949 41.4833 80.8949 41.6006C80.8832 41.97 80.6955 41.97 80.5313 42.0462H80.4844C80.4023 42.0873 80.3319 42.099 80.2498 42.14H80.2029C80.1384 42.187 80.1267 42.2104 80.0681 42.2397C79.9977 42.2866 79.9449 42.2925 79.8745 42.3277H79.8276L79.6869 42.4215C79.6752 42.4274 79.6634 42.4274 79.6576 42.4391C79.64 42.4978 79.64 42.4508 79.5989 42.4743C79.3937 42.5974 79.4699 42.5857 79.3585 42.7499C79.4054 42.8203 79.423 42.8261 79.4641 42.9024L79.5931 43.0314L79.8276 43.219H79.8745H79.9215H79.9684C80.1443 43.3011 80.1853 43.2659 80.2968 43.3129H80.3437C80.4551 43.2659 80.4668 43.2953 80.5665 43.2835C80.6779 43.2718 80.9008 43.2484 80.9477 43.2484C81.1236 43.2425 81.4989 43.2659 81.6103 43.3129H81.6572C81.8214 43.2425 81.6689 43.3305 81.9797 43.2601C82.0618 43.2425 82.0149 43.2542 82.0677 43.2425C82.0794 43.2366 82.1205 43.2308 82.1381 43.219L82.3609 43.1193H82.4078C82.8828 42.8027 82.4371 43.1487 82.8828 42.8906L82.9708 42.8379L83.1115 42.744L83.2229 42.6561C83.2229 42.6502 83.1584 42.6561 83.2992 42.5564C83.3226 42.4919 83.305 42.5095 83.3226 42.4743C83.3695 42.3453 83.4692 42.3863 83.4223 42.0521C83.4047 41.9114 83.3813 42.0169 83.3343 41.8234C83.2874 41.6533 83.3754 41.6123 83.2992 41.3894L83.2347 41.2018C83.2171 41.1314 83.2405 41.1842 83.2053 41.0962C83.3519 41.0845 83.2933 41.0962 83.393 41.0493H83.4399H83.4868H83.5337C83.563 41.0376 83.6158 41.0141 83.6334 41.0083C83.7214 40.9614 83.6745 40.9848 83.7214 40.9555H83.7683H83.8152L84.8297 40.6916C84.9587 40.6506 84.8825 40.6271 84.9939 40.674L85.2284 40.5802H85.2754H85.3223C85.4982 40.4981 85.5392 40.5333 85.6506 40.4864H85.6976C85.7797 40.4453 85.85 40.4336 85.9321 40.3926H85.979H86.0259H86.0729C86.155 40.3515 86.2253 40.3398 86.3074 40.2987H86.3543C86.3837 40.287 86.4364 40.2635 86.454 40.2577C86.542 40.2108 86.4951 40.2342 86.542 40.2049L86.9642 40.2518V40.2987L87.3278 40.8734C87.3336 40.8793 87.3395 40.891 87.3454 40.8969C87.3454 40.9027 87.3571 40.9145 87.3571 40.9203C87.3571 40.9262 87.363 40.9379 87.3688 40.9438L87.4568 41.0787C87.6913 41.3601 87.4275 41.1842 87.621 41.3249ZM95.1915 40.3808H95.1446L95.1856 40.3281L95.1915 40.3808ZM85.2226 40.5685H85.1757L85.2167 40.5157L85.2226 40.5685ZM99.5191 40.5685H99.4722L99.5133 40.5157L99.5191 40.5685ZM74.2626 41.278L74.075 41.0904L73.8756 40.9145C73.987 40.9027 74.0574 40.9027 74.1571 40.8969L74.7318 40.9086C74.679 41.1021 74.6673 40.9848 74.6555 41.1314C74.6497 41.2604 74.6907 41.2663 74.6145 41.4481C74.5558 41.5771 74.5852 41.4715 74.5676 41.5536C74.5441 41.6475 74.5969 41.624 74.5441 41.753C74.3271 41.6064 74.3917 41.6123 74.3741 41.5536C74.3741 41.5478 74.3741 41.5009 74.3506 41.4305C74.3213 41.3543 74.3037 41.3425 74.2626 41.278ZM83.7155 40.9496H83.6686L83.7096 40.8969L83.7155 40.9496ZM79.6693 41.2311H79.6224L79.6634 41.1783L79.6693 41.2311ZM87.621 41.3249V41.278L87.6737 41.3191L87.621 41.3249ZM82.9649 42.832H82.918L82.959 42.7792L82.9649 42.832ZM76.8018 43.2542V43.3011C76.7842 43.5416 76.7549 43.3656 76.7255 43.5474C76.7138 43.6061 76.7197 43.694 76.749 43.7703L76.6552 43.8172C76.5731 43.8758 76.7549 43.8582 76.5555 43.8641C76.3151 43.8699 76.4851 43.8641 76.4206 43.8172C76.3561 43.7937 76.362 43.7996 76.3151 43.7937C76.1274 43.7585 76.0864 43.7703 75.9515 43.6764L75.9984 43.5826L76.1216 43.436C76.3033 43.2425 76.4675 42.9024 76.749 42.8789H76.7959V42.9258C76.8428 43.0255 76.8428 43.1545 76.8018 43.2542ZM76.0043 43.5826H75.9574L75.9984 43.5298L76.0043 43.5826ZM27.0394 44.5209H27.0863C27.2622 44.603 27.3033 44.5678 27.4147 44.6147H27.4616H27.5085H27.5554L27.661 44.6968C27.5847 44.7144 27.5554 44.7144 27.5026 44.7261C27.3912 44.7437 27.485 44.7085 27.3736 44.7554H27.3267C27.1977 44.8082 26.8459 44.7965 26.7169 44.8492H26.6699C26.5351 44.9079 26.3826 44.8316 26.1539 44.9431L25.9956 44.5795C25.7962 44.2452 26.0718 44.5443 25.8666 44.1573L25.8079 44.0165C25.7434 43.9403 25.7786 43.9931 25.7258 43.9579C25.761 43.911 25.7669 43.9051 25.7845 43.8524C25.8372 43.7116 25.72 43.9169 25.8138 43.7585C25.8607 43.6764 25.9369 43.6295 26.0073 43.5826C26.2829 43.9931 25.9838 43.5826 26.2067 44.1162C26.2829 44.3039 26.5292 44.4153 26.8869 44.515C26.8928 44.515 26.9045 44.5209 26.9104 44.5267L26.9573 44.5443C26.9631 44.5443 26.9807 44.5443 26.9807 44.5443C26.9925 44.5384 27.0218 44.5267 27.0394 44.5209ZM28.7751 43.9579H28.7282L28.7693 43.9051L28.7751 43.9579ZM32.0238 43.9579V43.911L32.0766 43.952L32.0238 43.9579ZM78.8249 43.9579H78.778L78.819 43.9051L78.8249 43.9579ZM88.9404 43.9579V43.911L88.9932 43.952L88.9404 43.9579ZM29.5785 44.0517H29.6254C29.7427 44.0986 31.5371 44.0986 31.6485 44.0517H31.6954C31.8596 43.9872 31.7365 44.0869 31.93 43.9579H31.9769H32.0238L32.147 44.0576C32.4695 44.4915 32.0825 44.298 31.7072 44.3508L31.2263 44.4739H31.1794C30.9683 44.5736 30.5813 44.5443 30.464 44.5443C30.3233 44.5443 29.948 44.515 29.8189 44.5678H29.772C29.6547 44.6147 29.7486 44.6147 29.6313 44.5678H29.5785C29.4436 44.6323 29.5316 44.603 29.344 44.6147C29.3029 44.6147 29.2501 44.6088 29.2091 44.6205C29.1153 44.6381 29.1622 44.6323 29.1094 44.6616C28.9921 44.6147 29.0859 44.6147 28.9687 44.6616H28.9217C28.8045 44.7085 28.8983 44.7085 28.781 44.6616H28.7341C28.6637 44.6909 28.4526 44.7202 28.3588 44.6616V44.6147C28.4643 44.4505 28.6755 44.2922 28.7224 44.2277L28.7693 44.1104C28.7751 44.0928 28.8162 44.04 28.781 43.9579C28.9159 43.9051 29.0801 43.9345 29.1915 43.9345C29.2091 43.9345 29.2677 43.9286 29.2853 43.9345C29.3381 43.9403 29.3205 43.9403 29.3791 43.9638L29.4261 43.9755C29.4319 43.9755 29.4436 43.9814 29.4495 43.9814L29.5785 44.0517ZM13.9625 43.9579H14.0094H14.0564H14.1033C14.1854 43.999 14.2557 44.0107 14.3378 44.0517H14.3847C14.4962 44.0986 14.5372 44.0635 14.7131 44.1456H14.76C14.8421 44.1866 14.9125 44.1983 14.9946 44.2394H15.0415L15.6514 44.427H15.6983C15.7804 44.4681 15.8508 44.4798 15.9329 44.5209H15.9798L16.5896 44.7085H16.6365H16.6835H16.7304C16.8418 44.7554 16.8828 44.7202 17.0588 44.8023H17.1057H17.1526H17.1995C17.4165 44.8903 17.1702 44.685 17.6217 44.99C17.522 45.1366 17.5455 45.0838 17.5513 45.2363L17.522 45.4005C17.522 45.4063 17.5161 45.4181 17.5161 45.4239L17.4868 45.5177C17.4634 45.5881 17.4751 45.5295 17.4634 45.5881L17.61 46.456C17.61 46.4619 17.6217 46.4677 17.6276 46.4677C17.6276 46.4677 17.6393 46.4795 17.6393 46.4853L17.7448 46.5615C17.8739 46.6436 17.8856 46.6964 18.0029 46.7727H18.0498C18.1964 46.8723 18.1436 46.8841 18.3371 47.0014C18.343 47.0072 18.3606 47.0131 18.3664 47.0189L18.4251 47.0541C18.5248 47.0131 18.6479 47.1186 18.9294 47.0776C19.1698 47.0424 18.9177 46.9662 19.1288 47.0541H19.1757C19.2812 47.0014 19.5217 46.9896 19.6155 46.9838C19.7152 46.9779 19.809 46.972 19.9791 47.0541V47.101C19.9145 47.1304 19.8559 47.1538 19.7797 47.189C19.6917 47.2359 19.7855 47.189 19.6858 47.2359C19.6331 47.2594 19.6096 47.2652 19.551 47.2887L19.3105 47.4236C19.2343 47.4646 19.2578 47.447 19.1874 47.4881L19.0408 47.576L18.947 47.6699C18.8942 47.6933 18.8062 47.7285 18.7476 47.7578L18.2492 48.01C18.2433 48.0158 18.2257 48.0217 18.2198 48.0276C18.214 48.0334 18.2022 48.0393 18.1905 48.0452L17.8152 48.2328L17.6745 48.3266H17.6276L17.4868 48.4205H17.4399C17.0529 48.6785 17.1233 48.6081 16.7362 48.7958L16.2671 49.0772H16.2202L16.0795 49.1711H16.0325L15.235 49.5464L15.0943 49.6402C14.9066 49.7633 14.9418 49.6754 14.719 49.8278C14.6369 49.8689 14.5665 49.8806 14.4844 49.9217C14.4727 49.9275 14.461 49.9275 14.4551 49.9392L13.7338 50.297C13.7221 50.3028 13.7104 50.3028 13.7045 50.3145L13.3937 50.4787C13.3527 50.5022 13.3233 50.5374 13.2647 50.5784H13.2178C12.8249 50.8423 12.5493 50.942 12.1388 51.1414H12.0919C12.0098 51.1824 11.9394 51.1942 11.8573 51.2352H11.8104L11.7166 51.1414C11.5817 51.0476 11.6814 51.1003 11.6228 50.9889L11.2651 50.0683C11.1243 49.4408 11.183 49.9158 11.1771 49.2238C11.1771 49.218 11.1771 49.1124 11.1771 49.1066L11.2475 48.9306C11.2533 48.8368 11.4293 48.2739 11.5055 48.1976C11.611 48.0921 11.5641 48.1624 11.611 48.1214L11.6462 48.0921C11.6521 48.0862 11.658 48.0803 11.658 48.0745L11.9805 47.6874C12.0743 47.5584 11.9746 47.5995 12.1564 47.3415C12.2561 47.2007 12.2033 47.3297 12.2092 47.1773C12.2209 47.0014 12.1916 47.189 12.2854 47.0131C12.3265 46.931 12.303 46.9955 12.3089 46.9193C12.3265 46.6378 12.3734 46.8782 12.4027 46.6612C12.4261 46.5029 12.3382 46.673 12.4555 46.4736C12.4907 46.4091 12.4731 46.4443 12.4907 46.4032L12.6607 46.0631V46.0162C12.69 45.9634 12.7018 45.9224 12.7369 45.8579L12.8601 45.6761C12.8601 45.6702 12.866 45.6585 12.866 45.6526L13.3175 44.9841L13.4289 44.8023C13.4289 44.7965 13.4348 44.7847 13.4348 44.7847C13.4348 44.7789 13.4406 44.7671 13.4406 44.7613L13.6283 44.4505C13.6341 44.4388 13.6576 44.4036 13.6635 44.3918L13.8159 44.169C14.027 43.9462 13.7338 44.1221 13.9625 43.9579ZM94.9569 44.2863H95.0038L94.9628 44.3391L94.9569 44.2863ZM94.7693 44.4739H94.8162L94.7751 44.5267L94.7693 44.4739ZM29.1094 44.6616H29.1563L29.1153 44.7144L29.1094 44.6616ZM89.5502 45.981C89.5444 46.0631 89.5327 46.1393 89.5327 46.1569C89.5092 46.2683 89.5092 46.2038 89.4681 46.3153C89.3919 46.5088 89.4799 46.4795 89.4154 46.6378C89.2981 46.6847 89.3919 46.6847 89.2746 46.6378H89.2277C89.0401 46.5615 89.216 46.6436 89.0928 46.6085C89.0811 46.6085 89.0459 46.5967 89.0342 46.5909C88.9638 46.5615 88.9814 46.5615 88.9463 46.5381C88.7996 46.4795 88.8993 46.5557 88.7176 46.4853L88.5006 46.4149C88.3012 46.3622 88.4243 46.3504 88.2367 46.3094C88.0549 46.2683 88.0842 46.3153 87.9611 46.2625H87.9142C87.7734 46.2038 87.6503 46.2449 87.5037 46.198L87.4392 46.1628C87.3219 46.2097 87.4157 46.2097 87.2984 46.1628H87.2515C87.1225 46.0983 87.2339 46.1393 87.0873 46.1335C86.9876 46.1276 87.0639 46.1452 86.929 46.1159C86.7765 46.0807 86.7589 46.1217 86.6417 46.0748H86.5948C86.4775 46.0279 86.4716 46.0631 86.3367 46.0455C86.284 46.0396 86.196 46.0221 86.1432 46.0162C86.0142 45.9986 86.0963 46.0338 85.979 45.981H85.9321C85.8148 45.9341 85.8148 45.9634 85.7093 45.9517C85.5568 45.9341 85.4454 45.9106 85.3809 45.9106L84.9821 45.852C84.9704 45.852 84.9176 45.8403 84.9059 45.8403C84.8179 45.8168 84.8531 45.8227 84.8062 45.7934V45.7464H84.8531C84.9645 45.6995 84.9294 45.7289 85.0291 45.723L85.4571 45.6761C85.6976 45.6409 85.4454 45.5647 85.6565 45.6526H85.7034C85.8735 45.5705 86.0963 45.6116 86.2195 45.5588H86.2664H86.3133H86.3602C86.5479 45.4708 86.4599 45.5471 86.6182 45.5236C86.6417 45.5177 86.7414 45.4943 86.7414 45.4943C86.8469 45.4708 86.7531 45.5177 86.8762 45.465H86.9231H86.9701H87.017C87.1108 45.4239 87.187 45.4415 87.3102 45.4298C87.533 45.4063 87.6268 45.4122 87.7265 45.3711H87.7734H87.8203H87.8673C87.9787 45.3242 88.2719 45.3242 88.3833 45.2773H88.4302C88.5475 45.2304 88.5534 45.2656 88.6882 45.248C88.741 45.2421 88.829 45.2245 88.8817 45.2187C89.0108 45.2011 88.9286 45.2363 89.0459 45.1835H89.0928C89.1925 45.2245 89.3215 45.2245 89.4212 45.1835H89.4681L89.603 45.2832L89.562 45.3711C89.7203 45.594 89.5678 45.723 89.6558 45.9341L89.5502 45.981ZM97.6368 46.2156H97.5899L97.6309 46.1628L97.6368 46.2156ZM96.8862 46.5909H96.8393L96.8803 46.5381L96.8862 46.5909ZM89.4095 46.6378H89.4564L89.4154 46.6906L89.4095 46.6378ZM96.7924 46.6847H96.7454L96.7865 46.6319L96.7924 46.6847ZM19.9791 47.06V47.0131L20.0318 47.0541L19.9791 47.06ZM19.9791 47.1128H20.026L19.9849 47.1655L19.9791 47.1128ZM4.26924 47.3473V47.3004L4.32202 47.3415L4.26924 47.3473ZM95.3791 47.3473H95.3322L95.3733 47.2946L95.3791 47.3473ZM19.0408 47.5819H19.0877L19.0467 47.6347L19.0408 47.5819ZM94.7223 47.6288H94.6754L94.7165 47.576L94.7223 47.6288ZM18.947 47.6757H18.9939L18.9528 47.7285L18.947 47.6757ZM5.401 48.0979V48.051L5.45378 48.0921L5.401 48.0979ZM18.1964 48.051H18.2433L18.2022 48.1038L18.1964 48.051ZM17.8152 48.2387H17.8621L17.8211 48.2914L17.8152 48.2387ZM5.96395 48.4732V48.4263L6.01673 48.4674L5.96395 48.4732ZM6.1516 48.6609V48.614L6.20438 48.655L6.1516 48.6609ZM96.5109 49.1769V49.2238L96.4581 49.1828L96.5109 49.1769ZM15.0884 49.6519H15.1353L15.0943 49.7047L15.0884 49.6519ZM14.7131 49.8396H14.76L14.719 49.8923L14.7131 49.8396ZM6.72042 50.3556V50.3087L6.77319 50.3497L6.72042 50.3556ZM7.18954 51.0124V50.9655L7.24232 51.0065L7.18954 51.0124ZM7.28337 51.1062V51.0593L7.33614 51.1003L7.28337 51.1062ZM98.9562 51.2469V51.2938L98.9034 51.2528L98.9562 51.2469ZM8.03397 52.238V52.191L8.08674 52.2321L8.03397 52.238ZM7.65867 53.6981H7.70558L7.66453 53.7509L7.65867 53.6981ZM77.4762 60.0958H76.0277C75.5586 60.0899 75.1833 60.0841 75.0953 60.0723L74.5558 60.0313C74.55 60.0313 74.5383 60.0372 74.5324 60.0372C74.333 60.0723 73.5765 60.131 73.3654 60.043H73.3185C73.1837 59.9785 71.8291 59.9492 71.7763 59.9551C71.6238 59.9727 71.7176 59.8906 71.5769 59.9492H71.53C71.2427 59.8319 69.2899 59.9316 68.6331 59.8906C68.4455 59.8788 67.9529 59.914 67.8122 59.8554H67.7653C67.648 59.9023 67.7418 59.9023 67.6245 59.8554H67.5776H67.5307H67.4838H67.4369H67.39H67.3431H67.2961C67.1789 59.8085 67.2727 59.8085 67.1554 59.8554H67.1085C66.9912 59.8085 67.085 59.8085 66.9678 59.8554C66.8798 59.8026 66.8212 59.826 66.6628 59.826L65.6483 59.7615H65.6014H65.5545H65.5076H65.4607H65.4138H65.3669H65.32H65.273H65.2261H65.1792H65.1323H65.0854H65.0385H64.9916H64.9447H64.8977H64.8508H64.8039H64.757H64.7101H64.6632H64.6163H64.5694H64.5224H64.4755C64.3582 59.8085 64.4521 59.8085 64.3348 59.7615H64.2879H64.241H64.1941H64.1471H64.1002H64.0533H64.0064H63.9595H63.9126H63.8657H63.8188C63.7015 59.7146 63.7953 59.7146 63.678 59.7615H63.6311H61.7957H61.7487C61.6315 59.7146 61.7253 59.7146 61.608 59.7615H61.5611C61.4438 59.7146 61.5376 59.7146 61.4204 59.7615H61.3734C61.2562 59.7146 61.35 59.7146 61.2327 59.7615H61.1858C61.0685 59.7146 61.1623 59.7146 61.0451 59.7615H60.9981C60.8809 59.7146 60.9747 59.7146 60.8574 59.7615H60.8105C60.6932 59.7146 60.787 59.7146 60.6698 59.7615H60.6228C60.4997 59.7088 60.3707 59.7381 60.2593 59.7381C60.1596 59.7381 60.1537 59.7322 60.054 59.7264L59.1686 59.697C58.9868 59.6912 58.8929 59.7088 58.7874 59.6677H58.7405C58.6232 59.7146 58.717 59.7146 58.5997 59.6677H58.5528C58.4355 59.7146 58.5294 59.7146 58.4121 59.6677H58.3652C58.2362 59.7205 57.7905 59.7264 57.7201 59.7439L57.4504 59.8202C57.3096 59.8495 57.3214 59.7967 57.1924 59.8554H57.1396C57.0223 59.8085 57.1161 59.8085 56.9989 59.8554H56.9519H56.905H56.8581H56.8112H56.7643C56.647 59.8085 56.7408 59.8085 56.6236 59.8554H56.5766H56.5297H56.4828H56.4359H56.389C56.2717 59.8085 56.3655 59.8085 56.2483 59.8554H56.2013C56.0841 59.8085 56.1779 59.8085 56.0606 59.8554H56.0137C55.9375 59.826 55.8964 59.8202 55.7909 59.8202L55.1224 59.7615H55.0754H55.0285H54.9816H54.9347H54.8878H54.8409H54.794C54.6767 59.7146 54.7705 59.7146 54.6532 59.7615H54.6063C54.489 59.7146 54.5829 59.7146 54.4656 59.7615H54.4187C54.3014 59.7146 54.3952 59.7146 54.2779 59.7615H54.231C54.1137 59.7146 54.2076 59.7146 54.0903 59.7615H54.0434C53.9261 59.7146 54.0199 59.7146 53.9026 59.7615H53.8557C53.7384 59.7146 53.8323 59.7146 53.715 59.7615H53.6681C53.5508 59.7146 53.6446 59.7146 53.5273 59.7615H53.4804C53.3631 59.7146 53.457 59.7146 53.3397 59.7615H53.2928C53.1755 59.7146 53.2693 59.7146 53.152 59.7615H53.0934C52.9761 59.7146 53.0699 59.7146 52.9527 59.7615H52.9057C52.7885 59.7146 52.8823 59.7146 52.765 59.7615H52.7181C52.5891 59.7088 49.4577 59.7205 49.0706 59.697L47.6281 59.6912C47.4991 59.6912 47.2528 59.7205 47.1238 59.6677H47.0769C46.9596 59.7146 47.0534 59.7146 46.9361 59.6677H46.8892C46.7719 59.7146 46.8658 59.7146 46.7485 59.6677H46.7016H46.6547H46.6077H46.5608H46.5139H46.467H46.4201C46.3028 59.6208 45.7692 59.6443 45.6109 59.6443L43.0248 59.6384C42.5146 59.6384 39.1252 59.5622 38.744 59.6853C38.7382 59.6853 38.7264 59.6912 38.7206 59.6912C38.574 59.7264 38.5857 59.6794 38.4157 59.7088C38.2691 59.7381 38.3746 59.7264 38.2925 59.7381C38.1811 59.7498 38.2163 59.7088 38.0931 59.7615H38.0462H37.9993H37.9524H37.9055H37.8586C37.7413 59.7146 37.8351 59.7146 37.7178 59.7615H37.6709C37.5712 59.7205 37.4774 59.7264 37.2546 59.7029C37.1314 59.6912 37.0552 59.7029 36.9614 59.6677H36.9145H36.8675H36.8206L35.5305 59.6091C35.4015 59.6032 35.4602 59.6208 35.3663 59.5739H35.3194C35.2021 59.6208 35.296 59.6208 35.1787 59.5739H35.1318C35.0145 59.6208 35.1083 59.6208 34.991 59.5739H34.9441C34.8268 59.6208 34.9207 59.6208 34.8034 59.5739H34.7565C34.6392 59.6208 34.733 59.6208 34.6157 59.5739H34.563C34.4457 59.6208 34.5395 59.6208 34.4222 59.5739H34.3753H34.3284H34.2815C34.1642 59.527 34.258 59.527 34.1408 59.5739H34.0938C33.9766 59.527 34.0704 59.527 33.9531 59.5739H33.9062L30.7572 59.4801H30.7103C30.5109 59.5622 30.7161 59.4918 30.5813 59.4742C30.4288 59.4566 30.5754 59.5211 30.3702 59.4683C30.206 59.4273 29.0566 59.4977 28.781 59.3862H28.7341L26.4882 59.3041C26.324 59.2748 26.5292 59.2162 26.3357 59.2924H26.2888C26.1715 59.2455 26.2653 59.2455 26.148 59.2924H26.1011C25.9838 59.2455 26.0777 59.2455 25.9604 59.2924H25.9135C25.7962 59.2455 25.89 59.2455 25.7727 59.2924L25.5968 59.2572C25.4326 59.2572 25.5323 59.2279 25.3974 59.2924C25.2626 59.2103 24.1191 59.2572 23.949 59.2103C23.7907 59.1634 23.9842 59.1165 23.7966 59.1986H23.7496C23.6324 59.1517 23.7262 59.1517 23.6089 59.1986H23.562C23.433 59.1458 23.175 59.1634 22.8935 59.1341C22.7645 59.1224 22.6179 59.1634 22.483 59.1048H22.4361C22.3188 59.1517 22.4126 59.1517 22.2954 59.1048H22.2484H22.1898H22.1429H22.096H22.0491H22.0022H21.9552H21.9083H21.8614H21.8145H21.7676C21.6503 59.0579 21.7441 59.0579 21.6269 59.1048H21.5799C21.4627 59.0579 21.5565 59.0579 21.4392 59.1048H21.3923C21.0404 58.9582 19.5686 59.093 19.3692 59.0109H19.3223C19.2167 59.052 18.9059 59.052 18.8062 59.0109H18.7593H18.7124H18.6655C18.5424 58.9582 18.3137 58.9992 18.1495 58.9171H18.1026C17.9911 58.8702 17.8445 58.8995 17.6803 58.8233H17.6334L16.5662 58.6298C16.5544 58.6239 16.5075 58.6122 16.4958 58.6063C16.4723 58.6005 16.443 58.6005 16.402 58.5946C16.1791 58.5711 16.0853 58.577 15.9856 58.536H15.9387C15.8038 58.4715 15.7452 58.5066 15.6103 58.4421H15.5634H15.5165H15.4696C15.3054 58.3659 15.1588 58.3952 15.0474 58.3483H15.0005C14.889 58.3014 14.848 58.3366 14.6721 58.2545H14.6252C14.5138 58.2076 14.2909 58.2428 14.0505 58.1665L13.9567 58.1372C13.8804 58.1196 13.8277 58.1137 13.7338 58.0668H13.6869L12.6431 57.8381C12.4496 57.7971 12.4379 57.8264 12.3265 57.7795H12.2795H12.2209C12.174 57.7502 12.2092 57.7619 12.1212 57.7326L11.3882 57.586C11.3823 57.586 11.3706 57.5801 11.3648 57.5801L11.095 57.498H11.0481H11.0012H10.9543C10.8194 57.4335 10.7608 57.4687 10.6259 57.4042H10.579C10.5145 57.3807 10.5203 57.3866 10.4734 57.3807L8.83734 57.0289H8.79043C8.67901 56.982 8.63796 57.0172 8.46204 56.9351H8.40927C8.24507 56.8588 8.09847 56.8882 7.98705 56.8412H7.94014C7.85804 56.8002 7.78768 56.7885 7.70558 56.7474H7.65867H7.61175H7.56484C7.45342 56.7005 7.41238 56.7357 7.23645 56.6536H7.18954C7.03121 56.5891 7.17781 56.6946 6.7556 56.5422L6.39789 56.4542C6.11642 56.3252 6.18092 56.2724 6.18092 56.0261C6.18092 55.903 6.30993 55.6332 6.35685 55.5042C6.35685 55.4984 6.36271 55.4866 6.36271 55.4808C6.42135 55.3166 6.40376 55.4045 6.49758 55.2931C6.59727 55.1817 6.52104 55.1993 6.59141 55.1055C6.59141 55.0996 6.6735 55.0234 6.68523 55.0117C6.72042 54.9765 6.7556 54.953 6.78492 54.9178C6.86115 54.8299 6.82011 54.8651 6.8377 54.824C6.91393 54.6246 6.93739 54.7067 7.07812 54.5073C7.08399 54.5015 7.08985 54.4898 7.09572 54.4839L7.42997 54.0558C7.55311 53.9679 7.53552 53.7743 7.66453 53.6805L7.82872 53.4694C7.83459 53.4635 7.84045 53.4518 7.84632 53.446L8.09847 53.0765C8.47377 52.7833 8.2568 53.0061 8.36235 52.7423L8.26853 52.6895C8.24507 52.6308 8.26266 52.6367 8.24507 52.6074C8.24507 52.6015 8.23921 52.5898 8.23334 52.5839L8.09847 52.3846C8.09261 52.3787 8.08674 52.367 8.08088 52.3611L8.0281 52.2145C7.83459 52.0738 8.05742 52.2673 7.89323 51.9799L7.84045 51.8744C7.7994 51.8157 7.84632 51.8744 7.78181 51.804C7.54139 51.546 7.77008 51.7278 7.61762 51.546C7.57657 51.4991 7.54139 51.4756 7.49447 51.4287C7.27164 51.2117 7.5062 51.3173 7.31855 51.1824L7.27164 51.0886L7.17781 50.9948C7.09572 50.9361 7.12504 50.9479 7.10744 50.9127C6.94325 50.6371 6.95498 50.7543 6.81424 50.4905C6.81424 50.4846 6.80838 50.4729 6.80251 50.467L6.70282 50.338C6.45653 50.1621 6.74387 50.3673 6.59727 50.1621C6.30407 49.7516 6.45653 50.297 6.20438 49.517C6.09296 49.1593 6.22784 48.8603 6.13401 48.6433C5.99327 48.5436 6.05778 48.5436 6.05778 48.5436L5.94636 48.4556L5.80562 48.3618L5.52415 48.1742H5.47724L5.38341 48.0803C5.3365 48.0569 5.2544 48.0334 5.21335 48.01C5.14298 47.9689 5.14298 47.9455 5.08434 47.9044L4.86151 47.7989L4.76769 47.705L4.48621 47.5174H4.4393L4.25165 47.3297L3.92326 47.0483L3.73561 46.8606L3.30167 46.3094C3.20198 46.1921 3.10816 46.11 2.99674 46.0045C2.94396 45.9517 2.90878 45.9341 2.87946 45.8637C2.82082 45.7464 2.96156 45.852 2.79736 45.7347L2.60971 45.3594C2.42206 44.8727 2.46311 45.1073 2.40447 44.99L2.07022 44.0635C2.01158 43.9345 1.98812 43.9169 2.00571 43.6295L2.02331 42.9493C2.02331 42.3336 1.99399 42.791 2.11713 42.316C2.14645 42.187 2.16991 42.2397 2.21096 42.1283C2.21096 42.1225 2.21682 42.0697 2.23441 42.0228C2.39274 41.9114 2.25787 41.8879 2.42206 41.5888L2.49243 41.4715C2.49243 41.4657 2.49829 41.454 2.49829 41.4481L2.58039 41.3074C2.58039 41.3015 2.58626 41.2898 2.58626 41.2839L2.60971 41.2135C2.60971 41.2135 2.66835 41.0728 2.68008 41.0552C2.68594 41.0435 2.7094 41.0024 2.71526 40.9907L2.77391 40.9027C2.77977 40.891 2.77977 40.8675 2.78563 40.8558C2.80323 40.8148 2.82082 40.7679 2.83255 40.7385L2.90878 40.5274C2.91464 40.5216 2.92637 40.5098 2.92637 40.504L2.96156 40.4336C2.96156 40.4277 2.96742 40.375 2.98501 40.3281C3.19025 40.1815 2.92637 40.3046 3.1668 39.8941C3.19025 39.8531 3.26062 39.7944 3.30167 39.7534C3.5245 39.5364 3.50691 39.3312 3.6887 39.2022L3.8353 38.9617C3.84116 38.9559 3.84703 38.9441 3.85289 38.9383L3.89394 38.8914C4.25751 38.4574 3.99949 38.6861 4.26924 38.4164C4.45689 38.2346 4.38652 38.088 4.53899 37.9824L4.63281 37.8886C4.75009 37.7127 5.0433 37.5016 5.11953 37.3608C5.21335 37.1908 5.71766 36.6865 5.89358 36.5164L6.56209 35.8245C6.70282 35.7306 6.77319 35.6251 6.9022 35.5078C7.04294 35.3788 6.96671 35.4609 7.10744 35.3788C7.18954 35.3319 7.19541 35.3084 7.27164 35.2615L7.3596 35.2087C7.37133 35.2029 7.42997 35.1677 7.45342 35.1618C7.51206 35.1325 7.58243 35.0973 7.64107 35.068L8.0281 34.8862L8.22748 34.7807C8.33303 34.7396 8.24507 34.81 8.4034 34.6986L8.46204 34.6634C8.69074 34.5285 8.59105 34.6399 8.7787 34.5109C8.79043 34.505 8.80216 34.4933 8.80802 34.4933L9.18332 34.3584C9.19505 34.3584 9.25955 34.3467 9.25955 34.3467L9.36511 34.3057C9.71109 34.1942 9.41202 34.3467 9.71695 34.1415H9.76386C10.016 34.0183 10.0277 34.1122 10.1861 34.0476H10.233C10.3444 34.0007 11.2006 34.0007 11.312 34.0476H11.3589C11.5055 34.1063 11.5231 34.0359 11.7635 34.1063C11.7694 34.1063 11.7928 34.1297 11.7987 34.1239C11.8046 34.1122 11.8221 34.1356 11.828 34.1415H11.8749H11.9218H11.9687H12.0157C12.215 34.2353 12.5786 34.2412 12.8073 34.2939C13.0067 34.3408 13.0243 34.3643 13.2412 34.376C13.5227 34.3936 13.7983 34.3936 14.0505 34.3174C14.1795 34.2822 13.9743 34.3408 14.1267 34.2998L14.7249 34.0652C14.9653 33.948 15.0826 34.0242 15.2643 33.948H15.3113L15.581 33.8659C15.5869 33.8659 15.5986 33.86 15.6045 33.86C15.8038 33.7955 15.8566 33.8483 16.0267 33.8365C16.2202 33.8189 16.1146 33.5961 16.0853 33.4671L16.0384 33.1153C16.0443 33.0566 16.0384 33.0449 16.056 32.9569L16.1088 32.8162C16.1146 32.7517 16.1264 32.6344 16.1322 32.6344L16.1909 32.5699C16.1909 32.564 16.2085 32.5582 16.2085 32.5582C16.2554 32.4995 16.2202 32.3705 16.2964 32.2474C16.3433 31.6668 16.3082 31.9894 16.3902 31.6844C16.3785 31.661 16.3433 31.6082 16.3316 31.5789C16.2495 31.4147 16.2261 31.5144 16.0795 31.2505C16.0443 31.186 16.0501 31.2036 16.0384 31.1567C15.9974 31.0159 16.0795 31.227 16.0208 31.0746V31.0218C15.9622 30.8752 15.9974 30.7696 16.0208 30.5058V30.4588C16.0677 30.3416 16.0443 30.195 16.0443 30.0718C16.0443 29.8197 16.0443 29.7258 16.1146 29.6144C16.1205 29.5616 16.1381 29.4209 16.1381 29.415L16.2143 29.245C16.2554 29.1218 16.2202 29.1981 16.2378 29.0749L16.3023 28.8638C16.314 28.7289 16.3199 28.7407 16.3257 28.6586L16.3199 27.9549C16.2964 27.5327 16.2261 27.562 16.2261 26.9404C16.2261 26.7645 16.185 26.5944 16.2847 26.3071C16.3433 26.1429 16.3668 25.9787 16.4665 25.8321L16.8828 25.0815C16.9473 24.8645 17.1584 24.5831 17.2523 24.3544C17.2523 24.3485 17.2581 24.3368 17.2581 24.3309L17.3461 24.067C17.3695 23.9791 17.3168 24.0377 17.4223 23.9615C17.5044 23.8383 17.522 23.8442 17.5455 23.6683L17.5513 23.293C17.4927 22.9528 17.4986 23.3575 17.4282 22.5013V22.4603C17.3695 22.3254 17.4868 22.2961 17.3285 22.2902C17.176 22.2843 17.264 22.3899 17.0998 22.3195H17.0529C16.9121 22.3782 16.4313 22.3899 16.3609 22.3899C15.9387 22.3899 16.056 22.2198 16.0384 22.1847C15.968 22.0146 16.0736 22.1377 15.927 22.085C16.056 21.8915 15.9563 22.0146 16.0208 21.8504V21.8035C16.0501 21.7331 16.0267 21.6921 16.1498 21.5103L16.4489 21.2347C16.531 21.1936 16.6014 21.1819 16.6835 21.1409H16.7304C16.8125 21.0998 16.8828 21.0881 16.9649 21.047H17.0118C17.1115 21.006 17.2757 21.0001 17.5279 21.0001C17.5748 20.918 17.522 20.9063 17.6217 20.7656C17.6627 20.7069 17.6921 20.6835 17.7214 20.6365L17.7448 20.572C17.7448 20.5662 17.7507 20.5544 17.7507 20.5486C17.7624 20.531 17.8094 20.4841 17.8328 20.4665L17.9208 20.4078C17.9266 20.3961 17.9384 20.3961 17.9501 20.3903C18.0556 20.3199 18.0322 20.2964 18.1495 20.2612C18.2726 20.2202 18.2374 20.2671 18.3723 20.2026H18.4192C18.7183 20.0619 18.8473 20.185 19.0291 20.1088H19.076C19.2812 20.1909 19.3809 20.056 19.6858 20.2026H19.7328C19.8149 20.2437 19.8852 20.2554 19.9673 20.2964H20.0142C20.0963 20.3375 20.1667 20.3492 20.2488 20.3903L20.6593 20.7304C20.7883 20.8828 20.7766 20.8535 20.8704 20.8887C20.9114 20.9063 20.8821 20.877 20.9408 20.9239L21.0932 21.0529L21.3747 21.2347C21.3806 21.2405 21.3923 21.2464 21.3982 21.2464C21.7207 21.4282 21.5096 21.3578 21.7559 21.522L21.9435 21.7097C22.1136 22.126 22.1488 22.0029 22.1546 22.2374C22.1722 22.7242 21.9611 22.7593 21.5741 22.8708L21.404 22.9177C21.3923 22.9177 21.3806 22.9235 21.3688 22.9235C20.9935 22.9587 20.8587 22.8356 20.6241 22.8356C20.7414 23.0056 20.7297 22.8766 20.671 23.0232V23.0701C20.7355 23.205 20.7883 23.3927 20.7179 23.5393C20.9583 23.5627 20.7883 23.5979 20.8587 23.7738C20.6651 23.7738 20.7062 23.7562 20.5772 23.8207H20.5479H20.501H20.454C20.3016 23.9321 20.3895 23.7973 20.3837 23.9732C20.3778 24.1902 20.284 24.325 20.3074 24.4013C20.325 24.4658 20.3074 24.4013 20.3602 24.4834L20.2253 24.6241C20.1491 24.7355 20.3544 24.6358 20.1315 24.7297C19.9908 24.7883 20.1198 24.6945 19.8325 24.7824C19.7914 24.7942 19.7269 24.8059 19.6038 24.8176C19.6565 24.9525 19.6272 25.275 19.6272 25.4158C19.6272 25.6327 19.6155 25.3806 19.7328 25.6972C19.8325 25.9728 19.8559 25.9787 20.026 25.9904C19.9849 26.0784 19.9966 26.1488 19.9966 26.2133L20.0494 26.6589C20.0729 26.7821 20.0963 27.0049 20.0963 27.0636C20.0905 27.4271 20.2136 27.1222 20.1198 27.3568V27.4037C20.2605 27.7027 20.155 27.8787 20.196 28.0487L20.2605 28.2481V28.295C20.325 28.4533 20.2547 28.5648 20.2898 28.7055L20.3602 28.987C20.3602 28.9928 20.3661 29.0046 20.3661 29.0104L20.3544 29.0925V29.1394C20.413 29.2743 20.3602 29.2919 20.3778 29.4092C20.3954 29.5206 20.501 29.4913 20.6241 29.4913C20.7942 29.4913 21.1812 29.4678 21.2926 29.5147H21.3395C21.404 29.5382 21.3982 29.5323 21.4451 29.5382C21.4861 29.5441 21.4803 29.5441 21.5682 29.5616C21.6972 29.591 21.662 29.5616 21.7617 29.6027H21.8086C21.9963 29.6789 22.6941 29.6672 22.8818 29.6672C23.0284 29.6672 23.2101 29.6672 23.3743 29.6731C23.4975 29.6789 23.603 29.6437 23.7379 29.6965H23.7848C23.9021 29.6496 23.9959 29.6789 24.1308 29.6613C24.3419 29.6379 24.5296 29.6203 24.6762 29.6965L24.8169 29.7903C24.9635 29.8607 24.9342 29.8021 25.0632 29.9193C25.1512 29.9956 25.1336 30.0014 25.2391 30.0718H25.286L25.3799 30.1187C25.5851 29.8138 25.4795 29.9663 25.5675 29.7317L25.5265 28.7055C25.4326 28.5706 25.4561 28.5589 25.4561 28.3888L25.544 27.5385C25.6085 26.9287 25.6379 27.0049 25.5558 26.5534C25.4854 26.1781 25.4795 26.3951 25.4619 26.1077C25.4502 25.9083 25.2684 25.8966 25.2684 25.5448C25.2743 25.0698 24.9987 24.7883 25.2098 24.4365C25.3564 24.1902 25.1687 24.2195 25.3388 23.8149V23.768C25.3916 23.6389 25.3505 23.7269 25.3623 23.6155L25.4326 23.3809C25.5206 23.1229 25.4092 22.73 25.4678 22.513L25.7669 21.7038C25.9252 21.5924 25.7903 21.6979 25.849 21.5748L25.9545 21.3637C26.0014 21.2699 25.9545 21.3813 26.0014 21.2933L26.2067 20.9591C26.2712 20.8711 26.324 20.877 26.4354 20.8183C26.7286 20.6659 26.5233 20.402 26.5937 20.0912L26.6641 19.6807V19.6338L26.5233 19.4931H26.4706C26.3591 19.4461 26.3181 19.4813 26.1422 19.3992L25.8607 19.2116H25.8138C25.7551 19.1705 25.761 19.1705 25.7024 19.1295L25.544 19.0181C25.2567 18.7659 25.3036 18.9242 25.1512 18.5548V18.5079L25.0632 18.3789L25.3388 18.1326H25.3857C25.4854 18.0915 25.6144 18.0915 25.7141 18.1326H25.761C25.8138 18.156 25.8372 18.1619 25.8959 18.1854C25.9604 18.2147 25.9663 18.2264 26.019 18.2499C26.1539 18.2968 26.148 18.2557 26.2771 18.3202H26.324C26.4412 18.3672 26.3474 18.3672 26.4647 18.3202H26.5116C26.6406 18.2675 26.7051 18.3378 26.8517 18.1912L26.9514 18.0505C27.1039 17.6576 27.3854 17.7162 27.6844 17.5696H27.7313C27.8134 17.5286 27.8838 17.5169 27.9659 17.4758H28.0128C28.1887 17.3996 28.5992 17.4582 28.7634 17.5696H28.8103H28.8572C28.9452 17.6107 28.9276 17.6048 29.0566 17.6341L29.2443 17.6869C29.256 17.6869 29.2853 17.6928 29.3029 17.6928C29.3909 17.7045 29.4319 17.7045 29.514 17.6987L29.6137 17.5638L30.4112 16.8132L30.505 16.7194L30.6458 16.6255C30.7865 16.5317 30.8627 16.3968 30.9976 16.3206C31.1384 16.2385 31.0563 16.3323 31.2029 16.1916C31.285 16.1154 31.2615 16.1212 31.3553 16.0626L31.4492 15.9688L31.5899 15.8749L32.1528 15.4527V15.312C32.2056 15.2885 32.2349 15.2827 32.2877 15.2592L32.6161 15.1419C32.6806 15.1185 32.9093 15.0188 33.0618 15.007C33.7479 14.9719 33.5778 15.0774 34.1818 15.1243C34.1935 15.1302 34.2053 15.1361 34.2111 15.1419L34.2815 15.1947C34.3225 15.2416 34.2053 15.1947 34.3695 15.312H34.4164L34.5102 15.3589L34.3929 15.5407C34.3753 15.5876 34.387 15.6286 34.4164 15.6873C34.2287 15.7049 34.2639 15.7049 34.1818 15.828L33.9472 16.0157L33.6951 16.1916C33.4136 16.432 33.6071 16.3089 33.5192 16.6197C33.4723 16.7839 33.5016 16.7721 33.3843 16.8601H33.3374L32.9621 17.0477L32.5047 17.6459C32.4636 17.7045 32.4988 17.6693 32.446 17.7045C32.4343 17.7104 32.4226 17.7162 32.4167 17.7221C32.4109 17.728 32.3933 17.7338 32.3874 17.7397L32.2701 17.8159C32.0473 17.986 32.0883 17.8453 31.93 18.0857L31.8362 18.1795L31.7424 18.2733H31.6954L31.6368 18.3085C31.6309 18.3144 31.6133 18.3202 31.6075 18.3261C31.6016 18.332 31.584 18.3378 31.5782 18.3437L30.8862 19.1119C30.8803 19.1178 30.8745 19.1295 30.8686 19.1353C30.7924 19.2644 30.8686 19.2057 30.7513 19.3523L30.5578 19.6514C30.5578 19.6572 30.552 19.669 30.552 19.6748L30.5285 19.7452C30.4816 19.8684 30.5285 19.6924 30.4757 19.8742C30.5578 19.9974 30.593 20.0677 30.6634 20.2026C30.9331 20.3961 30.5344 20.1967 30.8041 20.3903L31.1794 20.7656L31.2732 20.8594C31.3436 21.0353 31.2791 21.1057 31.0856 21.2347C30.8979 21.2288 30.9742 21.2464 30.851 21.1878H30.8041H30.7513C30.7044 21.1584 30.7513 21.1819 30.6634 21.135C30.6458 21.1233 30.593 21.1057 30.5637 21.0939H30.5168H30.4699C30.4229 21.0646 30.4699 21.0881 30.3819 21.0412C30.3643 21.0294 30.3115 21.0118 30.2822 21.0001H30.2353C30.0418 20.9063 29.9128 20.9239 29.772 21.0588L29.4964 21.4106C29.4612 21.4692 29.4906 21.4341 29.4495 21.481C29.1622 21.8152 29.4143 21.651 29.297 21.9384C29.4671 21.9501 29.385 21.9325 29.5668 22.0439L29.6254 22.0791C29.8952 22.2785 29.7251 22.4368 29.8189 22.6831C29.9597 23.0408 29.8307 22.7652 29.8893 22.9939C29.9421 23.205 29.9655 23.076 29.9773 23.2402L29.9831 23.334C29.9831 23.3399 29.989 23.3516 29.9949 23.3575L30.2587 24.1608C30.2763 24.2078 30.2529 24.1608 30.2939 24.2312L30.3467 24.325C30.3467 24.3309 30.3526 24.3426 30.3526 24.3485C30.3526 24.3544 30.3584 24.3661 30.3584 24.372C30.4288 24.5127 30.376 24.3544 30.4347 24.4892C30.4699 24.5772 30.4229 24.4892 30.4523 24.5948L30.5402 25.0346C30.5637 25.234 30.7103 25.709 30.6575 25.8438C30.6634 25.8556 30.6692 25.8673 30.6751 25.8731L30.7279 25.9611C30.7689 26.0198 30.7513 25.9963 30.7982 26.0315C30.8452 26.0022 30.81 26.0139 30.8979 25.9846C30.9097 25.9787 30.9624 25.9728 30.9742 25.9728C31.0269 25.9611 31.0797 25.9611 31.0914 25.9611C31.1794 25.9494 31.2732 25.9142 31.3495 25.9142C31.4374 25.9142 31.4667 25.9142 31.5606 25.9142C31.672 25.9142 31.6427 25.9201 31.8303 25.9377H31.8772C32.0414 25.8673 31.9183 25.9728 32.1118 25.8438H32.1587C32.2115 25.8204 32.2408 25.8145 32.2936 25.7911C32.3815 25.75 32.3229 25.7735 32.4167 25.7265C32.5164 25.6796 32.5633 25.6679 32.6747 25.6562C32.8448 25.5448 32.9386 25.6445 33.226 25.5037L33.2846 25.4685C33.4429 25.363 33.4371 25.275 33.5778 25.2516L33.8124 25.2574C33.8886 25.275 33.783 25.2516 33.9062 25.2926C34.0176 25.3278 33.9296 25.275 34.0821 25.3747H34.129C34.2815 25.4861 34.1583 25.4158 34.2346 25.5096L34.3225 25.6093C34.3284 25.6151 34.3343 25.6269 34.3401 25.6327C34.4046 25.7207 34.3636 25.662 34.4281 25.7324C34.692 26.0315 34.4222 25.8438 34.6333 26.0843C34.7096 26.1722 34.6451 26.0549 34.6744 26.1605L34.9852 26.958C34.991 26.9639 34.9969 26.9815 35.0028 26.9873L35.3136 27.8493C35.3312 27.908 35.3194 27.8142 35.3312 27.9197L35.4308 28.4123C35.466 28.512 35.6009 28.8521 35.4954 29.0808L35.5892 29.1336H35.6361C35.6889 29.1101 35.7534 29.0925 35.8061 29.0632C36.158 28.8697 36.0818 29.0339 36.0876 28.6058C36.0876 28.4944 36.0818 28.5237 36.0642 28.3361C36.0407 28.3009 36.0407 28.3185 36.0114 28.2481C35.941 28.0663 36.0466 28.3419 35.9938 28.1601C35.9645 28.0546 36.0583 28.1543 35.9176 28.0546L35.5892 27.0225C35.8296 27.0225 35.6654 27.0225 35.7299 26.9756L35.8707 26.829L35.9645 26.8818H36.0114L36.1814 26.9932C36.1873 26.999 36.199 27.0049 36.2108 27.0108C36.2166 27.0166 36.2342 27.0225 36.2401 27.0284C36.4453 27.1515 36.3867 27.1632 36.5274 27.2571H36.5743L36.7151 27.3509L36.8617 27.4389C36.9203 27.4799 36.932 27.4975 36.9966 27.5385L37.1373 27.6324L37.2311 27.7262C37.2898 27.7672 37.3073 27.7672 37.3601 27.8317L37.5595 28.1015H37.6064C37.7237 28.1484 37.6299 28.1484 37.7471 28.1015L38.2632 28.1484C38.1752 27.9373 38.2163 28.2188 38.3453 27.8787L38.4684 27.6441C38.5388 27.5327 38.6092 27.3333 38.9376 27.0811C39.0783 26.9697 39.0607 27.0577 39.0842 26.9932C39.09 26.9815 39.1017 26.9815 39.1135 26.9756C39.1487 26.958 39.2249 26.9345 39.2483 26.9228C39.4008 26.8466 39.395 26.7821 39.5005 26.8114C39.6647 26.8524 39.7409 27.1691 39.7937 27.3919L39.8172 27.4623C39.8582 27.6148 39.8348 27.7027 39.823 27.8728V27.9197C39.6999 28.1777 39.7878 28.2774 39.7468 28.3771C39.6764 28.5472 39.6882 28.295 39.6588 28.6586C39.6588 28.6762 39.6412 28.7641 39.6412 28.811V28.858C39.6061 28.9459 39.6471 28.9987 39.653 29.0104C39.6882 29.1218 39.6178 29.0925 39.8289 29.2333L40.0165 29.4209L40.2042 29.6086C40.3508 29.8255 40.6088 30.019 40.6029 30.2536L40.5912 30.7227C40.5619 30.8928 40.4974 30.6758 40.5795 30.8752V30.9221C40.4798 31.1684 40.4857 31.5144 40.5736 31.7841L40.6029 31.9718C40.6205 32.177 40.8082 32.3412 40.8903 32.5347C40.9079 32.5758 40.8903 32.5406 40.9255 32.6051L40.9841 32.7224C41.031 32.8338 41.0545 32.9276 41.1424 32.9921C41.1659 33.2619 41.2128 33.1094 41.2656 33.3146C41.3653 33.6782 41.4298 33.4436 41.5529 33.7779L41.6585 34.118H41.7054C41.764 34.2529 41.7171 34.1591 41.7288 34.2705L41.764 34.4112C41.7699 34.505 41.7758 34.3878 41.7464 34.4816L41.7288 34.6927C41.7347 35.0152 41.6702 34.939 41.635 35.0973C41.594 35.285 41.7288 35.1794 41.5647 35.2967C41.5529 35.455 41.5295 35.5019 41.4591 35.6133C41.2773 35.8831 41.4122 35.7834 41.0838 36.0883L40.8903 36.2232C40.8844 36.2115 40.8727 36.2349 40.861 36.2408H40.814H40.7671C40.6674 36.2819 40.5678 36.2701 40.4446 36.2701L39.7409 36.1294C39.6471 36.0883 39.7351 36.1939 39.6354 36.0532H39.5885H39.5474L39.4067 35.9593L39.2659 35.8655L39.1311 35.7893L38.9845 35.8655L38.8906 35.9593L38.703 36.147L38.5153 36.3346C38.4039 36.2584 38.099 36.2056 37.9524 36.1939L37.8351 36.6923C37.7706 36.8448 37.7882 36.6865 37.7823 36.8683C37.7765 37.4547 37.8527 37.4078 37.3367 37.654H37.2898C37.1959 37.701 37.2487 37.6775 37.1197 37.7127L37.0083 37.7479L37.0611 38.1173C37.1432 38.434 37.0141 39.4015 37.149 39.6771L37.2898 39.5833H37.3367L37.4774 39.4895L37.5654 39.4367C37.5771 39.4309 37.6123 39.4133 37.624 39.4015L37.9934 39.208C38.0697 39.1728 38.1166 39.167 38.187 39.1201C38.2397 39.0849 38.2515 39.0614 38.3218 39.0204H38.3687C38.4274 38.9793 38.4567 38.9441 38.4977 38.9207C38.6795 38.821 38.4274 38.9676 38.5916 38.8914C38.6678 38.8562 38.7089 38.7917 38.791 38.733L38.9317 38.6392C39.0021 38.5923 39.0196 38.563 39.0959 38.5219C39.1428 38.4985 39.2132 38.475 39.2601 38.4516L39.3774 38.3812C39.5709 38.2815 39.4419 38.3929 39.6354 38.2639H39.6823C39.7527 38.2346 40.0517 38.1935 40.1455 38.1935C40.2218 38.1935 40.427 38.1935 40.5795 38.2639H40.6264H40.6733H40.7202H40.7671H40.814L41.5177 38.4516H41.5647L41.7934 38.5043C41.9165 38.5337 41.8872 38.5219 41.9986 38.5219C42.5205 38.5161 44.4498 38.563 44.7136 38.4516H44.7606C45.0303 38.3401 46.3087 38.3753 46.6312 38.3812C46.9596 38.3812 46.7954 38.3519 47.1003 38.2463L47.2528 38.1701H47.2997C47.3114 38.1642 47.3994 38.129 47.3994 38.129C47.5049 38.0763 47.4404 38.1114 47.4874 38.0763L47.6281 37.9824H47.675C47.7571 37.9414 47.8275 37.9297 47.9096 37.8886C47.9213 37.8827 47.933 37.871 47.9389 37.871C48.1969 37.7127 48.0972 37.83 48.2849 37.701H48.3318L48.7071 37.5133L49.0531 37.3432C49.0589 37.3315 49.0706 37.3315 49.0824 37.3257C49.1586 37.2905 49.2055 37.2846 49.2759 37.2377C49.3287 37.2025 49.3404 37.1791 49.4108 37.138L49.5867 37.0325C49.6629 36.9973 49.7157 36.9797 49.7861 36.9504H49.833C50.0851 36.8272 50.1027 36.921 50.2552 36.8565H50.3021C50.4194 36.9034 50.3256 36.9034 50.4428 36.8565H50.4897C50.6598 36.9269 50.6129 36.7862 50.6129 36.6806L50.7009 32.8866C50.736 32.8045 50.736 32.7576 50.7419 32.7341L50.9061 32.4409L50.9999 32.3471L51.1934 32.2591C51.428 32.177 51.6215 32.1946 51.8092 32.1946L52.2255 32.2122C52.4366 32.2239 52.3838 32.2415 52.6008 32.2591L53.0699 32.3529H53.1168C53.281 32.4292 53.4276 32.3998 53.5391 32.4468H53.586C53.7033 32.4937 53.6212 32.4585 53.7502 32.4819C53.8029 32.4878 53.8909 32.5054 53.9437 32.5113C54.0786 32.5289 54.0844 32.4937 54.2017 32.5406H54.2486L54.5653 32.5992C54.7119 32.6168 54.6356 32.5934 54.7295 32.5992C54.8233 32.6051 54.794 32.5992 54.8643 32.6344H54.9112C55.1341 32.7282 56.2717 32.8455 56.5649 32.91C56.8816 32.9804 56.9519 32.9276 57.122 33.0097H57.1689C57.2862 33.0566 57.1924 33.0566 57.3097 33.0097C57.3566 33.039 57.3214 33.0273 57.4093 33.0566L58.4355 33.1974H58.4825C58.5997 33.2443 58.5176 33.2091 58.6467 33.2325C58.6994 33.2384 58.7874 33.256 58.8402 33.2619C58.975 33.2795 58.9809 33.2443 59.0982 33.2912H59.1451C59.2917 33.3498 59.3093 33.2795 59.5497 33.3498L59.6142 33.385C59.7315 33.3381 59.6377 33.3381 59.755 33.385H59.8019C59.8898 33.4202 59.9192 33.4085 60.0833 33.4378C60.2593 33.4612 60.1948 33.4495 60.359 33.4847C60.488 33.514 60.6932 33.4847 60.8809 33.5727H60.9278C61.0216 33.6078 61.3852 33.6372 61.5025 33.643C61.608 33.6489 61.5318 33.643 61.6373 33.6606C62.0537 33.7486 61.7194 33.5668 62.0068 33.7603H62.0537C62.3645 33.9069 62.4642 33.772 62.6635 33.8541H62.7104L63.3614 33.9245C63.4728 33.9304 63.3907 33.8952 63.5138 33.948H63.5607H63.6077V33.901H63.5607L63.4141 33.8131C63.0916 33.6606 63.0682 33.901 63.0682 33.3264L63.0506 33.0508C63.0271 32.9804 63.0212 32.998 62.9978 32.9628L62.9685 32.6403C62.9098 32.3178 62.9216 32.1301 63.0799 31.8486L63.1092 31.8017C63.1151 31.7958 63.1268 31.7841 63.1268 31.7783L63.4024 31.444C63.4024 31.4381 63.4141 31.4323 63.42 31.4323C63.42 31.4264 63.4317 31.4205 63.4317 31.4147L63.4611 31.3502C63.5666 31.1919 63.4962 31.3912 63.637 31.0922L63.8891 30.752L63.9536 30.4354C63.9947 30.2947 63.9302 30.4588 63.9829 30.3298V30.2829C64.0533 30.107 63.9243 30.2888 64.1002 29.9839C64.1413 29.9135 64.024 30.0132 64.1706 29.9018L64.6397 29.6203L64.7336 29.5265L64.8274 29.4326C64.9036 29.3212 64.9505 29.3036 65.0268 29.2098C65.0854 29.1277 65.1147 29.0456 65.1558 28.9635C65.2965 28.8638 65.1968 28.9401 65.2379 28.8345L65.4021 28.4299C65.4724 28.2833 65.3551 28.5061 65.4255 28.3595C65.4783 28.2422 65.4255 28.3712 65.4724 28.2891C65.5076 28.2305 65.5017 28.2305 65.5135 28.1953L65.8594 27.6382L66.0002 27.5444C66.0588 27.5034 66.053 27.5034 66.1116 27.4623L66.2406 27.3802C66.2465 27.3802 66.2523 27.3685 66.2523 27.3626C66.2582 27.3626 66.2641 27.3509 66.2641 27.345L66.4576 27.2043C66.481 27.1808 66.5807 27.087 66.5983 27.0577L66.8622 26.6531C66.8681 26.6472 66.8798 26.6413 66.8798 26.6413L66.956 26.5182C66.9795 26.4889 67.0909 26.3775 67.1202 26.3481C67.2023 26.2778 67.2316 26.2836 67.2785 26.2426C67.6421 25.9494 67.818 25.9377 67.8708 25.709C67.9236 25.4803 67.994 25.5037 67.8884 25.4158C67.9646 25.2574 67.9529 25.0053 68.0878 24.8176L68.6214 24.1374C68.6273 24.1315 68.6331 24.1257 68.639 24.1198L68.7856 24.0494L68.9264 24.2605C68.9733 24.3192 68.9322 24.2488 68.9733 24.3016C68.9733 24.3074 68.985 24.3133 68.985 24.3192L69.1668 24.6006C69.1726 24.6124 69.1785 24.6241 69.1844 24.6358L69.4424 25.879C69.5949 25.8907 69.5831 25.9025 69.6711 25.9025L70.1989 25.9259H70.2458C70.3103 25.9494 70.3044 25.9435 70.3513 25.9494C70.3924 25.9552 70.3865 25.9552 70.4745 25.9728C70.6035 26.0022 70.5683 25.9728 70.668 26.0139H70.7149H70.7618H70.8087C70.9729 26.096 71.1547 26.0725 71.2192 26.0843C71.3365 26.1018 71.2602 26.1077 71.3834 26.1429C71.5241 26.1839 71.4772 26.1429 71.6062 26.2015H71.6531C71.747 26.2426 71.7294 26.2367 71.8525 26.266L72.738 26.5241C72.867 26.5592 72.7966 26.5123 72.9256 26.5768L73.0253 26.6179C73.0371 26.6237 73.0546 26.6237 73.0664 26.6237C73.1661 26.6531 73.1016 26.6179 73.213 26.6648H73.2599L73.4006 26.7586H73.4475C73.5062 26.7997 73.4827 26.7879 73.5296 26.8114L73.9167 26.8994C74.163 26.5299 74.2275 26.5358 74.421 26.3716C74.5148 26.2895 74.5148 26.266 74.6204 26.1957L74.7142 26.1018L74.8549 26.008L75.2302 25.8204L75.4296 25.7617C75.5938 25.709 75.6759 25.6738 75.8694 25.6914L76.3151 25.8204H76.362C76.7725 26.0198 76.8546 25.7559 77.1243 25.6386C77.1302 25.6327 77.1419 25.6269 77.1536 25.6269L77.3999 25.5799C77.57 25.5565 77.5348 25.5506 77.7342 25.533H77.7811C77.957 25.4509 78.0274 25.5213 78.2033 25.4392H78.2502C78.3675 25.3923 78.2737 25.3923 78.3909 25.4392C78.4027 25.4333 78.4144 25.4275 78.4203 25.4216C78.69 25.3161 78.6959 25.4158 78.8601 25.3454H78.907C79.0184 25.2985 79.165 25.3278 79.3292 25.2516H79.3761H79.423H79.4699H79.5168H79.5638C79.6752 25.2046 79.6928 25.234 79.81 25.2281C80.1326 25.2222 79.9918 25.1753 80.0387 25.105L80.2147 24.8411C80.2909 24.7003 80.1208 24.9935 80.244 24.7942C80.2909 24.7238 80.285 24.7355 80.3143 24.6769C80.5841 24.4834 80.1853 24.6827 80.4551 24.4892C80.6955 24.0377 80.4727 24.1667 80.6427 23.9263L80.6251 23.4689C80.6193 23.4572 80.6076 23.3985 80.6076 23.3868C80.5841 23.1933 80.6134 23.2285 80.6427 23.1757C80.6662 22.9118 80.6838 22.9822 80.7659 22.6948C80.7835 22.6421 80.7659 22.6948 80.7952 22.6186L80.8245 22.5541C80.8714 22.4309 80.8421 22.4368 80.8656 22.384C80.9301 22.2374 80.8832 22.4134 80.9418 22.2668C80.9887 22.1553 80.8714 22.1495 81.018 22.0439C81.1001 21.8504 80.9829 22.0498 81.0649 21.8563L81.1119 21.8094V21.7624C81.1764 21.61 81.0884 21.8211 81.1295 21.6803C81.1822 21.4986 81.1881 21.6393 81.2291 21.4927C81.2409 21.4399 81.2116 21.4106 81.235 21.352C81.2937 21.2054 81.2526 21.3813 81.3171 21.2347C81.4578 20.9004 81.1001 20.9297 80.9711 20.8711H80.9242H80.8773C80.8304 20.7949 80.8773 20.7949 80.8304 20.8711C80.6486 20.7949 80.6193 20.9004 80.5079 20.6776C80.4551 20.572 80.4785 20.6541 80.4785 20.5486C80.4727 20.4196 80.5313 20.1791 80.414 20.0677C80.2205 19.8859 79.8745 20.0795 80.0036 19.5634C80.0211 19.4872 80.2029 19.2292 80.0798 18.9829C79.9977 19.0239 79.9273 19.0357 79.8452 19.0767H79.7983C79.6869 19.1236 79.7104 19.0943 79.5989 19.1002C79.3644 19.1178 79.382 19.1353 79.1767 19.065C79.0653 19.0298 79.1533 19.0826 79.0008 18.9829C78.7252 18.7952 78.7428 18.936 78.6431 18.5489L78.6255 18.502C78.6255 18.4962 78.6196 18.4844 78.6138 18.4786C78.5669 18.2968 78.6548 18.1795 78.7135 18.0857L79.3233 17.5227L79.6048 17.2413H79.6517C80.4082 16.7369 80.0915 16.8484 80.2381 16.6959L80.4434 16.5728C80.4844 16.5552 80.461 16.561 80.5431 16.5317L81.3054 16.303H81.3523C81.6162 16.1916 82.097 16.2326 82.3785 16.3089C82.4489 16.3265 82.4841 16.3323 82.572 16.3499L82.7421 16.4144C82.7538 16.4203 82.7655 16.4262 82.7714 16.432L82.8359 16.4613C83.0353 16.5786 83.0001 16.649 83.0587 16.7604L83.135 16.9598C83.3226 17.0888 83.2229 17.1122 83.4516 17.1826L84.0263 17.3351H84.0732C84.1495 17.3703 84.1964 17.3761 84.2667 17.423C84.3195 17.4582 84.3312 17.4817 84.4016 17.5227L84.4954 17.6166C84.5072 17.6224 84.5189 17.6283 84.5247 17.6341C84.7652 17.7983 84.472 17.6928 84.7769 17.898C84.8473 18.0681 84.7769 17.9098 84.8121 18.0622C84.8414 18.1912 84.8649 18.1736 84.859 18.2733C84.8531 18.4317 84.7476 18.5313 84.6362 18.6076H84.5892C84.4661 18.6662 84.3136 18.6486 84.1788 18.6017L83.4575 18.4668C83.3343 18.719 83.4282 18.7366 83.3637 18.8891V18.936C83.2698 19.0767 83.2874 19.0298 83.2933 19.1588C83.2992 19.2585 83.3109 19.2585 83.2698 19.3582V19.4051C83.2288 19.5048 83.2288 19.6338 83.2698 19.7335V19.7804C83.2874 19.968 83.3343 20.0853 83.4282 20.2378C83.563 20.4606 83.4399 20.314 83.4927 20.5075L83.6979 20.9063C83.9677 21.0998 83.5689 20.9004 83.8387 21.0939L83.9559 21.305C84.0146 21.4106 83.9911 21.3402 84.0263 21.4106L84.2315 21.8328C84.2374 21.8445 84.2433 21.868 84.2433 21.8797L84.5189 22.9177C84.5247 23.1229 84.5541 23.7914 84.4485 23.9615C84.5013 24.0787 84.5013 24.2547 84.4485 24.3368C84.5423 24.5303 84.5189 24.8763 84.5189 24.9349C84.5189 24.9759 84.513 25.1226 84.5189 25.146C84.5365 25.2222 84.5423 25.1929 84.5834 25.2867C84.6772 25.5272 84.513 25.4568 84.7241 26.137L84.7476 26.2074C84.7945 26.3657 84.7183 26.1722 84.7769 26.313V26.3599C84.73 26.4771 84.73 26.3833 84.7769 26.5006V26.5475C84.73 26.6648 84.73 26.571 84.7769 26.6883V26.7352C84.73 26.8524 84.73 26.7586 84.7769 26.8759V26.9228C84.73 27.0401 84.73 26.9463 84.7769 27.0636V27.1105C84.73 27.2277 84.73 27.1339 84.7769 27.2512C84.5541 27.4095 84.8414 27.2395 84.6244 27.474L84.4426 27.7203C84.384 28.4299 84.4837 28.3067 84.6186 28.8697C84.6479 28.987 84.642 28.9576 84.6772 29.0397V29.0867C84.7183 29.1863 84.7183 29.3154 84.6772 29.415V29.462L84.5834 29.5558C84.7124 29.7493 84.6713 29.5968 84.6303 29.7317C84.4954 30.1774 85.6155 30.0014 85.9028 30.1187L85.9614 30.1539C86.1901 30.2888 86.0905 30.1774 86.2781 30.3064C86.4247 30.5058 86.2019 30.3122 86.5713 30.4178L86.6417 30.4295C86.7296 30.4354 86.9877 30.453 87.2164 30.453L88.2484 30.4061H88.2953C88.3774 30.365 88.4478 30.3533 88.5299 30.3122L88.7762 30.2419C88.87 30.2419 88.8935 30.2595 88.999 30.2184H89.0459C89.1573 30.1715 89.304 30.2008 89.4681 30.1246L89.562 30.1774L89.6558 30.1246H89.7027C89.82 30.1715 89.7262 30.1715 89.8434 30.1246H89.8904C90.0076 30.1715 89.9138 30.1715 90.0311 30.1246L90.1249 30.1774L90.2188 30.1246C90.336 30.2008 90.4357 30.1656 90.6234 30.1891C90.7406 30.2008 90.7758 30.1774 90.8755 30.2243C90.8873 30.2301 90.899 30.236 90.9048 30.2419L91.157 30.3181H91.2039C91.286 30.3592 91.3564 30.3709 91.4385 30.4119H91.4854C91.6496 30.4764 91.5264 30.3767 91.7199 30.5058H91.7669L92.1304 30.623C92.1422 30.6289 92.1715 30.6289 92.1832 30.6289L92.3298 30.6934C92.4119 30.7345 92.4823 30.7462 92.5644 30.7872C92.5761 30.7931 92.5878 30.799 92.5937 30.8048L93.0335 31.0687H93.0804C93.2211 31.1625 93.2974 31.2974 93.4323 31.3736C93.573 31.4557 93.4909 31.3619 93.6375 31.5026C93.7196 31.5789 93.6961 31.573 93.79 31.6317C94.1887 31.9073 93.8779 31.6668 94.2708 32.0421L94.5112 32.2767C94.6168 32.4233 94.5112 32.3881 94.6344 32.4761L94.7517 32.652C94.8396 32.8807 94.9804 32.8748 95.1563 33.1329L95.3439 33.3205C95.5199 33.4378 95.6489 33.602 95.8013 33.7544C95.8717 33.8248 95.9538 33.8952 96.0183 33.9656C96.2118 34.2001 95.8952 33.9831 96.1414 34.1649L96.2353 34.2588C96.3056 34.3643 96.3877 34.4054 96.4405 34.505L97.6016 35.9535L97.6954 36.0473L97.7892 36.1411C97.971 36.2701 97.7775 36.0414 97.9417 36.4812C97.9417 36.4871 97.9476 36.4988 97.9476 36.5047L98.059 36.6689C98.1411 36.7744 98.1118 36.7803 98.1645 36.8917C98.2994 36.9855 98.1997 36.9328 98.2584 37.0442L98.8096 38.1466C98.9738 38.5688 98.7861 38.3636 98.9621 38.4867C99.0148 38.563 99.0383 38.5747 99.0676 38.7037C99.1145 38.8914 98.9738 38.7448 99.1497 38.8679L99.437 39.466C99.4957 39.6068 99.4488 39.6185 99.4605 39.7182C99.4781 39.8413 99.5895 40.3281 99.4781 40.5098C99.5602 40.7092 99.4957 40.4922 99.4664 40.6623C99.4429 40.7854 99.4898 40.9555 99.4195 41.1021C99.1849 41.583 99.3432 41.4833 99.2435 41.7296L98.9621 42.3863V42.4333L98.833 42.6795C98.8272 42.6854 98.8213 42.6971 98.8155 42.703L98.6747 43.0079C98.6689 43.0138 98.663 43.0255 98.6571 43.0314L98.4812 43.4184C98.3757 43.5709 98.4108 43.653 98.4108 43.8993C98.4108 44.3684 98.4695 44.8668 98.2936 45.3008C98.188 45.377 98.2701 45.3418 98.1763 45.5119C98.1704 45.5177 98.1645 45.5295 98.1587 45.5353L98.0355 45.764C98.0121 45.8227 98.0531 45.8109 97.9124 45.9634C97.9065 45.9693 97.8948 45.981 97.8889 45.9869C97.8831 45.9927 97.8713 46.0045 97.8655 46.0103C97.7658 46.0983 97.7013 46.0983 97.584 46.1511C97.5723 46.1569 97.5605 46.1628 97.5547 46.1687L97.2439 46.3328C97.1852 46.3622 97.1031 46.3974 97.0562 46.4267C96.9976 46.4619 96.9859 46.4853 96.9214 46.5264H96.8745H96.8275L96.7337 46.6202L96.5343 46.7257C96.4053 46.7727 96.5167 46.6554 96.4053 46.8078L96.0183 46.9838C95.8013 47.1245 95.7955 47.06 95.5785 47.1597L95.3205 47.277L94.6637 47.5584L94.4761 47.6933C94.4702 47.6992 94.4643 47.7109 94.4643 47.7168C94.4233 47.793 94.4878 47.7989 94.435 47.9337L94.5288 47.9865L94.7165 48.1742L95.1856 48.4556H95.2325C95.3498 48.5377 95.4436 48.5612 95.5609 48.6433L95.9362 48.8309L96.4522 49.1124C96.5988 49.1828 96.5695 49.1241 96.6985 49.2414C96.7865 49.3177 96.7689 49.3235 96.8745 49.3939H96.9214C97.1149 49.5229 96.9917 49.4232 97.1559 49.4877L97.3436 49.6754L97.4374 49.7692L97.5312 49.863L97.7541 50.0155C98.0883 50.338 97.9241 50.1034 98.1294 50.297C98.1939 50.3556 98.2291 50.4025 98.2936 50.4611C98.4108 50.5784 98.5223 50.6664 98.6102 50.8013L98.8917 51.1766C99.1614 51.3701 98.7627 51.1707 99.0324 51.3642L99.1263 51.458L99.2201 51.5519C99.2494 51.6164 99.2553 51.6398 99.2905 51.7219C99.2963 51.7278 99.3022 51.7454 99.3022 51.7512C99.308 51.7571 99.3139 51.7688 99.3139 51.7806C99.3725 51.9272 99.2904 51.8275 99.3901 51.9448L99.613 52.2966C99.613 52.3025 99.6188 52.3142 99.6188 52.3201L99.7948 52.6484C99.8593 52.7775 99.7537 52.5605 99.8182 52.7188L100 53.2642L99.9062 55.17C99.8944 55.2345 99.9062 55.1934 99.8651 55.2638L99.8123 55.3576C99.8123 55.3635 99.8065 55.4163 99.7889 55.4632V55.5101L99.6892 55.7329C99.6892 55.7388 99.6833 55.7505 99.6833 55.7564L99.6423 55.8737C99.6423 55.8795 99.6364 55.8913 99.6364 55.8971L99.3784 56.3193C99.2259 56.5246 99.4429 56.2607 99.3256 56.4601C99.2729 56.5539 99.1204 56.6536 99.0383 56.7767C98.792 56.9527 99.0793 56.7474 98.9327 56.9527L98.3815 57.4335L98.2877 57.5273C98.1763 57.5977 98.1587 57.6563 98.059 57.7209L97.8303 57.8733C97.2028 58.3952 97.8244 57.8909 97.3905 58.1841H97.3436L97.2028 58.2779H97.1559C97.0738 58.319 97.0035 58.3307 96.9214 58.3718H96.8745L96.335 58.5829C95.9186 58.7881 95.7251 58.665 95.4788 58.7353C95.3205 58.7822 95.514 58.8292 95.3263 58.7471H95.2794C95.1621 58.794 95.256 58.794 95.1387 58.7471H95.0918C94.9745 58.794 95.0683 58.794 94.951 58.7471H94.9041C94.7868 58.794 94.8807 58.794 94.7634 58.7471H94.7165C94.5992 58.794 94.693 58.794 94.5757 58.7471H94.5288C94.4115 58.794 94.5054 58.794 94.3881 58.7471H94.3412C94.2239 58.794 94.3177 58.794 94.2004 58.7471H94.1535C94.0362 58.794 94.1301 58.794 94.0128 58.7471H93.9659C93.8486 58.794 93.9424 58.794 93.8251 58.7471H93.7782C93.6609 58.794 93.7548 58.794 93.6375 58.7471H93.5906L92.7579 58.8292C92.752 58.8292 92.7403 58.835 92.7344 58.8409C92.623 58.8702 92.7051 58.8878 92.6054 58.8468H92.5585C92.3415 58.9523 91.3153 58.9171 91.2977 58.9171C91.0866 58.9171 91.0456 58.9113 90.7582 58.9113C90.5765 58.9113 90.2657 58.8995 90.1542 58.9406H90.1073C89.99 58.8937 90.0839 58.8937 89.9666 58.9406H89.9197H89.8728H89.8259H89.7789H89.732H89.6851H89.6382C89.5151 58.9934 89.6089 58.9464 89.5033 58.9699C89.4975 58.9699 89.3509 59.0051 89.345 59.0051C89.2336 59.0227 89.2453 58.9816 89.1163 59.0344H89.0694H89.0225H88.9756C88.87 59.0755 88.2074 59.0754 88.0842 59.1282H88.0373L87.9552 59.1165C87.9494 59.1165 87.9376 59.1224 87.9318 59.1224C87.9259 59.1224 87.9142 59.1341 87.9083 59.1341C87.7148 59.1869 87.4568 59.1165 87.2398 59.2279H87.1929C86.9583 59.1282 87.316 59.2279 86.888 59.2455L84.7945 59.3217H84.7476C84.6479 59.3628 84.5189 59.3628 84.4192 59.3217L84.2315 59.3745C84.1553 59.3804 84.0791 59.3687 83.9911 59.3745L83.6041 59.3921C83.4575 59.4038 83.5748 59.4097 83.4868 59.4273C83.3695 59.4449 83.4458 59.3862 83.2992 59.4214L82.0618 59.5153H82.0149H81.968H81.9211C81.8038 59.5622 81.8976 59.5622 81.7804 59.5153H81.7335C81.6572 59.5446 81.364 59.5739 81.2233 59.5798C81.0415 59.5856 80.9477 59.568 80.8421 59.6091H80.7952H80.7483H80.7014C80.5841 59.656 80.6779 59.656 80.5606 59.6091H80.5137L79.6341 59.7264C79.5286 59.7264 79.4758 59.7322 79.3409 59.7967H79.294H79.2471H79.2002L78.4027 59.9844H78.3558C78.174 59.9081 78.3499 59.9551 78.2267 59.9902C78.1798 60.0723 77.869 60.0841 77.4762 60.0958ZM84.4661 59.3862H84.4192L84.4602 59.3335L84.4661 59.3862Z" fill="white" fill-opacity="0.85"/>
</svg>
