<svg width="100" height="80" viewBox="0 0 100 80" fill="none" xmlns="http://www.w3.org/2000/svg">
<path fill-rule="evenodd" clip-rule="evenodd" d="M42.2962 13.416H42.3328L42.3008 13.4617L42.2962 13.416ZM41.9168 13.9462H41.9534L41.9214 13.992L41.9168 13.9462ZM47.3703 15.0068H47.4068L47.3748 15.0525L47.3703 15.0068ZM41.5785 15.3862V15.4227L41.5328 15.3907L41.5785 15.3862ZM40.4814 17.2375V17.201L40.5272 17.2329L40.4814 17.2375ZM40.934 17.5438V17.5072L40.9797 17.5392L40.934 17.5438ZM41.9945 17.8455V17.8089L42.0402 17.8409L41.9945 17.8455ZM49.3039 19.4728V19.5094L49.2582 19.4774L49.3039 19.4728ZM50.5153 20.6842V20.7208L50.4696 20.6888L50.5153 20.6842ZM40.1752 20.9859H40.2117L40.1797 21.0316L40.1752 20.9859ZM39.9512 21.2145H39.9877L39.9558 21.2602L39.9512 21.2145ZM51.4204 21.8956V21.9322L51.3747 21.9002L51.4204 21.8956ZM54.2637 22.8053H54.3002L54.2682 22.851L54.2637 22.8053ZM52.2569 23.3355V23.3721L52.2112 23.3401L52.2569 23.3355ZM52.33 23.4087V23.4452L52.2843 23.4132L52.33 23.4087ZM53.3906 24.62V24.6566L53.3449 24.6246L53.3906 24.62ZM38.9638 26.1377H39.0004L38.9684 26.1834L38.9638 26.1377ZM55.3608 26.1377V26.1743L55.315 26.1423L55.3608 26.1377ZM41.6928 27.2348V27.1982L41.7385 27.2302L41.6928 27.2348ZM41.8802 28.0667V28.1033C41.9031 28.1627 41.9077 28.1993 41.9077 28.2862C41.9077 28.4096 41.8894 28.2542 41.9077 28.3867C41.9854 28.8941 41.9991 28.5376 42.0174 28.853C42.0357 29.1867 41.9488 29.1135 41.9351 29.269C41.9259 29.3741 41.9031 29.525 41.8437 29.6164C41.6288 29.461 41.9488 29.621 41.7294 29.4655C41.6882 29.365 41.734 29.4335 41.702 29.3604C41.6517 29.2507 41.6974 29.3787 41.6425 29.2644L41.3363 28.6427C41.3317 28.6381 41.318 28.6336 41.3134 28.629L41.254 28.5467C41.1397 28.2999 41.126 28.2862 41.1717 27.9662C41.19 27.8382 41.3637 27.5502 41.4094 27.4816L41.6151 27.1936L41.6928 27.2302L41.7294 27.3079C41.7934 27.3536 41.7751 27.3262 41.8162 27.4679L41.8665 27.8702C41.8665 27.8793 41.8665 27.9113 41.8665 27.9205C41.8665 27.925 41.8711 27.9387 41.8711 27.9433C41.8939 28.0713 41.9442 27.9113 41.8802 28.0667ZM56.2704 27.6508V27.6873L56.2247 27.6553L56.2704 27.6508ZM56.5721 28.405V28.4416L56.5264 28.4096L56.5721 28.405ZM56.8738 29.1638V29.2004L56.8281 29.1684L56.8738 29.1638ZM41.7294 29.4655V29.5021L41.6837 29.4701L41.7294 29.4655ZM41.8437 29.6164H41.8802L41.8482 29.6621L41.8437 29.6164ZM39.2655 29.9592V29.9227L39.3112 29.9547L39.2655 29.9592ZM58.9949 35.5224V35.559L58.9492 35.527L58.9949 35.5224ZM59.2966 35.8287V35.8652L59.2509 35.8332L59.2966 35.8287ZM27.0009 36.2812H27.0375L27.0055 36.3269L27.0009 36.2812ZM63.5387 44.3083V44.3449L63.493 44.3129L63.5387 44.3083ZM64.2198 45.5197V45.5562L64.1741 45.5242L64.2198 45.5197ZM64.5992 46.2739V46.3105L64.5535 46.2785L64.5992 46.2739ZM45.2904 47.6773H45.3269C45.3361 47.6818 45.3452 47.6818 45.3498 47.691C45.3544 47.7001 45.3681 47.7001 45.3726 47.7047C45.4229 47.7321 45.3864 47.7047 45.4458 47.7458C45.5098 47.7915 45.5144 47.8098 45.5509 47.8647V47.9013C45.5829 47.9835 45.5646 48.0613 45.6332 48.1984C45.6743 48.2807 45.6789 48.2532 45.7155 48.3264C45.7612 48.4224 45.6515 48.3355 45.7795 48.427C45.8252 48.4909 45.7886 48.4315 45.8298 48.4909C45.8343 48.4955 45.8435 48.5047 45.8435 48.5092C45.8481 48.5138 45.8526 48.5229 45.8572 48.5275L45.8846 48.5961C45.8846 48.6007 45.8938 48.6098 45.8938 48.6144L46.0812 48.8292C46.4012 49.3778 45.8389 48.5412 46.2183 49.0395L46.3006 49.1812C46.5109 49.4509 46.7029 49.5103 46.7029 49.908C46.7029 50.26 46.6937 50.4611 46.8811 50.7583C46.8994 50.7857 46.9223 50.804 46.9451 50.8451L47.0594 50.9228C47.0686 50.9274 47.0823 50.9274 47.0823 50.9366L47.1646 51.0234C47.1691 51.0325 47.1828 51.0554 47.1874 51.06L47.224 51.1194C47.224 51.124 47.2286 51.1331 47.2286 51.1377C47.2286 51.1423 47.2331 51.1514 47.2331 51.156C47.2331 51.1605 47.2377 51.1697 47.2377 51.1743C47.2971 51.2931 47.5303 51.4348 47.6674 51.6359V51.6725C47.7314 51.8325 47.64 52.2942 47.6994 52.3765C47.6994 52.3811 47.7085 52.3856 47.7131 52.3902C47.7177 52.3948 47.736 52.4085 47.7405 52.4131L47.832 52.573C47.832 52.5776 47.8365 52.5868 47.8365 52.5913C47.8502 52.6325 47.8365 52.5959 47.8594 52.6508C47.9782 52.9296 47.8457 52.7285 47.9234 52.8565C47.9554 52.9067 48.0285 52.957 48.0788 53.0347C48.1519 53.0713 48.2617 53.0667 48.3531 53.2359C48.3942 53.3136 48.3394 53.2267 48.3851 53.3364L48.4628 53.4142C48.5176 53.4507 48.5268 53.469 48.5679 53.4964C48.6274 53.533 48.6639 53.5376 48.7279 53.565H48.7645H48.8011H48.8376C48.9656 53.6244 49.217 53.6016 49.4045 53.6016C49.409 53.6061 49.409 53.6107 49.409 53.6153L49.4273 53.6656C49.4456 53.7021 49.4547 53.7204 49.4776 53.7524V53.789L49.7244 54.1044C49.8479 54.1913 49.8022 54.109 49.8936 54.2415L49.9667 54.2827C49.921 54.3924 49.9576 54.6438 49.9667 54.7718V54.8084C50.0719 54.9638 49.9896 54.8678 50.0444 54.9958C50.1587 55.0781 50.0719 54.9958 50.1039 55.0781L50.1587 55.1832C50.1084 55.2198 49.8616 55.5306 49.5507 55.3341C49.4593 55.3752 49.5279 55.3752 49.4365 55.3341H49.3999C49.3176 55.3021 49.217 55.3021 49.1348 55.3341H49.0982C49.0068 55.2929 49.0753 55.2929 48.9839 55.3341H48.9473H48.9108H48.8742H48.8376H48.8011C48.7096 55.3752 48.7782 55.3752 48.6868 55.3341H48.6502C48.5176 55.2792 48.5496 55.3935 48.5131 55.2701C48.4948 55.2061 48.5268 55.1741 48.5725 55.1055V55.0689C48.6319 54.9272 48.5634 54.9135 48.5542 54.7535L48.4445 54.3558C48.4125 54.2781 48.4948 54.3558 48.3851 54.2735L47.96 53.7524C47.7771 53.5056 47.6171 53.4416 47.4937 53.3456C47.416 53.2862 47.3977 53.2587 47.3246 53.213C47.1234 53.0759 47.3611 53.1947 47.1737 53.0622C47.0914 52.9387 47.0823 52.9799 46.9863 52.9113L46.8354 52.7605L46.5337 52.4588L46.456 52.3811L46.3783 52.3033C46.328 52.2805 46.3052 52.2759 46.2457 52.2485C46.0995 52.1799 46.2823 52.2074 46.0766 52.1936C46.1543 52.0062 45.9806 52.0382 46.04 51.8919C45.7841 51.8691 45.7886 51.8919 45.7063 51.8097C45.5738 51.6771 45.6698 51.7365 45.6378 51.6725C45.5966 51.5948 45.5875 51.6177 45.4961 51.5674C45.4915 51.5628 45.4778 51.5582 45.4732 51.5537C45.1761 51.3525 45.3818 51.3982 45.1715 51.252C45.1395 51.2291 45.1212 51.2291 45.0847 51.188C45.0161 51.1148 45.0527 51.1423 45.0435 51.1103C45.0161 51.0325 45.0572 51.0051 44.8698 50.9868L44.9064 48.8749C44.9018 48.8429 44.8972 48.8521 44.9064 48.8201C44.9201 48.7286 44.911 48.8795 44.9338 48.7424L44.9384 48.1435C44.9384 48.0978 44.943 48.0887 44.9521 47.9973V47.9607V47.8464V47.8098V47.6956V47.659C44.9932 47.5584 44.9658 47.5036 44.9704 47.403L44.9932 47.3207C45.2172 47.3939 44.8332 47.3893 45.2492 47.6316L45.2904 47.6773ZM45.3269 47.6773V47.6407L45.3726 47.6727L45.3269 47.6773ZM45.7795 48.4315V48.395L45.8252 48.427L45.7795 48.4315ZM60.8508 49.8349V49.8715V50.1C60.6588 50.036 60.8599 50.1046 60.7639 50.0314C60.7502 50.0223 60.7045 49.9995 60.6999 49.9949C60.6451 49.9675 60.6634 49.9766 60.6177 49.9675C60.5994 49.9629 60.54 49.9583 60.476 49.9537C60.5445 49.7892 60.4074 49.6886 60.2428 49.62C60.1194 49.5698 60.092 49.6018 59.9457 49.3869C59.8497 49.3183 59.9228 49.3823 59.8863 49.3046C59.8863 49.3001 59.8817 49.2909 59.8817 49.2863C59.8817 49.2818 59.8771 49.2726 59.8726 49.2681C59.8086 49.1492 59.8131 49.2543 59.8131 49.1172L59.8223 48.8201C59.8406 48.6738 60.348 48.5184 60.476 48.4818C60.4805 48.4864 60.4805 48.4909 60.4805 48.4955L60.5811 48.6144C60.5857 48.6189 60.5902 48.6281 60.5902 48.6327L60.6177 48.6738C60.7228 48.8064 60.7137 48.7561 60.7182 48.8521C60.7319 49.1172 60.8005 48.8749 60.7914 49.1172C60.7914 49.1629 60.7868 49.2452 60.7914 49.2863C60.7914 49.2909 60.7959 49.3001 60.7959 49.3046L60.8142 49.3595C60.8417 49.7983 60.7457 49.1858 60.8188 49.5286C60.8234 49.5423 60.8234 49.6063 60.8234 49.6246C60.8325 49.7069 60.8371 49.6795 60.8508 49.8349ZM54.2637 49.492C54.3414 49.6795 54.1997 49.4783 54.3094 49.6338C54.3094 49.6338 54.3597 49.684 54.3642 49.6932C54.5928 49.8897 54.282 49.4418 55.0271 50.2006C55.251 50.4291 55.1596 50.292 55.3196 50.3971L55.3973 50.4749L55.443 50.5023C55.5939 50.5891 55.7265 50.7628 56.0053 50.9868L56.0647 51.0508C56.2247 51.2154 56.1653 51.0783 56.2659 51.2337L56.5676 51.5354L56.6818 51.6131H56.7184C56.7733 51.6497 56.7778 51.6634 56.8281 51.6954L56.947 51.7639L57.0247 51.8417C57.107 51.8965 57.0933 51.9011 57.1664 51.9651C57.2715 52.0565 57.2487 52.0108 57.3675 52.0702H57.4041C57.5047 52.1434 57.4544 52.1342 57.4681 52.1525L57.5824 52.3033C57.6327 52.3399 57.6829 52.3445 57.7424 52.3719H57.7789L57.8932 52.4496H57.9298L58.0441 52.5273C58.1172 52.637 58.2178 52.669 58.3366 52.7056L58.3732 52.7193C58.3778 52.7193 58.3869 52.7239 58.3915 52.7239C58.6292 52.797 58.4875 52.8107 58.5972 52.9525C58.6429 53.0073 58.6429 52.9936 58.684 53.0576L58.94 53.1582C59.0132 53.1947 59.0863 53.2999 59.1777 53.3593H59.2143C59.5983 53.6153 59.516 53.533 59.8497 53.6656C60.1194 53.7753 59.964 53.757 60.1605 53.8896H60.1971L60.476 54.1044C60.4805 54.109 60.4942 54.1135 60.4988 54.1181C60.6314 54.1821 60.7502 54.1593 60.8417 54.1958H60.8782H60.9148H60.9514L61.2119 54.3558C61.2531 54.3741 61.3262 54.4152 61.3628 54.4335C61.4222 54.461 61.4679 54.4747 61.5228 54.5021L61.7879 54.653C61.829 54.6804 61.829 54.685 61.8747 54.7032L62.2039 54.8038H62.2404L62.3547 54.8815H62.3913L62.7981 55.2701C62.9307 55.4529 62.8301 55.5763 63.1273 55.7363L63.2233 55.7912C63.2781 55.8232 63.2644 55.8095 63.3375 55.8278C63.3741 55.8963 63.3238 55.9055 63.4884 56.0152L63.6758 56.2437V56.2803H63.6392C63.5021 56.3489 63.4655 56.3077 63.3421 56.3443L63.1181 56.422C62.7296 56.5546 62.3227 56.5774 62.3136 56.582H62.277C62.1856 56.5409 62.2542 56.5409 62.1627 56.582H62.1262C62.0347 56.5409 62.1033 56.5409 62.0119 56.582H61.9753C61.8839 56.5409 61.9525 56.5409 61.861 56.582H61.8245C61.6782 56.5226 61.8199 56.6003 61.669 56.55C61.5182 56.4997 61.637 56.4997 61.4496 56.4632C61.2805 56.4312 61.2302 56.4814 61.1068 56.4312H61.0702C60.9788 56.39 61.0474 56.39 60.9559 56.4312H60.9285C60.6817 56.3123 60.4165 56.4083 60.284 56.3534H60.2474C60.156 56.3123 60.2245 56.3123 60.1331 56.3534H60.0965L59.5663 56.2757H59.5297H59.4931H59.4566H59.42C59.3423 56.2392 59.2326 56.2255 59.1457 56.2026C59.0132 56.166 59.068 56.1889 58.9309 56.1569C58.78 56.1203 58.6612 56.1706 58.5469 56.1249H58.5103C58.3869 56.0426 58.4509 56.0426 58.3321 56.0243C58.1766 56.0015 58.1401 56.0335 58.0212 55.974H57.9846L57.5778 55.878C57.2715 55.878 57.1161 55.7866 57.0384 55.8186H57.0018C56.8784 55.7592 56.7138 55.7592 56.6544 55.7592L56.2476 55.8186C56.147 55.8598 56.2201 55.8323 56.1242 55.8369C56.0556 55.8415 56.0647 55.846 55.9413 55.8552C55.8819 55.7272 55.9002 55.6632 55.6762 55.5123L55.2328 55.3066C55.0956 55.2792 54.5791 55.3158 54.4648 55.3615H54.4282C54.2362 55.4529 54.026 55.4392 53.8614 55.3615H53.8248H53.7883H53.7517H53.7151H53.6786C53.5963 55.3295 53.4957 55.3295 53.4134 55.3615H53.3769C53.2717 55.4118 53.2763 55.3798 53.1666 55.4163C53.1209 55.4346 53.1163 55.4438 53.066 55.4666C53.0203 55.4849 53.002 55.4895 52.9609 55.5123H52.9243C52.7232 55.5946 52.81 55.4529 52.6592 55.5123C52.554 55.4392 52.5723 55.4758 52.4215 55.4255L52.3255 55.3935C52.0832 55.3158 52.0923 55.2564 51.9369 55.2472L52.2523 54.6712C52.4855 54.1135 52.2158 53.9764 52.1838 53.8347L52.0558 53.4644C51.9735 53.3319 51.9918 53.3959 51.8821 53.3319C51.7678 53.2679 51.6078 53.0622 51.5255 52.9707C51.5164 52.9616 51.4935 52.9387 51.4889 52.9342C51.4844 52.9296 51.4752 52.9205 51.4706 52.9159L51.3381 52.7056L51.2649 52.6645C51.3472 52.4588 51.2101 52.4131 51.2055 52.2988C51.1964 52.1571 51.2787 52.2713 51.1507 52.1754C51.1415 52.0474 50.9998 51.7457 50.9632 51.6999C50.8124 51.5217 50.9221 51.6862 50.9084 51.5811C50.8901 51.4714 50.8855 51.5308 50.849 51.4668L50.8033 51.3525C50.785 51.3068 50.753 51.2337 50.7347 51.1925C50.9587 51.2108 50.8718 51.2428 50.9998 51.156C51.1232 51.0737 51.0547 51.0554 51.2284 51.0417C51.1644 50.8817 51.2832 50.7766 51.1644 50.58L51.041 50.1366C50.9587 50.0772 50.9998 50.1229 50.9815 50.0543C50.945 49.9217 51.0181 50.1366 50.9678 49.9812C50.9312 49.8623 50.9541 49.9583 50.9312 49.9035C50.8947 49.8166 50.9084 49.9172 50.9038 49.8075C50.881 49.4189 50.7804 49.8989 50.753 49.396C50.7484 49.3321 50.7438 49.3412 50.7347 49.2315V49.1949C50.6981 49.1263 50.7073 49.1492 50.6981 49.0441C50.8307 49.0989 51.4341 49.0989 51.5712 49.0441H51.6078C51.6992 49.0852 51.6306 49.0852 51.7221 49.0441H51.7586L52.3758 48.9709C52.3803 48.9709 52.3895 48.9618 52.394 48.9618L52.4809 48.9664H52.5175C52.7597 48.8521 52.7186 48.9526 52.9243 48.8886C52.9289 48.8886 52.938 48.8841 52.9426 48.8795C53.1574 48.8155 53.3677 48.8566 53.4637 48.8155H53.5003C53.5186 48.8246 53.6054 48.8612 53.6191 48.8704L53.7014 48.9572C53.834 49.1218 53.8523 49.1995 54.0625 49.3138C54.1448 49.3686 54.154 49.4189 54.2637 49.492ZM50.6661 49.0395H50.6295L50.6615 48.9938L50.6661 49.0395ZM54.2637 49.492V49.4555L54.3094 49.4875L54.2637 49.492ZM60.8508 50.1366C60.8554 50.132 60.8599 50.1412 60.8599 50.1457L60.8508 50.1366ZM60.9285 50.2097L60.9376 50.2189C60.9376 50.2234 60.9239 50.2143 60.9285 50.2097ZM55.3242 50.4017V50.3652L55.3699 50.3971L55.3242 50.4017ZM55.3973 50.4749V50.4383L55.443 50.4703L55.3973 50.4749ZM61.6828 50.8543L62.0165 51.2017L61.989 51.2703L61.4496 50.7491C61.6325 50.7583 61.5593 50.772 61.6828 50.8543ZM61.6828 50.8543V50.8177L61.7285 50.8497L61.6828 50.8543ZM47.0686 50.932V50.8954L47.1143 50.9274L47.0686 50.932ZM50.9678 51.156H50.9312L50.9632 51.1103L50.9678 51.156ZM61.989 51.2703H62.0256L61.9936 51.316L61.989 51.2703ZM51.1187 52.1799V52.2165L51.073 52.1845L51.1187 52.1799ZM58.0486 52.5228V52.4862L58.0943 52.5182L58.0486 52.5228ZM66.1123 52.9387V52.9753L66.0666 52.9433L66.1123 52.9387ZM47.1828 53.0896V53.1262L47.1371 53.0942L47.1828 53.0896ZM66.2677 53.0896V53.1262L66.222 53.0942L66.2677 53.0896ZM47.3337 53.2404V53.277L47.288 53.245L47.3337 53.2404ZM66.4185 53.5421V53.5787L66.3728 53.5467L66.4185 53.5421ZM48.3942 54.301V54.3375L48.3485 54.3055L48.3942 54.301ZM61.5319 54.4884V54.4518L61.5776 54.4838L61.5319 54.4884ZM67.3282 54.7535V54.7901L67.2825 54.7581L67.3282 54.7535ZM52.6363 55.5123V55.5489L52.5906 55.5169L52.6363 55.5123ZM55.6625 55.5123V55.5489L55.6167 55.5169L55.6625 55.5123ZM56.2339 55.814H56.2704L56.2384 55.8598L56.2339 55.814ZM63.5021 56.0015V55.9649L63.5478 55.9969L63.5021 56.0015ZM60.7777 56.422L60.7868 56.4312C60.7868 56.4312 60.7731 56.422 60.7777 56.422ZM70.0527 56.422V56.4586L70.0069 56.4266L70.0527 56.422ZM75.5061 56.5729V56.6094L75.4604 56.5774L75.5061 56.5729ZM72.8182 56.9523H72.8548L72.8228 56.998L72.8182 56.9523ZM24.729 58.2368H24.7656L24.7336 58.2825L24.729 58.2368ZM76.9461 58.2368V58.2734L76.9003 58.2414L76.9461 58.2368ZM22.1509 58.6893H22.1874L22.1554 58.7351L22.1509 58.6893ZM23.5176 59.7499H23.5542L23.5222 59.7956L23.5176 59.7499ZM23.0605 61.1532V61.1167L23.1062 61.1487L23.0605 61.1532ZM76.8683 61.6058H76.8318L76.8638 61.5601L76.8683 61.6058ZM78.6877 61.6058H78.6511L78.6831 61.5601L78.6877 61.6058ZM25.1039 61.6835V61.6469L25.1496 61.6789L25.1039 61.6835ZM70.5052 62.136H70.4686L70.5006 62.0903L70.5052 62.136ZM68.7636 62.2869H68.727L68.759 62.2412L68.7636 62.2869ZM36.541 62.5154V62.4789L36.5868 62.5109L36.541 62.5154ZM43.0002 13H43.8276C44.015 13.0183 43.8413 13 43.9739 13.0503C44.2024 13.1326 44.8835 12.9726 45.1761 13.1143C45.1852 13.1189 45.1944 13.1234 45.1989 13.128C45.2035 13.128 45.2172 13.1371 45.2264 13.1371C45.2355 13.1417 45.2447 13.1417 45.2538 13.1463C45.3041 13.16 45.2812 13.1417 45.3452 13.1691C45.3955 13.192 45.4275 13.2286 45.4778 13.2651L45.7155 13.4845C45.7292 13.5028 45.6789 13.4937 45.7795 13.5668L45.8709 13.7085C45.8938 13.7862 45.8526 13.7634 45.9303 13.8685C45.9989 14.0377 45.912 13.8548 45.9578 13.9965L46.104 14.4994C46.104 14.5039 46.1086 14.5131 46.1132 14.5176C46.1406 14.5862 46.1315 14.4994 46.168 14.6411C46.2 14.7645 46.136 15.3953 46.1909 15.5279L46.6069 15.2993H46.6434L46.7577 15.2216H46.7943L46.9086 15.1439H46.9451C47.0137 15.1119 47.0686 15.0982 47.1326 15.0662H47.1691C47.2377 15.0342 47.2926 15.0205 47.3566 14.9885C47.4388 14.9382 47.4845 14.9611 47.5851 14.9108H47.6217C47.7177 14.8696 47.9645 14.8788 48.0377 14.9108L48.1794 14.9656C48.3394 15.0022 48.4491 15.1988 48.5039 15.3359L48.4902 15.6285V15.665L48.2937 15.9073C48.2114 16.0216 48.2754 15.9302 48.1611 16.017C48.0377 16.113 47.8594 16.2273 47.6994 16.2776C47.6628 16.2913 47.6171 16.2913 47.608 16.2958L47.3886 16.3873H47.352L46.52 16.689L46.1772 16.8947C46.0675 17.0044 46.2457 16.785 46.1543 16.9404C46.1498 16.9495 46.136 16.9678 46.1315 16.977C45.9395 17.2878 46.0629 17.2467 45.9623 17.5849L45.9486 17.6215C45.8755 17.9278 46.0629 18.2569 46.1406 18.3118C46.1635 18.3666 46.1863 18.5357 46.2915 18.6135H46.328C46.3966 18.6455 46.4469 18.6592 46.5063 18.6683C46.5429 18.6729 46.5886 18.682 46.6709 18.6866H46.7074C46.7897 18.7186 46.8903 18.7186 46.9726 18.6866H47.0091C47.0914 18.7186 47.192 18.7186 47.2743 18.6866H47.3108C47.3977 18.7232 47.4937 18.714 47.6903 18.7277C47.7908 18.7369 47.7634 18.7415 47.8365 18.7415C47.928 18.746 47.8548 18.7186 47.96 18.7597H47.9965C48.0651 18.7917 48.1199 18.8054 48.1839 18.8374C48.2434 18.8786 48.1428 18.8283 48.2571 18.8786C48.2708 18.8832 48.3302 18.9014 48.3439 18.906C48.4445 18.9472 48.4079 18.9334 48.4902 18.9883H48.5268C48.5954 19.0203 48.6502 19.034 48.7142 19.066C48.7508 19.0934 48.7142 19.0706 48.7873 19.1071C48.8011 19.1163 48.8468 19.13 48.8696 19.1391H48.9062L49.0205 19.2169L49.0845 19.258C49.089 19.2626 49.0936 19.2671 49.0982 19.2717C49.1302 19.3083 49.0388 19.2717 49.1713 19.3677L49.2856 19.4454C49.4045 19.5003 49.3816 19.4591 49.4867 19.5506C49.5599 19.6146 49.5462 19.6191 49.6284 19.674L49.7062 19.7517C49.7747 19.8568 49.8844 19.9254 49.9347 20.0077C49.9713 20.0625 49.889 20.0305 50.0536 20.1585L50.5016 20.6568C50.6021 20.7254 50.6295 20.7848 50.7118 20.8945C50.7255 20.9128 50.6981 20.9082 50.7667 20.9585C50.8307 21.0545 50.8535 21.0225 50.8627 21.1185C50.8673 21.1413 50.8581 21.2145 50.8581 21.2511C50.8535 21.7036 50.8398 21.5162 51.1918 21.6579C51.2238 21.6716 51.201 21.6533 51.2467 21.6853L51.4067 21.8636C51.5255 21.9504 51.4295 21.8636 51.4661 21.9459L51.5346 22.0784C51.5346 22.083 51.5392 22.0922 51.5392 22.0967L51.5529 22.1333C51.7266 22.4624 51.6581 22.275 51.7541 22.4396C51.8272 22.563 51.8089 22.4624 52.0375 22.7001C52.1838 22.851 52.1061 22.8281 52.1792 23.1207L52.1975 23.1755C52.1975 23.1801 52.202 23.1892 52.202 23.1938C52.202 23.1984 52.2066 23.2075 52.2066 23.2121C52.2432 23.3355 52.1838 23.1847 52.2295 23.299L52.3072 23.3767C52.3575 23.4132 52.3666 23.4178 52.4169 23.459L52.6363 23.8018C52.6729 23.9298 52.6226 23.9664 52.874 24.1355C52.8832 24.1401 52.8923 24.1446 52.8969 24.1492C53.0889 24.2635 53.2031 24.3915 53.2671 24.5058C53.2809 24.5332 53.258 24.5103 53.2991 24.5515C53.3174 24.5698 53.3357 24.588 53.3403 24.5789C53.3449 24.5698 53.3586 24.588 53.3631 24.5926C53.5048 24.492 53.3357 24.62 53.4637 24.4326C53.5186 24.3503 53.5414 24.3046 53.6008 24.2269L53.8065 23.8109C53.8568 23.7058 53.8157 23.8246 53.866 23.7149L54.0443 23.3355C54.1082 23.2212 54.0991 23.3401 54.122 23.0795V23.043C54.1905 22.9378 54.1768 22.9927 54.1814 22.9013C54.186 22.7596 54.1082 22.8693 54.2362 22.7778L54.3871 22.627H54.4237H54.5379H54.5745C54.6934 22.6773 54.7482 22.6087 54.9356 22.7961L55.2968 23.2121C55.2968 23.2167 55.3059 23.2212 55.3059 23.2258C55.3105 23.2304 55.3196 23.2532 55.3242 23.2578L55.3836 23.3538C55.4842 23.5732 55.4659 23.4544 55.4705 23.5641L55.4659 25.1366C55.4659 25.3194 55.4796 25.3103 55.4248 25.516L55.379 25.7491C55.3059 25.9183 55.4476 25.6166 55.3379 25.8086C55.2465 25.9686 55.4202 25.7766 55.2191 26.0783C55.411 26.0783 55.283 26.0783 55.3333 26.1148C55.4248 26.1834 55.4613 26.3434 55.4659 26.444C55.4842 26.7137 55.4842 26.4074 55.5436 26.6725L55.6167 26.8782C55.6305 26.9102 55.6076 26.8919 55.6442 26.9331C55.6807 26.9788 55.7082 26.9925 55.7493 27.0154L55.9002 27.1662C55.9596 27.2531 56.019 27.3033 56.1013 27.3856C56.2019 27.4862 56.2293 27.4633 56.243 27.6233C56.3619 27.7102 56.2613 27.605 56.3161 27.7468L56.371 27.8976C56.3756 27.9067 56.3756 27.9296 56.3756 27.9387L56.5447 28.3822C56.6544 28.4599 56.5767 28.4462 56.5996 28.5421L56.8464 29.1364C56.9287 29.1958 56.883 29.1867 56.9241 29.2598C56.9744 29.3513 56.9287 29.2278 56.9744 29.333L57.1527 29.9409C57.1572 29.9455 57.1618 29.9547 57.1664 29.9592L57.2807 30.1649C57.331 30.2701 57.2487 30.0918 57.299 30.2198C57.4635 30.6403 57.2715 30.3478 57.4132 30.5809C57.4681 30.6678 57.4361 30.6678 57.4407 30.7135C57.459 30.8598 57.4681 30.7363 57.5138 30.846L57.5778 31.3672V31.4037L57.6327 31.646C57.6692 31.7283 57.6509 31.7054 57.6967 31.7786L57.7515 31.8654C57.7561 31.8746 57.7652 31.934 57.7881 31.9888C57.9115 32.286 57.7332 32.0483 57.8841 32.2723V32.3088L57.9298 32.9259C57.8978 33.1774 57.7926 33.5111 58.0349 33.6711L58.3412 34.0779C58.3458 34.0825 58.3458 34.0916 58.3503 34.0962C58.3869 34.1785 58.3092 34.1099 58.4189 34.2287C58.6063 34.4253 58.5743 34.3247 58.6658 34.5304C58.7206 34.6539 58.7343 34.5076 58.7343 34.7773C58.7343 34.9647 58.7526 35.0104 58.812 35.1933C58.8623 35.3487 58.94 35.271 58.8669 35.4493C59.0589 35.4493 58.9309 35.4493 58.9812 35.4858L59.068 35.5361C59.3149 35.6321 59.2143 35.6138 59.2874 35.7875C59.3926 35.8607 59.3149 35.7921 59.3697 35.9338L59.5617 36.3452C59.5937 36.4412 59.5434 36.3406 59.58 36.4275C59.6257 36.5326 59.58 36.4138 59.6303 36.5006L59.7171 36.6698C59.7171 36.6743 59.7217 36.6835 59.7217 36.6881L59.7308 36.7246C59.8223 36.9166 59.8954 36.7246 59.932 37.1863V37.2229C59.9137 37.4286 59.8771 37.5337 59.996 37.5474C60.0783 37.5566 60.1788 37.5383 60.3114 37.6023H60.348C60.3937 37.6343 60.3937 37.6434 60.4348 37.6663C60.5125 37.7166 60.4394 37.6709 60.5079 37.7074C60.6542 37.7852 60.6954 37.8766 60.6954 37.8811C60.7594 37.9863 60.6542 37.8263 60.7182 37.9269C60.7685 38.0091 60.8188 38.0229 60.8554 38.1234L60.9102 38.6263C60.9605 38.6583 60.9696 38.6628 61.0199 38.7085C61.1342 38.8228 61.0245 38.7771 61.1251 38.9005C61.2576 39.056 61.1891 38.9097 61.3216 39.1428L61.573 39.4811C61.797 39.7873 61.5913 39.5634 61.733 39.8102C61.7376 39.8148 61.7422 39.8239 61.7468 39.8285C61.8245 39.9793 61.701 39.8788 61.8793 39.9702C61.9205 39.9931 61.9433 40.0068 61.9753 40.0296C61.989 40.0662 61.9936 40.1073 61.9936 40.1165L62.1673 40.441C62.277 40.6376 62.2496 40.5096 62.373 40.7976L62.4416 40.9302C62.533 41.1404 62.5147 40.9759 62.5193 41.1176C62.5284 41.2593 62.4461 41.145 62.5741 41.241C62.5924 41.4787 62.5924 41.3873 62.661 41.5153C62.661 41.5198 62.6656 41.529 62.6701 41.5336L62.8758 41.8901C62.8941 41.945 62.8987 41.977 62.8987 41.9907L62.9536 42.1598C62.9581 42.169 62.9627 42.1918 62.9673 42.1964L63.1273 42.7266C63.1364 42.8912 63.1684 42.7678 63.205 42.8958C63.2141 42.9232 63.1958 43.0375 63.205 43.0649C63.2415 43.1883 63.2735 43.0786 63.2827 43.234C63.3147 43.7049 63.3512 43.8374 63.525 44.2671C63.6804 44.3769 63.5112 44.2031 63.6392 44.5231L63.7581 44.7106C64.0506 44.994 63.8587 44.8705 64.0049 45.0351C64.2015 45.2591 64.1375 45.3139 64.2061 45.4785C64.2655 45.5197 64.3798 45.6019 64.4118 45.6751C64.4483 45.7665 64.3523 45.7665 64.4712 45.8534C64.5078 45.9448 64.4712 45.8625 64.4941 45.9356C64.4941 45.9402 64.4986 45.9494 64.4986 45.9539C64.4986 45.9585 64.5032 45.9676 64.5078 45.9722C64.5535 46.0819 64.5763 46.0682 64.5855 46.2282C64.686 46.3013 64.6175 46.2191 64.6586 46.3516L64.6723 46.3882C64.6769 46.3973 64.6815 46.4202 64.686 46.4248L64.7226 46.539C64.7318 46.6167 64.7135 46.7127 64.7775 46.8682V46.9047C64.7638 47.083 64.7546 47.0602 64.7272 47.2659C64.7089 47.4213 64.7638 47.3619 64.6632 47.5081V47.5447C64.6175 47.6544 64.6586 47.6773 64.6449 47.7641L64.5489 47.9698C64.4849 48.1207 64.4575 48.2807 64.5032 48.4224C64.5398 48.5321 64.5489 48.4864 64.5626 48.5595C64.5672 48.5732 64.5626 48.6372 64.5626 48.6509C64.5809 48.7332 64.7135 49.1309 64.622 49.3595L64.6952 49.4006C64.7409 49.5103 64.6906 49.46 64.7226 49.5789V49.7343C64.6906 49.9537 64.75 49.9583 64.8872 49.9675C64.8552 50.0497 64.8506 50.1412 64.8963 50.2234C65.0243 50.452 64.8643 50.2509 64.9923 50.5389C65.0837 50.7491 64.9238 50.5114 65.0746 50.7857L65.2209 51.1788C65.2529 51.2611 65.2392 51.252 65.2483 51.2977C65.2529 51.3251 65.2575 51.3571 65.2849 51.4211C65.3854 51.6497 65.2712 51.5125 65.3489 51.6954L65.3809 51.7411C65.5317 51.8371 65.5729 51.6908 65.6231 51.9376L65.7603 52.2256C65.7603 52.2302 65.7694 52.2393 65.7694 52.2439C65.7694 52.2485 65.774 52.2576 65.774 52.2622L65.806 52.3353C66.0528 52.6736 65.8197 52.5319 65.9843 52.6508L66.0986 52.8793C66.286 53.0119 66.0483 52.893 66.2494 53.0302L66.3271 53.0667C66.2997 53.1307 66.2951 53.2084 66.3088 53.2633L66.4048 53.4827C66.5282 53.5696 66.414 53.4553 66.4871 53.629L66.8208 54.0907C66.9442 54.2781 66.8939 54.2735 66.9214 54.3238L67.0859 54.4884C67.0905 54.493 67.0951 54.4975 67.0997 54.5021L67.1591 54.5661C67.1636 54.5707 67.1728 54.5752 67.1774 54.5798C67.1819 54.5844 67.1911 54.589 67.1956 54.5935L67.3145 54.7032C67.4059 54.7627 67.4562 54.7947 67.4562 54.9089L67.4288 55.0415C67.5796 55.1055 67.4608 54.9729 67.5705 55.0872C67.7259 55.2426 67.4973 55.0415 67.6253 55.2198C67.6848 55.3021 67.8036 55.4072 67.8813 55.4575L67.9453 55.4986C68.0093 55.5581 67.8859 55.5032 68.0322 55.6083L68.2562 55.8689C68.5716 56.3717 68.7819 56.0837 69.0927 56.2117H69.1293H69.1658H69.2024H69.239H69.2756C69.367 56.2529 69.2984 56.2529 69.3898 56.2117H69.4264C69.5178 56.2529 69.4493 56.2529 69.5407 56.2117H69.5773C69.6778 56.2529 69.6001 56.2209 69.687 56.2346C69.7098 56.2392 69.7875 56.2575 69.8104 56.262C69.9475 56.2895 70.0069 56.3534 70.0069 56.3489C70.0115 56.3397 70.0207 56.358 70.0298 56.3626C70.1852 56.4677 70.1441 56.4952 70.3452 56.4952C70.4321 56.4952 70.5052 56.4723 70.6012 56.5134H70.6378C70.8572 56.6186 71.0492 56.5592 71.2777 56.55C71.5429 56.5409 71.7577 56.5134 71.9543 56.5911L72.1143 56.6643H72.1508C72.2286 56.6963 72.2148 56.6826 72.3108 56.6963L72.7954 56.8928L72.9097 56.8151C72.9965 56.7557 73.0148 56.7283 73.0879 56.6551C73.2114 56.5317 73.3668 56.4769 73.5085 56.454L73.7416 56.3626C73.9473 56.2255 73.8056 56.2483 74.1576 56.2483C74.3405 56.2483 74.4867 56.2255 74.6102 56.2849L74.6879 56.3626C74.7702 56.4769 74.985 56.4449 75.0673 56.4403C75.1633 56.4357 75.2913 56.4494 75.3233 56.454L75.4833 56.5134L75.561 56.55C75.5427 56.7511 75.5747 56.7649 75.3416 56.902C75.337 56.9066 75.3233 56.9249 75.3187 56.9157C75.3141 56.9066 75.3004 56.9248 75.2958 56.9294H75.2593H75.2227L74.9941 57.0071C75.113 57.0071 75.2456 57.0208 75.3416 57.0208C75.5244 57.0254 76.0912 56.9523 76.2832 57.0437H76.3198C76.3884 57.0757 76.4432 57.0894 76.5072 57.1214H76.5438H76.5804H76.6169H76.6535H76.6901H76.7266H76.7632H76.7998H76.8363C77.0329 57.2128 77.0009 57.0986 77.0101 57.2997C77.0146 57.4825 77.0009 57.5054 76.8912 57.6654C76.7998 57.798 76.7998 57.9077 76.7998 58.1408C76.9918 58.1408 76.8638 58.1408 76.9141 58.1774C77.0466 58.2414 77.2935 58.2551 77.4626 58.2642C77.5952 58.2734 77.5586 58.2596 77.7277 58.3008C77.9197 58.3465 77.7689 58.2962 77.9334 58.4059H77.97C78.0386 58.4379 78.0934 58.4516 78.1574 58.4836H78.194C78.2443 58.5065 78.2489 58.5065 78.3037 58.5293C78.3769 58.5613 78.3174 58.5431 78.3951 58.5705C78.482 58.6025 78.4088 58.5522 78.5368 58.6345C78.5963 58.6711 78.45 58.6711 78.6511 58.6711V58.7853V58.8219C78.6328 59.0276 78.6648 58.8585 78.6054 58.9682L78.5003 59.1053C78.5003 59.1099 78.4911 59.1145 78.4911 59.119C78.4866 59.1282 78.4774 59.1739 78.4637 59.2013L78.386 59.3156C78.45 59.4162 78.4866 59.4253 78.5506 59.5899C78.674 59.919 78.6146 59.9236 78.8431 60.1293L79.218 60.4493V60.463V61.0435C79.2088 61.0938 79.1997 61.1441 79.1768 61.1944L79.1585 61.2492C79.1311 61.3132 79.2134 61.2218 79.1174 61.3224C79.0762 61.3635 79.0625 61.3681 79.0305 61.3864H78.994C78.9482 61.4092 78.93 61.4092 78.8888 61.4321C78.8111 61.4686 78.8843 61.4366 78.8157 61.4686C78.7563 61.4961 78.7106 61.5144 78.6557 61.5372C78.6191 61.5601 78.6466 61.5555 78.5734 61.5738C78.5643 61.5784 78.5231 61.5829 78.5094 61.5829C78.4774 61.5875 78.4226 61.5921 78.4134 61.5921C78.3174 61.6195 78.354 61.6652 78.2626 61.7018C78.258 61.7018 77.3895 61.7292 77.2889 61.6881H77.2523C77.202 61.6652 77.1838 61.6606 77.1198 61.6286C77.1106 61.6241 77.1015 61.6195 77.0969 61.6149C76.9689 61.5601 77.0055 61.6103 76.8363 61.5326L76.4615 61.6515C76.4204 61.6652 76.3701 61.6698 76.3701 61.6698C76.1415 61.7292 76.0501 61.7018 75.9267 61.7612H75.8901C75.7484 61.7018 75.8855 61.7338 75.7667 61.7703L75.7073 61.7841C75.3918 61.8389 75.1496 61.7383 75.0536 61.912C74.953 61.9532 74.8616 61.9349 74.7427 61.944L73.3485 61.9532C73.2937 61.9166 73.2342 61.8481 73.2068 61.8343C73.1382 61.8023 72.8502 61.8298 72.7405 61.8389H72.704C72.4845 61.9852 72.6445 61.9258 72.3703 61.9395H71.9634C71.3783 61.9395 71.5657 62.008 71.2732 62.008C71.1635 62.008 71.0218 62.0309 70.9212 61.9898H70.8846C70.7932 62.0309 70.8618 62.0309 70.7703 61.9898H70.7338C70.6469 62.0263 70.6103 61.9989 70.4686 62.0675C70.4001 62.1635 70.2721 62.1315 70.0572 62.1315L68.727 62.2183C68.5122 62.3692 68.1419 62.3326 68.0459 62.296H68.0093H67.9728H67.9362C67.8448 62.2549 67.9133 62.2549 67.8219 62.296H67.7853C67.6939 62.2549 67.7625 62.2549 67.6711 62.296H67.6345C67.4608 62.2229 67.6208 62.3692 67.4471 62.296H67.4105C67.3191 62.3372 67.3876 62.3372 67.2962 62.296H67.2596C67.1636 62.3372 66.9991 62.3143 66.8528 62.3189C66.67 62.328 66.3683 62.3052 66.2403 62.3692C66.1991 62.3463 66.2357 62.3509 66.1626 62.3326C66.0437 62.3097 65.6917 62.3006 65.5454 62.4377L65.5226 62.4652C65.4312 62.5337 65.4357 62.4743 65.3306 62.52H65.294H65.2575H65.2209C65.1295 62.5612 65.198 62.5612 65.1066 62.52H65.07C64.9786 62.5612 65.0472 62.5612 64.9557 62.52H64.9192C64.8278 62.5612 64.8963 62.5612 64.8049 62.52H64.7683C64.6723 62.5612 64.5672 62.5383 64.4758 62.5383C64.3752 62.5383 64.2975 62.5612 64.2015 62.52H64.1649L63.5981 62.3692L63.557 62.4423C63.3741 62.5292 63.2644 62.4972 63.1318 62.4972C63.0313 62.4972 62.8621 62.4743 62.7616 62.5154H62.725C62.6427 62.4834 62.5421 62.4834 62.4599 62.5154H62.4233C62.3319 62.4743 62.4004 62.4743 62.309 62.5154H62.2724H62.2542H62.2176C62.1262 62.552 61.893 62.552 61.8016 62.5932H61.765C61.6782 62.6297 61.6599 62.6069 61.5593 62.6206C61.4405 62.6343 61.3125 62.648 61.2531 62.6434C61.1525 62.6389 61.0154 62.6252 60.9194 62.616C60.8371 62.6069 60.8279 62.6297 60.7411 62.5932H60.6999C60.6085 62.552 60.6771 62.552 60.5857 62.5932H60.5491C60.4028 62.5337 60.3068 62.5932 60.2748 62.6023C60.0783 62.6617 59.7766 62.584 59.6029 62.6663H59.5663C59.5251 62.6937 59.4977 62.7029 59.4611 62.7486C59.3926 62.84 59.4749 62.808 59.388 62.8994C59.3514 62.9406 59.3331 62.9451 59.3012 62.9634H59.2646C59.2189 62.9863 59.1686 62.9954 59.1092 63H58.588C58.4966 62.9954 58.5195 62.9726 58.3915 62.8857H58.3549C58.2178 62.7943 58.2543 62.7623 58.0715 62.6754C57.9801 62.6297 58.0212 62.6389 57.9481 62.6297C57.8384 62.616 57.8658 62.6206 57.7881 62.6572C57.7195 62.6114 57.8704 62.6389 57.6738 62.616L54.4831 62.6023C54.2774 62.5932 53.9574 62.6252 53.8477 62.5794H53.8111C53.7197 62.6206 53.7883 62.6206 53.6968 62.5794H53.6603H53.6237H53.5871C53.3403 62.4789 52.234 62.6297 51.7998 62.4926L51.4067 62.4743C51.3152 62.4835 51.3564 62.4697 51.2787 62.5017H51.2421H51.2055H51.169L50.4787 62.552C50.4376 62.552 50.3278 62.552 50.2776 62.552L48.6959 62.5612C48.5725 62.5566 48.4262 62.5612 48.3348 62.5612C48.2342 62.5612 48.1199 62.5429 48.024 62.5794H47.9874L47.3748 62.6297C47.3246 62.6297 47.2651 62.6206 47.192 62.6526C47.1508 62.6252 47.192 62.6389 47.1234 62.6252C47.1189 62.6252 47.1051 62.6252 47.1006 62.6252L46.8949 62.6526C46.8537 62.6252 46.8949 62.6389 46.8263 62.6252C46.8217 62.6252 46.808 62.6252 46.8034 62.6252L46.5932 62.6526H46.2915L45.4869 62.5932C45.4824 62.5932 44.943 62.5703 44.7784 62.6526C44.655 62.8354 44.6778 62.7714 44.4858 62.7852C44.3853 62.7897 44.3396 62.7897 44.239 62.7897C44.1247 62.7897 43.823 62.7669 43.7179 62.808H43.6813C43.5899 62.7669 43.6584 62.7669 43.567 62.808H43.5304C43.439 62.7669 43.5076 62.7669 43.4162 62.808H43.3796C43.2882 62.7669 43.3567 62.7669 43.2653 62.808H43.2287H43.1922H43.1556C43.0642 62.8491 43.1327 62.8491 43.0413 62.808H43.0048C42.9133 62.8491 42.9819 62.8491 42.8905 62.808H42.8265C42.7351 62.8491 42.8036 62.8491 42.7122 62.808H42.6756C42.5842 62.8491 42.6528 62.8491 42.5613 62.808H42.5248C42.4334 62.8491 42.5019 62.8491 42.4105 62.808H42.3739C42.2642 62.8537 41.8711 62.8263 41.7385 62.8263L39.7363 62.8583C39.5352 62.8674 39.2609 62.8994 39.0735 62.808H39.0369C38.9044 62.744 38.8861 62.7989 38.7032 62.7303L38.5432 62.6572L38.3147 62.6252C38.2004 62.616 38.0861 62.6206 37.9764 62.6206C37.2907 62.6206 37.4781 62.5612 37.0942 62.5657L36.7239 62.5109H36.6873C36.6736 62.5063 36.6096 62.4789 36.605 62.4789C36.5182 62.4377 36.573 62.4652 36.5319 62.4377L36.1845 62.4195C35.7411 62.4012 36.0108 62.2823 35.8142 62.36H35.7777C35.6862 62.3189 35.7548 62.3189 35.6634 62.36C35.6085 62.328 35.7457 62.3189 35.4394 62.3189C35.2337 62.3189 34.8817 62.296 34.7583 62.36C34.7491 62.3555 34.74 62.3509 34.7354 62.3463L34.6623 62.3326C34.6531 62.3326 34.6074 62.3372 34.5983 62.3417C34.5206 62.3463 34.5434 62.328 34.4566 62.36H34.42C34.2966 62.3097 34.2052 62.36 34.1092 62.328C33.9949 62.2915 34.036 62.2777 33.972 62.2412C33.8852 62.1955 33.9355 62.2549 33.8029 62.2137L33.6338 62.1909C33.4235 62.1955 32.5915 62.168 32.4864 62.2092H32.4498C32.3584 62.168 32.427 62.168 32.3355 62.2092H32.299C32.2075 62.168 32.2761 62.168 32.1847 62.2092H32.1481C32.0567 62.168 32.1253 62.168 32.0338 62.2092H31.9973C31.8144 62.136 32.0155 62.2595 31.8555 62.1589C31.5996 61.9943 31.5996 62.1086 31.2704 62.0675L31.211 62.0492C31.1836 62.0446 31.1836 62.0492 31.1562 62.0492C30.9367 62.072 31.147 61.9806 30.9779 62.0538H30.9413C30.8179 62.0035 30.9093 62.0446 30.8545 62.0492C30.667 62.0766 30.9413 62.0675 30.7996 62.0629C30.6396 62.0538 30.859 61.9806 30.6762 62.0538H30.6396C30.5162 62.0035 30.6076 62.0446 30.5528 62.0492L30.3836 62.0583C30.379 62.0583 30.3699 62.0629 30.3653 62.0629L30.2876 62.0492C30.283 62.0492 30.2739 62.0492 30.2693 62.0492L30.0591 62.0629C30.0545 62.0629 30.0453 62.0629 30.0408 62.0629L29.8168 62.0446C29.8168 62.0446 29.7619 62.0629 29.7574 62.0629L26.8592 62.0675C26.4478 62.0446 26.7998 61.9669 26.5895 62.0538H26.5529C26.5027 62.0309 26.5072 62.04 26.4661 62.0309C26.4295 62.0263 26.4387 62.0263 26.3701 62.008C26.2649 61.9852 26.2969 62.008 26.2147 61.976H26.1781L25.9038 61.8892C25.8078 61.8572 25.753 61.9303 25.4696 61.8252C25.465 61.8252 25.4558 61.8206 25.4513 61.8161C25.2821 61.7566 25.3827 61.7795 25.2639 61.6835C25.1496 61.5921 25.1633 61.6652 25.145 61.6103C25.1404 61.6012 25.1267 61.6012 25.1221 61.5966C25.0719 61.5738 25.049 61.5692 24.9896 61.5418C24.9302 61.5144 24.7062 61.4138 24.6285 61.4458H24.5919C24.5005 61.4046 24.569 61.4046 24.4776 61.4458C24.4685 61.4412 24.4593 61.4321 24.4547 61.4321C24.4502 61.4321 24.4365 61.4229 24.4273 61.4184L23.8011 61.3178C23.7919 61.3178 23.7599 61.3224 23.7233 61.3178C23.6685 61.3178 23.6045 61.3178 23.5771 61.3132C23.4628 61.2995 23.1702 61.1304 23.0742 61.0664H23.0377C22.7954 60.8972 22.9097 60.9887 22.8502 60.8378V60.8012C22.8045 60.7327 22.7634 60.7098 22.8091 60.527L22.832 60.4538C22.8868 60.3258 22.8868 60.4218 22.9462 60.2847L22.9645 60.2253C22.9965 60.143 22.96 60.2527 23.0011 60.1521C23.056 60.0013 22.9874 60.0698 23.0514 59.9784C23.1017 59.9099 23.1428 59.887 23.2251 59.8459L23.5359 59.6676L23.6868 59.5167H23.7233L23.8011 59.439C23.6868 59.3613 23.4125 59.279 23.2617 59.2699C23.1748 59.2653 23.2159 59.2927 23.1199 59.2516H23.0834C22.992 59.2927 23.0605 59.2927 22.9691 59.2516H22.9325L22.3931 59.343L22 58.991C22.0137 58.8082 22.0366 58.927 22 58.7625C22.1097 58.7305 22.0594 58.7488 22.1509 58.6848C22.1966 58.6208 22.1691 58.6391 22.2423 58.5888C22.3611 58.5065 22.1509 58.6436 22.2926 58.5613L22.3383 58.5339C22.4068 58.5019 22.4617 58.4882 22.5257 58.4562H22.5623C22.6491 58.4196 22.7725 58.4425 22.9051 58.3785H22.9417L23.2982 58.2779C23.7553 58.1316 23.9611 58.4151 24.1896 58.3008H24.2262C24.2948 58.2688 24.3496 58.2551 24.4136 58.2231H24.4502C24.5416 58.1819 24.473 58.1819 24.5645 58.2231H24.601C24.6924 58.1819 24.6239 58.1819 24.7153 58.2231L24.793 58.1819L24.8662 58.2231L24.9941 58.2871C25.0764 58.3191 25.0627 58.3054 25.1313 58.3374C25.2593 58.1454 25.305 58.2139 25.5107 58.0722C25.6113 58.0311 25.5564 58.0722 25.6935 58.0311C26.0958 57.9077 26.5301 58.0905 26.8455 58.0174C26.9049 58.0037 26.8226 58.0265 26.9278 57.9808C27.0192 57.9397 27.0329 57.9351 27.1381 57.9259C27.1472 57.7888 27.1563 57.8162 27.1563 57.7248V55.8506C27.1563 55.3661 27.1243 55.6221 26.9141 55.4163C26.7952 55.3021 26.8775 55.3295 26.8501 55.2244C26.8135 55.0918 26.7815 55.2244 26.7724 55.0369C26.7678 54.9501 26.7312 54.7855 26.7952 54.6667C26.8866 54.4975 27.1838 54.2141 27.1335 53.9033C27.0421 53.3273 27.0558 53.6701 27.0649 53.0805C27.0741 52.6279 27.1563 52.9936 27.1472 52.6873C27.1243 51.7228 27.1838 44.098 27.1335 43.9472C26.9735 43.4718 27.0741 43.4672 27.0329 43.298C27.0146 43.2249 27.0375 43.3255 27.0101 43.2432L26.9963 43.2066C26.9689 43.0786 27.0329 43.1655 26.9186 42.8821L26.8592 42.7861C26.7724 42.6626 26.6946 42.5164 26.8501 42.3838C26.8546 42.3792 26.8683 42.3747 26.8729 42.3701C26.8775 42.3655 26.8912 42.3609 26.8958 42.3564C27.2478 42.1324 27.1472 41.9678 27.0969 41.4833C27.0558 41.0764 27.1015 40.761 27.1015 40.4456L27.1289 38.4571C27.1198 38.3337 27.1152 38.1463 27.1061 38.0914C27.0283 37.5292 27.1061 37.7349 26.9323 37.6663H26.8958C26.7358 37.6023 26.9003 37.6937 26.7449 37.6297V36.7612C26.9369 36.7612 26.8089 36.7612 26.8592 36.7246L26.9735 36.2721C26.9872 36.0847 27.0603 36.0938 27.0695 35.9612C27.0878 35.6458 27.298 35.8332 27.298 35.4675L27.2843 35.3533C27.17 34.9921 27.2295 35.1841 27.2935 34.9647L27.298 33.2551C27.3118 32.9945 27.3529 32.9305 27.5495 32.8848C27.6546 32.8619 27.5129 32.9031 27.6089 32.8711C27.6135 32.8711 27.6637 32.8482 27.6637 32.8482C27.7095 32.8345 28.1849 32.8574 28.3357 32.7842C28.4043 32.8254 28.4317 32.8071 28.4957 32.8025C28.5734 32.798 28.5506 32.8162 28.6374 32.7842L28.7791 32.8117C28.9117 32.8117 28.834 32.8345 28.9391 32.7842C29.0305 32.8437 29.1128 32.8254 29.2408 32.8208L30.4065 32.8391C30.571 32.8391 30.6533 32.8391 30.7082 32.702L30.7173 32.67C30.8453 32.6425 30.8225 32.6654 30.9047 32.6334H30.9413C31.0419 32.6745 32.0293 32.67 32.1161 32.6334H32.1527C32.2441 32.6745 32.1755 32.6745 32.267 32.6334H32.3035H32.3401H32.3767H32.4132H32.4498H32.4864H32.5229H32.5595H32.5961C32.6875 32.5922 32.6189 32.5922 32.7104 32.6334H32.7469C32.8292 32.6014 32.9298 32.6014 33.0121 32.6334H33.0486C33.1401 32.5922 33.0715 32.5922 33.1629 32.6334H33.1995C33.2909 32.5922 33.2223 32.5922 33.3138 32.6334H33.3503C33.4372 32.67 33.5012 32.6334 33.7206 32.6974C33.7252 32.6974 33.7343 32.702 33.7389 32.702L33.9172 32.7842H33.9537C34.1366 32.8711 40.358 32.8208 41.1123 32.8208L41.0574 32.6791C40.9751 32.4643 41.0163 32.7294 40.9797 32.4551C40.9751 32.4231 40.9797 32.4323 40.9614 32.4003L40.8197 32.094C40.7786 32.03 40.7511 32.0117 40.6734 31.9751L40.4449 31.8609C40.4403 31.8563 40.4266 31.8517 40.422 31.8471L39.9969 31.3992C39.9969 31.3946 39.9923 31.3854 39.9877 31.3809C39.8689 31.1889 39.9146 31.3626 39.8232 31.2117C39.7775 31.1386 39.8003 31.1843 39.7729 31.134C39.7363 31.0655 39.782 31.0563 39.6998 30.9329C39.6769 30.878 39.6815 30.8003 39.5855 30.686L39.5581 30.6632C39.4803 30.5718 39.5581 30.5901 39.3935 30.4803L39.2884 30.1238C39.2518 30.0369 39.2701 30.1009 39.2472 30.0689C39.2426 30.0644 39.2381 30.0552 39.2381 30.0506L39.2061 29.9501L39.0232 29.6072C38.8907 29.2873 38.9272 29.2598 38.9044 29.1958V29.1593L38.8495 28.9033C38.7718 28.5056 38.8084 28.9216 38.7672 28.6564C38.7581 28.5787 38.7855 28.6061 38.7489 28.4827C38.7307 28.4187 38.7261 28.437 38.7032 28.341C38.685 28.2587 38.7169 28.3273 38.685 28.2587C38.6438 28.1582 38.621 28.2404 38.6118 28.1079C38.5707 27.3673 38.7627 27.541 38.7627 26.9194C38.7627 26.3205 38.9135 26.3845 38.8267 26.1743L38.8998 26.1331C38.8587 26.0417 38.8587 26.1103 38.8998 26.0188V25.9823C38.8587 25.8908 38.8587 25.9594 38.8998 25.868V25.8314L38.8404 25.612C38.8358 25.5114 38.8221 25.2417 38.8724 25.1594C39.1375 24.716 38.8724 24.6566 39.0552 24.3412L39.0872 24.2726C39.1101 24.2086 39.1009 24.2726 39.1101 24.1995L39.1146 23.5915C39.1055 23.5184 39.1146 23.5641 39.0872 23.5229C39.1466 23.3995 39.1055 23.4909 39.1146 23.3858L39.1695 22.9607C39.1695 22.9561 39.1741 22.947 39.1741 22.9424L39.2015 22.8373V22.8007C39.2426 22.7001 39.2152 22.7824 39.2198 22.6956L39.6632 21.5619C39.8278 21.3196 39.6952 21.4385 39.7638 21.3425L39.878 21.2145C39.8872 21.2099 39.8963 21.2008 39.9009 21.2008L40.0472 21.0545C40.0609 21.0362 40.0335 21.0408 40.102 20.9905C40.134 20.9311 40.1523 20.8808 40.1935 20.8168C40.2346 20.7528 40.2483 20.7528 40.294 20.6888L40.6369 20.4602H40.6734L40.7511 20.3825L41.4871 19.7928C41.4917 19.7837 41.5054 19.7837 41.51 19.7791L42.0768 19.4774H42.1134C42.3328 19.3311 42.1819 19.386 42.3099 19.1071L42.3419 19.0614C42.3145 19.0203 42.2916 19.002 42.2779 18.9746C42.2505 18.9334 42.2551 18.9243 42.2459 18.9014C42.2459 18.8969 42.2414 18.8877 42.2414 18.8832C42.1134 18.6135 42.2185 18.8512 42.1682 18.6317C42.1408 18.5175 42.1317 18.554 42.1042 18.4352C42.0859 18.3575 42.1088 18.3483 42.0951 18.298L41.9259 17.8501L41.7477 17.7678C41.7065 17.7495 41.7385 17.7586 41.67 17.7495C41.2585 17.6809 41.4003 17.6489 41.286 17.6992L41.1443 17.6535C40.998 17.6306 41.0757 17.6718 40.9157 17.5804C40.9111 17.5758 40.8974 17.5758 40.8929 17.5666C40.8883 17.5529 40.8746 17.5575 40.87 17.5529C40.5912 17.4204 40.7283 17.4707 40.4174 17.2512C40.2986 17.1735 40.2712 17.1278 40.2117 16.9541L39.9832 16.5564C39.9512 16.401 39.878 16.0764 39.7912 15.9439C39.75 15.8799 39.75 15.9302 39.7546 15.8022C39.7638 15.2719 39.6998 15.5736 39.8643 15.2948C39.974 15.1073 40.198 15.0113 40.39 15.0342L40.7969 15.1668H40.8334C41.0346 15.2628 41.0483 15.1896 41.1763 15.2445H41.2128C41.2814 15.2765 41.3363 15.2902 41.4003 15.3222L41.5145 15.3999C41.5968 15.441 41.5282 15.409 41.6288 15.4365C41.7202 15.377 41.67 15.3907 41.7797 15.3587C41.7797 15.0936 41.7797 14.8285 41.7797 14.5634C41.7797 14.4079 41.7111 14.0605 41.8574 13.9554C41.9808 13.7725 41.9259 13.8045 41.9579 13.7223C41.9762 13.6765 41.9488 13.7268 41.9899 13.672C42.0677 13.5668 42.1408 13.4937 42.2368 13.4297C42.3328 13.2834 42.3054 13.3748 42.4014 13.2834L42.5019 13.2011L42.5796 13.1234L42.7351 13.0549C42.8356 13.0229 42.9088 13.0091 43.0002 13ZM44.7601 62.744H44.7235L44.7555 62.6983L44.7601 62.744Z" fill="white" fill-opacity="0.85"/>
</svg>
