<svg width="100" height="80" viewBox="0 0 100 80" fill="none" xmlns="http://www.w3.org/2000/svg">
<path fill-rule="evenodd" clip-rule="evenodd" d="M55.4453 13.5311V13.5639L55.406 13.5311H55.4453ZM52.1408 15.2751V15.2423L52.1802 15.2751H52.1408ZM55.9108 16.593H55.878L55.9108 16.5536V16.593ZM52.9932 18.973V18.9402L53.0325 18.9664L52.9932 18.973ZM56.7238 19.3598V19.3926L56.6845 19.3598H56.7238ZM52.7113 20.0745H52.744L52.7113 20.1138V20.0745ZM52.6391 20.1466H52.6719L52.6391 20.1859V20.1466ZM57.2943 20.3564V20.3892L57.2549 20.3564H57.2943ZM51.6425 22.4217H51.6753L51.6425 22.4611V22.4217ZM57.8253 23.7724L57.8384 23.7855C57.8384 23.7789 57.8253 23.7724 57.8253 23.7724ZM50.8623 23.91H50.8951L50.8623 23.9494V23.91ZM50.5738 24.3428H50.6066L50.5738 24.3821V24.3428ZM49.6494 26.4015H49.6821L49.6494 26.4409V26.4015ZM58.0089 27.3588H57.9761L58.0089 27.3194V27.3588ZM56.8353 27.8964L56.7632 27.8571C56.8353 27.6866 56.6976 27.7259 56.8353 27.68C56.8681 27.7456 56.8615 27.8308 56.8353 27.8964ZM57.8647 27.7849H57.8319L57.8647 27.7456V27.7849ZM57.5762 28.0734H57.5434L57.5762 28.0341V28.0734ZM51.7147 28.7815V28.7488L51.754 28.7815H51.7147ZM51.4983 29.8109V29.8437L51.4393 30.1191C51.3803 30.2633 51.4131 30.0076 51.3737 30.2961L51.2295 30.6501C51.2295 30.6567 51.2229 30.7026 51.2229 30.7092C51.2164 30.8403 51.2491 30.8665 51.3213 30.978L51.3934 31.0173L51.3606 31.0829C51.2426 31.0763 51.1639 31.037 51.0525 30.9976C50.9672 30.9714 50.9672 30.9649 50.9016 30.9321C50.8492 30.9058 50.8033 30.8927 50.7509 30.8665H50.7181L50.6132 30.7944H50.5804C50.5607 30.7878 50.5214 30.7682 50.5083 30.7616C50.4427 30.7288 50.4755 30.7485 50.4427 30.7223C50.3902 30.6895 50.3837 30.6698 50.3443 30.6436C50.2919 30.6108 50.2526 30.6042 50.1935 30.578L50.1214 30.5059H50.0886C50.0165 30.46 50.0165 30.4403 49.951 30.3944C49.8919 30.3485 49.8264 30.3289 49.7674 30.2961L49.6625 30.224C49.5313 30.1387 49.551 30.0601 49.3805 30.0469L49.4133 29.9552C49.4133 29.9552 49.4264 29.9486 49.4264 29.942L49.492 29.9027L49.6362 29.7585L49.7411 29.6863L49.8133 29.6142H49.8461L50.0362 29.4831C50.0427 29.4831 50.0493 29.4765 50.0559 29.47L50.1608 29.3979H50.1935C50.3509 29.2929 50.5279 29.1749 50.7181 29.1356C50.8033 29.1159 50.7181 29.1421 50.8164 29.0963C50.9934 29.0176 51.0197 29.0963 51.0459 29.1159H51.0787H51.1115H51.1442H51.177C51.2557 29.0635 51.2426 29.0569 51.3082 28.9979C51.3409 28.9717 51.3213 28.9848 51.3672 28.952C51.3737 28.9455 51.3868 28.9455 51.3934 28.9389L51.459 28.8996L51.5639 28.8274C51.6032 28.8012 51.5507 28.8274 51.6294 28.7881C51.6294 28.7881 51.695 28.7619 51.7015 28.7553C51.7671 28.9127 51.7015 28.8471 51.6556 29.0241C51.636 29.0963 51.6622 29.1094 51.6491 29.1553C51.6032 29.3126 51.5966 29.0831 51.577 29.4044L51.5573 29.4962C51.4917 29.7453 51.5376 29.7257 51.4983 29.8109ZM51.4655 28.9258H51.4327L51.4655 28.8864V28.9258ZM47.5185 29.1028H47.5513L47.5185 29.1421V29.1028ZM47.3021 29.4569H47.3349L47.3021 29.4962V29.4569ZM50.0427 29.4962H50.01L50.0427 29.4569V29.4962ZM49.6166 29.7781H49.5838L49.6166 29.7388V29.7781ZM49.4723 29.9224H49.4395L49.4723 29.883V29.9224ZM56.973 30.0273H57.0058L56.973 30.0666V30.0273ZM49.7543 30.3092V30.342L49.7149 30.3092H49.7543ZM50.187 30.5977V30.6305L50.1477 30.5977H50.187ZM51.354 31.096H51.3868L51.354 31.1353V31.096ZM45.9515 31.5222H45.9843L45.9515 31.5615V31.5222ZM62.946 32.1581H62.9788L62.946 32.1975V32.1581ZM66.1128 32.5843V32.6171L66.0734 32.5843H66.1128ZM41.6176 32.8728H41.6504L41.6176 32.9121V32.8728ZM67.247 33.1547V33.1875L67.2077 33.1547H67.247ZM39.1983 33.299H39.2311L39.1983 33.3383V33.299ZM38.4836 33.4367H38.5164L38.4836 33.476V33.4367ZM68.3551 33.4367L68.3682 33.4498C68.3617 33.4498 68.3485 33.4432 68.3551 33.4367ZM69.5287 33.7252V33.7579L69.4894 33.7252H69.5287ZM70.5909 34.2234V34.2562L70.5515 34.2234H70.5909ZM70.663 34.2956V34.3284L70.6237 34.2956H70.663ZM33.6515 34.5775H33.6842L33.6515 34.6168V34.5775ZM30.9502 35.7118H30.983L30.9502 35.7511V35.7118ZM30.6617 35.856H30.6945L30.6617 35.8954V35.856ZM30.3798 36.0003H30.4125L30.3798 36.0396V36.0003ZM72.3677 36.0003V36.033L72.3283 36.0003H72.3677ZM26.3606 36.5707V36.6035L26.3213 36.5707H26.3606ZM26.3999 36.5707H26.4327L26.3999 36.61V36.5707ZM28.7472 36.9247H28.78L28.7472 36.9641V36.9247ZM72.9381 37.1345V37.1673L72.8988 37.1345H72.9381ZM26.2557 37.7443V37.7115L26.295 37.7443H26.2557ZM33.9727 41.4356H33.9399L33.9727 41.3963V41.4356ZM33.5466 41.5799H33.5138L33.5466 41.5405V41.5799ZM33.5466 41.5799C33.8154 41.4028 33.6515 41.5209 33.9006 41.4684C33.9727 41.4553 33.9399 41.4618 33.9793 41.4356C34.0514 41.4618 34.0186 41.4291 34.2022 41.4159C34.3989 41.4028 34.4841 41.3701 34.7005 41.4356C34.7923 41.4618 34.6612 41.4946 34.7988 41.4356H34.8316L35.4348 41.652H35.4676C35.5332 41.6848 35.5856 41.6913 35.6446 41.7241H35.6774C35.6971 41.7307 35.7364 41.7503 35.7495 41.7569C35.8151 41.7897 35.7823 41.77 35.8151 41.7962C35.9528 41.8552 35.8217 41.7503 36.0577 41.8749L36.2347 41.9536C36.556 42.0388 36.3462 42.0716 36.4904 42.006C36.6216 42.1831 36.4839 41.9405 36.6609 42.1175C36.8445 42.2945 36.5953 42.1568 36.7724 42.288L36.8445 42.3601H36.8773C37.0608 42.4519 37.2641 42.3929 37.369 42.4191C37.5788 42.4781 37.5329 42.4125 37.664 42.5043C37.7427 42.4715 37.6772 42.4847 37.7624 42.5043C37.7689 42.5043 37.7755 42.5109 37.7821 42.5109L38.2672 42.642H38.3C38.3656 42.6748 38.418 42.6814 38.4771 42.7141C38.4115 42.8518 38.4902 42.8059 38.3721 42.8912L38.3 42.9633C38.2672 43.0157 38.241 43.0289 38.2213 43.0813C38.1755 43.1731 38.2804 43.0944 38.1623 43.1796L38.0902 43.2518L37.946 43.396L37.8017 43.5403L37.5854 43.7566C37.5788 43.7632 37.5657 43.7566 37.5657 43.7697C37.5657 43.7829 37.546 43.7829 37.546 43.7829L37.2903 44.0254C37.2838 44.0254 37.2772 44.032 37.2707 44.0386L37.1985 44.1107L37.1264 44.1828L37.0543 44.2549L36.7724 44.5368L36.6281 44.6811L36.4839 44.8253L35.9528 45.3236L35.802 45.422C35.7364 45.481 35.7495 45.4875 35.6709 45.54C35.6643 45.5466 35.6512 45.54 35.6512 45.5531L35.4611 45.6842L35.2119 45.8285L35.0349 45.9727C35.0283 45.9793 35.0152 45.9727 35.0152 45.9858L34.9234 46.0383C34.8775 46.0711 34.871 46.0842 34.8251 46.117L34.6087 46.2612L34.3923 46.4055H34.3596L34.1825 46.5497L33.9465 46.7005C33.9465 46.7005 33.9399 46.7071 33.9334 46.7136C33.9334 46.7136 33.9203 46.7202 33.9203 46.7267L33.5269 46.9693C33.5203 46.9693 33.5138 46.9759 33.5072 46.9824L33.3302 47.1267H33.2974L33.0614 47.2709C32.8712 47.3693 32.3729 47.402 32.1238 47.343C31.914 47.2971 31.6779 47.3168 31.5599 47.2709H31.5271C31.4681 47.2316 31.5206 47.2644 31.4681 47.225C31.4026 47.1791 31.4354 47.1988 31.3829 47.1726C31.3042 47.1267 31.3042 47.1529 31.2321 47.0677C31.1206 46.9365 31.2255 46.7726 31.2846 46.6349L31.3304 46.5169C31.3829 46.3923 31.3829 46.5104 31.4026 46.3727C31.4222 46.2481 31.3763 46.3596 31.4485 46.235L31.6386 45.8154C31.6386 45.8154 31.6779 45.7432 31.6845 45.717L31.737 45.5859C31.7894 45.4154 31.8156 45.4482 31.8287 45.3892C31.8287 45.3826 31.8287 45.3433 31.8287 45.3367L31.9533 45.0942L32.1303 44.7401L32.2746 44.5959C32.2877 44.5893 32.3467 44.5696 32.3533 44.5631L32.4647 44.4647C32.5041 44.4319 32.4713 44.4647 32.5041 44.4319L32.7008 44.1631L32.7729 44.091L32.8909 43.9009C32.8909 43.8943 32.8975 43.8878 32.8975 43.8812C32.9368 43.8025 32.8384 43.8812 32.9565 43.8025C32.963 43.796 32.9696 43.7697 32.9696 43.7763L33.0614 43.6124C33.0942 43.5599 33.0942 43.5993 33.1138 43.5206L33.2712 43.0157C33.3695 42.878 33.304 42.8977 33.3236 42.7928C33.3236 42.7863 33.3236 42.7797 33.3302 42.7731C33.3302 42.7666 33.3367 42.76 33.3367 42.7535C33.3564 42.7076 33.3761 42.7207 33.3958 42.6158L33.4089 42.1503C33.4023 42.0191 33.3958 42.2683 33.422 42.0978C33.4285 42.0519 33.4679 42.1306 33.4154 42.0191C33.422 42.0126 33.4285 41.9929 33.4285 41.9995C33.4285 42.006 33.4351 41.9798 33.4351 41.9798L33.4548 41.8552C33.4679 41.8159 33.4613 41.8749 33.4679 41.8028C33.4744 41.6126 33.422 41.7634 33.5466 41.5799ZM33.4023 42.006H33.3695L33.4023 41.9667V42.006ZM36.497 42.006V41.9733L36.5363 42.006H36.497ZM36.7789 42.288V42.2552L36.8183 42.288H36.7789ZM33.2581 43.0026H33.2253L33.2581 42.9633V43.0026ZM38.9819 43.573H39.0147C39.0999 43.5337 39.0344 43.5337 39.1196 43.573H39.1524C39.2507 43.6452 39.1786 43.573 39.2114 43.6714C39.2114 43.6779 39.2245 43.7042 39.2245 43.7107C39.2245 43.7107 39.2507 43.7632 39.2573 43.7829C39.3097 43.9009 39.3294 43.9336 39.395 44.0386V44.0713C39.454 44.2221 39.3491 44.1303 39.4736 44.3467L39.5392 44.4647C39.3884 44.5696 39.6113 44.4385 39.2835 44.7729L39.1065 44.9171C39.0999 44.9171 39.0934 44.9237 39.0868 44.9302C39.0803 44.9302 39.0737 44.9368 39.0737 44.9434L39.0278 44.9892C39.0212 44.9892 39.0147 45.0024 39.0081 45.0024L38.9622 45.0286L38.8901 45.1007L38.7131 45.245C38.7065 45.2515 38.6934 45.245 38.6934 45.2581L38.6016 45.3105C38.5557 45.3433 38.5492 45.3564 38.4967 45.3892L38.3918 45.4613C38.3131 45.5138 38.2869 45.5662 38.2213 45.6121C38.1558 45.658 38.1755 45.6252 38.1033 45.6711C38.064 45.6974 38.0509 45.717 38.005 45.7498H37.9722L37.7952 45.8941H37.7624L37.6575 45.9662L36.9494 46.3923H36.9166C36.7986 46.471 36.8641 46.4251 36.7855 46.4514L36.6543 46.5169C36.6478 46.5169 36.6412 46.5235 36.6347 46.53C36.5691 46.5628 36.5167 46.5694 36.4576 46.6022H36.4249C36.3659 46.6415 36.4052 46.6284 36.3659 46.6415C36.2675 46.6677 36.2609 46.6546 36.3462 46.5563L36.5691 46.2809C36.5757 46.2743 36.5888 46.2612 36.5953 46.2678L36.6543 46.2153C36.6609 46.2088 36.6609 46.1891 36.6675 46.1825C36.7133 46.1039 36.7199 46.1104 36.7855 46.0645L36.8576 45.9924L36.9035 45.9662C37.0018 45.8809 36.851 45.9596 37.0018 45.8482L38.2476 44.5696C38.2804 44.55 38.2935 44.55 38.3328 44.5106L38.4312 44.3795C38.4312 44.3795 38.4377 44.3729 38.4443 44.3664L38.6803 44.0058L38.7524 43.9336L38.8245 43.8615C38.8639 43.8353 38.8442 43.8615 38.8704 43.8156L38.877 43.8025L39.0016 43.6124V43.573H38.9819ZM38.8049 43.855H38.7721L38.8049 43.8156V43.855ZM38.7328 43.9271H38.7L38.7328 43.8878V43.9271ZM38.6672 43.9992H38.6344L38.6672 43.9599V43.9992ZM60.1398 43.9992H60.107L60.1398 43.9599V43.9992ZM32.7598 44.0713H32.727L32.7598 44.032V44.0713ZM37.2772 44.032H37.31L37.2772 44.0713V44.032ZM32.6942 44.1369H32.6614L32.6942 44.0976V44.1369ZM37.2051 44.1041H37.2379L37.2051 44.1435V44.1041ZM62.133 50.182L62.3165 50.4902C62.3297 50.5295 62.3231 50.4705 62.3297 50.5426C62.3624 50.8442 62.369 50.4902 62.4018 50.8246L62.4542 51.1327V51.1655C62.4805 51.454 62.5001 52.8636 62.4542 52.9816V53.0144C62.4411 53.1456 62.4215 53.1193 62.4018 53.2374C62.3887 53.2964 62.4149 53.316 62.3952 53.3881C62.3559 53.5324 62.3428 53.4472 62.3297 53.5586C62.31 53.7029 62.369 53.5586 62.2903 53.6963C62.1985 53.8537 62.3493 53.7225 62.1264 54.0372L62.0215 54.2143C61.9953 54.2667 61.9887 54.2733 61.9559 54.3257L61.8838 54.3979C61.7461 54.4962 61.9166 54.4044 61.7527 54.5814C61.6609 54.6798 61.7002 54.6536 61.6412 54.7585C61.6216 54.7978 61.6281 54.7781 61.6019 54.824C61.4314 54.9486 61.674 54.7781 61.4511 55.0994L61.4117 55.1715C61.4117 55.1781 61.4052 55.1846 61.4052 55.1912L61.32 55.3944C61.2544 55.4403 61.2478 55.4862 61.1954 55.6174L61.1364 55.7223C61.1101 55.7747 61.1495 55.7682 61.0774 55.8206L60.9987 56.0042C60.9987 56.0108 60.9921 56.0173 60.9921 56.0239C60.9921 56.0304 60.9856 56.037 60.9856 56.0435L60.8282 56.3189L60.684 56.5025C60.6774 56.5091 60.6643 56.5287 60.6577 56.5418L60.4676 56.8172C60.3561 56.8959 60.4545 56.8172 60.4086 56.9156C60.3365 57.0664 60.1267 57.2106 60.1332 57.3811C60.1332 57.486 60.1267 57.4532 60.1136 57.604C60.0939 57.6302 60.0939 57.6171 60.0742 57.6696L60.0349 57.8072C60.0349 57.8138 60.0218 57.8204 60.0218 57.8269C59.8316 58.1547 60.0021 58.0761 59.871 58.1744C59.8382 58.2596 59.8644 58.2465 59.8578 58.3055C59.8513 58.3514 59.8578 58.3252 59.8251 58.3777L59.7661 58.5022C59.7202 58.5875 59.7595 58.4694 59.7202 58.5744C59.7202 58.5809 59.7005 58.6793 59.6743 58.7579L59.5956 58.9677C59.5956 58.9743 59.589 58.9809 59.589 58.9874L59.5497 59.0989C59.4841 59.2497 59.5235 59.2366 59.412 59.4595C59.235 59.5906 59.5169 59.4857 59.2415 59.7545C59.2219 59.7742 59.1825 59.807 59.1694 59.8266L58.776 60.4299C58.6842 60.5282 58.7498 60.4823 58.6842 60.5872C58.6842 60.5938 58.6711 60.6003 58.6711 60.6069L58.6515 60.6462C58.6515 60.6528 58.6449 60.6593 58.6449 60.6659C58.6056 60.7446 58.7039 60.6659 58.5859 60.7446C58.4679 60.9216 58.4285 60.8364 58.304 60.8888H58.2712C58.1597 60.8429 58.2384 60.8822 58.1728 60.8691C58.1073 60.856 58.0942 60.8429 58.0548 60.8232C57.9171 60.7642 57.963 60.8232 57.845 60.7446H57.8122H57.7794L57.4582 60.6003L57.3926 60.561C57.386 60.561 57.327 60.5282 57.3205 60.5216C57.2615 60.4954 57.2221 60.4823 57.1697 60.4561H57.1369L56.9861 60.3905C56.9795 60.3905 56.973 60.384 56.9664 60.384L56.6714 60.2463H56.6386C56.573 60.2135 56.5206 60.2069 56.4616 60.1741H56.4288C56.3632 60.1414 56.3108 60.1348 56.2518 60.102H56.219L55.76 59.9184C55.6486 59.8922 55.7076 59.925 55.6158 59.8857H55.583C55.4978 59.8463 55.5633 59.8463 55.4781 59.8857C55.4519 59.866 55.465 59.866 55.4125 59.8463L55.1568 59.7414C55.0519 59.689 55.0126 59.7217 54.9077 59.6693H54.8749H54.8028H54.77C54.6848 59.63 54.7503 59.63 54.6651 59.6693H54.6323C54.5077 59.7217 54.5995 59.6431 54.4553 59.7414C54.4946 59.8266 54.4946 59.7611 54.4553 59.8463C54.6061 59.9512 54.5405 59.9381 54.5995 60.0102L54.711 60.161C54.7503 60.2332 54.7044 60.22 54.7831 60.279H54.8159C54.8356 60.2856 54.8749 60.3053 54.888 60.3118C54.9536 60.3446 54.9208 60.3249 54.9536 60.3512L55.0257 60.4233H55.0585H55.0913C55.1568 60.4561 55.2093 60.4626 55.2683 60.4954L55.229 60.5675C55.0716 60.4889 55.0978 60.5938 54.947 60.5348H54.9142C54.8487 60.502 54.7962 60.4954 54.7372 60.4626H54.7044C54.652 60.4364 54.6126 60.4299 54.5536 60.3971L54.4618 60.3446C54.4553 60.3381 54.4422 60.3315 54.4422 60.3315C54.4356 60.3315 54.4291 60.3249 54.4225 60.3184L54.2061 60.1741L53.957 59.9578H53.9242L53.8521 59.8857C53.7996 59.8529 53.7931 59.8332 53.7537 59.807C53.7013 59.7742 53.6619 59.7676 53.6029 59.7414H53.5702C53.4587 59.6627 53.498 59.689 53.3866 59.689C53.2686 59.689 53.3079 59.6627 53.1833 59.7414C53.2292 59.8529 53.2358 59.7545 53.1505 59.8857C53.3144 60.0037 53.1702 59.9971 53.2751 60.1151L53.38 60.2266C53.4259 60.2856 53.439 60.2922 53.4718 60.3446L53.3997 60.3774H53.3669C53.2817 60.3381 53.3472 60.3381 53.262 60.3774H53.2292C53.1505 60.3446 53.0587 60.3446 52.9801 60.3774H52.9473C52.862 60.3381 52.9276 60.3381 52.8424 60.3774H52.8096C52.7309 60.4167 52.7768 60.3905 52.6981 60.4102L52.6195 60.4364C52.6129 60.4364 52.6063 60.443 52.5932 60.4495C52.4228 60.561 52.4752 60.5348 52.272 60.5216H52.2392C52.1539 60.4889 52.108 60.502 52.0359 60.502C51.7606 60.502 51.5573 60.4561 51.1311 60.502C50.9082 60.5216 50.8623 60.7183 50.9148 60.9216L50.941 60.974C50.9475 61.0068 51.0197 60.9478 50.9344 61.0265C50.8885 61.0724 50.8492 61.0527 50.7705 61.0462C50.7574 61.0462 50.7115 61.0396 50.705 61.033C50.6656 61.0265 50.6984 61.0396 50.6459 61.0134H50.6132C50.4427 60.9281 50.1345 60.9937 50.01 60.9413H49.9772C49.8002 60.8167 49.9706 60.6724 49.9903 60.6331L50.0624 60.4757C50.128 60.3184 50.1804 60.3905 50.2001 60.2266C50.2198 60.0955 50.187 60.2397 50.2526 60.1282C50.3378 59.9709 50.2263 60.1545 50.2919 59.9906L50.482 59.6627C50.6001 59.407 50.5673 59.5775 50.5607 59.2169C50.5607 59.0858 50.5738 59.1972 50.5148 59.0923C50.4361 58.9481 50.5345 58.8497 50.4755 58.6661L50.3902 58.3973C50.2853 58.2269 50.3837 58.2531 50.3443 58.1482C50.305 58.0498 50.2919 58.1613 50.2788 58.0236C50.2657 57.9253 50.3378 57.9712 50.2263 57.8925C50.2526 57.8269 50.1935 57.6696 50.1608 57.604L49.9051 56.9942C49.9051 56.9877 49.8985 56.9811 49.8919 56.9746C49.8002 56.8172 49.8788 56.8762 49.8461 56.7975C49.8002 56.6795 49.7936 56.8434 49.7805 56.6402C49.7674 56.4238 49.7215 56.7057 49.7084 56.4107C49.7018 56.2992 49.6756 56.2992 49.6428 56.214L49.5641 55.8206C49.5641 55.8009 49.5641 55.7813 49.5445 55.7288C49.5051 55.6239 49.5379 55.7485 49.5051 55.6436L49.3412 55.0469C49.2232 54.9617 49.3215 54.9683 49.2691 54.8306C49.1838 54.706 49.2232 54.5355 49.2166 54.3061C49.2166 54.1946 49.197 54.2339 49.2691 54.1225V54.0897C49.3084 53.9913 49.2887 53.8012 49.2887 53.6897C49.2953 53.5127 49.2494 53.6111 49.2166 53.493C49.2035 53.4472 49.2429 53.4144 49.197 53.2767L49.1642 53.1849C49.0986 52.9882 49.2035 53.0669 49.0986 52.8308C49.0396 52.6932 49.0921 52.7325 49.0789 52.6341C49.0658 52.5489 49.0658 52.6014 49.0265 52.5096C48.9609 52.3457 49.0462 52.4047 48.9871 52.2932C48.9609 52.2473 48.9413 52.2735 48.9347 52.1817L48.7905 51.3556C48.7839 51.277 48.7905 51.3491 48.7773 51.3032L48.6331 50.4967L48.4889 49.9263L48.4561 49.8935V49.8607C48.4102 49.7493 48.4626 49.7558 48.4233 49.6444L48.3643 49.5132C48.2856 49.2444 48.2987 49.192 48.2594 48.9559L48.0889 48.0511C48.0627 47.9135 48.102 47.9069 48.0561 47.802V47.7692C48.0102 47.6709 48.0037 47.625 48.0037 47.566C47.9971 47.4611 47.9906 47.4873 48.0561 47.3824V47.3496C48.0889 47.2775 48.0496 47.1398 48.1741 46.93C48.1741 46.9234 48.1873 46.9169 48.1873 46.9103L48.5216 46.5628C48.797 46.3792 49.3084 46.4907 49.4789 46.4186H49.5117C49.5969 46.4579 49.5313 46.4579 49.6166 46.4186H49.6494H49.6821H49.7149H49.7477H49.7805H49.8133H49.8461H49.8788H49.9116H49.9444H49.9772C50.0624 46.3792 49.9969 46.3792 50.0821 46.4186H50.1149C50.2001 46.3792 50.1345 46.3792 50.2198 46.4186H50.2526C50.3378 46.3792 50.2722 46.3792 50.3575 46.4186H50.3902H50.423H50.4558C50.4755 46.4251 50.5148 46.4448 50.5279 46.4514C50.5935 46.4841 50.5607 46.4645 50.5935 46.4907C50.6591 46.5235 50.7115 46.53 50.7705 46.5628H50.8033C50.941 46.6218 51.177 46.5825 51.2754 46.5497C51.3344 46.5366 51.5704 46.5497 51.695 46.4907H51.7278C51.7933 46.4579 51.8458 46.4514 51.9048 46.4186L52.0097 46.3465L52.0818 46.2743C52.1867 46.2219 52.2326 46.2284 52.3965 46.2547C52.4359 46.2612 52.4293 46.2547 52.4752 46.2743H52.508H52.5408H52.5736C52.6588 46.3137 52.5932 46.3137 52.6785 46.2743H52.7113C52.7965 46.3137 52.7309 46.3137 52.8162 46.2743H52.8489C52.9342 46.3137 52.8686 46.3137 52.9538 46.2743H52.9866C53.0719 46.3137 53.0063 46.3137 53.0915 46.2743H53.1243C53.2095 46.3137 53.144 46.3137 53.2292 46.2743H53.262C53.3472 46.3137 53.2817 46.3137 53.3669 46.2743H53.3997C53.5308 46.3268 53.3472 46.3006 53.6423 46.2547C53.6423 46.2547 53.7013 46.2415 53.7144 46.235C53.78 46.2219 53.7406 46.2284 53.78 46.2219C53.9111 46.1891 54.2127 46.0514 54.2783 45.8547C54.3438 45.658 54.252 45.6908 54.3438 45.6252L54.8749 45.5138C54.8815 45.5138 54.9274 45.5072 54.9339 45.5007L55.4256 45.3433H55.4584H55.4912H55.524C55.5437 45.3367 55.583 45.3171 55.5961 45.3105C55.6617 45.2777 55.6289 45.2974 55.6617 45.2712H55.6945H55.7272C55.8256 45.2253 55.8846 45.2253 55.9305 45.2122C55.9371 45.2122 55.9567 45.1991 55.9633 45.1991L56.337 45.0745C56.3436 45.0745 56.3501 45.0745 56.3567 45.0679L56.6058 44.9761C56.6517 44.9565 56.6583 44.9499 56.7238 44.9368L56.8222 44.9106C56.9861 44.8384 57.1762 44.8188 57.3402 44.7204C57.3467 44.7204 57.3533 44.7139 57.3598 44.7073C57.4254 44.6745 57.4778 44.668 57.5368 44.6352H57.5696C57.6352 44.6024 57.6876 44.5959 57.7467 44.5631H57.7794C57.845 44.5303 57.8975 44.5237 57.9565 44.491H57.9892L58.8809 44.209L59.1629 44.0648H59.1956C59.3399 43.9927 59.3661 43.9927 59.5169 44.0648H59.5497C59.6612 44.1172 59.7529 44.1172 59.871 44.0648H59.9037C59.9234 44.0582 59.9628 44.0386 59.9759 44.032C60.0414 43.9992 60.0087 44.0189 60.0414 43.9927C60.1332 44.032 60.166 43.973 60.2316 44.1041C60.2316 44.1107 60.2316 44.1172 60.2381 44.1238L60.3103 44.268C60.3234 44.327 60.284 44.3074 60.3299 44.3861C60.4479 44.5959 60.2906 44.2746 60.3693 44.4385L60.5201 44.8319C60.5201 44.8384 60.5266 44.845 60.5266 44.8516C60.5791 44.9761 60.5922 44.8778 60.5987 45.0089C60.6053 45.0745 60.5856 45.0417 60.6119 45.1007C60.743 45.3433 60.6119 45.0548 60.6709 45.2777C60.7036 45.4089 60.7299 45.2712 60.743 45.4548C60.7495 45.5662 60.8807 45.8154 60.8872 45.8482L60.9528 46.117C60.9528 46.117 60.9528 46.1301 60.9594 46.1301C60.979 46.1825 61.0184 46.1432 61.0249 46.294C61.0315 46.4251 61.0774 46.3596 61.097 46.471C61.097 46.4841 61.0905 46.5497 61.097 46.5628C61.1298 46.6939 61.156 46.5563 61.1692 46.7398C61.1757 46.8054 61.1692 46.7661 61.215 46.8447C61.2609 46.9169 61.2413 46.871 61.2413 46.9365C61.2544 47.1529 61.2544 46.8579 61.3134 47.2054L61.3527 47.3299C61.438 47.566 61.379 47.7627 61.3986 48.0118C61.4052 48.1364 61.4511 48.1757 61.4511 48.2675C61.4576 48.3265 61.4445 48.3724 61.4445 48.4445C61.4511 48.5232 61.4445 48.4708 61.4708 48.5298C61.4708 48.5363 61.4773 48.5429 61.4773 48.5494L61.5625 48.9625C61.6412 49.1789 61.5167 49.0018 61.6281 49.192C61.8051 49.487 61.6674 49.3756 61.7724 49.546L61.8117 49.6313C61.8379 49.7034 61.8248 49.6509 61.8641 49.7427L62.133 50.182ZM37.133 44.1762H37.1657L37.133 44.2156V44.1762ZM37.0674 44.2484H37.1002L37.0674 44.2877V44.2484ZM39.5523 44.4582H39.5851L39.5523 44.4975V44.4582ZM32.2615 44.5631H32.2287L32.2615 44.5237V44.5631ZM36.7789 44.5303H36.8117L36.7789 44.5696V44.5303ZM38.2345 44.5631H38.2017L38.2345 44.5237V44.5631ZM32.1238 44.7073H32.091L32.1172 44.668L32.1238 44.7073ZM36.6347 44.6745H36.6675L36.6347 44.7139V44.6745ZM57.4385 44.7073H57.4057L57.4385 44.668V44.7073ZM36.497 44.8122H36.5298L36.497 44.8516V44.8122ZM38.9819 45.0286H39.0147L38.9819 45.0679V45.0286ZM38.9163 45.1007H38.9491L38.9163 45.14V45.1007ZM26.9638 45.2384H27.0031L26.9704 45.2777L26.9638 45.2384ZM55.7272 45.2777H55.6945L55.7272 45.2384V45.2777ZM26.8261 45.3826H26.8589L26.8261 45.422V45.3826ZM38.418 45.4548H38.4508L38.418 45.4941V45.4548ZM66.5389 45.5597H66.5062L66.5389 45.5203V45.5597ZM66.6438 45.7039L66.716 45.776L66.7881 45.8482L66.9979 46.2088C67.0241 46.2415 67.0372 46.2481 67.0635 46.2809C67.1684 46.4317 67.0372 46.2481 67.0962 46.3661C67.1618 46.5038 67.2143 46.3989 67.2339 46.5956C67.247 46.7071 67.3454 46.7398 67.4241 46.8447L67.6011 47.2906C67.647 47.3955 67.6077 47.2775 67.6535 47.3824L67.7585 47.5397C67.9093 47.7168 67.6929 47.5201 67.8437 47.6971L68.0142 47.979C68.0732 48.1233 68.1977 48.261 68.224 48.32C68.224 48.3265 68.224 48.3331 68.2305 48.3396L68.2895 48.4445C68.2895 48.4511 68.2961 48.4576 68.2961 48.4642C68.3354 48.5429 68.2371 48.4642 68.3551 48.5429C68.3813 48.5822 68.401 48.6019 68.4141 48.6216C68.46 48.6937 68.4141 48.6806 68.4862 48.7593C68.5256 48.8117 68.5256 48.7986 68.5649 48.8576V48.8904L68.8075 49.3362C68.8075 49.3362 68.8731 49.4215 68.8796 49.428C69.0042 49.5788 68.8993 49.4608 68.9583 49.5985C69.0566 49.6706 69.0239 49.6772 69.096 49.7821C69.2468 50.005 69.0632 49.8476 69.2074 49.9525L69.5549 50.6737C69.5746 50.7131 69.5746 50.7262 69.5877 50.7459L69.732 51.0278C69.7451 51.054 69.7189 51.0409 69.7844 51.0868L70.0073 51.631C70.0073 51.6376 70.0139 51.6572 70.0139 51.6638L70.027 51.6966C70.0795 51.7818 70.1057 51.749 70.1516 51.8539L70.4466 52.3129C70.4466 52.3194 70.4532 52.326 70.4532 52.3326L70.5122 52.4375C70.5712 52.5489 70.5384 52.3326 70.5778 52.6341C70.5909 52.7259 70.5646 52.621 70.6237 52.7194C70.6827 52.8177 70.6302 52.7391 70.6695 52.8964C70.6695 52.903 70.6761 52.9095 70.6761 52.9161C70.6827 52.9423 70.6761 52.9423 70.6761 52.9685L70.6958 53.1324C70.6958 53.1456 70.722 53.2439 70.722 53.2505V53.5914C70.7286 53.7553 70.8007 53.6373 70.7417 53.775V53.8078L70.7745 53.8799V53.9127L70.7876 54.2274C70.7876 54.2339 70.7876 54.2536 70.7876 54.2602C70.7941 54.2995 70.7941 54.2733 70.8138 54.3061L71.417 56.7123C71.417 56.7189 71.4235 56.7254 71.4235 56.732L71.6465 57.4794C71.6465 57.5253 71.6334 57.5122 71.653 57.5647L71.6793 57.6368C71.7907 58.0433 71.8432 59.0268 71.7383 59.466C71.7055 59.5972 71.7251 59.4792 71.7186 59.5775C71.712 59.6365 71.7317 59.689 71.712 59.7611C71.6793 59.8857 71.6858 59.8201 71.6596 59.8791L71.3449 60.443C71.3449 60.443 71.3449 60.4495 71.3383 60.4561C71.2465 60.4298 71.3121 60.4561 71.2334 60.4233H71.1941L70.663 60.1414C70.6368 60.1217 70.722 60.0955 70.5581 60.102C70.427 60.1151 70.5384 60.102 70.4401 60.161L70.3089 60.2069H70.2762C70.1778 60.2528 70.1516 60.2528 70.0073 60.2332C69.8828 60.22 69.9352 60.2135 69.8172 60.1348C69.7779 60.0758 69.7582 60.0692 69.7385 59.9709C69.7057 59.8332 69.8106 59.9447 69.6795 59.8463H69.6467H69.614H69.5812H69.5484H69.4894C69.4238 59.8135 69.3714 59.807 69.3123 59.7742H69.2796C69.1288 59.6758 69.2271 59.7545 69.1025 59.7021H69.0698C68.978 59.6627 69.0501 59.689 68.9714 59.6824L68.6764 59.63H68.637H68.6042H68.5715C68.4862 59.5906 68.5518 59.5906 68.4666 59.63H68.4338H68.401H68.3682H68.3354H68.3026L68.2305 59.6693C68.2895 59.8135 68.2043 59.6627 68.2633 59.807C68.4141 60.0233 68.3748 59.8922 68.5125 59.9512H68.5452V59.984H68.5125C68.4338 60.0168 68.342 60.0168 68.2633 59.984H68.2305C68.1518 59.9512 68.1256 59.9578 68.0207 59.9906C67.9683 60.0037 67.9617 60.0168 67.8896 60.0299C67.7716 60.0561 67.9027 59.9971 67.765 60.0561H67.7322C67.6208 60.1086 67.4569 60.1086 67.3388 60.0561H67.3061C67.2077 60.0168 66.8012 60.0102 66.7291 60.0037C66.5127 59.984 66.0144 59.807 65.562 59.8725C65.4112 59.8988 65.4047 59.8988 65.3063 59.8922C65.2211 59.8857 65.0375 59.8594 64.9916 59.8398H64.9588C64.8736 59.8004 64.9392 59.8004 64.8539 59.8398C64.7818 59.7939 64.9392 59.8201 64.749 59.8004C64.7162 59.7939 64.6441 59.8004 64.6048 59.8004L64.0475 59.8135H64.0147C63.8901 59.7545 63.7786 59.7742 63.6934 59.7414H63.6606H63.6278H63.5885L63.0902 59.5972C62.946 59.6693 62.9591 59.5841 62.828 59.6955C62.7624 59.7545 62.6968 59.8266 62.6313 59.8922C62.4346 60.0889 62.3428 60.1151 62.4083 60.2725L62.4805 60.3446L62.5854 60.4167H62.6181C62.6837 60.4495 62.7362 60.4561 62.7952 60.4889H62.828L62.9001 60.5282C62.8607 60.6331 62.9263 60.679 62.7689 60.6856C62.7099 60.6856 62.5919 60.6921 62.4411 60.7052C62.3034 60.7183 62.428 60.7249 62.2903 60.7118L61.91 60.6659H61.8838C61.7855 60.7052 61.8576 60.679 61.7724 60.6856C61.7068 60.6856 61.733 60.6921 61.6347 60.6987C61.4511 60.7118 61.3593 60.7052 61.2806 60.738H61.2478C61.1626 60.6987 61.2282 60.6987 61.1429 60.738H61.097C61.0118 60.6987 61.0774 60.6987 60.9921 60.738H60.9594C60.9069 60.7118 60.92 60.7183 60.8544 60.7052L60.8413 60.679L60.8348 60.6659L60.6905 60.4561C60.6905 60.4561 60.6774 60.3971 60.6643 60.3643L60.6184 60.2594C60.5463 60.0168 60.5725 60.0496 60.5987 59.9774C60.6577 59.807 60.5332 59.9906 60.6577 59.7808L60.7036 59.6496C60.8085 59.5775 60.7299 59.6168 60.7758 59.5382C60.9069 59.289 60.8872 59.3611 61.0249 59.2956H61.0577H61.0905H61.1233C61.2085 59.2562 61.1429 59.2562 61.2282 59.2956H61.2609C61.3003 59.2759 61.3527 59.2628 61.3855 59.2431C61.4445 59.2103 61.4511 59.1907 61.5101 59.1513C61.5822 59.0464 61.6347 59.053 61.6674 58.9219C61.7068 58.7645 61.6019 58.935 61.7265 58.6989L61.7396 58.594C61.7658 58.4236 61.7855 58.6334 61.8117 58.3842C61.8183 58.3121 61.8117 58.3449 61.8641 58.2662V58.2334C61.91 58.1154 61.851 58.2793 61.8773 58.1744L62.0936 57.7482C62.0936 57.7417 62.1002 57.7023 62.1133 57.6696L62.3231 57.4401C62.3231 57.4401 62.3362 57.4335 62.3362 57.427C62.3362 57.427 62.3493 57.4204 62.3493 57.4139L62.5657 57.0926C62.605 57.027 62.5657 57.0991 62.6116 57.0336L62.723 56.8434C62.723 56.8369 62.7296 56.8303 62.7296 56.8238C62.7296 56.8172 62.7296 56.8106 62.7362 56.8041C62.7362 56.7975 62.7362 56.791 62.7427 56.7844L63.0509 56.214C63.0509 56.214 63.064 56.2075 63.064 56.2009L63.0837 56.1747L63.0902 56.1616C63.1033 56.1222 63.0705 56.1025 63.1558 56.0042C63.2476 55.8927 63.2869 55.7485 63.3197 55.696C63.3656 55.6239 63.3984 55.6501 63.4443 55.5387L63.7524 54.9945C63.7524 54.9879 63.759 54.9814 63.7655 54.9748C63.9491 54.7322 63.8245 54.883 63.9557 54.6536L64.1524 54.4175C64.1983 54.3257 64.0934 54.4044 64.2114 54.3192L64.2573 54.188C64.2573 54.1815 64.2704 54.1749 64.2704 54.1684L64.3163 54.0635C64.3425 54.0176 64.3097 54.0635 64.3622 54.0045L64.4146 53.9455C64.4212 53.9389 64.4277 53.9323 64.4277 53.9258L64.572 53.6766C64.5982 53.6373 64.6179 53.6176 64.631 53.598C64.7097 53.4668 64.572 53.5914 64.7949 53.3685C64.8277 53.3357 64.8343 53.3291 64.8605 53.2964L64.9982 53.1128L65.0703 53.0407L65.1949 52.844C65.2539 52.7587 65.326 52.7325 65.3653 52.6407L65.5424 52.3391C65.7456 52.1162 65.6997 52.1555 65.6997 51.8343C65.6997 51.808 65.6997 51.7752 65.6997 51.7359L65.4965 50.936C65.385 50.7787 65.4899 50.5951 65.385 50.2672L65.3719 50.1951C65.3653 50.0902 65.3981 50.0443 65.3588 49.9394V49.9066C65.267 49.6772 65.3391 49.5657 65.2867 49.4477V49.4149C65.2801 49.3166 65.2735 49.3231 65.267 49.2641C65.2604 49.192 65.2866 49.2182 65.2473 49.133V49.1002C65.3129 48.9428 65.2276 49.133 65.2473 48.9297C65.267 48.7789 65.1555 48.5101 65.1555 48.3986C65.1621 48.1102 65.0965 48.3724 65.1424 47.9331C65.1686 47.684 65.1162 47.8413 65.208 47.6119L65.2342 47.5397C65.267 47.4676 65.2473 47.5266 65.267 47.4873L65.4768 47.0939C65.4768 47.0873 65.4833 47.0808 65.4899 47.0742C65.5227 47.0218 65.5489 47.0087 65.5686 46.9562C65.6604 46.753 65.68 46.7661 65.7784 46.6022C65.8702 46.4448 65.6997 46.6874 65.8046 46.5563L66.0538 46.2219L66.198 46.0776L66.3422 45.9334C66.4209 45.8154 66.4275 45.8809 66.434 45.7629C66.4406 45.6121 66.4275 45.717 66.5193 45.5793C66.7422 45.7105 66.4406 45.5597 66.6438 45.7039ZM39.9457 45.7039H39.9129L39.9457 45.6646V45.7039ZM66.6438 45.7039V45.6711L66.6832 45.7039H66.6438ZM66.716 45.776V45.7432L66.7553 45.776H66.716ZM35.2185 45.8088H35.2512L35.2185 45.8482V45.8088ZM39.8015 45.8482H39.7687L39.8015 45.8088V45.8482ZM66.7881 45.8482V45.8154L66.8274 45.8482H66.7881ZM52.1015 46.2743H52.0687L52.1015 46.235V46.2743ZM52.0359 46.3465H52.0031L52.0359 46.3071V46.3465ZM39.0934 46.412H39.0606L39.0934 46.3727V46.412ZM36.6347 46.5235H36.6675L36.6347 46.5628V46.5235ZM48.4757 46.5563H48.443L48.4757 46.5169V46.5563ZM38.3066 46.9103H38.2738L38.3066 46.871V46.9103ZM33.5072 46.9496H33.54L33.5072 46.989V46.9496ZM37.9525 47.1267H37.9197L37.9525 47.0873V47.1267ZM44.2468 48.0118V48.0446L44.3582 48.2872C44.3648 48.3003 44.3845 48.3396 44.391 48.3527C44.391 48.3593 44.3976 48.3659 44.3976 48.3724C44.4763 48.5953 44.4763 48.4118 44.5549 48.6347L44.7779 49.0543C44.7779 49.0543 44.791 49.0608 44.791 49.0674C44.791 49.0674 44.8041 49.074 44.8041 49.0805C44.8041 49.0805 44.8172 49.0871 44.8172 49.0936L45.3155 49.9656L45.4204 50.1099L45.6433 50.4246C45.6433 50.4312 45.6761 50.4902 45.6827 50.5098C45.6892 50.5164 45.6892 50.5361 45.6958 50.5426C45.7745 50.7 45.8794 50.8508 45.9056 51.0278C45.9121 51.0999 45.9384 51.0868 45.9646 51.1327L45.9974 51.2507L46.122 51.5458C46.1941 51.7162 46.1351 51.4671 46.1875 51.7425L46.2203 51.808C46.2924 51.9392 46.2269 51.9064 46.3121 51.9654C46.3514 52.0572 46.3121 51.9916 46.3383 52.0637C46.3449 52.09 46.3645 52.1227 46.3908 52.1752C46.4367 52.2735 46.4826 52.3326 46.4957 52.4637C46.5678 52.5161 46.535 52.5096 46.5612 52.562L46.6924 52.8636C46.6924 52.8702 46.6924 52.8767 46.6989 52.8833C46.6989 52.8899 46.6989 52.8964 46.7055 52.903L46.7579 53.0341C46.7842 53.0931 46.7907 53.0931 46.8235 53.1456V53.1783L46.9153 53.4013C46.9153 53.4078 46.9153 53.4144 46.9218 53.4209L47.0005 53.6176C47.0399 53.7094 47.0202 53.657 47.053 53.7291L47.2497 54.188C47.2497 54.1946 47.2562 54.2012 47.2562 54.2077L47.3415 54.4044C47.3546 54.5159 47.3152 54.3585 47.3415 54.4569C47.3415 54.4569 47.3415 54.47 47.348 54.47L47.4988 54.7912C47.5119 54.824 47.5054 54.8109 47.5382 54.8503V54.883C47.5709 54.9289 47.5578 54.9093 47.5775 54.9486L47.7742 55.3354C47.7742 55.342 47.7807 55.3485 47.7807 55.3551L47.8398 55.4797C47.8398 55.4862 47.8529 55.5125 47.8594 55.519C47.866 55.5321 47.8791 55.5452 47.8988 55.6174C47.9184 55.6895 47.8857 55.7157 47.9119 55.7682C47.9512 55.86 47.9709 55.7682 47.9774 55.9124C47.984 56.0239 47.9512 55.9517 48.0299 56.0632V56.096C48.0758 56.2075 48.0365 56.1288 48.0496 56.1943C48.0627 56.2599 48.0758 56.273 48.0955 56.3124C48.1282 56.391 48.1151 56.2992 48.1217 56.4041C48.1414 56.7648 48.1741 56.4697 48.2331 56.7451C48.2594 56.8697 48.2135 56.9746 48.1741 57.0532L48.1217 57.204C48.1151 57.368 48.102 57.545 48.1741 57.6564C48.1873 57.8072 48.2331 57.8466 48.2659 58.0236L48.3249 58.181C48.3249 58.1875 48.3315 58.1941 48.3315 58.2006C48.3315 58.2072 48.3381 58.2137 48.3381 58.2203C48.3446 58.2465 48.3118 58.3318 48.4364 58.4694C48.4364 58.4694 48.4495 58.476 48.4495 58.4826C48.4495 58.4826 48.4626 58.4891 48.4626 58.4957L48.6659 58.8104C48.7446 58.9284 48.7905 59.2693 48.8036 59.4398L48.797 59.807C48.7905 59.9578 48.7642 60.043 48.7511 60.1938C48.6855 60.2922 48.7249 60.3053 48.679 60.4102C48.5675 60.5675 48.6659 60.561 48.6134 60.6659C48.5413 60.797 48.561 60.6593 48.5544 60.7905C48.5479 60.8757 48.5675 60.8232 48.5413 60.9413L48.2987 60.9544C48.2266 60.9544 48.1414 60.9675 48.043 60.9085L47.7611 60.7642C47.4267 60.5413 47.5841 60.6462 47.2169 60.5413L46.9415 60.4823H46.9087C46.8432 60.4495 46.8563 60.4561 46.7579 60.4299C46.6793 60.4102 46.7842 60.443 46.6989 60.4167L46.3711 60.3381H46.3383L46.1154 60.2725C45.9777 60.22 45.9908 60.2659 45.9515 60.2463C45.9056 60.22 45.9318 60.2266 45.9253 60.2069L45.9121 60.1741C45.9121 60.1741 45.9121 60.161 45.9056 60.161C45.6827 60.1676 45.7351 60.2397 45.5843 60.3381L45.3942 60.5151C45.2565 60.5938 45.2434 60.443 45.1909 60.3381C45.086 60.2725 45.1385 60.2594 45.0139 60.2332C44.8762 60.2004 44.8959 60.2397 44.8041 60.2004H44.7713C44.6861 60.2397 44.7516 60.2397 44.6664 60.2004H44.6336C44.5681 60.2332 44.5156 60.2397 44.4566 60.2725H44.4238L44.2074 60.4889C44.096 60.5675 44.1419 60.7249 43.8862 60.8429C43.8206 60.679 43.9845 60.4954 43.9386 60.3381C43.919 60.2725 43.8665 60.2463 43.8141 60.1676C43.6698 60.1676 43.519 60.1938 43.4207 60.1348L43.2502 59.984C43.1387 60.0168 43.1846 60.0037 43.0994 60.0627C43.0404 60.1479 42.9945 60.1676 42.9355 60.2528C42.9093 60.2856 42.8961 60.3315 42.8699 60.3643C42.8306 60.4233 42.8175 60.4298 42.7781 60.4823H42.7453L42.7126 60.4102C42.5945 60.3249 42.6929 60.3315 42.6404 60.1938C42.6208 60.1676 42.6208 60.1807 42.6011 60.1282C42.5814 60.0692 42.588 60.0955 42.588 60.043C42.5814 59.9119 42.6536 59.9971 42.5355 59.9119C42.5224 59.8857 42.5421 59.7217 42.3192 59.6627L42.1421 59.8398L42.07 59.9119C41.9586 59.9643 41.9323 59.9643 41.8209 59.9119L41.6045 59.807C41.5586 59.9775 41.5127 59.8988 41.4537 60.0299L41.434 60.102C41.4144 60.1348 41.3881 60.1545 41.3619 60.2004C41.2964 60.1676 41.2439 60.161 41.1849 60.1282H41.1521L41.08 60.1676C40.9882 59.9709 41.0669 59.9709 40.9357 59.7742L40.7981 59.6627C40.6604 59.7021 40.7194 59.7086 40.6145 59.7742L40.5489 59.8135C40.5424 59.8201 40.5358 59.8266 40.5292 59.8266L40.4833 59.8857C40.3391 60.0955 40.4047 59.984 40.3719 60.1282L40.2998 60.4102C40.1949 60.3315 40.2342 60.22 40.2998 60.1282V60.0955C40.2867 59.9053 40.2932 60.0561 40.2604 59.9578C40.2276 59.866 40.2932 59.7349 40.0506 59.6693C39.867 59.7939 39.9064 59.8332 39.8867 59.8529C39.8605 59.8791 39.9523 59.866 39.8015 59.8791V59.748V59.7152C39.7752 59.6562 39.7687 59.5644 39.7556 59.4267C39.7425 59.3415 39.7359 59.2628 39.6244 59.1841C39.5523 59.0005 39.6703 58.8366 39.6769 58.712C39.6835 58.4957 39.7097 58.653 39.749 58.5153C39.7687 58.4498 39.7031 58.4301 39.8015 58.2924C39.808 58.2465 39.808 58.2137 39.8146 58.181L39.9654 57.486C40.0768 57.2106 39.9785 57.5909 40.0309 57.2893C40.0441 57.2106 40.0834 57.204 40.0965 56.968C40.1031 56.8172 40.1359 56.9287 40.1686 56.8106L40.3063 56.0304C40.3391 55.7944 40.3129 56.1616 40.385 55.8009L40.4375 55.6436C40.4375 55.637 40.444 55.6305 40.444 55.6239L40.5424 55.3813L40.7653 54.824C40.7653 54.8175 40.7784 54.8109 40.7784 54.8044L40.9489 54.4306C40.9685 54.2405 40.9423 54.4437 41.021 54.2339L41.4209 53.316C41.4996 53.1718 41.3357 53.2898 41.4996 53.1783C41.5455 53.0734 41.4865 53.2111 41.5193 53.0997L41.8143 52.4965C41.834 52.4571 41.834 52.4506 41.8405 52.4243C41.8405 52.4178 41.8471 52.4112 41.8471 52.4047L41.893 52.2801C41.9323 52.2014 41.893 52.3063 41.9389 52.208C41.9389 52.2014 41.9454 52.1949 41.9454 52.1883L42.0241 51.9851C42.0504 51.8933 42.0438 51.9326 42.07 51.8933L42.247 51.395C42.3323 51.336 42.3585 51.1983 42.3716 51.1196L42.47 50.9032C42.529 50.759 42.6339 50.5557 42.6536 50.4049L42.7191 50.2804C42.765 50.182 42.6667 50.2672 42.7781 50.182C42.7912 50.0247 42.8175 49.9656 42.9224 49.9001L42.9945 49.828C43.001 49.8214 43.0142 49.8083 43.0142 49.8148L43.2174 49.6575C43.4076 49.4608 43.1977 49.5788 43.3485 49.4739C43.3944 49.3559 43.3289 49.4542 43.3813 49.3821C43.3813 49.3821 43.3944 49.3756 43.3944 49.369C43.5256 49.2182 43.4928 49.1985 43.5256 49.1133C43.5321 49.1067 43.5387 49.0871 43.5387 49.0936L43.6895 48.7002C43.7419 48.5429 43.6829 48.5888 43.7419 48.4839L43.8403 48.3003V48.2675C43.8862 48.1495 43.8272 48.3134 43.8534 48.2085L44.0501 47.8086L44.2468 48.0118ZM34.3989 48.1233H34.3661L34.3989 48.0839V48.1233ZM31.3763 48.261V48.2282L31.4157 48.261H31.3763ZM30.8453 48.5494H30.8059L30.8387 48.5101L30.8453 48.5494ZM68.3551 48.5494V48.5167L68.3944 48.5494H68.3551ZM30.701 48.6871H30.6682L30.701 48.6478V48.6871ZM31.6583 48.6871V48.6543L31.6976 48.6871H31.6583ZM31.7304 48.7593V48.7265L31.7697 48.7593H31.7304ZM27.6785 48.8314V48.7986L27.7178 48.8314H27.6785ZM43.4993 49.1133H43.4666L43.4993 49.074V49.1133ZM29.3504 49.3297H29.3176L29.3504 49.2903V49.3297ZM45.3155 49.9722V49.9394L45.3548 49.9722H45.3155ZM69.2074 49.9722V49.9394L69.2468 49.9722H69.2074ZM39.6244 51.0737H39.6572L39.6244 51.113V51.0737ZM69.7713 51.1065V51.0737L69.8106 51.1065H69.7713ZM42.2208 51.3884H42.188L42.2208 51.3491V51.3884ZM46.3055 51.9588V51.926L46.3449 51.9588H46.3055ZM61.9494 54.3388H61.9822L61.9494 54.3782V54.3388ZM61.8838 54.411H61.9166L61.8838 54.4503V54.411ZM61.5953 54.8371H61.6281L61.5953 54.8765V54.8371ZM40.5161 55.3748H40.4833L40.5161 55.3354V55.3748ZM61.3134 55.4076H61.3462L61.3134 55.4469V55.4076ZM60.8151 56.332H60.8479L60.8151 56.3714V56.332ZM60.4611 56.8303H60.4938L60.4611 56.8697V56.8303ZM48.1545 57.0467H48.1873L48.1545 57.086V57.0467ZM48.1545 57.6499V57.6171L48.1938 57.6499H48.1545ZM60.1004 57.6105H60.1332L60.1004 57.6499V57.6105ZM62.133 57.6499H62.1002L62.133 57.6105V57.6499ZM37.9197 57.899H37.9525L37.9197 57.9384V57.899ZM50.187 57.899V57.9318L50.1477 57.899H50.187ZM37.8476 58.1088H37.8804L37.8476 58.1482V58.1088ZM37.7755 58.3252H37.8083L37.7755 58.3645V58.3252ZM36.497 58.4629H36.5298L36.497 58.5022V58.4629ZM36.497 59.0333H36.5298L36.497 59.0727V59.0333ZM33.1204 59.1776V59.2103L33.081 59.1776H33.1204ZM33.7236 59.1776L33.7367 59.1907C33.7301 59.1841 33.717 59.1776 33.7236 59.1776ZM39.5917 59.1776V59.2103L39.5523 59.1776H39.5917ZM32.2287 59.3152H32.2615L32.2287 59.3546V59.3152ZM32.6549 59.3152H32.6876L32.6549 59.3546V59.3152ZM35.107 59.3152V59.348L35.0677 59.3152H35.107ZM74.0789 59.4267H74.0462L74.0789 59.3874V59.4267ZM59.3923 59.4595H59.4251L59.3923 59.4988V59.4595ZM60.7102 59.6365H60.6774L60.7102 59.5972V59.6365ZM74.3281 59.6365V59.6037L74.3674 59.6365H74.3281ZM42.1159 59.8135H42.1487L42.1159 59.8529V59.8135ZM41.7947 59.8857V59.9184L41.7553 59.8857H41.7947ZM42.0438 59.8857H42.0766L42.0438 59.925V59.8857ZM42.5028 59.8857V59.9184L42.4634 59.8857H42.5028ZM55.4453 59.8857V59.9184L55.406 59.8857H55.4453ZM64.6572 59.8857C64.6638 59.8791 64.6703 59.8922 64.6703 59.8988L64.6572 59.8857ZM64.8342 59.8857V59.9184L64.7949 59.8857H64.8342ZM74.61 59.925V59.8922L74.6494 59.925H74.61ZM50.2526 59.9906H50.2198L50.2526 59.9512V59.9906ZM74.7543 60.0627V60.0299L74.7936 60.0627H74.7543ZM74.8264 60.1348V60.102L74.8657 60.1348H74.8264ZM41.3291 60.1741H41.3619L41.3291 60.2135V60.1741ZM48.7249 60.1741H48.7577L48.7249 60.2135V60.1741ZM69.8106 60.1741V60.2069L69.7713 60.1741H69.8106ZM70.663 60.1741V60.2069L70.6237 60.1741H70.663ZM74.0396 60.2069V60.1741L74.0789 60.2069H74.0396ZM48.6528 60.384H48.6855L48.6528 60.4233V60.384ZM42.7191 60.4561V60.4889L42.6798 60.4561H42.7191ZM42.7519 60.4561H42.7847L42.7519 60.4954V60.4561ZM44.1747 60.4561H44.2074L44.1747 60.4954V60.4561ZM52.567 60.4561H52.5998L52.567 60.4954V60.4561ZM55.2683 60.4889V60.4561L55.3076 60.4889H55.2683ZM57.4385 60.6003V60.6331L57.3992 60.6003H57.4385ZM43.8534 60.8101V60.8429L43.8141 60.8101H43.8534ZM34.93 61.4854V61.4527L34.9693 61.4854H34.93ZM35.9266 62.0559V62.0231L35.9659 62.0559H35.9266ZM53.439 13H53.7472C53.8455 13.0066 53.9439 13.0262 54.0422 13.0459C54.1275 13.0656 54.1537 13.0525 54.2717 13.1049H54.3045L54.5602 13.1836C54.5667 13.1836 54.5733 13.1901 54.5799 13.1901L54.6979 13.2491H54.7307C54.8552 13.3016 54.7634 13.2229 54.9077 13.3213H54.9405C55.006 13.3541 55.0585 13.3606 55.1175 13.3934H55.1503L55.4322 13.5376C55.524 13.5966 55.5896 13.6229 55.6814 13.6819C55.6879 13.6884 55.701 13.695 55.701 13.695L55.8912 13.8261L55.9371 13.8523C56.1928 14.0031 56.1796 14.0884 56.2255 14.1736L56.278 14.2785C56.278 14.2851 56.2846 14.2916 56.2846 14.2982C56.3108 14.3965 56.2714 14.3375 56.278 14.4228C56.2911 14.6785 56.2714 14.6195 56.2059 14.7637C56.1665 14.8358 56.219 14.7375 56.1928 14.8162C56.0092 15.3866 56.0616 15.3145 56.396 15.5374L56.5403 15.6816L56.6845 15.8259C56.7501 15.9308 56.8615 15.9898 56.9074 16.0816C56.9074 16.0881 56.914 16.0947 56.914 16.1012L56.9205 16.1143L57.0517 16.3176C57.0582 16.3242 57.0713 16.3373 57.0779 16.3438C57.1172 16.3766 57.091 16.3438 57.1172 16.3766C57.4713 16.8356 57.2418 16.5077 57.4385 16.8683L57.4909 16.9339C57.6286 17.4322 57.0582 17.1372 56.8681 17.0519L56.796 16.9798C56.7632 16.9536 56.796 16.9732 56.7304 16.9405C56.7173 16.9339 56.6779 16.9208 56.6583 16.9077H56.6255L56.5206 16.8356H56.4878C56.4485 16.8093 56.4354 16.7897 56.4091 16.7766C56.3632 16.7503 56.3895 16.7634 56.3567 16.7503L56.3042 16.7307C56.2059 16.6782 56.16 16.6061 55.9174 16.5864C55.9108 16.6454 55.9043 16.7241 55.8977 16.7372L55.8649 16.9995C55.8649 17.3535 55.7207 16.8749 55.7207 17.7994C55.7207 18.0747 55.76 18.0616 55.6289 18.1469C55.6682 18.1993 55.6682 18.2059 55.6945 18.2583C55.8256 18.514 56.2321 18.6517 56.3567 18.9205C56.4485 19.1172 56.6124 19.1762 56.7304 19.3598C56.9009 19.4844 56.7238 19.3533 56.796 19.4778C56.8287 19.5303 56.8812 19.55 56.9074 19.6024C56.9927 19.7401 56.8222 19.5565 56.9664 19.727C57.0385 19.8057 57.0254 19.7532 57.0713 19.8647L57.2156 20.2384C57.2418 20.2908 57.2615 20.304 57.2943 20.3564C57.4057 20.4416 57.327 20.3564 57.3533 20.4548L57.4188 20.6515C57.4254 20.6974 57.4188 20.6515 57.4188 20.7039C57.4057 20.9924 57.4975 20.7432 57.4909 21.0252C57.4844 21.235 57.491 21.1301 57.5368 21.2547C57.609 21.4251 57.5106 21.5431 57.5827 21.7071C57.6745 21.9169 57.6024 21.8841 57.6352 22.0742L57.6811 22.2053C57.609 22.3824 57.7073 22.1529 57.7008 22.4283C57.7008 22.4873 57.6942 22.5463 57.7335 22.6905C57.7794 22.8741 57.7729 22.8217 57.7729 22.9462L57.8253 23.2019L57.9171 24.1526C57.9302 24.2903 57.9696 24.3624 57.9696 24.5132C57.9696 24.6444 57.9761 24.828 57.9827 24.9001L57.9958 25.0968C58.1269 25.4771 58.0155 25.3853 58.0483 25.6082C58.0679 25.7524 58.1269 25.6213 58.1204 25.8377V26.4802C58.1204 27.2145 58.081 26.7687 58.0483 27.0113C58.0286 27.1359 58.1007 27.208 57.9958 27.3588C57.9892 27.4637 57.9696 27.4965 57.9368 27.5883L57.8516 27.7849C57.7991 27.9161 57.8975 27.8308 57.7729 27.9554C57.668 28.0603 57.6811 28.0144 57.5631 28.0669C57.5565 28.0734 57.5434 28.08 57.5434 28.08L57.3467 28.1718C57.15 28.2242 57.1041 28.1587 56.9795 28.0407C56.8746 27.9357 56.8812 27.9816 56.9205 27.8899H56.8353L56.855 28.2964C56.8681 28.5258 56.9205 28.1193 56.9205 29.0504C56.9205 29.3782 56.9599 29.5814 56.8681 29.7322C56.8025 29.8437 56.9009 29.7453 56.7894 30.0797C56.7238 30.2699 56.9664 30.0207 56.973 30.0207L57.15 29.9158C57.209 30.0076 57.2287 29.9879 57.2746 30.0863C57.2746 30.0928 57.2746 30.0994 57.2811 30.106C57.2811 30.1125 57.2877 30.1191 57.2877 30.1256L57.3533 30.2502C57.3533 30.2568 57.3598 30.2633 57.3598 30.2699L57.4385 30.4535V30.4862L57.4713 30.519L57.5368 31.0566C57.6221 31.4304 57.4451 31.4238 57.6811 31.5877H57.7139C57.8057 31.6271 58.022 31.6205 58.2449 31.6205C58.8678 31.6205 59.8579 31.5353 60.4086 31.6598C60.5069 31.6795 60.6643 31.6598 60.802 31.7254H60.8348C60.9921 31.7975 61.0118 31.7451 61.1954 31.8631C61.2413 31.8893 61.2478 31.909 61.2937 31.9418H61.3265C61.3855 31.9811 61.3921 31.9811 61.4445 32.0401L61.5363 32.1778C61.5363 32.1778 61.5494 32.1844 61.5494 32.1909L61.5757 32.2106L61.5822 32.2237C61.5953 32.2434 61.5494 32.2303 61.6412 32.3024H61.674L62.7755 32.1581H62.8083C62.8935 32.1188 62.828 32.1188 62.9132 32.1581L63.5164 32.1254C64.2179 32.1254 63.995 32.0795 64.5195 32.1778L65.1883 32.3024H65.2211L65.7522 32.4466H65.7849C65.8374 32.4729 65.8767 32.4794 65.9357 32.5122L66.0734 32.5909C66.139 32.6237 66.1914 32.6302 66.2505 32.663H66.2832C66.3291 32.6958 66.3488 32.722 66.3816 32.7351C66.5193 32.8072 66.3291 32.6958 66.4537 32.7548C66.5127 32.781 66.5389 32.8269 66.6045 32.8728H66.6373C66.775 32.8859 66.8012 32.9056 66.9061 32.9646C66.9913 33.0105 66.9454 32.9712 67.0241 33.0302C67.0635 33.0564 67.0569 33.0629 67.1028 33.0892L67.2077 33.1613H67.2405H67.2733C67.3782 33.2137 67.4175 33.181 67.5224 33.2334H67.5552C67.6011 33.2531 67.6011 33.2465 67.6339 33.2531C67.6667 33.2596 67.6601 33.2596 67.7257 33.2728C67.824 33.2924 67.7978 33.2728 67.8765 33.3055H67.9093C68.0338 33.3645 68.0732 33.3514 68.165 33.3711C68.2502 33.3908 68.3813 33.417 68.4469 33.4432H68.4797L69.2206 33.6268C69.2665 33.6465 69.2861 33.6465 69.3582 33.6727C69.3648 33.6727 69.4238 33.6989 69.4369 33.7055C69.4435 33.7055 69.4566 33.7252 69.4566 33.7186C69.4632 33.712 69.4697 33.7252 69.4763 33.7317H69.509H69.5418L69.7451 33.8169C69.7516 33.8169 69.7582 33.8235 69.7648 33.8235C69.7713 33.8235 69.7779 33.8301 69.7844 33.8301C69.8238 33.8432 69.8303 33.8497 69.8631 33.876H69.8959L70.0926 33.9677C70.2172 34.0333 70.3352 34.053 70.4466 34.1579L70.5187 34.2234C70.5187 34.2169 70.5319 34.23 70.5384 34.2366L70.6105 34.3087C70.6695 34.3349 70.7023 34.3415 70.7613 34.3742C70.8007 34.4005 70.8138 34.4201 70.8597 34.4529L71.1875 34.6562C71.24 34.6955 71.2269 34.6955 71.2859 34.7349L71.4301 34.8791C71.5285 35.0299 71.6793 35.1151 71.7907 35.2659C71.8759 35.3774 71.7842 35.3118 71.9546 35.4954C72.1185 35.6724 71.8956 35.5413 72.0661 35.6659C72.1185 35.738 72.1907 35.7905 72.2169 35.8495C72.2628 35.9413 72.1841 35.8298 72.2497 35.9413C72.2628 35.9675 72.289 35.9872 72.3087 36.0199C72.407 36.0921 72.3087 36.0593 72.4136 36.1314C72.584 36.2494 72.5185 36.3609 72.6037 36.5117L72.7676 36.8723C72.7807 36.9051 72.7873 36.951 72.7873 36.951C72.7873 36.9575 72.7939 36.9641 72.7939 36.9706L72.8594 37.0952C72.8922 37.2001 72.8266 37.0427 72.8725 37.1542C72.9774 37.2263 72.9053 37.1739 72.9315 37.2526L72.9971 37.4493C72.9971 37.4558 73.0037 37.4624 73.0037 37.4689L73.1545 37.7705C73.1676 37.7902 73.2725 37.9082 73.1938 38.1115L73.2659 38.1508C73.2856 38.3606 73.4298 38.6819 73.4298 38.7933C73.4298 39.0163 73.4561 38.8589 73.4954 39.0425C73.502 39.0753 73.4954 39.1015 73.4954 39.1343C73.4888 39.3244 73.5085 39.1802 73.561 39.3769C73.5806 39.4621 73.5544 39.5014 73.5675 39.5801L73.6331 39.7571C73.6331 39.7637 73.6396 39.7703 73.6396 39.7768C73.6462 39.8096 73.6396 39.8555 73.6396 39.8817C73.6396 39.9997 73.6724 39.9538 73.7052 40.1112C73.7314 40.2227 73.6855 40.1112 73.7511 40.2227C73.8429 40.38 73.7052 40.3735 73.8232 40.6488L73.9937 41.8618C74.0003 41.9601 74.0396 42.0716 74.0593 42.1831L74.0986 42.8977C74.1642 43.2583 74.0986 43.1862 74.1838 43.3895C74.2101 43.4616 74.2035 43.455 74.2101 43.5009V45.2777C74.2101 45.3302 74.2035 45.2843 74.2101 45.3302C74.2232 45.4089 74.2101 45.3367 74.2297 45.3826C74.256 45.4744 74.2887 45.3433 74.2297 45.481V45.5138C74.2953 45.6711 74.2756 46.6612 74.2887 46.6939C74.2887 46.7005 74.2953 46.7071 74.2953 46.7136C74.3281 46.8382 74.3019 46.7661 74.2887 46.871C74.2691 46.9759 74.315 47.0152 74.315 47.0677C74.315 47.0742 74.3019 47.0939 74.3019 47.1004C74.3019 47.107 74.2953 47.1136 74.2953 47.1201L74.3084 47.6184C74.3084 47.625 74.3084 47.6315 74.3084 47.6381V47.7627C74.3084 47.7692 74.315 47.7758 74.315 47.7823C74.3215 47.7954 74.3215 47.9069 74.3215 47.9397C74.3215 48.0315 74.315 47.979 74.3215 48.0315C74.3215 48.0315 74.3346 48.1233 74.3346 48.1429V48.1757C74.374 48.261 74.374 48.1954 74.3346 48.2806V48.3134C74.3674 48.3855 74.3674 48.4839 74.3346 48.5626V48.5953V48.7002V48.733C74.3281 48.8183 74.3215 48.8314 74.3215 48.8707C74.3215 48.8773 74.3346 48.9625 74.3346 48.9822V49.0149L74.3215 50.3131C74.3215 50.3197 74.3281 50.3787 74.3346 50.4049V50.4377C74.3281 50.5229 74.3215 50.5361 74.3215 50.5754C74.3215 50.582 74.3346 50.6672 74.3346 50.6869V50.7196C74.374 50.8049 74.374 50.7393 74.3346 50.8246V50.8573C74.3805 50.9754 74.3412 51.3097 74.3543 51.454V51.8801C74.3478 51.9392 74.3478 51.9785 74.3609 52.0244L74.4068 52.1752V52.208C74.4395 52.2932 74.4199 52.267 74.4264 52.3391C74.4264 52.3916 74.4395 52.4178 74.4527 52.5161C74.4658 52.621 74.4461 52.7194 74.4789 52.8112V52.844C74.4854 52.9423 74.492 52.9357 74.4986 52.9948C74.4986 53.0341 74.4986 53.0472 74.4986 53.0997C74.4986 53.316 74.4658 53.5586 74.551 53.7291V53.7619C74.5576 53.8471 74.5641 53.8537 74.5641 53.8996C74.5707 54.2536 74.7084 54.6077 74.7149 54.8568C74.7215 55.0666 74.7805 54.8503 74.7805 55.2109C74.7805 55.3617 74.7739 55.2174 74.8329 55.3682C74.9116 55.5715 74.787 55.4272 74.9051 55.7223C74.9837 55.9124 74.8657 55.8272 74.9641 56.0501C75.0362 56.2206 74.9641 56.1943 75.01 56.3255C75.0427 56.4304 75.069 56.3976 75.069 56.509C75.069 56.6205 75.0362 56.6271 75.1214 56.7516L75.1542 56.8697C75.2657 57.0795 75.1804 56.9287 75.2132 57.086C75.2394 57.1909 75.2394 57.1516 75.2657 57.2434C75.2853 57.3024 75.2853 57.3089 75.2853 57.3745C75.2919 57.6499 75.3116 57.4532 75.3509 57.6499C75.4099 57.9908 75.3509 57.7023 75.4165 57.8662C75.4361 57.9121 75.4099 57.9318 75.423 57.9712C75.4558 58.0892 75.4492 57.9777 75.4886 58.0761C75.5083 58.122 75.482 58.1416 75.4951 58.181C75.5214 58.2793 75.5148 58.2006 75.5607 58.2859L75.8426 58.994C75.8426 59.0005 75.8492 59.0071 75.8492 59.0136L76.1901 59.8332C76.1901 59.8398 76.1967 59.8463 76.1967 59.8529C76.1967 59.8594 76.2033 59.866 76.2033 59.8725L76.236 59.9447C76.2623 59.984 76.236 59.925 76.2688 59.9971C76.3082 60.0889 76.4262 60.279 76.4393 60.4495L76.0393 60.4364C75.9475 60.4298 75.7181 60.3118 75.5542 60.384C75.5935 60.4364 75.7115 60.5282 75.6263 60.7052C75.5345 60.7446 75.5279 60.6987 75.482 60.679C75.1149 60.4954 75.2788 60.5413 75.0952 60.4233L74.7739 60.1414L74.7018 60.0692L74.5576 59.925L74.2756 59.6431L74.0265 59.4267L73.9937 59.4988C74.0199 59.5185 74.0396 59.5185 74.0658 59.5578L74.433 60.2332C74.4854 60.3643 74.492 60.4102 74.5576 60.4561C74.6362 60.5675 74.6166 60.4823 74.6297 60.6331C74.492 60.6921 74.4789 60.6397 74.3543 60.5151C74.2625 60.4233 74.197 60.3446 74.0986 60.2725L73.9937 60.2004C73.915 60.1479 73.8954 60.1217 73.8232 60.0496C73.7446 59.9643 73.7708 59.9643 73.6331 59.9512L73.738 60.2135C73.7773 60.3708 73.4757 60.2856 73.4561 60.2725H73.4233L73.3184 60.2004H73.2856C73.22 60.1676 73.1676 60.161 73.1086 60.1282L72.7873 60.9085C72.8594 60.915 72.8988 60.9216 72.925 60.9216C72.9643 60.9281 72.9578 60.9216 73.0037 60.9413H73.0364C73.1414 60.9872 73.2528 60.9281 73.4298 61.0134H73.4626C73.5282 61.0462 73.5806 61.0527 73.6396 61.0855H73.6724C73.7052 61.0986 73.7708 61.1183 73.797 61.138C73.856 61.1707 73.8495 61.1904 73.8888 61.2232C74.0003 61.3019 74.0068 61.2429 74.1314 61.3019H74.1642C74.2035 61.3215 74.2232 61.3215 74.2625 61.3412C74.315 61.3609 74.315 61.374 74.3543 61.3871C74.4527 61.4199 74.4527 61.3937 74.551 61.4396C74.6559 61.5117 74.6559 61.4789 74.7411 61.5051C74.7477 61.5051 74.7674 61.5182 74.7739 61.5182L75.1214 61.5772C75.1542 61.6559 75.1411 61.7149 75.1411 61.8002C75.1411 61.9116 75.128 61.9247 75.0493 62.0428V62.0755L74.8723 62.2526H74.8395C74.8002 62.2788 74.8002 62.2853 74.7608 62.2985C74.6428 62.3444 74.8133 62.2657 74.7084 62.3116C74.6625 62.3312 74.6428 62.3575 74.5903 62.3968H74.5576C74.4264 62.4624 74.3937 62.4361 74.3084 62.4689L73.7642 62.6787C73.6855 62.7115 73.7905 62.6787 73.6987 62.7115L73.3118 62.823H73.279C73.1938 62.8558 73.0823 62.8361 72.9578 62.8951H72.925C72.7873 62.8361 72.9184 62.8689 72.8266 62.8951C72.6234 62.9541 72.5972 62.9017 72.4595 62.9672H72.4267C72.3283 62.9738 72.3349 62.9803 72.2759 62.9869C72.2366 62.9869 72.2366 62.9869 72.1907 62.9869C72.1317 62.9935 72.0726 63 72.0202 63H71.6399C71.4957 62.9934 71.3514 62.9803 71.1875 62.9672H71.1941C71.0695 62.9082 70.958 62.9279 70.8728 62.8951H70.84C70.7089 62.8295 70.6761 62.8558 70.5909 62.823H70.5581C70.4925 62.7902 70.4401 62.7836 70.3811 62.7509H70.3417H70.3089H70.2762L69.673 62.6066H69.6402C69.509 62.541 69.45 62.6001 69.3189 62.5345H69.2861C69.2009 62.5017 69.0894 62.5214 68.9649 62.4624H68.9321C68.8141 62.4493 68.7354 62.4361 68.578 62.423L67.9289 62.4099C67.6601 62.423 67.3651 62.4099 67.129 62.4099L65.6341 62.4689C65.6276 62.4689 65.621 62.4755 65.6145 62.4755L65.5424 62.4624C65.444 62.4624 65.5489 62.5279 65.4112 62.4689H65.3784C65.2604 62.5148 65.3457 62.482 65.2998 62.4755L65.1227 62.4624C65.1162 62.4624 65.1096 62.4624 65.1031 62.4624L61.3593 62.4361C60.4348 62.4361 57.9171 62.3444 56.8812 62.4361L55.5896 62.4624C55.1962 62.482 55.4978 62.5542 55.3142 62.4755H55.2814C55.2158 62.5017 54.9274 62.5279 54.8421 62.5279C54.7962 62.5279 54.7241 62.5214 54.6848 62.5279C54.5012 62.5542 54.6913 62.6132 54.534 62.5476H54.5012C54.4291 62.5804 54.3569 62.5738 54.1865 62.5935C54.0947 62.6066 54.0357 62.5935 53.9635 62.6197H53.9308H53.8849H53.8521H53.8193H53.7865C53.7013 62.5804 53.7668 62.5804 53.6816 62.6197H53.6488C53.5636 62.5804 53.6292 62.5804 53.5439 62.6197H53.4915C53.3931 62.5804 53.2358 62.6001 53.1243 62.6001L51.7474 62.6197H51.7147C51.6556 62.646 51.6294 62.646 51.5442 62.646L51.0393 62.6918H51C50.9148 62.6525 50.9803 62.6525 50.8951 62.6918H50.8623H50.8295H50.7967C50.7115 62.7312 50.7771 62.7312 50.6918 62.6918H50.6591L50.01 62.7443C49.7805 62.7705 48.8232 62.7181 48.7052 62.764H48.6724C48.5872 62.7246 48.6528 62.7246 48.5675 62.764H48.5347H48.502H48.443C48.3512 62.8033 48.4233 62.7705 48.3446 62.7836C48.3381 62.7836 48.2266 62.8099 48.2266 62.8099C48.1414 62.823 48.1479 62.7902 48.0561 62.8295H48.0233C47.9315 62.8689 47.5709 62.8558 47.4464 62.8951C47.3611 62.9213 47.4595 62.9017 47.3939 62.9148C47.3546 62.9213 47.3087 62.9148 47.2693 62.9148L46.9087 62.9541C46.8366 62.9607 46.8628 62.9344 46.7776 62.9738H46.7383C46.653 62.9344 46.7186 62.9344 46.6334 62.9738H46.6006C46.4826 62.9279 46.5678 62.9607 46.5219 62.9672C46.3449 62.9934 46.6006 62.9869 46.4694 62.9803C46.3186 62.9738 46.5285 62.9017 46.3514 62.9738H46.3186C46.2334 62.9344 46.299 62.9344 46.2137 62.9738H46.181C46.0957 62.941 46.0826 62.9607 45.9318 62.941C45.7089 62.9082 45.8531 62.8492 45.7154 62.9017C45.6892 62.882 45.7023 62.882 45.6499 62.8623C45.6433 62.8558 45.6171 62.8558 45.604 62.8492C45.5122 62.8295 45.6433 62.8885 45.4991 62.8295C45.4663 62.8033 45.4991 62.823 45.4335 62.7902C45.4204 62.7836 45.3811 62.7705 45.3614 62.7574H45.3286H45.2958H45.263C45.1713 62.7181 45.2434 62.7509 45.1647 62.7377C45.1581 62.7377 45.0467 62.7115 45.0467 62.7115C44.9614 62.6984 44.968 62.7312 44.8762 62.6918H44.8434H44.8106H44.7779C44.6926 62.6591 44.6598 62.6853 44.5287 62.6197H44.4959H44.4632H44.4304C44.332 62.5804 44.2796 62.6066 44.1878 62.6001C44.1616 62.5935 44.0632 62.5804 44.0173 62.5738C43.919 62.5607 43.9845 62.5869 43.8927 62.5476H43.86C43.7092 62.6066 43.8665 62.5542 43.7616 62.5476L43.5321 62.5607C43.46 62.5607 43.5518 62.5673 43.4797 62.5476C43.4731 62.5476 43.4666 62.541 43.46 62.541L42.765 62.5345C42.5814 62.5607 42.7716 62.6197 42.6142 62.5542H42.5421C42.4437 62.5935 41.6176 62.5804 41.5127 62.6263H41.4799C41.3947 62.6591 41.3619 62.6328 41.2308 62.6984H41.198H41.1652H41.1324C41.0538 62.7312 40.5489 62.7312 40.4571 62.7705H40.4243H40.3916H40.3588H40.326H40.2932H40.2604H40.2276H40.1949H40.1621H40.1293H40.0506H40.0178H39.9851H39.9523H39.9195C39.8343 62.8099 39.8998 62.8099 39.8146 62.7705H39.7818C39.6966 62.8099 39.7621 62.8099 39.6769 62.7705H39.6441C39.5589 62.8099 39.6244 62.8099 39.5392 62.7705H39.5064C39.4212 62.8099 39.4868 62.8099 39.4015 62.7705H39.3687C39.2835 62.8099 39.3491 62.8099 39.2638 62.7705H39.1983C39.113 62.8099 39.1786 62.8099 39.0934 62.7705H39.0606C38.9753 62.8099 39.0409 62.8099 38.9557 62.7705H38.9229C38.8377 62.8099 38.9032 62.8099 38.818 62.7705H38.7852C38.7 62.8099 38.7655 62.8099 38.6803 62.7705H38.6475H38.6147H38.582H38.5492H38.5164H38.4836H38.4508H38.418H38.3459H38.3131H38.2804C38.1951 62.7312 38.2607 62.7312 38.1755 62.7705H38.1427C38.0181 62.7181 37.8148 62.7509 37.605 62.6918L37.31 62.6066C37.2182 62.5869 37.2444 62.5869 37.1854 62.5607H37.1526C37.0871 62.5279 37.0346 62.5214 36.9756 62.4886H36.9428L36.5625 62.3443C36.556 62.3443 36.5494 62.3378 36.5429 62.3378L36.156 62.1739C35.92 62.0559 36.0315 62.1739 35.9528 62.0624C35.8938 62.0362 35.861 62.0296 35.802 61.9969C35.7627 61.9706 35.7495 61.951 35.7036 61.9182H35.6709C35.625 61.8854 35.6446 61.892 35.6119 61.8788C35.3299 61.7477 35.5266 61.8198 35.3561 61.7018H35.3234L34.9693 61.4854H34.9365C34.9038 61.4592 34.9365 61.4789 34.871 61.4461C34.8579 61.4396 34.8185 61.4264 34.7988 61.4133H34.7661H34.7333H34.7005C34.6153 61.3805 33.6187 61.4133 33.4548 61.3412H33.422C33.2581 61.4068 33.4089 61.2756 33.245 61.3412H33.2122C33.1335 61.3084 33.1138 61.3281 33.022 61.315L32.2811 61.2691C32.1631 61.2363 32.2484 61.2822 32.1041 61.2888C32.0451 61.2888 31.9992 61.2888 31.9271 61.2888C31.8746 61.2888 31.8812 61.2822 31.8222 61.2822L31.6583 61.256C31.5534 61.2429 31.4485 61.2691 31.2977 61.2297L31.0092 61.1248C30.9436 61.0724 30.9633 61.0658 30.9502 61.0003C30.9239 60.8822 30.9108 60.8822 30.9239 60.8101C30.9961 60.3971 30.9436 60.6397 30.9567 60.3905L31.0223 60.0561C31.0223 60.0496 31.0223 60.043 31.0288 60.0365C31.0747 59.8529 31.337 59.9184 31.2255 59.6365C31.455 59.6168 31.2911 59.5382 31.4419 59.6037H31.4747H31.5075H31.5403C31.6779 59.6627 31.6648 59.6168 31.7894 59.5316H31.8222L32.2877 59.3152C32.3795 59.1776 32.4188 59.1579 32.5303 59.2103L32.7139 59.3152C32.8319 59.1382 32.7926 59.1185 32.8188 59.0661C32.9696 59.0661 32.963 59.053 33.0679 59.0989H33.1007L33.1728 59.171C33.2515 59.2234 33.2712 59.2693 33.3433 59.2628C33.4679 59.2497 33.5007 59.0595 33.6252 59.0727C33.7432 59.0858 33.6318 59.1185 33.8154 59.1317C33.8875 58.9809 33.7957 58.8497 34.0252 58.8497C34.1956 58.8497 34.1432 58.9153 34.3464 58.9219C34.3858 58.7448 34.3858 58.7317 34.5235 58.6399C34.5956 58.6596 34.5759 58.6465 34.6284 58.6727H34.6612C34.7202 58.712 34.7857 58.7579 34.8316 58.8235L34.9234 59.0202C34.9234 59.0268 34.9234 59.0333 34.93 59.0399L34.9431 59.0727C34.9562 59.0989 34.9824 59.1185 35.0087 59.1448C35.0808 59.2169 35.107 59.2366 35.1595 59.3152C35.2381 59.3677 35.2316 59.4005 35.3103 59.407C35.3627 59.4136 35.402 59.3874 35.4414 59.3152C35.802 59.0727 35.6905 59.289 35.8544 59.4333C35.9987 59.5578 35.8544 59.4267 36.0052 59.4923L36.0446 59.2825V59.2497C36.097 59.1776 36.1888 59.0661 36.2675 59.0071C36.3396 58.9481 36.4249 58.9809 36.5429 59.0333C36.556 58.8891 36.5429 58.9677 36.5757 58.9284C36.3659 58.6203 36.5625 58.7383 36.4708 58.5022L36.5429 58.4629L36.6478 58.358C36.733 58.3777 36.6871 58.3449 36.7461 58.4039C36.8641 58.5153 36.8445 59.0726 36.8445 59.2431L36.8641 59.3611C37.0281 59.3152 36.9363 59.3349 37.0084 59.1841C37.0805 59.1382 37.0805 59.112 37.1395 59.0923C37.1461 59.0923 37.2444 59.0858 37.2444 59.0858C37.3756 59.112 37.3362 59.23 37.3231 59.3546V59.3874H37.3559C37.4542 59.3152 37.3887 59.3677 37.4215 59.2693L37.6247 58.7907C37.6247 58.7842 37.6378 58.7579 37.6444 58.7514C37.7165 58.5809 37.664 58.6334 37.7165 58.5416C37.8542 58.3121 37.6116 58.4629 37.8148 58.3186C37.8739 58.1744 37.8148 58.3121 37.8345 58.2203C37.8345 58.2137 37.8542 58.1613 37.8542 58.1547C37.8542 58.1482 37.8673 58.1416 37.8673 58.1351C37.8673 58.122 37.8804 58.122 37.8804 58.1154C37.9197 58.0105 37.887 57.9974 37.9525 57.899L38.0509 57.6368C38.0902 57.5188 38.0574 57.6368 38.0902 57.545C38.123 57.4532 38.0902 57.5122 38.1164 57.4466C38.1623 57.3417 38.123 57.4597 38.1623 57.3745C38.2082 57.2958 38.1492 57.3024 38.1951 57.2172C38.3197 56.9877 38.182 57.2368 38.2804 56.968L38.3263 56.8041C38.3656 56.6336 38.4574 56.5353 38.4639 56.4697L38.7393 55.4403C38.7721 55.342 38.7131 55.2502 38.7655 55.1322L38.7983 55.0994V55.0666C38.8442 54.9552 38.8049 54.6732 38.818 54.6339C38.8311 54.5814 38.8573 54.588 38.8704 54.4634V54.4306C38.9098 54.3323 38.8704 54.3454 38.8967 54.2602L38.9426 54.1094V54.0766C38.9885 53.9717 38.9491 53.9258 38.9557 53.8209C38.9622 53.6963 38.9491 53.8143 39.0147 53.6963C39.0475 53.6373 39.0278 53.6832 39.0344 53.6242C39.0344 53.6176 39.0344 53.5783 39.0344 53.5717L39.2114 53.0997C39.2638 52.9751 39.2442 53.1128 39.2507 52.9685C39.2704 52.5358 39.2704 52.9226 39.3163 52.5227L39.4474 52.09C39.4933 51.9457 39.395 52.0113 39.513 51.8343V51.8015C39.5589 51.6966 39.513 51.7097 39.5392 51.631C39.572 51.5261 39.5458 51.6507 39.5917 51.5195C39.6507 51.3491 39.5392 51.2573 39.6572 51.0868L39.7162 50.8311C39.7162 50.8246 39.7228 50.818 39.7228 50.8114L39.749 50.6672C39.749 50.3853 39.7228 50.1755 39.7818 49.9198L39.8211 49.7427C39.8146 49.5067 39.9457 48.9428 39.9654 48.8183C39.9785 48.6871 39.9392 48.5757 39.9916 48.4576C40.1096 48.156 39.9851 47.9987 40.0441 47.7889C40.0441 47.7823 40.0572 47.7627 40.0572 47.7561L40.0834 47.6577C40.1686 47.2709 40.0309 47.4545 40.1555 47.1332C40.2276 46.9562 40.1227 46.9431 40.2342 46.7136V46.6808C40.2801 46.5759 40.2342 46.5235 40.267 46.3923C40.2932 46.2743 40.2867 46.3399 40.2867 46.2481C40.2867 46.1825 40.2932 46.1956 40.3063 46.0776V46.0448C40.2276 45.9268 40.2473 45.9465 40.2539 45.8219C40.2539 45.7105 40.2801 45.7367 40.2014 45.6121L40.1293 45.6515H40.0506L39.9457 45.7236L39.8015 45.8678L39.7556 45.8941C39.749 45.8941 39.7425 45.9072 39.7359 45.9072L39.0868 46.4382C39.0803 46.4448 39.0671 46.4514 39.0671 46.4514L38.9885 46.5235C38.9885 46.5235 38.9753 46.53 38.9753 46.5366C38.9688 46.5431 38.9426 46.5563 38.936 46.5628L38.6016 46.7661C38.5229 46.8054 38.5623 46.7923 38.4967 46.8447C38.3918 46.93 38.4705 46.8579 38.3525 46.9103C38.3459 46.9103 38.3197 46.93 38.3131 46.9365L38.2213 46.989C38.2148 46.9955 38.2082 46.9955 38.2017 47.0021C38.1558 47.0349 38.1492 47.048 38.0968 47.0808H38.064L37.9591 47.1529C37.8017 47.2578 37.7689 47.2381 37.664 47.2775L37.5067 47.3562C37.487 47.3627 37.4411 47.3824 37.4215 47.3955L36.7068 47.6446C36.7002 47.6446 36.6806 47.6577 36.674 47.6577C36.6216 47.6709 36.5625 47.6709 36.4708 47.7168H36.438C36.3134 47.7692 36.4052 47.6905 36.2609 47.7889H36.2282H36.1954H36.1626C36.0643 47.8348 36.1167 47.802 36.0249 47.8282C35.8872 47.8676 36.0118 47.8348 35.9069 47.8741C35.8676 47.8872 35.7954 47.8872 35.7036 47.9331H35.6709C35.6577 47.9266 35.6381 47.92 35.6315 47.92C35.625 47.92 35.6184 47.92 35.6119 47.92C35.4807 47.9331 35.4545 47.9725 35.0414 47.9856C34.871 47.9921 34.7267 47.9987 34.5694 48.0708H34.5366L34.4317 48.1429L34.3202 48.2085C34.2743 48.2413 34.2678 48.2544 34.2219 48.2872H34.1498L34.0448 48.3593H34.0121L33.6515 48.5691C33.6056 48.5953 33.599 48.615 33.5531 48.6478H33.5203L33.4154 48.7199H33.3826L32.8516 48.9363H32.8188H32.786H32.7532C32.6024 48.9953 32.386 48.9625 32.2221 48.9625C32.0976 48.9625 32.1959 48.9953 32.0779 48.9363H32.0451L31.9402 48.8642H31.9074C31.8943 48.8576 31.8353 48.8314 31.8353 48.8314C31.7566 48.792 31.8025 48.8183 31.7697 48.792L31.6976 48.7199C31.5796 48.6412 31.6124 48.6543 31.5665 48.5691C31.5534 48.5363 31.573 48.5691 31.5403 48.5167C31.5009 48.4642 31.4616 48.4314 31.4485 48.4052C31.3829 48.2872 31.4812 48.4511 31.4157 48.2872L31.3632 48.156C31.3632 48.1495 31.3501 48.1036 31.3501 48.1036L31.337 48.0708C31.3042 47.979 31.3501 48.1101 31.3239 48.0184L31.2911 47.9331C31.2911 47.9331 31.2846 47.92 31.278 47.92C31.278 47.92 31.2649 47.9135 31.2649 47.9069C31.1665 47.7954 31.0223 47.7233 30.8846 47.6512H30.8059V47.684C30.8322 47.9987 30.8518 47.7495 30.9108 48.1495C30.9239 48.2347 30.9305 48.2478 30.9239 48.2806L30.9043 48.3527C30.9043 48.3593 30.9043 48.3724 30.9043 48.3724C30.8977 48.497 30.9305 48.5035 30.8453 48.5691C30.8059 48.6609 30.8059 48.5822 30.8453 48.674C30.7469 48.6806 30.7666 48.6806 30.701 48.7068L30.5633 48.7855C30.5633 48.7855 30.5043 48.8183 30.4912 48.8248L30.4453 48.851L30.2683 49.0608C30.2617 49.0674 30.2552 49.074 30.2486 49.074C30.2421 49.0805 30.2355 49.0871 30.229 49.0871C30.2224 49.0936 30.2158 49.0936 30.2093 49.1002L30.1503 49.1592C30.1306 49.1723 30.1175 49.192 30.1109 49.1854C30.1109 49.1789 30.0978 49.192 30.0913 49.1985L29.9864 49.2707H29.9536L29.6979 49.3493C29.5995 49.3559 29.593 49.2575 29.4225 49.3428H29.3897H29.3569L29.2258 49.4542C29.2258 49.4542 29.2192 49.4608 29.2127 49.4674C29.1406 49.5657 29.2586 49.4411 29.1668 49.546C29.1275 49.5985 29.1143 49.5985 29.0684 49.6247H29.0357C28.898 49.6903 28.7668 49.6313 28.6423 49.5526C28.6357 49.546 28.6226 49.5395 28.6226 49.5395C28.3079 49.3559 28.3931 49.2575 28.1243 49.074C28.026 49.0084 28.1046 49.0608 28.0325 49.0346L27.9342 48.9822H27.9014L27.8227 48.9363C27.7309 48.9035 27.7703 48.9559 27.6916 48.8379H27.6588C27.6522 48.8314 27.6391 48.8248 27.6326 48.8248L27.4359 48.5035C27.3965 48.4314 27.4555 48.438 27.39 48.2872C27.3441 48.1823 27.3638 48.2872 27.3506 48.1888V47.5528C27.3506 47.4611 27.3572 47.4283 27.2982 47.3496L27.2523 46.7267C27.2261 46.4972 27.2195 46.1956 27.1605 46.1104L27.1212 46.0514C27.1212 46.0514 27.1081 46.0448 27.1081 46.0383L26.9179 45.8482C26.9179 45.8482 26.9114 45.835 26.9048 45.835L26.695 45.5072L26.8327 45.3958L26.9769 45.2515C27.0359 45.1335 27.0163 45.1073 26.9966 44.9565C26.99 44.8975 26.99 44.8516 26.99 44.7794C26.99 44.6877 27.0097 44.5237 26.9704 44.4319V44.3992L26.9114 43.7435C26.8851 43.6452 26.8851 43.6845 26.8655 43.6517C26.872 43.6386 26.8786 43.6189 26.8786 43.6124L26.872 43.573C26.8196 43.3042 26.8786 43.4091 26.813 43.1272L26.7868 43.0551C26.7409 42.9043 26.813 42.9895 26.7474 42.7863C26.7474 42.7797 26.7409 42.7731 26.7409 42.7666L26.7147 42.6945C26.7147 42.6879 26.7081 42.6814 26.7081 42.6748C26.6557 42.5174 26.4721 42.3732 26.3672 42.1109C26.295 41.9274 26.3803 41.9208 26.4065 41.8618C26.4655 41.7307 26.4983 41.2193 26.4852 41.0029C26.4721 40.8062 26.4721 39.5932 26.5376 39.449V39.4162L26.5507 39.1408C26.5573 39.0753 26.5573 39.1015 26.577 39.0031L26.6098 38.8851C26.6229 38.8392 26.6163 38.9114 26.6229 38.8327C26.636 38.7278 26.6098 38.8786 26.6229 38.7802C26.636 38.6884 26.636 38.7474 26.6688 38.6557C26.7606 38.4262 26.7343 38.4721 26.7081 38.4131V38.3803L26.5639 38.236L26.4196 38.0918L26.295 37.8492C26.295 37.8426 26.2885 37.8361 26.2885 37.8361C26.2885 37.8295 26.2819 37.823 26.2819 37.823C26.2754 37.8099 26.2754 37.7771 26.2623 37.7443C26.1442 37.6591 26.236 37.7443 26.2098 37.5935L26.1377 37.2198C26.118 37.1083 26.0131 37.0296 26.0852 36.8592L26.0131 36.8198C26.0721 36.6756 26.0393 36.8264 26 36.7018L26.0131 36.3543C26.2229 36.4527 26.2033 36.315 26.3672 36.5707H26.3999C26.4065 36.5641 26.4196 36.5576 26.4196 36.5576L26.577 36.4658C26.7212 36.4986 26.7212 36.5051 26.8261 36.5707L26.8982 36.6428C26.9048 36.6494 26.9179 36.6559 26.9179 36.6559C26.9245 36.6559 26.9376 36.669 26.9376 36.669L27.0228 36.7543C27.0228 36.7543 27.0359 36.7608 27.0359 36.7674C27.0359 36.7674 27.0425 36.7739 27.049 36.7805L27.1081 36.8395C27.2064 36.9378 27.4162 37.0231 27.5539 37.0886C27.6063 37.1149 27.6326 37.1214 27.6785 37.1411C27.7637 37.2657 27.7899 37.2263 27.8424 37.364L27.9276 37.4361L28.0325 37.3575H28.0653C28.0784 37.3509 28.1374 37.3247 28.1374 37.3247C28.2161 37.2853 28.1702 37.3116 28.203 37.2853C28.2554 37.2526 28.262 37.2394 28.3013 37.2067L28.3931 37.1542C28.3997 37.1411 28.4062 37.1477 28.4128 37.1411L28.7341 36.9247L28.839 36.8526C28.8849 36.8198 28.9045 36.7936 28.9373 36.7805C29.075 36.7084 28.8849 36.8198 29.0094 36.7608C29.0684 36.7346 29.0947 36.6887 29.1602 36.6428H29.193C29.2651 36.5969 29.2651 36.5838 29.3373 36.5379L29.829 36.2822C29.888 36.256 29.9208 36.2494 29.9798 36.2166C30.0191 36.1904 30.0323 36.1707 30.0782 36.138H30.1109C30.2027 36.0789 30.2683 36.0593 30.3601 35.9937L30.642 35.8495L30.9239 35.7052C30.9961 35.6003 30.9305 35.679 31.0026 35.6462C31.0092 35.6462 31.0157 35.6462 31.0223 35.6397C31.1928 35.5741 31.1731 35.561 31.2846 35.4889H31.3173C31.3304 35.4823 31.3895 35.4561 31.3895 35.4561C31.4681 35.4167 31.4222 35.443 31.455 35.4167C31.7501 35.279 31.6976 35.3249 31.9861 35.1348H32.0517C32.15 35.0889 32.2156 35.0889 32.2549 35.0758C32.327 35.0496 32.268 35.0692 32.3402 35.0365C32.386 35.0168 32.3992 35.0168 32.4451 34.9906H32.4778L32.5827 34.9184H32.6155C32.6811 34.8857 32.7335 34.8791 32.7926 34.8463H32.8253C32.8712 34.8201 32.8909 34.8201 32.9499 34.7939C32.9565 34.7939 32.963 34.7873 32.9696 34.7808L33.0089 34.7611C33.0155 34.7611 33.022 34.7545 33.0286 34.7545L33.6449 34.5578C33.6515 34.5513 33.6646 34.5447 33.6711 34.5447C33.6777 34.5447 33.6908 34.5382 33.6974 34.5316L33.8613 34.4857H33.894C33.9596 34.4529 34.0121 34.4464 34.0711 34.4136H34.1039C34.1694 34.3808 34.2219 34.3742 34.2809 34.3415H34.3137C34.3792 34.3087 34.4317 34.3021 34.4907 34.2693H34.5235C34.589 34.2366 34.6415 34.23 34.7005 34.1972H34.7333C34.7988 34.1644 34.8513 34.1579 34.9103 34.1251H34.9431C35.0152 34.0923 35.0546 34.0858 35.1136 34.0726L35.1988 34.0464C35.2053 34.0464 35.2119 34.0399 35.2185 34.0399L35.4742 33.9809H35.5069C35.6315 33.9218 35.6709 33.935 35.7627 33.9153C35.8479 33.8956 35.979 33.8694 36.0446 33.8432H36.0774L36.4642 33.7514C36.556 33.7317 36.5429 33.7317 36.615 33.6989H36.6478C36.6937 33.6793 36.6937 33.6858 36.7265 33.6793C36.7592 33.6727 36.7527 33.6727 36.8183 33.6596C36.9166 33.6399 36.8904 33.6596 36.9691 33.6268H37.0018C37.1461 33.5678 37.0084 33.6268 37.1002 33.6071L37.192 33.5744C37.1985 33.5612 37.2051 33.5612 37.2116 33.5612C37.3756 33.6268 37.1592 33.5481 37.5067 33.5088L38.0509 33.4629C38.1033 33.4563 38.1755 33.4432 38.2148 33.4367C38.3 33.4236 38.2279 33.4498 38.3131 33.417H38.3459C38.4312 33.3777 38.3656 33.3777 38.4508 33.417C38.5623 33.3383 38.9557 33.3318 39.0934 33.2728H39.1261H39.1589L39.2048 33.2465C39.3687 33.1875 39.4015 33.2465 39.513 33.2006H39.5458C39.631 33.1678 39.7425 33.1875 39.867 33.1285H39.8998H39.9326H39.9654C40.09 33.0695 40.2276 33.0826 40.2801 33.0761L40.385 33.0433C40.444 33.0302 40.5686 33.0564 40.7128 32.9908H40.7456C40.8112 32.9646 40.8374 32.9712 40.9554 32.9515L41.5652 32.8466C41.6701 32.781 41.9258 32.8138 42.07 32.7941L42.8437 32.7023H42.8765C42.9617 32.663 42.8961 32.663 42.9814 32.7023H43.0142C43.0666 32.6827 43.2502 32.6564 43.3551 32.6564C43.4731 32.6564 43.5518 32.663 43.6239 32.6302H43.6567C43.7419 32.5909 43.6764 32.5909 43.7616 32.6302H43.7944C43.8862 32.5909 43.8206 32.6171 43.919 32.604C43.9583 32.5974 44.0239 32.5843 44.0632 32.5778C44.1616 32.5646 44.1681 32.5909 44.2599 32.5515H44.2927H44.3255H44.3582H44.391H44.4238C44.4566 32.5384 44.6074 32.5056 44.7123 32.5056C44.8106 32.4991 44.8631 32.5188 44.9549 32.486H44.9877C45.0926 32.4401 45.204 32.4991 45.3811 32.4138H45.4138C45.5384 32.3614 45.5056 32.4729 45.5384 32.3548C45.545 32.3286 45.5253 32.2499 45.5187 32.1647V32.1319C45.4794 32.0467 45.4794 32.1122 45.5187 32.027V31.9942L45.4466 31.8893C45.4729 31.8565 45.4532 31.8893 45.486 31.8238C45.4925 31.8106 45.5056 31.7713 45.5187 31.7516V31.7189C45.5974 31.6008 45.6368 31.6467 45.5909 31.5418C45.6761 31.5418 45.7023 31.5418 45.7745 31.5287C45.8597 31.5156 45.7876 31.5418 45.8728 31.509C45.9253 31.4763 45.7941 31.4763 45.9777 31.4763C45.9253 31.3582 45.9515 31.4566 45.9515 31.3255C45.9515 31.3058 45.9515 31.2402 45.9515 31.1812L46.0695 30.7157C46.1678 30.5518 46.0302 30.6895 46.1416 30.4993L46.2793 30.1387C46.3383 29.9748 46.5088 29.824 46.6465 29.7519L46.7186 29.7191C46.771 29.6929 46.8169 29.6798 46.8694 29.6536H46.9022L47.0071 29.5814H47.0399L47.2169 29.4372C47.2562 29.352 47.289 29.2077 47.348 29.1421C47.3874 29.1028 47.4005 29.1028 47.4333 29.0831L47.4791 29.0569C47.4857 29.0569 47.4923 29.0438 47.4988 29.0438C47.7742 28.8078 47.6824 28.9913 47.9381 28.8733H47.9709H48.0037H48.0365H48.0692H48.102C48.1938 28.834 48.1151 28.834 48.2069 28.8733L48.161 28.7225C48.161 28.716 48.1545 28.7094 48.1545 28.7029L48.1348 28.2308H48.1676C48.2069 28.2046 48.22 28.1849 48.2463 28.1718L48.5675 27.9554C48.5675 27.9554 48.5741 27.9489 48.5806 27.9423C48.5806 27.9423 48.5872 27.9357 48.5938 27.9292L48.9413 27.4243C49.0068 27.2801 48.9478 27.5161 49.0789 27.1752C49.0789 27.1686 49.0855 27.1621 49.0855 27.1621L49.2166 26.9654C49.2166 26.9588 49.2232 26.9523 49.2232 26.9457L49.4068 26.6638C49.5969 26.4671 49.4002 26.4999 49.5576 26.3884C49.61 26.3097 49.6559 26.2704 49.728 26.2048C49.9182 26.0212 49.8198 26.0803 49.8919 26.0016L49.9313 25.9688C49.9378 25.9622 49.951 25.9491 49.9575 25.9426L50.1018 25.7459L50.1739 25.7131C50.1214 25.5885 50.187 25.6147 50.1411 25.5295C50.0624 25.3787 50.0296 25.3918 50.187 25.123C50.187 25.1164 50.2001 25.1099 50.2001 25.1033L50.2329 25.0312C50.2853 24.9066 50.2919 24.9853 50.305 24.8739C50.3116 24.8083 50.2919 24.8411 50.3181 24.7821C50.4296 24.5723 50.3181 24.7099 50.4689 24.369L50.4951 24.3231C50.5869 24.1461 50.6918 23.9559 50.7771 23.8969C50.8099 23.8445 50.8361 23.8314 50.8558 23.7789L51.1049 23.4052C51.177 23.3068 51.2229 23.3265 51.2885 23.1888C51.2885 23.1823 51.295 23.1757 51.295 23.1757L51.4262 22.8807C51.459 22.7627 51.4262 22.9003 51.4327 22.7823C51.4393 22.625 51.4917 22.7495 51.5114 22.6053C51.518 22.5791 51.5048 22.5463 51.5114 22.5135L51.5639 22.402C51.6032 22.3103 51.5704 22.343 51.577 22.2709L51.9573 21.1301C51.9573 21.1301 52.0031 21.0842 52.0097 21.0776C52.1998 20.894 52.0884 20.9531 52.1671 20.7695C52.1671 20.7629 52.1736 20.7564 52.1802 20.7498C52.1933 20.7236 52.1998 20.7105 52.2064 20.6777C52.2588 20.4875 52.2851 20.5138 52.3769 20.3433C52.4293 20.3105 52.4621 20.2974 52.4949 20.2253C52.5408 20.1335 52.4359 20.2122 52.5539 20.1269L52.626 20.0548L52.7047 19.9368C52.7047 19.9302 52.7113 19.9237 52.7113 19.9171L52.7637 19.8319C52.8489 19.727 52.8883 19.727 52.9276 19.6286L52.9407 19.5959C52.9407 19.5893 52.9473 19.5827 52.9473 19.5762C52.9866 19.5041 52.9473 19.5959 52.9866 19.5237C53.0194 19.4647 52.9997 19.5106 53.0063 19.4516L52.9145 18.9468C52.7244 18.8091 52.967 18.973 52.8162 18.796L52.7113 18.6583L52.7047 18.6452L52.6457 18.5862C52.6457 18.5862 52.6391 18.5796 52.6326 18.573L52.5801 18.5075C52.567 18.4878 52.5932 18.4944 52.5277 18.4485L52.3834 18.3042L52.2392 18.1272C52.0687 18.1403 52.1802 18.16 52.0228 18.1272C52.0228 18.1206 52.0163 18.1141 52.0163 18.1141L51.9376 17.9567C51.8982 17.8715 51.813 17.7666 51.8786 17.6814L51.9179 17.6486C51.9769 17.5764 51.9048 17.5896 52.0622 17.4847C52.0228 17.4191 51.9835 17.3994 51.9507 17.3535L51.8655 16.9995C51.8655 16.9405 51.8589 16.8224 51.8655 16.7831L51.9573 16.5602C51.8523 16.5536 51.9048 16.5536 51.8458 16.534L51.6753 16.4553C51.7474 16.3045 51.7147 16.2914 51.7343 16.252C51.7474 16.2127 51.8261 16.1471 51.8655 16.1143C52.0949 15.8914 51.9769 16.0094 52.0228 15.8324L52.0884 15.5111C52.0884 15.5046 52.0949 15.4849 52.0949 15.4784L52.0753 15.2554L51.7081 15.1637C51.6098 15.144 51.459 15.1374 51.3934 15.1112H51.3606C51.2557 15.0653 51.1836 15.1046 51.0721 15.0784C50.9541 15.0522 51.0525 15.0587 50.9475 15.0587C50.8558 15.0587 50.9344 15.085 50.8361 15.0391H50.8033C50.7181 15.0784 50.7836 15.0784 50.6984 15.0391H50.6656C50.5804 15.0784 50.6459 15.0784 50.5607 15.0391H50.5279H50.4951H50.4624H50.4296H50.3968H50.364C50.305 14.8883 50.3902 15.0456 50.3312 14.8948C50.5148 14.8948 50.3902 14.8948 50.4361 14.8621C50.5083 14.8162 50.4886 14.8227 50.5476 14.7637C50.6328 14.685 50.5869 14.7244 50.6787 14.6785C50.7836 14.6195 50.7967 14.5736 50.8951 14.508H50.9279C51.2098 14.3179 50.9934 14.4883 51.2491 14.3638H51.2819C52.0163 14.0097 52.3703 14.2654 52.4818 14.2326C52.4818 14.2326 52.5277 14.213 52.5342 14.213C52.5408 14.213 52.5604 14.2064 52.567 14.2064C52.6588 14.1736 52.7113 14.0425 52.744 13.9638L52.9014 13.6229C52.9079 13.6163 52.9211 13.5966 52.9211 13.5901C52.9735 13.4983 52.9473 13.5835 52.967 13.4983C53.0194 13.2754 53.0391 13.3409 53.0981 13.177C53.1374 13.0787 53.0915 13.0721 53.2358 13.0197C53.2882 13.0262 53.3669 13.0066 53.439 13ZM74.3609 62.482H74.3281L74.3609 62.4427V62.482Z" fill="white" fill-opacity="0.85"/>
</svg>
