<svg width="100" height="80" viewBox="0 0 100 80" fill="none" xmlns="http://www.w3.org/2000/svg">
<path fill-rule="evenodd" clip-rule="evenodd" d="M35.7093 27.0739V27.1207H35.6624V27.0739H35.7093ZM55.5979 29.2544C55.6565 29.3013 55.5041 29.3013 55.7327 29.3013L55.1524 30.0633C55.0996 30.1336 55.1172 30.1102 55.0586 30.1747C54.9004 30.3681 55.041 30.2333 54.9414 30.3798C54.8593 30.4971 54.8007 30.4912 54.7069 30.6495L54.238 31.2649C54.0445 31.476 54.2614 31.3001 54.1032 31.4936L53.8452 31.8335C53.7104 32.0328 53.7222 31.8746 53.517 32.3083L53.4818 32.3787C53.4818 32.3845 53.4701 32.3962 53.4701 32.4021L53.4174 32.5135C53.306 32.7128 53.2474 32.6131 53.1829 32.8886C53.0363 32.8769 53.0774 32.9941 52.9777 32.49L52.8957 32.3083C52.7784 32.068 52.837 32.1383 52.6671 32.0035C52.4619 31.8394 52.544 31.8628 52.3798 31.8042C52.2802 31.769 52.3329 31.7925 52.286 31.7808C52.2098 31.7573 52.2743 31.7925 52.1864 31.7515L52.0106 31.6518C51.9402 31.6166 51.8875 31.5991 51.823 31.5698H51.7761L51.6764 31.517C51.6647 31.5111 51.6413 31.5053 51.6295 31.4994L51.4596 31.388C51.3716 31.2532 51.2485 31.1301 51.3072 30.8957L51.4068 30.6729C51.4068 30.6671 51.4127 30.6553 51.4185 30.6495C51.6413 30.1805 51.7409 30.5322 51.8288 29.9519C51.8875 29.5475 51.8054 29.6061 51.5475 29.483H51.5006C51.1547 29.3423 50.3341 29.2368 49.9472 29.4302C49.8359 29.483 49.789 29.5123 49.6717 29.5651C49.5486 29.6237 49.4783 29.653 49.408 29.7526V29.7995C49.5604 30.1688 49.2732 29.864 49.8535 30.4443C49.9003 30.4912 49.8828 30.4678 49.9179 30.5147C49.9766 30.5909 49.9648 30.585 49.9766 30.6026C50.0996 30.8136 50.0645 30.7667 50.0645 31.1067L50.0293 31.9508C49.9883 32.2145 49.6952 31.9156 49.2673 32.1208H49.2204C49.1676 32.1442 49.1501 32.1501 49.0914 32.1735C49.027 32.2028 49.0387 32.2028 48.9683 32.2321C48.7866 32.3083 48.8452 32.2438 48.7222 32.2966H48.6753C48.4173 32.4021 48.6342 32.1032 47.8429 32.1501L46.905 32.2966H46.8581C46.7409 32.3728 46.653 32.4021 46.5416 32.4783H46.4947C46.3599 32.5721 46.3599 32.5604 46.2368 32.5487C45.9496 32.5252 45.8675 32.4783 45.7268 32.449C45.6682 32.4373 45.5862 32.4256 45.5158 32.4138C45.34 32.3728 45.3107 32.3845 45.1758 32.2966L45.0879 32.1618C45.2755 32.0328 45.1583 32.1383 45.3165 32.068H45.3634C45.4631 32.027 45.6741 32.027 45.7737 32.068H45.8206H45.8675H45.9144C46.0375 32.1207 46.4596 32.1325 46.6471 32.0973C46.7585 32.0797 46.694 32.1032 46.823 32.0211L46.7292 31.9273L46.1841 31.7456H46.1372C45.9672 31.6635 45.7796 31.6518 45.6096 31.6225C45.6038 31.6225 45.5158 31.6049 45.51 31.5991L45.4103 31.558C45.6037 31.476 46.1196 31.5932 46.3189 31.5111C46.2544 31.4115 46.1958 31.3529 46.0961 31.2767L45.8675 31.1008L45.7796 31.0129C45.6858 30.9543 45.6272 30.8605 45.5569 30.8253C45.4631 30.7726 45.3458 30.8019 45.2814 30.8312H45.2462C45.1407 30.8839 45.2462 30.8488 45.1172 30.8605C45.0469 30.8664 45.0645 30.8605 44.9531 30.8664C44.8066 30.8781 44.7128 30.8957 44.6542 30.9191H44.6073C44.5076 30.966 44.4138 31.0012 44.3259 31.0481C44.2087 31.1067 44.1266 31.136 44.0152 31.1946L43.9156 31.0657C44.0211 30.9953 44.0035 30.9777 44.1149 30.9308L44.789 30.6964H44.8359L45.3341 30.5147C45.422 30.456 45.4455 30.5088 45.4689 30.245C45.2814 30.3212 45.4748 30.2098 45.2872 30.2919H45.2462L44.8828 30.3388C44.9824 30.1923 44.9297 30.2743 44.9648 30.1688L44.9941 30.0809C45.0528 29.9461 45.1407 29.8992 45.2169 29.8054C45.381 29.6002 45.2052 29.823 45.2931 29.612C45.4396 29.5064 45.3224 29.3892 45.6917 29.1958C45.9203 29.0727 46.2427 29.0492 46.5182 29.0258L47.0926 28.9496C47.2802 28.9203 47.3388 28.932 47.4267 28.891H47.4736H47.5205H47.5674L47.9132 28.7796C48.1536 28.68 48.1946 28.7679 48.3411 28.7093H48.388H48.4349H48.4818L50.3458 28.5275H50.3927H50.4396H50.4865C50.6155 28.4631 50.6741 28.4982 50.803 28.4396H50.8499C50.9789 28.3751 51.0375 28.4103 51.1665 28.3517H51.2134L51.8347 28.1524C52.1043 28.0879 52.1219 28.1348 52.4853 28C52.6788 27.9297 52.7198 27.959 52.9367 27.8066C53.0188 27.7655 53.0832 27.7538 53.1653 27.7128H53.2122C53.2708 27.6835 53.2943 27.6776 53.3705 27.6424C53.4877 27.5897 53.3998 27.619 53.4994 27.5955C53.5991 27.5721 53.728 27.5604 53.8042 27.5311H53.8511C53.8746 27.5193 53.9273 27.5018 53.9449 27.49C54.027 27.449 53.9859 27.4725 54.0328 27.4373C54.1325 27.4783 54.0621 27.4549 54.1383 27.4373C54.1618 27.4314 54.1794 27.4197 54.2673 27.3962C54.4431 27.3494 54.4256 27.3904 54.5369 27.3435H54.5838C54.7538 27.2614 54.7948 27.2966 54.9003 27.2556H54.9472V27.3025L54.9238 27.7655C54.9121 27.9004 54.8886 28.0879 54.9297 28.2696L55.1172 28.5862C55.1641 28.6331 55.1934 28.6506 55.2286 28.7034C55.2755 28.7562 55.2989 28.803 55.2989 28.8089L55.3634 28.891C55.4865 29.061 55.4982 29.0844 55.4455 29.2134C55.5569 29.2192 55.5041 29.2075 55.5979 29.2544ZM44.5604 28.1172C44.5252 28.1817 44.5369 28.1641 44.5135 28.2521L44.8183 28.5803L44.5135 29.2075C44.2556 29.3951 44.6366 29.2016 44.3787 29.3892C44.2849 29.5299 44.1852 29.5768 44.0914 29.7468C43.9742 29.9578 43.9625 29.8875 43.8511 30.0399C43.8453 30.0457 43.8394 30.0574 43.8394 30.0633L43.8159 30.1102C43.8042 30.1278 43.9449 30.1278 43.728 30.1805C43.517 30.2274 43.2005 30.0633 42.9015 30.2333L42.8253 30.2978C42.7608 30.3798 42.8195 30.374 42.6553 30.4853H42.6084H42.5615H42.5147C42.3798 30.4209 42.2743 30.3798 42.1454 30.3036L42.0457 30.245C42.0399 30.245 42.0281 30.2392 42.0223 30.2333C42.0164 30.2333 42.0047 30.2274 41.9988 30.2216L41.8288 30.1102H41.7819L41.5533 29.9285L41.2837 29.7468C41.4244 29.5416 41.3951 29.6178 41.6002 29.5182L41.9637 29.3365H42.0105L42.7843 28.8851H42.8312L43.0188 28.7562C43.0246 28.7503 43.0422 28.7444 43.0481 28.7386C43.0539 28.7327 43.0715 28.7268 43.0774 28.721C43.0832 28.7151 43.095 28.7093 43.1067 28.7034L43.9097 28.2403C43.9156 28.2345 43.9215 28.2286 43.9273 28.2227L44.1501 28.0645H44.1969C44.3083 27.9883 44.3552 27.9179 44.4666 27.83C44.4725 27.8242 44.5252 27.789 44.5486 27.7714L44.7948 27.6073L45.0645 27.4314C45.1641 27.3904 45.1465 27.3669 45.211 27.4666C45.3048 27.6073 45.2345 27.6542 45.2931 27.789C45.1524 27.8007 45.0293 27.8476 44.9062 27.9004L44.5604 28.1172ZM61.5944 31.0246L61.6061 31.0363C61.6061 31.0363 61.5885 31.0305 61.5944 31.0246ZM50.0586 33.1114L49.7479 33.2052C49.6717 33.2169 49.8124 33.2696 49.6483 33.1993C49.5428 33.2696 49.408 33.2696 49.2497 33.2696C49.0856 33.2696 49.109 33.2638 48.8746 33.2462C48.9215 33.129 48.8746 33 48.9215 32.8828L49.1442 32.6307C49.1501 32.6249 49.1676 32.6073 49.1735 32.6014C49.1794 32.5955 49.1852 32.5897 49.1911 32.5838C49.1969 32.578 49.2087 32.5721 49.2087 32.5662L49.2556 32.5311C49.2614 32.5252 49.2732 32.5193 49.279 32.5135L49.4138 32.4256L49.7773 32.2438H49.8241C49.9062 32.2028 49.8828 32.2087 50.0059 32.197L50.0586 33.1114ZM79.3494 43.6917C79.8886 43.9496 79.9062 44.1254 80.2931 44.3013C80.299 44.3013 80.3107 44.3071 80.3165 44.3071L80.5158 44.4302C80.8499 44.6589 80.8382 44.7409 81.0317 44.8699L81.2134 45.0516L81.3072 45.1395C81.3189 45.1454 81.3306 45.1395 81.3365 45.1571C81.3599 45.2274 81.3247 45.1278 81.4771 45.245C81.6178 45.3505 81.653 45.4326 81.7233 45.5264C81.7233 45.5322 81.7351 45.5381 81.7351 45.544L81.9754 45.8839C81.9812 45.8898 81.993 45.9015 81.9988 45.9015L82.6729 47.5487V47.5955C82.8195 47.959 82.6729 47.6893 82.925 48.2052C83.1243 48.6155 82.7784 48.5569 82.626 48.5451H82.5791C82.3447 48.5275 82.4678 48.4982 82.2392 48.34C82.2333 48.3341 82.2216 48.3283 82.2098 48.3224C82.204 48.3165 82.1864 48.3107 82.1805 48.3048L82.1219 48.2696C82.075 48.2462 82.0106 48.2286 81.9637 48.1993C81.8816 48.1524 81.8757 48.1348 81.8054 48.0879L81.6061 47.9238C81.6002 47.9179 81.5827 47.9121 81.5768 47.9062L81.4889 47.8124L81.3951 47.7245L81.3013 47.6307C81.1723 47.5369 81.2368 47.5545 81.2192 47.5369C81.2192 47.5311 81.2075 47.5252 81.2075 47.5193L80.8617 47.1442C80.7855 47.0328 80.7268 46.9742 80.6213 46.9039L80.4865 46.8101C80.3048 46.687 80.1465 46.5522 80.1231 46.2649C79.9941 46.0774 80.211 46.3001 79.9121 45.8898L79.8652 45.8019C79.8652 45.796 79.8593 45.7843 79.8535 45.7784C79.7245 45.5147 79.7362 45.2743 79.6131 45.0281C79.5604 44.9226 79.6249 45.0692 79.5838 44.9637C79.49 44.7116 79.5838 44.6706 79.4256 44.1313C79.3552 43.8968 79.2849 43.8558 79.3494 43.6917ZM84.6659 51.1829L84.6776 51.1946C84.6776 51.1946 84.66 51.1829 84.6659 51.1829ZM56.9168 56.5815C57.0457 56.6753 56.9402 56.5639 57.0106 56.728L57.0985 57.1266C57.1454 57.1794 57.1454 57.0445 57.1454 57.2614V57.3083C57.204 57.4431 57.1454 57.4197 57.1805 57.5604L57.2802 57.8535C57.4033 57.9414 57.2978 57.8945 57.3857 58.0234C57.5264 58.2286 57.7608 58.2755 57.5967 58.6272C57.5029 58.6975 57.5264 58.6858 57.5264 58.7737C57.5147 59.0258 57.5205 59.1254 57.6084 59.3658L57.7257 59.7057C57.7257 59.7116 57.7315 59.7233 57.7374 59.7292C57.7901 59.8699 57.8605 60.0868 57.9191 60.2157C57.7433 60.2333 57.8429 60.2157 57.7081 60.2802C57.4326 60.4209 57.6436 60.456 57.3271 60.6671C57.2802 60.5967 57.2333 60.5381 57.1864 60.4678C57.1864 60.4619 57.1747 60.4502 57.1747 60.4502L57.1512 60.4091C57.1454 60.4033 57.1395 60.3916 57.1395 60.3916C56.8581 59.993 57.0692 60.0457 56.9695 59.8054V59.7585L56.905 59.5416C56.8757 59.4127 56.9578 59.3951 56.8288 59.2016L56.7409 59.1137C56.5768 58.9906 56.6295 59.0199 56.6295 58.68C56.6295 58.5217 56.6178 58.4631 56.6413 58.2931C56.7409 57.5955 56.6178 57.109 56.6589 56.728C56.6706 56.6166 56.6647 56.6284 56.7057 56.5229C56.7351 56.4291 56.7057 56.4408 56.8347 56.3529C56.9519 56.5463 56.8523 56.4232 56.9168 56.5815ZM82.8488 58.4455L82.7608 58.3517C82.9074 58.381 82.8195 58.2931 82.8488 58.4455ZM55.9437 13H56.4361C56.6471 13.0117 56.823 13.0293 56.8699 13.0469H56.9168C56.9988 13.0879 57.0633 13.0996 57.1454 13.1348H57.1923C57.3154 13.1876 57.245 13.1348 57.4091 13.1934C57.6202 13.2696 57.415 13.2989 57.5967 13.2286C57.6964 13.3693 57.6084 13.2755 57.755 13.3107C58.0422 13.381 58.095 13.4396 58.3236 13.592L58.4174 13.68C58.5404 13.8675 58.4818 13.6975 58.476 13.8734C58.4701 14.1723 58.3939 14.7644 58.4818 14.9285C58.5698 15.0868 58.6342 15.034 58.7808 15.1336H58.8277C59.4607 15.4385 59.7421 15.4326 59.871 15.4971H59.9179L60.4572 15.7374C60.4631 15.7433 60.4982 15.7608 60.51 15.7667H60.5569C60.6917 15.8546 60.6506 15.8136 60.7268 15.8488C60.7972 15.8839 60.8089 15.9015 60.8734 15.9484L60.9906 16.0129C61.0375 16.0422 61.0668 16.0598 61.102 16.0832C61.0141 16.2415 61.0258 16.2474 60.8617 16.2884C60.8206 16.3001 60.7679 16.3118 60.6917 16.3411L60.6155 16.3705C60.2227 16.4936 59.5486 16.4994 59.2028 16.5053C59.0035 16.5053 58.7456 16.4936 58.6518 16.5346H58.6049H58.5522L58.4349 16.8159C58.1946 17.5897 58.4349 17.5897 58.687 17.7597H58.7339C59.027 17.959 58.9566 17.8886 59.2145 18.2286L59.5018 18.5803L59.5955 18.6682L60.3107 19.4947C60.4103 19.6002 60.4689 19.6413 60.551 19.7585L60.9144 20.1219C61.143 20.2743 61.0785 20.374 61.2309 20.4853C61.3365 20.6377 61.4478 20.6846 61.612 21.0188L61.6999 21.2005C61.7526 21.3939 61.5885 21.2591 61.7761 21.3939C61.7878 21.517 61.7937 21.5698 61.8113 21.6108C61.8523 21.728 61.8288 21.5932 61.8757 21.7749C61.9226 21.9625 61.823 21.8687 61.9578 22.0739V22.1208C61.9812 22.1735 62.0223 22.7597 62.1512 22.9941C62.1512 23 62.163 23.0117 62.163 23.0176L62.2978 23.1993C62.3447 23.2638 62.3564 23.2521 62.3974 23.3165L62.5322 24.9754C62.5557 25.3154 62.7022 25.9074 62.7022 26.3998C62.7022 26.6166 62.755 26.4642 62.7726 26.7046V26.7515L62.8898 27.8769C62.9074 28.1407 62.9308 27.9004 62.9543 28.1583V28.2052C63.1536 28.6917 62.6612 29.0785 62.5498 29.2251L62.3212 29.5182L62.1395 29.6999C62.034 29.7761 62.0926 29.7526 62.075 29.7761C61.7702 30.2274 61.5064 30.1923 61.6178 30.8195C61.6413 30.9543 61.6471 30.8546 61.6999 31.0363C61.7409 31.1887 61.6764 31.177 61.7351 31.3646L61.7761 33.0586C62.034 33.0821 61.9754 33.0821 62.2274 33.1055H62.2743C62.3974 33.1583 62.7608 33.129 62.9015 33.129C63.0539 33.129 63.3763 33.1583 63.5053 33.1055H63.5522C63.6577 33.0586 63.8042 33.0938 63.9625 33.0117H64.0094C64.32 32.9883 64.3259 32.9883 64.5897 32.9824L66.0375 32.9883C66.1665 32.9883 66.1313 32.9941 66.3247 33.0117H66.3716C66.483 33.0586 66.3951 33.0586 66.5064 33.0117H66.5533C66.6354 33.0469 67.0399 33.1055 67.2333 33.0117H67.2802C67.3916 33.0586 67.3036 33.0586 67.415 33.0117H67.4619C67.7198 32.9883 67.6553 32.9883 67.9191 32.9707C68.1653 32.9531 68.2591 32.9531 68.4056 32.9472C68.5053 32.9414 69.0797 32.9472 69.238 33.0117H69.2849C69.4138 33.0645 69.2438 32.9941 69.3845 33.041L69.4314 33.0586C69.4373 33.0586 69.449 33.0645 69.4549 33.0645L69.9648 33.1934L70.9027 33.5275C70.9848 33.5569 71.0492 33.5744 71.1079 33.5979L71.4185 33.7386H71.4654C71.5475 33.7796 71.612 33.7913 71.694 33.8265H71.7409C71.823 33.8675 71.8875 33.8792 71.9695 33.9203L72.163 34.0023C72.2509 34.0434 72.2685 34.061 72.3329 34.102H72.3798C72.456 34.1372 72.5205 34.1606 72.6026 34.2016C72.6612 34.2309 72.7374 34.2661 72.8019 34.2954C73.0832 34.4009 72.966 34.442 73.0188 34.5592C73.2122 34.6413 73.3118 34.5064 73.6108 34.653H73.6577L74.027 34.8288C74.0797 34.8581 74.1559 34.8933 74.2087 34.9168C74.2263 34.9285 74.2849 34.9578 74.2966 34.9637L74.3845 35.0164C74.4666 35.075 74.5428 35.0985 74.6131 35.1454C74.6952 35.1981 74.7069 35.2274 74.789 35.286C74.7948 35.2919 74.8124 35.2978 74.8124 35.3036L75.0059 35.4971C75.0059 35.4912 75.0117 35.5088 75.0176 35.5147L75.4279 35.3798H75.4748C75.5627 35.3447 75.8851 35.3095 75.9672 35.3095C76.1196 35.3095 76.1606 35.2802 76.3658 35.3505C76.823 35.4971 77.1805 35.4033 77.3388 35.4736H77.3857C77.4971 35.5205 77.4091 35.5205 77.5205 35.4736H77.5674C77.7433 35.5498 77.8664 35.4267 78.1594 35.5615H78.2063C78.3001 35.6026 78.2767 35.5791 78.3939 35.6026L78.7104 35.6905C78.9156 35.755 78.8277 35.7374 78.9801 35.837H79.027C79.1559 35.9191 79.2497 36.0246 79.3552 36.1477L79.449 36.2825C79.5545 36.4701 79.5662 36.3646 79.6893 36.4818L79.7479 36.5932C79.7479 36.5991 79.7538 36.6108 79.7597 36.6166C79.7948 36.6811 79.7597 36.6166 79.8066 36.6928C80.0352 37.0504 79.7948 36.8863 79.9824 37.0152L80.17 37.3435C80.17 37.3494 80.1758 37.3611 80.1817 37.3669C80.1817 37.3728 80.1876 37.3845 80.1934 37.3904L80.5275 38.4103C80.5275 38.4162 80.5334 38.4279 80.5393 38.4338L81.0844 39.6178C81.1196 39.7116 81.0668 39.6882 81.1372 39.823L81.4654 40.9132C81.4596 41.2122 81.5006 40.9484 81.5533 41.2063C81.5826 41.3294 81.5358 41.1419 81.5592 41.2708L81.6471 41.5404C81.7351 41.8042 81.9871 42.2263 82.1102 42.4724C82.1102 42.4783 82.1161 42.49 82.1219 42.4959L82.3798 43.0176C82.415 43.0821 82.3564 42.9883 82.415 43.0879C82.4209 43.0996 82.4443 43.129 82.4502 43.1348L82.8077 43.7679L84.1676 44.823L84.9824 45.456L85.1172 45.544C85.211 45.6084 85.2696 45.6729 85.3751 45.7433C85.4338 45.7843 85.4455 45.7901 85.5158 45.8312C85.5686 45.8664 85.5627 45.8722 85.6213 45.9074L85.7151 46.0012L85.8499 46.0891L86.1079 46.2767C86.3013 46.4291 86.3306 46.4115 86.4654 46.646L86.8406 47.1149C86.8875 47.1676 86.8347 47.1325 86.8933 47.1735L87.0047 47.4314C87.1278 47.8652 87.1278 47.7304 87.245 47.9941L87.4795 48.4455C87.6026 48.5334 87.5147 48.4807 87.544 48.5275L87.626 48.6858C87.626 48.6917 87.6319 48.7034 87.6377 48.7093C87.7433 48.9261 87.8781 49.2778 87.8077 49.524L87.7257 49.6823C87.7198 49.6882 87.714 49.694 87.7081 49.6999C87.6084 49.7819 87.4443 49.7409 87.3036 49.6764L86.7878 49.2368C86.6354 49.1196 86.6706 49.2192 86.6471 49.1489C86.6413 49.1372 86.6295 49.1372 86.6178 49.1313L86.524 49.0434L86.3423 48.8617L86.1137 48.68C86.1078 48.6741 86.0903 48.6682 86.0903 48.6624L85.1172 47.7714C85.0586 47.9121 85.0586 47.8124 85.1934 47.9648L85.2872 48.1231C85.3869 48.3107 85.3869 48.1583 85.5627 48.4865C85.6096 48.5803 85.6506 48.592 85.7034 48.6682L85.9203 48.9613C86.1899 49.272 86.1958 49.4771 86.8171 49.7937C86.864 49.8171 86.9168 49.8406 86.9402 49.8523C87.0457 49.9109 86.9812 49.8757 87.0516 49.9168L87.1688 49.9754C87.1747 49.9754 87.1864 49.9812 87.1923 49.9871L87.6143 50.2685C87.9953 50.5322 88.857 51.3822 89.0035 51.6401C89.0387 51.6987 88.9273 51.6225 89.0621 51.7222C89.109 51.8335 89.109 51.7456 89.0621 51.857L88.4115 52.0387C88.2943 52.0739 88.0363 52.0856 87.925 52.0387H87.8781H87.8312C87.8195 52.0328 87.8077 52.027 87.8019 52.0211L87.7433 51.9859C87.7374 51.9801 87.6729 51.9508 87.6612 51.9449C87.4736 51.8687 87.3036 51.9039 87.1923 51.857H87.1454C86.9637 51.7691 86.905 51.7749 86.7292 51.6401L86.3775 51.3998C86.3306 51.4291 86.3775 51.4056 86.2896 51.4525C86.272 51.4584 86.2192 51.4818 86.1958 51.4936H86.1489L85.6507 51.6753H85.6038C85.4865 51.6284 85.5275 51.6753 85.3458 51.6166C85.1876 51.5639 85.211 51.5698 85.0996 51.4936L84.9883 51.4232C84.7304 51.2474 84.9297 51.2825 84.6952 51.2649L85.2403 51.8746C85.3517 51.9801 85.1758 51.8277 85.2872 51.9156C85.3224 51.9449 85.3107 51.9273 85.3517 51.9625C85.4396 52.0328 85.3927 51.9742 85.4631 52.0797C85.6917 52.2321 86.1548 52.7479 86.3834 52.9766L86.8581 53.4924C86.8581 53.4924 86.8699 53.5041 86.8757 53.51C86.8816 53.51 86.8875 53.5217 86.8933 53.5275C86.8992 53.5334 86.9168 53.551 86.9226 53.5569C86.9402 53.5744 86.9519 53.5862 86.9637 53.6038C87.0809 53.7444 86.8875 53.5979 87.0574 53.7151C87.163 53.8675 87.2978 53.973 87.4326 54.1137C87.8019 54.4771 87.7081 54.5299 88.0246 54.6823C88.1946 54.7644 88.3822 54.7644 88.6928 54.7644L88.7104 54.7995C88.7104 54.7995 88.7222 54.8113 88.7222 54.8171L88.8746 54.993L89.0563 55.1747L89.1911 55.2626L89.279 55.3564C89.4021 55.4384 89.3787 55.4326 89.4431 55.5264C89.5545 55.6905 89.7069 55.9367 89.6424 56.0832V56.1301C89.7948 56.3587 89.6424 56.2708 89.7421 56.4408C89.8359 56.5932 89.9707 56.6049 90.1348 56.5991C90.3283 56.5932 90.8851 56.558 91.0492 56.6284H91.0961C91.1782 56.6694 91.2427 56.6811 91.3247 56.7222H91.3716C91.442 56.7573 91.4889 56.7632 91.5592 56.8101C91.612 56.8453 91.6295 56.8628 91.6882 56.9039H91.7351C91.8523 56.9859 91.9402 57.0797 92.0457 57.1852L92.3271 57.619C92.415 57.8945 92.5205 57.9941 92.5557 58.1876V58.4572C92.5498 58.4807 92.5498 58.51 92.544 58.5393C92.4736 58.9555 91.7878 59.0551 91.6471 59.1196H91.6002C91.4947 59.1665 91.5358 59.1313 91.4009 59.1547C91.2192 59.1899 91.2896 59.1841 91.1782 59.2192C91.102 59.2427 90.8968 59.272 90.8265 59.3013H90.7796C90.5979 59.3775 89.8535 59.3892 89.6424 59.3013H89.5955L89.3787 59.1723C89.3728 59.1723 89.3611 59.1665 89.3552 59.1606L88.9156 58.8441H88.8687C88.687 58.7562 88.1712 58.8148 87.9953 58.7737L87.837 58.6975C87.8312 58.6917 87.8136 58.6917 87.8077 58.68C87.8019 58.6682 87.7902 58.6682 87.7784 58.6624C87.4209 58.4924 87.5088 58.5158 87.245 58.2403C86.9812 57.9648 86.9871 58.041 86.8699 57.7538L86.5768 57.3494C86.5709 57.3435 86.5592 57.3376 86.5592 57.3318C86.5533 57.3259 86.5416 57.32 86.5358 57.3142C86.4185 57.2204 86.2485 57.1032 86.1782 56.9683L86.0023 56.5991C86.0023 56.5932 85.9965 56.5815 85.9906 56.5756C85.9144 56.347 86.0844 56.5932 85.9261 56.3705L85.1524 55.3798C85.1524 55.374 85.1407 55.3681 85.1407 55.3623L84.7773 54.8464C84.7714 54.8347 84.748 54.8113 84.7421 54.7995L84.6893 54.6589C84.5662 54.5709 84.6542 54.6178 84.5956 54.5123L84.4021 54.2544C84.2263 54.0961 84.1676 54.0961 84.0094 54.0258C83.939 53.9789 84.1149 53.9789 83.8746 53.9789C83.9097 54.0551 83.9273 54.1196 83.9625 54.1958C83.9625 54.2016 83.9683 54.2134 83.9742 54.2192C83.9742 54.2251 83.9801 54.2368 83.9859 54.2427C83.9859 54.2485 83.9977 54.2603 83.9977 54.2603L84.2556 54.6002C84.3845 54.8288 84.3904 54.7585 84.5076 54.9226L84.5956 55.0457C84.6659 55.1395 84.5545 55.0574 84.6893 55.1571L84.9824 55.8722C85.0235 56.2181 84.8183 56.5053 84.9004 56.8335C84.9648 57.0973 85.0703 57.2145 85.211 57.449L85.5686 58.0528C85.5744 58.0586 85.6213 58.1231 85.6272 58.1231C85.6917 58.2169 85.6917 58.2345 85.7444 58.3283L85.9672 58.7562C85.973 58.7679 85.9848 58.7913 85.9848 58.803C85.9848 58.8089 85.9906 58.8206 85.9965 58.8265C85.9965 58.8324 86.0082 58.8441 86.0082 58.8499L86.4127 59.3892C86.694 59.5182 86.6237 59.1723 87.415 59.6999H87.4619C87.5146 59.7351 87.5205 59.7468 87.5615 59.7761C87.6202 59.8113 87.6026 59.7937 87.6319 59.8113C87.6377 59.8113 87.6495 59.8171 87.6553 59.823L88.1419 60.0692H88.1887L88.8687 60.2509H88.9156C89.0328 60.3095 89.1208 60.3154 89.1794 60.3329C89.2204 60.3447 89.3787 60.415 89.4197 60.4326H89.4666C89.5956 60.4853 89.8417 60.4736 89.9648 60.5909L90.0059 60.6495C90.129 60.837 90.1114 60.7022 90.0528 60.8429C89.9355 60.9191 89.9883 60.9191 89.8593 60.966C89.7479 61.007 89.7655 60.966 89.6483 61.0246H89.6014C89.4725 61.0891 89.4138 61.0539 89.2849 61.1184H89.238C89.1383 61.1594 89.0856 61.136 88.9156 61.1594C88.7163 61.1887 88.7573 61.1887 88.558 61.2063H88.5111C88.4056 61.2532 88.3646 61.2181 88.1946 61.3001H88.1477H88.1008H88.0539L87.7667 61.388C87.7608 61.388 87.6964 61.4173 87.6846 61.4232C87.2978 61.6166 87.1161 61.6811 86.6764 61.6225L86.4244 61.5756C86.061 61.476 85.4924 61.5111 85.1876 61.6577C85.1758 61.6635 85.1641 61.6694 85.1583 61.6753L84.5956 62.1149C84.3552 62.2321 84.1032 62.3376 83.8218 62.2028L83.347 61.9977C83.2767 61.9625 83.2474 61.9566 83.1888 61.9273C83.1653 61.9097 82.9777 61.8394 82.9074 61.6811C82.8722 61.6049 82.755 61.1125 82.626 60.8488L82.5615 60.7315C82.5147 60.6612 82.5615 60.7374 82.5029 60.6553L82.3212 60.4736C82.2509 60.4385 82.204 60.4326 82.1337 60.3857C82.0809 60.3505 82.0633 60.3329 82.0047 60.2919H81.9578L80.8792 59.3247C80.6038 59.0434 80.6448 59.2368 80.5041 59.0199L80.2755 58.8382L79.6952 58.2872C79.6952 58.2814 79.6835 58.2755 79.6835 58.2696L79.6424 58.2227C79.6424 58.2169 79.6307 58.211 79.6307 58.2052L79.578 58.1231C79.5545 58.0938 79.5428 58.0821 79.5193 58.0528C79.4607 57.9824 79.4666 58.0059 79.4138 57.9238L79.0445 57.4138C79.0094 57.3435 79.0387 57.408 78.9977 57.3259C78.8804 57.0739 78.9039 57.238 78.7808 56.9859L78.6108 56.646C78.5991 56.6108 78.6167 56.6342 78.5932 56.5698C78.6987 56.5287 78.7397 56.5522 78.8628 56.6166L78.9977 56.7104L79.1325 56.8687C79.2087 56.9742 79.109 56.8453 79.1852 56.9449L79.8886 57.9941C79.9414 58.0586 79.8007 57.959 79.959 58.0703L80.1407 58.2521L80.7972 58.9555C80.9203 59.0375 80.9379 59.0844 81.0492 59.1606C81.2368 59.2896 81.2427 59.2309 81.4127 59.3423C81.4127 59.313 81.4009 59.2134 81.4009 59.2016L81.2544 58.5158C81.2427 58.4396 81.272 58.51 81.2309 58.422L80.973 58.1114C80.9672 58.1055 80.9613 58.0996 80.9555 58.0996C80.9496 58.0938 80.9379 58.0879 80.9379 58.0821L80.592 57.8476L80.17 57.5662C79.871 57.408 80.0293 57.4431 79.8183 57.3025C79.748 57.1969 79.7128 57.1852 79.6249 57.0856L79.2614 56.5815C79.2614 56.5756 79.2556 56.5639 79.2497 56.558C79.1559 56.3939 78.8863 56.0246 78.6987 55.8722C78.6518 55.8312 78.6284 55.8253 78.5815 55.7901L78.6811 55.7081H78.728C78.8218 55.7491 78.9097 55.7374 79.0973 55.7667C79.2087 55.7901 79.1208 55.7608 79.2556 55.8195C79.3318 55.8546 79.3552 55.8605 79.4138 55.8898H79.4607C79.578 55.966 79.6659 55.9953 79.7773 56.0715L80.0938 56.2532L80.7855 56.7397C80.8558 56.7866 80.7796 56.7456 80.8617 56.7984L80.9496 56.8921L81.6764 57.4373L81.8113 57.5252L82.0399 57.7069C82.544 58.0586 82.4443 58.0938 82.6143 58.2638L82.7667 58.3458L82.8077 58.2579L82.7198 58.211C82.6553 58.1114 82.626 58.1055 82.5557 58.0176L82.2216 57.6659C82.0868 57.5662 82.2098 57.6249 82.0868 57.5193L82.0399 57.4842L81.6295 57.1208L81.4478 56.9801C81.354 56.9156 81.3482 56.9097 81.2544 56.8159C80.9027 56.4584 80.973 56.7515 80.9027 56.4408L81.0258 56.476C81.0317 56.476 81.0434 56.4818 81.0492 56.4818C81.313 56.5639 81.3013 56.5873 81.4947 56.7104H81.5416L82.2216 57.0739L82.3564 57.1618C82.415 57.2028 82.4326 57.2204 82.4912 57.2556C82.5615 57.3025 82.5674 57.2907 82.6377 57.3376C82.7315 57.4021 82.755 57.4549 82.8605 57.5252C82.8957 57.4373 82.8957 57.4666 82.8839 57.4021L82.5967 56.7222C82.5909 56.7104 82.5791 56.687 82.5733 56.6753C82.5733 56.6694 82.5381 56.6166 82.5264 56.5932C82.5205 56.5873 82.5147 56.5698 82.5088 56.5639C82.5029 56.5522 82.4971 56.5404 82.4912 56.5346C82.4678 56.4936 82.456 56.4701 82.4267 56.4174L82.1219 55.9894C82.1219 55.9894 82.1102 55.9777 82.1102 55.9719L82.0047 55.8429L81.823 55.6612L81.6413 55.4795L81.3365 55.1981C81.3365 55.1981 81.3247 55.1864 81.3189 55.1805L81.1079 54.9695C81.1079 54.9695 81.0961 54.9578 81.0961 54.9519L81.0668 54.9226C81.061 54.9168 81.0551 54.9109 81.0492 54.905L80.6858 54.653C80.4279 54.5299 80.5451 54.5944 80.3165 54.3892C80.2521 54.3306 80.2169 54.2896 80.1524 54.2368L79.959 54.1137L79.8242 54.0258C79.8124 54.0199 79.8007 54.0141 79.7948 54.0082L79.7362 53.973C79.7304 53.9672 79.66 53.932 79.6483 53.9261C79.578 53.891 79.5252 53.8734 79.4607 53.8441C79.449 53.8382 79.4373 53.8324 79.4314 53.8265L79.3728 53.7913C79.3669 53.7855 79.2966 53.7503 79.2849 53.7444C79.2145 53.7093 79.1618 53.6917 79.0973 53.6624H79.0504C78.857 53.5686 78.7163 53.551 78.5404 53.5334C78.3177 53.51 78.1712 53.5158 78.095 53.4807H78.0481H78.0012H77.9543C77.8839 53.4513 77.7491 53.4396 77.6495 53.4162C77.5498 53.3927 77.6377 53.422 77.5205 53.3693C77.4385 53.3341 77.4209 53.3283 77.3623 53.2989H77.3154L76.8171 53.1172H76.7702L75.8148 52.7538C75.803 52.7479 75.7913 52.7421 75.7855 52.7362C75.4748 52.5487 75.5275 52.6483 75.1758 52.4783H75.129C74.9766 52.4021 74.7831 52.3728 74.6307 52.2966C74.619 52.2907 74.6073 52.2849 74.5955 52.2849L74.1735 52.1149H74.1266L73.4349 51.7397C73.4291 51.7397 73.4174 51.7339 73.4115 51.728C73.4056 51.728 73.3939 51.7222 73.388 51.7163L73.2649 51.6518C73.1946 51.5463 73.0305 51.4525 72.9132 51.3822L72.7198 51.2884C72.7081 51.2825 72.6964 51.2767 72.6905 51.2708L72.5791 51.2063C72.456 51.1477 72.5674 51.2005 72.4502 51.1653L71.6295 50.925H71.5827L71.4478 50.8312H71.4009C71.3247 50.796 71.2837 50.7902 71.2134 50.7433C71.143 50.6964 71.1489 50.6788 71.061 50.626C70.9496 50.5557 70.8265 50.5205 70.721 50.4678H70.6741L70.0821 50.1043C69.8535 49.9461 69.7069 49.8581 69.5252 49.5651L69.5018 49.524C69.4549 49.4596 69.5135 49.5123 69.449 49.4654L69.1676 49.0434C69.0973 48.932 69.238 49.0317 69.0856 48.9203C68.9273 48.68 68.9449 48.5979 68.6753 48.4279L68.5873 48.381L68.3587 48.1993L68.2708 48.1465C68.2649 48.1407 68.2532 48.1348 68.2415 48.129L68.0832 48.0176H68.0363C67.9015 47.9297 67.9426 47.9707 67.8664 47.9355C67.796 47.9004 67.7843 47.8828 67.7198 47.8359H67.6729C67.6319 47.8124 67.5322 47.7714 67.4853 47.7538C67.415 47.7245 67.456 47.7421 67.4091 47.7245L66.4478 47.4724H66.4068H66.3599H66.313C66.1606 47.408 65.8148 47.4666 65.6331 47.3787L65.5158 47.408C65.5041 47.408 65.4513 47.408 65.4396 47.408C65.3576 47.4021 65.3576 47.4138 65.2696 47.3787C65.17 47.4373 64.7186 47.4256 64.5545 47.4724L64.2321 47.5428C64.1266 47.5662 63.8921 47.6131 63.8159 47.6483H63.769H63.7222H63.6753C63.5756 47.6893 63.347 47.6893 63.1887 47.7128C63.136 47.7186 62.7901 47.7948 62.7198 47.83H62.6729H62.626H62.5791C62.4619 47.8886 62.374 47.8945 62.3154 47.9121C62.2743 47.9238 62.1161 47.9941 62.075 48.0117C62.0633 48.0176 62.0516 48.0234 62.0457 48.0293C62.0399 48.0352 62.0223 48.041 62.0164 48.0469C61.6882 48.2462 62.0926 48.1993 61.483 48.5041C61.3775 48.5569 61.3716 48.5686 61.2544 48.5979L60.7151 48.7386C60.7855 48.8441 60.803 48.8792 60.8968 48.9672C61.2016 49.1899 60.9437 49.4478 60.7737 49.612L60.2638 50.0106L59.9003 50.1923H59.8535C59.7245 50.2567 59.6659 50.2216 59.5369 50.2802H59.49C59.2849 50.1981 59.5311 50.3212 59.2732 50.2743C58.8335 50.204 58.9449 50.2802 58.5346 50.0047C58.4525 49.8875 58.5111 49.9109 58.3529 49.8699C58.2767 50.0106 58.3646 50.1395 58.4174 50.3095C58.4467 50.4091 58.4115 50.3095 58.4701 50.4267L58.7163 50.9601C58.7984 51.0188 58.8042 51.0832 58.8511 51.177L58.9859 51.4467C58.9859 51.4525 58.9977 51.4642 58.9977 51.4701C59.0914 51.646 59.0621 51.4467 59.0856 51.687C59.2438 51.8042 59.0914 51.6753 59.1676 51.8101L59.4021 52.1794C59.408 52.1852 59.408 52.1969 59.4138 52.2028L59.5369 52.449C59.5369 52.4549 59.5428 52.4666 59.5486 52.4725L59.9531 53.1407L60.8206 54.653C60.8206 54.6588 60.8324 54.6706 60.8324 54.6764C60.9086 54.8288 60.8734 54.8113 60.9554 54.8699L61.4596 55.7433C61.4596 55.7491 61.4713 55.7608 61.4713 55.7667C61.4771 55.7784 61.4889 55.8019 61.5064 55.837L61.6706 56.1477C61.7644 56.3353 61.6178 56.2532 61.8171 56.3001C61.9461 56.3236 61.8992 56.2649 62.1454 56.3353L62.4971 56.4174H62.544C62.7198 56.5053 62.7022 56.4467 62.8839 56.5287C63.2474 56.6928 63.1829 56.8218 63.1536 56.9742L62.9777 57.449C62.966 57.49 62.9719 57.5076 62.966 57.5369C62.9426 57.66 62.8488 57.6542 62.8722 57.9238C62.8898 58.1407 63.1243 58.0938 63.2181 58.0469H63.2649C63.3353 58.0176 63.6225 57.9824 63.7104 57.9766C63.7808 57.9707 63.9859 57.9766 64.1266 58.0469C64.3845 58.5803 64.3669 58.2579 64.4314 58.5393C64.5193 58.9027 64.5252 59.2309 64.5369 59.6002L64.49 59.9988C64.3259 60.0692 63.8394 60.0399 63.7163 60.0926H63.6694C63.558 60.0457 63.646 60.0457 63.5346 60.0926H63.4877C63.2767 60.0047 63.4701 60.1805 63.2591 60.0926H63.2122C63.1008 60.1395 63.1887 60.1395 63.0774 60.0926H63.0305C62.9191 60.1395 63.007 60.1395 62.8957 60.0926H62.8488H62.8019H62.7726C62.6671 60.0457 62.626 60.0809 62.456 59.9988H62.4091L61.9519 59.8288C61.6354 59.7116 61.905 59.8757 61.5475 59.6354H61.5006L61.1254 59.3775C60.8206 59.0903 60.8851 59.1079 60.7855 58.8675L60.7268 58.7562C60.6858 58.6624 60.7151 58.5627 60.7093 58.4455C60.7093 58.4162 60.6858 58.3048 60.6741 58.211C60.6624 58.1055 60.6682 58.129 60.6624 58.0352C60.6448 57.8359 60.6272 57.5955 60.5451 57.4021L60.5158 57.3318C60.5158 57.3259 60.51 57.3142 60.5041 57.3083C60.4689 57.238 60.4982 57.3083 60.4572 57.2204L60.3283 57.0035L60.1465 56.8218L59.7831 56.4584L59.6014 56.2767C59.4725 56.1829 59.4138 55.8605 59.1032 55.7784C59.0856 55.8136 59.0914 55.8019 59.0856 55.837C59.0621 55.9719 59.0797 56.136 59.1501 56.2767V56.3236C59.1852 56.4173 59.1618 56.4877 59.279 56.7222L60.1993 58.5569C60.2286 58.6155 60.2052 58.5627 60.2345 58.6272L60.3576 58.8792C60.3576 58.8851 60.3634 58.8968 60.3693 58.9027C60.3869 58.9379 60.3986 58.9554 60.4045 58.973L60.5569 59.3247C60.8148 59.5123 60.4338 59.3189 60.6917 59.5064C61.0258 60.0047 61.6237 60.2216 61.6178 60.8898C61.6178 61.136 61.6706 61.306 61.524 61.4642C61.4009 61.5991 61.5358 61.3705 61.2837 61.7339C61.2309 61.857 61.2837 61.7632 61.2544 61.8628L61.1137 62.1969C61.0844 62.238 61.0434 62.2732 61.0023 62.3142C60.9906 62.3259 60.9672 62.3552 60.9613 62.3611C60.6917 62.6424 60.4982 62.578 60.0528 62.5897C59.6717 62.6014 59.8183 62.6424 59.5545 62.8183H59.5076C59.2673 62.9355 59.2497 62.8476 59.0973 62.9062H59.0504C58.939 62.8593 59.027 62.8593 58.9156 62.9062H58.8687C58.7749 62.9472 58.5991 62.9531 58.3705 62.9531H58.3236L58.2181 62.7773C58.2181 62.7714 58.2063 62.7655 58.2063 62.7597C58.2063 62.7538 58.1946 62.7479 58.1946 62.7421L57.9719 62.4138C57.9132 62.3025 57.8429 62.2673 57.7315 62.027C57.6202 61.7984 57.6377 61.8921 57.5498 61.7515C57.5498 61.7456 57.5381 61.7339 57.5381 61.728L57.415 61.3529C57.3329 61.3939 57.2685 61.4056 57.1864 61.4467C56.9988 61.5756 56.993 61.517 56.823 61.6284L56.6471 61.728C56.5768 61.7632 56.524 61.7808 56.4596 61.8101C56.2661 61.9449 55.8968 62.0328 55.6741 62.0621L55.5862 62.0797C55.5803 62.0797 55.5686 62.0856 55.5627 62.0856C55.4807 62.0973 55.6331 62.1559 55.4631 62.0856H55.4162H55.3693H55.3283C55.2227 62.0387 55.1817 62.0739 55.0117 61.9977H54.9648C54.9003 61.9683 54.8476 61.9508 54.7773 61.9156L54.6014 61.8159L54.3728 61.6342L54.2614 61.5522C54.2556 61.5463 54.2497 61.5404 54.2438 61.5346L53.9625 61.177C53.558 60.9836 53.898 61.1712 53.5404 60.8722C53.5229 60.8546 53.4642 60.8136 53.4642 60.8136C53.0774 60.544 53.1184 60.4912 52.9191 60.3564L52.8312 60.2626L52.1043 59.5123C52.1043 59.5064 52.0926 59.5006 52.0926 59.4947C51.8406 59.143 51.9285 59.3892 51.7819 59.0375C51.7175 58.9965 51.7175 59.0082 51.6589 58.9379C51.5592 58.803 51.6823 58.9672 51.6061 58.8265C51.5299 58.68 51.3834 58.6272 51.2778 58.4338C51.2485 58.381 51.2837 58.3458 51.102 58.2227C50.9379 57.9179 50.8441 57.9004 50.7796 57.6893C50.6975 57.4373 50.7034 57.49 50.7151 57.1442C50.721 56.8218 51.1723 56.9801 51.3306 57.0914H51.3775L51.4654 57.1794C51.7233 57.3669 51.3423 57.1735 51.6002 57.3611L51.9637 57.9766C51.9637 57.9824 51.9754 57.9883 51.9754 57.9941C52.0926 58.1407 52.1336 58.2345 52.3271 58.3634C52.3505 58.3107 52.3505 58.2638 52.3564 58.2638L52.3857 58.1876C52.5264 57.83 52.3622 57.4256 52.4619 57.1852C52.5498 57.2438 52.6319 57.3142 52.6905 57.4021L52.7315 57.49C52.7315 57.4959 52.7374 57.5076 52.7433 57.5135C52.7843 57.5897 52.8957 57.8242 52.8957 57.9707C52.9015 58.3283 52.9308 58.0469 52.9836 58.2872L53.1887 58.8499C53.2474 58.973 53.177 58.7796 53.2356 58.9555C53.5991 58.9261 53.3587 58.7562 53.476 58.2403C53.4994 58.1465 53.5287 58.0703 53.5346 57.9883C53.5404 57.9238 53.5229 57.8886 53.5404 57.8066L53.5873 57.6717C53.6753 57.4314 53.6049 57.5076 53.6284 57.3787C53.6401 57.32 53.6342 57.3494 53.6635 57.279C53.7456 57.068 53.6987 57.0094 53.8159 56.6284L53.9097 56.3529C53.9097 56.347 53.9156 56.3353 53.9156 56.3294L54.1501 55.9132L54.2204 55.966C54.2966 56.0305 54.2145 56.0129 54.3318 56.095C54.4842 56.3177 54.3845 56.2298 54.5135 56.5815L54.5311 56.6284C54.5545 56.7339 54.5076 56.7222 54.5604 56.898C54.5604 56.9039 54.5662 56.9156 54.5662 56.9215L54.6014 57.0445V57.0914C54.6776 57.279 54.5662 57.0856 54.6483 57.2732C54.7421 57.2087 54.7538 56.9215 54.7362 56.8277L54.5076 55.4619C54.49 55.4091 54.4666 55.3505 54.4549 55.2685C54.4431 55.1864 54.4666 55.1805 54.4373 55.1043L54.3669 54.9695C54.3318 54.8581 54.3962 54.8288 54.3376 54.6882V54.6413C54.2028 54.442 54.1852 54.1372 54.1559 54.0844L53.7925 53.5979L53.476 53.3283C53.3763 53.1758 53.3939 53.2638 53.3001 53.1641L53.1184 52.9824C53.0129 52.8769 53.1067 52.8945 52.9308 52.7773L52.7491 52.5955C52.6377 52.4314 52.6729 52.5311 52.5322 52.408C52.5264 52.408 52.5205 52.3962 52.5147 52.3962C52.5147 52.3962 52.5029 52.3845 52.5029 52.3787L52.4736 52.3494C52.3681 52.2438 52.1043 52.0387 52.0106 51.898L51.8757 51.6342C51.7819 51.4584 51.8288 51.6401 51.8113 51.4584C51.8054 51.388 51.8054 51.3763 51.7937 51.2415V51.1946L51.5651 50.966H51.5182L51.3834 50.8722H51.3365C51.2896 50.837 51.2778 50.8195 51.2368 50.796C51.1782 50.7608 51.2016 50.7784 51.1665 50.7608C51.1547 50.755 51.1313 50.7491 51.1196 50.7433L51.0199 50.6905H50.973C50.9261 50.6553 50.9144 50.6377 50.8734 50.6143C50.8148 50.5791 50.8382 50.5967 50.803 50.5791C50.7913 50.5733 50.7679 50.5674 50.7562 50.5615L50.6565 50.5088C50.6448 50.5029 50.6331 50.4971 50.6272 50.4912L50.4865 50.415C50.4748 50.4091 50.422 50.3916 50.4162 50.3916L50.0176 50.2392L49.9062 50.1688C49.8124 50.1219 49.8476 50.1395 49.8066 50.1278C49.7304 50.1043 49.6717 50.1043 49.5662 50.0574H49.5193C49.4725 50.034 49.3787 49.993 49.3318 49.9754C49.2263 49.9343 49.32 49.9637 49.2028 49.9343C49.0504 49.8992 49.0152 49.9109 48.9273 49.8757L48.4291 49.6061C48.3587 49.653 48.3529 49.6647 48.2708 49.7175C48.2298 49.7468 48.2298 49.7409 48.1887 49.7702C48.0363 49.8699 48.2767 49.6999 48.136 49.8054C47.9484 49.9461 47.7608 50.1864 47.5557 50.3564L47.3447 50.5088L47.2509 50.5967C47.1043 50.6964 46.8113 50.966 46.7233 51.1536L46.4713 51.5639C46.4713 51.5698 46.4654 51.5815 46.4596 51.5873L46.2661 51.9742C46.2661 51.9801 46.2603 51.9918 46.2544 51.9977L45.9965 52.5428C45.9965 52.5545 45.9906 52.6073 45.9906 52.6073L45.4689 54.0141C45.4045 54.1372 45.4982 53.9555 45.4396 54.0844L45.381 54.2016C45.3224 54.313 45.4103 54.2427 45.2931 54.3247C45.2169 54.5006 45.3458 54.354 45.1758 54.5709L45.0703 54.7819L44.8828 55.0516C44.7773 55.1981 44.8476 55.163 44.7479 55.2333L44.5428 55.4912C44.4021 55.7433 44.3376 55.7081 44.1852 55.9484L43.9742 56.2298C43.8511 56.3177 43.9156 56.306 43.898 56.3294C43.5639 56.8394 43.646 56.8101 43.5053 57.0387C43.4818 57.0797 43.4642 57.0914 43.4291 57.1383L43.3411 57.2556C43.3353 57.2614 43.3294 57.2732 43.3294 57.279C43.3001 57.32 43.2591 57.3728 43.2122 57.4197C43.0481 57.5897 43.0246 57.5545 42.9953 57.6952C42.9426 57.9941 42.925 57.8359 42.9015 57.9883C42.8839 58.1055 42.925 57.9824 42.8839 58.1465C42.7667 58.6096 42.8312 58.6682 42.7491 58.9672C42.6377 59.3716 42.8488 58.8968 42.5733 59.4654C42.3505 59.9285 42.5147 59.7468 42.415 60.1512L42.3798 60.6026C42.3798 60.6143 42.3798 60.6377 42.3798 60.6495V60.8077C42.3798 60.8136 42.374 60.8253 42.374 60.8312C42.3212 61.1301 42.4326 61.007 42.3095 61.2415L42.286 61.2884C42.1805 61.5053 42.1512 61.5111 41.8933 61.6108C41.7468 61.6694 41.7702 61.6987 41.6588 61.7749C41.653 61.7808 41.6354 61.7866 41.6354 61.7925C41.6295 61.7984 41.6178 61.8042 41.612 61.8101C41.6061 61.8159 41.5944 61.8218 41.5885 61.8277C41.5826 61.8335 41.5709 61.8394 41.5709 61.8452L41.2544 62.2321L41.1196 62.3259L40.8499 62.5076H40.7913C40.721 62.5545 40.7151 62.578 40.6331 62.619C40.5862 62.6483 40.5217 62.6659 40.4748 62.6893H40.4279C40.1583 62.8183 40.0469 62.8124 39.9297 62.871H39.8828H39.8359H39.7948C39.6659 62.9355 39.6073 62.9003 39.4783 62.959H39.4314C39.2438 62.8828 39.4431 62.9355 39.2849 62.9648L38.6635 63H38.2239C38.1887 63 38.1594 62.9941 38.1243 62.9941C38.0363 62.9824 38.0891 62.9941 38.0305 62.9766L37.9836 62.9648C37.9777 62.9648 37.966 62.959 37.9601 62.959C37.8429 62.9355 38.0188 62.8828 37.837 62.959H37.7901C37.6671 62.9062 37.6084 62.9824 37.626 62.8124L37.8077 62.1735C37.8546 61.9156 37.8605 61.9918 37.9601 61.728L37.9894 61.6049C38.0129 61.5053 37.9719 61.5873 38.0246 61.517L38.3294 61.0363C38.3353 61.0305 38.3411 61.0188 38.3411 61.0129C38.3587 60.9894 38.2943 61.007 38.4173 60.9132C38.5873 60.6612 38.8394 60.5615 39.0504 60.4619L39.408 60.3447C39.4138 60.3447 39.4314 60.3388 39.4373 60.3388C39.5604 60.3036 39.5018 60.3271 39.5955 60.2802L39.6659 60.2274C39.6717 60.2216 39.6835 60.2157 39.6835 60.2098L39.959 59.694C39.9941 59.6413 40.0176 59.6061 40.0469 59.5533C40.0821 59.5006 40.0996 59.4713 40.129 59.4244L40.2345 59.2837C40.3751 59.0903 40.7503 58.3576 40.8617 58.2814L40.9555 58.0703C41.1372 57.5838 41.2075 57.027 41.3306 56.476L41.3482 56.3411C41.3482 56.3353 41.354 56.3236 41.3599 56.3177C41.5475 55.7726 41.6706 55.755 41.7585 55.4795C41.7585 55.4736 41.7644 55.4619 41.7644 55.456C41.7644 55.4443 41.7761 55.4209 41.7761 55.4091L41.8757 54.9519C41.8933 54.8347 41.9695 54.7702 42.0926 54.524L42.1278 54.4654L42.3564 53.9203L42.4033 53.8734V53.8265L42.4736 53.6213C42.5322 53.4689 42.5147 53.51 42.5205 53.4045C42.5381 52.959 42.5733 53.1465 42.585 52.9648V52.9179C42.6788 52.6952 42.5615 52.2263 42.5615 52.109L42.4971 51.5932C42.3916 51.2063 42.4502 51.1887 42.3857 51.0657L42.3564 51.0188C42.3564 51.0129 42.3505 51.0012 42.3447 50.9953C42.286 50.8546 42.3857 50.966 42.3095 50.7784C42.1981 50.8312 42.0106 50.8429 41.9578 50.8605L41.6999 50.9426C41.4654 51.0305 40.7151 51.0129 40.5275 50.9777C40.5217 50.9777 40.51 50.9719 40.5041 50.9719L40.3224 50.966C40.1524 50.966 40.3751 50.8839 40.1758 50.966H40.129C40 50.9015 39.9414 50.9367 39.8124 50.8722H39.7948C39.66 50.8136 39.0387 50.8195 38.9449 50.8019L38.0246 50.6905H37.9777C37.8664 50.7374 37.9543 50.7374 37.8429 50.6905H37.796H37.7491H37.7022C37.6202 50.6553 37.1571 50.6495 36.8523 50.626C36.7995 50.6202 36.1372 50.5615 36.0258 50.5088H35.9789C35.8675 50.5557 35.9555 50.5557 35.8441 50.5088H35.7972H35.7503H35.7034C35.5217 50.4326 35.7093 50.4795 35.5569 50.5147C35.4924 50.5264 35.5041 50.5264 35.3927 50.5615C35.2872 50.5909 35.1172 50.6436 35.0234 50.6905H34.9766H34.9297H34.8828C34.7831 50.7315 34.5721 50.7315 34.4725 50.6905H34.4256C34.3552 50.6436 34.3552 50.6319 34.279 50.5909C34.1618 50.5264 34.2673 50.6612 34.1559 50.5088C33.9977 50.4033 33.9332 50.3329 33.7222 50.2743L33.2063 50.1161C33.1829 50.1102 33.1243 50.0985 33.0891 50.0926L32.8488 50.0574C32.8429 50.0574 32.7843 50.0399 32.7843 50.0399L32.2626 49.9754C32.0985 49.9461 32.2919 49.8933 32.1161 49.9695H32.0692C31.9461 49.9168 31.694 49.9343 31.4244 49.905C31.3013 49.8933 31.1489 49.9285 31.0258 49.8757H30.9789H30.932H30.8851L28.3822 49.7644C28.306 49.7585 28.2943 49.7409 28.1594 49.7409C27.9719 49.7409 28.0481 49.7351 27.9191 49.7878C27.8019 49.8347 27.8957 49.7351 27.796 49.8757C27.6612 49.9402 27.6495 49.9285 27.5264 50.0106C27.5264 50.5967 27.4853 50.7784 27.4619 51.2943C27.456 51.4935 27.3916 51.4701 27.3681 51.6166L27.3095 51.8804C27.2157 52.1208 27.3505 51.9097 27.204 52.2028C27.204 52.2087 27.1981 52.2204 27.1923 52.2263L27.1571 52.2966C27.1278 52.3611 27.1512 52.3025 27.1219 52.3669L27.0926 52.4373C26.9754 52.6717 27.034 52.4431 26.8933 52.789C26.7409 52.9003 26.8816 52.7831 26.823 52.8886C26.7819 52.959 26.8581 52.8535 26.7878 52.959C26.7819 52.9707 26.7585 52.9941 26.7468 53.0059L26.2134 53.5158H26.1665C25.7503 53.7151 25.7093 53.5334 25.4865 54.0023C25.4279 54.1254 25.381 54.3423 25.2872 54.4596C25.2052 54.5592 25.1876 54.5182 25.0469 54.5826C24.6952 54.7351 24.7069 54.9637 24.5721 55.0633L24.5018 55.2567C24.4256 55.4091 24.4842 55.3564 24.3904 55.4267L24.32 55.6202C24.2438 55.7726 24.3025 55.7198 24.2087 55.7901L24.1735 55.9132C24.1735 55.9191 24.1618 55.9308 24.1618 55.9367L24.0328 56.2767C24.0328 56.2825 24.027 56.2943 24.0211 56.3001L23.9273 56.6284C23.898 56.7515 23.9449 56.7104 23.8921 56.8452C23.7808 57.1442 23.857 57.0739 23.728 57.4314C23.7104 57.4725 23.728 57.4314 23.6928 57.5018C23.6225 57.6424 23.6635 57.5135 23.6401 57.66L23.2532 58.422C23.0363 58.5686 23.0422 58.6096 22.9894 58.7268L22.5909 59.354C22.3388 59.6295 22.5557 59.483 22.3916 59.6061L22.2978 59.694L22.2392 59.7292C22.2333 59.7351 22.2216 59.7409 22.2098 59.7468L21.8406 59.9695L21.5123 60.1043C21.3365 60.1395 21.313 60.1043 21.2016 60.1512C21.1547 60.0809 21.2016 60.0809 21.1547 60.1512C20.9789 60.0809 21.1606 60.1512 21.0082 60.1512C21.0023 60.1512 20.9906 60.1512 20.9848 60.1512C20.8206 60.1512 21.0317 60.0692 20.8382 60.1512H20.7913C20.6741 60.1043 20.4513 60.1395 20.2931 60.0574H20.2462C20.1524 60.0105 20.1758 60.0281 20.0586 59.9988C19.9355 59.9637 20.0586 60.0223 19.9004 59.9519C19.7655 59.8875 19.66 59.823 19.6014 59.6999C19.5311 59.5416 19.619 59.483 19.7245 59.2778C19.7362 59.2485 19.7186 59.2661 19.7597 59.2134C19.8066 59.143 19.8124 59.1665 19.8593 59.102L19.9179 58.9906C20.0176 58.7796 20.0586 58.8148 20.1465 58.6272L20.2169 58.4924C20.3341 58.3283 20.4162 58.1876 20.5158 58.1172C20.5275 58.1114 20.5393 58.1055 20.5451 58.0996C20.7093 58.0059 20.8265 57.9179 20.9086 57.7421L21.0844 57.3318C21.1079 57.1735 21.2309 57.0387 21.3013 56.9039L21.9637 55.4502C22.0399 55.2509 22.2274 55.0105 22.3623 54.8406C22.3681 54.8347 22.374 54.8288 22.374 54.823L22.4619 54.7585L22.5557 54.6706C22.6143 54.6295 22.6319 54.612 22.6905 54.5768C22.7608 54.5299 22.7667 54.5416 22.837 54.4947C22.9308 54.4302 22.9543 54.3775 23.0598 54.3072C23.2122 54.0844 23.177 54.0317 23.1712 53.8617C23.1653 53.5158 23.0891 52.7597 23.2415 52.5311V52.449C23.2649 52.3962 23.3001 52.1032 23.4115 51.8101C23.4877 51.6225 23.4232 51.6049 23.4525 51.3587L23.6225 50.3505C23.646 50.2216 23.5991 50.4091 23.6284 50.286C23.6342 50.2567 23.6342 50.2509 23.6518 50.2216L23.8335 49.9109C23.9859 49.7995 23.8511 49.8933 23.9039 49.8347L23.9566 49.7702C23.9566 49.7644 23.9683 49.7585 23.9683 49.7526L24.0914 49.5358C24.1618 49.3951 24.2204 49.3951 24.1559 49.2309C24.0445 49.2778 24.1325 49.2778 24.0211 49.2309H23.9742C23.8628 49.2778 23.9508 49.2778 23.8394 49.2309H23.7925C23.6342 49.2954 23.3705 49.2603 23.1008 49.3306C23.0363 49.3482 22.8312 49.3599 22.6964 49.4009L22.3857 49.5006H22.3388C22.2098 49.5651 22.1512 49.5299 22.0223 49.5944H21.9754L21.8406 49.6823H21.7937H21.7468H21.6999C21.5475 49.7585 21.354 49.7878 21.2016 49.864H21.1547L20.2931 50.1336H20.2462C20.1993 50.1571 20.1055 50.1981 20.0586 50.2157C19.9531 50.2567 20.0469 50.2274 19.9297 50.2567C19.7773 50.2919 19.7421 50.2802 19.6542 50.3154H19.6307C19.5369 50.3564 19.4197 50.3505 19.3025 50.3388L19.1911 50.3212C19.1852 50.3212 19.1735 50.3154 19.1676 50.3154C19.0387 50.2919 19.2263 50.2333 19.0445 50.3154H18.9977C18.8863 50.2685 18.9742 50.2685 18.8628 50.3154H18.8101H18.7632L18.646 50.3798C18.4936 50.4795 18.4291 50.585 18.347 50.7315C18.3411 50.7433 18.306 50.8019 18.3001 50.8195C18.2415 50.9191 18.3353 50.8077 18.2415 50.8957C18.2181 50.9132 18.2005 50.9426 18.1946 50.9308C18.1946 50.925 18.177 50.9426 18.1712 50.9484L18.0363 51.0363C17.9484 51.1712 18.0129 51.0891 17.8957 51.1712L17.4912 51.4936H17.4443L17.2157 51.6753C17.204 51.6811 17.1923 51.687 17.1864 51.6928L17.1278 51.728C16.6237 52.0445 16.4009 52.5955 16.3599 52.6424L16.2075 52.83C16.1723 52.9062 16.2427 52.8476 16.0961 53.1407C16.0961 53.1465 16.0903 53.1583 16.0844 53.1641L15.2579 54.2192C15.1465 54.2954 15.129 54.3423 15.0059 54.4244C14.9355 54.4713 14.9414 54.4537 14.8593 54.5064C14.8124 54.5358 14.8066 54.5475 14.7538 54.5826H14.7069L14.027 54.8523H13.9801C13.8746 54.8992 13.8335 54.864 13.6635 54.9461H13.6166C13.4701 54.8875 13.5815 54.9461 13.4467 54.9461C13.4349 54.9461 13.4115 54.9402 13.3998 54.9402C13.2591 54.9402 13.0774 54.9988 12.9308 54.9402C12.8546 54.7644 12.966 54.5826 12.9953 54.3599C13.0246 54.1547 12.9484 54.3013 13.0539 53.9965L13.0774 53.9261C13.1184 53.762 13.0305 53.8558 13.136 53.5979C13.2122 53.3986 13.1653 53.422 13.1887 53.3341L13.2063 53.2872C13.3411 52.9941 13.2474 53.1114 13.4056 52.871L13.8921 52.1325C13.9332 52.0856 13.9683 52.0621 14.0094 52.0211L14.5193 51.3529L15.0176 50.6846C15.0586 50.6143 15.0059 50.6729 15.0645 50.626C15.1055 50.5498 15.129 50.5088 15.1583 50.415C15.211 50.2743 15.0996 50.3623 15.2462 50.2626C15.3458 50.1102 15.4396 50.1102 15.4455 50.0985C15.4513 50.0868 15.4631 50.0868 15.4748 50.0809C15.5393 50.0516 15.592 50.034 15.6624 49.9988L15.8382 49.8992L16.2016 49.7175C16.3423 49.6237 16.524 49.4361 16.6471 49.2954L17.4267 48.4103C17.4326 48.4045 17.4385 48.3927 17.4385 48.3869L17.6553 48.0821L18.0188 47.7186C18.1301 47.6424 18.1477 47.5955 18.2708 47.5135C18.3411 47.4666 18.3353 47.4842 18.4174 47.4314C18.4642 47.4021 18.4701 47.3904 18.5229 47.3552L19.2497 46.9918H19.2966L19.6893 46.8394C19.7011 46.8335 19.7128 46.8335 19.7245 46.8277C19.7362 46.8218 19.7479 46.8218 19.7597 46.8159C19.83 46.7925 19.9179 46.7515 19.9883 46.728L20.211 46.6284C20.34 46.5756 20.2814 46.6401 20.4572 46.5639C20.5275 46.5346 20.5158 46.5346 20.5803 46.5053C20.6331 46.4818 20.6565 46.476 20.7093 46.4525L20.8265 46.388C21.0727 46.2239 21.0844 46.1243 21.1489 45.9894C21.1547 45.9777 21.1665 45.9543 21.1723 45.9426L21.3599 45.5557C21.4068 45.3681 21.2837 45.4736 21.4361 45.3622C21.5475 45.0868 21.3365 45.0223 21.0961 44.8406L20.9965 44.7351C20.6624 44.2603 20.34 44.1196 19.959 43.8441L19.6717 43.68L19.5604 43.6096C19.5135 43.5862 19.5545 43.5979 19.4842 43.5744C19.408 43.551 19.449 43.5744 19.32 43.5275L19.1325 43.4631C19.0152 43.4338 19.0387 43.4455 18.9449 43.3986H18.898L18.4994 43.3048C18.4232 43.2931 18.5639 43.2403 18.3998 43.3107C18.347 43.2755 18.3998 43.2872 18.2825 43.252C18.2532 43.2403 18.2239 43.2403 18.2063 43.2403C18.0891 43.2286 18.1594 43.2696 18.0363 43.2169H17.9894L17.8546 43.3107H17.8136L17.6788 43.3986H17.6319C17.4502 43.5158 17.585 43.4396 17.3916 43.4748L17.0399 43.4924H16.993C16.8816 43.5393 16.9695 43.5393 16.8581 43.4924H16.8171C16.7057 43.5393 16.7937 43.5393 16.6823 43.4924H16.6354C16.5416 43.5334 16.4537 43.5217 16.2661 43.551C15.9203 43.6155 15.5158 43.9906 15.3165 44.1254L14.8124 44.483C14.6776 44.5709 14.7538 44.5592 14.5662 44.6471L14.4373 44.694C14.3962 44.7175 14.4431 44.6413 14.3611 44.7585C14.2321 44.7702 14.2263 44.7819 14.109 44.8113L13.2767 44.9871C13.0305 45.0164 13.1536 44.9871 12.9543 45.1219H12.9074L12.7257 45.3036C12.2626 45.6143 12.6612 45.3681 12.2274 45.5733C12.1923 45.5967 12.204 45.5909 12.1395 45.6202C12.1278 45.626 12.0926 45.6319 12.0868 45.6377C11.9754 45.6729 12.1278 45.5967 11.9578 45.6671H11.9109C11.7702 45.7315 11.1899 45.8195 10.9906 45.7667C10.7972 45.714 10.6624 45.5674 10.5451 45.3974L10.2989 45.0457C10.2403 44.9402 10.381 45.0574 10.2286 44.9461L10.1641 44.7819C10.129 44.7175 10.129 44.7233 10.0996 44.6706L10.0469 44.5826C10.0234 44.524 10.0059 44.4596 10 44.3834V44.2016C10.0176 44.0023 10.0879 43.7913 10.211 43.6624C10.2814 43.592 10.3341 43.551 10.3986 43.4807L10.4748 43.3693C10.4748 43.3634 10.4807 43.3517 10.4865 43.3458L11.0023 42.2438C11.0903 41.9918 11.0434 42.1676 11.1723 41.9449L11.5592 41.136C11.5651 41.1243 11.5709 41.095 11.5709 41.0832L11.5885 41.0305C11.8288 40.3623 11.8347 39.9226 11.8581 39.8523C12.0164 39.4185 11.8406 39.7409 11.9871 39.2251C12.0809 38.8968 11.905 39.2251 12.1043 38.9027L12.1512 38.803C12.1688 38.7503 12.1747 38.7268 12.1864 38.6858L12.3154 38.4045C12.374 38.2989 12.3212 38.4338 12.3623 38.3165C12.3798 38.2755 12.3857 38.2169 12.3974 38.0996L12.5381 37.7714C12.5381 37.7655 12.544 37.7538 12.5498 37.7479L12.7198 37.3142C12.7198 37.3083 12.7257 37.2966 12.7315 37.2907L12.7667 37.2204C12.837 37.0797 12.925 36.7573 13.0774 36.6401C13.1887 36.476 13.2825 35.9953 13.2825 35.8546C13.2767 35.4209 13.6108 35.5029 13.7104 35.4619H13.7691C13.8511 35.4209 13.9156 35.4091 13.9977 35.3681L14.0856 35.2802H14.1325L14.5428 35.0105L14.7831 34.9226C14.8652 34.8992 15.0059 34.8464 15.0879 34.9519L15.4103 35.4678C15.592 35.544 15.4045 35.4971 15.5569 35.4619C15.9613 35.3623 16.5533 35.2098 16.9109 35.3798H16.9578C17.0516 35.4209 17.6084 35.4853 17.8195 35.3798H17.8664L18.1946 35.2802C18.2005 35.2802 18.2122 35.2743 18.2181 35.2743L18.4408 35.2274C18.4467 35.2274 18.4584 35.2216 18.4642 35.2216L19.4549 35.0223H19.5018C19.6659 34.9519 20.1524 34.9812 20.2755 34.9343H20.3224C20.4338 34.8875 20.3458 34.8875 20.4572 34.9343H20.5041C20.6565 34.8699 20.8499 34.9461 20.973 34.9109C21.1254 34.864 21.102 34.7819 21.1313 34.7175C21.1841 34.612 21.2485 34.5826 21.3247 34.4771C21.5768 34.3071 21.5475 34.2016 21.9109 34.1723C22.3271 34.1372 23.1301 34.3599 23.6401 34.1137H23.687C23.8042 34.0551 23.8921 34.0492 23.9508 34.0317C23.9918 34.0199 24.1501 33.9496 24.1911 33.932H24.238C24.7245 33.6975 26.1723 33.803 26.6471 33.8382H26.694C26.7761 33.8792 26.8406 33.891 26.9226 33.932H26.9695C27.1805 33.8324 27.0985 33.9672 27.1981 33.7562C27.286 33.5627 27.0926 33.7151 27.2919 33.5686C27.3564 33.4162 27.2743 33.4631 27.456 33.1055C27.6143 32.7948 27.6788 32.7948 27.9836 32.49L28.2063 32.1501C28.4642 31.5404 28.5756 31.7632 28.7515 31.4232L29.3669 30.3798C29.6893 29.9812 29.6073 30.0164 29.7304 29.8347L29.9297 29.5299C29.9297 29.524 29.9648 29.4947 29.9883 29.4596L30.0176 29.4185C30.0586 29.354 29.9707 29.4009 30.1055 29.3013L30.1934 29.2075C30.2052 29.2016 30.2169 29.1958 30.2227 29.1899L31.0141 28.7503H31.061L31.1958 28.6565H31.2427C31.2661 28.6389 31.313 28.6155 31.3423 28.6038C31.3482 28.6038 31.3599 28.5979 31.3658 28.592C31.3716 28.592 31.3834 28.5862 31.3892 28.5862L31.653 28.4748C31.8581 28.3458 32.3447 28.3048 32.3798 28.2931H32.4267C32.544 28.2345 32.6319 28.2286 32.6905 28.211C32.7315 28.1993 32.8898 28.129 32.9308 28.1114C32.9426 28.1055 32.9543 28.0996 32.9601 28.0938C32.966 28.0879 32.9836 28.0821 32.9894 28.0762L33.3822 27.7128C33.388 27.7069 33.3939 27.6952 33.3939 27.6893L33.6108 27.4724C33.7339 27.3904 33.7339 27.3728 33.8863 27.2966C33.9918 27.2438 34.0504 27.2204 34.1852 27.1794L34.7479 27.0152L35.0234 26.9215H35.0703C35.1524 26.8804 35.2169 26.8687 35.2989 26.8335L35.3869 26.7866C35.4279 26.769 35.4455 26.7632 35.4865 26.7456C35.6038 26.6928 35.5627 26.7163 35.6624 26.6518H35.7093C35.8265 26.5756 35.9144 26.5463 36.0258 26.4701H36.0727C36.2016 26.4115 36.1606 26.4232 36.3423 26.4232C36.2309 26.687 36.3658 26.6166 35.9789 26.8746H35.932L35.8382 26.9683L35.7444 27.0621C35.9613 27.0621 35.8324 27.0621 35.8792 27.0152C35.973 26.9683 35.9144 26.9918 36.0375 26.9566C36.0727 26.9449 36.1137 26.939 36.1196 26.939C36.1254 26.939 36.1372 26.9332 36.143 26.9332C36.1489 26.9332 36.1606 26.9273 36.1665 26.9273C36.4009 26.8628 36.8875 26.939 37.1043 26.8335H37.1512C37.2626 26.8804 37.1747 26.8804 37.286 26.8335H37.3329C37.4385 26.7866 37.585 26.8159 37.7433 26.7397H37.7901C37.8839 26.6928 37.8312 26.7046 37.9719 26.6928C37.8605 26.898 37.837 26.9449 37.585 27.0211L37.3681 27.0797C37.3447 27.0856 37.3564 27.0797 37.286 27.1032L37.1219 27.1676C37.0047 27.2028 36.8699 27.2087 36.7937 27.238H36.7468C36.6823 27.279 36.6764 27.2966 36.6178 27.3318L36.5064 27.4021C36.5006 27.3962 36.4889 27.4138 36.4771 27.4197C36.7409 27.4197 36.7116 27.3904 36.9285 27.3728L37.1981 27.279H37.245L38.0305 27.1149C38.1008 27.1032 38.007 27.1207 38.095 27.0973L38.5639 27.0094H38.6108C38.7222 27.0563 38.6342 27.0563 38.7456 27.0094H38.7925L38.8863 27.0973C38.687 27.2321 38.7397 27.3083 38.6166 27.3845C38.6108 27.3904 38.5991 27.3962 38.5932 27.3962C38.5873 27.4021 38.5756 27.408 38.5698 27.408C38.4584 27.449 38.5698 27.4666 38.4349 27.4138C38.3939 27.4431 38.4349 27.4197 38.347 27.4666C38.3294 27.4725 38.2767 27.4959 38.2532 27.5076H38.2063H38.1594H38.1125C37.8957 27.6131 37.6319 27.5955 37.4326 27.6893H37.3857C37.3564 27.7069 37.3154 27.7304 37.286 27.7421L37.1923 27.7773C36.9812 27.8593 37.0105 27.8945 36.8757 27.9707C36.8699 27.9707 36.8581 27.9766 36.8523 27.9824L36.612 28.1465L36.4302 28.3283C36.3658 28.4748 36.3951 28.3576 36.4302 28.4162C36.5592 28.3869 36.7292 28.3341 36.8406 28.2814H36.8875C37.0223 28.2169 37.163 28.1641 37.2978 28.0996H37.3447L37.9367 27.83H37.9836C38.0656 27.789 38.1301 27.7773 38.2122 27.7421L39.027 27.4724H39.0739L39.1676 27.5662C39.0563 27.6424 39.0973 27.6249 39.0035 27.7186C38.6987 28.0234 38.6694 27.8769 38.4877 28.1524V28.1993C38.4173 28.3048 38.3411 28.3107 38.4525 28.3517C38.5229 28.3751 38.4525 28.3634 38.5287 28.34C38.6108 28.3165 38.5815 28.3165 38.6225 28.2872C38.6928 28.2521 38.7397 28.2462 38.8101 28.1993C38.8628 28.1641 38.8804 28.1465 38.939 28.1055H38.9859C39.068 28.0645 39.1325 28.0528 39.2145 28.0176H39.2614C39.3611 27.9766 39.5721 27.9648 39.6717 27.9297H39.7186C39.7655 27.9121 40.0352 27.8593 40.1407 27.8593C40.3341 27.8535 40.3341 27.9179 40.4924 28.0234H40.5393C40.7855 28.1407 40.7972 28.0528 40.9496 28.1114H40.9965C41.0903 28.0703 41.2192 28.0703 41.313 28.1114H41.3599C41.4537 28.1583 41.4009 28.1465 41.5416 28.1583C41.5182 28.4279 41.5182 28.2931 41.313 28.4279C41.0023 28.5744 40.7268 28.4396 40.5393 28.5158H40.4924C40.3693 28.4631 40.4689 28.4807 40.3458 28.5217C40.2286 28.5627 40.3165 28.4807 40.2227 28.6096C40.4103 28.6858 40.2169 28.5744 40.4045 28.6565H40.4513H40.4982H40.5451H40.592H40.6389C40.7562 28.7151 40.8441 28.721 40.9027 28.7386C40.9437 28.7503 41.102 28.8206 41.143 28.8382L41.2368 28.9261C41.2427 28.932 41.2603 28.9379 41.2603 28.9437C41.2661 28.9496 41.2778 28.9555 41.2837 28.9613L41.3423 29.0082C41.3834 29.0375 41.2134 28.9906 41.4244 29.0668L41.6002 28.9203L41.7351 28.8324C41.7995 28.803 41.8523 28.7855 41.9226 28.7503L42.0985 28.6506C42.1688 28.6155 42.2157 28.6096 42.286 28.5627C42.3388 28.5275 42.3564 28.51 42.415 28.4689H42.4619C42.5791 28.3927 42.6671 28.3634 42.7784 28.2872H42.8253L43.1008 28.1055L43.3294 27.9238L43.4232 27.83L43.558 27.7421L44.1501 27.2907C44.1618 27.2849 44.1735 27.279 44.1794 27.2732L44.6014 26.9683C44.6073 26.9625 44.619 26.9566 44.6307 26.9508C44.6893 26.9097 44.6659 26.9273 44.7069 26.8921C44.789 26.8218 44.7831 26.8101 44.8769 26.7456L45.0117 26.6577L45.3751 26.2943C45.51 26.1946 45.5334 25.8898 45.5979 25.7198L45.8617 25.2567C45.932 25.1571 45.8148 25.2216 45.9613 25.1161H46.0082C46.0903 25.075 46.1547 25.0633 46.2368 25.0223H46.2837C46.3951 25.0692 46.3071 25.0692 46.4185 25.0223H46.4654C46.5768 25.0692 46.4889 25.0692 46.6002 25.0223H46.6471C46.7761 25.075 46.8816 25.0399 47.0633 25.0633C47.2098 25.0809 47.1981 25.0809 47.2743 25.0868C47.4033 25.0985 47.2567 25.0457 47.4209 25.1102H47.4678C47.6377 25.0399 47.4853 25.0985 47.5674 25.1102C47.5733 25.1102 47.585 25.1161 47.5909 25.1161C47.7081 25.1395 47.7843 25.1688 47.8546 25.0985L47.9836 24.9461C47.9836 24.9343 48.0012 24.9343 48.007 24.9285L48.1419 24.8347H48.1887C48.2532 24.8054 48.3587 24.7644 48.4291 24.7351C48.5229 24.6999 48.4584 24.7468 48.5991 24.653H48.646C48.728 24.612 48.7925 24.6002 48.8746 24.5651H48.9215C48.9625 24.5475 49.0152 24.5299 49.0504 24.5123C49.1325 24.4713 49.0797 24.4947 49.1618 24.4478L49.6952 24.1137H49.7421L49.9121 24.0317C49.9179 24.0317 49.9297 24.0258 49.9355 24.0199C49.9472 24.0141 49.9824 24.0023 49.9941 24.0023C50.2052 23.9496 50.3517 24.0434 50.6096 23.9848C50.8499 23.932 50.721 23.9379 50.9027 23.8206L52.1043 23.2052L52.4678 23.0234C52.5381 22.9883 52.585 22.9824 52.6553 22.9355C52.7081 22.9004 52.7257 22.8828 52.7843 22.8417L53.2356 22.5721C53.2474 22.5662 53.2591 22.5604 53.2649 22.5545L53.3529 22.5018C53.4115 22.4666 53.4232 22.4607 53.4701 22.4373C53.5639 22.3845 53.6108 22.3552 53.6928 22.2966L53.7866 22.2087H53.8335C53.9156 22.1559 53.9097 22.1383 53.9859 22.0856C54.0856 22.0152 54.068 22.0445 54.1559 21.9859C54.2673 21.9097 54.3025 21.8335 54.4256 21.7515L54.5193 21.6635C54.5252 21.6577 54.5428 21.6518 54.5428 21.646C54.6952 21.5287 54.5604 21.5815 54.7011 21.4818L55.0059 21.2474C55.1758 21.095 55.3576 20.9308 55.4631 20.7257C55.4631 20.7198 55.4689 20.7081 55.4748 20.7022L55.6213 20.4326C55.6682 20.3095 55.551 20.415 55.6975 20.3036C55.7327 20.2333 55.7562 20.163 55.7855 20.0868C55.7855 20.0809 55.7913 20.0692 55.7972 20.0633L55.8851 19.9461C55.891 19.9402 55.8968 19.9343 55.9027 19.9285C56.0141 19.8288 56.0434 19.8113 56.1958 19.7995C56.1841 19.6354 56.1372 19.5592 56.0434 19.4889C55.762 19.2778 55.1114 19.3951 54.7421 19.3951C54.7421 19.1782 54.7304 18.8558 54.7245 18.7268L54.5252 18.1348C54.5252 18.129 54.5193 18.1172 54.5193 18.1114C54.5193 18.1055 54.5135 18.0938 54.5135 18.0879L54.49 18.0176C54.408 17.8183 54.2849 17.871 54.1383 17.871C54.0387 17.871 54.068 17.8769 53.9273 17.8476L53.7397 17.7655C53.6518 17.6483 53.7397 17.5193 53.7984 17.408L54.1618 16.9097C54.2966 16.7573 54.2966 16.8511 54.238 16.7163C54.1149 16.6635 53.7925 16.6928 53.6577 16.6928C53.517 16.6928 53.2239 16.6635 53.1008 16.7163H53.0539C52.9426 16.6694 53.0305 16.6694 52.9191 16.7163H52.8722C52.7608 16.6694 52.8488 16.6694 52.7374 16.7163H52.6905C52.5791 16.6694 52.6671 16.6694 52.5557 16.7163H52.5088C52.3974 16.6694 52.4853 16.6694 52.374 16.7163H52.3271C52.2098 16.6694 52.1805 16.7163 52.0164 16.6577C51.6588 16.5346 52.1454 16.306 52.415 16.1243H52.4619L52.7022 15.9836L52.7784 15.9426L53.5287 15.6026C53.6342 15.5498 53.687 15.5322 53.7808 15.4912H53.8277C53.9097 15.4502 53.9742 15.4385 54.0563 15.3974H54.1032C54.1618 15.3036 54.1559 15.1336 54.1911 15.0223C54.2614 14.7995 54.2614 14.9754 54.2614 14.7468L54.279 14.612C54.279 14.6002 54.2907 14.5768 54.2907 14.5651C54.3611 14.2837 54.3318 13.7444 54.4021 13.551C54.49 13.3224 54.9648 13.2696 54.9766 13.2286C54.9824 13.2169 54.9941 13.2169 55.0059 13.211C55.0938 13.17 55.0762 13.1758 55.1934 13.1465L55.3341 13.1055C55.3869 13.0938 55.5744 13.0762 55.6858 13.0234H55.7327C55.7034 13.0234 55.8148 13.0059 55.9437 13Z" fill="white" fill-opacity="0.85"/>
</svg>
