<svg width="24" height="24" viewBox="0 0 24 24" fill="none" xmlns="http://www.w3.org/2000/svg">
<path fill-rule="evenodd" clip-rule="evenodd" d="M15 5.25C15 5.05109 14.921 4.86032 14.7803 4.71967C14.6397 4.57902 14.4489 4.5 14.25 4.5H2.25C2.05109 4.5 1.86032 4.57902 1.71967 4.71967C1.57902 4.86032 1.5 5.05109 1.5 5.25V18.75C1.5 18.9489 1.57902 19.1397 1.71967 19.2803C1.86032 19.421 2.05109 19.5 2.25 19.5H14.25C14.4489 19.5 14.6397 19.421 14.7803 19.2803C14.921 19.1397 15 18.9489 15 18.75V15.75C15 15.5511 15.079 15.3603 15.2197 15.2197C15.3603 15.079 15.5511 15 15.75 15C15.9489 15 16.1397 15.079 16.2803 15.2197C16.421 15.3603 16.5 15.5511 16.5 15.75V18.75C16.5 19.3467 16.2629 19.919 15.841 20.341C15.419 20.7629 14.8467 21 14.25 21H2.25C1.65326 21 1.08097 20.7629 0.65901 20.341C0.237053 19.919 0 19.3467 0 18.75L0 5.25C0 4.65326 0.237053 4.08097 0.65901 3.65901C1.08097 3.23705 1.65326 3 2.25 3H14.25C14.8467 3 15.419 3.23705 15.841 3.65901C16.2629 4.08097 16.5 4.65326 16.5 5.25V8.25C16.5 8.44891 16.421 8.63968 16.2803 8.78033C16.1397 8.92098 15.9489 9 15.75 9C15.5511 9 15.3603 8.92098 15.2197 8.78033C15.079 8.63968 15 8.44891 15 8.25V5.25Z" fill="#1E1E1E"/>
<path fill-rule="evenodd" clip-rule="evenodd" d="M6.21888 12.531C6.14903 12.4613 6.09362 12.3785 6.05581 12.2874C6.018 12.1963 5.99854 12.0986 5.99854 12C5.99854 11.9013 6.018 11.8036 6.05581 11.7125C6.09362 11.6214 6.14903 11.5386 6.21888 11.469L10.7189 6.96897C10.8597 6.82814 11.0507 6.74902 11.2499 6.74902C11.449 6.74902 11.64 6.82814 11.7809 6.96897C11.9217 7.1098 12.0008 7.30081 12.0008 7.49997C12.0008 7.69913 11.9217 7.89014 11.7809 8.03097L8.56038 11.25H21.7499C21.9488 11.25 22.1396 11.329 22.2802 11.4696C22.4209 11.6103 22.4999 11.8011 22.4999 12C22.4999 12.1989 22.4209 12.3896 22.2802 12.5303C22.1396 12.671 21.9488 12.75 21.7499 12.75H8.56038L11.7809 15.969C11.8506 16.0387 11.9059 16.1215 11.9437 16.2126C11.9814 16.3037 12.0008 16.4014 12.0008 16.5C12.0008 16.5986 11.9814 16.6962 11.9437 16.7873C11.9059 16.8785 11.8506 16.9612 11.7809 17.031C11.7111 17.1007 11.6284 17.156 11.5373 17.1938C11.4461 17.2315 11.3485 17.2509 11.2499 17.2509C11.1513 17.2509 11.0536 17.2315 10.9625 17.1938C10.8714 17.156 10.7886 17.1007 10.7189 17.031L6.21888 12.531Z" fill="#1E1E1E"/>
</svg>
