<svg width="16" height="16" viewBox="0 0 16 16" fill="none" xmlns="http://www.w3.org/2000/svg">
<g clip-path="url(#clip0_330_11980)">
<path d="M3.04999 3.05001C2.3999 3.70003 1.88422 4.47174 1.53239 5.32106C1.18057 6.17039 0.999481 7.0807 0.999481 8.00001C0.999481 8.91932 1.18057 9.82963 1.53239 10.679C1.88422 11.5283 2.3999 12.3 3.04999 12.95C3.14107 13.0443 3.19146 13.1706 3.19032 13.3017C3.18918 13.4328 3.1366 13.5582 3.0439 13.6509C2.95119 13.7436 2.82579 13.7962 2.69469 13.7973C2.56359 13.7985 2.43729 13.7481 2.34299 13.657C1.60007 12.9141 1.01076 12.0322 0.608698 11.0616C0.206635 10.0909 -0.000305176 9.05062 -0.000305176 8.00001C-0.000305176 6.9494 0.206635 5.90908 0.608698 4.93845C1.01076 3.96782 1.60007 3.08588 2.34299 2.34301C2.43729 2.25193 2.56359 2.20153 2.69469 2.20267C2.82579 2.20381 2.95119 2.2564 3.0439 2.3491C3.1366 2.4418 3.18918 2.56721 3.19032 2.69831C3.19146 2.82941 3.14107 2.95571 3.04999 3.05001ZM5.17199 5.17201C4.4221 5.92212 4.00084 6.93935 4.00084 8.00001C4.00084 9.06067 4.4221 10.0779 5.17199 10.828C5.21847 10.8745 5.25535 10.9297 5.28051 10.9904C5.30567 11.0512 5.31862 11.1163 5.31862 11.182C5.31862 11.2478 5.30567 11.3129 5.28051 11.3736C5.25535 11.4343 5.21847 11.4895 5.17199 11.536C5.1255 11.5825 5.07031 11.6194 5.00957 11.6445C4.94883 11.6697 4.88373 11.6826 4.81799 11.6826C4.75224 11.6826 4.68714 11.6697 4.6264 11.6445C4.56566 11.6194 4.51047 11.5825 4.46399 11.536C3.99955 11.0717 3.63114 10.5204 3.37978 9.91373C3.12843 9.30702 2.99905 8.65673 2.99905 8.00001C2.99905 7.34329 3.12843 6.693 3.37978 6.08629C3.63114 5.47957 3.99955 4.92832 4.46399 4.46401C4.55787 4.37012 4.68521 4.31738 4.81799 4.31738C4.95076 4.31738 5.0781 4.37012 5.17199 4.46401C5.26587 4.5579 5.31862 4.68523 5.31862 4.81801C5.31862 4.95079 5.26587 5.07812 5.17199 5.17201ZM10.828 4.46401C10.8744 4.41745 10.9296 4.3805 10.9904 4.3553C11.0511 4.33009 11.1162 4.31712 11.182 4.31712C11.2478 4.31712 11.3129 4.33009 11.3736 4.3553C11.4344 4.3805 11.4895 4.41745 11.536 4.46401C12.0004 4.92832 12.3688 5.47957 12.6202 6.08629C12.8715 6.693 13.0009 7.34329 13.0009 8.00001C13.0009 8.65673 12.8715 9.30702 12.6202 9.91373C12.3688 10.5204 12.0004 11.0717 11.536 11.536C11.4895 11.5825 11.4343 11.6194 11.3736 11.6445C11.3128 11.6697 11.2477 11.6826 11.182 11.6826C11.1162 11.6826 11.0511 11.6697 10.9904 11.6445C10.9297 11.6194 10.8745 11.5825 10.828 11.536C10.7815 11.4895 10.7446 11.4343 10.7195 11.3736C10.6943 11.3129 10.6814 11.2478 10.6814 11.182C10.6814 11.1163 10.6943 11.0512 10.7195 10.9904C10.7446 10.9297 10.7815 10.8745 10.828 10.828C11.5779 10.0779 11.9991 9.06067 11.9991 8.00001C11.9991 6.93935 11.5779 5.92212 10.828 5.17201C10.7814 5.12556 10.7445 5.07039 10.7193 5.00964C10.6941 4.9489 10.6811 4.88378 10.6811 4.81801C10.6811 4.75224 10.6941 4.68712 10.7193 4.62638C10.7445 4.56563 10.7814 4.51046 10.828 4.46401ZM12.95 2.34401C13.0438 2.25027 13.1709 2.19762 13.3035 2.19762C13.4361 2.19762 13.5632 2.25027 13.657 2.34401C15.1571 3.84427 15.9998 5.87895 15.9998 8.00051C15.9998 10.1221 15.1571 12.1567 13.657 13.657C13.5627 13.7481 13.4364 13.7985 13.3053 13.7973C13.1742 13.7962 13.0488 13.7436 12.9561 13.6509C12.8634 13.5582 12.8108 13.4328 12.8096 13.3017C12.8085 13.1706 12.8589 13.0443 12.95 12.95C13.6001 12.3 14.1158 11.5283 14.4676 10.679C14.8194 9.82963 15.0005 8.91932 15.0005 8.00001C15.0005 7.0807 14.8194 6.17039 14.4676 5.32106C14.1158 4.47174 13.6001 3.70003 12.95 3.05001C12.8563 2.95625 12.8036 2.82909 12.8036 2.69651C12.8036 2.56393 12.8563 2.43677 12.95 2.34301V2.34401ZM9.99999 8.00001C9.99999 8.53044 9.78927 9.03915 9.4142 9.41422C9.03913 9.7893 8.53042 10 7.99999 10C7.46955 10 6.96085 9.7893 6.58577 9.41422C6.2107 9.03915 5.99999 8.53044 5.99999 8.00001C5.99999 7.46958 6.2107 6.96087 6.58577 6.5858C6.96085 6.21072 7.46955 6.00001 7.99999 6.00001C8.53042 6.00001 9.03913 6.21072 9.4142 6.5858C9.78927 6.96087 9.99999 7.46958 9.99999 8.00001Z" fill="#001007" fill-opacity="0.5"/>
</g>
<defs>
<clipPath id="clip0_330_11980">
<rect width="16" height="16" fill="white"/>
</clipPath>
</defs>
</svg>
