<svg width="24" height="24" viewBox="0 0 24 24" fill="none" xmlns="http://www.w3.org/2000/svg">
<g clip-path="url(#clip0_4_894)">
<path d="M4.57495 4.57498C3.59982 5.55001 2.8263 6.70757 2.29856 7.98155C1.77082 9.25554 1.49919 10.621 1.49919 12C1.49919 13.3789 1.77082 14.7444 2.29856 16.0184C2.8263 17.2924 3.59982 18.4499 4.57495 19.425C4.71157 19.5664 4.78716 19.7559 4.78545 19.9525C4.78375 20.1492 4.70487 20.3373 4.56581 20.4763C4.42676 20.6154 4.23865 20.6943 4.042 20.696C3.84535 20.6977 3.6559 20.6221 3.51445 20.4855C2.40008 19.3712 1.51611 18.0483 0.913016 16.5923C0.309921 15.1364 -0.000488281 13.5759 -0.000488281 12C-0.000488281 10.4241 0.309921 8.86358 0.913016 7.40763C1.51611 5.95169 2.40008 4.62879 3.51445 3.51448C3.6559 3.37786 3.84535 3.30226 4.042 3.30397C4.23865 3.30568 4.42676 3.38456 4.56581 3.52361C4.70487 3.66267 4.78375 3.85078 4.78545 4.04743C4.78716 4.24407 4.71157 4.43352 4.57495 4.57498ZM7.75795 7.75798C6.63312 8.88314 6.00123 10.409 6.00123 12C6.00123 13.591 6.63312 15.1168 7.75795 16.242C7.82768 16.3117 7.883 16.3945 7.92073 16.4856C7.95847 16.5767 7.9779 16.6744 7.9779 16.773C7.9779 16.8716 7.95847 16.9692 7.92073 17.0604C7.883 17.1515 7.82768 17.2342 7.75795 17.304C7.68822 17.3737 7.60543 17.429 7.51432 17.4668C7.42321 17.5045 7.32556 17.5239 7.22695 17.5239C7.12833 17.5239 7.03068 17.5045 6.93957 17.4668C6.84846 17.429 6.76568 17.3737 6.69595 17.304C5.9993 16.6075 5.44668 15.7806 5.06964 14.8706C4.69261 13.9605 4.49855 12.9851 4.49855 12C4.49855 11.0149 4.69261 10.0395 5.06964 9.12939C5.44668 8.21932 5.9993 7.39244 6.69595 6.69598C6.83678 6.55515 7.02778 6.47603 7.22695 6.47603C7.42611 6.47603 7.61712 6.55515 7.75795 6.69598C7.89878 6.83681 7.9779 7.02781 7.9779 7.22698C7.9779 7.42614 7.89878 7.61715 7.75795 7.75798ZM16.2419 6.69598C16.3116 6.62613 16.3944 6.57072 16.4855 6.53291C16.5766 6.4951 16.6743 6.47564 16.7729 6.47564C16.8716 6.47564 16.9693 6.4951 17.0604 6.53291C17.1515 6.57072 17.2343 6.62613 17.3039 6.69598C18.0006 7.39244 18.5532 8.21932 18.9303 9.12939C19.3073 10.0395 19.5013 11.0149 19.5013 12C19.5013 12.9851 19.3073 13.9605 18.9303 14.8706C18.5532 15.7806 18.0006 16.6075 17.3039 17.304C17.2342 17.3737 17.1514 17.429 17.0603 17.4668C16.9692 17.5045 16.8716 17.5239 16.7729 17.5239C16.6743 17.5239 16.5767 17.5045 16.4856 17.4668C16.3945 17.429 16.3117 17.3737 16.2419 17.304C16.1722 17.2342 16.1169 17.1515 16.0792 17.0604C16.0414 16.9692 16.022 16.8716 16.022 16.773C16.022 16.6744 16.0414 16.5767 16.0792 16.4856C16.1169 16.3945 16.1722 16.3117 16.2419 16.242C17.3668 15.1168 17.9987 13.591 17.9987 12C17.9987 10.409 17.3668 8.88314 16.2419 7.75798C16.1721 7.68831 16.1167 7.60555 16.0789 7.51443C16.0411 7.42331 16.0216 7.32563 16.0216 7.22698C16.0216 7.12833 16.0411 7.03064 16.0789 6.93953C16.1167 6.84841 16.1721 6.76565 16.2419 6.69598ZM19.4249 3.51598C19.5656 3.37537 19.7563 3.29639 19.9552 3.29639C20.1541 3.29639 20.3448 3.37537 20.4854 3.51598C22.7356 5.76637 23.9996 8.81839 23.9996 12.0007C23.9996 15.1831 22.7356 18.2351 20.4854 20.4855C20.344 20.6221 20.1545 20.6977 19.9579 20.696C19.7613 20.6943 19.5731 20.6154 19.4341 20.4763C19.295 20.3373 19.2162 20.1492 19.2144 19.9525C19.2127 19.7559 19.2883 19.5664 19.4249 19.425C20.4001 18.4499 21.1736 17.2924 21.7013 16.0184C22.2291 14.7444 22.5007 13.3789 22.5007 12C22.5007 10.621 22.2291 9.25554 21.7013 7.98155C21.1736 6.70757 20.4001 5.55001 19.4249 4.57498C19.2843 4.43433 19.2054 4.2436 19.2054 4.04473C19.2054 3.84585 19.2843 3.65512 19.4249 3.51448V3.51598ZM14.9999 12C14.9999 12.7956 14.6839 13.5587 14.1213 14.1213C13.5587 14.6839 12.7956 15 11.9999 15C11.2043 15 10.4412 14.6839 9.87863 14.1213C9.31602 13.5587 8.99995 12.7956 8.99995 12C8.99995 11.2043 9.31602 10.4413 9.87863 9.87866C10.4412 9.31605 11.2043 8.99998 11.9999 8.99998C12.7956 8.99998 13.5587 9.31605 14.1213 9.87866C14.6839 10.4413 14.9999 11.2043 14.9999 12Z" fill="#1E1E1E"/>
</g>
<defs>
<clipPath id="clip0_4_894">
<rect width="24" height="24" fill="white"/>
</clipPath>
</defs>
</svg>
