<svg width="7" height="10" viewBox="0 0 7 10" fill="none" xmlns="http://www.w3.org/2000/svg">
<path d="M6.105 5.56475L1.9935 9.16175C1.509 9.58625 0.75 9.24125 0.75 8.597V1.403C0.749877 1.25882 0.791316 1.11766 0.869356 0.996419C0.947396 0.875181 1.05873 0.779007 1.19002 0.719416C1.32131 0.659824 1.467 0.639339 1.60963 0.660416C1.75227 0.681492 1.8858 0.743236 1.99425 0.838252L6.10425 4.43525C6.18481 4.50565 6.24937 4.59246 6.29361 4.68987C6.33785 4.78728 6.36073 4.89302 6.36073 5C6.36073 5.10698 6.33785 5.21273 6.29361 5.31013C6.24937 5.40754 6.18481 5.49436 6.10425 5.56475H6.105Z" fill="white" fill-opacity="0.85"/>
</svg>
