<svg width="24" height="24" viewBox="0 0 24 24" fill="none" xmlns="http://www.w3.org/2000/svg">
<path fill-rule="evenodd" clip-rule="evenodd" d="M2.46888 6.969C2.53854 6.89915 2.62131 6.84374 2.71243 6.80593C2.80354 6.76812 2.90122 6.74866 2.99988 6.74866C3.09853 6.74866 3.19621 6.76812 3.28733 6.80593C3.37844 6.84374 3.46121 6.89915 3.53088 6.969L11.9999 15.4395L20.4689 6.969C20.5386 6.89927 20.6214 6.84395 20.7125 6.80621C20.8036 6.76847 20.9013 6.74905 20.9999 6.74905C21.0985 6.74905 21.1961 6.76847 21.2873 6.80621C21.3784 6.84395 21.4611 6.89927 21.5309 6.969C21.6006 7.03873 21.6559 7.12151 21.6937 7.21262C21.7314 7.30373 21.7508 7.40138 21.7508 7.5C21.7508 7.59861 21.7314 7.69626 21.6937 7.78737C21.6559 7.87848 21.6006 7.96127 21.5309 8.031L12.5309 17.031C12.4612 17.1008 12.3784 17.1563 12.2873 17.1941C12.1962 17.2319 12.0985 17.2513 11.9999 17.2513C11.9012 17.2513 11.8035 17.2319 11.7124 17.1941C11.6213 17.1563 11.5385 17.1008 11.4689 17.031L2.46888 8.031C2.39903 7.96133 2.34362 7.87857 2.30581 7.78745C2.268 7.69633 2.24854 7.59865 2.24854 7.5C2.24854 7.40135 2.268 7.30366 2.30581 7.21255C2.34362 7.12143 2.39903 7.03867 2.46888 6.969Z" fill="#1E1E1E"/>
</svg>
