<svg width="18" height="22" viewBox="0 0 18 22" fill="none" xmlns="http://www.w3.org/2000/svg">
<path d="M17.25 7.625V9.875C17.25 10.2728 17.092 10.6544 16.8107 10.9357C16.5294 11.217 16.1478 11.375 15.75 11.375H11.625V20C11.625 20.3978 11.467 20.7794 11.1857 21.0607C10.9044 21.342 10.5228 21.5 10.125 21.5H7.875C7.47718 21.5 7.09564 21.342 6.81434 21.0607C6.53304 20.7794 6.375 20.3978 6.375 20V11.375H2.25C1.85218 11.375 1.47064 11.217 1.18934 10.9357C0.908035 10.6544 0.75 10.2728 0.75 9.875V7.625C0.75 7.22718 0.908035 6.84564 1.18934 6.56434C1.47064 6.28304 1.85218 6.125 2.25 6.125H6.375V2C6.375 1.60218 6.53304 1.22064 6.81434 0.93934C7.09564 0.658035 7.47718 0.5 7.875 0.5H10.125C10.5228 0.5 10.9044 0.658035 11.1857 0.93934C11.467 1.22064 11.625 1.60218 11.625 2V6.125H15.75C16.1478 6.125 16.5294 6.28304 16.8107 6.56434C17.092 6.84564 17.25 7.22718 17.25 7.625Z" fill="black"/>
</svg>
