<svg width="20" height="21" viewBox="0 0 20 21" fill="none" xmlns="http://www.w3.org/2000/svg">
<rect y="0.220703" width="20" height="20" rx="10" fill="white" fill-opacity="0.5"/>
<path d="M16 10.2575C16 6.92297 13.3135 4.21997 10 4.21997C6.68503 4.22072 3.99854 6.92297 3.99854 10.2582C3.99854 13.271 6.19304 15.7685 9.06104 16.2215V12.0027H7.53854V10.2582H9.06254V8.92697C9.06254 7.41422 9.95879 6.57872 11.329 6.57872C11.986 6.57872 12.6723 6.69647 12.6723 6.69647V8.18147H11.9155C11.1708 8.18147 10.9383 8.64722 10.9383 9.12497V10.2575H12.6018L12.3363 12.002H10.9375V16.2207C13.8055 15.7677 16 13.2702 16 10.2575Z" fill="#001007" fill-opacity="0.75"/>
</svg>
