<svg width="12" height="13" viewBox="0 0 12 13" fill="none" xmlns="http://www.w3.org/2000/svg">
<path d="M6 0.0585938C4.37175 0.0585938 4.167 0.0660938 3.52725 0.0945938C2.8875 0.124594 2.45175 0.225094 2.07 0.373594C1.66957 0.524208 1.30687 0.760463 1.00725 1.06584C0.702057 1.36562 0.46583 1.72827 0.315 2.12859C0.1665 2.50959 0.06525 2.94609 0.036 3.58359C0.0075 4.22484 0 4.42884 0 6.05934C0 7.68834 0.0075 7.89234 0.036 8.53209C0.066 9.17109 0.1665 9.60684 0.315 9.98859C0.46875 10.3831 0.6735 10.7176 1.00725 11.0513C1.34025 11.3851 1.67475 11.5906 2.06925 11.7436C2.45175 11.8921 2.88675 11.9933 3.52575 12.0226C4.16625 12.0511 4.37025 12.0586 6 12.0586C7.62975 12.0586 7.833 12.0511 8.4735 12.0226C9.11175 11.9926 9.549 11.8921 9.93075 11.7436C10.3309 11.5929 10.6934 11.3567 10.9927 11.0513C11.3265 10.7176 11.5312 10.3831 11.685 9.98859C11.8327 9.60684 11.934 9.17109 11.964 8.53209C11.9925 7.89234 12 7.68834 12 6.05859C12 4.42884 11.9925 4.22484 11.964 3.58434C11.934 2.94609 11.8327 2.50959 11.685 2.12859C11.5342 1.72826 11.298 1.3656 10.9927 1.06584C10.6932 0.760351 10.3305 0.524078 9.93 0.373594C9.5475 0.225094 9.111 0.123844 8.47275 0.0945938C7.83225 0.0660938 7.629 0.0585938 5.9985 0.0585938H6.00075H6ZM5.46225 1.14009H6.00075C7.60275 1.14009 7.7925 1.14534 8.42475 1.17459C9.00975 1.20084 9.32775 1.29909 9.53925 1.38084C9.819 1.48959 10.0192 1.62009 10.2292 1.83009C10.4392 2.04009 10.569 2.23959 10.6778 2.52009C10.7603 2.73084 10.8578 3.04884 10.884 3.63384C10.9133 4.26609 10.9193 4.45584 10.9193 6.05709C10.9193 7.65834 10.9133 7.84884 10.884 8.48109C10.8578 9.06609 10.7595 9.38334 10.6778 9.59484C10.5816 9.85536 10.428 10.0909 10.2285 10.2841C10.0185 10.4941 9.819 10.6238 9.5385 10.7326C9.3285 10.8151 9.0105 10.9126 8.42475 10.9396C7.7925 10.9681 7.60275 10.9748 6.00075 10.9748C4.39875 10.9748 4.20825 10.9681 3.576 10.9396C2.991 10.9126 2.67375 10.8151 2.46225 10.7326C2.20162 10.6365 1.96584 10.4833 1.77225 10.2841C1.57256 10.0906 1.41879 9.85484 1.32225 9.59409C1.2405 9.38334 1.14225 9.06534 1.116 8.48034C1.0875 7.84809 1.0815 7.65834 1.0815 6.05559C1.0815 4.45359 1.0875 4.26459 1.116 3.63234C1.143 3.04734 1.2405 2.72934 1.323 2.51784C1.43175 2.23809 1.56225 2.03784 1.77225 1.82784C1.98225 1.61784 2.18175 1.48809 2.46225 1.37934C2.67375 1.29684 2.991 1.19934 3.576 1.17234C4.1295 1.14684 4.344 1.13934 5.46225 1.13859V1.14009V1.14009ZM9.20325 2.13609C9.1087 2.13609 9.01507 2.15472 8.92772 2.1909C8.84036 2.22708 8.76099 2.28012 8.69413 2.34698C8.62727 2.41384 8.57424 2.49321 8.53806 2.58056C8.50187 2.66792 8.48325 2.76154 8.48325 2.85609C8.48325 2.95065 8.50187 3.04427 8.53806 3.13163C8.57424 3.21898 8.62727 3.29835 8.69413 3.36521C8.76099 3.43207 8.84036 3.4851 8.92772 3.52129C9.01507 3.55747 9.1087 3.57609 9.20325 3.57609C9.39421 3.57609 9.57734 3.50024 9.71237 3.36521C9.84739 3.23018 9.92325 3.04705 9.92325 2.85609C9.92325 2.66514 9.84739 2.482 9.71237 2.34698C9.57734 2.21195 9.39421 2.13609 9.20325 2.13609V2.13609ZM6.00075 2.97759C5.59205 2.97122 5.18617 3.04621 4.80673 3.1982C4.4273 3.35019 4.08189 3.57615 3.79061 3.86291C3.49934 4.14968 3.26802 4.49152 3.11013 4.86854C2.95224 5.24556 2.87093 5.65022 2.87093 6.05897C2.87093 6.46772 2.95224 6.87238 3.11013 7.2494C3.26802 7.62642 3.49934 7.96826 3.79061 8.25503C4.08189 8.54179 4.4273 8.76775 4.80673 8.91974C5.18617 9.07173 5.59205 9.14672 6.00075 9.14034C6.80966 9.12772 7.58116 8.79753 8.14873 8.22103C8.71631 7.64453 9.03443 6.86797 9.03443 6.05897C9.03443 5.24996 8.71631 4.4734 8.14873 3.89691C7.58116 3.32041 6.80966 2.99021 6.00075 2.97759V2.97759ZM6.00075 4.05834C6.53125 4.05834 7.04002 4.26908 7.41514 4.6442C7.79026 5.01932 8.001 5.52809 8.001 6.05859C8.001 6.58909 7.79026 7.09786 7.41514 7.47298C7.04002 7.8481 6.53125 8.05884 6.00075 8.05884C5.47025 8.05884 4.96148 7.8481 4.58636 7.47298C4.21124 7.09786 4.0005 6.58909 4.0005 6.05859C4.0005 5.52809 4.21124 5.01932 4.58636 4.6442C4.96148 4.26908 5.47025 4.05834 6.00075 4.05834V4.05834Z" fill="#001007" fill-opacity="0.75"/>
</svg>
