<svg width="20" height="21" viewBox="0 0 20 21" fill="none" xmlns="http://www.w3.org/2000/svg">
<rect y="0.220703" width="20" height="20" rx="10" fill="white" fill-opacity="0.5"/>
<path d="M10 4.2207C8.37175 4.2207 8.167 4.2282 7.52725 4.2567C6.8875 4.2867 6.45175 4.3872 6.07 4.5357C5.66957 4.68632 5.30687 4.92257 5.00725 5.22795C4.70206 5.52773 4.46583 5.89038 4.315 6.2907C4.1665 6.6717 4.06525 7.1082 4.036 7.7457C4.0075 8.38695 4 8.59095 4 10.2215C4 11.8505 4.0075 12.0545 4.036 12.6942C4.066 13.3332 4.1665 13.769 4.315 14.1507C4.46875 14.5452 4.6735 14.8797 5.00725 15.2135C5.34025 15.5472 5.67475 15.7527 6.06925 15.9057C6.45175 16.0542 6.88675 16.1555 7.52575 16.1847C8.16625 16.2132 8.37025 16.2207 10 16.2207C11.6298 16.2207 11.833 16.2132 12.4735 16.1847C13.1118 16.1547 13.549 16.0542 13.9307 15.9057C14.3309 15.755 14.6934 15.5188 14.9928 15.2135C15.3265 14.8797 15.5312 14.5452 15.685 14.1507C15.8328 13.769 15.934 13.3332 15.964 12.6942C15.9925 12.0545 16 11.8505 16 10.2207C16 8.59095 15.9925 8.38695 15.964 7.74645C15.934 7.1082 15.8328 6.6717 15.685 6.2907C15.5342 5.89037 15.298 5.52771 14.9928 5.22795C14.6932 4.92246 14.3305 4.68619 13.93 4.5357C13.5475 4.3872 13.111 4.28595 12.4727 4.2567C11.8323 4.2282 11.629 4.2207 9.9985 4.2207H10.0008H10ZM9.46225 5.3022H10.0008C11.6028 5.3022 11.7925 5.30745 12.4247 5.3367C13.0097 5.36295 13.3278 5.4612 13.5392 5.54295C13.819 5.6517 14.0192 5.7822 14.2292 5.9922C14.4392 6.2022 14.569 6.4017 14.6778 6.6822C14.7603 6.89295 14.8577 7.21095 14.884 7.79595C14.9132 8.4282 14.9193 8.61795 14.9193 10.2192C14.9193 11.8205 14.9132 12.011 14.884 12.6432C14.8577 13.2282 14.7595 13.5455 14.6778 13.757C14.5816 14.0175 14.428 14.253 14.2285 14.4462C14.0185 14.6562 13.819 14.786 13.5385 14.8947C13.3285 14.9772 13.0105 15.0747 12.4247 15.1017C11.7925 15.1302 11.6028 15.137 10.0008 15.137C8.39875 15.137 8.20825 15.1302 7.576 15.1017C6.991 15.0747 6.67375 14.9772 6.46225 14.8947C6.20162 14.7986 5.96584 14.6454 5.77225 14.4462C5.57256 14.2527 5.41879 14.0169 5.32225 13.7562C5.2405 13.5455 5.14225 13.2275 5.116 12.6425C5.0875 12.0102 5.0815 11.8205 5.0815 10.2177C5.0815 8.6157 5.0875 8.4267 5.116 7.79445C5.143 7.20945 5.2405 6.89145 5.323 6.67995C5.43175 6.4002 5.56225 6.19995 5.77225 5.98995C5.98225 5.77995 6.18175 5.6502 6.46225 5.54145C6.67375 5.45895 6.991 5.36145 7.576 5.33445C8.1295 5.30895 8.344 5.30145 9.46225 5.3007V5.3022ZM13.2032 6.2982C13.1087 6.2982 13.0151 6.31683 12.9277 6.35301C12.8404 6.38919 12.761 6.44223 12.6941 6.50909C12.6273 6.57594 12.5742 6.65532 12.5381 6.74267C12.5019 6.83003 12.4832 6.92365 12.4832 7.0182C12.4832 7.11275 12.5019 7.20638 12.5381 7.29374C12.5742 7.38109 12.6273 7.46046 12.6941 7.52732C12.761 7.59418 12.8404 7.64721 12.9277 7.6834C13.0151 7.71958 13.1087 7.7382 13.2032 7.7382C13.3942 7.7382 13.5773 7.66235 13.7124 7.52732C13.8474 7.39229 13.9233 7.20916 13.9233 7.0182C13.9233 6.82725 13.8474 6.64411 13.7124 6.50909C13.5773 6.37406 13.3942 6.2982 13.2032 6.2982ZM10.0008 7.1397C9.59205 7.13333 9.18617 7.20832 8.80673 7.36031C8.4273 7.5123 8.08189 7.73826 7.79061 8.02502C7.49934 8.31179 7.26802 8.65363 7.11013 9.03065C6.95224 9.40767 6.87093 9.81233 6.87093 10.2211C6.87093 10.6298 6.95224 11.0345 7.11013 11.4115C7.26802 11.7885 7.49934 12.1304 7.79061 12.4171C8.08189 12.7039 8.4273 12.9299 8.80673 13.0818C9.18617 13.2338 9.59205 13.3088 10.0008 13.3025C10.8097 13.2898 11.5812 12.9596 12.1487 12.3831C12.7163 11.8066 13.0344 11.0301 13.0344 10.2211C13.0344 9.41207 12.7163 8.63551 12.1487 8.05902C11.5812 7.48252 10.8097 7.15232 10.0008 7.1397ZM10.0008 8.22045C10.5312 8.22045 11.04 8.43119 11.4151 8.80631C11.7903 9.18143 12.001 9.6902 12.001 10.2207C12.001 10.7512 11.7903 11.26 11.4151 11.6351C11.04 12.0102 10.5312 12.221 10.0008 12.221C9.47025 12.221 8.96148 12.0102 8.58636 11.6351C8.21124 11.26 8.0005 10.7512 8.0005 10.2207C8.0005 9.6902 8.21124 9.18143 8.58636 8.80631C8.96148 8.43119 9.47025 8.22045 10.0008 8.22045Z" fill="#001007" fill-opacity="0.75"/>
</svg>
