<svg width="356" height="331" viewBox="0 0 356 331" fill="none" xmlns="http://www.w3.org/2000/svg">
<path d="M128.422 292.16C126.342 290.485 124.019 289.146 121.537 288.191C119.203 287.361 116.759 286.894 114.288 286.806C108.965 286.732 103.657 287.408 98.5159 288.815C93.2686 290.109 88.2708 291.717 84.523 293.024C80.7752 294.332 78.375 295.256 78.375 295.256C80.3816 296.393 82.4494 297.416 84.5685 298.319C89.3433 300.401 94.3345 301.927 99.4469 302.87C105.214 304.03 111.162 303.88 116.864 302.429C122.314 300.826 126.892 297.483 128.422 292.16Z" fill="#FFAD00"/>
<path d="M111.995 268.467C113.921 273.222 116.987 277.414 120.912 280.661C122.805 282.157 125.009 283.195 127.357 283.695C129.782 284.205 132.303 283.961 134.59 282.993C134.741 278.099 133.443 273.271 130.864 269.135C128.367 265.304 125.272 261.913 121.699 259.095C118.612 256.59 115.382 254.27 112.027 252.149C109.356 250.454 107.542 249.47 107.542 249.47C107.553 250.022 107.592 250.572 107.659 251.12C107.776 252.16 107.936 253.662 108.223 255.448C108.936 259.932 110.203 264.306 111.995 268.467Z" fill="#FFAD00"/>
<path d="M75.9032 280.929C78.4662 280.906 80.9892 280.282 83.2759 279.105C85.5625 277.929 87.5511 276.232 89.0867 274.147C87.87 271.987 86.241 270.096 84.2954 268.584C82.3498 267.072 80.1267 265.971 77.7565 265.344C72.6259 263.967 67.3404 263.276 62.0339 263.289C56.5869 263.108 51.2202 263.263 47.1773 263.289L40.4238 263.408C40.4238 263.408 40.9295 263.97 41.8735 264.907C42.8066 265.789 44.1781 267.093 45.8665 268.508C50.0207 271.974 54.5932 274.887 59.4732 277.176C64.5962 279.685 70.2164 280.969 75.9032 280.929Z" fill="#FFAD00"/>
<path d="M84.6822 260.712C86.0809 262.689 87.942 264.282 90.0977 265.346C92.2533 266.411 94.6358 266.913 97.0302 266.809C98.8907 262.161 99.0019 256.981 97.3427 252.255C95.8108 247.87 93.6142 243.754 90.8324 240.057C88.6084 236.983 86.2334 234.024 83.7165 231.193C82.7791 230.09 81.9805 229.208 81.3967 228.622C80.8129 228.035 80.5417 227.685 80.5417 227.685C80.5417 227.685 80.3572 228.236 80.0924 229.215C79.7519 230.584 79.4818 231.97 79.283 233.367C78.5972 237.779 78.5715 242.27 79.207 246.69C79.8305 251.76 81.7148 256.586 84.6822 260.712Z" fill="#FFAD00"/>
<path d="M21.5013 222.55C17.7687 221.36 15.3577 220.663 15.3577 220.663C15.3577 220.663 15.5877 221.287 16.0543 222.354C16.5209 223.421 17.313 224.868 18.2721 226.61C19.2313 228.352 20.3967 230.358 21.7682 232.484C22.4583 233.54 23.181 234.623 23.9492 235.71L24.5633 236.544L25.3164 237.569C25.8502 238.23 26.3819 238.921 26.9027 239.591C30.8175 244.6 36.0204 248.41 41.9352 250.598C44.3899 251.508 47.0282 251.784 49.6138 251.402C52.1995 251.021 54.6516 249.994 56.7506 248.413C55.5505 243.496 52.6487 239.183 48.5758 236.261C47.5992 235.457 46.512 234.731 45.4269 233.964C44.3418 233.196 43.1678 232.493 41.9807 231.778C40.7937 231.064 39.5936 230.292 38.3414 229.573C37.1544 228.912 36.0064 228.341 34.8085 227.759C30.4864 225.737 26.0416 223.997 21.5013 222.55Z" fill="#FFAD00"/>
<path d="M57.1605 232.205C57.7767 234.535 58.9991 236.653 60.6992 238.336C62.3992 240.02 64.5142 241.207 66.8218 241.773C69.8267 237.925 71.5259 233.193 71.6656 228.283C71.8059 224.191 71.5435 220.096 70.8822 216.058C70.5848 214.027 70.1497 212.019 69.5801 210.049C69.018 207.998 68.393 206.168 67.844 204.638C67.295 203.108 66.7437 201.824 66.3792 200.949C66.1844 200.498 66.0156 200.035 65.8735 199.564C65.8735 199.564 65.4959 200.074 64.9425 200.98C64.3891 201.886 63.6274 203.165 62.7833 204.768C60.699 208.796 59.0195 213.028 57.7703 217.399C57.4209 218.647 57.1192 219.926 56.8697 221.202C56.6255 222.416 56.4494 223.642 56.3423 224.876C56.2906 226.122 56.3261 227.37 56.4487 228.611C56.5817 229.828 56.8199 231.031 57.1605 232.205Z" fill="#FFAD00"/>
<path d="M15.7799 204.371C16.6585 205.425 17.6281 206.397 18.677 207.275C19.6749 208.144 20.7299 208.944 21.8345 209.667C23.9043 211.14 26.2711 212.127 28.7629 212.554C31.2547 212.981 33.8089 212.839 36.2398 212.137C36.6666 209.682 36.5126 207.159 35.7906 204.777C35.4427 203.647 34.9717 202.559 34.3865 201.535C33.8223 200.475 33.0975 199.496 32.4334 198.472C29.1801 194.346 25.2751 190.797 20.8775 187.97C16.9719 185.18 12.9146 182.617 8.72481 180.292C5.21789 178.378 3.0022 177.185 3.0022 177.185C3.0022 177.185 3.10419 177.871 3.39716 179.015C3.69012 180.16 4.16972 181.782 4.82076 183.73C6.30304 188.569 8.36645 193.204 10.9644 197.531C12.3976 199.931 14.0073 202.218 15.7799 204.371Z" fill="#FFAD00"/>
<path d="M44.1471 202.399C45.2009 204.576 46.7827 206.443 48.7435 207.826C53.0472 205.319 56.2426 201.233 57.6735 196.406C58.0301 195.278 58.3157 194.127 58.5286 192.962C58.6305 192.384 58.7173 191.787 58.7933 191.22C58.8692 190.653 58.9712 190.029 59.058 189.421C59.343 187.08 59.4439 184.721 59.3597 182.365C59.1826 178.352 58.8053 174.351 58.2291 170.378C57.973 168.817 57.6822 167.538 57.476 166.647C57.361 166.187 57.2826 165.719 57.2417 165.247C57.2417 165.247 56.7924 165.63 56.0698 166.396C55.0718 167.418 54.13 168.494 53.2486 169.622C50.4295 173.126 47.9933 176.932 45.983 180.971C43.7721 185.512 42.5816 190.496 42.4978 195.562C42.4957 196.758 42.6504 197.948 42.9579 199.103C43.2325 200.243 43.6306 201.349 44.145 202.399H44.1471Z" fill="#FFAD00"/>
<path d="M6.64543 161.072C7.29091 162.29 8.0159 163.463 8.81555 164.582C9.63013 165.641 10.5108 166.645 11.4523 167.588C13.1981 169.463 15.3385 170.913 17.7135 171.83C20.0885 172.746 22.6366 173.105 25.1674 172.88C26.0442 170.565 26.3641 168.07 26.1006 165.603C25.96 164.433 25.7078 163.28 25.3476 162.159C25.015 161.006 24.6024 159.877 24.1128 158.783C23.0292 156.451 21.6826 154.255 20.1002 152.239C19.2712 151.182 18.4487 150.126 17.6328 149.07C16.7929 148.045 15.9379 147.019 15.0568 146.007C11.4935 142.018 7.55037 138.376 4.81818 135.644C1.99702 132.964 0.0113602 131.211 0.0113602 131.211C0.0113602 131.211 -0.0645937 133.979 0.17629 138.142C0.39605 140.507 0.743066 142.858 1.21578 145.185C1.44581 146.479 1.72793 147.802 2.05128 149.154C2.3402 150.534 2.72677 151.892 3.20796 153.215C4.15874 155.918 5.30779 158.544 6.64543 161.072Z" fill="#FFAD00"/>
<path d="M38.142 169.928C42.7991 168.303 46.6937 164.974 49.0664 160.59C49.6361 159.59 50.1393 158.552 50.5725 157.483C51.0703 156.422 51.5129 155.335 51.8985 154.226C52.6357 152.073 53.1939 149.86 53.5673 147.611C53.9731 145.453 54.4158 143.34 54.6263 141.391C54.7435 140.412 54.8194 139.477 54.891 138.597C54.9627 137.717 54.9822 136.871 55.0842 136.112C55.2816 134.443 55.3772 132.763 55.3706 131.082C53.6832 132.07 52.049 133.148 50.4749 134.313C49.7674 134.829 48.9992 135.426 48.1854 136.077C47.3716 136.727 46.5382 137.446 45.7635 138.205C44.0542 139.865 42.4488 141.633 40.9567 143.497C40.1733 144.465 39.4376 145.481 38.6976 146.559C38.3547 147.095 38.0053 147.646 37.6776 148.193C37.3594 148.734 37.0696 149.291 36.8096 149.863C35.7307 152.075 34.9357 154.419 34.4441 156.837C34.2292 158.001 34.1195 159.181 34.1165 160.365C34.1748 161.523 34.3567 162.67 34.659 163.787C35.2877 166.102 36.4864 168.215 38.142 169.928Z" fill="#FFAD00"/>
<path d="M19.2835 103.831C18.0704 101.465 16.7596 99.145 15.4988 96.9951C14.238 94.8452 13.0053 92.8761 12.0266 91.2113C9.97366 87.8773 8.48929 85.6987 8.48929 85.6987C8.48929 85.6987 7.71239 88.3271 6.90076 92.3888C6.59478 94.4593 6.30832 96.8827 6.12386 99.5155C6.01535 100.825 5.94374 102.175 5.90685 103.562C5.90354 104.987 5.97598 106.411 6.12386 107.828C6.3196 110.684 6.76331 113.516 7.4498 116.291C8.18573 118.94 9.24734 121.483 10.6095 123.861C11.848 126.126 13.5891 128.066 15.6945 129.528C17.7999 130.99 20.2116 131.933 22.7383 132.282C23.4098 131.225 23.9547 130.09 24.3616 128.902C24.7841 127.797 25.0982 126.652 25.2991 125.484C25.6307 123.117 25.5024 120.706 24.9215 118.388C24.4372 115.892 23.699 113.453 22.7188 111.112C21.7032 108.682 20.4358 106.201 19.2835 103.831Z" fill="#FFAD00"/>
<path d="M48.6204 124.787C50.2266 123.186 51.6286 121.385 52.7935 119.429C54.0529 117.593 55.1591 115.653 56.1008 113.63C56.5826 112.662 56.9341 111.694 57.3899 110.763C57.8456 109.833 58.2384 108.902 58.5878 108.011C59.3408 106.223 59.8486 104.567 60.3239 103.147C60.9231 101.604 61.4303 100.025 61.8429 98.4194C59.967 98.9217 58.1196 99.5282 56.3091 100.236C52.2191 101.79 48.3511 103.891 44.8075 106.483C43.7859 107.21 42.8083 107.999 41.88 108.845C40.9745 109.692 40.1133 110.586 39.2997 111.524C37.6759 113.346 36.3154 115.394 35.2589 117.605C34.3363 119.73 33.8483 122.024 33.8245 124.346C33.8114 125.502 33.9664 126.654 34.2846 127.764C34.6708 128.94 35.1947 130.065 35.8449 131.114C40.6993 130.584 45.2187 128.346 48.6204 124.787Z" fill="#FFAD00"/>
<path d="M32.7007 90.4575C33.4089 89.5249 34.0001 88.5065 34.4607 87.4256C34.9203 86.351 35.2603 85.2275 35.4741 84.0761C35.7042 82.9273 35.791 81.7256 35.9234 80.5348C36.0649 77.9975 35.9296 75.4521 35.5197 72.9451C35.1538 70.3019 34.6511 67.6801 34.0137 65.0907C32.6942 59.8405 31.2533 54.9012 29.9859 51.1394C28.7186 47.3777 27.8266 44.9653 27.8266 44.9653C27.8266 44.9653 27.4773 45.532 26.9195 46.5728C26.3618 47.6136 25.6392 49.1284 24.8297 51.0049C22.7466 55.6219 21.2131 60.475 20.2616 65.4612C19.788 68.2675 19.5362 71.1078 19.5086 73.955C19.487 75.3455 19.5945 76.7349 19.8297 78.1049C20.0105 79.4329 20.2875 80.7455 20.6587 82.032C21.3208 84.4861 22.4905 86.7684 24.0897 88.7265C25.7672 90.7107 27.8776 92.2691 30.2528 93.2777C31.1841 92.4478 32.0067 91.5 32.7007 90.4575Z" fill="#FFAD00"/>
<path d="M75.6904 69.6048C76.1548 68.8617 76.4022 68.4185 76.4022 68.4185C76.4022 68.4185 75.8076 68.4185 74.7898 68.4603C73.772 68.5022 72.3223 68.6103 70.5906 68.844C68.5927 69.0898 66.6087 69.4409 64.6466 69.8958C63.5724 70.1626 62.4092 70.4317 61.2938 70.7779C60.1783 71.1241 59.0564 71.543 57.904 71.9994C55.5979 72.9164 53.3843 74.0573 51.2938 75.4062C49.3022 76.7646 47.4962 78.3846 45.9228 80.2242C45.181 81.1156 44.5485 82.0952 44.0391 83.1415C43.5456 84.16 43.1509 85.2249 42.8607 86.3212C42.5846 87.4299 42.4439 88.5689 42.4419 89.7125C42.5075 90.9423 42.7315 92.1581 43.1081 93.3288C45.5849 93.7564 48.1195 93.695 50.5733 93.148C52.8259 92.6211 54.9927 91.7694 57.0078 90.6188C57.9811 90.0478 58.9196 89.4175 59.8181 88.7313C60.2695 88.3917 60.6861 88.0301 61.1071 87.6596C61.5281 87.2892 61.9752 86.9474 62.4092 86.5725C64.0648 85.1149 65.5972 83.5187 66.9903 81.8008C68.3615 80.2682 69.6419 78.6542 70.8249 76.9674C71.0962 76.5837 71.3523 76.2023 71.617 75.8186C71.8818 75.4349 72.1444 75.0733 72.4156 74.7315C72.9213 74.0193 73.3879 73.3335 73.7915 72.7117C74.6357 71.4394 75.2542 70.3523 75.6904 69.6048Z" fill="#FFAD00"/>
<path d="M47.4673 56.5628C49.6106 55.4898 51.4628 53.9 52.8622 51.9322C54.2817 50.0695 55.3151 47.934 55.9004 45.6545C57.1907 40.6395 57.722 35.4541 57.4759 30.2766C57.4759 28.9359 57.4043 27.5974 57.3284 26.3075C57.2524 25.0175 57.2047 23.7651 57.1114 22.5457C56.9334 20.0915 56.6925 17.8159 56.4755 15.8556C56.0979 12.0012 55.6617 9.44556 55.6617 9.44556C55.6617 9.44556 55.2277 9.95051 54.4638 10.7972C53.4081 11.9944 52.4205 13.2519 51.5059 14.5634C50.3492 16.2018 48.9712 18.0739 47.6973 20.2745C46.3444 22.5757 45.1354 24.9611 44.0776 27.4166C42.9818 29.9834 42.116 32.6454 41.4908 35.3702C40.9084 37.9944 40.6619 40.684 40.7573 43.3723C40.8431 45.9389 41.4897 48.454 42.6502 50.7354C43.8108 53.0168 45.4562 55.0074 47.4673 56.5628Z" fill="#FFAD00"/>
<path d="M84.5948 53.771C86.2849 52.5574 87.9051 51.2461 89.4472 49.8438C90.9164 48.5649 92.2575 47.3609 93.3187 46.2738C94.3799 45.1868 95.3001 44.3114 95.9055 43.6565L96.8365 42.6466C94.9208 42.2549 92.9859 41.9671 91.0401 41.7844C89.0371 41.5924 87.0254 41.5077 85.0136 41.5308C82.6483 41.532 80.2866 41.72 77.9499 42.0931C73.0969 42.6977 68.4606 44.4894 64.4387 47.3146C62.6402 48.7141 61.1351 50.4646 60.0117 52.4634C58.9587 54.5835 58.473 56.9477 58.6032 59.3188C63.0692 61.2992 68.0895 61.571 72.7373 60.084C74.9195 59.4511 77.0182 58.5515 78.9872 57.4049C80.9497 56.3487 82.8257 55.1342 84.597 53.7732L84.5948 53.771Z" fill="#FFAD00"/>
<path d="M75.0225 259.873C89.0935 271.807 106.272 279.974 123.134 286.914C136.923 292.611 154.601 301.908 172.637 310.585C157.889 315.424 142.847 319.287 127.607 322.148C125.925 322.413 134.573 331.409 136.198 330.906C151.113 326.324 166.259 320.763 181.181 314.609C197.474 322.172 213.591 328.657 226.851 330.926C228.518 331.222 233.704 322.155 232.035 321.85C217.696 319.209 203.547 315.592 189.685 311.021C214.709 300.298 238.804 288.159 259.639 276.581C281.86 264.542 299.662 245.535 310.394 222.388C320.739 200.408 328.031 176.104 329.109 151.679C330.591 117.866 319.483 84.6895 302.224 56.1827C297.123 47.6656 291.458 39.5109 285.268 31.7751C285.806 29.7584 285.892 27.6449 285.52 25.59C285.098 23.2285 284.188 20.9846 282.851 19.0057C279.931 14.8656 276.082 11.4926 271.623 9.16687C267.739 7.01877 263.595 5.39818 259.296 4.34666C257.945 4.00625 256.576 3.7376 255.197 3.54181C254.709 3.48227 254.329 3.44037 254.069 3.42053C253.945 3.40512 253.822 3.3963 253.697 3.39408C253.738 3.51402 253.787 3.63112 253.843 3.74468C253.964 3.97841 254.116 4.33122 254.34 4.77223C254.774 5.66748 255.425 6.93096 256.239 8.46346C258.196 12.2406 260.343 15.9132 262.671 19.4666C263.973 21.4473 265.398 23.3416 266.937 25.138C267.689 26.017 268.494 26.847 269.348 27.623C270.155 28.4148 271.022 29.1418 271.939 29.7972C273.734 31.0975 275.739 32.0677 277.864 32.6638C279.566 33.0894 281.323 33.2478 283.072 33.1334C294.983 47.8007 304.861 64.0557 312.432 81.4458C322.109 103.006 326.917 126.493 326.503 150.186C325.917 175.985 317.486 202.2 306.136 225.124C297.489 242.747 284.336 257.683 268.057 268.367C253.368 278.069 237.241 285.346 221.228 292.424C209.221 297.716 194.97 303.163 180.53 308.014C149.586 297.445 117.251 283.178 94.8357 270.25C83.0829 263.673 72.5555 255.054 63.7313 244.784C55.1862 234.122 48.3802 222.136 43.573 209.283C33.9464 185.272 27.8461 160.41 29.3435 134.312C31.0796 103.895 42.7983 74.8021 59.0916 49.5588C63.3075 42.9946 67.8663 36.6644 72.7482 30.5954C74.442 30.6785 76.1388 30.5106 77.785 30.0971C79.9114 29.4981 81.9169 28.5225 83.7095 27.2151C84.6214 26.5575 85.4872 25.8362 86.3006 25.0564C87.1567 24.2823 87.9621 23.4521 88.7116 22.5713C90.2458 20.7701 91.6713 18.8762 92.9802 16.8999C95.5714 12.975 97.7936 8.93754 99.4016 5.89238C100.209 4.37973 100.882 3.08758 101.298 2.17469C101.515 1.73369 101.687 1.39631 101.808 1.16037L101.938 0.822998H101.567C101.311 0.822998 100.934 0.895767 100.456 0.955303C99.0775 1.15392 97.7093 1.42254 96.3569 1.76015C92.0602 2.82697 87.915 4.44681 84.022 6.58036C79.5685 8.92038 75.7237 12.2988 72.8024 16.4391C71.4625 18.4114 70.5524 20.6517 70.1332 23.0101C69.7583 25.0276 69.8324 27.1048 70.3502 29.0894C58.9711 43.169 49.4263 58.6807 41.9519 75.2409C32.7257 95.1503 27.479 116.722 26.5159 138.706C25.5762 163.961 32.2992 188.181 41.6047 211.338C49.0613 229.986 59.747 246.93 75.0225 259.873Z" fill="#FFAD00"/>
<path d="M256.229 305.455C261.34 304.52 266.33 302.999 271.103 300.919C273.213 300.009 275.274 298.987 277.277 297.856C277.277 297.856 274.855 296.873 271.129 295.609C267.403 294.346 262.405 292.707 257.143 291.4C252.007 289.988 246.703 289.308 241.383 289.378C238.914 289.464 236.471 289.931 234.14 290.762C231.658 291.71 229.337 293.044 227.258 294.716C228.764 300.074 233.391 303.45 238.807 304.996C244.513 306.437 250.458 306.593 256.229 305.455Z" fill="#FFAD00"/>
<path d="M228.328 286.278C230.668 285.768 232.867 284.734 234.763 283.25C238.67 279.987 241.73 275.8 243.676 271.056C245.451 266.881 246.716 262.501 247.443 258.013C247.734 256.23 247.903 254.726 248.005 253.685C248.107 252.644 248.127 252.051 248.127 252.051C248.127 252.051 246.31 253.03 243.643 254.73C240.282 256.852 237.049 259.177 233.962 261.691C230.395 264.511 227.298 267.896 224.789 271.715C222.208 275.855 220.922 280.692 221.1 285.59C223.384 286.564 225.906 286.804 228.328 286.278Z" fill="#FFAD00"/>
<path d="M293.623 265.893C288.316 265.888 283.03 266.574 277.894 267.932C275.527 268.558 273.307 269.659 271.367 271.171C269.426 272.683 267.803 274.575 266.594 276.735C268.128 278.821 270.116 280.519 272.403 281.695C274.69 282.871 277.214 283.493 279.778 283.513C285.464 283.557 291.083 282.27 296.201 279.751C301.082 277.472 305.651 274.557 309.792 271.081C311.507 269.683 312.865 268.371 313.812 267.48C314.317 267.014 314.795 266.519 315.244 265.996L308.506 265.877C304.43 265.851 299.05 265.732 293.623 265.893Z" fill="#FFAD00"/>
<path d="M258.643 269.377C261.039 269.474 263.421 268.966 265.577 267.897C267.732 266.828 269.592 265.233 270.991 263.253C273.964 259.149 275.847 254.335 276.457 249.276C277.092 244.854 277.063 240.361 276.371 235.948C276.108 234.206 275.806 232.795 275.55 231.785C275.294 230.775 275.101 230.255 275.101 230.255C275.101 230.255 274.788 230.584 274.246 231.192C273.703 231.801 272.864 232.665 271.941 233.779C270.016 235.984 267.421 239.029 264.83 242.616C262.038 246.313 259.836 250.433 258.306 254.826C256.641 259.551 256.761 264.736 258.643 269.377Z" fill="#FFAD00"/>
<path d="M328.758 242.148C329.3 241.486 329.843 240.812 330.35 240.126L331.104 239.101L331.709 238.267C332.462 237.184 333.215 236.097 333.879 235.041C335.251 232.944 336.425 230.922 337.401 229.182C338.378 227.443 339.092 225.956 339.593 224.916C339.863 224.37 340.1 223.809 340.305 223.235C340.305 223.235 337.898 223.948 334.15 225.123C329.617 226.572 325.178 228.311 320.86 230.329C319.663 230.911 318.491 231.504 317.328 232.159C316.084 232.876 314.854 233.601 313.688 234.333C312.523 235.065 311.342 235.773 310.242 236.538C309.142 237.304 308.061 238.011 307.089 238.834C303.009 241.75 300.107 246.068 298.918 250.99C301.014 252.578 303.467 253.609 306.055 253.987C308.642 254.366 311.282 254.082 313.734 253.16C319.647 250.97 324.847 247.158 328.758 242.148Z" fill="#FFAD00"/>
<path d="M297.901 220.003C296.649 215.625 294.97 211.385 292.888 207.346C292.055 205.739 291.321 204.46 290.729 203.553C290.137 202.647 289.807 202.153 289.807 202.153L289.294 203.523C288.971 204.383 288.394 205.666 287.83 207.212C287.265 208.757 286.647 210.588 286.093 212.623C285.515 214.593 285.074 216.603 284.774 218.636C284.131 222.676 283.865 226.769 283.982 230.861C284.1 235.77 285.8 240.505 288.821 244.338C291.128 243.766 293.241 242.578 294.942 240.895C296.643 239.212 297.87 237.098 298.494 234.77C298.849 233.601 299.101 232.402 299.247 231.187C299.357 229.952 299.381 228.71 299.318 227.472C299.215 226.237 299.044 225.009 298.806 223.793C298.539 222.517 298.233 221.236 297.901 220.003Z" fill="#FFAD00"/>
<path d="M352.293 181.581C352.569 180.432 352.671 179.751 352.671 179.751C352.671 179.751 350.464 180.942 346.957 182.858C342.761 185.177 338.703 187.745 334.804 190.547C330.399 193.36 326.49 196.905 323.239 201.034C322.549 202.044 321.842 203.038 321.262 204.097C320.681 205.125 320.214 206.216 319.871 207.349C319.147 209.728 318.998 212.249 319.437 214.699C321.869 215.396 324.423 215.536 326.914 215.109C329.406 214.682 331.773 213.698 333.845 212.229C334.953 211.505 336.013 210.706 337.015 209.836C338.048 208.952 339.012 207.987 339.897 206.95C341.677 204.79 343.296 202.499 344.741 200.095C347.33 195.759 349.392 191.119 350.88 186.278C351.499 184.349 351.996 182.71 352.293 181.581Z" fill="#FFAD00"/>
<path d="M306.904 210.395C308.873 209.011 310.461 207.137 311.515 204.953C312.024 203.908 312.422 202.811 312.703 201.681C313.004 200.525 313.162 199.335 313.173 198.14C313.082 193.069 311.89 188.082 309.682 183.534C307.657 179.508 305.223 175.709 302.418 172.2C301.288 170.815 300.355 169.73 299.597 168.969C298.84 168.208 298.425 167.798 298.425 167.798C298.425 167.798 298.323 168.303 298.176 169.196C298.028 170.089 297.7 171.366 297.423 172.945C296.831 176.911 296.454 180.908 296.292 184.916C296.195 187.273 296.298 189.633 296.598 191.972C296.689 192.57 296.776 193.163 296.848 193.76C296.919 194.358 297.025 194.909 297.114 195.513C297.325 196.68 297.616 197.831 297.983 198.958C299.413 203.787 302.604 207.878 306.904 210.395Z" fill="#FFAD00"/>
<path d="M340.615 148.559C339.714 149.538 338.855 150.565 338.024 151.621C337.192 152.678 336.37 153.714 335.526 154.772C333.964 156.8 332.623 158.995 331.528 161.317C331.034 162.408 330.623 163.537 330.3 164.693C329.921 165.817 329.669 166.98 329.547 168.161C329.278 170.629 329.602 173.125 330.489 175.438C333.019 175.662 335.566 175.302 337.94 174.386C340.314 173.469 342.454 172.02 344.2 170.146C345.142 169.2 346.023 168.192 346.836 167.129C347.635 166.008 348.359 164.835 349.007 163.617C350.348 161.099 351.493 158.478 352.431 155.778C352.917 154.451 353.309 153.09 353.603 151.705C353.92 150.365 354.191 149.026 354.432 147.747C354.901 145.416 355.246 143.06 355.465 140.691C355.706 136.541 355.634 133.802 355.634 133.802C355.634 133.802 353.633 135.514 350.823 138.213C348.108 140.914 344.163 144.578 340.615 148.559Z" fill="#FFAD00"/>
<path d="M321.005 166.307C321.31 165.19 321.494 164.042 321.554 162.885C321.557 161.695 321.439 160.509 321.205 159.343C320.725 156.924 319.935 154.579 318.854 152.369C318.583 151.802 318.29 151.251 318.006 150.704C317.722 150.157 317.324 149.617 316.973 149.081C316.261 148.025 315.467 146.984 314.714 146.018C313.223 144.16 311.61 142.406 309.887 140.768C309.119 140.01 308.31 139.295 307.466 138.625C306.661 137.985 305.884 137.388 305.176 136.872C302.29 134.775 300.28 133.626 300.28 133.626C300.285 135.312 300.379 136.996 300.562 138.671C300.675 139.49 300.742 140.314 300.762 141.141C300.838 142.023 300.916 142.956 301.033 143.935C301.25 145.886 301.684 147.996 302.097 150.17C302.467 152.42 303.025 154.633 303.766 156.786C304.15 157.888 304.59 158.97 305.083 160.027C305.515 161.096 306.018 162.134 306.589 163.134C308.954 167.524 312.851 170.856 317.513 172.472C319.18 170.756 320.382 168.633 321.005 166.307Z" fill="#FFAD00"/>
<path d="M330.728 120.973C329.82 124.451 330.019 128.131 331.297 131.487C331.71 132.673 332.256 133.808 332.924 134.867C335.452 134.518 337.864 133.575 339.97 132.114C342.077 130.652 343.818 128.711 345.057 126.446C346.423 124.066 347.493 121.524 348.241 118.876C348.924 116.095 349.365 113.258 349.56 110.398C349.669 108.971 349.756 107.531 349.777 106.131C349.799 104.731 349.66 103.395 349.56 102.085C349.367 99.4674 349.094 97.0286 348.807 94.9735C347.978 90.9008 347.21 88.2834 347.21 88.2834C347.21 88.2834 345.735 90.4378 343.677 93.796C342.675 95.4454 341.496 97.4101 340.192 99.5799C338.888 101.75 337.616 104.043 336.399 106.415C335.268 108.781 333.977 111.249 332.974 113.692C331.974 116.03 331.221 118.469 330.728 120.969V120.973Z" fill="#FFAD00"/>
<path d="M320.385 120.157C319.329 117.944 317.967 115.896 316.34 114.075C315.52 113.138 314.656 112.245 313.764 111.396C312.83 110.561 311.853 109.776 310.837 109.046C307.286 106.453 303.414 104.348 299.322 102.783C297.511 102.079 295.664 101.477 293.788 100.98C294.215 102.576 294.733 104.146 295.34 105.681C295.804 107.108 296.338 108.792 297.076 110.561C297.419 111.443 297.829 112.375 298.274 113.312C298.719 114.25 299.072 115.227 299.563 116.199C300.498 118.225 301.603 120.165 302.866 121.998C304.034 123.949 305.432 125.748 307.028 127.356C310.424 130.908 314.939 133.135 319.786 133.65C320.434 132.607 320.953 131.487 321.331 130.316C321.649 129.205 321.809 128.054 321.807 126.898C321.776 124.577 321.293 122.286 320.385 120.157Z" fill="#FFAD00"/>
<path d="M327.826 47.5647C327.826 47.5647 326.934 49.9616 325.656 53.7388C324.378 57.516 322.954 62.4267 321.626 67.6901C320.975 70.3075 320.541 72.9116 320.12 75.5445C319.715 78.0506 319.588 80.595 319.742 83.1298C319.866 84.3315 319.959 85.5377 320.176 86.6821C320.391 87.8287 320.733 88.9472 321.194 90.0161C321.655 91.1017 322.237 92.1294 322.93 93.0789C323.632 94.105 324.445 95.0487 325.352 95.8925C327.742 94.8945 329.861 93.3275 331.53 91.3237C333.129 89.3716 334.299 87.0942 334.959 84.6446C335.338 83.3578 335.629 82.0455 335.827 80.7175C336.032 79.3441 336.131 77.9566 336.124 76.5676C336.086 73.721 335.834 70.8815 335.371 68.0738C334.418 63.0859 332.889 58.2298 330.814 53.6065C330 51.7455 329.254 50.2152 328.727 49.159C328.463 48.6069 328.162 48.0742 327.826 47.5647Z" fill="#FFAD00"/>
<path d="M311.613 85.6966C311.111 84.6509 310.478 83.6755 309.73 82.7948C308.16 80.9513 306.353 79.3308 304.359 77.9768C302.28 76.6168 300.071 75.4754 297.766 74.57C296.635 74.1114 295.487 73.688 294.376 73.3374C293.265 72.9868 292.115 72.698 290.986 72.4554C289.031 71.99 287.052 71.6388 285.057 71.4036C283.332 71.1831 281.913 71.0596 280.88 71.0199C279.847 70.9802 279.263 70.978 279.263 70.978C279.263 70.978 279.498 71.4058 279.971 72.1533C280.444 72.9008 281.01 73.9835 281.854 75.2404C282.265 75.8798 282.722 76.5502 283.232 77.2646L284.035 78.3473C284.276 78.7309 284.547 79.1124 284.827 79.4961C286 81.1882 287.278 82.8026 288.653 84.3295C290.038 86.0522 291.566 87.6502 293.221 89.1056C293.655 89.4893 294.107 89.8487 294.523 90.2082C294.94 90.5676 295.379 90.9248 295.826 91.2644C296.719 91.9551 297.658 92.5821 298.636 93.1408C300.642 94.3179 302.815 95.1753 305.077 95.6833C307.528 96.2385 310.063 96.2999 312.538 95.8641C313.319 93.6078 313.403 91.1626 312.779 88.8565C312.502 87.7625 312.109 86.7023 311.607 85.6944L311.613 85.6966Z" fill="#FFAD00"/>
<path d="M308.191 59.1701C310.206 57.6209 311.854 55.6316 313.012 53.349C314.17 51.0664 314.809 48.5487 314.881 45.9818C314.986 43.2824 314.746 40.5807 314.165 37.9444C313.543 35.2188 312.68 32.5554 311.589 29.9864C310.526 27.5312 309.311 25.1472 307.95 22.8487C306.691 20.6635 305.313 18.7716 304.182 17.1377C303.263 15.8268 302.269 14.5708 301.207 13.3759C300.446 12.4939 300.02 12.022 300.02 12.022C300.02 12.022 299.601 14.6085 299.2 18.4475C298.983 20.3945 298.748 22.6833 298.571 25.1221C298.477 26.3437 298.401 27.6072 298.354 28.8883C298.306 30.1694 298.206 31.5167 298.191 32.8574C297.96 38.0391 298.488 43.2268 299.758 48.2508C300.356 50.5207 301.379 52.6522 302.772 54.5285C304.178 56.5019 306.039 58.0955 308.191 59.1701Z" fill="#FFAD00"/>
<path d="M291.249 49.9155C287.228 47.0843 282.593 45.2837 277.738 44.6675C275.398 44.3049 273.035 44.1207 270.668 44.1162C268.435 44.1162 266.393 44.2044 264.642 44.3698C261.104 44.7535 258.852 45.232 258.852 45.232C258.852 45.232 259.169 45.6157 259.774 46.2573C260.379 46.899 261.31 47.7876 262.35 48.8747C263.389 49.9618 264.78 51.1701 266.237 52.4447C267.777 53.8395 269.39 55.1504 271.067 56.3718C272.85 57.7201 274.731 58.9283 276.694 59.9859C278.658 61.1376 280.754 62.0375 282.936 62.665C287.58 64.1781 292.61 63.9058 297.07 61.8999C297.204 59.5306 296.725 57.167 295.681 55.0444C294.557 53.0499 293.05 51.3055 291.249 49.9155Z" fill="#FFAD00"/>
</svg>
