<svg width="56" height="40" viewBox="0 0 56 40" fill="none" xmlns="http://www.w3.org/2000/svg">
<path d="M15.1752 13.6799L16.6566 12.9514L17.7803 14.1631L17.546 12.5257L19.0432 11.8323L17.4177 11.5493L17.2208 9.9093L16.4494 11.3692L14.8301 11.0518L15.9795 12.2358L15.1752 13.6799Z" fill="white" fill-opacity="0.85"/>
<path d="M19.2625 16.5117L19.2578 16.5478C19.2599 16.5387 19.2625 16.5281 19.2669 16.5193L19.2625 16.5117Z" fill="white" fill-opacity="0.85"/>
<path d="M11.3531 13.9939L12.3648 12.8382L13.7625 13.4739L12.9763 12.1547L14.0101 11.0201L12.5142 11.3594L11.7566 10.0233L11.6189 11.5544L10.1133 11.8639L11.5255 12.466L11.3531 13.9939Z" fill="white" fill-opacity="0.85"/>
<path d="M21.452 15.5426L20.7772 14.163L19.2617 14.4106L20.3653 13.3428L19.6631 11.9776L21.0194 12.6958L22.0996 11.6056L21.8327 13.1183L23.205 13.8109L21.6851 14.0229L21.452 15.5426Z" fill="white" fill-opacity="0.85"/>
<path d="M8.43095 25.4087C7.5587 24.9028 7.64272 24.1862 7.5587 23.844C7.47381 23.5048 7.22176 21.7707 7.22176 21.2653C7.22176 20.7593 6.77192 20.1917 6.46181 19.5359C6.152 18.8796 5.33605 17.1511 5.28179 17.0317C5.22373 16.9131 4.85996 16.6147 4.26863 16.8828C3.6776 17.1508 3.00313 16.9432 2.83364 17.0317C2.66473 17.1207 2.04773 17.3295 1.76563 17.3602C1.48412 17.3896 1.51242 17.7473 1.3155 17.8667C1.11888 17.9867 0.556143 17.6568 0.556143 17.6568C0.556143 17.6568 0.275212 17.5102 0.219201 17.3896C0.163482 17.2702 0.163482 17.1029 0.0494172 16.7645C-0.117449 16.2574 0.191778 16.2083 0.191778 16.2083C0.191778 16.2083 0.669041 15.7701 0.83795 15.62C1.00657 15.4717 1.71954 14.6302 1.73646 14.3195C1.76563 13.8124 2.2146 13.5148 2.41355 13.2766C2.51041 13.1566 2.73212 13.0375 2.80534 12.8567C2.88031 12.6795 2.80534 12.4418 2.80534 12.4418C2.49728 12.2036 2.80534 11.2185 2.80534 11.2185H2.91853C2.91853 11.2185 2.91853 11.4865 3.03026 11.6369C3.14403 11.7861 3.36778 12.2923 3.50927 12.1437C3.65017 11.9928 3.90222 12.1726 3.90222 12.1726C3.67759 11.8453 4.01424 11.0392 4.01424 11.0392H4.12802V11.1291C4.12802 11.2185 4.18374 11.5463 4.24033 11.6961C4.29634 11.8453 4.74677 12.5902 4.74677 12.5902C4.74677 12.5902 5.18377 12.8161 5.35239 12.9618C5.52071 13.1075 5.66482 13.0623 5.87049 13.0173C6.2932 12.9271 9.41261 14.7481 10.8473 16.4054C11.614 17.2886 12.2552 17.2699 12.6484 17.2991C13.0428 17.3292 14.7019 18.1345 14.7019 18.1345C14.7019 18.1345 16.5298 18.2545 18.2166 17.6285C19.9036 17.0019 21.2254 16.4658 23.194 17.2402C23.194 17.2402 23.6432 17.4191 23.9256 17.4778C24.2071 17.5388 24.7404 17.747 24.7404 17.747C24.7404 17.747 26.288 17.5385 27.2714 19.745C28.2542 21.9497 28.4526 24.2163 28.0862 26.035C28.0862 26.035 28.0862 25.6461 28.0028 25.4385C27.9187 25.2295 27.4966 26.8388 27.3283 27.1072V26.5109C27.3283 26.4213 26.9044 27.4943 26.8221 27.821C26.7378 28.1495 26.7095 28.4175 26.7095 28.4175C26.7095 28.4175 26.6815 27.4351 26.7938 27.167C26.9044 26.8984 26.5403 27.6426 26.5403 27.5235C26.5403 27.4056 26.5681 26.6599 26.5681 26.4511C26.5681 26.2415 26.3431 26.5705 26.3714 25.1705C26.4003 23.7681 26.6246 22.7258 26.4003 21.7412C26.1736 20.759 26.26 20.6087 26.26 20.6087C26.26 20.6087 26.2323 21.4431 26.1465 21.6218C26.1465 21.6218 25.8653 23.4102 25.3869 24.2449C24.9084 25.08 24.2643 25.915 24.4878 26.5705C24.7118 27.2263 25.0508 27.9708 25.0508 28.2097C25.0508 28.4479 25.1062 28.5078 25.1917 28.6876C25.2751 28.8649 25.5849 29.4628 25.3869 29.9095C25.1917 30.3568 25.2188 31.3113 25.2188 31.8769C25.2188 32.443 25.2465 34.0524 25.2465 34.1721C25.2465 34.2912 25.2465 34.4095 25.1328 34.4699C25.0234 34.5306 24.9653 34.6778 24.9376 34.768C24.9084 34.8579 24.6278 34.9169 24.6278 35.1263C24.6278 35.3339 24.7973 35.6042 24.7973 35.693C24.7973 35.7817 24.5432 35.9598 24.5432 35.9598C24.5432 35.9598 23.2226 36.0501 23.2226 35.9598C23.2226 35.8699 23.7004 35.2141 23.7004 35.2141C23.7004 35.2141 23.7004 35.0054 23.8976 34.9166C24.0931 34.8276 24.178 34.6775 24.178 34.3514C24.178 34.022 24.1222 33.9613 24.2348 33.6351C24.3472 33.3073 24.2643 30.7425 24.2643 30.7425L24.178 30.6243C24.178 30.6243 23.673 32.4115 23.6432 32.7414C23.6158 33.0684 23.7293 33.5458 23.4189 33.9023C23.1085 34.2611 22.8564 34.4095 22.8564 34.4095C22.8564 34.4095 22.7158 34.6194 22.8284 34.768C22.9416 34.9169 23.0814 35.1263 22.9971 35.2144C22.9136 35.3047 22.7158 35.3639 22.7158 35.3639C22.7158 35.3639 21.7879 35.5432 21.5075 35.4238C21.5075 35.4238 21.7033 34.9169 21.759 34.7987C21.8159 34.6775 21.8719 34.5 22.0691 34.3225C22.2654 34.1417 22.4629 34.1718 22.4629 33.9023C22.4629 33.6354 22.6026 33.5458 22.8004 33.0395C22.9971 32.5315 23.194 30.8634 23.194 30.6552C23.194 30.4453 22.8004 29.4628 22.8004 28.7162V27.4053C22.8004 27.4053 22.4903 27.0774 22.2931 26.2707C22.0991 25.4674 21.3094 24.5135 21.1137 24.334C20.9176 24.1556 20.8039 24.216 20.5795 24.2449C20.3543 24.2753 20.3543 24.1556 20.0994 24.037C19.8476 23.9179 18.8067 24.5135 18.3578 24.8426C17.9143 25.1649 15.8956 25.8318 13.6627 26.0814C13.6242 26.0855 13.5866 26.089 13.5475 26.0928C11.2697 26.3308 12.4804 26.2704 12.3666 26.2704C12.3666 26.2704 12.5921 27.1369 12.6764 27.911C12.7607 28.687 12.9305 29.4304 12.9305 29.8786C12.9305 30.3274 12.9019 31.1014 12.9851 31.25C13.0711 31.3995 13.3833 32.8004 13.3833 32.8004C13.3833 32.8004 13.8282 33.2477 13.717 33.4264C13.6041 33.6039 13.3859 33.6351 13.3833 33.9338C13.3789 34.2311 13.2739 34.7385 13.3833 34.8276C13.4927 34.9169 13.5271 35.0051 13.3833 35.0363C13.2389 35.0655 13.0428 35.2141 13.0428 35.2141C13.0428 35.2141 12.7893 35.5429 11.9468 35.3636C11.9468 35.3636 11.9468 35.126 12.1717 34.8868C12.3961 34.6495 12.3961 34.6495 12.5641 34.5601C12.7327 34.4693 12.6484 34.3225 12.7607 34.022C12.8736 33.7242 12.9305 33.5455 12.9305 33.5455C12.9305 33.5455 12.705 33.337 12.705 33.0681C12.705 32.8004 12.2552 31.429 12.1989 31.2798C12.1426 31.1309 11.7487 30.5344 11.5804 29.8491C11.4112 29.1633 10.9894 27.8517 10.8199 27.4654C10.6524 27.0771 10.6241 27.2263 10.6241 27.5229C10.6241 27.821 10.2959 28.7466 10.4745 29.2532C10.6524 29.7598 10.6338 30.7425 10.4745 30.951C10.3143 31.1612 10.3143 31.6383 10.3143 31.9948C10.3143 32.3528 10.4103 33.2477 10.4745 33.4565C10.5395 33.6643 10.6898 33.8436 10.4745 34.022C10.2577 34.2016 10.1749 34.3222 10.0885 34.4092C10.0054 34.4997 9.8925 35.0051 9.8925 35.0956C9.8925 35.1832 10.146 35.3333 10.0623 35.3937C9.97681 35.453 9.72505 35.7815 9.72505 35.7815C9.72505 35.7815 8.87992 35.8407 8.40353 35.7511V35.632C8.40353 35.632 8.85717 34.9166 9.09346 34.7674C9.32976 34.6188 9.27345 34.4693 9.38664 34.2906C9.49808 34.1137 9.6384 33.6641 9.6384 33.5452C9.6384 33.4261 9.6384 33.128 9.66699 33.0389C9.69646 32.9484 9.58385 31.3697 9.58385 31.3697C9.58385 31.3697 9.27346 30.4447 9.30205 29.7595C9.32976 29.0742 9.34726 28.558 9.09346 28.1784C8.17774 26.8111 8.43095 25.4087 8.43095 25.4087Z" fill="white" fill-opacity="0.85"/>
<path d="M26.7369 14.817C29.1909 17.3896 30.2635 20.3917 30.2635 24.2294C30.2635 28.3396 28.5333 32.0421 25.7643 34.6547C25.7584 34.6623 25.7514 34.6693 25.7441 34.6754C34.3678 30.6427 42.0924 22.246 42.0924 22.246C36.9974 21.5873 31.1273 18.4069 26.7369 14.817Z" fill="#FFCD00"/>
<path d="M51.573 4C52.0211 7.7767 52.5978 12.3315 50.4219 19.0618L54.5177 7.83655C55.3444 5.4555 52.5337 4.17431 51.573 4Z" fill="#006B2D"/>
<path d="M51.2863 8.43135C44.6257 13.4618 24.9722 6.18723 16.7356 6.81031C9.1184 7.38608 6.06055 12.0139 6.06055 12.0139C6.07017 12.0063 6.07951 12.0005 6.08826 11.9932C8.64727 10.0606 11.8323 8.91341 15.2846 8.91341C19.2033 8.91341 22.3633 10.3213 25.4809 12.8168C26.8115 14.0355 28.2097 14.7938 29.5111 15.5786C40.3227 22.1028 44.9267 21.2736 44.9267 21.2736C36.8057 31.467 25.915 35.3862 25.915 35.3862C36.2179 37.1135 43.4424 34.5129 43.4433 34.5129L50.4211 19.0619L50.4386 19.0239C51.3149 15.5865 51.7583 10.8842 51.2863 8.43135Z" fill="#009640"/>
</svg>
