<svg width="22" height="22" viewBox="0 0 22 22" fill="none" xmlns="http://www.w3.org/2000/svg">
<g filter="url(#filter0_d_2954_12113)">
<path d="M10.3624 3.96275C10.9001 3.4297 11.7669 3.4297 12.3046 3.96275L12.7541 4.40839C13.0407 4.6925 13.4373 4.83687 13.8395 4.80343L14.4703 4.75099C15.2248 4.68826 15.8888 5.24546 15.9581 5.99941L16.016 6.62972C16.0529 7.03158 16.2639 7.39712 16.5935 7.63001L17.1104 7.9953C17.7287 8.43224 17.8792 9.28592 17.4477 9.90799L17.0868 10.428C16.8568 10.7596 16.7835 11.1753 16.8863 11.5655L17.0475 12.1776C17.2403 12.9098 16.8068 13.6605 16.0764 13.8596L15.4657 14.0261C15.0763 14.1322 14.753 14.4035 14.5809 14.7685L14.3109 15.341C13.988 16.0258 13.1734 16.3223 12.4858 16.0053L11.911 15.7403C11.5445 15.5713 11.1225 15.5713 10.756 15.7403L10.1812 16.0053C9.49361 16.3223 8.67903 16.0258 8.3561 15.341L8.08613 14.7685C7.914 14.4035 7.59066 14.1322 7.20131 14.0261L6.59064 13.8596C5.86016 13.6605 5.42674 12.9098 5.61954 12.1776L5.78072 11.5655C5.88348 11.1753 5.81018 10.7596 5.58015 10.428L5.21934 9.90799C4.78775 9.28592 4.93828 8.43224 5.5566 7.9953L6.07351 7.63001C6.40308 7.39712 6.61413 7.03158 6.65103 6.62972L6.70892 5.99941C6.77817 5.24546 7.44221 4.68826 8.19673 4.75099L8.82752 4.80343C9.22968 4.83687 9.62632 4.6925 9.9129 4.40838L10.3624 3.96275Z" fill="url(#paint0_linear_2954_12113)"/>
<path d="M10.6089 4.21094C11.0101 3.81344 11.6569 3.81344 12.0581 4.21094L12.5073 4.65723C12.8666 5.01344 13.3644 5.19426 13.8687 5.15234L14.4995 5.09961C15.0624 5.05295 15.5581 5.46877 15.6099 6.03125L15.6675 6.66211C15.7138 7.16572 15.9781 7.6241 16.3911 7.91602L16.9087 8.28125C17.3699 8.60734 17.4816 9.24388 17.1597 9.70801L16.7993 10.2285C16.511 10.6441 16.4187 11.1652 16.5474 11.6543L16.7095 12.2666C16.8533 12.813 16.529 13.3729 15.9839 13.5215L15.3735 13.6885C14.8855 13.8216 14.4799 14.1616 14.2642 14.6191L13.9946 15.1914C13.7536 15.7024 13.1454 15.9241 12.6323 15.6875L12.0571 15.4229C11.5978 15.2111 11.0692 15.2111 10.6099 15.4229L10.0347 15.6875C9.52157 15.9241 8.91335 15.7024 8.67236 15.1914L8.40283 14.6191C8.18704 14.1616 7.78154 13.8216 7.29346 13.6885L6.68311 13.5215C6.13799 13.3729 5.81364 12.813 5.95752 12.2666L6.11963 11.6543C6.24829 11.1652 6.156 10.6441 5.86768 10.2285L5.50732 9.70801C5.18541 9.24388 5.29712 8.60734 5.7583 8.28125L6.27588 7.91602C6.68887 7.6241 6.95315 7.16572 6.99951 6.66211L7.05713 6.03125C7.10886 5.46877 7.60457 5.05295 8.16748 5.09961L8.79834 5.15234C9.30255 5.19426 9.80036 5.01344 10.1597 4.65723L10.6089 4.21094Z" stroke="#8C421D" stroke-width="0.7"/>
</g>
<defs>
<filter id="filter0_d_2954_12113" x="0.973145" y="0.562988" width="20.7207" height="20.5693" filterUnits="userSpaceOnUse" color-interpolation-filters="sRGB">
<feFlood flood-opacity="0" result="BackgroundImageFix"/>
<feColorMatrix in="SourceAlpha" type="matrix" values="0 0 0 0 0 0 0 0 0 0 0 0 0 0 0 0 0 0 127 0" result="hardAlpha"/>
<feOffset dy="1"/>
<feGaussianBlur stdDeviation="2"/>
<feComposite in2="hardAlpha" operator="out"/>
<feColorMatrix type="matrix" values="0 0 0 0 0.122559 0 0 0 0 0.0958559 0 0 0 0 0 0 0 0 0.3 0"/>
<feBlend mode="normal" in2="BackgroundImageFix" result="effect1_dropShadow_2954_12113"/>
<feBlend mode="normal" in="SourceGraphic" in2="effect1_dropShadow_2954_12113" result="shape"/>
</filter>
<linearGradient id="paint0_linear_2954_12113" x1="6.5735" y1="15.32" x2="16.1168" y2="5.50833" gradientUnits="userSpaceOnUse">
<stop stop-color="#8C421D"/>
<stop offset="0.325272" stop-color="#FBE67B"/>
<stop offset="0.535488" stop-color="#FCFBE7"/>
<stop offset="0.769917" stop-color="#F7D14E"/>
<stop offset="1" stop-color="#D4A041"/>
</linearGradient>
</defs>
</svg>
