<svg width="129" height="116" viewBox="0 0 129 116" fill="none" xmlns="http://www.w3.org/2000/svg">
<g filter="url(#filter0_d_1211_15009)">
<path d="M51.9306 14.0172C55.2911 10.6856 60.7089 10.6856 64.0694 14.0172L68.5504 18.4597C70.3415 20.2354 72.8205 21.1377 75.334 20.9287L81.6222 20.4059C86.338 20.0138 90.4882 23.4963 90.921 28.2085L91.4981 34.492C91.7288 37.0036 93.0478 39.2882 95.1076 40.7438L100.261 44.3853C104.125 47.1162 105.066 52.4517 102.369 56.3396L98.7717 61.524C97.3339 63.5963 96.8758 66.1942 97.5181 68.6333L99.1249 74.7352C100.33 79.3112 97.621 84.0032 93.0555 85.2476L86.9678 86.9071C84.5343 87.5704 82.5135 89.2661 81.4377 91.5473L78.7464 97.2545C76.728 101.534 71.6369 103.387 67.3397 101.406L61.6095 98.7642C59.319 97.7082 56.681 97.7082 54.3905 98.7642L48.6603 101.406C44.3631 103.387 39.272 101.534 37.2536 97.2545L34.5623 91.5473C33.4865 89.2661 31.4657 87.5704 29.0322 86.9071L22.9445 85.2476C18.379 84.0032 15.6701 79.3112 16.8751 74.7352L18.4819 68.6333C19.1241 66.1942 18.6661 63.5963 17.2283 61.524L13.6315 56.3396C10.934 52.4517 11.8748 47.1162 15.7393 44.3853L20.8924 40.7438C22.9522 39.2882 24.2712 37.0036 24.5019 34.492L25.079 28.2085C25.5118 23.4963 29.662 20.0138 34.3778 20.4059L40.666 20.9287C43.1795 21.1377 45.6585 20.2354 47.4496 18.4597L51.9306 14.0172Z" fill="url(#paint0_linear_1211_15009)"/>
<path d="M53.0303 15.127C55.7817 12.3992 60.2183 12.3992 62.9697 15.127L67.4502 19.5693C69.566 21.6669 72.4948 22.7322 75.4639 22.4854L81.752 21.9629C85.6129 21.6421 89.0109 24.4936 89.3652 28.3516L89.9424 34.6348C90.2149 37.6016 91.7729 40.3001 94.2061 42.0195L99.3594 45.6611C102.523 47.8971 103.293 52.266 101.085 55.4492L97.4883 60.6328C95.7899 63.0807 95.2482 66.1501 96.0068 69.0312L97.6143 75.1328C98.6009 78.8794 96.3825 82.7213 92.6445 83.7402L86.5566 85.3994C83.6822 86.183 81.2952 88.1862 80.0244 90.8809L77.333 96.5879C75.6805 100.092 71.5125 101.609 67.9941 99.9873L62.2637 97.3457C59.5581 96.0982 56.4419 96.0982 53.7363 97.3457L48.0059 99.9873C44.4875 101.609 40.3195 100.092 38.667 96.5879L35.9756 90.8809C34.7048 88.1862 32.3178 86.183 29.4434 85.3994L23.3555 83.7402C19.6175 82.7213 17.3992 78.8794 18.3857 75.1328L19.9932 69.0312C20.7518 66.1501 20.21 63.0807 18.5117 60.6328L14.915 55.4492C12.7066 52.266 13.4767 47.8971 16.6406 45.6611L21.7939 42.0195C24.2271 40.3001 25.7851 37.6016 26.0576 34.6348L26.6348 28.3516C26.9891 24.4935 30.3871 21.6421 34.248 21.9629L40.5361 22.4854C43.5052 22.7322 46.434 21.6669 48.5498 19.5693L53.0303 15.127Z" stroke="#8C421D" stroke-width="3.125"/>
</g>
<defs>
<filter id="filter0_d_1211_15009" x="-12.9072" y="-7.23151" width="141.814" height="140.682" filterUnits="userSpaceOnUse" color-interpolation-filters="sRGB">
<feFlood flood-opacity="0" result="BackgroundImageFix"/>
<feColorMatrix in="SourceAlpha" type="matrix" values="0 0 0 0 0 0 0 0 0 0 0 0 0 0 0 0 0 0 127 0" result="hardAlpha"/>
<feOffset dy="6.25"/>
<feGaussianBlur stdDeviation="12.5"/>
<feComposite in2="hardAlpha" operator="out"/>
<feColorMatrix type="matrix" values="0 0 0 0 0.122559 0 0 0 0 0.0958559 0 0 0 0 0 0 0 0 0.3 0"/>
<feBlend mode="normal" in2="BackgroundImageFix" result="effect1_dropShadow_1211_15009"/>
<feBlend mode="normal" in="SourceGraphic" in2="effect1_dropShadow_1211_15009" result="shape"/>
</filter>
<linearGradient id="paint0_linear_1211_15009" x1="24" y1="96" x2="92.1667" y2="25.9167" gradientUnits="userSpaceOnUse">
<stop stop-color="#8C421D"/>
<stop offset="0.325272" stop-color="#FBE67B"/>
<stop offset="0.535488" stop-color="#FCFBE7"/>
<stop offset="0.769917" stop-color="#F7D14E"/>
<stop offset="1" stop-color="#D4A041"/>
</linearGradient>
</defs>
</svg>
