<svg width="38" height="38" viewBox="0 0 38 38" fill="none" xmlns="http://www.w3.org/2000/svg">
<g clip-path="url(#clip0_1399_1225)">
<path d="M26.0312 14.3125C26.0312 16.1773 25.2905 17.9657 23.9718 19.2843C22.6532 20.603 20.8648 21.3438 19 21.3438C17.1352 21.3438 15.3468 20.603 14.0282 19.2843C12.7095 17.9657 11.9688 16.1773 11.9688 14.3125C11.9688 12.4477 12.7095 10.6593 14.0282 9.34066C15.3468 8.02204 17.1352 7.28125 19 7.28125C20.8648 7.28125 22.6532 8.02204 23.9718 9.34066C25.2905 10.6593 26.0312 12.4477 26.0312 14.3125Z" fill="#002710" fill-opacity="0.25"/>
<path fill-rule="evenodd" clip-rule="evenodd" d="M0.25 19C0.25 14.0272 2.22544 9.25805 5.74175 5.74175C9.25805 2.22544 14.0272 0.25 19 0.25C23.9728 0.25 28.7419 2.22544 32.2583 5.74175C35.7746 9.25805 37.75 14.0272 37.75 19C37.75 23.9728 35.7746 28.7419 32.2583 32.2583C28.7419 35.7746 23.9728 37.75 19 37.75C14.0272 37.75 9.25805 35.7746 5.74175 32.2583C2.22544 28.7419 0.25 23.9728 0.25 19ZM19 2.59375C15.9104 2.59391 12.8837 3.46648 10.2681 5.111C7.65259 6.75553 5.55457 9.10518 4.21554 11.8895C2.87651 14.6739 2.35091 17.7797 2.69921 20.8496C3.04752 23.9195 4.25559 26.8286 6.18438 29.2422C7.84844 26.5609 11.5117 23.6875 19 23.6875C26.4883 23.6875 30.1492 26.5586 31.8156 29.2422C33.7444 26.8286 34.9525 23.9195 35.3008 20.8496C35.6491 17.7797 35.1235 14.6739 33.7845 11.8895C32.4454 9.10518 30.3474 6.75553 27.7319 5.111C25.1163 3.46648 22.0896 2.59391 19 2.59375Z" fill="#002710" fill-opacity="0.25"/>
</g>
<defs>
<clipPath id="clip0_1399_1225">
<rect width="37.5" height="37.5" fill="white" transform="translate(0.25 0.25)"/>
</clipPath>
</defs>
</svg>
