<svg width="8" height="8" viewBox="0 0 8 8" fill="none" xmlns="http://www.w3.org/2000/svg">
<path d="M4 0.5C4.11603 0.5 4.22731 0.546094 4.30936 0.628141C4.39141 0.710188 4.4375 0.821468 4.4375 0.9375V3.5625H7.0625C7.17853 3.5625 7.28981 3.60859 7.37186 3.69064C7.45391 3.77269 7.5 3.88397 7.5 4C7.5 4.11603 7.45391 4.22731 7.37186 4.30936C7.28981 4.39141 7.17853 4.4375 7.0625 4.4375H4.4375V7.0625C4.4375 7.17853 4.39141 7.28981 4.30936 7.37186C4.22731 7.45391 4.11603 7.5 4 7.5C3.88397 7.5 3.77269 7.45391 3.69064 7.37186C3.60859 7.28981 3.5625 7.17853 3.5625 7.0625V4.4375H0.9375C0.821468 4.4375 0.710188 4.39141 0.628141 4.30936C0.546094 4.22731 0.5 4.11603 0.5 4C0.5 3.88397 0.546094 3.77269 0.628141 3.69064C0.710188 3.60859 0.821468 3.5625 0.9375 3.5625H3.5625V0.9375C3.5625 0.821468 3.60859 0.710188 3.69064 0.628141C3.77269 0.546094 3.88397 0.5 4 0.5V0.5Z" fill="#001007" fill-opacity="0.5"/>
</svg>
