<svg width="12" height="12" viewBox="0 0 12 12" fill="none" xmlns="http://www.w3.org/2000/svg">
<g clip-path="url(#clip0_1565_4306)">
<path d="M8.80668 7.75753C9.53291 6.76654 9.85817 5.53789 9.71741 4.31739C9.57665 3.09688 8.98024 1.97453 8.04751 1.17487C7.11477 0.375217 5.9145 -0.0427713 4.68681 0.00453359C3.45913 0.0518385 2.29457 0.560948 1.42614 1.43001C0.557699 2.29907 0.049423 3.46398 0.00299662 4.6917C-0.0434297 5.91942 0.375417 7.1194 1.17574 8.05156C1.97606 8.98372 3.09884 9.57933 4.31945 9.71922C5.54006 9.8591 6.76847 9.53296 7.75893 8.80603H7.75818C7.78068 8.83603 7.80469 8.86453 7.83169 8.89228L10.7192 11.7798C10.8598 11.9205 11.0506 11.9996 11.2495 11.9997C11.4485 11.9997 11.6393 11.9208 11.7801 11.7802C11.9208 11.6395 11.9999 11.4487 12 11.2498C12 11.0508 11.9211 10.86 11.7804 10.7193L8.89293 7.83178C8.86612 7.80463 8.83729 7.77956 8.80668 7.75678V7.75753ZM9.00019 4.87453C9.00019 5.41623 8.89349 5.95263 8.68619 6.4531C8.47889 6.95356 8.17504 7.4083 7.792 7.79134C7.40896 8.17438 6.95422 8.47823 6.45375 8.68553C5.95329 8.89283 5.41689 8.99953 4.87519 8.99953C4.33348 8.99953 3.79708 8.89283 3.29662 8.68553C2.79615 8.47823 2.34141 8.17438 1.95837 7.79134C1.57533 7.4083 1.27148 6.95356 1.06418 6.4531C0.856881 5.95263 0.750185 5.41623 0.750185 4.87453C0.750185 3.78051 1.18478 2.7313 1.95837 1.95771C2.73196 1.18412 3.78117 0.749526 4.87519 0.749526C5.9692 0.749526 7.01841 1.18412 7.792 1.95771C8.56559 2.7313 9.00019 3.78051 9.00019 4.87453Z" fill="white" fill-opacity="0.5"/>
</g>
<defs>
<clipPath id="clip0_1565_4306">
<rect width="12" height="12" fill="white"/>
</clipPath>
</defs>
</svg>
