<svg width="16" height="16" viewBox="0 0 16 16" fill="none" xmlns="http://www.w3.org/2000/svg">
<path d="M2.866 14.85C2.788 15.294 3.226 15.641 3.612 15.443L8.002 13.187L12.391 15.443C12.777 15.641 13.215 15.294 13.137 14.851L12.307 10.121L15.829 6.76497C16.159 6.45097 15.989 5.87697 15.547 5.81497L10.649 5.11897L8.465 0.791969C8.42339 0.704258 8.35775 0.630152 8.27571 0.578261C8.19366 0.526371 8.09858 0.498825 8.0015 0.498825C7.90442 0.498825 7.80933 0.526371 7.72729 0.578261C7.64524 0.630152 7.5796 0.704258 7.538 0.791969L5.354 5.11997L0.455996 5.81597C0.0149962 5.87797 -0.156004 6.45197 0.172996 6.76597L3.696 10.122L2.866 14.852V14.85ZM7.771 12.083L4.085 13.977L4.779 10.02C4.79525 9.92888 4.78889 9.83519 4.76047 9.74714C4.73205 9.65909 4.68244 9.57936 4.616 9.51497L1.71 6.74497L5.762 6.16897C5.8459 6.1563 5.92548 6.12348 5.99393 6.07332C6.06237 6.02316 6.11764 5.95716 6.155 5.88097L8 2.22297L9.847 5.88097C9.88435 5.95716 9.93962 6.02316 10.0081 6.07332C10.0765 6.12348 10.1561 6.1563 10.24 6.16897L14.292 6.74397L11.386 9.51397C11.3194 9.57846 11.2697 9.65836 11.2413 9.7466C11.2128 9.83484 11.2066 9.92873 11.223 10.02L11.917 13.977L8.231 12.083C8.15972 12.0462 8.08069 12.027 8.0005 12.027C7.9203 12.027 7.84127 12.0462 7.77 12.083H7.771Z" fill="#001007" fill-opacity="0.5"/>
</svg>
