<svg width="24" height="24" viewBox="0 0 24 24" fill="none" xmlns="http://www.w3.org/2000/svg">
<path d="M6.96888 6.96888C7.03854 6.89903 7.12131 6.84362 7.21242 6.80581C7.30354 6.768 7.40122 6.74854 7.49988 6.74854C7.59853 6.74854 7.69621 6.768 7.78733 6.80581C7.87844 6.84362 7.96121 6.89903 8.03088 6.96888L11.9999 10.9394L15.9689 6.96888C16.0386 6.89914 16.1214 6.84383 16.2125 6.80609C16.3036 6.76835 16.4013 6.74893 16.4999 6.74893C16.5985 6.74893 16.6961 6.76835 16.7872 6.80609C16.8784 6.84383 16.9611 6.89914 17.0309 6.96888C17.1006 7.03861 17.1559 7.12139 17.1937 7.2125C17.2314 7.30361 17.2508 7.40126 17.2508 7.49988C17.2508 7.59849 17.2314 7.69614 17.1937 7.78725C17.1559 7.87836 17.1006 7.96114 17.0309 8.03088L13.0604 11.9999L17.0309 15.9689C17.1006 16.0386 17.1559 16.1214 17.1937 16.2125C17.2314 16.3036 17.2508 16.4013 17.2508 16.4999C17.2508 16.5985 17.2314 16.6961 17.1937 16.7872C17.1559 16.8784 17.1006 16.9611 17.0309 17.0309C16.9611 17.1006 16.8784 17.1559 16.7872 17.1937C16.6961 17.2314 16.5985 17.2508 16.4999 17.2508C16.4013 17.2508 16.3036 17.2314 16.2125 17.1937C16.1214 17.1559 16.0386 17.1006 15.9689 17.0309L11.9999 13.0604L8.03088 17.0309C7.96114 17.1006 7.87836 17.1559 7.78725 17.1937C7.69614 17.2314 7.59849 17.2508 7.49988 17.2508C7.40126 17.2508 7.30361 17.2314 7.2125 17.1937C7.12139 17.1559 7.03861 17.1006 6.96888 17.0309C6.89914 16.9611 6.84383 16.8784 6.80609 16.7872C6.76835 16.6961 6.74893 16.5985 6.74893 16.4999C6.74893 16.4013 6.76835 16.3036 6.80609 16.2125C6.84383 16.1214 6.89914 16.0386 6.96888 15.9689L10.9394 11.9999L6.96888 8.03088C6.89903 7.96121 6.84362 7.87844 6.80581 7.78733C6.768 7.69621 6.74854 7.59853 6.74854 7.49988C6.74854 7.40122 6.768 7.30354 6.80581 7.21242C6.84362 7.12131 6.89903 7.03854 6.96888 6.96888Z" fill="#1E1E1E"/>
</svg>
