<svg width="14" height="14" viewBox="0 0 14 14" fill="none" xmlns="http://www.w3.org/2000/svg">
<path d="M0.291834 0.291956C0.384725 0.198829 0.495076 0.124943 0.616567 0.0745306C0.738057 0.0241177 0.868299 -0.00183105 0.999834 -0.00183105C1.13137 -0.00183105 1.26161 0.0241177 1.3831 0.0745306C1.50459 0.124943 1.61494 0.198829 1.70783 0.291956L6.99983 5.58596L12.2918 0.291956C12.3848 0.19898 12.4952 0.125227 12.6167 0.0749092C12.7381 0.024591 12.8683 -0.00130749 12.9998 -0.00130749C13.1313 -0.00130749 13.2615 0.024591 13.383 0.0749092C13.5045 0.125227 13.6149 0.19898 13.7078 0.291956C13.8008 0.384932 13.8746 0.49531 13.9249 0.616789C13.9752 0.738268 14.0011 0.868468 14.0011 0.999956C14.0011 1.13144 13.9752 1.26164 13.9249 1.38312C13.8746 1.5046 13.8008 1.61498 13.7078 1.70796L8.41383 6.99996L13.7078 12.292C13.8008 12.3849 13.8746 12.4953 13.9249 12.6168C13.9752 12.7383 14.0011 12.8685 14.0011 13C14.0011 13.1314 13.9752 13.2616 13.9249 13.3831C13.8746 13.5046 13.8008 13.615 13.7078 13.708C13.6149 13.8009 13.5045 13.8747 13.383 13.925C13.2615 13.9753 13.1313 14.0012 12.9998 14.0012C12.8683 14.0012 12.7381 13.9753 12.6167 13.925C12.4952 13.8747 12.3848 13.8009 12.2918 13.708L6.99983 8.41395L1.70783 13.708C1.61486 13.8009 1.50448 13.8747 1.383 13.925C1.26152 13.9753 1.13132 14.0012 0.999834 14.0012C0.868346 14.0012 0.738146 13.9753 0.616667 13.925C0.495188 13.8747 0.38481 13.8009 0.291834 13.708C0.198858 13.615 0.125105 13.5046 0.0747871 13.3831C0.0244689 13.2616 -0.00142956 13.1314 -0.00142956 13C-0.00142956 12.8685 0.0244689 12.7383 0.0747871 12.6168C0.125105 12.4953 0.198858 12.3849 0.291834 12.292L5.58583 6.99996L0.291834 1.70796C0.198707 1.61506 0.124821 1.50471 0.0744085 1.38322C0.0239956 1.26173 -0.00195312 1.13149 -0.00195312 0.999956C-0.00195312 0.868421 0.0239956 0.738179 0.0744085 0.616689C0.124821 0.495198 0.198707 0.384847 0.291834 0.291956Z" fill="white" fill-opacity="0.75"/>
</svg>
