<svg width="20" height="21" viewBox="0 0 20 21" fill="none" xmlns="http://www.w3.org/2000/svg">
<rect y="0.220703" width="20" height="20" rx="10" fill="white" fill-opacity="0.5"/>
<path d="M10.0382 5.71996H10.105C10.7215 5.72221 13.8453 5.74471 14.6875 5.97121C14.9421 6.04033 15.1741 6.17507 15.3604 6.36196C15.5466 6.54885 15.6805 6.78134 15.7487 7.03621C15.8245 7.32121 15.8778 7.69846 15.9137 8.08771L15.9213 8.16571L15.9377 8.36071L15.9438 8.43871C15.9925 9.12421 15.9985 9.76621 15.9992 9.90646V9.96271C15.9985 10.1082 15.9917 10.7937 15.9377 11.5077L15.9318 11.5865L15.925 11.6645C15.8875 12.0935 15.832 12.5195 15.7487 12.833C15.6807 13.0879 15.5469 13.3205 15.3606 13.5074C15.1744 13.6944 14.9422 13.829 14.6875 13.898C13.8175 14.132 10.5107 14.1485 10.0525 14.1492H9.946C9.71425 14.1492 8.75575 14.1447 7.75075 14.1102L7.62325 14.1057L7.558 14.1027L7.42975 14.0975L7.3015 14.0922C6.469 14.0555 5.67625 13.9962 5.311 13.8972C5.05637 13.8284 4.8243 13.6938 4.63804 13.507C4.45179 13.3202 4.31789 13.0878 4.24975 12.833C4.1665 12.5202 4.111 12.0935 4.0735 11.6645L4.0675 11.5857L4.0615 11.5077C4.02449 10.9995 4.00397 10.4902 4 9.98071L4 9.88846C4.0015 9.72721 4.0075 9.16996 4.048 8.55496L4.05325 8.47771L4.0555 8.43871L4.0615 8.36071L4.078 8.16571L4.0855 8.08771C4.1215 7.69846 4.17475 7.32046 4.2505 7.03621C4.31852 6.78124 4.45237 6.54864 4.63863 6.36172C4.8249 6.1748 5.05703 6.04012 5.31175 5.97121C5.677 5.87371 6.46975 5.81371 7.30225 5.77621L7.42975 5.77096L7.55875 5.76646L7.62325 5.76421L7.7515 5.75896C8.46528 5.73599 9.17935 5.72324 9.8935 5.72071H10.0382V5.71996ZM8.8 8.12746V11.741L11.9178 9.93496L8.8 8.12746Z" fill="#001007" fill-opacity="0.75"/>
</svg>
