<svg width="12" height="9" viewBox="0 0 12 9" fill="none" xmlns="http://www.w3.org/2000/svg">
<path d="M6.03825 0.557861H6.105C6.7215 0.560111 9.84525 0.582611 10.6875 0.809111C10.9421 0.878238 11.1741 1.01298 11.3604 1.19987C11.5466 1.38676 11.6805 1.61925 11.7487 1.87411C11.8245 2.15911 11.8778 2.53636 11.9138 2.92561L11.9213 3.00361L11.9377 3.19861L11.9438 3.27661C11.9925 3.96211 11.9985 4.60411 11.9992 4.74436V4.80061C11.9985 4.94611 11.9917 5.63161 11.9377 6.34561L11.9318 6.42436L11.925 6.50236C11.8875 6.93136 11.832 7.35736 11.7487 7.67086C11.6807 7.92583 11.5469 8.15843 11.3606 8.34535C11.1744 8.53227 10.9422 8.66694 10.6875 8.73586C9.8175 8.96986 6.51075 8.98636 6.0525 8.98711H5.946C5.71425 8.98711 4.75575 8.98261 3.75075 8.94811L3.62325 8.94361L3.558 8.94061L3.42975 8.93536L3.3015 8.93011C2.469 8.89336 1.67625 8.83411 1.311 8.73511C1.05637 8.66626 0.824299 8.5317 0.638043 8.34492C0.451788 8.15814 0.317885 7.92569 0.24975 7.67086C0.1665 7.35811 0.111 6.93136 0.0735 6.50236L0.0675 6.42361L0.0615 6.34561C0.0244857 5.83741 0.0039749 5.32814 0 4.81861L0 4.72636C0.0015 4.56511 0.0075 4.00786 0.048 3.39286L0.05325 3.31561L0.0555 3.27661L0.0615 3.19861L0.078 3.00361L0.0855 2.92561C0.1215 2.53636 0.17475 2.15836 0.2505 1.87411C0.31852 1.61915 0.452372 1.38654 0.638635 1.19962C0.824898 1.0127 1.05703 0.878031 1.31175 0.809111C1.677 0.711611 2.46975 0.651611 3.30225 0.614111L3.42975 0.608861L3.55875 0.604361L3.62325 0.602111L3.7515 0.596861C4.46528 0.573892 5.17935 0.561141 5.8935 0.558611H6.03825V0.557861ZM4.8 2.96536V6.57886L7.91775 4.77286L4.8 2.96536Z" fill="#001007" fill-opacity="0.75"/>
</svg>
