<svg width="320" height="320" viewBox="0 0 320 320" fill="none" xmlns="http://www.w3.org/2000/svg">
<circle cx="160" cy="160" r="152" stroke="white" stroke-opacity="0.25" stroke-width="16"/>
<circle cx="160" cy="160" r="152" fill="white" fill-opacity="0.85"/>
<circle cx="160" cy="160" r="151" stroke="white" stroke-opacity="0.25" stroke-width="2"/>
<path fill-rule="evenodd" clip-rule="evenodd" d="M143.781 36.7763C143.781 38.9046 145.119 46.7215 146.467 50.2895C147.799 53.8293 158.384 71.3414 158.528 71.5786C158.604 71.6179 168.941 76.9829 172.944 80.4409C176.684 83.6782 179.927 82.9541 184.322 81.9728C184.637 81.9025 184.958 81.8308 185.285 81.7592C195.354 79.6101 269.666 122.994 303.84 162.472C304.948 163.748 306.039 164.95 307.124 166.073C303.771 223.231 268.409 271.746 218.708 294.039C217.975 287.379 217.476 281.646 217.475 278.244C217.475 269.967 212.422 260.996 206.863 251.129C204.328 246.627 201.687 241.939 199.372 237.045C191.995 221.415 172.576 180.259 171.272 177.389C169.889 174.566 161.221 167.455 147.138 173.837C138.174 177.902 128.404 177.377 121.446 177.003C117.479 176.79 114.427 176.625 112.959 177.389C108.936 179.51 94.2412 184.482 87.5193 185.214C83.6349 185.621 82.2241 188.649 80.8128 191.677C79.7878 193.877 78.7625 196.077 76.7893 197.274C72.1057 200.133 58.6985 192.282 58.6985 192.282C58.5453 192.201 51.997 188.749 50.6785 185.91C50.0702 184.604 49.7412 183.058 49.3009 180.988C48.7816 178.546 48.1075 175.377 46.6379 171.017C42.7269 159.124 49.8018 157.81 50.0193 157.772C50.0193 157.772 61.3868 147.336 65.4123 143.759C69.4288 140.225 86.4204 120.178 86.8235 112.777C87.3593 103.481 93.8145 97.1417 98.9206 92.1273C100.449 90.626 101.857 89.2435 102.949 87.936C103.784 86.901 105.009 85.8685 106.315 84.7679C108.613 82.8304 111.161 80.6821 112.275 77.9384C114.061 73.7166 112.275 68.0507 112.275 68.0507C105.005 62.421 112.15 39.314 112.275 38.9125H114.973C114.973 39.1021 115.015 45.3457 117.634 48.8735C118.31 49.7594 119.148 51.1738 120.079 52.7433C122.881 57.4702 126.517 63.604 129.048 60.9462C132.404 57.3536 138.41 61.642 138.41 61.642C133.102 53.9068 140.947 34.9394 141.072 34.6401H143.781V36.7763Z" fill="#002710" fill-opacity="0.25"/>
</svg>
