<svg width="328" height="328" viewBox="0 0 328 328" fill="none" xmlns="http://www.w3.org/2000/svg">
<g filter="url(#filter0_d_2700_12067)">
<mask id="path-1-inside-1_2700_12067" fill="white">
<rect x="4" width="320" height="320" rx="6"/>
</mask>
<rect x="4" width="320" height="320" rx="6" fill="white" fill-opacity="0.85" shape-rendering="crispEdges"/>
<rect x="4" width="320" height="320" rx="6" stroke="white" stroke-width="16" shape-rendering="crispEdges" mask="url(#path-1-inside-1_2700_12067)"/>
<path fill-rule="evenodd" clip-rule="evenodd" d="M137.63 32.3008C137.63 34.5931 139.067 43.0123 140.516 46.8553C141.947 50.6678 153.319 69.5294 153.473 69.7849C153.555 69.8272 164.661 75.6057 168.961 79.3301C172.979 82.8169 176.464 82.0369 181.185 80.9801C181.524 80.9043 181.869 80.8272 182.22 80.75C193.038 78.4352 272.874 125.162 309.59 167.683C310.78 169.057 321 176.886 321 176.886V316H215.117C215.117 316 216.804 296.039 216.804 292.375C216.804 283.46 211.374 273.798 205.403 263.171C202.678 258.322 199.841 253.273 197.355 248.002C189.429 231.167 168.566 186.84 167.165 183.749C165.679 180.708 156.367 173.049 141.237 179.923C131.606 184.302 121.109 183.736 113.634 183.333C109.372 183.103 106.093 182.927 104.516 183.749C100.194 186.033 84.4067 191.388 77.185 192.177C73.0118 192.615 71.496 195.876 69.9798 199.138C68.8786 201.508 67.7771 203.877 65.6572 205.167C60.6254 208.246 46.2213 199.789 46.2213 199.789C46.0567 199.703 39.0215 195.984 37.6049 192.926C36.9514 191.52 36.598 189.855 36.1249 187.625C35.5671 184.996 34.8429 181.582 33.264 176.886C29.0621 164.077 36.6631 162.661 36.8967 162.621C36.8967 162.621 49.1095 151.38 53.4343 147.527C57.7494 143.722 76.0044 122.129 76.4374 114.158C77.0132 104.146 83.9483 97.3178 89.4341 91.917C91.0764 90.3001 92.5889 88.8111 93.7619 87.4028C94.6595 86.288 95.9753 85.1759 97.3779 83.9906C99.8471 81.9037 102.585 79.5899 103.782 76.6348C105.7 72.0876 103.782 65.9852 103.782 65.9852C95.9712 59.9216 103.647 35.034 103.782 34.6016H106.68C106.68 34.8058 106.725 41.5305 109.539 45.3302C110.265 46.2844 111.165 47.8077 112.165 49.4982C115.176 54.5893 119.083 61.1958 121.801 58.3332C125.407 54.4638 131.86 59.0826 131.86 59.0826C126.157 50.7514 134.585 30.3223 134.719 30H137.63V32.3008Z" fill="#002710" fill-opacity="0.25"/>
</g>
<defs>
<filter id="filter0_d_2700_12067" x="0" y="0" width="328" height="328" filterUnits="userSpaceOnUse" color-interpolation-filters="sRGB">
<feFlood flood-opacity="0" result="BackgroundImageFix"/>
<feColorMatrix in="SourceAlpha" type="matrix" values="0 0 0 0 0 0 0 0 0 0 0 0 0 0 0 0 0 0 127 0" result="hardAlpha"/>
<feOffset dy="4"/>
<feGaussianBlur stdDeviation="2"/>
<feComposite in2="hardAlpha" operator="out"/>
<feColorMatrix type="matrix" values="0 0 0 0 0 0 0 0 0 0 0 0 0 0 0 0 0 0 0.25 0"/>
<feBlend mode="normal" in2="BackgroundImageFix" result="effect1_dropShadow_2700_12067"/>
<feBlend mode="normal" in="SourceGraphic" in2="effect1_dropShadow_2700_12067" result="shape"/>
</filter>
</defs>
</svg>
